G04 #@! TF.GenerationSoftware,KiCad,Pcbnew,8.0.6*
G04 #@! TF.CreationDate,2026-03-15T19:48:56+02:00*
G04 #@! TF.ProjectId,c64-wedge-psu-pcb,6336342d-7765-4646-9765-2d7073752d70,rev?*
G04 #@! TF.SameCoordinates,Original*
G04 #@! TF.FileFunction,Copper,L1,Top*
G04 #@! TF.FilePolarity,Positive*
%FSLAX46Y46*%
G04 Gerber Fmt 4.6, Leading zero omitted, Abs format (unit mm)*
G04 Created by KiCad (PCBNEW 8.0.6) date 2026-03-15 19:48:56*
%MOMM*%
%LPD*%
G01*
G04 APERTURE LIST*
G04 Aperture macros list*
%AMRoundRect*
0 Rectangle with rounded corners*
0 $1 Rounding radius*
0 $2 $3 $4 $5 $6 $7 $8 $9 X,Y pos of 4 corners*
0 Add a 4 corners polygon primitive as box body*
4,1,4,$2,$3,$4,$5,$6,$7,$8,$9,$2,$3,0*
0 Add four circle primitives for the rounded corners*
1,1,$1+$1,$2,$3*
1,1,$1+$1,$4,$5*
1,1,$1+$1,$6,$7*
1,1,$1+$1,$8,$9*
0 Add four rect primitives between the rounded corners*
20,1,$1+$1,$2,$3,$4,$5,0*
20,1,$1+$1,$4,$5,$6,$7,0*
20,1,$1+$1,$6,$7,$8,$9,0*
20,1,$1+$1,$8,$9,$2,$3,0*%
G04 Aperture macros list end*
G04 #@! TA.AperFunction,ComponentPad*
%ADD10RoundRect,0.250002X-1.699998X-1.699998X1.699998X-1.699998X1.699998X1.699998X-1.699998X1.699998X0*%
G04 #@! TD*
G04 #@! TA.AperFunction,ComponentPad*
%ADD11C,1.600000*%
G04 #@! TD*
G04 #@! TA.AperFunction,ComponentPad*
%ADD12O,1.600000X1.600000*%
G04 #@! TD*
G04 #@! TA.AperFunction,ComponentPad*
%ADD13R,3.200000X3.200000*%
G04 #@! TD*
G04 #@! TA.AperFunction,ComponentPad*
%ADD14O,3.200000X3.200000*%
G04 #@! TD*
G04 #@! TA.AperFunction,ComponentPad*
%ADD15R,1.600000X1.600000*%
G04 #@! TD*
G04 #@! TA.AperFunction,ComponentPad*
%ADD16C,3.600000*%
G04 #@! TD*
G04 #@! TA.AperFunction,ComponentPad*
%ADD17C,2.000000*%
G04 #@! TD*
G04 #@! TA.AperFunction,ComponentPad*
%ADD18R,2.400000X2.400000*%
G04 #@! TD*
G04 #@! TA.AperFunction,ComponentPad*
%ADD19C,2.400000*%
G04 #@! TD*
G04 #@! TA.AperFunction,ComponentPad*
%ADD20R,1.800000X1.800000*%
G04 #@! TD*
G04 #@! TA.AperFunction,ComponentPad*
%ADD21O,1.800000X1.800000*%
G04 #@! TD*
G04 #@! TA.AperFunction,ComponentPad*
%ADD22C,1.800000*%
G04 #@! TD*
G04 #@! TA.AperFunction,Conductor*
%ADD23C,1.800000*%
G04 #@! TD*
G04 APERTURE END LIST*
D10*
X104000000Y-62750000D03*
X150000000Y-62750000D03*
X112000000Y-62750000D03*
D11*
X117348000Y-97790000D03*
D12*
X117348000Y-105410000D03*
D10*
X142000000Y-62750000D03*
D11*
X114300000Y-105410000D03*
D12*
X114300000Y-97790000D03*
D13*
X110490000Y-88900000D03*
D14*
X110490000Y-76200000D03*
D11*
X156972000Y-99695000D03*
X156972000Y-102195000D03*
X137795000Y-89535000D03*
X135295000Y-89535000D03*
X120015000Y-87630000D03*
X120015000Y-90130000D03*
D13*
X100330000Y-76200000D03*
D14*
X100330000Y-88900000D03*
D15*
X153035000Y-97155000D03*
D11*
X153035000Y-93655000D03*
D16*
X132080000Y-107960000D03*
X132080000Y-96520000D03*
D17*
X148035000Y-105410000D03*
X153035000Y-105410000D03*
D18*
X128270000Y-87000000D03*
D19*
X128270000Y-79500000D03*
D18*
X144780000Y-87000000D03*
D19*
X144780000Y-79500000D03*
D11*
X156845000Y-90170000D03*
D12*
X156845000Y-82550000D03*
D20*
X108810000Y-99060000D03*
D21*
X107110000Y-102760000D03*
X105410000Y-99060000D03*
X103710000Y-102760000D03*
X102010000Y-99060000D03*
D20*
X156210000Y-80010000D03*
D22*
X156210000Y-77470000D03*
D13*
X115570000Y-88900000D03*
D14*
X115570000Y-76200000D03*
D13*
X95250000Y-76200000D03*
D14*
X95250000Y-88900000D03*
D13*
X105410000Y-88900000D03*
D14*
X105410000Y-76200000D03*
D23*
X108810000Y-99060000D02*
X108810000Y-90580000D01*
X108810000Y-90580000D02*
X110490000Y-88900000D01*
X126360000Y-85090000D02*
X113080000Y-85090000D01*
X120015000Y-87630000D02*
X127640000Y-87630000D01*
X110490000Y-87680000D02*
X110490000Y-88900000D01*
X128270000Y-87000000D02*
X126360000Y-85090000D01*
X113080000Y-85090000D02*
X110490000Y-87680000D01*
X127640000Y-87630000D02*
X128270000Y-87000000D01*
X105410000Y-88900000D02*
X110490000Y-88900000D01*
X150495000Y-76200000D02*
X142000000Y-67705000D01*
X150495000Y-83820000D02*
X150495000Y-76200000D01*
X156845000Y-93345000D02*
X156845000Y-90170000D01*
X153035000Y-97155000D02*
X156845000Y-93345000D01*
X153035000Y-105410000D02*
X153035000Y-97155000D01*
X142000000Y-67705000D02*
X142000000Y-62750000D01*
X156845000Y-90170000D02*
X150495000Y-83820000D01*
X156972000Y-99695000D02*
X155575000Y-99695000D01*
X155575000Y-99695000D02*
X153035000Y-97155000D01*
X107110000Y-102760000D02*
X110010000Y-102760000D01*
X110490000Y-111760000D02*
X107110000Y-108380000D01*
X115570000Y-88900000D02*
X115570000Y-90170000D01*
X110010000Y-102760000D02*
X111760000Y-101010000D01*
X115570000Y-90170000D02*
X111760000Y-93980000D01*
X107110000Y-108380000D02*
X107110000Y-102760000D01*
X128280000Y-111760000D02*
X110490000Y-111760000D01*
X132080000Y-107960000D02*
X128280000Y-111760000D01*
X111760000Y-101010000D02*
X111760000Y-93980000D01*
X110490000Y-64260000D02*
X112000000Y-62750000D01*
X110490000Y-76200000D02*
X110490000Y-64260000D01*
X100330000Y-76200000D02*
X103480000Y-79350000D01*
X103480000Y-79350000D02*
X107340000Y-79350000D01*
X107340000Y-79350000D02*
X110490000Y-76200000D01*
X105410000Y-64160000D02*
X104000000Y-62750000D01*
X95250000Y-74980000D02*
X97180000Y-73050000D01*
X95250000Y-76200000D02*
X95250000Y-74980000D01*
X103530000Y-73050000D02*
X105410000Y-74930000D01*
X97180000Y-73050000D02*
X103530000Y-73050000D01*
X105410000Y-76200000D02*
X105410000Y-64160000D01*
X104000000Y-62750000D02*
X104660000Y-62750000D01*
X105410000Y-74930000D02*
X105410000Y-76200000D01*
X156210000Y-80010000D02*
X156210000Y-81915000D01*
X156210000Y-81915000D02*
X156845000Y-82550000D01*
X114300000Y-105410000D02*
X117348000Y-105410000D01*
X146685000Y-104060000D02*
X146685000Y-88905000D01*
X148035000Y-105410000D02*
X146685000Y-104060000D01*
X144140000Y-87000000D02*
X144780000Y-87000000D01*
X117348000Y-97790000D02*
X117348000Y-94107000D01*
X141605000Y-89535000D02*
X144140000Y-87000000D01*
X128270000Y-92710000D02*
X132080000Y-96520000D01*
X138430000Y-92710000D02*
X141605000Y-89535000D01*
X137795000Y-89535000D02*
X141605000Y-89535000D01*
X118745000Y-92710000D02*
X128270000Y-92710000D01*
X135890000Y-92710000D02*
X138430000Y-92710000D01*
X132080000Y-96520000D02*
X135890000Y-92710000D01*
X117348000Y-94107000D02*
X118745000Y-92710000D01*
X146685000Y-88905000D02*
X144780000Y-87000000D01*
M02*
