G04 #@! TF.GenerationSoftware,KiCad,Pcbnew,(5.1.5)-3*
G04 #@! TF.CreationDate,2020-11-17T13:33:41+02:00*
G04 #@! TF.ProjectId,c64-wedge-psu-pcb,6336342d-7765-4646-9765-2d7073752d70,rev?*
G04 #@! TF.SameCoordinates,Original*
G04 #@! TF.FileFunction,Copper,L1,Top*
G04 #@! TF.FilePolarity,Positive*
%FSLAX46Y46*%
G04 Gerber Fmt 4.6, Leading zero omitted, Abs format (unit mm)*
G04 Created by KiCad (PCBNEW (5.1.5)-3) date 2020-11-17 13:33:41*
%MOMM*%
%LPD*%
G04 APERTURE LIST*
%ADD10O,2.400000X2.400000*%
%ADD11C,2.400000*%
%ADD12O,1.800000X1.800000*%
%ADD13R,1.800000X1.800000*%
%ADD14R,2.400000X2.400000*%
%ADD15C,3.000000*%
%ADD16C,1.600000*%
%ADD17R,1.600000X1.600000*%
%ADD18O,3.200000X3.200000*%
%ADD19R,3.200000X3.200000*%
%ADD20C,3.600000*%
%ADD21O,1.600000X1.600000*%
%ADD22R,1.700000X1.700000*%
%ADD23O,1.700000X1.700000*%
%ADD24C,2.600000*%
%ADD25R,2.600000X2.600000*%
%ADD26C,4.500880*%
%ADD27C,1.400000*%
G04 APERTURE END LIST*
D10*
X127420000Y-111000000D03*
D11*
X132500000Y-111000000D03*
D12*
X112500000Y-104150000D03*
X116200000Y-102450000D03*
X112500000Y-100750000D03*
X116200000Y-99050000D03*
D13*
X112500000Y-97350000D03*
D11*
X141000000Y-79500000D03*
D14*
X141000000Y-87000000D03*
D11*
X115500000Y-79500000D03*
D14*
X115500000Y-87000000D03*
D15*
X156120000Y-101000000D03*
X148500000Y-101000000D03*
D16*
X153000000Y-86750000D03*
D17*
X156500000Y-86750000D03*
D18*
X128500000Y-76800000D03*
D19*
X128500000Y-89500000D03*
D20*
X132500000Y-106440000D03*
X132500000Y-95000000D03*
D21*
X149380000Y-76500000D03*
D16*
X157000000Y-76500000D03*
D22*
X152000000Y-80500000D03*
D23*
X154540000Y-80500000D03*
D24*
X93500000Y-77600000D03*
D25*
X93500000Y-88000000D03*
D24*
X103900000Y-88000000D03*
X103900000Y-77600000D03*
D26*
X150000000Y-63000000D03*
X142000000Y-63000000D03*
X112000000Y-63000000D03*
X104000000Y-63000000D03*
D27*
X93500000Y-90700000D02*
X95800000Y-93000000D01*
X93500000Y-88000000D02*
X93500000Y-90700000D01*
X95800000Y-93000000D02*
X107000000Y-93000000D01*
X107000000Y-93000000D02*
X112000000Y-88000000D01*
X112900000Y-87000000D02*
X115500000Y-87000000D01*
X112000000Y-88000000D02*
X112000000Y-87900000D01*
X112000000Y-87900000D02*
X112900000Y-87000000D01*
X112500000Y-92600000D02*
X112500000Y-97350000D01*
X115500000Y-87000000D02*
X115500000Y-89600000D01*
X115500000Y-89600000D02*
X112500000Y-92600000D01*
X132500000Y-111000000D02*
X132500000Y-106440000D01*
X146000000Y-92000000D02*
X141000000Y-87000000D01*
X148500000Y-101000000D02*
X146000000Y-98500000D01*
X146000000Y-98500000D02*
X146000000Y-92000000D01*
X134299999Y-108299999D02*
X134299999Y-108239999D01*
X146000000Y-103500000D02*
X146000000Y-110000000D01*
X134299999Y-108239999D02*
X132500000Y-106440000D01*
X148500000Y-101000000D02*
X146000000Y-103500000D01*
X146000000Y-110000000D02*
X145000000Y-111000000D01*
X145000000Y-111000000D02*
X137000000Y-111000000D01*
X137000000Y-111000000D02*
X134299999Y-108299999D01*
X146000000Y-103500000D02*
X146000000Y-98500000D01*
X93500000Y-73500000D02*
X93500000Y-77600000D01*
X104000000Y-63000000D02*
X93500000Y-73500000D01*
X99000000Y-83100000D02*
X103900000Y-88000000D01*
X99000000Y-75000000D02*
X99000000Y-83100000D01*
X112000000Y-63000000D02*
X112000000Y-67000000D01*
X112000000Y-67000000D02*
X109000000Y-70000000D01*
X104000000Y-70000000D02*
X99000000Y-75000000D01*
X109000000Y-70000000D02*
X104000000Y-70000000D01*
X116200000Y-99050000D02*
X116200000Y-93800000D01*
X120500000Y-89500000D02*
X128500000Y-89500000D01*
X116200000Y-93800000D02*
X120500000Y-89500000D01*
X128500000Y-89500000D02*
X129500000Y-89500000D01*
X129500000Y-89500000D02*
X132000000Y-92000000D01*
X132500000Y-92454416D02*
X132500000Y-95000000D01*
X132000000Y-92000000D02*
X132045584Y-92000000D01*
X132045584Y-92000000D02*
X132500000Y-92454416D01*
X142000000Y-63000000D02*
X143000000Y-63000000D01*
X157000000Y-75000000D02*
X157000000Y-76500000D01*
X152000000Y-70000000D02*
X157000000Y-75000000D01*
X142000000Y-63000000D02*
X149000000Y-70000000D01*
X149000000Y-70000000D02*
X152000000Y-70000000D01*
X158000000Y-85250000D02*
X156500000Y-86750000D01*
X157000000Y-76500000D02*
X158000000Y-77500000D01*
X158000000Y-77500000D02*
X158000000Y-85250000D01*
X156120000Y-101000000D02*
X156636000Y-101000000D01*
X156750000Y-86750000D02*
X156500000Y-86750000D01*
X158000000Y-88000000D02*
X156750000Y-86750000D01*
X156120000Y-101000000D02*
X158000000Y-99120000D01*
X158000000Y-99120000D02*
X158000000Y-88000000D01*
X116200000Y-102450000D02*
X116200000Y-108200000D01*
X116200000Y-108200000D02*
X119000000Y-111000000D01*
X119000000Y-111000000D02*
X127420000Y-111000000D01*
X152000000Y-79120000D02*
X149380000Y-76500000D01*
X152000000Y-80500000D02*
X152000000Y-79120000D01*
M02*
