G04 #@! TF.GenerationSoftware,KiCad,Pcbnew,8.0.6*
G04 #@! TF.CreationDate,2026-03-29T15:19:43+03:00*
G04 #@! TF.ProjectId,c64-wedge-psu-pcb,6336342d-7765-4646-9765-2d7073752d70,rev?*
G04 #@! TF.SameCoordinates,Original*
G04 #@! TF.FileFunction,Soldermask,Top*
G04 #@! TF.FilePolarity,Negative*
%FSLAX46Y46*%
G04 Gerber Fmt 4.6, Leading zero omitted, Abs format (unit mm)*
G04 Created by KiCad (PCBNEW 8.0.6) date 2026-03-29 15:19:43*
%MOMM*%
%LPD*%
G01*
G04 APERTURE LIST*
G04 APERTURE END LIST*
G36*
X94021810Y-110909000D02*
G01*
X94069444Y-110909000D01*
X94110578Y-110917743D01*
X94146822Y-110921313D01*
X94192354Y-110935125D01*
X94244422Y-110946192D01*
X94277738Y-110961025D01*
X94307242Y-110969975D01*
X94354128Y-110995036D01*
X94407844Y-111018952D01*
X94432818Y-111037097D01*
X94455076Y-111048994D01*
X94500476Y-111086253D01*
X94552567Y-111124100D01*
X94569482Y-111142886D01*
X94584658Y-111155341D01*
X94625443Y-111205037D01*
X94672266Y-111257039D01*
X94682100Y-111274073D01*
X94691005Y-111284923D01*
X94723944Y-111346549D01*
X94761710Y-111411960D01*
X94766054Y-111425329D01*
X94770024Y-111432757D01*
X94791908Y-111504901D01*
X94816989Y-111582092D01*
X94817872Y-111590493D01*
X94818686Y-111593177D01*
X94826610Y-111673632D01*
X94835688Y-111760000D01*
X94826609Y-111846375D01*
X94818686Y-111926822D01*
X94817872Y-111929504D01*
X94816989Y-111937908D01*
X94791903Y-112015112D01*
X94770024Y-112087242D01*
X94766054Y-112094667D01*
X94761710Y-112108040D01*
X94723937Y-112173463D01*
X94691005Y-112235076D01*
X94682102Y-112245923D01*
X94672266Y-112262961D01*
X94625434Y-112314972D01*
X94584658Y-112364658D01*
X94569486Y-112377109D01*
X94552567Y-112395900D01*
X94500465Y-112433754D01*
X94455076Y-112471005D01*
X94432823Y-112482899D01*
X94407844Y-112501048D01*
X94354117Y-112524968D01*
X94307242Y-112550024D01*
X94277745Y-112558971D01*
X94244422Y-112573808D01*
X94192343Y-112584877D01*
X94146822Y-112598686D01*
X94110587Y-112602254D01*
X94069444Y-112611000D01*
X94021799Y-112611000D01*
X93980000Y-112615117D01*
X93938200Y-112611000D01*
X93890556Y-112611000D01*
X93849413Y-112602255D01*
X93813177Y-112598686D01*
X93767652Y-112584876D01*
X93715578Y-112573808D01*
X93682256Y-112558972D01*
X93652757Y-112550024D01*
X93605876Y-112524965D01*
X93552156Y-112501048D01*
X93527179Y-112482901D01*
X93504923Y-112471005D01*
X93459525Y-112433747D01*
X93407433Y-112395900D01*
X93390516Y-112377112D01*
X93375341Y-112364658D01*
X93334554Y-112314960D01*
X93287734Y-112262961D01*
X93277899Y-112245927D01*
X93268994Y-112235076D01*
X93236048Y-112173439D01*
X93198290Y-112108040D01*
X93193946Y-112094672D01*
X93189975Y-112087242D01*
X93168081Y-112015065D01*
X93143011Y-111937908D01*
X93142128Y-111929509D01*
X93141313Y-111926822D01*
X93133374Y-111846224D01*
X93124312Y-111760000D01*
X93133373Y-111673783D01*
X93141313Y-111593177D01*
X93142128Y-111590488D01*
X93143011Y-111582092D01*
X93168076Y-111504948D01*
X93189975Y-111432757D01*
X93193947Y-111425325D01*
X93198290Y-111411960D01*
X93236041Y-111346572D01*
X93268994Y-111284923D01*
X93277901Y-111274069D01*
X93287734Y-111257039D01*
X93334545Y-111205049D01*
X93375341Y-111155341D01*
X93390520Y-111142883D01*
X93407433Y-111124100D01*
X93459515Y-111086259D01*
X93504923Y-111048994D01*
X93527184Y-111037094D01*
X93552156Y-111018952D01*
X93605865Y-110995038D01*
X93652757Y-110969975D01*
X93682264Y-110961024D01*
X93715578Y-110946192D01*
X93767641Y-110935125D01*
X93813177Y-110921313D01*
X93849422Y-110917743D01*
X93890556Y-110909000D01*
X93938190Y-110909000D01*
X93980000Y-110904882D01*
X94021810Y-110909000D01*
G37*
G36*
X101641810Y-110909000D02*
G01*
X101689444Y-110909000D01*
X101730578Y-110917743D01*
X101766822Y-110921313D01*
X101812354Y-110935125D01*
X101864422Y-110946192D01*
X101897738Y-110961025D01*
X101927242Y-110969975D01*
X101974128Y-110995036D01*
X102027844Y-111018952D01*
X102052818Y-111037097D01*
X102075076Y-111048994D01*
X102120476Y-111086253D01*
X102172567Y-111124100D01*
X102189482Y-111142886D01*
X102204658Y-111155341D01*
X102245443Y-111205037D01*
X102292266Y-111257039D01*
X102302100Y-111274073D01*
X102311005Y-111284923D01*
X102343944Y-111346549D01*
X102381710Y-111411960D01*
X102386054Y-111425329D01*
X102390024Y-111432757D01*
X102411908Y-111504901D01*
X102436989Y-111582092D01*
X102437872Y-111590493D01*
X102438686Y-111593177D01*
X102446610Y-111673632D01*
X102455688Y-111760000D01*
X102446609Y-111846375D01*
X102438686Y-111926822D01*
X102437872Y-111929504D01*
X102436989Y-111937908D01*
X102411903Y-112015112D01*
X102390024Y-112087242D01*
X102386054Y-112094667D01*
X102381710Y-112108040D01*
X102343937Y-112173463D01*
X102311005Y-112235076D01*
X102302102Y-112245923D01*
X102292266Y-112262961D01*
X102245434Y-112314972D01*
X102204658Y-112364658D01*
X102189486Y-112377109D01*
X102172567Y-112395900D01*
X102120465Y-112433754D01*
X102075076Y-112471005D01*
X102052823Y-112482899D01*
X102027844Y-112501048D01*
X101974117Y-112524968D01*
X101927242Y-112550024D01*
X101897745Y-112558971D01*
X101864422Y-112573808D01*
X101812343Y-112584877D01*
X101766822Y-112598686D01*
X101730587Y-112602254D01*
X101689444Y-112611000D01*
X101641799Y-112611000D01*
X101600000Y-112615117D01*
X101558200Y-112611000D01*
X101510556Y-112611000D01*
X101469413Y-112602255D01*
X101433177Y-112598686D01*
X101387652Y-112584876D01*
X101335578Y-112573808D01*
X101302256Y-112558972D01*
X101272757Y-112550024D01*
X101225876Y-112524965D01*
X101172156Y-112501048D01*
X101147179Y-112482901D01*
X101124923Y-112471005D01*
X101079525Y-112433747D01*
X101027433Y-112395900D01*
X101010516Y-112377112D01*
X100995341Y-112364658D01*
X100954554Y-112314960D01*
X100907734Y-112262961D01*
X100897899Y-112245927D01*
X100888994Y-112235076D01*
X100856048Y-112173439D01*
X100818290Y-112108040D01*
X100813946Y-112094672D01*
X100809975Y-112087242D01*
X100788081Y-112015065D01*
X100763011Y-111937908D01*
X100762128Y-111929509D01*
X100761313Y-111926822D01*
X100753374Y-111846224D01*
X100744312Y-111760000D01*
X100753373Y-111673783D01*
X100761313Y-111593177D01*
X100762128Y-111590488D01*
X100763011Y-111582092D01*
X100788076Y-111504948D01*
X100809975Y-111432757D01*
X100813947Y-111425325D01*
X100818290Y-111411960D01*
X100856041Y-111346572D01*
X100888994Y-111284923D01*
X100897901Y-111274069D01*
X100907734Y-111257039D01*
X100954545Y-111205049D01*
X100995341Y-111155341D01*
X101010520Y-111142883D01*
X101027433Y-111124100D01*
X101079515Y-111086259D01*
X101124923Y-111048994D01*
X101147184Y-111037094D01*
X101172156Y-111018952D01*
X101225865Y-110995038D01*
X101272757Y-110969975D01*
X101302264Y-110961024D01*
X101335578Y-110946192D01*
X101387641Y-110935125D01*
X101433177Y-110921313D01*
X101469422Y-110917743D01*
X101510556Y-110909000D01*
X101558190Y-110909000D01*
X101600000Y-110904882D01*
X101641810Y-110909000D01*
G37*
G36*
X103927810Y-110909000D02*
G01*
X103975444Y-110909000D01*
X104016578Y-110917743D01*
X104052822Y-110921313D01*
X104098354Y-110935125D01*
X104150422Y-110946192D01*
X104183738Y-110961025D01*
X104213242Y-110969975D01*
X104260128Y-110995036D01*
X104313844Y-111018952D01*
X104338818Y-111037097D01*
X104361076Y-111048994D01*
X104406476Y-111086253D01*
X104458567Y-111124100D01*
X104475482Y-111142886D01*
X104490658Y-111155341D01*
X104531443Y-111205037D01*
X104578266Y-111257039D01*
X104588100Y-111274073D01*
X104597005Y-111284923D01*
X104629944Y-111346549D01*
X104667710Y-111411960D01*
X104672054Y-111425329D01*
X104676024Y-111432757D01*
X104697908Y-111504901D01*
X104722989Y-111582092D01*
X104723872Y-111590493D01*
X104724686Y-111593177D01*
X104732610Y-111673632D01*
X104741688Y-111760000D01*
X104732609Y-111846375D01*
X104724686Y-111926822D01*
X104723872Y-111929504D01*
X104722989Y-111937908D01*
X104697903Y-112015112D01*
X104676024Y-112087242D01*
X104672054Y-112094667D01*
X104667710Y-112108040D01*
X104629937Y-112173463D01*
X104597005Y-112235076D01*
X104588102Y-112245923D01*
X104578266Y-112262961D01*
X104531434Y-112314972D01*
X104490658Y-112364658D01*
X104475486Y-112377109D01*
X104458567Y-112395900D01*
X104406465Y-112433754D01*
X104361076Y-112471005D01*
X104338823Y-112482899D01*
X104313844Y-112501048D01*
X104260117Y-112524968D01*
X104213242Y-112550024D01*
X104183745Y-112558971D01*
X104150422Y-112573808D01*
X104098343Y-112584877D01*
X104052822Y-112598686D01*
X104016587Y-112602254D01*
X103975444Y-112611000D01*
X103927799Y-112611000D01*
X103886000Y-112615117D01*
X103844200Y-112611000D01*
X103796556Y-112611000D01*
X103755413Y-112602255D01*
X103719177Y-112598686D01*
X103673652Y-112584876D01*
X103621578Y-112573808D01*
X103588256Y-112558972D01*
X103558757Y-112550024D01*
X103511876Y-112524965D01*
X103458156Y-112501048D01*
X103433179Y-112482901D01*
X103410923Y-112471005D01*
X103365525Y-112433747D01*
X103313433Y-112395900D01*
X103296516Y-112377112D01*
X103281341Y-112364658D01*
X103240554Y-112314960D01*
X103193734Y-112262961D01*
X103183899Y-112245927D01*
X103174994Y-112235076D01*
X103142048Y-112173439D01*
X103104290Y-112108040D01*
X103099946Y-112094672D01*
X103095975Y-112087242D01*
X103074081Y-112015065D01*
X103049011Y-111937908D01*
X103048128Y-111929509D01*
X103047313Y-111926822D01*
X103039374Y-111846224D01*
X103030312Y-111760000D01*
X103039373Y-111673783D01*
X103047313Y-111593177D01*
X103048128Y-111590488D01*
X103049011Y-111582092D01*
X103074076Y-111504948D01*
X103095975Y-111432757D01*
X103099947Y-111425325D01*
X103104290Y-111411960D01*
X103142041Y-111346572D01*
X103174994Y-111284923D01*
X103183901Y-111274069D01*
X103193734Y-111257039D01*
X103240545Y-111205049D01*
X103281341Y-111155341D01*
X103296520Y-111142883D01*
X103313433Y-111124100D01*
X103365515Y-111086259D01*
X103410923Y-111048994D01*
X103433184Y-111037094D01*
X103458156Y-111018952D01*
X103511865Y-110995038D01*
X103558757Y-110969975D01*
X103588264Y-110961024D01*
X103621578Y-110946192D01*
X103673641Y-110935125D01*
X103719177Y-110921313D01*
X103755422Y-110917743D01*
X103796556Y-110909000D01*
X103844190Y-110909000D01*
X103886000Y-110904882D01*
X103927810Y-110909000D01*
G37*
G36*
X111547810Y-110909000D02*
G01*
X111595444Y-110909000D01*
X111636578Y-110917743D01*
X111672822Y-110921313D01*
X111718354Y-110935125D01*
X111770422Y-110946192D01*
X111803738Y-110961025D01*
X111833242Y-110969975D01*
X111880128Y-110995036D01*
X111933844Y-111018952D01*
X111958818Y-111037097D01*
X111981076Y-111048994D01*
X112026476Y-111086253D01*
X112078567Y-111124100D01*
X112095482Y-111142886D01*
X112110658Y-111155341D01*
X112151443Y-111205037D01*
X112198266Y-111257039D01*
X112208100Y-111274073D01*
X112217005Y-111284923D01*
X112249944Y-111346549D01*
X112287710Y-111411960D01*
X112292054Y-111425329D01*
X112296024Y-111432757D01*
X112317908Y-111504901D01*
X112342989Y-111582092D01*
X112343872Y-111590493D01*
X112344686Y-111593177D01*
X112352610Y-111673632D01*
X112361688Y-111760000D01*
X112352609Y-111846375D01*
X112344686Y-111926822D01*
X112343872Y-111929504D01*
X112342989Y-111937908D01*
X112317903Y-112015112D01*
X112296024Y-112087242D01*
X112292054Y-112094667D01*
X112287710Y-112108040D01*
X112249937Y-112173463D01*
X112217005Y-112235076D01*
X112208102Y-112245923D01*
X112198266Y-112262961D01*
X112151434Y-112314972D01*
X112110658Y-112364658D01*
X112095486Y-112377109D01*
X112078567Y-112395900D01*
X112026465Y-112433754D01*
X111981076Y-112471005D01*
X111958823Y-112482899D01*
X111933844Y-112501048D01*
X111880117Y-112524968D01*
X111833242Y-112550024D01*
X111803745Y-112558971D01*
X111770422Y-112573808D01*
X111718343Y-112584877D01*
X111672822Y-112598686D01*
X111636587Y-112602254D01*
X111595444Y-112611000D01*
X111547799Y-112611000D01*
X111506000Y-112615117D01*
X111464200Y-112611000D01*
X111416556Y-112611000D01*
X111375413Y-112602255D01*
X111339177Y-112598686D01*
X111293652Y-112584876D01*
X111241578Y-112573808D01*
X111208256Y-112558972D01*
X111178757Y-112550024D01*
X111131876Y-112524965D01*
X111078156Y-112501048D01*
X111053179Y-112482901D01*
X111030923Y-112471005D01*
X110985525Y-112433747D01*
X110933433Y-112395900D01*
X110916516Y-112377112D01*
X110901341Y-112364658D01*
X110860554Y-112314960D01*
X110813734Y-112262961D01*
X110803899Y-112245927D01*
X110794994Y-112235076D01*
X110762048Y-112173439D01*
X110724290Y-112108040D01*
X110719946Y-112094672D01*
X110715975Y-112087242D01*
X110694081Y-112015065D01*
X110669011Y-111937908D01*
X110668128Y-111929509D01*
X110667313Y-111926822D01*
X110659374Y-111846224D01*
X110650312Y-111760000D01*
X110659373Y-111673783D01*
X110667313Y-111593177D01*
X110668128Y-111590488D01*
X110669011Y-111582092D01*
X110694076Y-111504948D01*
X110715975Y-111432757D01*
X110719947Y-111425325D01*
X110724290Y-111411960D01*
X110762041Y-111346572D01*
X110794994Y-111284923D01*
X110803901Y-111274069D01*
X110813734Y-111257039D01*
X110860545Y-111205049D01*
X110901341Y-111155341D01*
X110916520Y-111142883D01*
X110933433Y-111124100D01*
X110985515Y-111086259D01*
X111030923Y-111048994D01*
X111053184Y-111037094D01*
X111078156Y-111018952D01*
X111131865Y-110995038D01*
X111178757Y-110969975D01*
X111208264Y-110961024D01*
X111241578Y-110946192D01*
X111293641Y-110935125D01*
X111339177Y-110921313D01*
X111375422Y-110917743D01*
X111416556Y-110909000D01*
X111464190Y-110909000D01*
X111506000Y-110904882D01*
X111547810Y-110909000D01*
G37*
G36*
X132090103Y-105605161D02*
G01*
X132348813Y-105661440D01*
X132348817Y-105661441D01*
X132348819Y-105661442D01*
X132596897Y-105753970D01*
X132829282Y-105880862D01*
X133041243Y-106039534D01*
X133228466Y-106226757D01*
X133387138Y-106438718D01*
X133514030Y-106671103D01*
X133606558Y-106919181D01*
X133662839Y-107177902D01*
X133681728Y-107442000D01*
X133662839Y-107706098D01*
X133606558Y-107964819D01*
X133514030Y-108212897D01*
X133387138Y-108445282D01*
X133228466Y-108657243D01*
X133041243Y-108844466D01*
X132829282Y-109003138D01*
X132596897Y-109130030D01*
X132348819Y-109222558D01*
X132090098Y-109278839D01*
X131826000Y-109297728D01*
X131561902Y-109278839D01*
X131561898Y-109278838D01*
X131561896Y-109278838D01*
X131303186Y-109222559D01*
X131303181Y-109222558D01*
X131055103Y-109130030D01*
X130822718Y-109003138D01*
X130610757Y-108844466D01*
X130423534Y-108657243D01*
X130264862Y-108445282D01*
X130137970Y-108212897D01*
X130045442Y-107964819D01*
X130045441Y-107964817D01*
X130045440Y-107964813D01*
X129989161Y-107706103D01*
X129970272Y-107442000D01*
X129989161Y-107177896D01*
X130045440Y-106919186D01*
X130131950Y-106687244D01*
X130137970Y-106671103D01*
X130264862Y-106438718D01*
X130317752Y-106368064D01*
X130423532Y-106226759D01*
X130610759Y-106039532D01*
X130822717Y-105880863D01*
X130822718Y-105880862D01*
X131055103Y-105753970D01*
X131303181Y-105661442D01*
X131303186Y-105661440D01*
X131561896Y-105605161D01*
X131826000Y-105586272D01*
X132090103Y-105605161D01*
G37*
G36*
X104458866Y-105283000D02*
G01*
X104517725Y-105283000D01*
X104582039Y-105292693D01*
X104653072Y-105298284D01*
X104710326Y-105312029D01*
X104762410Y-105319880D01*
X104830478Y-105340875D01*
X104905765Y-105358951D01*
X104954438Y-105379112D01*
X104998872Y-105392818D01*
X105068630Y-105426411D01*
X105145856Y-105458400D01*
X105185500Y-105482694D01*
X105221812Y-105500181D01*
X105290874Y-105547267D01*
X105367434Y-105594183D01*
X105398092Y-105620367D01*
X105426267Y-105639577D01*
X105492055Y-105700619D01*
X105565043Y-105762957D01*
X105587206Y-105788906D01*
X105607662Y-105807887D01*
X105667470Y-105882884D01*
X105733817Y-105960566D01*
X105748407Y-105984375D01*
X105761945Y-106001351D01*
X105813008Y-106089794D01*
X105869600Y-106182144D01*
X105877911Y-106202208D01*
X105885672Y-106215651D01*
X105925249Y-106316493D01*
X105969049Y-106422235D01*
X105972671Y-106437324D01*
X105976073Y-106445991D01*
X106001539Y-106557567D01*
X106029716Y-106674928D01*
X106030447Y-106684216D01*
X106031138Y-106687244D01*
X106040151Y-106807530D01*
X106050105Y-106934000D01*
X106040151Y-107060479D01*
X106031138Y-107180755D01*
X106030447Y-107183781D01*
X106029716Y-107193072D01*
X106001535Y-107310451D01*
X105976073Y-107422008D01*
X105972672Y-107430672D01*
X105969049Y-107445765D01*
X105925242Y-107551524D01*
X105885672Y-107652348D01*
X105877912Y-107665787D01*
X105869600Y-107685856D01*
X105812998Y-107778221D01*
X105761945Y-107866648D01*
X105748410Y-107883620D01*
X105733817Y-107907434D01*
X105667458Y-107985129D01*
X105607662Y-108060112D01*
X105587210Y-108079088D01*
X105565043Y-108105043D01*
X105492041Y-108167392D01*
X105426267Y-108228422D01*
X105398098Y-108247627D01*
X105367434Y-108273817D01*
X105290860Y-108320741D01*
X105221812Y-108367818D01*
X105185508Y-108385301D01*
X105145856Y-108409600D01*
X105068615Y-108441594D01*
X104998872Y-108475181D01*
X104954448Y-108488883D01*
X104905765Y-108509049D01*
X104830463Y-108527127D01*
X104762410Y-108548119D01*
X104710335Y-108555968D01*
X104653072Y-108569716D01*
X104582035Y-108575306D01*
X104517725Y-108585000D01*
X104458866Y-108585000D01*
X104394000Y-108590105D01*
X104329134Y-108585000D01*
X104270275Y-108585000D01*
X104205964Y-108575306D01*
X104134928Y-108569716D01*
X104077666Y-108555968D01*
X104025589Y-108548119D01*
X103957531Y-108527126D01*
X103882235Y-108509049D01*
X103833554Y-108488885D01*
X103789127Y-108475181D01*
X103719379Y-108441592D01*
X103642144Y-108409600D01*
X103602492Y-108385301D01*
X103566188Y-108367818D01*
X103497136Y-108320739D01*
X103420566Y-108273817D01*
X103389905Y-108247630D01*
X103361732Y-108228422D01*
X103295945Y-108167381D01*
X103222957Y-108105043D01*
X103200793Y-108079092D01*
X103180337Y-108060112D01*
X103120526Y-107985111D01*
X103054183Y-107907434D01*
X103039593Y-107883625D01*
X103026054Y-107866648D01*
X102974984Y-107778193D01*
X102918400Y-107685856D01*
X102910089Y-107665793D01*
X102902327Y-107652348D01*
X102862738Y-107551478D01*
X102818951Y-107445765D01*
X102815329Y-107430679D01*
X102811926Y-107422008D01*
X102786444Y-107310367D01*
X102758284Y-107193072D01*
X102757553Y-107183788D01*
X102756861Y-107180755D01*
X102747828Y-107060213D01*
X102737895Y-106934000D01*
X102747827Y-106807796D01*
X102756861Y-106687244D01*
X102757553Y-106684209D01*
X102758284Y-106674928D01*
X102786439Y-106557651D01*
X102811926Y-106445991D01*
X102815329Y-106437318D01*
X102818951Y-106422235D01*
X102862731Y-106316539D01*
X102902327Y-106215651D01*
X102910091Y-106202202D01*
X102918400Y-106182144D01*
X102974974Y-106089822D01*
X103026054Y-106001351D01*
X103039595Y-105984370D01*
X103054183Y-105960566D01*
X103120514Y-105882902D01*
X103180337Y-105807887D01*
X103200797Y-105788902D01*
X103222957Y-105762957D01*
X103295932Y-105700630D01*
X103361732Y-105639577D01*
X103389910Y-105620364D01*
X103420566Y-105594183D01*
X103497122Y-105547269D01*
X103566188Y-105500181D01*
X103602499Y-105482693D01*
X103642144Y-105458400D01*
X103719364Y-105426414D01*
X103789127Y-105392818D01*
X103833564Y-105379111D01*
X103882235Y-105358951D01*
X103957517Y-105340877D01*
X104025589Y-105319880D01*
X104077675Y-105312029D01*
X104134928Y-105298284D01*
X104205960Y-105292693D01*
X104270275Y-105283000D01*
X104329134Y-105283000D01*
X104394000Y-105277895D01*
X104458866Y-105283000D01*
G37*
G36*
X118713899Y-105285959D02*
G01*
X118730769Y-105297231D01*
X118742041Y-105314101D01*
X118744999Y-105328978D01*
X118745000Y-108539023D01*
X118742041Y-108553899D01*
X118730769Y-108570769D01*
X118713899Y-108582041D01*
X118699022Y-108584999D01*
X115488977Y-108585000D01*
X115474101Y-108582041D01*
X115457231Y-108570769D01*
X115445959Y-108553899D01*
X115443001Y-108539023D01*
X115443000Y-108539020D01*
X115443000Y-105328977D01*
X115445959Y-105314100D01*
X115457231Y-105297231D01*
X115474098Y-105285960D01*
X115474100Y-105285959D01*
X115474101Y-105285959D01*
X115479082Y-105284968D01*
X115488979Y-105283000D01*
X118699022Y-105283000D01*
X118699023Y-105283000D01*
X118713899Y-105285959D01*
G37*
G36*
X103756714Y-101809000D02*
G01*
X103798121Y-101809000D01*
X103844236Y-101817620D01*
X103896429Y-101822761D01*
X103936077Y-101834788D01*
X103971373Y-101841386D01*
X104020259Y-101860324D01*
X104075693Y-101877140D01*
X104107363Y-101894068D01*
X104135711Y-101905050D01*
X104184971Y-101935551D01*
X104240903Y-101965447D01*
X104264402Y-101984732D01*
X104285559Y-101997832D01*
X104332435Y-102040565D01*
X104385712Y-102084288D01*
X104401499Y-102103525D01*
X104415809Y-102116570D01*
X104457344Y-102171573D01*
X104504553Y-102229097D01*
X104513684Y-102246179D01*
X104522021Y-102257220D01*
X104555190Y-102323833D01*
X104592860Y-102394307D01*
X104596877Y-102407549D01*
X104600580Y-102414986D01*
X104622455Y-102491871D01*
X104647239Y-102573571D01*
X104648053Y-102581836D01*
X104648812Y-102584504D01*
X104656698Y-102669608D01*
X104665601Y-102760000D01*
X104656697Y-102850399D01*
X104648812Y-102935495D01*
X104648053Y-102938161D01*
X104647239Y-102946429D01*
X104622451Y-103028143D01*
X104600580Y-103105013D01*
X104596877Y-103112447D01*
X104592860Y-103125693D01*
X104555183Y-103196180D01*
X104522021Y-103262779D01*
X104513685Y-103273816D01*
X104504553Y-103290903D01*
X104457335Y-103348438D01*
X104415809Y-103403429D01*
X104401502Y-103416470D01*
X104385712Y-103435712D01*
X104332424Y-103479443D01*
X104285559Y-103522167D01*
X104264407Y-103535263D01*
X104240903Y-103554553D01*
X104184959Y-103584455D01*
X104135711Y-103614949D01*
X104107370Y-103625928D01*
X104075693Y-103642860D01*
X104020247Y-103659679D01*
X103971373Y-103678613D01*
X103936084Y-103685209D01*
X103896429Y-103697239D01*
X103844233Y-103702379D01*
X103798121Y-103711000D01*
X103756714Y-103711000D01*
X103710000Y-103715601D01*
X103663286Y-103711000D01*
X103621879Y-103711000D01*
X103575765Y-103702379D01*
X103523571Y-103697239D01*
X103483916Y-103685210D01*
X103448626Y-103678613D01*
X103399747Y-103659677D01*
X103344307Y-103642860D01*
X103312632Y-103625929D01*
X103284288Y-103614949D01*
X103235032Y-103584451D01*
X103179097Y-103554553D01*
X103155595Y-103535265D01*
X103134440Y-103522167D01*
X103087565Y-103479435D01*
X103034288Y-103435712D01*
X103018500Y-103416474D01*
X103004190Y-103403429D01*
X102962651Y-103348422D01*
X102915447Y-103290903D01*
X102906316Y-103273821D01*
X102897978Y-103262779D01*
X102864801Y-103196152D01*
X102827140Y-103125693D01*
X102823123Y-103112452D01*
X102819419Y-103105013D01*
X102797532Y-103028090D01*
X102772761Y-102946429D01*
X102771947Y-102938166D01*
X102771187Y-102935495D01*
X102763285Y-102850228D01*
X102754399Y-102760000D01*
X102763285Y-102669779D01*
X102771187Y-102584504D01*
X102771947Y-102581831D01*
X102772761Y-102573571D01*
X102797527Y-102491924D01*
X102819419Y-102414986D01*
X102823124Y-102407544D01*
X102827140Y-102394307D01*
X102864794Y-102323860D01*
X102897978Y-102257220D01*
X102906318Y-102246175D01*
X102915447Y-102229097D01*
X102962642Y-102171588D01*
X103004190Y-102116570D01*
X103018503Y-102103521D01*
X103034288Y-102084288D01*
X103087554Y-102040573D01*
X103134440Y-101997832D01*
X103155600Y-101984729D01*
X103179097Y-101965447D01*
X103235020Y-101935554D01*
X103284288Y-101905050D01*
X103312639Y-101894066D01*
X103344307Y-101877140D01*
X103399735Y-101860325D01*
X103448626Y-101841386D01*
X103483923Y-101834787D01*
X103523571Y-101822761D01*
X103575762Y-101817620D01*
X103621879Y-101809000D01*
X103663286Y-101809000D01*
X103710000Y-101804399D01*
X103756714Y-101809000D01*
G37*
G36*
X107156714Y-101809000D02*
G01*
X107198121Y-101809000D01*
X107244236Y-101817620D01*
X107296429Y-101822761D01*
X107336077Y-101834788D01*
X107371373Y-101841386D01*
X107420259Y-101860324D01*
X107475693Y-101877140D01*
X107507363Y-101894068D01*
X107535711Y-101905050D01*
X107584971Y-101935551D01*
X107640903Y-101965447D01*
X107664402Y-101984732D01*
X107685559Y-101997832D01*
X107732435Y-102040565D01*
X107785712Y-102084288D01*
X107801499Y-102103525D01*
X107815809Y-102116570D01*
X107857344Y-102171573D01*
X107904553Y-102229097D01*
X107913684Y-102246179D01*
X107922021Y-102257220D01*
X107955190Y-102323833D01*
X107992860Y-102394307D01*
X107996877Y-102407549D01*
X108000580Y-102414986D01*
X108022455Y-102491871D01*
X108047239Y-102573571D01*
X108048053Y-102581836D01*
X108048812Y-102584504D01*
X108056698Y-102669608D01*
X108065601Y-102760000D01*
X108056697Y-102850399D01*
X108048812Y-102935495D01*
X108048053Y-102938161D01*
X108047239Y-102946429D01*
X108022451Y-103028143D01*
X108000580Y-103105013D01*
X107996877Y-103112447D01*
X107992860Y-103125693D01*
X107955183Y-103196180D01*
X107922021Y-103262779D01*
X107913685Y-103273816D01*
X107904553Y-103290903D01*
X107857335Y-103348438D01*
X107815809Y-103403429D01*
X107801502Y-103416470D01*
X107785712Y-103435712D01*
X107732424Y-103479443D01*
X107685559Y-103522167D01*
X107664407Y-103535263D01*
X107640903Y-103554553D01*
X107584959Y-103584455D01*
X107535711Y-103614949D01*
X107507370Y-103625928D01*
X107475693Y-103642860D01*
X107420247Y-103659679D01*
X107371373Y-103678613D01*
X107336084Y-103685209D01*
X107296429Y-103697239D01*
X107244233Y-103702379D01*
X107198121Y-103711000D01*
X107156714Y-103711000D01*
X107110000Y-103715601D01*
X107063286Y-103711000D01*
X107021879Y-103711000D01*
X106975765Y-103702379D01*
X106923571Y-103697239D01*
X106883916Y-103685210D01*
X106848626Y-103678613D01*
X106799747Y-103659677D01*
X106744307Y-103642860D01*
X106712632Y-103625929D01*
X106684288Y-103614949D01*
X106635032Y-103584451D01*
X106579097Y-103554553D01*
X106555595Y-103535265D01*
X106534440Y-103522167D01*
X106487565Y-103479435D01*
X106434288Y-103435712D01*
X106418500Y-103416474D01*
X106404190Y-103403429D01*
X106362651Y-103348422D01*
X106315447Y-103290903D01*
X106306316Y-103273821D01*
X106297978Y-103262779D01*
X106264801Y-103196152D01*
X106227140Y-103125693D01*
X106223123Y-103112452D01*
X106219419Y-103105013D01*
X106197532Y-103028090D01*
X106172761Y-102946429D01*
X106171947Y-102938166D01*
X106171187Y-102935495D01*
X106163285Y-102850228D01*
X106154399Y-102760000D01*
X106163285Y-102669779D01*
X106171187Y-102584504D01*
X106171947Y-102581831D01*
X106172761Y-102573571D01*
X106197527Y-102491924D01*
X106219419Y-102414986D01*
X106223124Y-102407544D01*
X106227140Y-102394307D01*
X106264794Y-102323860D01*
X106297978Y-102257220D01*
X106306318Y-102246175D01*
X106315447Y-102229097D01*
X106362642Y-102171588D01*
X106404190Y-102116570D01*
X106418503Y-102103521D01*
X106434288Y-102084288D01*
X106487554Y-102040573D01*
X106534440Y-101997832D01*
X106555600Y-101984729D01*
X106579097Y-101965447D01*
X106635020Y-101935554D01*
X106684288Y-101905050D01*
X106712639Y-101894066D01*
X106744307Y-101877140D01*
X106799735Y-101860325D01*
X106848626Y-101841386D01*
X106883923Y-101834787D01*
X106923571Y-101822761D01*
X106975762Y-101817620D01*
X107021879Y-101809000D01*
X107063286Y-101809000D01*
X107110000Y-101804399D01*
X107156714Y-101809000D01*
G37*
G36*
X147625630Y-101057000D02*
G01*
X147671388Y-101057000D01*
X147722347Y-101066525D01*
X147780032Y-101072207D01*
X147823850Y-101085499D01*
X147862853Y-101092790D01*
X147916874Y-101113718D01*
X147978146Y-101132305D01*
X148013157Y-101151018D01*
X148044479Y-101163153D01*
X148098898Y-101196848D01*
X148160729Y-101229897D01*
X148186708Y-101251217D01*
X148210082Y-101265690D01*
X148261869Y-101312901D01*
X148320765Y-101361235D01*
X148338218Y-101382502D01*
X148354024Y-101396911D01*
X148399911Y-101457675D01*
X148452103Y-101521271D01*
X148462194Y-101540150D01*
X148471404Y-101552346D01*
X148508047Y-101625937D01*
X148549695Y-101703854D01*
X148554137Y-101718497D01*
X148558227Y-101726711D01*
X148582386Y-101811621D01*
X148609793Y-101901968D01*
X148610693Y-101911109D01*
X148611530Y-101914050D01*
X148620230Y-102007939D01*
X148630085Y-102108000D01*
X148620229Y-102208068D01*
X148611530Y-102301949D01*
X148610693Y-102304889D01*
X148609793Y-102314032D01*
X148582381Y-102404393D01*
X148558227Y-102489288D01*
X148554137Y-102497500D01*
X148549695Y-102512146D01*
X148508040Y-102590076D01*
X148471404Y-102663653D01*
X148462195Y-102675846D01*
X148452103Y-102694729D01*
X148399902Y-102758335D01*
X148354024Y-102819088D01*
X148338222Y-102833493D01*
X148320765Y-102854765D01*
X148261858Y-102903107D01*
X148210082Y-102950309D01*
X148186713Y-102964778D01*
X148160729Y-102986103D01*
X148098886Y-103019158D01*
X148044479Y-103052846D01*
X148013163Y-103064977D01*
X147978146Y-103083695D01*
X147916862Y-103102285D01*
X147862853Y-103123209D01*
X147823857Y-103130498D01*
X147780032Y-103143793D01*
X147722344Y-103149474D01*
X147671388Y-103159000D01*
X147625630Y-103159000D01*
X147574000Y-103164085D01*
X147522370Y-103159000D01*
X147476612Y-103159000D01*
X147425655Y-103149474D01*
X147367968Y-103143793D01*
X147324143Y-103130498D01*
X147285146Y-103123209D01*
X147231132Y-103102283D01*
X147169854Y-103083695D01*
X147134838Y-103064979D01*
X147103520Y-103052846D01*
X147049105Y-103019154D01*
X146987271Y-102986103D01*
X146961289Y-102964780D01*
X146937917Y-102950309D01*
X146886131Y-102903099D01*
X146827235Y-102854765D01*
X146809780Y-102833496D01*
X146793975Y-102819088D01*
X146748085Y-102758320D01*
X146695897Y-102694729D01*
X146685806Y-102675850D01*
X146676595Y-102663653D01*
X146639944Y-102590049D01*
X146598305Y-102512146D01*
X146593863Y-102497505D01*
X146589772Y-102489288D01*
X146565602Y-102404340D01*
X146538207Y-102314032D01*
X146537307Y-102304894D01*
X146536469Y-102301949D01*
X146527753Y-102207896D01*
X146517915Y-102108000D01*
X146527752Y-102008111D01*
X146536469Y-101914050D01*
X146537307Y-101911104D01*
X146538207Y-101901968D01*
X146565597Y-101811674D01*
X146589772Y-101726711D01*
X146593864Y-101718492D01*
X146598305Y-101703854D01*
X146639937Y-101625964D01*
X146676595Y-101552346D01*
X146685808Y-101540145D01*
X146695897Y-101521271D01*
X146748075Y-101457690D01*
X146793975Y-101396911D01*
X146809783Y-101382499D01*
X146827235Y-101361235D01*
X146886120Y-101312909D01*
X146937917Y-101265690D01*
X146961294Y-101251215D01*
X146987271Y-101229897D01*
X147049094Y-101196852D01*
X147103520Y-101163153D01*
X147134845Y-101151017D01*
X147169854Y-101132305D01*
X147231120Y-101113719D01*
X147285146Y-101092790D01*
X147324150Y-101085498D01*
X147367968Y-101072207D01*
X147425652Y-101066525D01*
X147476612Y-101057000D01*
X147522370Y-101057000D01*
X147574000Y-101051915D01*
X147625630Y-101057000D01*
G37*
G36*
X152625630Y-101057000D02*
G01*
X152671388Y-101057000D01*
X152722347Y-101066525D01*
X152780032Y-101072207D01*
X152823850Y-101085499D01*
X152862853Y-101092790D01*
X152916874Y-101113718D01*
X152978146Y-101132305D01*
X153013157Y-101151018D01*
X153044479Y-101163153D01*
X153098898Y-101196848D01*
X153160729Y-101229897D01*
X153186708Y-101251217D01*
X153210082Y-101265690D01*
X153261869Y-101312901D01*
X153320765Y-101361235D01*
X153338218Y-101382502D01*
X153354024Y-101396911D01*
X153399911Y-101457675D01*
X153452103Y-101521271D01*
X153462194Y-101540150D01*
X153471404Y-101552346D01*
X153508047Y-101625937D01*
X153549695Y-101703854D01*
X153554137Y-101718497D01*
X153558227Y-101726711D01*
X153582386Y-101811621D01*
X153609793Y-101901968D01*
X153610693Y-101911109D01*
X153611530Y-101914050D01*
X153620230Y-102007939D01*
X153630085Y-102108000D01*
X153620229Y-102208068D01*
X153611530Y-102301949D01*
X153610693Y-102304889D01*
X153609793Y-102314032D01*
X153582381Y-102404393D01*
X153558227Y-102489288D01*
X153554137Y-102497500D01*
X153549695Y-102512146D01*
X153508040Y-102590076D01*
X153471404Y-102663653D01*
X153462195Y-102675846D01*
X153452103Y-102694729D01*
X153399902Y-102758335D01*
X153354024Y-102819088D01*
X153338222Y-102833493D01*
X153320765Y-102854765D01*
X153261858Y-102903107D01*
X153210082Y-102950309D01*
X153186713Y-102964778D01*
X153160729Y-102986103D01*
X153098886Y-103019158D01*
X153044479Y-103052846D01*
X153013163Y-103064977D01*
X152978146Y-103083695D01*
X152916862Y-103102285D01*
X152862853Y-103123209D01*
X152823857Y-103130498D01*
X152780032Y-103143793D01*
X152722344Y-103149474D01*
X152671388Y-103159000D01*
X152625630Y-103159000D01*
X152574000Y-103164085D01*
X152522370Y-103159000D01*
X152476612Y-103159000D01*
X152425655Y-103149474D01*
X152367968Y-103143793D01*
X152324143Y-103130498D01*
X152285146Y-103123209D01*
X152231132Y-103102283D01*
X152169854Y-103083695D01*
X152134838Y-103064979D01*
X152103520Y-103052846D01*
X152049105Y-103019154D01*
X151987271Y-102986103D01*
X151961289Y-102964780D01*
X151937917Y-102950309D01*
X151886131Y-102903099D01*
X151827235Y-102854765D01*
X151809780Y-102833496D01*
X151793975Y-102819088D01*
X151748085Y-102758320D01*
X151695897Y-102694729D01*
X151685806Y-102675850D01*
X151676595Y-102663653D01*
X151639944Y-102590049D01*
X151598305Y-102512146D01*
X151593863Y-102497505D01*
X151589772Y-102489288D01*
X151565602Y-102404340D01*
X151538207Y-102314032D01*
X151537307Y-102304894D01*
X151536469Y-102301949D01*
X151527753Y-102207896D01*
X151517915Y-102108000D01*
X151527752Y-102008111D01*
X151536469Y-101914050D01*
X151537307Y-101911104D01*
X151538207Y-101901968D01*
X151565597Y-101811674D01*
X151589772Y-101726711D01*
X151593864Y-101718492D01*
X151598305Y-101703854D01*
X151639937Y-101625964D01*
X151676595Y-101552346D01*
X151685808Y-101540145D01*
X151695897Y-101521271D01*
X151748075Y-101457690D01*
X151793975Y-101396911D01*
X151809783Y-101382499D01*
X151827235Y-101361235D01*
X151886120Y-101312909D01*
X151937917Y-101265690D01*
X151961294Y-101251215D01*
X151987271Y-101229897D01*
X152049094Y-101196852D01*
X152103520Y-101163153D01*
X152134845Y-101151017D01*
X152169854Y-101132305D01*
X152231120Y-101113719D01*
X152285146Y-101092790D01*
X152324150Y-101085498D01*
X152367968Y-101072207D01*
X152425652Y-101066525D01*
X152476612Y-101057000D01*
X152522370Y-101057000D01*
X152574000Y-101051915D01*
X152625630Y-101057000D01*
G37*
G36*
X157521810Y-100963000D02*
G01*
X157569444Y-100963000D01*
X157610578Y-100971743D01*
X157646822Y-100975313D01*
X157692354Y-100989125D01*
X157744422Y-101000192D01*
X157777738Y-101015025D01*
X157807242Y-101023975D01*
X157854128Y-101049036D01*
X157907844Y-101072952D01*
X157932818Y-101091097D01*
X157955076Y-101102994D01*
X158000476Y-101140253D01*
X158052567Y-101178100D01*
X158069482Y-101196886D01*
X158084658Y-101209341D01*
X158125443Y-101259037D01*
X158172266Y-101311039D01*
X158182100Y-101328073D01*
X158191005Y-101338923D01*
X158223944Y-101400549D01*
X158261710Y-101465960D01*
X158266054Y-101479329D01*
X158270024Y-101486757D01*
X158291908Y-101558901D01*
X158316989Y-101636092D01*
X158317872Y-101644493D01*
X158318686Y-101647177D01*
X158326610Y-101727632D01*
X158335688Y-101814000D01*
X158326609Y-101900375D01*
X158318686Y-101980822D01*
X158317872Y-101983504D01*
X158316989Y-101991908D01*
X158291903Y-102069112D01*
X158270024Y-102141242D01*
X158266054Y-102148667D01*
X158261710Y-102162040D01*
X158223937Y-102227463D01*
X158191005Y-102289076D01*
X158182102Y-102299923D01*
X158172266Y-102316961D01*
X158125434Y-102368972D01*
X158084658Y-102418658D01*
X158069486Y-102431109D01*
X158052567Y-102449900D01*
X158000465Y-102487754D01*
X157955076Y-102525005D01*
X157932823Y-102536899D01*
X157907844Y-102555048D01*
X157854117Y-102578968D01*
X157807242Y-102604024D01*
X157777745Y-102612971D01*
X157744422Y-102627808D01*
X157692343Y-102638877D01*
X157646822Y-102652686D01*
X157610587Y-102656254D01*
X157569444Y-102665000D01*
X157521799Y-102665000D01*
X157480000Y-102669117D01*
X157438200Y-102665000D01*
X157390556Y-102665000D01*
X157349413Y-102656255D01*
X157313177Y-102652686D01*
X157267652Y-102638876D01*
X157215578Y-102627808D01*
X157182256Y-102612972D01*
X157152757Y-102604024D01*
X157105876Y-102578965D01*
X157052156Y-102555048D01*
X157027179Y-102536901D01*
X157004923Y-102525005D01*
X156959525Y-102487747D01*
X156907433Y-102449900D01*
X156890516Y-102431112D01*
X156875341Y-102418658D01*
X156834554Y-102368960D01*
X156787734Y-102316961D01*
X156777899Y-102299927D01*
X156768994Y-102289076D01*
X156736048Y-102227439D01*
X156698290Y-102162040D01*
X156693946Y-102148672D01*
X156689975Y-102141242D01*
X156668081Y-102069065D01*
X156643011Y-101991908D01*
X156642128Y-101983509D01*
X156641313Y-101980822D01*
X156633374Y-101900224D01*
X156624312Y-101814000D01*
X156633373Y-101727783D01*
X156641313Y-101647177D01*
X156642128Y-101644488D01*
X156643011Y-101636092D01*
X156668076Y-101558948D01*
X156689975Y-101486757D01*
X156693947Y-101479325D01*
X156698290Y-101465960D01*
X156736041Y-101400572D01*
X156768994Y-101338923D01*
X156777901Y-101328069D01*
X156787734Y-101311039D01*
X156834545Y-101259049D01*
X156875341Y-101209341D01*
X156890520Y-101196883D01*
X156907433Y-101178100D01*
X156959515Y-101140259D01*
X157004923Y-101102994D01*
X157027184Y-101091094D01*
X157052156Y-101072952D01*
X157105865Y-101049038D01*
X157152757Y-101023975D01*
X157182264Y-101015024D01*
X157215578Y-101000192D01*
X157267641Y-100989125D01*
X157313177Y-100975313D01*
X157349422Y-100971743D01*
X157390556Y-100963000D01*
X157438190Y-100963000D01*
X157480000Y-100958882D01*
X157521810Y-100963000D01*
G37*
G36*
X157521810Y-98463000D02*
G01*
X157569444Y-98463000D01*
X157610578Y-98471743D01*
X157646822Y-98475313D01*
X157692354Y-98489125D01*
X157744422Y-98500192D01*
X157777738Y-98515025D01*
X157807242Y-98523975D01*
X157854128Y-98549036D01*
X157907844Y-98572952D01*
X157932818Y-98591097D01*
X157955076Y-98602994D01*
X158000476Y-98640253D01*
X158052567Y-98678100D01*
X158069482Y-98696886D01*
X158084658Y-98709341D01*
X158125443Y-98759037D01*
X158172266Y-98811039D01*
X158182100Y-98828073D01*
X158191005Y-98838923D01*
X158223944Y-98900549D01*
X158261710Y-98965960D01*
X158266054Y-98979329D01*
X158270024Y-98986757D01*
X158291908Y-99058901D01*
X158316989Y-99136092D01*
X158317872Y-99144493D01*
X158318686Y-99147177D01*
X158326610Y-99227632D01*
X158335688Y-99314000D01*
X158326609Y-99400375D01*
X158318686Y-99480822D01*
X158317872Y-99483504D01*
X158316989Y-99491908D01*
X158291903Y-99569112D01*
X158270024Y-99641242D01*
X158266054Y-99648667D01*
X158261710Y-99662040D01*
X158223937Y-99727463D01*
X158191005Y-99789076D01*
X158182102Y-99799923D01*
X158172266Y-99816961D01*
X158125434Y-99868972D01*
X158084658Y-99918658D01*
X158069486Y-99931109D01*
X158052567Y-99949900D01*
X158000465Y-99987754D01*
X157955076Y-100025005D01*
X157932823Y-100036899D01*
X157907844Y-100055048D01*
X157854117Y-100078968D01*
X157807242Y-100104024D01*
X157777745Y-100112971D01*
X157744422Y-100127808D01*
X157692343Y-100138877D01*
X157646822Y-100152686D01*
X157610587Y-100156254D01*
X157569444Y-100165000D01*
X157521799Y-100165000D01*
X157480000Y-100169117D01*
X157438200Y-100165000D01*
X157390556Y-100165000D01*
X157349413Y-100156255D01*
X157313177Y-100152686D01*
X157267652Y-100138876D01*
X157215578Y-100127808D01*
X157182256Y-100112972D01*
X157152757Y-100104024D01*
X157105876Y-100078965D01*
X157052156Y-100055048D01*
X157027179Y-100036901D01*
X157004923Y-100025005D01*
X156959525Y-99987747D01*
X156907433Y-99949900D01*
X156890516Y-99931112D01*
X156875341Y-99918658D01*
X156834554Y-99868960D01*
X156787734Y-99816961D01*
X156777899Y-99799927D01*
X156768994Y-99789076D01*
X156736048Y-99727439D01*
X156698290Y-99662040D01*
X156693946Y-99648672D01*
X156689975Y-99641242D01*
X156668081Y-99569065D01*
X156643011Y-99491908D01*
X156642128Y-99483509D01*
X156641313Y-99480822D01*
X156633374Y-99400224D01*
X156624312Y-99314000D01*
X156633373Y-99227783D01*
X156641313Y-99147177D01*
X156642128Y-99144488D01*
X156643011Y-99136092D01*
X156668076Y-99058948D01*
X156689975Y-98986757D01*
X156693947Y-98979325D01*
X156698290Y-98965960D01*
X156736041Y-98900572D01*
X156768994Y-98838923D01*
X156777901Y-98828069D01*
X156787734Y-98811039D01*
X156834545Y-98759049D01*
X156875341Y-98709341D01*
X156890520Y-98696883D01*
X156907433Y-98678100D01*
X156959515Y-98640259D01*
X157004923Y-98602994D01*
X157027184Y-98591094D01*
X157052156Y-98572952D01*
X157105865Y-98549038D01*
X157152757Y-98523975D01*
X157182264Y-98515024D01*
X157215578Y-98500192D01*
X157267641Y-98489125D01*
X157313177Y-98475313D01*
X157349422Y-98471743D01*
X157390556Y-98463000D01*
X157438190Y-98463000D01*
X157480000Y-98458882D01*
X157521810Y-98463000D01*
G37*
G36*
X102056714Y-98109000D02*
G01*
X102098121Y-98109000D01*
X102144236Y-98117620D01*
X102196429Y-98122761D01*
X102236077Y-98134788D01*
X102271373Y-98141386D01*
X102320259Y-98160324D01*
X102375693Y-98177140D01*
X102407363Y-98194068D01*
X102435711Y-98205050D01*
X102484971Y-98235551D01*
X102540903Y-98265447D01*
X102564402Y-98284732D01*
X102585559Y-98297832D01*
X102632435Y-98340565D01*
X102685712Y-98384288D01*
X102701499Y-98403525D01*
X102715809Y-98416570D01*
X102757344Y-98471573D01*
X102804553Y-98529097D01*
X102813684Y-98546179D01*
X102822021Y-98557220D01*
X102855190Y-98623833D01*
X102892860Y-98694307D01*
X102896877Y-98707549D01*
X102900580Y-98714986D01*
X102922455Y-98791871D01*
X102947239Y-98873571D01*
X102948053Y-98881836D01*
X102948812Y-98884504D01*
X102956698Y-98969608D01*
X102965601Y-99060000D01*
X102956697Y-99150399D01*
X102948812Y-99235495D01*
X102948053Y-99238161D01*
X102947239Y-99246429D01*
X102922451Y-99328143D01*
X102900580Y-99405013D01*
X102896877Y-99412447D01*
X102892860Y-99425693D01*
X102855183Y-99496180D01*
X102822021Y-99562779D01*
X102813685Y-99573816D01*
X102804553Y-99590903D01*
X102757335Y-99648438D01*
X102715809Y-99703429D01*
X102701502Y-99716470D01*
X102685712Y-99735712D01*
X102632424Y-99779443D01*
X102585559Y-99822167D01*
X102564407Y-99835263D01*
X102540903Y-99854553D01*
X102484959Y-99884455D01*
X102435711Y-99914949D01*
X102407370Y-99925928D01*
X102375693Y-99942860D01*
X102320247Y-99959679D01*
X102271373Y-99978613D01*
X102236084Y-99985209D01*
X102196429Y-99997239D01*
X102144233Y-100002379D01*
X102098121Y-100011000D01*
X102056714Y-100011000D01*
X102010000Y-100015601D01*
X101963286Y-100011000D01*
X101921879Y-100011000D01*
X101875765Y-100002379D01*
X101823571Y-99997239D01*
X101783916Y-99985210D01*
X101748626Y-99978613D01*
X101699747Y-99959677D01*
X101644307Y-99942860D01*
X101612632Y-99925929D01*
X101584288Y-99914949D01*
X101535032Y-99884451D01*
X101479097Y-99854553D01*
X101455595Y-99835265D01*
X101434440Y-99822167D01*
X101387565Y-99779435D01*
X101334288Y-99735712D01*
X101318500Y-99716474D01*
X101304190Y-99703429D01*
X101262651Y-99648422D01*
X101215447Y-99590903D01*
X101206316Y-99573821D01*
X101197978Y-99562779D01*
X101164801Y-99496152D01*
X101127140Y-99425693D01*
X101123123Y-99412452D01*
X101119419Y-99405013D01*
X101097532Y-99328090D01*
X101072761Y-99246429D01*
X101071947Y-99238166D01*
X101071187Y-99235495D01*
X101063285Y-99150228D01*
X101054399Y-99060000D01*
X101063285Y-98969779D01*
X101071187Y-98884504D01*
X101071947Y-98881831D01*
X101072761Y-98873571D01*
X101097527Y-98791924D01*
X101119419Y-98714986D01*
X101123124Y-98707544D01*
X101127140Y-98694307D01*
X101164794Y-98623860D01*
X101197978Y-98557220D01*
X101206318Y-98546175D01*
X101215447Y-98529097D01*
X101262642Y-98471588D01*
X101304190Y-98416570D01*
X101318503Y-98403521D01*
X101334288Y-98384288D01*
X101387554Y-98340573D01*
X101434440Y-98297832D01*
X101455600Y-98284729D01*
X101479097Y-98265447D01*
X101535020Y-98235554D01*
X101584288Y-98205050D01*
X101612639Y-98194066D01*
X101644307Y-98177140D01*
X101699735Y-98160325D01*
X101748626Y-98141386D01*
X101783923Y-98134787D01*
X101823571Y-98122761D01*
X101875762Y-98117620D01*
X101921879Y-98109000D01*
X101963286Y-98109000D01*
X102010000Y-98104399D01*
X102056714Y-98109000D01*
G37*
G36*
X105456714Y-98109000D02*
G01*
X105498121Y-98109000D01*
X105544236Y-98117620D01*
X105596429Y-98122761D01*
X105636077Y-98134788D01*
X105671373Y-98141386D01*
X105720259Y-98160324D01*
X105775693Y-98177140D01*
X105807363Y-98194068D01*
X105835711Y-98205050D01*
X105884971Y-98235551D01*
X105940903Y-98265447D01*
X105964402Y-98284732D01*
X105985559Y-98297832D01*
X106032435Y-98340565D01*
X106085712Y-98384288D01*
X106101499Y-98403525D01*
X106115809Y-98416570D01*
X106157344Y-98471573D01*
X106204553Y-98529097D01*
X106213684Y-98546179D01*
X106222021Y-98557220D01*
X106255190Y-98623833D01*
X106292860Y-98694307D01*
X106296877Y-98707549D01*
X106300580Y-98714986D01*
X106322455Y-98791871D01*
X106347239Y-98873571D01*
X106348053Y-98881836D01*
X106348812Y-98884504D01*
X106356698Y-98969608D01*
X106365601Y-99060000D01*
X106356697Y-99150399D01*
X106348812Y-99235495D01*
X106348053Y-99238161D01*
X106347239Y-99246429D01*
X106322451Y-99328143D01*
X106300580Y-99405013D01*
X106296877Y-99412447D01*
X106292860Y-99425693D01*
X106255183Y-99496180D01*
X106222021Y-99562779D01*
X106213685Y-99573816D01*
X106204553Y-99590903D01*
X106157335Y-99648438D01*
X106115809Y-99703429D01*
X106101502Y-99716470D01*
X106085712Y-99735712D01*
X106032424Y-99779443D01*
X105985559Y-99822167D01*
X105964407Y-99835263D01*
X105940903Y-99854553D01*
X105884959Y-99884455D01*
X105835711Y-99914949D01*
X105807370Y-99925928D01*
X105775693Y-99942860D01*
X105720247Y-99959679D01*
X105671373Y-99978613D01*
X105636084Y-99985209D01*
X105596429Y-99997239D01*
X105544233Y-100002379D01*
X105498121Y-100011000D01*
X105456714Y-100011000D01*
X105410000Y-100015601D01*
X105363286Y-100011000D01*
X105321879Y-100011000D01*
X105275765Y-100002379D01*
X105223571Y-99997239D01*
X105183916Y-99985210D01*
X105148626Y-99978613D01*
X105099747Y-99959677D01*
X105044307Y-99942860D01*
X105012632Y-99925929D01*
X104984288Y-99914949D01*
X104935032Y-99884451D01*
X104879097Y-99854553D01*
X104855595Y-99835265D01*
X104834440Y-99822167D01*
X104787565Y-99779435D01*
X104734288Y-99735712D01*
X104718500Y-99716474D01*
X104704190Y-99703429D01*
X104662651Y-99648422D01*
X104615447Y-99590903D01*
X104606316Y-99573821D01*
X104597978Y-99562779D01*
X104564801Y-99496152D01*
X104527140Y-99425693D01*
X104523123Y-99412452D01*
X104519419Y-99405013D01*
X104497532Y-99328090D01*
X104472761Y-99246429D01*
X104471947Y-99238166D01*
X104471187Y-99235495D01*
X104463285Y-99150228D01*
X104454399Y-99060000D01*
X104463285Y-98969779D01*
X104471187Y-98884504D01*
X104471947Y-98881831D01*
X104472761Y-98873571D01*
X104497527Y-98791924D01*
X104519419Y-98714986D01*
X104523124Y-98707544D01*
X104527140Y-98694307D01*
X104564794Y-98623860D01*
X104597978Y-98557220D01*
X104606318Y-98546175D01*
X104615447Y-98529097D01*
X104662642Y-98471588D01*
X104704190Y-98416570D01*
X104718503Y-98403521D01*
X104734288Y-98384288D01*
X104787554Y-98340573D01*
X104834440Y-98297832D01*
X104855600Y-98284729D01*
X104879097Y-98265447D01*
X104935020Y-98235554D01*
X104984288Y-98205050D01*
X105012639Y-98194066D01*
X105044307Y-98177140D01*
X105099735Y-98160325D01*
X105148626Y-98141386D01*
X105183923Y-98134787D01*
X105223571Y-98122761D01*
X105275762Y-98117620D01*
X105321879Y-98109000D01*
X105363286Y-98109000D01*
X105410000Y-98104399D01*
X105456714Y-98109000D01*
G37*
G36*
X109729899Y-98111959D02*
G01*
X109746769Y-98123231D01*
X109758041Y-98140101D01*
X109760999Y-98154978D01*
X109761000Y-99965023D01*
X109758041Y-99979899D01*
X109746769Y-99996769D01*
X109729899Y-100008041D01*
X109715022Y-100010999D01*
X107904977Y-100011000D01*
X107890101Y-100008041D01*
X107873231Y-99996769D01*
X107861959Y-99979899D01*
X107859001Y-99965023D01*
X107859000Y-99965020D01*
X107859000Y-98154977D01*
X107861959Y-98140100D01*
X107873231Y-98123231D01*
X107890098Y-98111960D01*
X107890100Y-98111959D01*
X107890101Y-98111959D01*
X107895082Y-98110968D01*
X107904979Y-98109000D01*
X109715022Y-98109000D01*
X109715023Y-98109000D01*
X109729899Y-98111959D01*
G37*
G36*
X132090103Y-94165161D02*
G01*
X132348813Y-94221440D01*
X132348817Y-94221441D01*
X132348819Y-94221442D01*
X132596897Y-94313970D01*
X132829282Y-94440862D01*
X133041243Y-94599534D01*
X133228466Y-94786757D01*
X133387138Y-94998718D01*
X133514030Y-95231103D01*
X133606558Y-95479181D01*
X133662839Y-95737902D01*
X133681728Y-96002000D01*
X133662839Y-96266098D01*
X133606558Y-96524819D01*
X133514030Y-96772897D01*
X133387138Y-97005282D01*
X133228466Y-97217243D01*
X133041243Y-97404466D01*
X132829282Y-97563138D01*
X132596897Y-97690030D01*
X132348819Y-97782558D01*
X132090098Y-97838839D01*
X131826000Y-97857728D01*
X131561902Y-97838839D01*
X131561898Y-97838838D01*
X131561896Y-97838838D01*
X131303186Y-97782559D01*
X131303181Y-97782558D01*
X131055103Y-97690030D01*
X130822718Y-97563138D01*
X130610757Y-97404466D01*
X130423534Y-97217243D01*
X130264862Y-97005282D01*
X130137970Y-96772897D01*
X130045442Y-96524819D01*
X130045441Y-96524817D01*
X130045440Y-96524813D01*
X129989161Y-96266103D01*
X129970272Y-96002000D01*
X129989161Y-95737896D01*
X130045440Y-95479186D01*
X130061843Y-95435207D01*
X130137970Y-95231103D01*
X130264862Y-94998718D01*
X130317752Y-94928064D01*
X130423532Y-94786759D01*
X130610759Y-94599532D01*
X130822717Y-94440863D01*
X130822718Y-94440862D01*
X131055103Y-94313970D01*
X131303181Y-94221442D01*
X131303186Y-94221440D01*
X131561896Y-94165161D01*
X131826000Y-94146272D01*
X132090103Y-94165161D01*
G37*
G36*
X153513810Y-92875000D02*
G01*
X153561444Y-92875000D01*
X153602578Y-92883743D01*
X153638822Y-92887313D01*
X153684354Y-92901125D01*
X153736422Y-92912192D01*
X153769738Y-92927025D01*
X153799242Y-92935975D01*
X153846128Y-92961036D01*
X153899844Y-92984952D01*
X153924818Y-93003097D01*
X153947076Y-93014994D01*
X153992476Y-93052253D01*
X154044567Y-93090100D01*
X154061482Y-93108886D01*
X154076658Y-93121341D01*
X154117443Y-93171037D01*
X154164266Y-93223039D01*
X154174100Y-93240073D01*
X154183005Y-93250923D01*
X154215944Y-93312549D01*
X154253710Y-93377960D01*
X154258054Y-93391329D01*
X154262024Y-93398757D01*
X154283908Y-93470901D01*
X154308989Y-93548092D01*
X154309872Y-93556493D01*
X154310686Y-93559177D01*
X154318610Y-93639632D01*
X154327688Y-93726000D01*
X154318609Y-93812375D01*
X154310686Y-93892822D01*
X154309872Y-93895504D01*
X154308989Y-93903908D01*
X154283903Y-93981112D01*
X154262024Y-94053242D01*
X154258054Y-94060667D01*
X154253710Y-94074040D01*
X154215937Y-94139463D01*
X154183005Y-94201076D01*
X154174102Y-94211923D01*
X154164266Y-94228961D01*
X154117434Y-94280972D01*
X154076658Y-94330658D01*
X154061486Y-94343109D01*
X154044567Y-94361900D01*
X153992465Y-94399754D01*
X153947076Y-94437005D01*
X153924823Y-94448899D01*
X153899844Y-94467048D01*
X153846117Y-94490968D01*
X153799242Y-94516024D01*
X153769745Y-94524971D01*
X153736422Y-94539808D01*
X153684343Y-94550877D01*
X153638822Y-94564686D01*
X153602587Y-94568254D01*
X153561444Y-94577000D01*
X153513799Y-94577000D01*
X153472000Y-94581117D01*
X153430200Y-94577000D01*
X153382556Y-94577000D01*
X153341413Y-94568255D01*
X153305177Y-94564686D01*
X153259652Y-94550876D01*
X153207578Y-94539808D01*
X153174256Y-94524972D01*
X153144757Y-94516024D01*
X153097876Y-94490965D01*
X153044156Y-94467048D01*
X153019179Y-94448901D01*
X152996923Y-94437005D01*
X152951525Y-94399747D01*
X152899433Y-94361900D01*
X152882516Y-94343112D01*
X152867341Y-94330658D01*
X152826554Y-94280960D01*
X152779734Y-94228961D01*
X152769899Y-94211927D01*
X152760994Y-94201076D01*
X152728048Y-94139439D01*
X152690290Y-94074040D01*
X152685946Y-94060672D01*
X152681975Y-94053242D01*
X152660081Y-93981065D01*
X152635011Y-93903908D01*
X152634128Y-93895509D01*
X152633313Y-93892822D01*
X152625374Y-93812224D01*
X152616312Y-93726000D01*
X152625373Y-93639783D01*
X152633313Y-93559177D01*
X152634128Y-93556488D01*
X152635011Y-93548092D01*
X152660076Y-93470948D01*
X152681975Y-93398757D01*
X152685947Y-93391325D01*
X152690290Y-93377960D01*
X152728041Y-93312572D01*
X152760994Y-93250923D01*
X152769901Y-93240069D01*
X152779734Y-93223039D01*
X152826545Y-93171049D01*
X152867341Y-93121341D01*
X152882520Y-93108883D01*
X152899433Y-93090100D01*
X152951515Y-93052259D01*
X152996923Y-93014994D01*
X153019184Y-93003094D01*
X153044156Y-92984952D01*
X153097865Y-92961038D01*
X153144757Y-92935975D01*
X153174264Y-92927024D01*
X153207578Y-92912192D01*
X153259641Y-92901125D01*
X153305177Y-92887313D01*
X153341422Y-92883743D01*
X153382556Y-92875000D01*
X153430190Y-92875000D01*
X153472000Y-92870882D01*
X153513810Y-92875000D01*
G37*
G36*
X157791899Y-92877959D02*
G01*
X157808769Y-92889231D01*
X157820041Y-92906101D01*
X157822999Y-92920978D01*
X157823000Y-94531023D01*
X157820041Y-94545899D01*
X157808769Y-94562769D01*
X157791899Y-94574041D01*
X157777022Y-94576999D01*
X156166977Y-94577000D01*
X156152101Y-94574041D01*
X156135231Y-94562769D01*
X156123959Y-94545899D01*
X156121001Y-94531023D01*
X156121000Y-94531020D01*
X156121000Y-92920977D01*
X156123959Y-92906100D01*
X156135231Y-92889231D01*
X156152098Y-92877960D01*
X156152100Y-92877959D01*
X156152101Y-92877959D01*
X156157819Y-92876822D01*
X156166979Y-92875000D01*
X157777022Y-92875000D01*
X157777023Y-92875000D01*
X157791899Y-92877959D01*
G37*
G36*
X102189810Y-91859000D02*
G01*
X102237444Y-91859000D01*
X102278578Y-91867743D01*
X102314822Y-91871313D01*
X102360354Y-91885125D01*
X102412422Y-91896192D01*
X102445738Y-91911025D01*
X102475242Y-91919975D01*
X102522128Y-91945036D01*
X102575844Y-91968952D01*
X102600818Y-91987097D01*
X102623076Y-91998994D01*
X102668476Y-92036253D01*
X102720567Y-92074100D01*
X102737482Y-92092886D01*
X102752658Y-92105341D01*
X102793443Y-92155037D01*
X102840266Y-92207039D01*
X102850100Y-92224073D01*
X102859005Y-92234923D01*
X102891944Y-92296549D01*
X102929710Y-92361960D01*
X102934054Y-92375329D01*
X102938024Y-92382757D01*
X102959908Y-92454901D01*
X102984989Y-92532092D01*
X102985872Y-92540493D01*
X102986686Y-92543177D01*
X102994610Y-92623632D01*
X103003688Y-92710000D01*
X102994609Y-92796375D01*
X102986686Y-92876822D01*
X102985872Y-92879504D01*
X102984989Y-92887908D01*
X102959903Y-92965112D01*
X102938024Y-93037242D01*
X102934054Y-93044667D01*
X102929710Y-93058040D01*
X102891937Y-93123463D01*
X102859005Y-93185076D01*
X102850102Y-93195923D01*
X102840266Y-93212961D01*
X102793434Y-93264972D01*
X102752658Y-93314658D01*
X102737486Y-93327109D01*
X102720567Y-93345900D01*
X102668465Y-93383754D01*
X102623076Y-93421005D01*
X102600823Y-93432899D01*
X102575844Y-93451048D01*
X102522117Y-93474968D01*
X102475242Y-93500024D01*
X102445745Y-93508971D01*
X102412422Y-93523808D01*
X102360343Y-93534877D01*
X102314822Y-93548686D01*
X102278587Y-93552254D01*
X102237444Y-93561000D01*
X102189799Y-93561000D01*
X102148000Y-93565117D01*
X102106200Y-93561000D01*
X102058556Y-93561000D01*
X102017413Y-93552255D01*
X101981177Y-93548686D01*
X101935652Y-93534876D01*
X101883578Y-93523808D01*
X101850256Y-93508972D01*
X101820757Y-93500024D01*
X101773876Y-93474965D01*
X101720156Y-93451048D01*
X101695179Y-93432901D01*
X101672923Y-93421005D01*
X101627525Y-93383747D01*
X101575433Y-93345900D01*
X101558516Y-93327112D01*
X101543341Y-93314658D01*
X101502554Y-93264960D01*
X101455734Y-93212961D01*
X101445899Y-93195927D01*
X101436994Y-93185076D01*
X101404048Y-93123439D01*
X101366290Y-93058040D01*
X101361946Y-93044672D01*
X101357975Y-93037242D01*
X101336081Y-92965065D01*
X101311011Y-92887908D01*
X101310128Y-92879509D01*
X101309313Y-92876822D01*
X101301374Y-92796224D01*
X101292312Y-92710000D01*
X101301373Y-92623783D01*
X101309313Y-92543177D01*
X101310128Y-92540488D01*
X101311011Y-92532092D01*
X101336076Y-92454948D01*
X101357975Y-92382757D01*
X101361947Y-92375325D01*
X101366290Y-92361960D01*
X101404041Y-92296572D01*
X101436994Y-92234923D01*
X101445901Y-92224069D01*
X101455734Y-92207039D01*
X101502545Y-92155049D01*
X101543341Y-92105341D01*
X101558520Y-92092883D01*
X101575433Y-92074100D01*
X101627515Y-92036259D01*
X101672923Y-91998994D01*
X101695184Y-91987094D01*
X101720156Y-91968952D01*
X101773865Y-91945038D01*
X101820757Y-91919975D01*
X101850264Y-91911024D01*
X101883578Y-91896192D01*
X101935641Y-91885125D01*
X101981177Y-91871313D01*
X102017422Y-91867743D01*
X102058556Y-91859000D01*
X102106190Y-91859000D01*
X102148000Y-91854882D01*
X102189810Y-91859000D01*
G37*
G36*
X104689810Y-91859000D02*
G01*
X104737444Y-91859000D01*
X104778578Y-91867743D01*
X104814822Y-91871313D01*
X104860354Y-91885125D01*
X104912422Y-91896192D01*
X104945738Y-91911025D01*
X104975242Y-91919975D01*
X105022128Y-91945036D01*
X105075844Y-91968952D01*
X105100818Y-91987097D01*
X105123076Y-91998994D01*
X105168476Y-92036253D01*
X105220567Y-92074100D01*
X105237482Y-92092886D01*
X105252658Y-92105341D01*
X105293443Y-92155037D01*
X105340266Y-92207039D01*
X105350100Y-92224073D01*
X105359005Y-92234923D01*
X105391944Y-92296549D01*
X105429710Y-92361960D01*
X105434054Y-92375329D01*
X105438024Y-92382757D01*
X105459908Y-92454901D01*
X105484989Y-92532092D01*
X105485872Y-92540493D01*
X105486686Y-92543177D01*
X105494610Y-92623632D01*
X105503688Y-92710000D01*
X105494609Y-92796375D01*
X105486686Y-92876822D01*
X105485872Y-92879504D01*
X105484989Y-92887908D01*
X105459903Y-92965112D01*
X105438024Y-93037242D01*
X105434054Y-93044667D01*
X105429710Y-93058040D01*
X105391937Y-93123463D01*
X105359005Y-93185076D01*
X105350102Y-93195923D01*
X105340266Y-93212961D01*
X105293434Y-93264972D01*
X105252658Y-93314658D01*
X105237486Y-93327109D01*
X105220567Y-93345900D01*
X105168465Y-93383754D01*
X105123076Y-93421005D01*
X105100823Y-93432899D01*
X105075844Y-93451048D01*
X105022117Y-93474968D01*
X104975242Y-93500024D01*
X104945745Y-93508971D01*
X104912422Y-93523808D01*
X104860343Y-93534877D01*
X104814822Y-93548686D01*
X104778587Y-93552254D01*
X104737444Y-93561000D01*
X104689799Y-93561000D01*
X104648000Y-93565117D01*
X104606200Y-93561000D01*
X104558556Y-93561000D01*
X104517413Y-93552255D01*
X104481177Y-93548686D01*
X104435652Y-93534876D01*
X104383578Y-93523808D01*
X104350256Y-93508972D01*
X104320757Y-93500024D01*
X104273876Y-93474965D01*
X104220156Y-93451048D01*
X104195179Y-93432901D01*
X104172923Y-93421005D01*
X104127525Y-93383747D01*
X104075433Y-93345900D01*
X104058516Y-93327112D01*
X104043341Y-93314658D01*
X104002554Y-93264960D01*
X103955734Y-93212961D01*
X103945899Y-93195927D01*
X103936994Y-93185076D01*
X103904048Y-93123439D01*
X103866290Y-93058040D01*
X103861946Y-93044672D01*
X103857975Y-93037242D01*
X103836081Y-92965065D01*
X103811011Y-92887908D01*
X103810128Y-92879509D01*
X103809313Y-92876822D01*
X103801374Y-92796224D01*
X103792312Y-92710000D01*
X103801373Y-92623783D01*
X103809313Y-92543177D01*
X103810128Y-92540488D01*
X103811011Y-92532092D01*
X103836076Y-92454948D01*
X103857975Y-92382757D01*
X103861947Y-92375325D01*
X103866290Y-92361960D01*
X103904041Y-92296572D01*
X103936994Y-92234923D01*
X103945901Y-92224069D01*
X103955734Y-92207039D01*
X104002545Y-92155049D01*
X104043341Y-92105341D01*
X104058520Y-92092883D01*
X104075433Y-92074100D01*
X104127515Y-92036259D01*
X104172923Y-91998994D01*
X104195184Y-91987094D01*
X104220156Y-91968952D01*
X104273865Y-91945038D01*
X104320757Y-91919975D01*
X104350264Y-91911024D01*
X104383578Y-91896192D01*
X104435641Y-91885125D01*
X104481177Y-91871313D01*
X104517422Y-91867743D01*
X104558556Y-91859000D01*
X104606190Y-91859000D01*
X104648000Y-91854882D01*
X104689810Y-91859000D01*
G37*
G36*
X137495810Y-89827000D02*
G01*
X137543444Y-89827000D01*
X137584578Y-89835743D01*
X137620822Y-89839313D01*
X137666354Y-89853125D01*
X137718422Y-89864192D01*
X137751738Y-89879025D01*
X137781242Y-89887975D01*
X137828128Y-89913036D01*
X137881844Y-89936952D01*
X137906818Y-89955097D01*
X137929076Y-89966994D01*
X137974476Y-90004253D01*
X138026567Y-90042100D01*
X138043482Y-90060886D01*
X138058658Y-90073341D01*
X138099443Y-90123037D01*
X138146266Y-90175039D01*
X138156100Y-90192073D01*
X138165005Y-90202923D01*
X138197944Y-90264549D01*
X138235710Y-90329960D01*
X138240054Y-90343329D01*
X138244024Y-90350757D01*
X138265908Y-90422901D01*
X138290989Y-90500092D01*
X138291872Y-90508493D01*
X138292686Y-90511177D01*
X138300610Y-90591632D01*
X138309688Y-90678000D01*
X138300609Y-90764375D01*
X138292686Y-90844822D01*
X138291872Y-90847504D01*
X138290989Y-90855908D01*
X138265903Y-90933112D01*
X138244024Y-91005242D01*
X138240054Y-91012667D01*
X138235710Y-91026040D01*
X138197937Y-91091463D01*
X138165005Y-91153076D01*
X138156102Y-91163923D01*
X138146266Y-91180961D01*
X138099434Y-91232972D01*
X138058658Y-91282658D01*
X138043486Y-91295109D01*
X138026567Y-91313900D01*
X137974465Y-91351754D01*
X137929076Y-91389005D01*
X137906823Y-91400899D01*
X137881844Y-91419048D01*
X137828117Y-91442968D01*
X137781242Y-91468024D01*
X137751745Y-91476971D01*
X137718422Y-91491808D01*
X137666343Y-91502877D01*
X137620822Y-91516686D01*
X137584587Y-91520254D01*
X137543444Y-91529000D01*
X137495799Y-91529000D01*
X137454000Y-91533117D01*
X137412200Y-91529000D01*
X137364556Y-91529000D01*
X137323413Y-91520255D01*
X137287177Y-91516686D01*
X137241652Y-91502876D01*
X137189578Y-91491808D01*
X137156256Y-91476972D01*
X137126757Y-91468024D01*
X137079876Y-91442965D01*
X137026156Y-91419048D01*
X137001179Y-91400901D01*
X136978923Y-91389005D01*
X136933525Y-91351747D01*
X136881433Y-91313900D01*
X136864516Y-91295112D01*
X136849341Y-91282658D01*
X136808554Y-91232960D01*
X136761734Y-91180961D01*
X136751899Y-91163927D01*
X136742994Y-91153076D01*
X136710048Y-91091439D01*
X136672290Y-91026040D01*
X136667946Y-91012672D01*
X136663975Y-91005242D01*
X136642081Y-90933065D01*
X136617011Y-90855908D01*
X136616128Y-90847509D01*
X136615313Y-90844822D01*
X136607374Y-90764224D01*
X136598312Y-90678000D01*
X136607373Y-90591783D01*
X136615313Y-90511177D01*
X136616128Y-90508488D01*
X136617011Y-90500092D01*
X136642076Y-90422948D01*
X136663975Y-90350757D01*
X136667947Y-90343325D01*
X136672290Y-90329960D01*
X136710041Y-90264572D01*
X136742994Y-90202923D01*
X136751901Y-90192069D01*
X136761734Y-90175039D01*
X136808545Y-90123049D01*
X136849341Y-90073341D01*
X136864520Y-90060883D01*
X136881433Y-90042100D01*
X136933515Y-90004259D01*
X136978923Y-89966994D01*
X137001184Y-89955094D01*
X137026156Y-89936952D01*
X137079865Y-89913038D01*
X137126757Y-89887975D01*
X137156264Y-89879024D01*
X137189578Y-89864192D01*
X137241641Y-89853125D01*
X137287177Y-89839313D01*
X137323422Y-89835743D01*
X137364556Y-89827000D01*
X137412190Y-89827000D01*
X137454000Y-89822882D01*
X137495810Y-89827000D01*
G37*
G36*
X139995810Y-89827000D02*
G01*
X140043444Y-89827000D01*
X140084578Y-89835743D01*
X140120822Y-89839313D01*
X140166354Y-89853125D01*
X140218422Y-89864192D01*
X140251738Y-89879025D01*
X140281242Y-89887975D01*
X140328128Y-89913036D01*
X140381844Y-89936952D01*
X140406818Y-89955097D01*
X140429076Y-89966994D01*
X140474476Y-90004253D01*
X140526567Y-90042100D01*
X140543482Y-90060886D01*
X140558658Y-90073341D01*
X140599443Y-90123037D01*
X140646266Y-90175039D01*
X140656100Y-90192073D01*
X140665005Y-90202923D01*
X140697944Y-90264549D01*
X140735710Y-90329960D01*
X140740054Y-90343329D01*
X140744024Y-90350757D01*
X140765908Y-90422901D01*
X140790989Y-90500092D01*
X140791872Y-90508493D01*
X140792686Y-90511177D01*
X140800610Y-90591632D01*
X140809688Y-90678000D01*
X140800609Y-90764375D01*
X140792686Y-90844822D01*
X140791872Y-90847504D01*
X140790989Y-90855908D01*
X140765903Y-90933112D01*
X140744024Y-91005242D01*
X140740054Y-91012667D01*
X140735710Y-91026040D01*
X140697937Y-91091463D01*
X140665005Y-91153076D01*
X140656102Y-91163923D01*
X140646266Y-91180961D01*
X140599434Y-91232972D01*
X140558658Y-91282658D01*
X140543486Y-91295109D01*
X140526567Y-91313900D01*
X140474465Y-91351754D01*
X140429076Y-91389005D01*
X140406823Y-91400899D01*
X140381844Y-91419048D01*
X140328117Y-91442968D01*
X140281242Y-91468024D01*
X140251745Y-91476971D01*
X140218422Y-91491808D01*
X140166343Y-91502877D01*
X140120822Y-91516686D01*
X140084587Y-91520254D01*
X140043444Y-91529000D01*
X139995799Y-91529000D01*
X139954000Y-91533117D01*
X139912200Y-91529000D01*
X139864556Y-91529000D01*
X139823413Y-91520255D01*
X139787177Y-91516686D01*
X139741652Y-91502876D01*
X139689578Y-91491808D01*
X139656256Y-91476972D01*
X139626757Y-91468024D01*
X139579876Y-91442965D01*
X139526156Y-91419048D01*
X139501179Y-91400901D01*
X139478923Y-91389005D01*
X139433525Y-91351747D01*
X139381433Y-91313900D01*
X139364516Y-91295112D01*
X139349341Y-91282658D01*
X139308554Y-91232960D01*
X139261734Y-91180961D01*
X139251899Y-91163927D01*
X139242994Y-91153076D01*
X139210048Y-91091439D01*
X139172290Y-91026040D01*
X139167946Y-91012672D01*
X139163975Y-91005242D01*
X139142081Y-90933065D01*
X139117011Y-90855908D01*
X139116128Y-90847509D01*
X139115313Y-90844822D01*
X139107374Y-90764224D01*
X139098312Y-90678000D01*
X139107373Y-90591783D01*
X139115313Y-90511177D01*
X139116128Y-90508488D01*
X139117011Y-90500092D01*
X139142076Y-90422948D01*
X139163975Y-90350757D01*
X139167947Y-90343325D01*
X139172290Y-90329960D01*
X139210041Y-90264572D01*
X139242994Y-90202923D01*
X139251901Y-90192069D01*
X139261734Y-90175039D01*
X139308545Y-90123049D01*
X139349341Y-90073341D01*
X139364520Y-90060883D01*
X139381433Y-90042100D01*
X139433515Y-90004259D01*
X139478923Y-89966994D01*
X139501184Y-89955094D01*
X139526156Y-89936952D01*
X139579865Y-89913038D01*
X139626757Y-89887975D01*
X139656264Y-89879024D01*
X139689578Y-89864192D01*
X139741641Y-89853125D01*
X139787177Y-89839313D01*
X139823422Y-89835743D01*
X139864556Y-89827000D01*
X139912190Y-89827000D01*
X139954000Y-89822882D01*
X139995810Y-89827000D01*
G37*
G36*
X94044866Y-87249000D02*
G01*
X94103725Y-87249000D01*
X94168039Y-87258693D01*
X94239072Y-87264284D01*
X94296326Y-87278029D01*
X94348410Y-87285880D01*
X94416478Y-87306875D01*
X94491765Y-87324951D01*
X94540438Y-87345112D01*
X94584872Y-87358818D01*
X94654630Y-87392411D01*
X94731856Y-87424400D01*
X94771500Y-87448694D01*
X94807812Y-87466181D01*
X94876874Y-87513267D01*
X94953434Y-87560183D01*
X94984092Y-87586367D01*
X95012267Y-87605577D01*
X95078055Y-87666619D01*
X95151043Y-87728957D01*
X95173206Y-87754906D01*
X95193662Y-87773887D01*
X95253470Y-87848884D01*
X95319817Y-87926566D01*
X95334407Y-87950375D01*
X95347945Y-87967351D01*
X95399008Y-88055794D01*
X95455600Y-88148144D01*
X95463911Y-88168208D01*
X95471672Y-88181651D01*
X95511249Y-88282493D01*
X95555049Y-88388235D01*
X95558671Y-88403324D01*
X95562073Y-88411991D01*
X95587539Y-88523567D01*
X95615716Y-88640928D01*
X95616447Y-88650216D01*
X95617138Y-88653244D01*
X95626151Y-88773530D01*
X95636105Y-88900000D01*
X95626151Y-89026479D01*
X95617138Y-89146755D01*
X95616447Y-89149781D01*
X95615716Y-89159072D01*
X95587535Y-89276451D01*
X95562073Y-89388008D01*
X95558672Y-89396672D01*
X95555049Y-89411765D01*
X95511242Y-89517524D01*
X95471672Y-89618348D01*
X95463912Y-89631787D01*
X95455600Y-89651856D01*
X95398998Y-89744221D01*
X95347945Y-89832648D01*
X95334410Y-89849620D01*
X95319817Y-89873434D01*
X95253458Y-89951129D01*
X95193662Y-90026112D01*
X95173210Y-90045088D01*
X95151043Y-90071043D01*
X95078041Y-90133392D01*
X95012267Y-90194422D01*
X94984098Y-90213627D01*
X94953434Y-90239817D01*
X94876860Y-90286741D01*
X94807812Y-90333818D01*
X94771508Y-90351301D01*
X94731856Y-90375600D01*
X94654615Y-90407594D01*
X94584872Y-90441181D01*
X94540448Y-90454883D01*
X94491765Y-90475049D01*
X94416463Y-90493127D01*
X94348410Y-90514119D01*
X94296335Y-90521968D01*
X94239072Y-90535716D01*
X94168035Y-90541306D01*
X94103725Y-90551000D01*
X94044866Y-90551000D01*
X93980000Y-90556105D01*
X93915134Y-90551000D01*
X93856275Y-90551000D01*
X93791964Y-90541306D01*
X93720928Y-90535716D01*
X93663666Y-90521968D01*
X93611589Y-90514119D01*
X93543531Y-90493126D01*
X93468235Y-90475049D01*
X93419554Y-90454885D01*
X93375127Y-90441181D01*
X93305379Y-90407592D01*
X93228144Y-90375600D01*
X93188492Y-90351301D01*
X93152188Y-90333818D01*
X93083136Y-90286739D01*
X93006566Y-90239817D01*
X92975905Y-90213630D01*
X92947732Y-90194422D01*
X92881945Y-90133381D01*
X92808957Y-90071043D01*
X92786793Y-90045092D01*
X92766337Y-90026112D01*
X92706526Y-89951111D01*
X92640183Y-89873434D01*
X92625593Y-89849625D01*
X92612054Y-89832648D01*
X92560984Y-89744193D01*
X92504400Y-89651856D01*
X92496089Y-89631793D01*
X92488327Y-89618348D01*
X92448738Y-89517478D01*
X92404951Y-89411765D01*
X92401329Y-89396679D01*
X92397926Y-89388008D01*
X92372444Y-89276367D01*
X92344284Y-89159072D01*
X92343553Y-89149788D01*
X92342861Y-89146755D01*
X92333828Y-89026213D01*
X92323895Y-88900000D01*
X92333827Y-88773796D01*
X92342861Y-88653244D01*
X92343553Y-88650209D01*
X92344284Y-88640928D01*
X92372439Y-88523651D01*
X92397926Y-88411991D01*
X92401329Y-88403318D01*
X92404951Y-88388235D01*
X92448731Y-88282539D01*
X92488327Y-88181651D01*
X92496091Y-88168202D01*
X92504400Y-88148144D01*
X92560974Y-88055822D01*
X92612054Y-87967351D01*
X92625595Y-87950370D01*
X92640183Y-87926566D01*
X92706514Y-87848902D01*
X92766337Y-87773887D01*
X92786797Y-87754902D01*
X92808957Y-87728957D01*
X92881932Y-87666630D01*
X92947732Y-87605577D01*
X92975910Y-87586364D01*
X93006566Y-87560183D01*
X93083122Y-87513269D01*
X93152188Y-87466181D01*
X93188499Y-87448693D01*
X93228144Y-87424400D01*
X93305364Y-87392414D01*
X93375127Y-87358818D01*
X93419564Y-87345111D01*
X93468235Y-87324951D01*
X93543517Y-87306877D01*
X93611589Y-87285880D01*
X93663675Y-87278029D01*
X93720928Y-87264284D01*
X93791960Y-87258693D01*
X93856275Y-87249000D01*
X93915134Y-87249000D01*
X93980000Y-87243895D01*
X94044866Y-87249000D01*
G37*
G36*
X99759866Y-87249000D02*
G01*
X99818725Y-87249000D01*
X99883039Y-87258693D01*
X99954072Y-87264284D01*
X100011326Y-87278029D01*
X100063410Y-87285880D01*
X100131478Y-87306875D01*
X100206765Y-87324951D01*
X100255438Y-87345112D01*
X100299872Y-87358818D01*
X100369630Y-87392411D01*
X100446856Y-87424400D01*
X100486500Y-87448694D01*
X100522812Y-87466181D01*
X100591874Y-87513267D01*
X100668434Y-87560183D01*
X100699092Y-87586367D01*
X100727267Y-87605577D01*
X100793055Y-87666619D01*
X100866043Y-87728957D01*
X100888206Y-87754906D01*
X100908662Y-87773887D01*
X100968470Y-87848884D01*
X101034817Y-87926566D01*
X101049407Y-87950375D01*
X101062945Y-87967351D01*
X101114008Y-88055794D01*
X101170600Y-88148144D01*
X101178911Y-88168208D01*
X101186672Y-88181651D01*
X101226249Y-88282493D01*
X101270049Y-88388235D01*
X101273671Y-88403324D01*
X101277073Y-88411991D01*
X101302539Y-88523567D01*
X101330716Y-88640928D01*
X101331447Y-88650216D01*
X101332138Y-88653244D01*
X101341151Y-88773530D01*
X101351105Y-88900000D01*
X101341151Y-89026479D01*
X101332138Y-89146755D01*
X101331447Y-89149781D01*
X101330716Y-89159072D01*
X101302535Y-89276451D01*
X101277073Y-89388008D01*
X101273672Y-89396672D01*
X101270049Y-89411765D01*
X101226242Y-89517524D01*
X101186672Y-89618348D01*
X101178912Y-89631787D01*
X101170600Y-89651856D01*
X101113998Y-89744221D01*
X101062945Y-89832648D01*
X101049410Y-89849620D01*
X101034817Y-89873434D01*
X100968458Y-89951129D01*
X100908662Y-90026112D01*
X100888210Y-90045088D01*
X100866043Y-90071043D01*
X100793041Y-90133392D01*
X100727267Y-90194422D01*
X100699098Y-90213627D01*
X100668434Y-90239817D01*
X100591860Y-90286741D01*
X100522812Y-90333818D01*
X100486508Y-90351301D01*
X100446856Y-90375600D01*
X100369615Y-90407594D01*
X100299872Y-90441181D01*
X100255448Y-90454883D01*
X100206765Y-90475049D01*
X100131463Y-90493127D01*
X100063410Y-90514119D01*
X100011335Y-90521968D01*
X99954072Y-90535716D01*
X99883035Y-90541306D01*
X99818725Y-90551000D01*
X99759866Y-90551000D01*
X99695000Y-90556105D01*
X99630134Y-90551000D01*
X99571275Y-90551000D01*
X99506964Y-90541306D01*
X99435928Y-90535716D01*
X99378666Y-90521968D01*
X99326589Y-90514119D01*
X99258531Y-90493126D01*
X99183235Y-90475049D01*
X99134554Y-90454885D01*
X99090127Y-90441181D01*
X99020379Y-90407592D01*
X98943144Y-90375600D01*
X98903492Y-90351301D01*
X98867188Y-90333818D01*
X98798136Y-90286739D01*
X98721566Y-90239817D01*
X98690905Y-90213630D01*
X98662732Y-90194422D01*
X98596945Y-90133381D01*
X98523957Y-90071043D01*
X98501793Y-90045092D01*
X98481337Y-90026112D01*
X98421526Y-89951111D01*
X98355183Y-89873434D01*
X98340593Y-89849625D01*
X98327054Y-89832648D01*
X98275984Y-89744193D01*
X98219400Y-89651856D01*
X98211089Y-89631793D01*
X98203327Y-89618348D01*
X98163738Y-89517478D01*
X98119951Y-89411765D01*
X98116329Y-89396679D01*
X98112926Y-89388008D01*
X98087444Y-89276367D01*
X98059284Y-89159072D01*
X98058553Y-89149788D01*
X98057861Y-89146755D01*
X98048828Y-89026213D01*
X98038895Y-88900000D01*
X98048827Y-88773796D01*
X98057861Y-88653244D01*
X98058553Y-88650209D01*
X98059284Y-88640928D01*
X98087439Y-88523651D01*
X98112926Y-88411991D01*
X98116329Y-88403318D01*
X98119951Y-88388235D01*
X98163731Y-88282539D01*
X98203327Y-88181651D01*
X98211091Y-88168202D01*
X98219400Y-88148144D01*
X98275974Y-88055822D01*
X98327054Y-87967351D01*
X98340595Y-87950370D01*
X98355183Y-87926566D01*
X98421514Y-87848902D01*
X98481337Y-87773887D01*
X98501797Y-87754902D01*
X98523957Y-87728957D01*
X98596932Y-87666630D01*
X98662732Y-87605577D01*
X98690910Y-87586364D01*
X98721566Y-87560183D01*
X98798122Y-87513269D01*
X98867188Y-87466181D01*
X98903499Y-87448693D01*
X98943144Y-87424400D01*
X99020364Y-87392414D01*
X99090127Y-87358818D01*
X99134564Y-87345111D01*
X99183235Y-87324951D01*
X99258517Y-87306877D01*
X99326589Y-87285880D01*
X99378675Y-87278029D01*
X99435928Y-87264284D01*
X99506960Y-87258693D01*
X99571275Y-87249000D01*
X99630134Y-87249000D01*
X99695000Y-87243895D01*
X99759866Y-87249000D01*
G37*
G36*
X107029899Y-87251959D02*
G01*
X107046769Y-87263231D01*
X107058041Y-87280101D01*
X107060999Y-87294978D01*
X107061000Y-90505023D01*
X107058041Y-90519899D01*
X107046769Y-90536769D01*
X107029899Y-90548041D01*
X107015022Y-90550999D01*
X103804977Y-90551000D01*
X103790101Y-90548041D01*
X103773231Y-90536769D01*
X103761959Y-90519899D01*
X103759001Y-90505023D01*
X103759000Y-90505020D01*
X103759000Y-87294977D01*
X103761959Y-87280100D01*
X103773231Y-87263231D01*
X103790098Y-87251960D01*
X103790100Y-87251959D01*
X103790101Y-87251959D01*
X103795082Y-87250968D01*
X103804979Y-87249000D01*
X107015022Y-87249000D01*
X107015023Y-87249000D01*
X107029899Y-87251959D01*
G37*
G36*
X112744899Y-87251959D02*
G01*
X112761769Y-87263231D01*
X112773041Y-87280101D01*
X112775999Y-87294978D01*
X112776000Y-90505023D01*
X112773041Y-90519899D01*
X112761769Y-90536769D01*
X112744899Y-90548041D01*
X112730022Y-90550999D01*
X109519977Y-90551000D01*
X109505101Y-90548041D01*
X109488231Y-90536769D01*
X109476959Y-90519899D01*
X109474001Y-90505023D01*
X109474000Y-90505020D01*
X109474000Y-87294977D01*
X109476959Y-87280100D01*
X109488231Y-87263231D01*
X109505098Y-87251960D01*
X109505100Y-87251959D01*
X109505101Y-87251959D01*
X109510082Y-87250968D01*
X109519979Y-87249000D01*
X112730022Y-87249000D01*
X112730023Y-87249000D01*
X112744899Y-87251959D01*
G37*
G36*
X157013810Y-87287000D02*
G01*
X157061444Y-87287000D01*
X157102578Y-87295743D01*
X157138822Y-87299313D01*
X157184354Y-87313125D01*
X157236422Y-87324192D01*
X157269738Y-87339025D01*
X157299242Y-87347975D01*
X157346128Y-87373036D01*
X157399844Y-87396952D01*
X157424818Y-87415097D01*
X157447076Y-87426994D01*
X157492476Y-87464253D01*
X157544567Y-87502100D01*
X157561482Y-87520886D01*
X157576658Y-87533341D01*
X157617443Y-87583037D01*
X157664266Y-87635039D01*
X157674100Y-87652073D01*
X157683005Y-87662923D01*
X157715944Y-87724549D01*
X157753710Y-87789960D01*
X157758054Y-87803329D01*
X157762024Y-87810757D01*
X157783908Y-87882901D01*
X157808989Y-87960092D01*
X157809872Y-87968493D01*
X157810686Y-87971177D01*
X157818610Y-88051632D01*
X157827688Y-88138000D01*
X157818609Y-88224375D01*
X157810686Y-88304822D01*
X157809872Y-88307504D01*
X157808989Y-88315908D01*
X157783903Y-88393112D01*
X157762024Y-88465242D01*
X157758054Y-88472667D01*
X157753710Y-88486040D01*
X157715937Y-88551463D01*
X157683005Y-88613076D01*
X157674102Y-88623923D01*
X157664266Y-88640961D01*
X157617434Y-88692972D01*
X157576658Y-88742658D01*
X157561486Y-88755109D01*
X157544567Y-88773900D01*
X157492465Y-88811754D01*
X157447076Y-88849005D01*
X157424823Y-88860899D01*
X157399844Y-88879048D01*
X157346117Y-88902968D01*
X157299242Y-88928024D01*
X157269745Y-88936971D01*
X157236422Y-88951808D01*
X157184343Y-88962877D01*
X157138822Y-88976686D01*
X157102587Y-88980254D01*
X157061444Y-88989000D01*
X157013799Y-88989000D01*
X156972000Y-88993117D01*
X156930200Y-88989000D01*
X156882556Y-88989000D01*
X156841413Y-88980255D01*
X156805177Y-88976686D01*
X156759652Y-88962876D01*
X156707578Y-88951808D01*
X156674256Y-88936972D01*
X156644757Y-88928024D01*
X156597876Y-88902965D01*
X156544156Y-88879048D01*
X156519179Y-88860901D01*
X156496923Y-88849005D01*
X156451525Y-88811747D01*
X156399433Y-88773900D01*
X156382516Y-88755112D01*
X156367341Y-88742658D01*
X156326554Y-88692960D01*
X156279734Y-88640961D01*
X156269899Y-88623927D01*
X156260994Y-88613076D01*
X156228048Y-88551439D01*
X156190290Y-88486040D01*
X156185946Y-88472672D01*
X156181975Y-88465242D01*
X156160081Y-88393065D01*
X156135011Y-88315908D01*
X156134128Y-88307509D01*
X156133313Y-88304822D01*
X156125374Y-88224224D01*
X156116312Y-88138000D01*
X156125373Y-88051783D01*
X156133313Y-87971177D01*
X156134128Y-87968488D01*
X156135011Y-87960092D01*
X156160076Y-87882948D01*
X156181975Y-87810757D01*
X156185947Y-87803325D01*
X156190290Y-87789960D01*
X156228041Y-87724572D01*
X156260994Y-87662923D01*
X156269901Y-87652069D01*
X156279734Y-87635039D01*
X156326545Y-87583049D01*
X156367341Y-87533341D01*
X156382520Y-87520883D01*
X156399433Y-87502100D01*
X156451515Y-87464259D01*
X156496923Y-87426994D01*
X156519184Y-87415094D01*
X156544156Y-87396952D01*
X156597865Y-87373038D01*
X156644757Y-87347975D01*
X156674264Y-87339024D01*
X156707578Y-87324192D01*
X156759641Y-87313125D01*
X156805177Y-87299313D01*
X156841422Y-87295743D01*
X156882556Y-87287000D01*
X156930190Y-87287000D01*
X156972000Y-87282882D01*
X157013810Y-87287000D01*
G37*
G36*
X129743899Y-86381959D02*
G01*
X129760769Y-86393231D01*
X129772041Y-86410101D01*
X129774999Y-86424978D01*
X129775000Y-88835023D01*
X129772041Y-88849899D01*
X129760769Y-88866769D01*
X129743899Y-88878041D01*
X129729022Y-88880999D01*
X127318977Y-88881000D01*
X127304101Y-88878041D01*
X127287231Y-88866769D01*
X127275959Y-88849899D01*
X127273001Y-88835023D01*
X127273000Y-88835020D01*
X127273000Y-86424977D01*
X127275959Y-86410100D01*
X127287231Y-86393231D01*
X127304098Y-86381960D01*
X127304100Y-86381959D01*
X127304101Y-86381959D01*
X127309082Y-86380968D01*
X127318979Y-86379000D01*
X129729022Y-86379000D01*
X129729023Y-86379000D01*
X129743899Y-86381959D01*
G37*
G36*
X147269899Y-86381959D02*
G01*
X147286769Y-86393231D01*
X147298041Y-86410101D01*
X147300999Y-86424978D01*
X147301000Y-88835023D01*
X147298041Y-88849899D01*
X147286769Y-88866769D01*
X147269899Y-88878041D01*
X147255022Y-88880999D01*
X144844977Y-88881000D01*
X144830101Y-88878041D01*
X144813231Y-88866769D01*
X144801959Y-88849899D01*
X144799001Y-88835023D01*
X144799000Y-88835020D01*
X144799000Y-86424977D01*
X144801959Y-86410100D01*
X144813231Y-86393231D01*
X144830098Y-86381960D01*
X144830100Y-86381959D01*
X144830101Y-86381959D01*
X144835082Y-86380968D01*
X144844979Y-86379000D01*
X147255022Y-86379000D01*
X147255023Y-86379000D01*
X147269899Y-86381959D01*
G37*
G36*
X128578625Y-78879000D02*
G01*
X128627662Y-78879000D01*
X128681705Y-78888018D01*
X128742064Y-78893299D01*
X128789467Y-78906000D01*
X128832154Y-78913124D01*
X128889418Y-78932782D01*
X128953502Y-78949954D01*
X128992756Y-78968258D01*
X129028243Y-78980441D01*
X129086544Y-79011992D01*
X129151890Y-79042463D01*
X129182651Y-79064002D01*
X129210575Y-79079114D01*
X129267423Y-79123360D01*
X129331199Y-79168017D01*
X129353673Y-79190491D01*
X129374181Y-79206453D01*
X129426862Y-79263680D01*
X129485983Y-79322801D01*
X129500906Y-79344113D01*
X129514599Y-79358988D01*
X129560286Y-79428917D01*
X129611537Y-79502111D01*
X129620090Y-79520453D01*
X129627992Y-79532548D01*
X129663855Y-79614308D01*
X129704046Y-79700498D01*
X129707789Y-79714468D01*
X129711272Y-79722408D01*
X129734593Y-79814501D01*
X129760701Y-79911936D01*
X129761457Y-79920586D01*
X129762167Y-79923387D01*
X129770477Y-80023687D01*
X129779779Y-80130000D01*
X129770477Y-80236322D01*
X129762167Y-80336612D01*
X129761457Y-80339411D01*
X129760701Y-80348064D01*
X129734588Y-80445515D01*
X129711272Y-80537591D01*
X129707790Y-80545529D01*
X129704046Y-80559502D01*
X129663844Y-80645714D01*
X129627992Y-80727451D01*
X129620093Y-80739540D01*
X129611537Y-80757890D01*
X129560271Y-80831104D01*
X129514599Y-80901011D01*
X129500909Y-80915881D01*
X129485983Y-80937199D01*
X129426850Y-80996331D01*
X129374181Y-81053546D01*
X129353677Y-81069504D01*
X129331199Y-81091983D01*
X129267410Y-81136648D01*
X129210575Y-81180885D01*
X129182658Y-81195992D01*
X129151890Y-81217537D01*
X129086531Y-81248013D01*
X129028243Y-81279558D01*
X128992764Y-81291737D01*
X128953502Y-81310046D01*
X128889404Y-81327220D01*
X128832154Y-81346875D01*
X128789475Y-81353997D01*
X128742064Y-81366701D01*
X128681702Y-81371981D01*
X128627662Y-81381000D01*
X128578625Y-81381000D01*
X128524000Y-81385779D01*
X128469375Y-81381000D01*
X128420338Y-81381000D01*
X128366297Y-81371981D01*
X128305936Y-81366701D01*
X128258525Y-81353997D01*
X128215845Y-81346875D01*
X128158590Y-81327219D01*
X128094498Y-81310046D01*
X128055237Y-81291738D01*
X128019756Y-81279558D01*
X127961461Y-81248010D01*
X127896110Y-81217537D01*
X127865345Y-81195995D01*
X127837424Y-81180885D01*
X127780579Y-81136641D01*
X127716801Y-81091983D01*
X127694325Y-81069507D01*
X127673818Y-81053546D01*
X127621136Y-80996318D01*
X127562017Y-80937199D01*
X127547093Y-80915886D01*
X127533400Y-80901011D01*
X127487713Y-80831083D01*
X127436463Y-80757890D01*
X127427909Y-80739546D01*
X127420007Y-80727451D01*
X127384138Y-80645678D01*
X127343954Y-80559502D01*
X127340211Y-80545534D01*
X127336727Y-80537591D01*
X127313393Y-80445448D01*
X127287299Y-80348064D01*
X127286542Y-80339417D01*
X127285832Y-80336612D01*
X127277504Y-80236105D01*
X127268221Y-80130000D01*
X127277503Y-80023903D01*
X127285832Y-79923387D01*
X127286542Y-79920580D01*
X127287299Y-79911936D01*
X127313388Y-79814569D01*
X127336727Y-79722408D01*
X127340212Y-79714462D01*
X127343954Y-79700498D01*
X127384127Y-79614344D01*
X127420007Y-79532548D01*
X127427912Y-79520448D01*
X127436463Y-79502111D01*
X127487698Y-79428939D01*
X127533400Y-79358988D01*
X127547096Y-79344109D01*
X127562017Y-79322801D01*
X127621125Y-79263692D01*
X127673818Y-79206453D01*
X127694330Y-79190487D01*
X127716801Y-79168017D01*
X127780563Y-79123370D01*
X127837424Y-79079114D01*
X127865355Y-79063998D01*
X127896111Y-79042463D01*
X127961443Y-79011997D01*
X128019756Y-78980441D01*
X128055246Y-78968257D01*
X128094498Y-78949954D01*
X128158577Y-78932783D01*
X128215845Y-78913124D01*
X128258533Y-78906000D01*
X128305936Y-78893299D01*
X128366293Y-78888018D01*
X128420338Y-78879000D01*
X128469375Y-78879000D01*
X128524000Y-78874221D01*
X128578625Y-78879000D01*
G37*
G36*
X146104625Y-78879000D02*
G01*
X146153662Y-78879000D01*
X146207705Y-78888018D01*
X146268064Y-78893299D01*
X146315467Y-78906000D01*
X146358154Y-78913124D01*
X146415418Y-78932782D01*
X146479502Y-78949954D01*
X146518756Y-78968258D01*
X146554243Y-78980441D01*
X146612544Y-79011992D01*
X146677890Y-79042463D01*
X146708651Y-79064002D01*
X146736575Y-79079114D01*
X146793423Y-79123360D01*
X146857199Y-79168017D01*
X146879673Y-79190491D01*
X146900181Y-79206453D01*
X146952862Y-79263680D01*
X147011983Y-79322801D01*
X147026906Y-79344113D01*
X147040599Y-79358988D01*
X147086286Y-79428917D01*
X147137537Y-79502111D01*
X147146090Y-79520453D01*
X147153992Y-79532548D01*
X147189855Y-79614308D01*
X147230046Y-79700498D01*
X147233789Y-79714468D01*
X147237272Y-79722408D01*
X147260593Y-79814501D01*
X147286701Y-79911936D01*
X147287457Y-79920586D01*
X147288167Y-79923387D01*
X147296477Y-80023687D01*
X147305779Y-80130000D01*
X147296477Y-80236322D01*
X147288167Y-80336612D01*
X147287457Y-80339411D01*
X147286701Y-80348064D01*
X147260588Y-80445515D01*
X147237272Y-80537591D01*
X147233790Y-80545529D01*
X147230046Y-80559502D01*
X147189844Y-80645714D01*
X147153992Y-80727451D01*
X147146093Y-80739540D01*
X147137537Y-80757890D01*
X147086271Y-80831104D01*
X147040599Y-80901011D01*
X147026909Y-80915881D01*
X147011983Y-80937199D01*
X146952850Y-80996331D01*
X146900181Y-81053546D01*
X146879677Y-81069504D01*
X146857199Y-81091983D01*
X146793410Y-81136648D01*
X146736575Y-81180885D01*
X146708658Y-81195992D01*
X146677890Y-81217537D01*
X146612531Y-81248013D01*
X146554243Y-81279558D01*
X146518764Y-81291737D01*
X146479502Y-81310046D01*
X146415404Y-81327220D01*
X146358154Y-81346875D01*
X146315475Y-81353997D01*
X146268064Y-81366701D01*
X146207702Y-81371981D01*
X146153662Y-81381000D01*
X146104625Y-81381000D01*
X146050000Y-81385779D01*
X145995375Y-81381000D01*
X145946338Y-81381000D01*
X145892297Y-81371981D01*
X145831936Y-81366701D01*
X145784525Y-81353997D01*
X145741845Y-81346875D01*
X145684590Y-81327219D01*
X145620498Y-81310046D01*
X145581237Y-81291738D01*
X145545756Y-81279558D01*
X145487461Y-81248010D01*
X145422110Y-81217537D01*
X145391345Y-81195995D01*
X145363424Y-81180885D01*
X145306579Y-81136641D01*
X145242801Y-81091983D01*
X145220325Y-81069507D01*
X145199818Y-81053546D01*
X145147136Y-80996318D01*
X145088017Y-80937199D01*
X145073093Y-80915886D01*
X145059400Y-80901011D01*
X145013713Y-80831083D01*
X144962463Y-80757890D01*
X144953909Y-80739546D01*
X144946007Y-80727451D01*
X144910138Y-80645678D01*
X144869954Y-80559502D01*
X144866211Y-80545534D01*
X144862727Y-80537591D01*
X144839393Y-80445448D01*
X144813299Y-80348064D01*
X144812542Y-80339417D01*
X144811832Y-80336612D01*
X144803504Y-80236105D01*
X144794221Y-80130000D01*
X144803503Y-80023903D01*
X144811832Y-79923387D01*
X144812542Y-79920580D01*
X144813299Y-79911936D01*
X144839388Y-79814569D01*
X144862727Y-79722408D01*
X144866212Y-79714462D01*
X144869954Y-79700498D01*
X144910127Y-79614344D01*
X144946007Y-79532548D01*
X144953912Y-79520448D01*
X144962463Y-79502111D01*
X145013698Y-79428939D01*
X145059400Y-79358988D01*
X145073096Y-79344109D01*
X145088017Y-79322801D01*
X145147125Y-79263692D01*
X145199818Y-79206453D01*
X145220330Y-79190487D01*
X145242801Y-79168017D01*
X145306563Y-79123370D01*
X145363424Y-79079114D01*
X145391355Y-79063998D01*
X145422111Y-79042463D01*
X145487443Y-79011997D01*
X145545756Y-78980441D01*
X145581246Y-78968257D01*
X145620498Y-78949954D01*
X145684577Y-78932783D01*
X145741845Y-78913124D01*
X145784533Y-78906000D01*
X145831936Y-78893299D01*
X145892293Y-78888018D01*
X145946338Y-78879000D01*
X145995375Y-78879000D01*
X146050000Y-78874221D01*
X146104625Y-78879000D01*
G37*
G36*
X157013810Y-79667000D02*
G01*
X157061444Y-79667000D01*
X157102578Y-79675743D01*
X157138822Y-79679313D01*
X157184354Y-79693125D01*
X157236422Y-79704192D01*
X157269738Y-79719025D01*
X157299242Y-79727975D01*
X157346128Y-79753036D01*
X157399844Y-79776952D01*
X157424818Y-79795097D01*
X157447076Y-79806994D01*
X157492476Y-79844253D01*
X157544567Y-79882100D01*
X157561482Y-79900886D01*
X157576658Y-79913341D01*
X157617443Y-79963037D01*
X157664266Y-80015039D01*
X157674100Y-80032073D01*
X157683005Y-80042923D01*
X157715944Y-80104549D01*
X157753710Y-80169960D01*
X157758054Y-80183329D01*
X157762024Y-80190757D01*
X157783908Y-80262901D01*
X157808989Y-80340092D01*
X157809872Y-80348493D01*
X157810686Y-80351177D01*
X157818610Y-80431632D01*
X157827688Y-80518000D01*
X157818609Y-80604375D01*
X157810686Y-80684822D01*
X157809872Y-80687504D01*
X157808989Y-80695908D01*
X157783903Y-80773112D01*
X157762024Y-80845242D01*
X157758054Y-80852667D01*
X157753710Y-80866040D01*
X157715937Y-80931463D01*
X157683005Y-80993076D01*
X157674102Y-81003923D01*
X157664266Y-81020961D01*
X157617434Y-81072972D01*
X157576658Y-81122658D01*
X157561486Y-81135109D01*
X157544567Y-81153900D01*
X157492465Y-81191754D01*
X157447076Y-81229005D01*
X157424823Y-81240899D01*
X157399844Y-81259048D01*
X157346117Y-81282968D01*
X157299242Y-81308024D01*
X157269745Y-81316971D01*
X157236422Y-81331808D01*
X157184343Y-81342877D01*
X157138822Y-81356686D01*
X157102587Y-81360254D01*
X157061444Y-81369000D01*
X157013799Y-81369000D01*
X156972000Y-81373117D01*
X156930200Y-81369000D01*
X156882556Y-81369000D01*
X156841413Y-81360255D01*
X156805177Y-81356686D01*
X156759652Y-81342876D01*
X156707578Y-81331808D01*
X156674256Y-81316972D01*
X156644757Y-81308024D01*
X156597876Y-81282965D01*
X156544156Y-81259048D01*
X156519179Y-81240901D01*
X156496923Y-81229005D01*
X156451525Y-81191747D01*
X156399433Y-81153900D01*
X156382516Y-81135112D01*
X156367341Y-81122658D01*
X156326554Y-81072960D01*
X156279734Y-81020961D01*
X156269899Y-81003927D01*
X156260994Y-80993076D01*
X156228048Y-80931439D01*
X156190290Y-80866040D01*
X156185946Y-80852672D01*
X156181975Y-80845242D01*
X156160081Y-80773065D01*
X156135011Y-80695908D01*
X156134128Y-80687509D01*
X156133313Y-80684822D01*
X156125374Y-80604224D01*
X156116312Y-80518000D01*
X156125373Y-80431783D01*
X156133313Y-80351177D01*
X156134128Y-80348488D01*
X156135011Y-80340092D01*
X156160076Y-80262948D01*
X156181975Y-80190757D01*
X156185947Y-80183325D01*
X156190290Y-80169960D01*
X156228041Y-80104572D01*
X156260994Y-80042923D01*
X156269901Y-80032069D01*
X156279734Y-80015039D01*
X156326545Y-79963049D01*
X156367341Y-79913341D01*
X156382520Y-79900883D01*
X156399433Y-79882100D01*
X156451515Y-79844259D01*
X156496923Y-79806994D01*
X156519184Y-79795094D01*
X156544156Y-79776952D01*
X156597865Y-79753038D01*
X156644757Y-79727975D01*
X156674264Y-79719024D01*
X156707578Y-79704192D01*
X156759641Y-79693125D01*
X156805177Y-79679313D01*
X156841422Y-79675743D01*
X156882556Y-79667000D01*
X156930190Y-79667000D01*
X156972000Y-79662882D01*
X157013810Y-79667000D01*
G37*
G36*
X157891899Y-77283959D02*
G01*
X157908769Y-77295231D01*
X157920041Y-77312101D01*
X157922999Y-77326978D01*
X157923000Y-79137023D01*
X157920041Y-79151899D01*
X157908769Y-79168769D01*
X157891899Y-79180041D01*
X157877022Y-79182999D01*
X156066977Y-79183000D01*
X156052101Y-79180041D01*
X156035231Y-79168769D01*
X156023959Y-79151899D01*
X156021001Y-79137023D01*
X156021000Y-79137020D01*
X156021000Y-77326977D01*
X156023959Y-77312100D01*
X156035231Y-77295231D01*
X156052098Y-77283960D01*
X156052100Y-77283959D01*
X156052101Y-77283959D01*
X156057082Y-77282968D01*
X156066979Y-77281000D01*
X157877022Y-77281000D01*
X157877023Y-77281000D01*
X157891899Y-77283959D01*
G37*
G36*
X105474866Y-74549000D02*
G01*
X105533725Y-74549000D01*
X105598039Y-74558693D01*
X105669072Y-74564284D01*
X105726326Y-74578029D01*
X105778410Y-74585880D01*
X105846478Y-74606875D01*
X105921765Y-74624951D01*
X105970438Y-74645112D01*
X106014872Y-74658818D01*
X106084630Y-74692411D01*
X106161856Y-74724400D01*
X106201500Y-74748694D01*
X106237812Y-74766181D01*
X106306874Y-74813267D01*
X106383434Y-74860183D01*
X106414092Y-74886367D01*
X106442267Y-74905577D01*
X106508055Y-74966619D01*
X106581043Y-75028957D01*
X106603206Y-75054906D01*
X106623662Y-75073887D01*
X106683470Y-75148884D01*
X106749817Y-75226566D01*
X106764407Y-75250375D01*
X106777945Y-75267351D01*
X106829008Y-75355794D01*
X106885600Y-75448144D01*
X106893911Y-75468208D01*
X106901672Y-75481651D01*
X106941249Y-75582493D01*
X106985049Y-75688235D01*
X106988671Y-75703324D01*
X106992073Y-75711991D01*
X107017539Y-75823567D01*
X107045716Y-75940928D01*
X107046447Y-75950216D01*
X107047138Y-75953244D01*
X107056151Y-76073530D01*
X107066105Y-76200000D01*
X107056151Y-76326479D01*
X107047138Y-76446755D01*
X107046447Y-76449781D01*
X107045716Y-76459072D01*
X107017535Y-76576451D01*
X106992073Y-76688008D01*
X106988672Y-76696672D01*
X106985049Y-76711765D01*
X106941242Y-76817524D01*
X106901672Y-76918348D01*
X106893912Y-76931787D01*
X106885600Y-76951856D01*
X106828998Y-77044221D01*
X106777945Y-77132648D01*
X106764410Y-77149620D01*
X106749817Y-77173434D01*
X106683458Y-77251129D01*
X106623662Y-77326112D01*
X106603210Y-77345088D01*
X106581043Y-77371043D01*
X106508041Y-77433392D01*
X106442267Y-77494422D01*
X106414098Y-77513627D01*
X106383434Y-77539817D01*
X106306860Y-77586741D01*
X106237812Y-77633818D01*
X106201508Y-77651301D01*
X106161856Y-77675600D01*
X106084615Y-77707594D01*
X106014872Y-77741181D01*
X105970448Y-77754883D01*
X105921765Y-77775049D01*
X105846463Y-77793127D01*
X105778410Y-77814119D01*
X105726335Y-77821968D01*
X105669072Y-77835716D01*
X105598035Y-77841306D01*
X105533725Y-77851000D01*
X105474866Y-77851000D01*
X105410000Y-77856105D01*
X105345134Y-77851000D01*
X105286275Y-77851000D01*
X105221964Y-77841306D01*
X105150928Y-77835716D01*
X105093666Y-77821968D01*
X105041589Y-77814119D01*
X104973531Y-77793126D01*
X104898235Y-77775049D01*
X104849554Y-77754885D01*
X104805127Y-77741181D01*
X104735379Y-77707592D01*
X104658144Y-77675600D01*
X104618492Y-77651301D01*
X104582188Y-77633818D01*
X104513136Y-77586739D01*
X104436566Y-77539817D01*
X104405905Y-77513630D01*
X104377732Y-77494422D01*
X104311945Y-77433381D01*
X104238957Y-77371043D01*
X104216793Y-77345092D01*
X104196337Y-77326112D01*
X104136526Y-77251111D01*
X104070183Y-77173434D01*
X104055593Y-77149625D01*
X104042054Y-77132648D01*
X103990984Y-77044193D01*
X103934400Y-76951856D01*
X103926089Y-76931793D01*
X103918327Y-76918348D01*
X103878738Y-76817478D01*
X103834951Y-76711765D01*
X103831329Y-76696679D01*
X103827926Y-76688008D01*
X103802444Y-76576367D01*
X103774284Y-76459072D01*
X103773553Y-76449788D01*
X103772861Y-76446755D01*
X103763828Y-76326213D01*
X103753895Y-76200000D01*
X103763827Y-76073796D01*
X103772861Y-75953244D01*
X103773553Y-75950209D01*
X103774284Y-75940928D01*
X103802439Y-75823651D01*
X103827926Y-75711991D01*
X103831329Y-75703318D01*
X103834951Y-75688235D01*
X103878731Y-75582539D01*
X103918327Y-75481651D01*
X103926091Y-75468202D01*
X103934400Y-75448144D01*
X103990974Y-75355822D01*
X104042054Y-75267351D01*
X104055595Y-75250370D01*
X104070183Y-75226566D01*
X104136514Y-75148902D01*
X104196337Y-75073887D01*
X104216797Y-75054902D01*
X104238957Y-75028957D01*
X104311932Y-74966630D01*
X104377732Y-74905577D01*
X104405910Y-74886364D01*
X104436566Y-74860183D01*
X104513122Y-74813269D01*
X104582188Y-74766181D01*
X104618499Y-74748693D01*
X104658144Y-74724400D01*
X104735364Y-74692414D01*
X104805127Y-74658818D01*
X104849564Y-74645111D01*
X104898235Y-74624951D01*
X104973517Y-74606877D01*
X105041589Y-74585880D01*
X105093675Y-74578029D01*
X105150928Y-74564284D01*
X105221960Y-74558693D01*
X105286275Y-74549000D01*
X105345134Y-74549000D01*
X105410000Y-74543895D01*
X105474866Y-74549000D01*
G37*
G36*
X111189866Y-74549000D02*
G01*
X111248725Y-74549000D01*
X111313039Y-74558693D01*
X111384072Y-74564284D01*
X111441326Y-74578029D01*
X111493410Y-74585880D01*
X111561478Y-74606875D01*
X111636765Y-74624951D01*
X111685438Y-74645112D01*
X111729872Y-74658818D01*
X111799630Y-74692411D01*
X111876856Y-74724400D01*
X111916500Y-74748694D01*
X111952812Y-74766181D01*
X112021874Y-74813267D01*
X112098434Y-74860183D01*
X112129092Y-74886367D01*
X112157267Y-74905577D01*
X112223055Y-74966619D01*
X112296043Y-75028957D01*
X112318206Y-75054906D01*
X112338662Y-75073887D01*
X112398470Y-75148884D01*
X112464817Y-75226566D01*
X112479407Y-75250375D01*
X112492945Y-75267351D01*
X112544008Y-75355794D01*
X112600600Y-75448144D01*
X112608911Y-75468208D01*
X112616672Y-75481651D01*
X112656249Y-75582493D01*
X112700049Y-75688235D01*
X112703671Y-75703324D01*
X112707073Y-75711991D01*
X112732539Y-75823567D01*
X112760716Y-75940928D01*
X112761447Y-75950216D01*
X112762138Y-75953244D01*
X112771151Y-76073530D01*
X112781105Y-76200000D01*
X112771151Y-76326479D01*
X112762138Y-76446755D01*
X112761447Y-76449781D01*
X112760716Y-76459072D01*
X112732535Y-76576451D01*
X112707073Y-76688008D01*
X112703672Y-76696672D01*
X112700049Y-76711765D01*
X112656242Y-76817524D01*
X112616672Y-76918348D01*
X112608912Y-76931787D01*
X112600600Y-76951856D01*
X112543998Y-77044221D01*
X112492945Y-77132648D01*
X112479410Y-77149620D01*
X112464817Y-77173434D01*
X112398458Y-77251129D01*
X112338662Y-77326112D01*
X112318210Y-77345088D01*
X112296043Y-77371043D01*
X112223041Y-77433392D01*
X112157267Y-77494422D01*
X112129098Y-77513627D01*
X112098434Y-77539817D01*
X112021860Y-77586741D01*
X111952812Y-77633818D01*
X111916508Y-77651301D01*
X111876856Y-77675600D01*
X111799615Y-77707594D01*
X111729872Y-77741181D01*
X111685448Y-77754883D01*
X111636765Y-77775049D01*
X111561463Y-77793127D01*
X111493410Y-77814119D01*
X111441335Y-77821968D01*
X111384072Y-77835716D01*
X111313035Y-77841306D01*
X111248725Y-77851000D01*
X111189866Y-77851000D01*
X111125000Y-77856105D01*
X111060134Y-77851000D01*
X111001275Y-77851000D01*
X110936964Y-77841306D01*
X110865928Y-77835716D01*
X110808666Y-77821968D01*
X110756589Y-77814119D01*
X110688531Y-77793126D01*
X110613235Y-77775049D01*
X110564554Y-77754885D01*
X110520127Y-77741181D01*
X110450379Y-77707592D01*
X110373144Y-77675600D01*
X110333492Y-77651301D01*
X110297188Y-77633818D01*
X110228136Y-77586739D01*
X110151566Y-77539817D01*
X110120905Y-77513630D01*
X110092732Y-77494422D01*
X110026945Y-77433381D01*
X109953957Y-77371043D01*
X109931793Y-77345092D01*
X109911337Y-77326112D01*
X109851526Y-77251111D01*
X109785183Y-77173434D01*
X109770593Y-77149625D01*
X109757054Y-77132648D01*
X109705984Y-77044193D01*
X109649400Y-76951856D01*
X109641089Y-76931793D01*
X109633327Y-76918348D01*
X109593738Y-76817478D01*
X109549951Y-76711765D01*
X109546329Y-76696679D01*
X109542926Y-76688008D01*
X109517444Y-76576367D01*
X109489284Y-76459072D01*
X109488553Y-76449788D01*
X109487861Y-76446755D01*
X109478828Y-76326213D01*
X109468895Y-76200000D01*
X109478827Y-76073796D01*
X109487861Y-75953244D01*
X109488553Y-75950209D01*
X109489284Y-75940928D01*
X109517439Y-75823651D01*
X109542926Y-75711991D01*
X109546329Y-75703318D01*
X109549951Y-75688235D01*
X109593731Y-75582539D01*
X109633327Y-75481651D01*
X109641091Y-75468202D01*
X109649400Y-75448144D01*
X109705974Y-75355822D01*
X109757054Y-75267351D01*
X109770595Y-75250370D01*
X109785183Y-75226566D01*
X109851514Y-75148902D01*
X109911337Y-75073887D01*
X109931797Y-75054902D01*
X109953957Y-75028957D01*
X110026932Y-74966630D01*
X110092732Y-74905577D01*
X110120910Y-74886364D01*
X110151566Y-74860183D01*
X110228122Y-74813269D01*
X110297188Y-74766181D01*
X110333499Y-74748693D01*
X110373144Y-74724400D01*
X110450364Y-74692414D01*
X110520127Y-74658818D01*
X110564564Y-74645111D01*
X110613235Y-74624951D01*
X110688517Y-74606877D01*
X110756589Y-74585880D01*
X110808675Y-74578029D01*
X110865928Y-74564284D01*
X110936960Y-74558693D01*
X111001275Y-74549000D01*
X111060134Y-74549000D01*
X111125000Y-74543895D01*
X111189866Y-74549000D01*
G37*
G36*
X95599899Y-74551959D02*
G01*
X95616769Y-74563231D01*
X95628041Y-74580101D01*
X95630999Y-74594978D01*
X95631000Y-77805023D01*
X95628041Y-77819899D01*
X95616769Y-77836769D01*
X95599899Y-77848041D01*
X95585022Y-77850999D01*
X92374977Y-77851000D01*
X92360101Y-77848041D01*
X92343231Y-77836769D01*
X92331959Y-77819899D01*
X92329001Y-77805023D01*
X92329000Y-77805020D01*
X92329000Y-74594977D01*
X92331959Y-74580100D01*
X92343231Y-74563231D01*
X92360098Y-74551960D01*
X92360100Y-74551959D01*
X92360101Y-74551959D01*
X92365082Y-74550968D01*
X92374979Y-74549000D01*
X95585022Y-74549000D01*
X95585023Y-74549000D01*
X95599899Y-74551959D01*
G37*
G36*
X101314899Y-74551959D02*
G01*
X101331769Y-74563231D01*
X101343041Y-74580101D01*
X101345999Y-74594978D01*
X101346000Y-77805023D01*
X101343041Y-77819899D01*
X101331769Y-77836769D01*
X101314899Y-77848041D01*
X101300022Y-77850999D01*
X98089977Y-77851000D01*
X98075101Y-77848041D01*
X98058231Y-77836769D01*
X98046959Y-77819899D01*
X98044001Y-77805023D01*
X98044000Y-77805020D01*
X98044000Y-74594977D01*
X98046959Y-74580100D01*
X98058231Y-74563231D01*
X98075098Y-74551960D01*
X98075100Y-74551959D01*
X98075101Y-74551959D01*
X98080082Y-74550968D01*
X98089979Y-74549000D01*
X101300022Y-74549000D01*
X101300023Y-74549000D01*
X101314899Y-74551959D01*
G37*
G36*
X157018714Y-74741000D02*
G01*
X157060121Y-74741000D01*
X157106236Y-74749620D01*
X157158429Y-74754761D01*
X157198077Y-74766788D01*
X157233373Y-74773386D01*
X157282259Y-74792324D01*
X157337693Y-74809140D01*
X157369363Y-74826068D01*
X157397711Y-74837050D01*
X157446971Y-74867551D01*
X157502903Y-74897447D01*
X157526402Y-74916732D01*
X157547559Y-74929832D01*
X157594435Y-74972565D01*
X157647712Y-75016288D01*
X157663499Y-75035525D01*
X157677809Y-75048570D01*
X157719344Y-75103573D01*
X157766553Y-75161097D01*
X157775684Y-75178179D01*
X157784021Y-75189220D01*
X157817190Y-75255833D01*
X157854860Y-75326307D01*
X157858877Y-75339549D01*
X157862580Y-75346986D01*
X157884455Y-75423871D01*
X157909239Y-75505571D01*
X157910053Y-75513836D01*
X157910812Y-75516504D01*
X157918698Y-75601608D01*
X157927601Y-75692000D01*
X157918697Y-75782399D01*
X157910812Y-75867495D01*
X157910053Y-75870161D01*
X157909239Y-75878429D01*
X157884451Y-75960143D01*
X157862580Y-76037013D01*
X157858877Y-76044447D01*
X157854860Y-76057693D01*
X157817183Y-76128180D01*
X157784021Y-76194779D01*
X157775685Y-76205816D01*
X157766553Y-76222903D01*
X157719335Y-76280438D01*
X157677809Y-76335429D01*
X157663502Y-76348470D01*
X157647712Y-76367712D01*
X157594424Y-76411443D01*
X157547559Y-76454167D01*
X157526407Y-76467263D01*
X157502903Y-76486553D01*
X157446959Y-76516455D01*
X157397711Y-76546949D01*
X157369370Y-76557928D01*
X157337693Y-76574860D01*
X157282247Y-76591679D01*
X157233373Y-76610613D01*
X157198084Y-76617209D01*
X157158429Y-76629239D01*
X157106233Y-76634379D01*
X157060121Y-76643000D01*
X157018714Y-76643000D01*
X156972000Y-76647601D01*
X156925286Y-76643000D01*
X156883879Y-76643000D01*
X156837765Y-76634379D01*
X156785571Y-76629239D01*
X156745916Y-76617210D01*
X156710626Y-76610613D01*
X156661747Y-76591677D01*
X156606307Y-76574860D01*
X156574632Y-76557929D01*
X156546288Y-76546949D01*
X156497032Y-76516451D01*
X156441097Y-76486553D01*
X156417595Y-76467265D01*
X156396440Y-76454167D01*
X156349565Y-76411435D01*
X156296288Y-76367712D01*
X156280500Y-76348474D01*
X156266190Y-76335429D01*
X156224651Y-76280422D01*
X156177447Y-76222903D01*
X156168316Y-76205821D01*
X156159978Y-76194779D01*
X156126801Y-76128152D01*
X156089140Y-76057693D01*
X156085123Y-76044452D01*
X156081419Y-76037013D01*
X156059532Y-75960090D01*
X156034761Y-75878429D01*
X156033947Y-75870166D01*
X156033187Y-75867495D01*
X156025285Y-75782228D01*
X156016399Y-75692000D01*
X156025285Y-75601779D01*
X156033187Y-75516504D01*
X156033947Y-75513831D01*
X156034761Y-75505571D01*
X156059527Y-75423924D01*
X156081419Y-75346986D01*
X156085124Y-75339544D01*
X156089140Y-75326307D01*
X156126794Y-75255860D01*
X156159978Y-75189220D01*
X156168318Y-75178175D01*
X156177447Y-75161097D01*
X156224642Y-75103588D01*
X156266190Y-75048570D01*
X156280503Y-75035521D01*
X156296288Y-75016288D01*
X156349554Y-74972573D01*
X156396440Y-74929832D01*
X156417600Y-74916729D01*
X156441097Y-74897447D01*
X156497020Y-74867554D01*
X156546288Y-74837050D01*
X156574639Y-74826066D01*
X156606307Y-74809140D01*
X156661735Y-74792325D01*
X156710626Y-74773386D01*
X156745923Y-74766787D01*
X156785571Y-74754761D01*
X156837762Y-74749620D01*
X156883879Y-74741000D01*
X156925286Y-74741000D01*
X156972000Y-74736399D01*
X157018714Y-74741000D01*
G37*
G36*
X105783106Y-60104920D02*
G01*
X105798756Y-60111830D01*
X105807171Y-60113163D01*
X105842220Y-60131021D01*
X105886052Y-60150375D01*
X105965625Y-60229948D01*
X105984981Y-60273786D01*
X106002836Y-60308828D01*
X106004168Y-60317240D01*
X106011080Y-60332894D01*
X106014000Y-60358062D01*
X106014000Y-63847938D01*
X106011080Y-63873106D01*
X106004168Y-63888760D01*
X106002836Y-63897171D01*
X105984984Y-63932206D01*
X105965625Y-63976052D01*
X105886052Y-64055625D01*
X105842206Y-64074984D01*
X105807171Y-64092836D01*
X105798759Y-64094168D01*
X105783106Y-64101080D01*
X105757938Y-64104000D01*
X102268062Y-64104000D01*
X102242894Y-64101080D01*
X102227240Y-64094168D01*
X102218828Y-64092836D01*
X102183786Y-64074981D01*
X102139948Y-64055625D01*
X102060375Y-63976052D01*
X102041021Y-63932220D01*
X102023163Y-63897171D01*
X102021830Y-63888756D01*
X102014920Y-63873106D01*
X102012000Y-63847938D01*
X102012000Y-60358062D01*
X102014920Y-60332894D01*
X102021830Y-60317244D01*
X102023163Y-60308828D01*
X102041025Y-60273771D01*
X102060375Y-60229948D01*
X102139948Y-60150375D01*
X102183771Y-60131025D01*
X102218828Y-60113163D01*
X102227244Y-60111830D01*
X102242894Y-60104920D01*
X102268062Y-60102000D01*
X105757938Y-60102000D01*
X105783106Y-60104920D01*
G37*
G36*
X113784106Y-60104920D02*
G01*
X113799756Y-60111830D01*
X113808171Y-60113163D01*
X113843220Y-60131021D01*
X113887052Y-60150375D01*
X113966625Y-60229948D01*
X113985981Y-60273786D01*
X114003836Y-60308828D01*
X114005168Y-60317240D01*
X114012080Y-60332894D01*
X114015000Y-60358062D01*
X114015000Y-63847938D01*
X114012080Y-63873106D01*
X114005168Y-63888760D01*
X114003836Y-63897171D01*
X113985984Y-63932206D01*
X113966625Y-63976052D01*
X113887052Y-64055625D01*
X113843206Y-64074984D01*
X113808171Y-64092836D01*
X113799759Y-64094168D01*
X113784106Y-64101080D01*
X113758938Y-64104000D01*
X110269062Y-64104000D01*
X110243894Y-64101080D01*
X110228240Y-64094168D01*
X110219828Y-64092836D01*
X110184786Y-64074981D01*
X110140948Y-64055625D01*
X110061375Y-63976052D01*
X110042021Y-63932220D01*
X110024163Y-63897171D01*
X110022830Y-63888756D01*
X110015920Y-63873106D01*
X110013000Y-63847938D01*
X110013000Y-60358062D01*
X110015920Y-60332894D01*
X110022830Y-60317244D01*
X110024163Y-60308828D01*
X110042025Y-60273771D01*
X110061375Y-60229948D01*
X110140948Y-60150375D01*
X110184771Y-60131025D01*
X110219828Y-60113163D01*
X110228244Y-60111830D01*
X110243894Y-60104920D01*
X110269062Y-60102000D01*
X113758938Y-60102000D01*
X113784106Y-60104920D01*
G37*
G36*
X143756106Y-60104920D02*
G01*
X143771756Y-60111830D01*
X143780171Y-60113163D01*
X143815220Y-60131021D01*
X143859052Y-60150375D01*
X143938625Y-60229948D01*
X143957981Y-60273786D01*
X143975836Y-60308828D01*
X143977168Y-60317240D01*
X143984080Y-60332894D01*
X143987000Y-60358062D01*
X143987000Y-63847938D01*
X143984080Y-63873106D01*
X143977168Y-63888760D01*
X143975836Y-63897171D01*
X143957984Y-63932206D01*
X143938625Y-63976052D01*
X143859052Y-64055625D01*
X143815206Y-64074984D01*
X143780171Y-64092836D01*
X143771759Y-64094168D01*
X143756106Y-64101080D01*
X143730938Y-64104000D01*
X140241062Y-64104000D01*
X140215894Y-64101080D01*
X140200240Y-64094168D01*
X140191828Y-64092836D01*
X140156786Y-64074981D01*
X140112948Y-64055625D01*
X140033375Y-63976052D01*
X140014021Y-63932220D01*
X139996163Y-63897171D01*
X139994830Y-63888756D01*
X139987920Y-63873106D01*
X139985000Y-63847938D01*
X139985000Y-60358062D01*
X139987920Y-60332894D01*
X139994830Y-60317244D01*
X139996163Y-60308828D01*
X140014025Y-60273771D01*
X140033375Y-60229948D01*
X140112948Y-60150375D01*
X140156771Y-60131025D01*
X140191828Y-60113163D01*
X140200244Y-60111830D01*
X140215894Y-60104920D01*
X140241062Y-60102000D01*
X143730938Y-60102000D01*
X143756106Y-60104920D01*
G37*
G36*
X151757106Y-60104920D02*
G01*
X151772756Y-60111830D01*
X151781171Y-60113163D01*
X151816220Y-60131021D01*
X151860052Y-60150375D01*
X151939625Y-60229948D01*
X151958981Y-60273786D01*
X151976836Y-60308828D01*
X151978168Y-60317240D01*
X151985080Y-60332894D01*
X151988000Y-60358062D01*
X151988000Y-63847938D01*
X151985080Y-63873106D01*
X151978168Y-63888760D01*
X151976836Y-63897171D01*
X151958984Y-63932206D01*
X151939625Y-63976052D01*
X151860052Y-64055625D01*
X151816206Y-64074984D01*
X151781171Y-64092836D01*
X151772759Y-64094168D01*
X151757106Y-64101080D01*
X151731938Y-64104000D01*
X148242062Y-64104000D01*
X148216894Y-64101080D01*
X148201240Y-64094168D01*
X148192828Y-64092836D01*
X148157786Y-64074981D01*
X148113948Y-64055625D01*
X148034375Y-63976052D01*
X148015021Y-63932220D01*
X147997163Y-63897171D01*
X147995830Y-63888756D01*
X147988920Y-63873106D01*
X147986000Y-63847938D01*
X147986000Y-60358062D01*
X147988920Y-60332894D01*
X147995830Y-60317244D01*
X147997163Y-60308828D01*
X148015025Y-60273771D01*
X148034375Y-60229948D01*
X148113948Y-60150375D01*
X148157771Y-60131025D01*
X148192828Y-60113163D01*
X148201244Y-60111830D01*
X148216894Y-60104920D01*
X148242062Y-60102000D01*
X151731938Y-60102000D01*
X151757106Y-60104920D01*
G37*
M02*
