G04 #@! TF.GenerationSoftware,KiCad,Pcbnew,8.0.6*
G04 #@! TF.CreationDate,2026-03-15T19:48:56+02:00*
G04 #@! TF.ProjectId,c64-wedge-psu-pcb,6336342d-7765-4646-9765-2d7073752d70,rev?*
G04 #@! TF.SameCoordinates,Original*
G04 #@! TF.FileFunction,Legend,Top*
G04 #@! TF.FilePolarity,Positive*
%FSLAX46Y46*%
G04 Gerber Fmt 4.6, Leading zero omitted, Abs format (unit mm)*
G04 Created by KiCad (PCBNEW 8.0.6) date 2026-03-15 19:48:56*
%MOMM*%
%LPD*%
G01*
G04 APERTURE LIST*
%ADD10C,0.150000*%
%ADD11C,0.300000*%
%ADD12C,0.125000*%
%ADD13C,0.120000*%
G04 APERTURE END LIST*
D10*
X149238095Y-65502438D02*
X149142857Y-65454819D01*
X149142857Y-65454819D02*
X149000000Y-65454819D01*
X149000000Y-65454819D02*
X148857143Y-65502438D01*
X148857143Y-65502438D02*
X148761905Y-65597676D01*
X148761905Y-65597676D02*
X148714286Y-65692914D01*
X148714286Y-65692914D02*
X148666667Y-65883390D01*
X148666667Y-65883390D02*
X148666667Y-66026247D01*
X148666667Y-66026247D02*
X148714286Y-66216723D01*
X148714286Y-66216723D02*
X148761905Y-66311961D01*
X148761905Y-66311961D02*
X148857143Y-66407200D01*
X148857143Y-66407200D02*
X149000000Y-66454819D01*
X149000000Y-66454819D02*
X149095238Y-66454819D01*
X149095238Y-66454819D02*
X149238095Y-66407200D01*
X149238095Y-66407200D02*
X149285714Y-66359580D01*
X149285714Y-66359580D02*
X149285714Y-66026247D01*
X149285714Y-66026247D02*
X149095238Y-66026247D01*
X149714286Y-66454819D02*
X149714286Y-65454819D01*
X149714286Y-65454819D02*
X150285714Y-66454819D01*
X150285714Y-66454819D02*
X150285714Y-65454819D01*
X150761905Y-66454819D02*
X150761905Y-65454819D01*
X150761905Y-65454819D02*
X151000000Y-65454819D01*
X151000000Y-65454819D02*
X151142857Y-65502438D01*
X151142857Y-65502438D02*
X151238095Y-65597676D01*
X151238095Y-65597676D02*
X151285714Y-65692914D01*
X151285714Y-65692914D02*
X151333333Y-65883390D01*
X151333333Y-65883390D02*
X151333333Y-66026247D01*
X151333333Y-66026247D02*
X151285714Y-66216723D01*
X151285714Y-66216723D02*
X151238095Y-66311961D01*
X151238095Y-66311961D02*
X151142857Y-66407200D01*
X151142857Y-66407200D02*
X151000000Y-66454819D01*
X151000000Y-66454819D02*
X150761905Y-66454819D01*
X91341541Y-110662295D02*
X91493922Y-110662295D01*
X91493922Y-110662295D02*
X91570112Y-110700390D01*
X91570112Y-110700390D02*
X91646303Y-110776580D01*
X91646303Y-110776580D02*
X91684398Y-110928961D01*
X91684398Y-110928961D02*
X91684398Y-111195628D01*
X91684398Y-111195628D02*
X91646303Y-111348009D01*
X91646303Y-111348009D02*
X91570112Y-111424200D01*
X91570112Y-111424200D02*
X91493922Y-111462295D01*
X91493922Y-111462295D02*
X91341541Y-111462295D01*
X91341541Y-111462295D02*
X91265350Y-111424200D01*
X91265350Y-111424200D02*
X91189160Y-111348009D01*
X91189160Y-111348009D02*
X91151064Y-111195628D01*
X91151064Y-111195628D02*
X91151064Y-110928961D01*
X91151064Y-110928961D02*
X91189160Y-110776580D01*
X91189160Y-110776580D02*
X91265350Y-110700390D01*
X91265350Y-110700390D02*
X91341541Y-110662295D01*
X92370112Y-110928961D02*
X92370112Y-111462295D01*
X92027255Y-110928961D02*
X92027255Y-111348009D01*
X92027255Y-111348009D02*
X92065350Y-111424200D01*
X92065350Y-111424200D02*
X92141540Y-111462295D01*
X92141540Y-111462295D02*
X92255826Y-111462295D01*
X92255826Y-111462295D02*
X92332017Y-111424200D01*
X92332017Y-111424200D02*
X92370112Y-111386104D01*
X92636779Y-110928961D02*
X92941541Y-110928961D01*
X92751065Y-110662295D02*
X92751065Y-111348009D01*
X92751065Y-111348009D02*
X92789160Y-111424200D01*
X92789160Y-111424200D02*
X92865350Y-111462295D01*
X92865350Y-111462295D02*
X92941541Y-111462295D01*
X93208208Y-110928961D02*
X93208208Y-111728961D01*
X93208208Y-110967057D02*
X93284398Y-110928961D01*
X93284398Y-110928961D02*
X93436779Y-110928961D01*
X93436779Y-110928961D02*
X93512970Y-110967057D01*
X93512970Y-110967057D02*
X93551065Y-111005152D01*
X93551065Y-111005152D02*
X93589160Y-111081342D01*
X93589160Y-111081342D02*
X93589160Y-111309914D01*
X93589160Y-111309914D02*
X93551065Y-111386104D01*
X93551065Y-111386104D02*
X93512970Y-111424200D01*
X93512970Y-111424200D02*
X93436779Y-111462295D01*
X93436779Y-111462295D02*
X93284398Y-111462295D01*
X93284398Y-111462295D02*
X93208208Y-111424200D01*
X94274875Y-110928961D02*
X94274875Y-111462295D01*
X93932018Y-110928961D02*
X93932018Y-111348009D01*
X93932018Y-111348009D02*
X93970113Y-111424200D01*
X93970113Y-111424200D02*
X94046303Y-111462295D01*
X94046303Y-111462295D02*
X94160589Y-111462295D01*
X94160589Y-111462295D02*
X94236780Y-111424200D01*
X94236780Y-111424200D02*
X94274875Y-111386104D01*
X94541542Y-110928961D02*
X94846304Y-110928961D01*
X94655828Y-110662295D02*
X94655828Y-111348009D01*
X94655828Y-111348009D02*
X94693923Y-111424200D01*
X94693923Y-111424200D02*
X94770113Y-111462295D01*
X94770113Y-111462295D02*
X94846304Y-111462295D01*
X95112971Y-111386104D02*
X95151066Y-111424200D01*
X95151066Y-111424200D02*
X95112971Y-111462295D01*
X95112971Y-111462295D02*
X95074875Y-111424200D01*
X95074875Y-111424200D02*
X95112971Y-111386104D01*
X95112971Y-111386104D02*
X95112971Y-111462295D01*
X95112971Y-110967057D02*
X95151066Y-111005152D01*
X95151066Y-111005152D02*
X95112971Y-111043247D01*
X95112971Y-111043247D02*
X95074875Y-111005152D01*
X95074875Y-111005152D02*
X95112971Y-110967057D01*
X95112971Y-110967057D02*
X95112971Y-111043247D01*
X96484399Y-110662295D02*
X96103447Y-110662295D01*
X96103447Y-110662295D02*
X96065351Y-111043247D01*
X96065351Y-111043247D02*
X96103447Y-111005152D01*
X96103447Y-111005152D02*
X96179637Y-110967057D01*
X96179637Y-110967057D02*
X96370113Y-110967057D01*
X96370113Y-110967057D02*
X96446304Y-111005152D01*
X96446304Y-111005152D02*
X96484399Y-111043247D01*
X96484399Y-111043247D02*
X96522494Y-111119438D01*
X96522494Y-111119438D02*
X96522494Y-111309914D01*
X96522494Y-111309914D02*
X96484399Y-111386104D01*
X96484399Y-111386104D02*
X96446304Y-111424200D01*
X96446304Y-111424200D02*
X96370113Y-111462295D01*
X96370113Y-111462295D02*
X96179637Y-111462295D01*
X96179637Y-111462295D02*
X96103447Y-111424200D01*
X96103447Y-111424200D02*
X96065351Y-111386104D01*
X96751066Y-110662295D02*
X97017733Y-111462295D01*
X97017733Y-111462295D02*
X97284399Y-110662295D01*
X98160590Y-111462295D02*
X98160590Y-110662295D01*
X98160590Y-110662295D02*
X98427256Y-111233723D01*
X98427256Y-111233723D02*
X98693923Y-110662295D01*
X98693923Y-110662295D02*
X98693923Y-111462295D01*
X99417733Y-111462295D02*
X99417733Y-111043247D01*
X99417733Y-111043247D02*
X99379638Y-110967057D01*
X99379638Y-110967057D02*
X99303447Y-110928961D01*
X99303447Y-110928961D02*
X99151066Y-110928961D01*
X99151066Y-110928961D02*
X99074876Y-110967057D01*
X99417733Y-111424200D02*
X99341542Y-111462295D01*
X99341542Y-111462295D02*
X99151066Y-111462295D01*
X99151066Y-111462295D02*
X99074876Y-111424200D01*
X99074876Y-111424200D02*
X99036780Y-111348009D01*
X99036780Y-111348009D02*
X99036780Y-111271819D01*
X99036780Y-111271819D02*
X99074876Y-111195628D01*
X99074876Y-111195628D02*
X99151066Y-111157533D01*
X99151066Y-111157533D02*
X99341542Y-111157533D01*
X99341542Y-111157533D02*
X99417733Y-111119438D01*
X99722495Y-111462295D02*
X100141543Y-110928961D01*
X99722495Y-110928961D02*
X100141543Y-111462295D01*
X100979638Y-110662295D02*
X101474876Y-110662295D01*
X101474876Y-110662295D02*
X101208210Y-110967057D01*
X101208210Y-110967057D02*
X101322495Y-110967057D01*
X101322495Y-110967057D02*
X101398686Y-111005152D01*
X101398686Y-111005152D02*
X101436781Y-111043247D01*
X101436781Y-111043247D02*
X101474876Y-111119438D01*
X101474876Y-111119438D02*
X101474876Y-111309914D01*
X101474876Y-111309914D02*
X101436781Y-111386104D01*
X101436781Y-111386104D02*
X101398686Y-111424200D01*
X101398686Y-111424200D02*
X101322495Y-111462295D01*
X101322495Y-111462295D02*
X101093924Y-111462295D01*
X101093924Y-111462295D02*
X101017733Y-111424200D01*
X101017733Y-111424200D02*
X100979638Y-111386104D01*
X101779638Y-111233723D02*
X102160591Y-111233723D01*
X101703448Y-111462295D02*
X101970115Y-110662295D01*
X101970115Y-110662295D02*
X102236781Y-111462295D01*
X120719047Y-112954819D02*
X120719047Y-111954819D01*
X121147618Y-112954819D02*
X121147618Y-112431009D01*
X121147618Y-112431009D02*
X121099999Y-112335771D01*
X121099999Y-112335771D02*
X121004761Y-112288152D01*
X121004761Y-112288152D02*
X120861904Y-112288152D01*
X120861904Y-112288152D02*
X120766666Y-112335771D01*
X120766666Y-112335771D02*
X120719047Y-112383390D01*
X121480952Y-112288152D02*
X121861904Y-112288152D01*
X121623809Y-111954819D02*
X121623809Y-112811961D01*
X121623809Y-112811961D02*
X121671428Y-112907200D01*
X121671428Y-112907200D02*
X121766666Y-112954819D01*
X121766666Y-112954819D02*
X121861904Y-112954819D01*
X122052381Y-112288152D02*
X122433333Y-112288152D01*
X122195238Y-111954819D02*
X122195238Y-112811961D01*
X122195238Y-112811961D02*
X122242857Y-112907200D01*
X122242857Y-112907200D02*
X122338095Y-112954819D01*
X122338095Y-112954819D02*
X122433333Y-112954819D01*
X122766667Y-112288152D02*
X122766667Y-113288152D01*
X122766667Y-112335771D02*
X122861905Y-112288152D01*
X122861905Y-112288152D02*
X123052381Y-112288152D01*
X123052381Y-112288152D02*
X123147619Y-112335771D01*
X123147619Y-112335771D02*
X123195238Y-112383390D01*
X123195238Y-112383390D02*
X123242857Y-112478628D01*
X123242857Y-112478628D02*
X123242857Y-112764342D01*
X123242857Y-112764342D02*
X123195238Y-112859580D01*
X123195238Y-112859580D02*
X123147619Y-112907200D01*
X123147619Y-112907200D02*
X123052381Y-112954819D01*
X123052381Y-112954819D02*
X122861905Y-112954819D01*
X122861905Y-112954819D02*
X122766667Y-112907200D01*
X123623810Y-112907200D02*
X123719048Y-112954819D01*
X123719048Y-112954819D02*
X123909524Y-112954819D01*
X123909524Y-112954819D02*
X124004762Y-112907200D01*
X124004762Y-112907200D02*
X124052381Y-112811961D01*
X124052381Y-112811961D02*
X124052381Y-112764342D01*
X124052381Y-112764342D02*
X124004762Y-112669104D01*
X124004762Y-112669104D02*
X123909524Y-112621485D01*
X123909524Y-112621485D02*
X123766667Y-112621485D01*
X123766667Y-112621485D02*
X123671429Y-112573866D01*
X123671429Y-112573866D02*
X123623810Y-112478628D01*
X123623810Y-112478628D02*
X123623810Y-112431009D01*
X123623810Y-112431009D02*
X123671429Y-112335771D01*
X123671429Y-112335771D02*
X123766667Y-112288152D01*
X123766667Y-112288152D02*
X123909524Y-112288152D01*
X123909524Y-112288152D02*
X124004762Y-112335771D01*
X124480953Y-112859580D02*
X124528572Y-112907200D01*
X124528572Y-112907200D02*
X124480953Y-112954819D01*
X124480953Y-112954819D02*
X124433334Y-112907200D01*
X124433334Y-112907200D02*
X124480953Y-112859580D01*
X124480953Y-112859580D02*
X124480953Y-112954819D01*
X124480953Y-112335771D02*
X124528572Y-112383390D01*
X124528572Y-112383390D02*
X124480953Y-112431009D01*
X124480953Y-112431009D02*
X124433334Y-112383390D01*
X124433334Y-112383390D02*
X124480953Y-112335771D01*
X124480953Y-112335771D02*
X124480953Y-112431009D01*
X125671428Y-111907200D02*
X124814286Y-113192914D01*
X126719047Y-111907200D02*
X125861905Y-113192914D01*
X127480952Y-112288152D02*
X127480952Y-113097676D01*
X127480952Y-113097676D02*
X127433333Y-113192914D01*
X127433333Y-113192914D02*
X127385714Y-113240533D01*
X127385714Y-113240533D02*
X127290476Y-113288152D01*
X127290476Y-113288152D02*
X127147619Y-113288152D01*
X127147619Y-113288152D02*
X127052381Y-113240533D01*
X127480952Y-112907200D02*
X127385714Y-112954819D01*
X127385714Y-112954819D02*
X127195238Y-112954819D01*
X127195238Y-112954819D02*
X127100000Y-112907200D01*
X127100000Y-112907200D02*
X127052381Y-112859580D01*
X127052381Y-112859580D02*
X127004762Y-112764342D01*
X127004762Y-112764342D02*
X127004762Y-112478628D01*
X127004762Y-112478628D02*
X127052381Y-112383390D01*
X127052381Y-112383390D02*
X127100000Y-112335771D01*
X127100000Y-112335771D02*
X127195238Y-112288152D01*
X127195238Y-112288152D02*
X127385714Y-112288152D01*
X127385714Y-112288152D02*
X127480952Y-112335771D01*
X127957143Y-112954819D02*
X127957143Y-112288152D01*
X127957143Y-111954819D02*
X127909524Y-112002438D01*
X127909524Y-112002438D02*
X127957143Y-112050057D01*
X127957143Y-112050057D02*
X128004762Y-112002438D01*
X128004762Y-112002438D02*
X127957143Y-111954819D01*
X127957143Y-111954819D02*
X127957143Y-112050057D01*
X128290476Y-112288152D02*
X128671428Y-112288152D01*
X128433333Y-111954819D02*
X128433333Y-112811961D01*
X128433333Y-112811961D02*
X128480952Y-112907200D01*
X128480952Y-112907200D02*
X128576190Y-112954819D01*
X128576190Y-112954819D02*
X128671428Y-112954819D01*
X129004762Y-112954819D02*
X129004762Y-111954819D01*
X129433333Y-112954819D02*
X129433333Y-112431009D01*
X129433333Y-112431009D02*
X129385714Y-112335771D01*
X129385714Y-112335771D02*
X129290476Y-112288152D01*
X129290476Y-112288152D02*
X129147619Y-112288152D01*
X129147619Y-112288152D02*
X129052381Y-112335771D01*
X129052381Y-112335771D02*
X129004762Y-112383390D01*
X130338095Y-112288152D02*
X130338095Y-112954819D01*
X129909524Y-112288152D02*
X129909524Y-112811961D01*
X129909524Y-112811961D02*
X129957143Y-112907200D01*
X129957143Y-112907200D02*
X130052381Y-112954819D01*
X130052381Y-112954819D02*
X130195238Y-112954819D01*
X130195238Y-112954819D02*
X130290476Y-112907200D01*
X130290476Y-112907200D02*
X130338095Y-112859580D01*
X130814286Y-112954819D02*
X130814286Y-111954819D01*
X130814286Y-112335771D02*
X130909524Y-112288152D01*
X130909524Y-112288152D02*
X131100000Y-112288152D01*
X131100000Y-112288152D02*
X131195238Y-112335771D01*
X131195238Y-112335771D02*
X131242857Y-112383390D01*
X131242857Y-112383390D02*
X131290476Y-112478628D01*
X131290476Y-112478628D02*
X131290476Y-112764342D01*
X131290476Y-112764342D02*
X131242857Y-112859580D01*
X131242857Y-112859580D02*
X131195238Y-112907200D01*
X131195238Y-112907200D02*
X131100000Y-112954819D01*
X131100000Y-112954819D02*
X130909524Y-112954819D01*
X130909524Y-112954819D02*
X130814286Y-112907200D01*
X131719048Y-112859580D02*
X131766667Y-112907200D01*
X131766667Y-112907200D02*
X131719048Y-112954819D01*
X131719048Y-112954819D02*
X131671429Y-112907200D01*
X131671429Y-112907200D02*
X131719048Y-112859580D01*
X131719048Y-112859580D02*
X131719048Y-112954819D01*
X132623809Y-112907200D02*
X132528571Y-112954819D01*
X132528571Y-112954819D02*
X132338095Y-112954819D01*
X132338095Y-112954819D02*
X132242857Y-112907200D01*
X132242857Y-112907200D02*
X132195238Y-112859580D01*
X132195238Y-112859580D02*
X132147619Y-112764342D01*
X132147619Y-112764342D02*
X132147619Y-112478628D01*
X132147619Y-112478628D02*
X132195238Y-112383390D01*
X132195238Y-112383390D02*
X132242857Y-112335771D01*
X132242857Y-112335771D02*
X132338095Y-112288152D01*
X132338095Y-112288152D02*
X132528571Y-112288152D01*
X132528571Y-112288152D02*
X132623809Y-112335771D01*
X133195238Y-112954819D02*
X133100000Y-112907200D01*
X133100000Y-112907200D02*
X133052381Y-112859580D01*
X133052381Y-112859580D02*
X133004762Y-112764342D01*
X133004762Y-112764342D02*
X133004762Y-112478628D01*
X133004762Y-112478628D02*
X133052381Y-112383390D01*
X133052381Y-112383390D02*
X133100000Y-112335771D01*
X133100000Y-112335771D02*
X133195238Y-112288152D01*
X133195238Y-112288152D02*
X133338095Y-112288152D01*
X133338095Y-112288152D02*
X133433333Y-112335771D01*
X133433333Y-112335771D02*
X133480952Y-112383390D01*
X133480952Y-112383390D02*
X133528571Y-112478628D01*
X133528571Y-112478628D02*
X133528571Y-112764342D01*
X133528571Y-112764342D02*
X133480952Y-112859580D01*
X133480952Y-112859580D02*
X133433333Y-112907200D01*
X133433333Y-112907200D02*
X133338095Y-112954819D01*
X133338095Y-112954819D02*
X133195238Y-112954819D01*
X133957143Y-112954819D02*
X133957143Y-112288152D01*
X133957143Y-112383390D02*
X134004762Y-112335771D01*
X134004762Y-112335771D02*
X134100000Y-112288152D01*
X134100000Y-112288152D02*
X134242857Y-112288152D01*
X134242857Y-112288152D02*
X134338095Y-112335771D01*
X134338095Y-112335771D02*
X134385714Y-112431009D01*
X134385714Y-112431009D02*
X134385714Y-112954819D01*
X134385714Y-112431009D02*
X134433333Y-112335771D01*
X134433333Y-112335771D02*
X134528571Y-112288152D01*
X134528571Y-112288152D02*
X134671428Y-112288152D01*
X134671428Y-112288152D02*
X134766667Y-112335771D01*
X134766667Y-112335771D02*
X134814286Y-112431009D01*
X134814286Y-112431009D02*
X134814286Y-112954819D01*
X136004761Y-111907200D02*
X135147619Y-113192914D01*
X136195238Y-112288152D02*
X136576190Y-112288152D01*
X136338095Y-111954819D02*
X136338095Y-112811961D01*
X136338095Y-112811961D02*
X136385714Y-112907200D01*
X136385714Y-112907200D02*
X136480952Y-112954819D01*
X136480952Y-112954819D02*
X136576190Y-112954819D01*
X136909524Y-112954819D02*
X136909524Y-112288152D01*
X136909524Y-111954819D02*
X136861905Y-112002438D01*
X136861905Y-112002438D02*
X136909524Y-112050057D01*
X136909524Y-112050057D02*
X136957143Y-112002438D01*
X136957143Y-112002438D02*
X136909524Y-111954819D01*
X136909524Y-111954819D02*
X136909524Y-112050057D01*
X137385714Y-112954819D02*
X137385714Y-112288152D01*
X137385714Y-112383390D02*
X137433333Y-112335771D01*
X137433333Y-112335771D02*
X137528571Y-112288152D01*
X137528571Y-112288152D02*
X137671428Y-112288152D01*
X137671428Y-112288152D02*
X137766666Y-112335771D01*
X137766666Y-112335771D02*
X137814285Y-112431009D01*
X137814285Y-112431009D02*
X137814285Y-112954819D01*
X137814285Y-112431009D02*
X137861904Y-112335771D01*
X137861904Y-112335771D02*
X137957142Y-112288152D01*
X137957142Y-112288152D02*
X138099999Y-112288152D01*
X138099999Y-112288152D02*
X138195238Y-112335771D01*
X138195238Y-112335771D02*
X138242857Y-112431009D01*
X138242857Y-112431009D02*
X138242857Y-112954819D01*
X138719047Y-112288152D02*
X138719047Y-113288152D01*
X138719047Y-112335771D02*
X138814285Y-112288152D01*
X138814285Y-112288152D02*
X139004761Y-112288152D01*
X139004761Y-112288152D02*
X139099999Y-112335771D01*
X139099999Y-112335771D02*
X139147618Y-112383390D01*
X139147618Y-112383390D02*
X139195237Y-112478628D01*
X139195237Y-112478628D02*
X139195237Y-112764342D01*
X139195237Y-112764342D02*
X139147618Y-112859580D01*
X139147618Y-112859580D02*
X139099999Y-112907200D01*
X139099999Y-112907200D02*
X139004761Y-112954819D01*
X139004761Y-112954819D02*
X138814285Y-112954819D01*
X138814285Y-112954819D02*
X138719047Y-112907200D01*
X140004761Y-112907200D02*
X139909523Y-112954819D01*
X139909523Y-112954819D02*
X139719047Y-112954819D01*
X139719047Y-112954819D02*
X139623809Y-112907200D01*
X139623809Y-112907200D02*
X139576190Y-112811961D01*
X139576190Y-112811961D02*
X139576190Y-112431009D01*
X139576190Y-112431009D02*
X139623809Y-112335771D01*
X139623809Y-112335771D02*
X139719047Y-112288152D01*
X139719047Y-112288152D02*
X139909523Y-112288152D01*
X139909523Y-112288152D02*
X140004761Y-112335771D01*
X140004761Y-112335771D02*
X140052380Y-112431009D01*
X140052380Y-112431009D02*
X140052380Y-112526247D01*
X140052380Y-112526247D02*
X139576190Y-112621485D01*
X140480952Y-112954819D02*
X140480952Y-112288152D01*
X140480952Y-112478628D02*
X140528571Y-112383390D01*
X140528571Y-112383390D02*
X140576190Y-112335771D01*
X140576190Y-112335771D02*
X140671428Y-112288152D01*
X140671428Y-112288152D02*
X140766666Y-112288152D01*
X141100000Y-112954819D02*
X141100000Y-112288152D01*
X141100000Y-111954819D02*
X141052381Y-112002438D01*
X141052381Y-112002438D02*
X141100000Y-112050057D01*
X141100000Y-112050057D02*
X141147619Y-112002438D01*
X141147619Y-112002438D02*
X141100000Y-111954819D01*
X141100000Y-111954819D02*
X141100000Y-112050057D01*
X142290475Y-111907200D02*
X141433333Y-113192914D01*
X143052380Y-112907200D02*
X142957142Y-112954819D01*
X142957142Y-112954819D02*
X142766666Y-112954819D01*
X142766666Y-112954819D02*
X142671428Y-112907200D01*
X142671428Y-112907200D02*
X142623809Y-112859580D01*
X142623809Y-112859580D02*
X142576190Y-112764342D01*
X142576190Y-112764342D02*
X142576190Y-112478628D01*
X142576190Y-112478628D02*
X142623809Y-112383390D01*
X142623809Y-112383390D02*
X142671428Y-112335771D01*
X142671428Y-112335771D02*
X142766666Y-112288152D01*
X142766666Y-112288152D02*
X142957142Y-112288152D01*
X142957142Y-112288152D02*
X143052380Y-112335771D01*
X143909523Y-111954819D02*
X143719047Y-111954819D01*
X143719047Y-111954819D02*
X143623809Y-112002438D01*
X143623809Y-112002438D02*
X143576190Y-112050057D01*
X143576190Y-112050057D02*
X143480952Y-112192914D01*
X143480952Y-112192914D02*
X143433333Y-112383390D01*
X143433333Y-112383390D02*
X143433333Y-112764342D01*
X143433333Y-112764342D02*
X143480952Y-112859580D01*
X143480952Y-112859580D02*
X143528571Y-112907200D01*
X143528571Y-112907200D02*
X143623809Y-112954819D01*
X143623809Y-112954819D02*
X143814285Y-112954819D01*
X143814285Y-112954819D02*
X143909523Y-112907200D01*
X143909523Y-112907200D02*
X143957142Y-112859580D01*
X143957142Y-112859580D02*
X144004761Y-112764342D01*
X144004761Y-112764342D02*
X144004761Y-112526247D01*
X144004761Y-112526247D02*
X143957142Y-112431009D01*
X143957142Y-112431009D02*
X143909523Y-112383390D01*
X143909523Y-112383390D02*
X143814285Y-112335771D01*
X143814285Y-112335771D02*
X143623809Y-112335771D01*
X143623809Y-112335771D02*
X143528571Y-112383390D01*
X143528571Y-112383390D02*
X143480952Y-112431009D01*
X143480952Y-112431009D02*
X143433333Y-112526247D01*
X144861904Y-112288152D02*
X144861904Y-112954819D01*
X144623809Y-111907200D02*
X144385714Y-112621485D01*
X144385714Y-112621485D02*
X145004761Y-112621485D01*
X145385714Y-112573866D02*
X146147619Y-112573866D01*
X146528571Y-112288152D02*
X146719047Y-112954819D01*
X146719047Y-112954819D02*
X146909523Y-112478628D01*
X146909523Y-112478628D02*
X147099999Y-112954819D01*
X147099999Y-112954819D02*
X147290475Y-112288152D01*
X148052380Y-112907200D02*
X147957142Y-112954819D01*
X147957142Y-112954819D02*
X147766666Y-112954819D01*
X147766666Y-112954819D02*
X147671428Y-112907200D01*
X147671428Y-112907200D02*
X147623809Y-112811961D01*
X147623809Y-112811961D02*
X147623809Y-112431009D01*
X147623809Y-112431009D02*
X147671428Y-112335771D01*
X147671428Y-112335771D02*
X147766666Y-112288152D01*
X147766666Y-112288152D02*
X147957142Y-112288152D01*
X147957142Y-112288152D02*
X148052380Y-112335771D01*
X148052380Y-112335771D02*
X148099999Y-112431009D01*
X148099999Y-112431009D02*
X148099999Y-112526247D01*
X148099999Y-112526247D02*
X147623809Y-112621485D01*
X148957142Y-112954819D02*
X148957142Y-111954819D01*
X148957142Y-112907200D02*
X148861904Y-112954819D01*
X148861904Y-112954819D02*
X148671428Y-112954819D01*
X148671428Y-112954819D02*
X148576190Y-112907200D01*
X148576190Y-112907200D02*
X148528571Y-112859580D01*
X148528571Y-112859580D02*
X148480952Y-112764342D01*
X148480952Y-112764342D02*
X148480952Y-112478628D01*
X148480952Y-112478628D02*
X148528571Y-112383390D01*
X148528571Y-112383390D02*
X148576190Y-112335771D01*
X148576190Y-112335771D02*
X148671428Y-112288152D01*
X148671428Y-112288152D02*
X148861904Y-112288152D01*
X148861904Y-112288152D02*
X148957142Y-112335771D01*
X149861904Y-112288152D02*
X149861904Y-113097676D01*
X149861904Y-113097676D02*
X149814285Y-113192914D01*
X149814285Y-113192914D02*
X149766666Y-113240533D01*
X149766666Y-113240533D02*
X149671428Y-113288152D01*
X149671428Y-113288152D02*
X149528571Y-113288152D01*
X149528571Y-113288152D02*
X149433333Y-113240533D01*
X149861904Y-112907200D02*
X149766666Y-112954819D01*
X149766666Y-112954819D02*
X149576190Y-112954819D01*
X149576190Y-112954819D02*
X149480952Y-112907200D01*
X149480952Y-112907200D02*
X149433333Y-112859580D01*
X149433333Y-112859580D02*
X149385714Y-112764342D01*
X149385714Y-112764342D02*
X149385714Y-112478628D01*
X149385714Y-112478628D02*
X149433333Y-112383390D01*
X149433333Y-112383390D02*
X149480952Y-112335771D01*
X149480952Y-112335771D02*
X149576190Y-112288152D01*
X149576190Y-112288152D02*
X149766666Y-112288152D01*
X149766666Y-112288152D02*
X149861904Y-112335771D01*
X150719047Y-112907200D02*
X150623809Y-112954819D01*
X150623809Y-112954819D02*
X150433333Y-112954819D01*
X150433333Y-112954819D02*
X150338095Y-112907200D01*
X150338095Y-112907200D02*
X150290476Y-112811961D01*
X150290476Y-112811961D02*
X150290476Y-112431009D01*
X150290476Y-112431009D02*
X150338095Y-112335771D01*
X150338095Y-112335771D02*
X150433333Y-112288152D01*
X150433333Y-112288152D02*
X150623809Y-112288152D01*
X150623809Y-112288152D02*
X150719047Y-112335771D01*
X150719047Y-112335771D02*
X150766666Y-112431009D01*
X150766666Y-112431009D02*
X150766666Y-112526247D01*
X150766666Y-112526247D02*
X150290476Y-112621485D01*
X151195238Y-112573866D02*
X151957143Y-112573866D01*
X152433333Y-112288152D02*
X152433333Y-113288152D01*
X152433333Y-112335771D02*
X152528571Y-112288152D01*
X152528571Y-112288152D02*
X152719047Y-112288152D01*
X152719047Y-112288152D02*
X152814285Y-112335771D01*
X152814285Y-112335771D02*
X152861904Y-112383390D01*
X152861904Y-112383390D02*
X152909523Y-112478628D01*
X152909523Y-112478628D02*
X152909523Y-112764342D01*
X152909523Y-112764342D02*
X152861904Y-112859580D01*
X152861904Y-112859580D02*
X152814285Y-112907200D01*
X152814285Y-112907200D02*
X152719047Y-112954819D01*
X152719047Y-112954819D02*
X152528571Y-112954819D01*
X152528571Y-112954819D02*
X152433333Y-112907200D01*
X153290476Y-112907200D02*
X153385714Y-112954819D01*
X153385714Y-112954819D02*
X153576190Y-112954819D01*
X153576190Y-112954819D02*
X153671428Y-112907200D01*
X153671428Y-112907200D02*
X153719047Y-112811961D01*
X153719047Y-112811961D02*
X153719047Y-112764342D01*
X153719047Y-112764342D02*
X153671428Y-112669104D01*
X153671428Y-112669104D02*
X153576190Y-112621485D01*
X153576190Y-112621485D02*
X153433333Y-112621485D01*
X153433333Y-112621485D02*
X153338095Y-112573866D01*
X153338095Y-112573866D02*
X153290476Y-112478628D01*
X153290476Y-112478628D02*
X153290476Y-112431009D01*
X153290476Y-112431009D02*
X153338095Y-112335771D01*
X153338095Y-112335771D02*
X153433333Y-112288152D01*
X153433333Y-112288152D02*
X153576190Y-112288152D01*
X153576190Y-112288152D02*
X153671428Y-112335771D01*
X154576190Y-112288152D02*
X154576190Y-112954819D01*
X154147619Y-112288152D02*
X154147619Y-112811961D01*
X154147619Y-112811961D02*
X154195238Y-112907200D01*
X154195238Y-112907200D02*
X154290476Y-112954819D01*
X154290476Y-112954819D02*
X154433333Y-112954819D01*
X154433333Y-112954819D02*
X154528571Y-112907200D01*
X154528571Y-112907200D02*
X154576190Y-112859580D01*
X155052381Y-112573866D02*
X155814286Y-112573866D01*
X156290476Y-112288152D02*
X156290476Y-113288152D01*
X156290476Y-112335771D02*
X156385714Y-112288152D01*
X156385714Y-112288152D02*
X156576190Y-112288152D01*
X156576190Y-112288152D02*
X156671428Y-112335771D01*
X156671428Y-112335771D02*
X156719047Y-112383390D01*
X156719047Y-112383390D02*
X156766666Y-112478628D01*
X156766666Y-112478628D02*
X156766666Y-112764342D01*
X156766666Y-112764342D02*
X156719047Y-112859580D01*
X156719047Y-112859580D02*
X156671428Y-112907200D01*
X156671428Y-112907200D02*
X156576190Y-112954819D01*
X156576190Y-112954819D02*
X156385714Y-112954819D01*
X156385714Y-112954819D02*
X156290476Y-112907200D01*
X157623809Y-112907200D02*
X157528571Y-112954819D01*
X157528571Y-112954819D02*
X157338095Y-112954819D01*
X157338095Y-112954819D02*
X157242857Y-112907200D01*
X157242857Y-112907200D02*
X157195238Y-112859580D01*
X157195238Y-112859580D02*
X157147619Y-112764342D01*
X157147619Y-112764342D02*
X157147619Y-112478628D01*
X157147619Y-112478628D02*
X157195238Y-112383390D01*
X157195238Y-112383390D02*
X157242857Y-112335771D01*
X157242857Y-112335771D02*
X157338095Y-112288152D01*
X157338095Y-112288152D02*
X157528571Y-112288152D01*
X157528571Y-112288152D02*
X157623809Y-112335771D01*
X158052381Y-112954819D02*
X158052381Y-111954819D01*
X158052381Y-112335771D02*
X158147619Y-112288152D01*
X158147619Y-112288152D02*
X158338095Y-112288152D01*
X158338095Y-112288152D02*
X158433333Y-112335771D01*
X158433333Y-112335771D02*
X158480952Y-112383390D01*
X158480952Y-112383390D02*
X158528571Y-112478628D01*
X158528571Y-112478628D02*
X158528571Y-112764342D01*
X158528571Y-112764342D02*
X158480952Y-112859580D01*
X158480952Y-112859580D02*
X158433333Y-112907200D01*
X158433333Y-112907200D02*
X158338095Y-112954819D01*
X158338095Y-112954819D02*
X158147619Y-112954819D01*
X158147619Y-112954819D02*
X158052381Y-112907200D01*
X106119048Y-66169104D02*
X106595238Y-66169104D01*
X106023810Y-66454819D02*
X106357143Y-65454819D01*
X106357143Y-65454819D02*
X106690476Y-66454819D01*
X107595238Y-66359580D02*
X107547619Y-66407200D01*
X107547619Y-66407200D02*
X107404762Y-66454819D01*
X107404762Y-66454819D02*
X107309524Y-66454819D01*
X107309524Y-66454819D02*
X107166667Y-66407200D01*
X107166667Y-66407200D02*
X107071429Y-66311961D01*
X107071429Y-66311961D02*
X107023810Y-66216723D01*
X107023810Y-66216723D02*
X106976191Y-66026247D01*
X106976191Y-66026247D02*
X106976191Y-65883390D01*
X106976191Y-65883390D02*
X107023810Y-65692914D01*
X107023810Y-65692914D02*
X107071429Y-65597676D01*
X107071429Y-65597676D02*
X107166667Y-65502438D01*
X107166667Y-65502438D02*
X107309524Y-65454819D01*
X107309524Y-65454819D02*
X107404762Y-65454819D01*
X107404762Y-65454819D02*
X107547619Y-65502438D01*
X107547619Y-65502438D02*
X107595238Y-65550057D01*
X108785715Y-66454819D02*
X108785715Y-65454819D01*
X109261905Y-66454819D02*
X109261905Y-65454819D01*
X109261905Y-65454819D02*
X109833333Y-66454819D01*
X109833333Y-66454819D02*
X109833333Y-65454819D01*
D11*
X115223808Y-70319161D02*
X115128570Y-70414400D01*
X115128570Y-70414400D02*
X114842856Y-70509638D01*
X114842856Y-70509638D02*
X114652380Y-70509638D01*
X114652380Y-70509638D02*
X114366665Y-70414400D01*
X114366665Y-70414400D02*
X114176189Y-70223923D01*
X114176189Y-70223923D02*
X114080951Y-70033447D01*
X114080951Y-70033447D02*
X113985713Y-69652495D01*
X113985713Y-69652495D02*
X113985713Y-69366780D01*
X113985713Y-69366780D02*
X114080951Y-68985828D01*
X114080951Y-68985828D02*
X114176189Y-68795352D01*
X114176189Y-68795352D02*
X114366665Y-68604876D01*
X114366665Y-68604876D02*
X114652380Y-68509638D01*
X114652380Y-68509638D02*
X114842856Y-68509638D01*
X114842856Y-68509638D02*
X115128570Y-68604876D01*
X115128570Y-68604876D02*
X115223808Y-68700114D01*
X116938094Y-68509638D02*
X116557141Y-68509638D01*
X116557141Y-68509638D02*
X116366665Y-68604876D01*
X116366665Y-68604876D02*
X116271427Y-68700114D01*
X116271427Y-68700114D02*
X116080951Y-68985828D01*
X116080951Y-68985828D02*
X115985713Y-69366780D01*
X115985713Y-69366780D02*
X115985713Y-70128685D01*
X115985713Y-70128685D02*
X116080951Y-70319161D01*
X116080951Y-70319161D02*
X116176189Y-70414400D01*
X116176189Y-70414400D02*
X116366665Y-70509638D01*
X116366665Y-70509638D02*
X116747618Y-70509638D01*
X116747618Y-70509638D02*
X116938094Y-70414400D01*
X116938094Y-70414400D02*
X117033332Y-70319161D01*
X117033332Y-70319161D02*
X117128570Y-70128685D01*
X117128570Y-70128685D02*
X117128570Y-69652495D01*
X117128570Y-69652495D02*
X117033332Y-69462019D01*
X117033332Y-69462019D02*
X116938094Y-69366780D01*
X116938094Y-69366780D02*
X116747618Y-69271542D01*
X116747618Y-69271542D02*
X116366665Y-69271542D01*
X116366665Y-69271542D02*
X116176189Y-69366780D01*
X116176189Y-69366780D02*
X116080951Y-69462019D01*
X116080951Y-69462019D02*
X115985713Y-69652495D01*
X118842856Y-69176304D02*
X118842856Y-70509638D01*
X118366665Y-68414400D02*
X117890475Y-69842971D01*
X117890475Y-69842971D02*
X119128570Y-69842971D01*
X121223809Y-68509638D02*
X121699999Y-70509638D01*
X121699999Y-70509638D02*
X122080952Y-69081066D01*
X122080952Y-69081066D02*
X122461904Y-70509638D01*
X122461904Y-70509638D02*
X122938095Y-68509638D01*
X124461904Y-70414400D02*
X124271428Y-70509638D01*
X124271428Y-70509638D02*
X123890475Y-70509638D01*
X123890475Y-70509638D02*
X123699999Y-70414400D01*
X123699999Y-70414400D02*
X123604761Y-70223923D01*
X123604761Y-70223923D02*
X123604761Y-69462019D01*
X123604761Y-69462019D02*
X123699999Y-69271542D01*
X123699999Y-69271542D02*
X123890475Y-69176304D01*
X123890475Y-69176304D02*
X124271428Y-69176304D01*
X124271428Y-69176304D02*
X124461904Y-69271542D01*
X124461904Y-69271542D02*
X124557142Y-69462019D01*
X124557142Y-69462019D02*
X124557142Y-69652495D01*
X124557142Y-69652495D02*
X123604761Y-69842971D01*
X126271428Y-70509638D02*
X126271428Y-68509638D01*
X126271428Y-70414400D02*
X126080952Y-70509638D01*
X126080952Y-70509638D02*
X125699999Y-70509638D01*
X125699999Y-70509638D02*
X125509523Y-70414400D01*
X125509523Y-70414400D02*
X125414285Y-70319161D01*
X125414285Y-70319161D02*
X125319047Y-70128685D01*
X125319047Y-70128685D02*
X125319047Y-69557257D01*
X125319047Y-69557257D02*
X125414285Y-69366780D01*
X125414285Y-69366780D02*
X125509523Y-69271542D01*
X125509523Y-69271542D02*
X125699999Y-69176304D01*
X125699999Y-69176304D02*
X126080952Y-69176304D01*
X126080952Y-69176304D02*
X126271428Y-69271542D01*
X128080952Y-69176304D02*
X128080952Y-70795352D01*
X128080952Y-70795352D02*
X127985714Y-70985828D01*
X127985714Y-70985828D02*
X127890476Y-71081066D01*
X127890476Y-71081066D02*
X127699999Y-71176304D01*
X127699999Y-71176304D02*
X127414285Y-71176304D01*
X127414285Y-71176304D02*
X127223809Y-71081066D01*
X128080952Y-70414400D02*
X127890476Y-70509638D01*
X127890476Y-70509638D02*
X127509523Y-70509638D01*
X127509523Y-70509638D02*
X127319047Y-70414400D01*
X127319047Y-70414400D02*
X127223809Y-70319161D01*
X127223809Y-70319161D02*
X127128571Y-70128685D01*
X127128571Y-70128685D02*
X127128571Y-69557257D01*
X127128571Y-69557257D02*
X127223809Y-69366780D01*
X127223809Y-69366780D02*
X127319047Y-69271542D01*
X127319047Y-69271542D02*
X127509523Y-69176304D01*
X127509523Y-69176304D02*
X127890476Y-69176304D01*
X127890476Y-69176304D02*
X128080952Y-69271542D01*
X129795238Y-70414400D02*
X129604762Y-70509638D01*
X129604762Y-70509638D02*
X129223809Y-70509638D01*
X129223809Y-70509638D02*
X129033333Y-70414400D01*
X129033333Y-70414400D02*
X128938095Y-70223923D01*
X128938095Y-70223923D02*
X128938095Y-69462019D01*
X128938095Y-69462019D02*
X129033333Y-69271542D01*
X129033333Y-69271542D02*
X129223809Y-69176304D01*
X129223809Y-69176304D02*
X129604762Y-69176304D01*
X129604762Y-69176304D02*
X129795238Y-69271542D01*
X129795238Y-69271542D02*
X129890476Y-69462019D01*
X129890476Y-69462019D02*
X129890476Y-69652495D01*
X129890476Y-69652495D02*
X128938095Y-69842971D01*
X132271429Y-70509638D02*
X132271429Y-68509638D01*
X132271429Y-68509638D02*
X133033334Y-68509638D01*
X133033334Y-68509638D02*
X133223810Y-68604876D01*
X133223810Y-68604876D02*
X133319048Y-68700114D01*
X133319048Y-68700114D02*
X133414286Y-68890590D01*
X133414286Y-68890590D02*
X133414286Y-69176304D01*
X133414286Y-69176304D02*
X133319048Y-69366780D01*
X133319048Y-69366780D02*
X133223810Y-69462019D01*
X133223810Y-69462019D02*
X133033334Y-69557257D01*
X133033334Y-69557257D02*
X132271429Y-69557257D01*
X135414286Y-70319161D02*
X135319048Y-70414400D01*
X135319048Y-70414400D02*
X135033334Y-70509638D01*
X135033334Y-70509638D02*
X134842858Y-70509638D01*
X134842858Y-70509638D02*
X134557143Y-70414400D01*
X134557143Y-70414400D02*
X134366667Y-70223923D01*
X134366667Y-70223923D02*
X134271429Y-70033447D01*
X134271429Y-70033447D02*
X134176191Y-69652495D01*
X134176191Y-69652495D02*
X134176191Y-69366780D01*
X134176191Y-69366780D02*
X134271429Y-68985828D01*
X134271429Y-68985828D02*
X134366667Y-68795352D01*
X134366667Y-68795352D02*
X134557143Y-68604876D01*
X134557143Y-68604876D02*
X134842858Y-68509638D01*
X134842858Y-68509638D02*
X135033334Y-68509638D01*
X135033334Y-68509638D02*
X135319048Y-68604876D01*
X135319048Y-68604876D02*
X135414286Y-68700114D01*
X136938096Y-69462019D02*
X137223810Y-69557257D01*
X137223810Y-69557257D02*
X137319048Y-69652495D01*
X137319048Y-69652495D02*
X137414286Y-69842971D01*
X137414286Y-69842971D02*
X137414286Y-70128685D01*
X137414286Y-70128685D02*
X137319048Y-70319161D01*
X137319048Y-70319161D02*
X137223810Y-70414400D01*
X137223810Y-70414400D02*
X137033334Y-70509638D01*
X137033334Y-70509638D02*
X136271429Y-70509638D01*
X136271429Y-70509638D02*
X136271429Y-68509638D01*
X136271429Y-68509638D02*
X136938096Y-68509638D01*
X136938096Y-68509638D02*
X137128572Y-68604876D01*
X137128572Y-68604876D02*
X137223810Y-68700114D01*
X137223810Y-68700114D02*
X137319048Y-68890590D01*
X137319048Y-68890590D02*
X137319048Y-69081066D01*
X137319048Y-69081066D02*
X137223810Y-69271542D01*
X137223810Y-69271542D02*
X137128572Y-69366780D01*
X137128572Y-69366780D02*
X136938096Y-69462019D01*
X136938096Y-69462019D02*
X136271429Y-69462019D01*
D10*
X119444286Y-71754819D02*
X119777619Y-72754819D01*
X119777619Y-72754819D02*
X120110952Y-71754819D01*
X120396667Y-71850057D02*
X120444286Y-71802438D01*
X120444286Y-71802438D02*
X120539524Y-71754819D01*
X120539524Y-71754819D02*
X120777619Y-71754819D01*
X120777619Y-71754819D02*
X120872857Y-71802438D01*
X120872857Y-71802438D02*
X120920476Y-71850057D01*
X120920476Y-71850057D02*
X120968095Y-71945295D01*
X120968095Y-71945295D02*
X120968095Y-72040533D01*
X120968095Y-72040533D02*
X120920476Y-72183390D01*
X120920476Y-72183390D02*
X120349048Y-72754819D01*
X120349048Y-72754819D02*
X120968095Y-72754819D01*
X121396667Y-72659580D02*
X121444286Y-72707200D01*
X121444286Y-72707200D02*
X121396667Y-72754819D01*
X121396667Y-72754819D02*
X121349048Y-72707200D01*
X121349048Y-72707200D02*
X121396667Y-72659580D01*
X121396667Y-72659580D02*
X121396667Y-72754819D01*
X122063333Y-71754819D02*
X122158571Y-71754819D01*
X122158571Y-71754819D02*
X122253809Y-71802438D01*
X122253809Y-71802438D02*
X122301428Y-71850057D01*
X122301428Y-71850057D02*
X122349047Y-71945295D01*
X122349047Y-71945295D02*
X122396666Y-72135771D01*
X122396666Y-72135771D02*
X122396666Y-72373866D01*
X122396666Y-72373866D02*
X122349047Y-72564342D01*
X122349047Y-72564342D02*
X122301428Y-72659580D01*
X122301428Y-72659580D02*
X122253809Y-72707200D01*
X122253809Y-72707200D02*
X122158571Y-72754819D01*
X122158571Y-72754819D02*
X122063333Y-72754819D01*
X122063333Y-72754819D02*
X121968095Y-72707200D01*
X121968095Y-72707200D02*
X121920476Y-72659580D01*
X121920476Y-72659580D02*
X121872857Y-72564342D01*
X121872857Y-72564342D02*
X121825238Y-72373866D01*
X121825238Y-72373866D02*
X121825238Y-72135771D01*
X121825238Y-72135771D02*
X121872857Y-71945295D01*
X121872857Y-71945295D02*
X121920476Y-71850057D01*
X121920476Y-71850057D02*
X121968095Y-71802438D01*
X121968095Y-71802438D02*
X122063333Y-71754819D01*
X123587143Y-72373866D02*
X124349048Y-72373866D01*
X125777619Y-71754819D02*
X125872857Y-71754819D01*
X125872857Y-71754819D02*
X125968095Y-71802438D01*
X125968095Y-71802438D02*
X126015714Y-71850057D01*
X126015714Y-71850057D02*
X126063333Y-71945295D01*
X126063333Y-71945295D02*
X126110952Y-72135771D01*
X126110952Y-72135771D02*
X126110952Y-72373866D01*
X126110952Y-72373866D02*
X126063333Y-72564342D01*
X126063333Y-72564342D02*
X126015714Y-72659580D01*
X126015714Y-72659580D02*
X125968095Y-72707200D01*
X125968095Y-72707200D02*
X125872857Y-72754819D01*
X125872857Y-72754819D02*
X125777619Y-72754819D01*
X125777619Y-72754819D02*
X125682381Y-72707200D01*
X125682381Y-72707200D02*
X125634762Y-72659580D01*
X125634762Y-72659580D02*
X125587143Y-72564342D01*
X125587143Y-72564342D02*
X125539524Y-72373866D01*
X125539524Y-72373866D02*
X125539524Y-72135771D01*
X125539524Y-72135771D02*
X125587143Y-71945295D01*
X125587143Y-71945295D02*
X125634762Y-71850057D01*
X125634762Y-71850057D02*
X125682381Y-71802438D01*
X125682381Y-71802438D02*
X125777619Y-71754819D01*
X126444286Y-71754819D02*
X127063333Y-71754819D01*
X127063333Y-71754819D02*
X126730000Y-72135771D01*
X126730000Y-72135771D02*
X126872857Y-72135771D01*
X126872857Y-72135771D02*
X126968095Y-72183390D01*
X126968095Y-72183390D02*
X127015714Y-72231009D01*
X127015714Y-72231009D02*
X127063333Y-72326247D01*
X127063333Y-72326247D02*
X127063333Y-72564342D01*
X127063333Y-72564342D02*
X127015714Y-72659580D01*
X127015714Y-72659580D02*
X126968095Y-72707200D01*
X126968095Y-72707200D02*
X126872857Y-72754819D01*
X126872857Y-72754819D02*
X126587143Y-72754819D01*
X126587143Y-72754819D02*
X126491905Y-72707200D01*
X126491905Y-72707200D02*
X126444286Y-72659580D01*
X128206190Y-71707200D02*
X127349048Y-72992914D01*
X128491905Y-71850057D02*
X128539524Y-71802438D01*
X128539524Y-71802438D02*
X128634762Y-71754819D01*
X128634762Y-71754819D02*
X128872857Y-71754819D01*
X128872857Y-71754819D02*
X128968095Y-71802438D01*
X128968095Y-71802438D02*
X129015714Y-71850057D01*
X129015714Y-71850057D02*
X129063333Y-71945295D01*
X129063333Y-71945295D02*
X129063333Y-72040533D01*
X129063333Y-72040533D02*
X129015714Y-72183390D01*
X129015714Y-72183390D02*
X128444286Y-72754819D01*
X128444286Y-72754819D02*
X129063333Y-72754819D01*
X129682381Y-71754819D02*
X129777619Y-71754819D01*
X129777619Y-71754819D02*
X129872857Y-71802438D01*
X129872857Y-71802438D02*
X129920476Y-71850057D01*
X129920476Y-71850057D02*
X129968095Y-71945295D01*
X129968095Y-71945295D02*
X130015714Y-72135771D01*
X130015714Y-72135771D02*
X130015714Y-72373866D01*
X130015714Y-72373866D02*
X129968095Y-72564342D01*
X129968095Y-72564342D02*
X129920476Y-72659580D01*
X129920476Y-72659580D02*
X129872857Y-72707200D01*
X129872857Y-72707200D02*
X129777619Y-72754819D01*
X129777619Y-72754819D02*
X129682381Y-72754819D01*
X129682381Y-72754819D02*
X129587143Y-72707200D01*
X129587143Y-72707200D02*
X129539524Y-72659580D01*
X129539524Y-72659580D02*
X129491905Y-72564342D01*
X129491905Y-72564342D02*
X129444286Y-72373866D01*
X129444286Y-72373866D02*
X129444286Y-72135771D01*
X129444286Y-72135771D02*
X129491905Y-71945295D01*
X129491905Y-71945295D02*
X129539524Y-71850057D01*
X129539524Y-71850057D02*
X129587143Y-71802438D01*
X129587143Y-71802438D02*
X129682381Y-71754819D01*
X130396667Y-71850057D02*
X130444286Y-71802438D01*
X130444286Y-71802438D02*
X130539524Y-71754819D01*
X130539524Y-71754819D02*
X130777619Y-71754819D01*
X130777619Y-71754819D02*
X130872857Y-71802438D01*
X130872857Y-71802438D02*
X130920476Y-71850057D01*
X130920476Y-71850057D02*
X130968095Y-71945295D01*
X130968095Y-71945295D02*
X130968095Y-72040533D01*
X130968095Y-72040533D02*
X130920476Y-72183390D01*
X130920476Y-72183390D02*
X130349048Y-72754819D01*
X130349048Y-72754819D02*
X130968095Y-72754819D01*
X131825238Y-71754819D02*
X131634762Y-71754819D01*
X131634762Y-71754819D02*
X131539524Y-71802438D01*
X131539524Y-71802438D02*
X131491905Y-71850057D01*
X131491905Y-71850057D02*
X131396667Y-71992914D01*
X131396667Y-71992914D02*
X131349048Y-72183390D01*
X131349048Y-72183390D02*
X131349048Y-72564342D01*
X131349048Y-72564342D02*
X131396667Y-72659580D01*
X131396667Y-72659580D02*
X131444286Y-72707200D01*
X131444286Y-72707200D02*
X131539524Y-72754819D01*
X131539524Y-72754819D02*
X131730000Y-72754819D01*
X131730000Y-72754819D02*
X131825238Y-72707200D01*
X131825238Y-72707200D02*
X131872857Y-72659580D01*
X131872857Y-72659580D02*
X131920476Y-72564342D01*
X131920476Y-72564342D02*
X131920476Y-72326247D01*
X131920476Y-72326247D02*
X131872857Y-72231009D01*
X131872857Y-72231009D02*
X131825238Y-72183390D01*
X131825238Y-72183390D02*
X131730000Y-72135771D01*
X131730000Y-72135771D02*
X131539524Y-72135771D01*
X131539524Y-72135771D02*
X131444286Y-72183390D01*
X131444286Y-72183390D02*
X131396667Y-72231009D01*
X131396667Y-72231009D02*
X131349048Y-72326247D01*
X139614286Y-66073866D02*
X140376191Y-66073866D01*
X139995238Y-66454819D02*
X139995238Y-65692914D01*
X141328571Y-65454819D02*
X140852381Y-65454819D01*
X140852381Y-65454819D02*
X140804762Y-65931009D01*
X140804762Y-65931009D02*
X140852381Y-65883390D01*
X140852381Y-65883390D02*
X140947619Y-65835771D01*
X140947619Y-65835771D02*
X141185714Y-65835771D01*
X141185714Y-65835771D02*
X141280952Y-65883390D01*
X141280952Y-65883390D02*
X141328571Y-65931009D01*
X141328571Y-65931009D02*
X141376190Y-66026247D01*
X141376190Y-66026247D02*
X141376190Y-66264342D01*
X141376190Y-66264342D02*
X141328571Y-66359580D01*
X141328571Y-66359580D02*
X141280952Y-66407200D01*
X141280952Y-66407200D02*
X141185714Y-66454819D01*
X141185714Y-66454819D02*
X140947619Y-66454819D01*
X140947619Y-66454819D02*
X140852381Y-66407200D01*
X140852381Y-66407200D02*
X140804762Y-66359580D01*
X141661905Y-65454819D02*
X141995238Y-66454819D01*
X141995238Y-66454819D02*
X142328571Y-65454819D01*
X142661905Y-66454819D02*
X142661905Y-65454819D01*
X142661905Y-65454819D02*
X142900000Y-65454819D01*
X142900000Y-65454819D02*
X143042857Y-65502438D01*
X143042857Y-65502438D02*
X143138095Y-65597676D01*
X143138095Y-65597676D02*
X143185714Y-65692914D01*
X143185714Y-65692914D02*
X143233333Y-65883390D01*
X143233333Y-65883390D02*
X143233333Y-66026247D01*
X143233333Y-66026247D02*
X143185714Y-66216723D01*
X143185714Y-66216723D02*
X143138095Y-66311961D01*
X143138095Y-66311961D02*
X143042857Y-66407200D01*
X143042857Y-66407200D02*
X142900000Y-66454819D01*
X142900000Y-66454819D02*
X142661905Y-66454819D01*
X144233333Y-66359580D02*
X144185714Y-66407200D01*
X144185714Y-66407200D02*
X144042857Y-66454819D01*
X144042857Y-66454819D02*
X143947619Y-66454819D01*
X143947619Y-66454819D02*
X143804762Y-66407200D01*
X143804762Y-66407200D02*
X143709524Y-66311961D01*
X143709524Y-66311961D02*
X143661905Y-66216723D01*
X143661905Y-66216723D02*
X143614286Y-66026247D01*
X143614286Y-66026247D02*
X143614286Y-65883390D01*
X143614286Y-65883390D02*
X143661905Y-65692914D01*
X143661905Y-65692914D02*
X143709524Y-65597676D01*
X143709524Y-65597676D02*
X143804762Y-65502438D01*
X143804762Y-65502438D02*
X143947619Y-65454819D01*
X143947619Y-65454819D02*
X144042857Y-65454819D01*
X144042857Y-65454819D02*
X144185714Y-65502438D01*
X144185714Y-65502438D02*
X144233333Y-65550057D01*
D12*
X148606045Y-68252071D02*
X148558426Y-68204452D01*
X148558426Y-68204452D02*
X148463188Y-68061595D01*
X148463188Y-68061595D02*
X148415569Y-67966357D01*
X148415569Y-67966357D02*
X148367950Y-67823500D01*
X148367950Y-67823500D02*
X148320331Y-67585404D01*
X148320331Y-67585404D02*
X148320331Y-67394928D01*
X148320331Y-67394928D02*
X148367950Y-67156833D01*
X148367950Y-67156833D02*
X148415569Y-67013976D01*
X148415569Y-67013976D02*
X148463188Y-66918738D01*
X148463188Y-66918738D02*
X148558426Y-66775880D01*
X148558426Y-66775880D02*
X148606045Y-66728261D01*
X149510807Y-66918738D02*
X149415569Y-66871119D01*
X149415569Y-66871119D02*
X149272712Y-66871119D01*
X149272712Y-66871119D02*
X149129855Y-66918738D01*
X149129855Y-66918738D02*
X149034617Y-67013976D01*
X149034617Y-67013976D02*
X148986998Y-67109214D01*
X148986998Y-67109214D02*
X148939379Y-67299690D01*
X148939379Y-67299690D02*
X148939379Y-67442547D01*
X148939379Y-67442547D02*
X148986998Y-67633023D01*
X148986998Y-67633023D02*
X149034617Y-67728261D01*
X149034617Y-67728261D02*
X149129855Y-67823500D01*
X149129855Y-67823500D02*
X149272712Y-67871119D01*
X149272712Y-67871119D02*
X149367950Y-67871119D01*
X149367950Y-67871119D02*
X149510807Y-67823500D01*
X149510807Y-67823500D02*
X149558426Y-67775880D01*
X149558426Y-67775880D02*
X149558426Y-67442547D01*
X149558426Y-67442547D02*
X149367950Y-67442547D01*
X150558426Y-67871119D02*
X150225093Y-67394928D01*
X149986998Y-67871119D02*
X149986998Y-66871119D01*
X149986998Y-66871119D02*
X150367950Y-66871119D01*
X150367950Y-66871119D02*
X150463188Y-66918738D01*
X150463188Y-66918738D02*
X150510807Y-66966357D01*
X150510807Y-66966357D02*
X150558426Y-67061595D01*
X150558426Y-67061595D02*
X150558426Y-67204452D01*
X150558426Y-67204452D02*
X150510807Y-67299690D01*
X150510807Y-67299690D02*
X150463188Y-67347309D01*
X150463188Y-67347309D02*
X150367950Y-67394928D01*
X150367950Y-67394928D02*
X149986998Y-67394928D01*
X150986998Y-67871119D02*
X150986998Y-66871119D01*
X150986998Y-66871119D02*
X151558426Y-67871119D01*
X151558426Y-67871119D02*
X151558426Y-66871119D01*
X151939379Y-68252071D02*
X151986998Y-68204452D01*
X151986998Y-68204452D02*
X152082236Y-68061595D01*
X152082236Y-68061595D02*
X152129855Y-67966357D01*
X152129855Y-67966357D02*
X152177474Y-67823500D01*
X152177474Y-67823500D02*
X152225093Y-67585404D01*
X152225093Y-67585404D02*
X152225093Y-67394928D01*
X152225093Y-67394928D02*
X152177474Y-67156833D01*
X152177474Y-67156833D02*
X152129855Y-67013976D01*
X152129855Y-67013976D02*
X152082236Y-66918738D01*
X152082236Y-66918738D02*
X151986998Y-66775880D01*
X151986998Y-66775880D02*
X151939379Y-66728261D01*
D10*
X91646303Y-112862295D02*
X91379636Y-112481342D01*
X91189160Y-112862295D02*
X91189160Y-112062295D01*
X91189160Y-112062295D02*
X91493922Y-112062295D01*
X91493922Y-112062295D02*
X91570112Y-112100390D01*
X91570112Y-112100390D02*
X91608207Y-112138485D01*
X91608207Y-112138485D02*
X91646303Y-112214676D01*
X91646303Y-112214676D02*
X91646303Y-112328961D01*
X91646303Y-112328961D02*
X91608207Y-112405152D01*
X91608207Y-112405152D02*
X91570112Y-112443247D01*
X91570112Y-112443247D02*
X91493922Y-112481342D01*
X91493922Y-112481342D02*
X91189160Y-112481342D01*
X91989160Y-112862295D02*
X91989160Y-112328961D01*
X91989160Y-112062295D02*
X91951064Y-112100390D01*
X91951064Y-112100390D02*
X91989160Y-112138485D01*
X91989160Y-112138485D02*
X92027255Y-112100390D01*
X92027255Y-112100390D02*
X91989160Y-112062295D01*
X91989160Y-112062295D02*
X91989160Y-112138485D01*
X92370112Y-112328961D02*
X92370112Y-113128961D01*
X92370112Y-112367057D02*
X92446302Y-112328961D01*
X92446302Y-112328961D02*
X92598683Y-112328961D01*
X92598683Y-112328961D02*
X92674874Y-112367057D01*
X92674874Y-112367057D02*
X92712969Y-112405152D01*
X92712969Y-112405152D02*
X92751064Y-112481342D01*
X92751064Y-112481342D02*
X92751064Y-112709914D01*
X92751064Y-112709914D02*
X92712969Y-112786104D01*
X92712969Y-112786104D02*
X92674874Y-112824200D01*
X92674874Y-112824200D02*
X92598683Y-112862295D01*
X92598683Y-112862295D02*
X92446302Y-112862295D01*
X92446302Y-112862295D02*
X92370112Y-112824200D01*
X93093922Y-112328961D02*
X93093922Y-113128961D01*
X93093922Y-112367057D02*
X93170112Y-112328961D01*
X93170112Y-112328961D02*
X93322493Y-112328961D01*
X93322493Y-112328961D02*
X93398684Y-112367057D01*
X93398684Y-112367057D02*
X93436779Y-112405152D01*
X93436779Y-112405152D02*
X93474874Y-112481342D01*
X93474874Y-112481342D02*
X93474874Y-112709914D01*
X93474874Y-112709914D02*
X93436779Y-112786104D01*
X93436779Y-112786104D02*
X93398684Y-112824200D01*
X93398684Y-112824200D02*
X93322493Y-112862295D01*
X93322493Y-112862295D02*
X93170112Y-112862295D01*
X93170112Y-112862295D02*
X93093922Y-112824200D01*
X93932017Y-112862295D02*
X93855827Y-112824200D01*
X93855827Y-112824200D02*
X93817732Y-112748009D01*
X93817732Y-112748009D02*
X93817732Y-112062295D01*
X94541542Y-112824200D02*
X94465351Y-112862295D01*
X94465351Y-112862295D02*
X94312970Y-112862295D01*
X94312970Y-112862295D02*
X94236780Y-112824200D01*
X94236780Y-112824200D02*
X94198684Y-112748009D01*
X94198684Y-112748009D02*
X94198684Y-112443247D01*
X94198684Y-112443247D02*
X94236780Y-112367057D01*
X94236780Y-112367057D02*
X94312970Y-112328961D01*
X94312970Y-112328961D02*
X94465351Y-112328961D01*
X94465351Y-112328961D02*
X94541542Y-112367057D01*
X94541542Y-112367057D02*
X94579637Y-112443247D01*
X94579637Y-112443247D02*
X94579637Y-112519438D01*
X94579637Y-112519438D02*
X94198684Y-112595628D01*
X94922494Y-112786104D02*
X94960589Y-112824200D01*
X94960589Y-112824200D02*
X94922494Y-112862295D01*
X94922494Y-112862295D02*
X94884398Y-112824200D01*
X94884398Y-112824200D02*
X94922494Y-112786104D01*
X94922494Y-112786104D02*
X94922494Y-112862295D01*
X94922494Y-112367057D02*
X94960589Y-112405152D01*
X94960589Y-112405152D02*
X94922494Y-112443247D01*
X94922494Y-112443247D02*
X94884398Y-112405152D01*
X94884398Y-112405152D02*
X94922494Y-112367057D01*
X94922494Y-112367057D02*
X94922494Y-112443247D01*
X96522494Y-112328961D02*
X95912970Y-112557533D01*
X95912970Y-112557533D02*
X96522494Y-112786104D01*
X97322493Y-112862295D02*
X96865350Y-112862295D01*
X97093922Y-112862295D02*
X97093922Y-112062295D01*
X97093922Y-112062295D02*
X97017731Y-112176580D01*
X97017731Y-112176580D02*
X96941541Y-112252771D01*
X96941541Y-112252771D02*
X96865350Y-112290866D01*
X98046303Y-112062295D02*
X97665351Y-112062295D01*
X97665351Y-112062295D02*
X97627255Y-112443247D01*
X97627255Y-112443247D02*
X97665351Y-112405152D01*
X97665351Y-112405152D02*
X97741541Y-112367057D01*
X97741541Y-112367057D02*
X97932017Y-112367057D01*
X97932017Y-112367057D02*
X98008208Y-112405152D01*
X98008208Y-112405152D02*
X98046303Y-112443247D01*
X98046303Y-112443247D02*
X98084398Y-112519438D01*
X98084398Y-112519438D02*
X98084398Y-112709914D01*
X98084398Y-112709914D02*
X98046303Y-112786104D01*
X98046303Y-112786104D02*
X98008208Y-112824200D01*
X98008208Y-112824200D02*
X97932017Y-112862295D01*
X97932017Y-112862295D02*
X97741541Y-112862295D01*
X97741541Y-112862295D02*
X97665351Y-112824200D01*
X97665351Y-112824200D02*
X97627255Y-112786104D01*
X98427256Y-112862295D02*
X98427256Y-112328961D01*
X98427256Y-112405152D02*
X98465351Y-112367057D01*
X98465351Y-112367057D02*
X98541541Y-112328961D01*
X98541541Y-112328961D02*
X98655827Y-112328961D01*
X98655827Y-112328961D02*
X98732018Y-112367057D01*
X98732018Y-112367057D02*
X98770113Y-112443247D01*
X98770113Y-112443247D02*
X98770113Y-112862295D01*
X98770113Y-112443247D02*
X98808208Y-112367057D01*
X98808208Y-112367057D02*
X98884399Y-112328961D01*
X98884399Y-112328961D02*
X98998684Y-112328961D01*
X98998684Y-112328961D02*
X99074875Y-112367057D01*
X99074875Y-112367057D02*
X99112970Y-112443247D01*
X99112970Y-112443247D02*
X99112970Y-112862295D01*
X99379637Y-112062295D02*
X99646304Y-112862295D01*
X99646304Y-112862295D02*
X99912970Y-112062295D01*
D12*
X140606045Y-68252071D02*
X140558426Y-68204452D01*
X140558426Y-68204452D02*
X140463188Y-68061595D01*
X140463188Y-68061595D02*
X140415569Y-67966357D01*
X140415569Y-67966357D02*
X140367950Y-67823500D01*
X140367950Y-67823500D02*
X140320331Y-67585404D01*
X140320331Y-67585404D02*
X140320331Y-67394928D01*
X140320331Y-67394928D02*
X140367950Y-67156833D01*
X140367950Y-67156833D02*
X140415569Y-67013976D01*
X140415569Y-67013976D02*
X140463188Y-66918738D01*
X140463188Y-66918738D02*
X140558426Y-66775880D01*
X140558426Y-66775880D02*
X140606045Y-66728261D01*
X140891760Y-66871119D02*
X141129855Y-67871119D01*
X141129855Y-67871119D02*
X141320331Y-67156833D01*
X141320331Y-67156833D02*
X141510807Y-67871119D01*
X141510807Y-67871119D02*
X141748903Y-66871119D01*
X142129855Y-67871119D02*
X142129855Y-66871119D01*
X142129855Y-67347309D02*
X142701283Y-67347309D01*
X142701283Y-67871119D02*
X142701283Y-66871119D01*
X143034617Y-66871119D02*
X143606045Y-66871119D01*
X143320331Y-67871119D02*
X143320331Y-66871119D01*
X143844141Y-68252071D02*
X143891760Y-68204452D01*
X143891760Y-68204452D02*
X143986998Y-68061595D01*
X143986998Y-68061595D02*
X144034617Y-67966357D01*
X144034617Y-67966357D02*
X144082236Y-67823500D01*
X144082236Y-67823500D02*
X144129855Y-67585404D01*
X144129855Y-67585404D02*
X144129855Y-67394928D01*
X144129855Y-67394928D02*
X144082236Y-67156833D01*
X144082236Y-67156833D02*
X144034617Y-67013976D01*
X144034617Y-67013976D02*
X143986998Y-66918738D01*
X143986998Y-66918738D02*
X143891760Y-66775880D01*
X143891760Y-66775880D02*
X143844141Y-66728261D01*
D10*
X100289160Y-112428961D02*
X100289160Y-113228961D01*
X100289160Y-112467057D02*
X100365350Y-112428961D01*
X100365350Y-112428961D02*
X100517731Y-112428961D01*
X100517731Y-112428961D02*
X100593922Y-112467057D01*
X100593922Y-112467057D02*
X100632017Y-112505152D01*
X100632017Y-112505152D02*
X100670112Y-112581342D01*
X100670112Y-112581342D02*
X100670112Y-112809914D01*
X100670112Y-112809914D02*
X100632017Y-112886104D01*
X100632017Y-112886104D02*
X100593922Y-112924200D01*
X100593922Y-112924200D02*
X100517731Y-112962295D01*
X100517731Y-112962295D02*
X100365350Y-112962295D01*
X100365350Y-112962295D02*
X100289160Y-112924200D01*
X101012970Y-112657533D02*
X101622494Y-112657533D01*
X102003446Y-112428961D02*
X102003446Y-113228961D01*
X102003446Y-112467057D02*
X102079636Y-112428961D01*
X102079636Y-112428961D02*
X102232017Y-112428961D01*
X102232017Y-112428961D02*
X102308208Y-112467057D01*
X102308208Y-112467057D02*
X102346303Y-112505152D01*
X102346303Y-112505152D02*
X102384398Y-112581342D01*
X102384398Y-112581342D02*
X102384398Y-112809914D01*
X102384398Y-112809914D02*
X102346303Y-112886104D01*
X102346303Y-112886104D02*
X102308208Y-112924200D01*
X102308208Y-112924200D02*
X102232017Y-112962295D01*
X102232017Y-112962295D02*
X102079636Y-112962295D01*
X102079636Y-112962295D02*
X102003446Y-112924200D01*
X117181333Y-102054819D02*
X116848000Y-101578628D01*
X116609905Y-102054819D02*
X116609905Y-101054819D01*
X116609905Y-101054819D02*
X116990857Y-101054819D01*
X116990857Y-101054819D02*
X117086095Y-101102438D01*
X117086095Y-101102438D02*
X117133714Y-101150057D01*
X117133714Y-101150057D02*
X117181333Y-101245295D01*
X117181333Y-101245295D02*
X117181333Y-101388152D01*
X117181333Y-101388152D02*
X117133714Y-101483390D01*
X117133714Y-101483390D02*
X117086095Y-101531009D01*
X117086095Y-101531009D02*
X116990857Y-101578628D01*
X116990857Y-101578628D02*
X116609905Y-101578628D01*
X117562286Y-101150057D02*
X117609905Y-101102438D01*
X117609905Y-101102438D02*
X117705143Y-101054819D01*
X117705143Y-101054819D02*
X117943238Y-101054819D01*
X117943238Y-101054819D02*
X118038476Y-101102438D01*
X118038476Y-101102438D02*
X118086095Y-101150057D01*
X118086095Y-101150057D02*
X118133714Y-101245295D01*
X118133714Y-101245295D02*
X118133714Y-101340533D01*
X118133714Y-101340533D02*
X118086095Y-101483390D01*
X118086095Y-101483390D02*
X117514667Y-102054819D01*
X117514667Y-102054819D02*
X118133714Y-102054819D01*
X114133333Y-102054819D02*
X113800000Y-101578628D01*
X113561905Y-102054819D02*
X113561905Y-101054819D01*
X113561905Y-101054819D02*
X113942857Y-101054819D01*
X113942857Y-101054819D02*
X114038095Y-101102438D01*
X114038095Y-101102438D02*
X114085714Y-101150057D01*
X114085714Y-101150057D02*
X114133333Y-101245295D01*
X114133333Y-101245295D02*
X114133333Y-101388152D01*
X114133333Y-101388152D02*
X114085714Y-101483390D01*
X114085714Y-101483390D02*
X114038095Y-101531009D01*
X114038095Y-101531009D02*
X113942857Y-101578628D01*
X113942857Y-101578628D02*
X113561905Y-101578628D01*
X115085714Y-102054819D02*
X114514286Y-102054819D01*
X114800000Y-102054819D02*
X114800000Y-101054819D01*
X114800000Y-101054819D02*
X114704762Y-101197676D01*
X114704762Y-101197676D02*
X114609524Y-101292914D01*
X114609524Y-101292914D02*
X114514286Y-101340533D01*
X109751905Y-83004819D02*
X109751905Y-82004819D01*
X109751905Y-82004819D02*
X109990000Y-82004819D01*
X109990000Y-82004819D02*
X110132857Y-82052438D01*
X110132857Y-82052438D02*
X110228095Y-82147676D01*
X110228095Y-82147676D02*
X110275714Y-82242914D01*
X110275714Y-82242914D02*
X110323333Y-82433390D01*
X110323333Y-82433390D02*
X110323333Y-82576247D01*
X110323333Y-82576247D02*
X110275714Y-82766723D01*
X110275714Y-82766723D02*
X110228095Y-82861961D01*
X110228095Y-82861961D02*
X110132857Y-82957200D01*
X110132857Y-82957200D02*
X109990000Y-83004819D01*
X109990000Y-83004819D02*
X109751905Y-83004819D01*
X111275714Y-83004819D02*
X110704286Y-83004819D01*
X110990000Y-83004819D02*
X110990000Y-82004819D01*
X110990000Y-82004819D02*
X110894762Y-82147676D01*
X110894762Y-82147676D02*
X110799524Y-82242914D01*
X110799524Y-82242914D02*
X110704286Y-82290533D01*
X107628095Y-89354819D02*
X107628095Y-88354819D01*
X108199523Y-89354819D02*
X107770952Y-88783390D01*
X108199523Y-88354819D02*
X107628095Y-88926247D01*
X156805333Y-104880580D02*
X156757714Y-104928200D01*
X156757714Y-104928200D02*
X156614857Y-104975819D01*
X156614857Y-104975819D02*
X156519619Y-104975819D01*
X156519619Y-104975819D02*
X156376762Y-104928200D01*
X156376762Y-104928200D02*
X156281524Y-104832961D01*
X156281524Y-104832961D02*
X156233905Y-104737723D01*
X156233905Y-104737723D02*
X156186286Y-104547247D01*
X156186286Y-104547247D02*
X156186286Y-104404390D01*
X156186286Y-104404390D02*
X156233905Y-104213914D01*
X156233905Y-104213914D02*
X156281524Y-104118676D01*
X156281524Y-104118676D02*
X156376762Y-104023438D01*
X156376762Y-104023438D02*
X156519619Y-103975819D01*
X156519619Y-103975819D02*
X156614857Y-103975819D01*
X156614857Y-103975819D02*
X156757714Y-104023438D01*
X156757714Y-104023438D02*
X156805333Y-104071057D01*
X157662476Y-103975819D02*
X157472000Y-103975819D01*
X157472000Y-103975819D02*
X157376762Y-104023438D01*
X157376762Y-104023438D02*
X157329143Y-104071057D01*
X157329143Y-104071057D02*
X157233905Y-104213914D01*
X157233905Y-104213914D02*
X157186286Y-104404390D01*
X157186286Y-104404390D02*
X157186286Y-104785342D01*
X157186286Y-104785342D02*
X157233905Y-104880580D01*
X157233905Y-104880580D02*
X157281524Y-104928200D01*
X157281524Y-104928200D02*
X157376762Y-104975819D01*
X157376762Y-104975819D02*
X157567238Y-104975819D01*
X157567238Y-104975819D02*
X157662476Y-104928200D01*
X157662476Y-104928200D02*
X157710095Y-104880580D01*
X157710095Y-104880580D02*
X157757714Y-104785342D01*
X157757714Y-104785342D02*
X157757714Y-104547247D01*
X157757714Y-104547247D02*
X157710095Y-104452009D01*
X157710095Y-104452009D02*
X157662476Y-104404390D01*
X157662476Y-104404390D02*
X157567238Y-104356771D01*
X157567238Y-104356771D02*
X157376762Y-104356771D01*
X157376762Y-104356771D02*
X157281524Y-104404390D01*
X157281524Y-104404390D02*
X157233905Y-104452009D01*
X157233905Y-104452009D02*
X157186286Y-104547247D01*
X136398333Y-92053580D02*
X136350714Y-92101200D01*
X136350714Y-92101200D02*
X136207857Y-92148819D01*
X136207857Y-92148819D02*
X136112619Y-92148819D01*
X136112619Y-92148819D02*
X135969762Y-92101200D01*
X135969762Y-92101200D02*
X135874524Y-92005961D01*
X135874524Y-92005961D02*
X135826905Y-91910723D01*
X135826905Y-91910723D02*
X135779286Y-91720247D01*
X135779286Y-91720247D02*
X135779286Y-91577390D01*
X135779286Y-91577390D02*
X135826905Y-91386914D01*
X135826905Y-91386914D02*
X135874524Y-91291676D01*
X135874524Y-91291676D02*
X135969762Y-91196438D01*
X135969762Y-91196438D02*
X136112619Y-91148819D01*
X136112619Y-91148819D02*
X136207857Y-91148819D01*
X136207857Y-91148819D02*
X136350714Y-91196438D01*
X136350714Y-91196438D02*
X136398333Y-91244057D01*
X137303095Y-91148819D02*
X136826905Y-91148819D01*
X136826905Y-91148819D02*
X136779286Y-91625009D01*
X136779286Y-91625009D02*
X136826905Y-91577390D01*
X136826905Y-91577390D02*
X136922143Y-91529771D01*
X136922143Y-91529771D02*
X137160238Y-91529771D01*
X137160238Y-91529771D02*
X137255476Y-91577390D01*
X137255476Y-91577390D02*
X137303095Y-91625009D01*
X137303095Y-91625009D02*
X137350714Y-91720247D01*
X137350714Y-91720247D02*
X137350714Y-91958342D01*
X137350714Y-91958342D02*
X137303095Y-92053580D01*
X137303095Y-92053580D02*
X137255476Y-92101200D01*
X137255476Y-92101200D02*
X137160238Y-92148819D01*
X137160238Y-92148819D02*
X136922143Y-92148819D01*
X136922143Y-92148819D02*
X136826905Y-92101200D01*
X136826905Y-92101200D02*
X136779286Y-92053580D01*
X119848333Y-92688580D02*
X119800714Y-92736200D01*
X119800714Y-92736200D02*
X119657857Y-92783819D01*
X119657857Y-92783819D02*
X119562619Y-92783819D01*
X119562619Y-92783819D02*
X119419762Y-92736200D01*
X119419762Y-92736200D02*
X119324524Y-92640961D01*
X119324524Y-92640961D02*
X119276905Y-92545723D01*
X119276905Y-92545723D02*
X119229286Y-92355247D01*
X119229286Y-92355247D02*
X119229286Y-92212390D01*
X119229286Y-92212390D02*
X119276905Y-92021914D01*
X119276905Y-92021914D02*
X119324524Y-91926676D01*
X119324524Y-91926676D02*
X119419762Y-91831438D01*
X119419762Y-91831438D02*
X119562619Y-91783819D01*
X119562619Y-91783819D02*
X119657857Y-91783819D01*
X119657857Y-91783819D02*
X119800714Y-91831438D01*
X119800714Y-91831438D02*
X119848333Y-91879057D01*
X120705476Y-92117152D02*
X120705476Y-92783819D01*
X120467381Y-91736200D02*
X120229286Y-92450485D01*
X120229286Y-92450485D02*
X120848333Y-92450485D01*
X99591905Y-83004819D02*
X99591905Y-82004819D01*
X99591905Y-82004819D02*
X99830000Y-82004819D01*
X99830000Y-82004819D02*
X99972857Y-82052438D01*
X99972857Y-82052438D02*
X100068095Y-82147676D01*
X100068095Y-82147676D02*
X100115714Y-82242914D01*
X100115714Y-82242914D02*
X100163333Y-82433390D01*
X100163333Y-82433390D02*
X100163333Y-82576247D01*
X100163333Y-82576247D02*
X100115714Y-82766723D01*
X100115714Y-82766723D02*
X100068095Y-82861961D01*
X100068095Y-82861961D02*
X99972857Y-82957200D01*
X99972857Y-82957200D02*
X99830000Y-83004819D01*
X99830000Y-83004819D02*
X99591905Y-83004819D01*
X100496667Y-82004819D02*
X101115714Y-82004819D01*
X101115714Y-82004819D02*
X100782381Y-82385771D01*
X100782381Y-82385771D02*
X100925238Y-82385771D01*
X100925238Y-82385771D02*
X101020476Y-82433390D01*
X101020476Y-82433390D02*
X101068095Y-82481009D01*
X101068095Y-82481009D02*
X101115714Y-82576247D01*
X101115714Y-82576247D02*
X101115714Y-82814342D01*
X101115714Y-82814342D02*
X101068095Y-82909580D01*
X101068095Y-82909580D02*
X101020476Y-82957200D01*
X101020476Y-82957200D02*
X100925238Y-83004819D01*
X100925238Y-83004819D02*
X100639524Y-83004819D01*
X100639524Y-83004819D02*
X100544286Y-82957200D01*
X100544286Y-82957200D02*
X100496667Y-82909580D01*
X102668095Y-76654819D02*
X102668095Y-75654819D01*
X103239523Y-76654819D02*
X102810952Y-76083390D01*
X103239523Y-75654819D02*
X102668095Y-76226247D01*
D13*
X115978000Y-98330000D02*
X116308000Y-98330000D01*
X115978000Y-104870000D02*
X115978000Y-98330000D01*
X116308000Y-104870000D02*
X115978000Y-104870000D01*
X118388000Y-104870000D02*
X118718000Y-104870000D01*
X118718000Y-98330000D02*
X118388000Y-98330000D01*
X118718000Y-104870000D02*
X118718000Y-98330000D01*
X112930000Y-98330000D02*
X112930000Y-104870000D01*
X112930000Y-104870000D02*
X113260000Y-104870000D01*
X113260000Y-98330000D02*
X112930000Y-98330000D01*
X115340000Y-98330000D02*
X115670000Y-98330000D01*
X115670000Y-98330000D02*
X115670000Y-104870000D01*
X115670000Y-104870000D02*
X115340000Y-104870000D01*
X107770000Y-77680000D02*
X108650000Y-77680000D01*
X107770000Y-85755000D02*
X113210000Y-85755000D01*
X107770000Y-85875000D02*
X113210000Y-85875000D01*
X107770000Y-85995000D02*
X113210000Y-85995000D01*
X107770000Y-87420000D02*
X107770000Y-77680000D01*
X108650000Y-87420000D02*
X107770000Y-87420000D01*
X112330000Y-87420000D02*
X113210000Y-87420000D01*
X113210000Y-77680000D02*
X112330000Y-77680000D01*
X113210000Y-87420000D02*
X113210000Y-77680000D01*
X156052000Y-100316000D02*
X156052000Y-101574000D01*
X157892000Y-100316000D02*
X157892000Y-101574000D01*
X137174000Y-88615000D02*
X135916000Y-88615000D01*
X137174000Y-90455000D02*
X135916000Y-90455000D01*
X119095000Y-88251000D02*
X119095000Y-89509000D01*
X120935000Y-88251000D02*
X120935000Y-89509000D01*
X97610000Y-77680000D02*
X97610000Y-87420000D01*
X97610000Y-87420000D02*
X98490000Y-87420000D01*
X98490000Y-77680000D02*
X97610000Y-77680000D01*
X102170000Y-77680000D02*
X103050000Y-77680000D01*
X103050000Y-77680000D02*
X103050000Y-87420000D01*
X103050000Y-79105000D02*
X97610000Y-79105000D01*
X103050000Y-79225000D02*
X97610000Y-79225000D01*
X103050000Y-79345000D02*
X97610000Y-79345000D01*
X103050000Y-87420000D02*
X102170000Y-87420000D01*
M02*
