G04 #@! TF.GenerationSoftware,KiCad,Pcbnew,(5.1.5)-3*
G04 #@! TF.CreationDate,2022-06-08T01:14:33+03:00*
G04 #@! TF.ProjectId,c64-wedge-psu-pcb,6336342d-7765-4646-9765-2d7073752d70,rev?*
G04 #@! TF.SameCoordinates,Original*
G04 #@! TF.FileFunction,Legend,Bot*
G04 #@! TF.FilePolarity,Positive*
%FSLAX46Y46*%
G04 Gerber Fmt 4.6, Leading zero omitted, Abs format (unit mm)*
G04 Created by KiCad (PCBNEW (5.1.5)-3) date 2022-06-08 01:14:33*
%MOMM*%
%LPD*%
G04 APERTURE LIST*
%ADD10C,0.120000*%
%ADD11C,0.150000*%
G04 APERTURE END LIST*
D10*
X155780000Y-79610000D02*
X155936000Y-79610000D01*
X153464000Y-79610000D02*
X153620000Y-79610000D01*
X155779837Y-82211130D02*
G75*
G03X155780000Y-80129039I-1079837J1041130D01*
G01*
X153620163Y-82211130D02*
G75*
G02X153620000Y-80129039I1079837J1041130D01*
G01*
X155778608Y-82842335D02*
G75*
G03X155935516Y-79610000I-1078608J1672335D01*
G01*
X153621392Y-82842335D02*
G75*
G02X153464484Y-79610000I1078608J1672335D01*
G01*
X109220000Y-109370000D02*
X109220000Y-109040000D01*
X115760000Y-109370000D02*
X109220000Y-109370000D01*
X115760000Y-109040000D02*
X115760000Y-109370000D01*
X109220000Y-106630000D02*
X109220000Y-106960000D01*
X115760000Y-106630000D02*
X109220000Y-106630000D01*
X115760000Y-106960000D02*
X115760000Y-106630000D01*
X150920000Y-77870000D02*
X150920000Y-77540000D01*
X157460000Y-77870000D02*
X150920000Y-77870000D01*
X157460000Y-77540000D02*
X157460000Y-77870000D01*
X150920000Y-75130000D02*
X150920000Y-75460000D01*
X157460000Y-75130000D02*
X150920000Y-75130000D01*
X157460000Y-75460000D02*
X157460000Y-75130000D01*
X109220000Y-112570000D02*
X109220000Y-112240000D01*
X115760000Y-112570000D02*
X109220000Y-112570000D01*
X115760000Y-112240000D02*
X115760000Y-112570000D01*
X109220000Y-109830000D02*
X109220000Y-110160000D01*
X115760000Y-109830000D02*
X109220000Y-109830000D01*
X115760000Y-110160000D02*
X115760000Y-109830000D01*
X109290000Y-104150000D02*
X111434000Y-104150000D01*
X109290000Y-102450000D02*
X115235000Y-102450000D01*
X109290000Y-100750000D02*
X111434000Y-100750000D01*
X109290000Y-99050000D02*
X115235000Y-99050000D01*
X109290000Y-97350000D02*
X111450000Y-97350000D01*
X93400000Y-105870000D02*
X109290000Y-105870000D01*
X93400000Y-95629000D02*
X109290000Y-95629000D01*
X93400000Y-95629000D02*
X93400000Y-105870000D01*
X109290000Y-95629000D02*
X109290000Y-105870000D01*
X146355000Y-91139491D02*
X144755000Y-91139491D01*
X145555000Y-91939491D02*
X145555000Y-90339491D01*
X141765000Y-75169000D02*
X140235000Y-75169000D01*
X142098000Y-75209000D02*
X139902000Y-75209000D01*
X142351000Y-75249000D02*
X139649000Y-75249000D01*
X142564000Y-75289000D02*
X139436000Y-75289000D01*
X142752000Y-75329000D02*
X139248000Y-75329000D01*
X142920000Y-75369000D02*
X139080000Y-75369000D01*
X143074000Y-75409000D02*
X138926000Y-75409000D01*
X143218000Y-75449000D02*
X138782000Y-75449000D01*
X143351000Y-75489000D02*
X138649000Y-75489000D01*
X143478000Y-75529000D02*
X138522000Y-75529000D01*
X143597000Y-75569000D02*
X138403000Y-75569000D01*
X143711000Y-75609000D02*
X138289000Y-75609000D01*
X143820000Y-75649000D02*
X138180000Y-75649000D01*
X143924000Y-75689000D02*
X138076000Y-75689000D01*
X144024000Y-75729000D02*
X137976000Y-75729000D01*
X144120000Y-75769000D02*
X137880000Y-75769000D01*
X144213000Y-75809000D02*
X137787000Y-75809000D01*
X144303000Y-75849000D02*
X137697000Y-75849000D01*
X144390000Y-75889000D02*
X137610000Y-75889000D01*
X144475000Y-75929000D02*
X137525000Y-75929000D01*
X144557000Y-75969000D02*
X137443000Y-75969000D01*
X144637000Y-76009000D02*
X137363000Y-76009000D01*
X144715000Y-76049000D02*
X137285000Y-76049000D01*
X144790000Y-76089000D02*
X137210000Y-76089000D01*
X144864000Y-76129000D02*
X137136000Y-76129000D01*
X144936000Y-76169000D02*
X137064000Y-76169000D01*
X145007000Y-76209000D02*
X136993000Y-76209000D01*
X145076000Y-76249000D02*
X136924000Y-76249000D01*
X145143000Y-76289000D02*
X136857000Y-76289000D01*
X145209000Y-76329000D02*
X136791000Y-76329000D01*
X145273000Y-76369000D02*
X136727000Y-76369000D01*
X145336000Y-76409000D02*
X136664000Y-76409000D01*
X145398000Y-76449000D02*
X136602000Y-76449000D01*
X145459000Y-76489000D02*
X136541000Y-76489000D01*
X145519000Y-76529000D02*
X136481000Y-76529000D01*
X145577000Y-76569000D02*
X136423000Y-76569000D01*
X145634000Y-76609000D02*
X136366000Y-76609000D01*
X145691000Y-76649000D02*
X136309000Y-76649000D01*
X145746000Y-76689000D02*
X136254000Y-76689000D01*
X145800000Y-76729000D02*
X136200000Y-76729000D01*
X145854000Y-76769000D02*
X136146000Y-76769000D01*
X145906000Y-76809000D02*
X136094000Y-76809000D01*
X145958000Y-76849000D02*
X136042000Y-76849000D01*
X146009000Y-76889000D02*
X135991000Y-76889000D01*
X146059000Y-76929000D02*
X135941000Y-76929000D01*
X146108000Y-76969000D02*
X135892000Y-76969000D01*
X146156000Y-77009000D02*
X135844000Y-77009000D01*
X146204000Y-77049000D02*
X135796000Y-77049000D01*
X146251000Y-77089000D02*
X135749000Y-77089000D01*
X146297000Y-77129000D02*
X135703000Y-77129000D01*
X146343000Y-77169000D02*
X135657000Y-77169000D01*
X146388000Y-77209000D02*
X135612000Y-77209000D01*
X146432000Y-77249000D02*
X135568000Y-77249000D01*
X146475000Y-77289000D02*
X135525000Y-77289000D01*
X146518000Y-77329000D02*
X135482000Y-77329000D01*
X146560000Y-77369000D02*
X135440000Y-77369000D01*
X146602000Y-77409000D02*
X135398000Y-77409000D01*
X146643000Y-77449000D02*
X135357000Y-77449000D01*
X146684000Y-77489000D02*
X135316000Y-77489000D01*
X146724000Y-77529000D02*
X135276000Y-77529000D01*
X146763000Y-77569000D02*
X135237000Y-77569000D01*
X146802000Y-77609000D02*
X135198000Y-77609000D01*
X146840000Y-77649000D02*
X135160000Y-77649000D01*
X146878000Y-77689000D02*
X135122000Y-77689000D01*
X146916000Y-77729000D02*
X135084000Y-77729000D01*
X146952000Y-77769000D02*
X135048000Y-77769000D01*
X146989000Y-77809000D02*
X135011000Y-77809000D01*
X147025000Y-77849000D02*
X134975000Y-77849000D01*
X147060000Y-77889000D02*
X134940000Y-77889000D01*
X147095000Y-77929000D02*
X134905000Y-77929000D01*
X147129000Y-77969000D02*
X134871000Y-77969000D01*
X147163000Y-78009000D02*
X134837000Y-78009000D01*
X147197000Y-78049000D02*
X134803000Y-78049000D01*
X139560000Y-78089000D02*
X134770000Y-78089000D01*
X147230000Y-78089000D02*
X142440000Y-78089000D01*
X139560000Y-78129000D02*
X134737000Y-78129000D01*
X147263000Y-78129000D02*
X142440000Y-78129000D01*
X139560000Y-78169000D02*
X134705000Y-78169000D01*
X147295000Y-78169000D02*
X142440000Y-78169000D01*
X139560000Y-78209000D02*
X134673000Y-78209000D01*
X147327000Y-78209000D02*
X142440000Y-78209000D01*
X139560000Y-78249000D02*
X134642000Y-78249000D01*
X147358000Y-78249000D02*
X142440000Y-78249000D01*
X139560000Y-78289000D02*
X134610000Y-78289000D01*
X147390000Y-78289000D02*
X142440000Y-78289000D01*
X139560000Y-78329000D02*
X134580000Y-78329000D01*
X147420000Y-78329000D02*
X142440000Y-78329000D01*
X139560000Y-78369000D02*
X134550000Y-78369000D01*
X147450000Y-78369000D02*
X142440000Y-78369000D01*
X139560000Y-78409000D02*
X134520000Y-78409000D01*
X147480000Y-78409000D02*
X142440000Y-78409000D01*
X139560000Y-78449000D02*
X134490000Y-78449000D01*
X147510000Y-78449000D02*
X142440000Y-78449000D01*
X139560000Y-78489000D02*
X134461000Y-78489000D01*
X147539000Y-78489000D02*
X142440000Y-78489000D01*
X139560000Y-78529000D02*
X134432000Y-78529000D01*
X147568000Y-78529000D02*
X142440000Y-78529000D01*
X139560000Y-78569000D02*
X134404000Y-78569000D01*
X147596000Y-78569000D02*
X142440000Y-78569000D01*
X139560000Y-78609000D02*
X134376000Y-78609000D01*
X147624000Y-78609000D02*
X142440000Y-78609000D01*
X139560000Y-78649000D02*
X134348000Y-78649000D01*
X147652000Y-78649000D02*
X142440000Y-78649000D01*
X139560000Y-78689000D02*
X134321000Y-78689000D01*
X147679000Y-78689000D02*
X142440000Y-78689000D01*
X139560000Y-78729000D02*
X134294000Y-78729000D01*
X147706000Y-78729000D02*
X142440000Y-78729000D01*
X139560000Y-78769000D02*
X134267000Y-78769000D01*
X147733000Y-78769000D02*
X142440000Y-78769000D01*
X139560000Y-78809000D02*
X134241000Y-78809000D01*
X147759000Y-78809000D02*
X142440000Y-78809000D01*
X139560000Y-78849000D02*
X134215000Y-78849000D01*
X147785000Y-78849000D02*
X142440000Y-78849000D01*
X139560000Y-78889000D02*
X134189000Y-78889000D01*
X147811000Y-78889000D02*
X142440000Y-78889000D01*
X139560000Y-78929000D02*
X134164000Y-78929000D01*
X147836000Y-78929000D02*
X142440000Y-78929000D01*
X139560000Y-78969000D02*
X134139000Y-78969000D01*
X147861000Y-78969000D02*
X142440000Y-78969000D01*
X139560000Y-79009000D02*
X134114000Y-79009000D01*
X147886000Y-79009000D02*
X142440000Y-79009000D01*
X139560000Y-79049000D02*
X134090000Y-79049000D01*
X147910000Y-79049000D02*
X142440000Y-79049000D01*
X139560000Y-79089000D02*
X134066000Y-79089000D01*
X147934000Y-79089000D02*
X142440000Y-79089000D01*
X139560000Y-79129000D02*
X134042000Y-79129000D01*
X147958000Y-79129000D02*
X142440000Y-79129000D01*
X139560000Y-79169000D02*
X134019000Y-79169000D01*
X147981000Y-79169000D02*
X142440000Y-79169000D01*
X139560000Y-79209000D02*
X133996000Y-79209000D01*
X148004000Y-79209000D02*
X142440000Y-79209000D01*
X139560000Y-79249000D02*
X133973000Y-79249000D01*
X148027000Y-79249000D02*
X142440000Y-79249000D01*
X139560000Y-79289000D02*
X133951000Y-79289000D01*
X148049000Y-79289000D02*
X142440000Y-79289000D01*
X139560000Y-79329000D02*
X133928000Y-79329000D01*
X148072000Y-79329000D02*
X142440000Y-79329000D01*
X139560000Y-79369000D02*
X133906000Y-79369000D01*
X148094000Y-79369000D02*
X142440000Y-79369000D01*
X139560000Y-79409000D02*
X133885000Y-79409000D01*
X148115000Y-79409000D02*
X142440000Y-79409000D01*
X139560000Y-79449000D02*
X133864000Y-79449000D01*
X148136000Y-79449000D02*
X142440000Y-79449000D01*
X139560000Y-79489000D02*
X133843000Y-79489000D01*
X148157000Y-79489000D02*
X142440000Y-79489000D01*
X139560000Y-79529000D02*
X133822000Y-79529000D01*
X148178000Y-79529000D02*
X142440000Y-79529000D01*
X139560000Y-79569000D02*
X133801000Y-79569000D01*
X148199000Y-79569000D02*
X142440000Y-79569000D01*
X139560000Y-79609000D02*
X133781000Y-79609000D01*
X148219000Y-79609000D02*
X142440000Y-79609000D01*
X139560000Y-79649000D02*
X133761000Y-79649000D01*
X148239000Y-79649000D02*
X142440000Y-79649000D01*
X139560000Y-79689000D02*
X133742000Y-79689000D01*
X148258000Y-79689000D02*
X142440000Y-79689000D01*
X139560000Y-79729000D02*
X133722000Y-79729000D01*
X148278000Y-79729000D02*
X142440000Y-79729000D01*
X139560000Y-79769000D02*
X133703000Y-79769000D01*
X148297000Y-79769000D02*
X142440000Y-79769000D01*
X139560000Y-79809000D02*
X133684000Y-79809000D01*
X148316000Y-79809000D02*
X142440000Y-79809000D01*
X139560000Y-79849000D02*
X133666000Y-79849000D01*
X148334000Y-79849000D02*
X142440000Y-79849000D01*
X139560000Y-79889000D02*
X133647000Y-79889000D01*
X148353000Y-79889000D02*
X142440000Y-79889000D01*
X139560000Y-79929000D02*
X133629000Y-79929000D01*
X148371000Y-79929000D02*
X142440000Y-79929000D01*
X139560000Y-79969000D02*
X133611000Y-79969000D01*
X148389000Y-79969000D02*
X142440000Y-79969000D01*
X139560000Y-80009000D02*
X133594000Y-80009000D01*
X148406000Y-80009000D02*
X142440000Y-80009000D01*
X139560000Y-80049000D02*
X133577000Y-80049000D01*
X148423000Y-80049000D02*
X142440000Y-80049000D01*
X139560000Y-80089000D02*
X133560000Y-80089000D01*
X148440000Y-80089000D02*
X142440000Y-80089000D01*
X139560000Y-80129000D02*
X133543000Y-80129000D01*
X148457000Y-80129000D02*
X142440000Y-80129000D01*
X139560000Y-80169000D02*
X133526000Y-80169000D01*
X148474000Y-80169000D02*
X142440000Y-80169000D01*
X139560000Y-80209000D02*
X133510000Y-80209000D01*
X148490000Y-80209000D02*
X142440000Y-80209000D01*
X139560000Y-80249000D02*
X133494000Y-80249000D01*
X148506000Y-80249000D02*
X142440000Y-80249000D01*
X139560000Y-80289000D02*
X133478000Y-80289000D01*
X148522000Y-80289000D02*
X142440000Y-80289000D01*
X139560000Y-80329000D02*
X133463000Y-80329000D01*
X148537000Y-80329000D02*
X142440000Y-80329000D01*
X139560000Y-80369000D02*
X133447000Y-80369000D01*
X148553000Y-80369000D02*
X142440000Y-80369000D01*
X139560000Y-80409000D02*
X133432000Y-80409000D01*
X148568000Y-80409000D02*
X142440000Y-80409000D01*
X139560000Y-80449000D02*
X133418000Y-80449000D01*
X148582000Y-80449000D02*
X142440000Y-80449000D01*
X139560000Y-80489000D02*
X133403000Y-80489000D01*
X148597000Y-80489000D02*
X142440000Y-80489000D01*
X139560000Y-80529000D02*
X133389000Y-80529000D01*
X148611000Y-80529000D02*
X142440000Y-80529000D01*
X139560000Y-80569000D02*
X133375000Y-80569000D01*
X148625000Y-80569000D02*
X142440000Y-80569000D01*
X139560000Y-80609000D02*
X133361000Y-80609000D01*
X148639000Y-80609000D02*
X142440000Y-80609000D01*
X139560000Y-80649000D02*
X133347000Y-80649000D01*
X148653000Y-80649000D02*
X142440000Y-80649000D01*
X139560000Y-80689000D02*
X133334000Y-80689000D01*
X148666000Y-80689000D02*
X142440000Y-80689000D01*
X139560000Y-80729000D02*
X133320000Y-80729000D01*
X148680000Y-80729000D02*
X142440000Y-80729000D01*
X139560000Y-80769000D02*
X133307000Y-80769000D01*
X148693000Y-80769000D02*
X142440000Y-80769000D01*
X139560000Y-80809000D02*
X133295000Y-80809000D01*
X148705000Y-80809000D02*
X142440000Y-80809000D01*
X139560000Y-80849000D02*
X133282000Y-80849000D01*
X148718000Y-80849000D02*
X142440000Y-80849000D01*
X139560000Y-80889000D02*
X133270000Y-80889000D01*
X148730000Y-80889000D02*
X142440000Y-80889000D01*
X139560000Y-80929000D02*
X133258000Y-80929000D01*
X148742000Y-80929000D02*
X142440000Y-80929000D01*
X148754000Y-80969000D02*
X133246000Y-80969000D01*
X148765000Y-81009000D02*
X133235000Y-81009000D01*
X148777000Y-81049000D02*
X133223000Y-81049000D01*
X148788000Y-81089000D02*
X133212000Y-81089000D01*
X148799000Y-81129000D02*
X133201000Y-81129000D01*
X148810000Y-81169000D02*
X133190000Y-81169000D01*
X148820000Y-81209000D02*
X133180000Y-81209000D01*
X148830000Y-81249000D02*
X133170000Y-81249000D01*
X148840000Y-81289000D02*
X133160000Y-81289000D01*
X148850000Y-81329000D02*
X133150000Y-81329000D01*
X148860000Y-81369000D02*
X133140000Y-81369000D01*
X148869000Y-81409000D02*
X133131000Y-81409000D01*
X148878000Y-81449000D02*
X133122000Y-81449000D01*
X148887000Y-81489000D02*
X133113000Y-81489000D01*
X148896000Y-81529000D02*
X133104000Y-81529000D01*
X148905000Y-81569000D02*
X133095000Y-81569000D01*
X148913000Y-81609000D02*
X133087000Y-81609000D01*
X148921000Y-81649000D02*
X133079000Y-81649000D01*
X148929000Y-81689000D02*
X133071000Y-81689000D01*
X148937000Y-81729000D02*
X133063000Y-81729000D01*
X148944000Y-81769000D02*
X133056000Y-81769000D01*
X148952000Y-81809000D02*
X133048000Y-81809000D01*
X148959000Y-81849000D02*
X133041000Y-81849000D01*
X148966000Y-81889000D02*
X133034000Y-81889000D01*
X148972000Y-81929000D02*
X133028000Y-81929000D01*
X148979000Y-81969000D02*
X133021000Y-81969000D01*
X148985000Y-82009000D02*
X133015000Y-82009000D01*
X148991000Y-82049000D02*
X133009000Y-82049000D01*
X148997000Y-82089000D02*
X133003000Y-82089000D01*
X149003000Y-82129000D02*
X132997000Y-82129000D01*
X149008000Y-82169000D02*
X132992000Y-82169000D01*
X149014000Y-82209000D02*
X132986000Y-82209000D01*
X149019000Y-82249000D02*
X132981000Y-82249000D01*
X149024000Y-82289000D02*
X132976000Y-82289000D01*
X149028000Y-82329000D02*
X132972000Y-82329000D01*
X149033000Y-82369000D02*
X132967000Y-82369000D01*
X149037000Y-82409000D02*
X132963000Y-82409000D01*
X149041000Y-82449000D02*
X132959000Y-82449000D01*
X149045000Y-82489000D02*
X132955000Y-82489000D01*
X149049000Y-82529000D02*
X132951000Y-82529000D01*
X149052000Y-82570000D02*
X132948000Y-82570000D01*
X149055000Y-82610000D02*
X132945000Y-82610000D01*
X149058000Y-82650000D02*
X132942000Y-82650000D01*
X149061000Y-82690000D02*
X132939000Y-82690000D01*
X149064000Y-82730000D02*
X132936000Y-82730000D01*
X149066000Y-82770000D02*
X132934000Y-82770000D01*
X149069000Y-82810000D02*
X132931000Y-82810000D01*
X149071000Y-82850000D02*
X132929000Y-82850000D01*
X149073000Y-82890000D02*
X132927000Y-82890000D01*
X149074000Y-82930000D02*
X132926000Y-82930000D01*
X149076000Y-82970000D02*
X132924000Y-82970000D01*
X149077000Y-83010000D02*
X132923000Y-83010000D01*
X149078000Y-83050000D02*
X132922000Y-83050000D01*
X149079000Y-83090000D02*
X132921000Y-83090000D01*
X149080000Y-83130000D02*
X132920000Y-83130000D01*
X149080000Y-83170000D02*
X132920000Y-83170000D01*
X149080000Y-83210000D02*
X132920000Y-83210000D01*
X149081000Y-83250000D02*
X132919000Y-83250000D01*
X149120000Y-83250000D02*
G75*
G03X149120000Y-83250000I-8120000J0D01*
G01*
X120855000Y-91139491D02*
X119255000Y-91139491D01*
X120055000Y-91939491D02*
X120055000Y-90339491D01*
X116265000Y-75169000D02*
X114735000Y-75169000D01*
X116598000Y-75209000D02*
X114402000Y-75209000D01*
X116851000Y-75249000D02*
X114149000Y-75249000D01*
X117064000Y-75289000D02*
X113936000Y-75289000D01*
X117252000Y-75329000D02*
X113748000Y-75329000D01*
X117420000Y-75369000D02*
X113580000Y-75369000D01*
X117574000Y-75409000D02*
X113426000Y-75409000D01*
X117718000Y-75449000D02*
X113282000Y-75449000D01*
X117851000Y-75489000D02*
X113149000Y-75489000D01*
X117978000Y-75529000D02*
X113022000Y-75529000D01*
X118097000Y-75569000D02*
X112903000Y-75569000D01*
X118211000Y-75609000D02*
X112789000Y-75609000D01*
X118320000Y-75649000D02*
X112680000Y-75649000D01*
X118424000Y-75689000D02*
X112576000Y-75689000D01*
X118524000Y-75729000D02*
X112476000Y-75729000D01*
X118620000Y-75769000D02*
X112380000Y-75769000D01*
X118713000Y-75809000D02*
X112287000Y-75809000D01*
X118803000Y-75849000D02*
X112197000Y-75849000D01*
X118890000Y-75889000D02*
X112110000Y-75889000D01*
X118975000Y-75929000D02*
X112025000Y-75929000D01*
X119057000Y-75969000D02*
X111943000Y-75969000D01*
X119137000Y-76009000D02*
X111863000Y-76009000D01*
X119215000Y-76049000D02*
X111785000Y-76049000D01*
X119290000Y-76089000D02*
X111710000Y-76089000D01*
X119364000Y-76129000D02*
X111636000Y-76129000D01*
X119436000Y-76169000D02*
X111564000Y-76169000D01*
X119507000Y-76209000D02*
X111493000Y-76209000D01*
X119576000Y-76249000D02*
X111424000Y-76249000D01*
X119643000Y-76289000D02*
X111357000Y-76289000D01*
X119709000Y-76329000D02*
X111291000Y-76329000D01*
X119773000Y-76369000D02*
X111227000Y-76369000D01*
X119836000Y-76409000D02*
X111164000Y-76409000D01*
X119898000Y-76449000D02*
X111102000Y-76449000D01*
X119959000Y-76489000D02*
X111041000Y-76489000D01*
X120019000Y-76529000D02*
X110981000Y-76529000D01*
X120077000Y-76569000D02*
X110923000Y-76569000D01*
X120134000Y-76609000D02*
X110866000Y-76609000D01*
X120191000Y-76649000D02*
X110809000Y-76649000D01*
X120246000Y-76689000D02*
X110754000Y-76689000D01*
X120300000Y-76729000D02*
X110700000Y-76729000D01*
X120354000Y-76769000D02*
X110646000Y-76769000D01*
X120406000Y-76809000D02*
X110594000Y-76809000D01*
X120458000Y-76849000D02*
X110542000Y-76849000D01*
X120509000Y-76889000D02*
X110491000Y-76889000D01*
X120559000Y-76929000D02*
X110441000Y-76929000D01*
X120608000Y-76969000D02*
X110392000Y-76969000D01*
X120656000Y-77009000D02*
X110344000Y-77009000D01*
X120704000Y-77049000D02*
X110296000Y-77049000D01*
X120751000Y-77089000D02*
X110249000Y-77089000D01*
X120797000Y-77129000D02*
X110203000Y-77129000D01*
X120843000Y-77169000D02*
X110157000Y-77169000D01*
X120888000Y-77209000D02*
X110112000Y-77209000D01*
X120932000Y-77249000D02*
X110068000Y-77249000D01*
X120975000Y-77289000D02*
X110025000Y-77289000D01*
X121018000Y-77329000D02*
X109982000Y-77329000D01*
X121060000Y-77369000D02*
X109940000Y-77369000D01*
X121102000Y-77409000D02*
X109898000Y-77409000D01*
X121143000Y-77449000D02*
X109857000Y-77449000D01*
X121184000Y-77489000D02*
X109816000Y-77489000D01*
X121224000Y-77529000D02*
X109776000Y-77529000D01*
X121263000Y-77569000D02*
X109737000Y-77569000D01*
X121302000Y-77609000D02*
X109698000Y-77609000D01*
X121340000Y-77649000D02*
X109660000Y-77649000D01*
X121378000Y-77689000D02*
X109622000Y-77689000D01*
X121416000Y-77729000D02*
X109584000Y-77729000D01*
X121452000Y-77769000D02*
X109548000Y-77769000D01*
X121489000Y-77809000D02*
X109511000Y-77809000D01*
X121525000Y-77849000D02*
X109475000Y-77849000D01*
X121560000Y-77889000D02*
X109440000Y-77889000D01*
X121595000Y-77929000D02*
X109405000Y-77929000D01*
X121629000Y-77969000D02*
X109371000Y-77969000D01*
X121663000Y-78009000D02*
X109337000Y-78009000D01*
X121697000Y-78049000D02*
X109303000Y-78049000D01*
X114060000Y-78089000D02*
X109270000Y-78089000D01*
X121730000Y-78089000D02*
X116940000Y-78089000D01*
X114060000Y-78129000D02*
X109237000Y-78129000D01*
X121763000Y-78129000D02*
X116940000Y-78129000D01*
X114060000Y-78169000D02*
X109205000Y-78169000D01*
X121795000Y-78169000D02*
X116940000Y-78169000D01*
X114060000Y-78209000D02*
X109173000Y-78209000D01*
X121827000Y-78209000D02*
X116940000Y-78209000D01*
X114060000Y-78249000D02*
X109142000Y-78249000D01*
X121858000Y-78249000D02*
X116940000Y-78249000D01*
X114060000Y-78289000D02*
X109110000Y-78289000D01*
X121890000Y-78289000D02*
X116940000Y-78289000D01*
X114060000Y-78329000D02*
X109080000Y-78329000D01*
X121920000Y-78329000D02*
X116940000Y-78329000D01*
X114060000Y-78369000D02*
X109050000Y-78369000D01*
X121950000Y-78369000D02*
X116940000Y-78369000D01*
X114060000Y-78409000D02*
X109020000Y-78409000D01*
X121980000Y-78409000D02*
X116940000Y-78409000D01*
X114060000Y-78449000D02*
X108990000Y-78449000D01*
X122010000Y-78449000D02*
X116940000Y-78449000D01*
X114060000Y-78489000D02*
X108961000Y-78489000D01*
X122039000Y-78489000D02*
X116940000Y-78489000D01*
X114060000Y-78529000D02*
X108932000Y-78529000D01*
X122068000Y-78529000D02*
X116940000Y-78529000D01*
X114060000Y-78569000D02*
X108904000Y-78569000D01*
X122096000Y-78569000D02*
X116940000Y-78569000D01*
X114060000Y-78609000D02*
X108876000Y-78609000D01*
X122124000Y-78609000D02*
X116940000Y-78609000D01*
X114060000Y-78649000D02*
X108848000Y-78649000D01*
X122152000Y-78649000D02*
X116940000Y-78649000D01*
X114060000Y-78689000D02*
X108821000Y-78689000D01*
X122179000Y-78689000D02*
X116940000Y-78689000D01*
X114060000Y-78729000D02*
X108794000Y-78729000D01*
X122206000Y-78729000D02*
X116940000Y-78729000D01*
X114060000Y-78769000D02*
X108767000Y-78769000D01*
X122233000Y-78769000D02*
X116940000Y-78769000D01*
X114060000Y-78809000D02*
X108741000Y-78809000D01*
X122259000Y-78809000D02*
X116940000Y-78809000D01*
X114060000Y-78849000D02*
X108715000Y-78849000D01*
X122285000Y-78849000D02*
X116940000Y-78849000D01*
X114060000Y-78889000D02*
X108689000Y-78889000D01*
X122311000Y-78889000D02*
X116940000Y-78889000D01*
X114060000Y-78929000D02*
X108664000Y-78929000D01*
X122336000Y-78929000D02*
X116940000Y-78929000D01*
X114060000Y-78969000D02*
X108639000Y-78969000D01*
X122361000Y-78969000D02*
X116940000Y-78969000D01*
X114060000Y-79009000D02*
X108614000Y-79009000D01*
X122386000Y-79009000D02*
X116940000Y-79009000D01*
X114060000Y-79049000D02*
X108590000Y-79049000D01*
X122410000Y-79049000D02*
X116940000Y-79049000D01*
X114060000Y-79089000D02*
X108566000Y-79089000D01*
X122434000Y-79089000D02*
X116940000Y-79089000D01*
X114060000Y-79129000D02*
X108542000Y-79129000D01*
X122458000Y-79129000D02*
X116940000Y-79129000D01*
X114060000Y-79169000D02*
X108519000Y-79169000D01*
X122481000Y-79169000D02*
X116940000Y-79169000D01*
X114060000Y-79209000D02*
X108496000Y-79209000D01*
X122504000Y-79209000D02*
X116940000Y-79209000D01*
X114060000Y-79249000D02*
X108473000Y-79249000D01*
X122527000Y-79249000D02*
X116940000Y-79249000D01*
X114060000Y-79289000D02*
X108451000Y-79289000D01*
X122549000Y-79289000D02*
X116940000Y-79289000D01*
X114060000Y-79329000D02*
X108428000Y-79329000D01*
X122572000Y-79329000D02*
X116940000Y-79329000D01*
X114060000Y-79369000D02*
X108406000Y-79369000D01*
X122594000Y-79369000D02*
X116940000Y-79369000D01*
X114060000Y-79409000D02*
X108385000Y-79409000D01*
X122615000Y-79409000D02*
X116940000Y-79409000D01*
X114060000Y-79449000D02*
X108364000Y-79449000D01*
X122636000Y-79449000D02*
X116940000Y-79449000D01*
X114060000Y-79489000D02*
X108343000Y-79489000D01*
X122657000Y-79489000D02*
X116940000Y-79489000D01*
X114060000Y-79529000D02*
X108322000Y-79529000D01*
X122678000Y-79529000D02*
X116940000Y-79529000D01*
X114060000Y-79569000D02*
X108301000Y-79569000D01*
X122699000Y-79569000D02*
X116940000Y-79569000D01*
X114060000Y-79609000D02*
X108281000Y-79609000D01*
X122719000Y-79609000D02*
X116940000Y-79609000D01*
X114060000Y-79649000D02*
X108261000Y-79649000D01*
X122739000Y-79649000D02*
X116940000Y-79649000D01*
X114060000Y-79689000D02*
X108242000Y-79689000D01*
X122758000Y-79689000D02*
X116940000Y-79689000D01*
X114060000Y-79729000D02*
X108222000Y-79729000D01*
X122778000Y-79729000D02*
X116940000Y-79729000D01*
X114060000Y-79769000D02*
X108203000Y-79769000D01*
X122797000Y-79769000D02*
X116940000Y-79769000D01*
X114060000Y-79809000D02*
X108184000Y-79809000D01*
X122816000Y-79809000D02*
X116940000Y-79809000D01*
X114060000Y-79849000D02*
X108166000Y-79849000D01*
X122834000Y-79849000D02*
X116940000Y-79849000D01*
X114060000Y-79889000D02*
X108147000Y-79889000D01*
X122853000Y-79889000D02*
X116940000Y-79889000D01*
X114060000Y-79929000D02*
X108129000Y-79929000D01*
X122871000Y-79929000D02*
X116940000Y-79929000D01*
X114060000Y-79969000D02*
X108111000Y-79969000D01*
X122889000Y-79969000D02*
X116940000Y-79969000D01*
X114060000Y-80009000D02*
X108094000Y-80009000D01*
X122906000Y-80009000D02*
X116940000Y-80009000D01*
X114060000Y-80049000D02*
X108077000Y-80049000D01*
X122923000Y-80049000D02*
X116940000Y-80049000D01*
X114060000Y-80089000D02*
X108060000Y-80089000D01*
X122940000Y-80089000D02*
X116940000Y-80089000D01*
X114060000Y-80129000D02*
X108043000Y-80129000D01*
X122957000Y-80129000D02*
X116940000Y-80129000D01*
X114060000Y-80169000D02*
X108026000Y-80169000D01*
X122974000Y-80169000D02*
X116940000Y-80169000D01*
X114060000Y-80209000D02*
X108010000Y-80209000D01*
X122990000Y-80209000D02*
X116940000Y-80209000D01*
X114060000Y-80249000D02*
X107994000Y-80249000D01*
X123006000Y-80249000D02*
X116940000Y-80249000D01*
X114060000Y-80289000D02*
X107978000Y-80289000D01*
X123022000Y-80289000D02*
X116940000Y-80289000D01*
X114060000Y-80329000D02*
X107963000Y-80329000D01*
X123037000Y-80329000D02*
X116940000Y-80329000D01*
X114060000Y-80369000D02*
X107947000Y-80369000D01*
X123053000Y-80369000D02*
X116940000Y-80369000D01*
X114060000Y-80409000D02*
X107932000Y-80409000D01*
X123068000Y-80409000D02*
X116940000Y-80409000D01*
X114060000Y-80449000D02*
X107918000Y-80449000D01*
X123082000Y-80449000D02*
X116940000Y-80449000D01*
X114060000Y-80489000D02*
X107903000Y-80489000D01*
X123097000Y-80489000D02*
X116940000Y-80489000D01*
X114060000Y-80529000D02*
X107889000Y-80529000D01*
X123111000Y-80529000D02*
X116940000Y-80529000D01*
X114060000Y-80569000D02*
X107875000Y-80569000D01*
X123125000Y-80569000D02*
X116940000Y-80569000D01*
X114060000Y-80609000D02*
X107861000Y-80609000D01*
X123139000Y-80609000D02*
X116940000Y-80609000D01*
X114060000Y-80649000D02*
X107847000Y-80649000D01*
X123153000Y-80649000D02*
X116940000Y-80649000D01*
X114060000Y-80689000D02*
X107834000Y-80689000D01*
X123166000Y-80689000D02*
X116940000Y-80689000D01*
X114060000Y-80729000D02*
X107820000Y-80729000D01*
X123180000Y-80729000D02*
X116940000Y-80729000D01*
X114060000Y-80769000D02*
X107807000Y-80769000D01*
X123193000Y-80769000D02*
X116940000Y-80769000D01*
X114060000Y-80809000D02*
X107795000Y-80809000D01*
X123205000Y-80809000D02*
X116940000Y-80809000D01*
X114060000Y-80849000D02*
X107782000Y-80849000D01*
X123218000Y-80849000D02*
X116940000Y-80849000D01*
X114060000Y-80889000D02*
X107770000Y-80889000D01*
X123230000Y-80889000D02*
X116940000Y-80889000D01*
X114060000Y-80929000D02*
X107758000Y-80929000D01*
X123242000Y-80929000D02*
X116940000Y-80929000D01*
X123254000Y-80969000D02*
X107746000Y-80969000D01*
X123265000Y-81009000D02*
X107735000Y-81009000D01*
X123277000Y-81049000D02*
X107723000Y-81049000D01*
X123288000Y-81089000D02*
X107712000Y-81089000D01*
X123299000Y-81129000D02*
X107701000Y-81129000D01*
X123310000Y-81169000D02*
X107690000Y-81169000D01*
X123320000Y-81209000D02*
X107680000Y-81209000D01*
X123330000Y-81249000D02*
X107670000Y-81249000D01*
X123340000Y-81289000D02*
X107660000Y-81289000D01*
X123350000Y-81329000D02*
X107650000Y-81329000D01*
X123360000Y-81369000D02*
X107640000Y-81369000D01*
X123369000Y-81409000D02*
X107631000Y-81409000D01*
X123378000Y-81449000D02*
X107622000Y-81449000D01*
X123387000Y-81489000D02*
X107613000Y-81489000D01*
X123396000Y-81529000D02*
X107604000Y-81529000D01*
X123405000Y-81569000D02*
X107595000Y-81569000D01*
X123413000Y-81609000D02*
X107587000Y-81609000D01*
X123421000Y-81649000D02*
X107579000Y-81649000D01*
X123429000Y-81689000D02*
X107571000Y-81689000D01*
X123437000Y-81729000D02*
X107563000Y-81729000D01*
X123444000Y-81769000D02*
X107556000Y-81769000D01*
X123452000Y-81809000D02*
X107548000Y-81809000D01*
X123459000Y-81849000D02*
X107541000Y-81849000D01*
X123466000Y-81889000D02*
X107534000Y-81889000D01*
X123472000Y-81929000D02*
X107528000Y-81929000D01*
X123479000Y-81969000D02*
X107521000Y-81969000D01*
X123485000Y-82009000D02*
X107515000Y-82009000D01*
X123491000Y-82049000D02*
X107509000Y-82049000D01*
X123497000Y-82089000D02*
X107503000Y-82089000D01*
X123503000Y-82129000D02*
X107497000Y-82129000D01*
X123508000Y-82169000D02*
X107492000Y-82169000D01*
X123514000Y-82209000D02*
X107486000Y-82209000D01*
X123519000Y-82249000D02*
X107481000Y-82249000D01*
X123524000Y-82289000D02*
X107476000Y-82289000D01*
X123528000Y-82329000D02*
X107472000Y-82329000D01*
X123533000Y-82369000D02*
X107467000Y-82369000D01*
X123537000Y-82409000D02*
X107463000Y-82409000D01*
X123541000Y-82449000D02*
X107459000Y-82449000D01*
X123545000Y-82489000D02*
X107455000Y-82489000D01*
X123549000Y-82529000D02*
X107451000Y-82529000D01*
X123552000Y-82570000D02*
X107448000Y-82570000D01*
X123555000Y-82610000D02*
X107445000Y-82610000D01*
X123558000Y-82650000D02*
X107442000Y-82650000D01*
X123561000Y-82690000D02*
X107439000Y-82690000D01*
X123564000Y-82730000D02*
X107436000Y-82730000D01*
X123566000Y-82770000D02*
X107434000Y-82770000D01*
X123569000Y-82810000D02*
X107431000Y-82810000D01*
X123571000Y-82850000D02*
X107429000Y-82850000D01*
X123573000Y-82890000D02*
X107427000Y-82890000D01*
X123574000Y-82930000D02*
X107426000Y-82930000D01*
X123576000Y-82970000D02*
X107424000Y-82970000D01*
X123577000Y-83010000D02*
X107423000Y-83010000D01*
X123578000Y-83050000D02*
X107422000Y-83050000D01*
X123579000Y-83090000D02*
X107421000Y-83090000D01*
X123580000Y-83130000D02*
X107420000Y-83130000D01*
X123580000Y-83170000D02*
X107420000Y-83170000D01*
X123580000Y-83210000D02*
X107420000Y-83210000D01*
X123581000Y-83250000D02*
X107419000Y-83250000D01*
X123620000Y-83250000D02*
G75*
G03X123620000Y-83250000I-8120000J0D01*
G01*
X148190000Y-109120000D02*
X156430000Y-109120000D01*
X148190000Y-92880000D02*
X156430000Y-92880000D01*
X156430000Y-102742000D02*
X156430000Y-109120000D01*
X156430000Y-92880000D02*
X156430000Y-99258000D01*
X148190000Y-102742000D02*
X148190000Y-109120000D01*
X148190000Y-92880000D02*
X148190000Y-99258000D01*
X155715000Y-92259698D02*
X154915000Y-92259698D01*
X155315000Y-92659698D02*
X155315000Y-91859698D01*
X153533000Y-84169000D02*
X152467000Y-84169000D01*
X153768000Y-84209000D02*
X152232000Y-84209000D01*
X153948000Y-84249000D02*
X152052000Y-84249000D01*
X154098000Y-84289000D02*
X151902000Y-84289000D01*
X154229000Y-84329000D02*
X151771000Y-84329000D01*
X154346000Y-84369000D02*
X151654000Y-84369000D01*
X154453000Y-84409000D02*
X151547000Y-84409000D01*
X154552000Y-84449000D02*
X151448000Y-84449000D01*
X154645000Y-84489000D02*
X151355000Y-84489000D01*
X154731000Y-84529000D02*
X151269000Y-84529000D01*
X154813000Y-84569000D02*
X151187000Y-84569000D01*
X154890000Y-84609000D02*
X151110000Y-84609000D01*
X154964000Y-84649000D02*
X151036000Y-84649000D01*
X155034000Y-84689000D02*
X150966000Y-84689000D01*
X155102000Y-84729000D02*
X150898000Y-84729000D01*
X155166000Y-84769000D02*
X150834000Y-84769000D01*
X155228000Y-84809000D02*
X150772000Y-84809000D01*
X155287000Y-84849000D02*
X150713000Y-84849000D01*
X155345000Y-84889000D02*
X150655000Y-84889000D01*
X155400000Y-84929000D02*
X150600000Y-84929000D01*
X155454000Y-84969000D02*
X150546000Y-84969000D01*
X155505000Y-85009000D02*
X150495000Y-85009000D01*
X155556000Y-85049000D02*
X150444000Y-85049000D01*
X155604000Y-85089000D02*
X150396000Y-85089000D01*
X155651000Y-85129000D02*
X150349000Y-85129000D01*
X155697000Y-85169000D02*
X150303000Y-85169000D01*
X155741000Y-85209000D02*
X150259000Y-85209000D01*
X155784000Y-85249000D02*
X150216000Y-85249000D01*
X155826000Y-85289000D02*
X150174000Y-85289000D01*
X155867000Y-85329000D02*
X150133000Y-85329000D01*
X155907000Y-85369000D02*
X150093000Y-85369000D01*
X155945000Y-85409000D02*
X150055000Y-85409000D01*
X155983000Y-85449000D02*
X150017000Y-85449000D01*
X151960000Y-85489000D02*
X149981000Y-85489000D01*
X156019000Y-85489000D02*
X154040000Y-85489000D01*
X151960000Y-85529000D02*
X149945000Y-85529000D01*
X156055000Y-85529000D02*
X154040000Y-85529000D01*
X151960000Y-85569000D02*
X149910000Y-85569000D01*
X156090000Y-85569000D02*
X154040000Y-85569000D01*
X151960000Y-85609000D02*
X149876000Y-85609000D01*
X156124000Y-85609000D02*
X154040000Y-85609000D01*
X151960000Y-85649000D02*
X149844000Y-85649000D01*
X156156000Y-85649000D02*
X154040000Y-85649000D01*
X151960000Y-85689000D02*
X149811000Y-85689000D01*
X156189000Y-85689000D02*
X154040000Y-85689000D01*
X151960000Y-85729000D02*
X149780000Y-85729000D01*
X156220000Y-85729000D02*
X154040000Y-85729000D01*
X151960000Y-85769000D02*
X149750000Y-85769000D01*
X156250000Y-85769000D02*
X154040000Y-85769000D01*
X151960000Y-85809000D02*
X149720000Y-85809000D01*
X156280000Y-85809000D02*
X154040000Y-85809000D01*
X151960000Y-85849000D02*
X149691000Y-85849000D01*
X156309000Y-85849000D02*
X154040000Y-85849000D01*
X151960000Y-85889000D02*
X149662000Y-85889000D01*
X156338000Y-85889000D02*
X154040000Y-85889000D01*
X151960000Y-85929000D02*
X149635000Y-85929000D01*
X156365000Y-85929000D02*
X154040000Y-85929000D01*
X151960000Y-85969000D02*
X149608000Y-85969000D01*
X156392000Y-85969000D02*
X154040000Y-85969000D01*
X151960000Y-86009000D02*
X149582000Y-86009000D01*
X156418000Y-86009000D02*
X154040000Y-86009000D01*
X151960000Y-86049000D02*
X149556000Y-86049000D01*
X156444000Y-86049000D02*
X154040000Y-86049000D01*
X151960000Y-86089000D02*
X149531000Y-86089000D01*
X156469000Y-86089000D02*
X154040000Y-86089000D01*
X151960000Y-86129000D02*
X149507000Y-86129000D01*
X156493000Y-86129000D02*
X154040000Y-86129000D01*
X151960000Y-86169000D02*
X149483000Y-86169000D01*
X156517000Y-86169000D02*
X154040000Y-86169000D01*
X151960000Y-86209000D02*
X149460000Y-86209000D01*
X156540000Y-86209000D02*
X154040000Y-86209000D01*
X151960000Y-86249000D02*
X149438000Y-86249000D01*
X156562000Y-86249000D02*
X154040000Y-86249000D01*
X151960000Y-86289000D02*
X149416000Y-86289000D01*
X156584000Y-86289000D02*
X154040000Y-86289000D01*
X151960000Y-86329000D02*
X149394000Y-86329000D01*
X156606000Y-86329000D02*
X154040000Y-86329000D01*
X151960000Y-86369000D02*
X149373000Y-86369000D01*
X156627000Y-86369000D02*
X154040000Y-86369000D01*
X151960000Y-86409000D02*
X149353000Y-86409000D01*
X156647000Y-86409000D02*
X154040000Y-86409000D01*
X151960000Y-86449000D02*
X149334000Y-86449000D01*
X156666000Y-86449000D02*
X154040000Y-86449000D01*
X151960000Y-86489000D02*
X149314000Y-86489000D01*
X156686000Y-86489000D02*
X154040000Y-86489000D01*
X151960000Y-86529000D02*
X149296000Y-86529000D01*
X156704000Y-86529000D02*
X154040000Y-86529000D01*
X151960000Y-86569000D02*
X149278000Y-86569000D01*
X156722000Y-86569000D02*
X154040000Y-86569000D01*
X151960000Y-86609000D02*
X149260000Y-86609000D01*
X156740000Y-86609000D02*
X154040000Y-86609000D01*
X151960000Y-86649000D02*
X149243000Y-86649000D01*
X156757000Y-86649000D02*
X154040000Y-86649000D01*
X151960000Y-86689000D02*
X149226000Y-86689000D01*
X156774000Y-86689000D02*
X154040000Y-86689000D01*
X151960000Y-86729000D02*
X149210000Y-86729000D01*
X156790000Y-86729000D02*
X154040000Y-86729000D01*
X151960000Y-86769000D02*
X149195000Y-86769000D01*
X156805000Y-86769000D02*
X154040000Y-86769000D01*
X151960000Y-86809000D02*
X149179000Y-86809000D01*
X156821000Y-86809000D02*
X154040000Y-86809000D01*
X151960000Y-86849000D02*
X149165000Y-86849000D01*
X156835000Y-86849000D02*
X154040000Y-86849000D01*
X151960000Y-86889000D02*
X149150000Y-86889000D01*
X156850000Y-86889000D02*
X154040000Y-86889000D01*
X151960000Y-86929000D02*
X149137000Y-86929000D01*
X156863000Y-86929000D02*
X154040000Y-86929000D01*
X151960000Y-86969000D02*
X149123000Y-86969000D01*
X156877000Y-86969000D02*
X154040000Y-86969000D01*
X151960000Y-87009000D02*
X149111000Y-87009000D01*
X156889000Y-87009000D02*
X154040000Y-87009000D01*
X151960000Y-87049000D02*
X149098000Y-87049000D01*
X156902000Y-87049000D02*
X154040000Y-87049000D01*
X151960000Y-87089000D02*
X149086000Y-87089000D01*
X156914000Y-87089000D02*
X154040000Y-87089000D01*
X151960000Y-87129000D02*
X149075000Y-87129000D01*
X156925000Y-87129000D02*
X154040000Y-87129000D01*
X151960000Y-87169000D02*
X149064000Y-87169000D01*
X156936000Y-87169000D02*
X154040000Y-87169000D01*
X151960000Y-87209000D02*
X149053000Y-87209000D01*
X156947000Y-87209000D02*
X154040000Y-87209000D01*
X151960000Y-87249000D02*
X149043000Y-87249000D01*
X156957000Y-87249000D02*
X154040000Y-87249000D01*
X151960000Y-87289000D02*
X149033000Y-87289000D01*
X156967000Y-87289000D02*
X154040000Y-87289000D01*
X151960000Y-87329000D02*
X149024000Y-87329000D01*
X156976000Y-87329000D02*
X154040000Y-87329000D01*
X151960000Y-87369000D02*
X149015000Y-87369000D01*
X156985000Y-87369000D02*
X154040000Y-87369000D01*
X151960000Y-87409000D02*
X149006000Y-87409000D01*
X156994000Y-87409000D02*
X154040000Y-87409000D01*
X151960000Y-87449000D02*
X148998000Y-87449000D01*
X157002000Y-87449000D02*
X154040000Y-87449000D01*
X151960000Y-87489000D02*
X148990000Y-87489000D01*
X157010000Y-87489000D02*
X154040000Y-87489000D01*
X151960000Y-87529000D02*
X148983000Y-87529000D01*
X157017000Y-87529000D02*
X154040000Y-87529000D01*
X157024000Y-87570000D02*
X148976000Y-87570000D01*
X157030000Y-87610000D02*
X148970000Y-87610000D01*
X157037000Y-87650000D02*
X148963000Y-87650000D01*
X157042000Y-87690000D02*
X148958000Y-87690000D01*
X157048000Y-87730000D02*
X148952000Y-87730000D01*
X157052000Y-87770000D02*
X148948000Y-87770000D01*
X157057000Y-87810000D02*
X148943000Y-87810000D01*
X157061000Y-87850000D02*
X148939000Y-87850000D01*
X157065000Y-87890000D02*
X148935000Y-87890000D01*
X157068000Y-87930000D02*
X148932000Y-87930000D01*
X157071000Y-87970000D02*
X148929000Y-87970000D01*
X157074000Y-88010000D02*
X148926000Y-88010000D01*
X157076000Y-88050000D02*
X148924000Y-88050000D01*
X157077000Y-88090000D02*
X148923000Y-88090000D01*
X157079000Y-88130000D02*
X148921000Y-88130000D01*
X157080000Y-88170000D02*
X148920000Y-88170000D01*
X157080000Y-88210000D02*
X148920000Y-88210000D01*
X157080000Y-88250000D02*
X148920000Y-88250000D01*
X157120000Y-88250000D02*
G75*
G03X157120000Y-88250000I-4120000J0D01*
G01*
X129720000Y-87095000D02*
X124280000Y-87095000D01*
X129720000Y-86855000D02*
X124280000Y-86855000D01*
X129720000Y-86975000D02*
X124280000Y-86975000D01*
X124280000Y-78780000D02*
X125160000Y-78780000D01*
X124280000Y-88520000D02*
X124280000Y-78780000D01*
X125160000Y-88520000D02*
X124280000Y-88520000D01*
X129720000Y-78780000D02*
X128840000Y-78780000D01*
X129720000Y-88520000D02*
X129720000Y-78780000D01*
X128840000Y-88520000D02*
X129720000Y-88520000D01*
X144440000Y-108590000D02*
X144440000Y-92850000D01*
X119560000Y-108590000D02*
X119560000Y-92850000D01*
X132016000Y-92850000D02*
X144440000Y-92850000D01*
X119560000Y-92850000D02*
X131984000Y-92850000D01*
X132016000Y-108590000D02*
X144440000Y-108590000D01*
X119560000Y-108590000D02*
X131984000Y-108590000D01*
X106350000Y-90550000D02*
X92950000Y-90550000D01*
X92950000Y-90550000D02*
X90950000Y-88550000D01*
X90950000Y-88550000D02*
X90850000Y-75150000D01*
X90850000Y-75150000D02*
X106350000Y-75150000D01*
X106350000Y-75150000D02*
X106350000Y-90550000D01*
X100600000Y-82800000D02*
G75*
G03X100600000Y-82800000I-1900000J0D01*
G01*
D11*
X151619047Y-79952380D02*
X152095238Y-79952380D01*
X152095238Y-78952380D01*
X151285714Y-79428571D02*
X150952380Y-79428571D01*
X150809523Y-79952380D02*
X151285714Y-79952380D01*
X151285714Y-78952380D01*
X150809523Y-78952380D01*
X150380952Y-79952380D02*
X150380952Y-78952380D01*
X150142857Y-78952380D01*
X150000000Y-79000000D01*
X149904761Y-79095238D01*
X149857142Y-79190476D01*
X149809523Y-79380952D01*
X149809523Y-79523809D01*
X149857142Y-79714285D01*
X149904761Y-79809523D01*
X150000000Y-79904761D01*
X150142857Y-79952380D01*
X150380952Y-79952380D01*
X148857142Y-79952380D02*
X149428571Y-79952380D01*
X149142857Y-79952380D02*
X149142857Y-78952380D01*
X149238095Y-79095238D01*
X149333333Y-79190476D01*
X149428571Y-79238095D01*
X112666666Y-108452380D02*
X113000000Y-107976190D01*
X113238095Y-108452380D02*
X113238095Y-107452380D01*
X112857142Y-107452380D01*
X112761904Y-107500000D01*
X112714285Y-107547619D01*
X112666666Y-107642857D01*
X112666666Y-107785714D01*
X112714285Y-107880952D01*
X112761904Y-107928571D01*
X112857142Y-107976190D01*
X113238095Y-107976190D01*
X112333333Y-107452380D02*
X111714285Y-107452380D01*
X112047619Y-107833333D01*
X111904761Y-107833333D01*
X111809523Y-107880952D01*
X111761904Y-107928571D01*
X111714285Y-108023809D01*
X111714285Y-108261904D01*
X111761904Y-108357142D01*
X111809523Y-108404761D01*
X111904761Y-108452380D01*
X112190476Y-108452380D01*
X112285714Y-108404761D01*
X112333333Y-108357142D01*
X154356666Y-76952380D02*
X154690000Y-76476190D01*
X154928095Y-76952380D02*
X154928095Y-75952380D01*
X154547142Y-75952380D01*
X154451904Y-76000000D01*
X154404285Y-76047619D01*
X154356666Y-76142857D01*
X154356666Y-76285714D01*
X154404285Y-76380952D01*
X154451904Y-76428571D01*
X154547142Y-76476190D01*
X154928095Y-76476190D01*
X153975714Y-76047619D02*
X153928095Y-76000000D01*
X153832857Y-75952380D01*
X153594761Y-75952380D01*
X153499523Y-76000000D01*
X153451904Y-76047619D01*
X153404285Y-76142857D01*
X153404285Y-76238095D01*
X153451904Y-76380952D01*
X154023333Y-76952380D01*
X153404285Y-76952380D01*
X112656666Y-111652380D02*
X112990000Y-111176190D01*
X113228095Y-111652380D02*
X113228095Y-110652380D01*
X112847142Y-110652380D01*
X112751904Y-110700000D01*
X112704285Y-110747619D01*
X112656666Y-110842857D01*
X112656666Y-110985714D01*
X112704285Y-111080952D01*
X112751904Y-111128571D01*
X112847142Y-111176190D01*
X113228095Y-111176190D01*
X111704285Y-111652380D02*
X112275714Y-111652380D01*
X111990000Y-111652380D02*
X111990000Y-110652380D01*
X112085238Y-110795238D01*
X112180476Y-110890476D01*
X112275714Y-110938095D01*
X107761904Y-100452380D02*
X107761904Y-101261904D01*
X107714285Y-101357142D01*
X107666666Y-101404761D01*
X107571428Y-101452380D01*
X107380952Y-101452380D01*
X107285714Y-101404761D01*
X107238095Y-101357142D01*
X107190476Y-101261904D01*
X107190476Y-100452380D01*
X106190476Y-101452380D02*
X106761904Y-101452380D01*
X106476190Y-101452380D02*
X106476190Y-100452380D01*
X106571428Y-100595238D01*
X106666666Y-100690476D01*
X106761904Y-100738095D01*
X141166666Y-84857142D02*
X141214285Y-84904761D01*
X141357142Y-84952380D01*
X141452380Y-84952380D01*
X141595238Y-84904761D01*
X141690476Y-84809523D01*
X141738095Y-84714285D01*
X141785714Y-84523809D01*
X141785714Y-84380952D01*
X141738095Y-84190476D01*
X141690476Y-84095238D01*
X141595238Y-84000000D01*
X141452380Y-83952380D01*
X141357142Y-83952380D01*
X141214285Y-84000000D01*
X141166666Y-84047619D01*
X140785714Y-84047619D02*
X140738095Y-84000000D01*
X140642857Y-83952380D01*
X140404761Y-83952380D01*
X140309523Y-84000000D01*
X140261904Y-84047619D01*
X140214285Y-84142857D01*
X140214285Y-84238095D01*
X140261904Y-84380952D01*
X140833333Y-84952380D01*
X140214285Y-84952380D01*
X115666666Y-84857142D02*
X115714285Y-84904761D01*
X115857142Y-84952380D01*
X115952380Y-84952380D01*
X116095238Y-84904761D01*
X116190476Y-84809523D01*
X116238095Y-84714285D01*
X116285714Y-84523809D01*
X116285714Y-84380952D01*
X116238095Y-84190476D01*
X116190476Y-84095238D01*
X116095238Y-84000000D01*
X115952380Y-83952380D01*
X115857142Y-83952380D01*
X115714285Y-84000000D01*
X115666666Y-84047619D01*
X114714285Y-84952380D02*
X115285714Y-84952380D01*
X115000000Y-84952380D02*
X115000000Y-83952380D01*
X115095238Y-84095238D01*
X115190476Y-84190476D01*
X115285714Y-84238095D01*
X152666666Y-101452380D02*
X153142857Y-101452380D01*
X153142857Y-100452380D01*
X152380952Y-100547619D02*
X152333333Y-100500000D01*
X152238095Y-100452380D01*
X152000000Y-100452380D01*
X151904761Y-100500000D01*
X151857142Y-100547619D01*
X151809523Y-100642857D01*
X151809523Y-100738095D01*
X151857142Y-100880952D01*
X152428571Y-101452380D01*
X151809523Y-101452380D01*
X155666666Y-89857142D02*
X155714285Y-89904761D01*
X155857142Y-89952380D01*
X155952380Y-89952380D01*
X156095238Y-89904761D01*
X156190476Y-89809523D01*
X156238095Y-89714285D01*
X156285714Y-89523809D01*
X156285714Y-89380952D01*
X156238095Y-89190476D01*
X156190476Y-89095238D01*
X156095238Y-89000000D01*
X155952380Y-88952380D01*
X155857142Y-88952380D01*
X155714285Y-89000000D01*
X155666666Y-89047619D01*
X155333333Y-88952380D02*
X154714285Y-88952380D01*
X155047619Y-89333333D01*
X154904761Y-89333333D01*
X154809523Y-89380952D01*
X154761904Y-89428571D01*
X154714285Y-89523809D01*
X154714285Y-89761904D01*
X154761904Y-89857142D01*
X154809523Y-89904761D01*
X154904761Y-89952380D01*
X155190476Y-89952380D01*
X155285714Y-89904761D01*
X155333333Y-89857142D01*
X127738095Y-83452380D02*
X127738095Y-82452380D01*
X127500000Y-82452380D01*
X127357142Y-82500000D01*
X127261904Y-82595238D01*
X127214285Y-82690476D01*
X127166666Y-82880952D01*
X127166666Y-83023809D01*
X127214285Y-83214285D01*
X127261904Y-83309523D01*
X127357142Y-83404761D01*
X127500000Y-83452380D01*
X127738095Y-83452380D01*
X126785714Y-82547619D02*
X126738095Y-82500000D01*
X126642857Y-82452380D01*
X126404761Y-82452380D01*
X126309523Y-82500000D01*
X126261904Y-82547619D01*
X126214285Y-82642857D01*
X126214285Y-82738095D01*
X126261904Y-82880952D01*
X126833333Y-83452380D01*
X126214285Y-83452380D01*
X129861904Y-90452380D02*
X129861904Y-89452380D01*
X129290476Y-90452380D02*
X129719047Y-89880952D01*
X129290476Y-89452380D02*
X129861904Y-90023809D01*
X132166666Y-101392380D02*
X132642857Y-101392380D01*
X132642857Y-100392380D01*
X131309523Y-101392380D02*
X131880952Y-101392380D01*
X131595238Y-101392380D02*
X131595238Y-100392380D01*
X131690476Y-100535238D01*
X131785714Y-100630476D01*
X131880952Y-100678095D01*
X99488095Y-83052380D02*
X99488095Y-82052380D01*
X99250000Y-82052380D01*
X99107142Y-82100000D01*
X99011904Y-82195238D01*
X98964285Y-82290476D01*
X98916666Y-82480952D01*
X98916666Y-82623809D01*
X98964285Y-82814285D01*
X99011904Y-82909523D01*
X99107142Y-83004761D01*
X99250000Y-83052380D01*
X99488095Y-83052380D01*
X97964285Y-83052380D02*
X98535714Y-83052380D01*
X98250000Y-83052380D02*
X98250000Y-82052380D01*
X98345238Y-82195238D01*
X98440476Y-82290476D01*
X98535714Y-82338095D01*
M02*
