G04 #@! TF.GenerationSoftware,KiCad,Pcbnew,8.0.5*
G04 #@! TF.CreationDate,2026-05-04T16:45:14+02:00*
G04 #@! TF.ProjectId,c64-wedge-psu-pcb,6336342d-7765-4646-9765-2d7073752d70,rev?*
G04 #@! TF.SameCoordinates,Original*
G04 #@! TF.FileFunction,Copper,L2,Bot*
G04 #@! TF.FilePolarity,Positive*
%FSLAX46Y46*%
G04 Gerber Fmt 4.6, Leading zero omitted, Abs format (unit mm)*
G04 Created by KiCad (PCBNEW 8.0.5) date 2026-05-04 16:45:14*
%MOMM*%
%LPD*%
G01*
G04 APERTURE LIST*
G04 Aperture macros list*
%AMRoundRect*
0 Rectangle with rounded corners*
0 $1 Rounding radius*
0 $2 $3 $4 $5 $6 $7 $8 $9 X,Y pos of 4 corners*
0 Add a 4 corners polygon primitive as box body*
4,1,4,$2,$3,$4,$5,$6,$7,$8,$9,$2,$3,0*
0 Add four circle primitives for the rounded corners*
1,1,$1+$1,$2,$3*
1,1,$1+$1,$4,$5*
1,1,$1+$1,$6,$7*
1,1,$1+$1,$8,$9*
0 Add four rect primitives between the rounded corners*
20,1,$1+$1,$2,$3,$4,$5,0*
20,1,$1+$1,$4,$5,$6,$7,0*
20,1,$1+$1,$6,$7,$8,$9,0*
20,1,$1+$1,$8,$9,$2,$3,0*%
G04 Aperture macros list end*
G04 #@! TA.AperFunction,ComponentPad*
%ADD10RoundRect,0.250002X-1.699998X-1.699998X1.699998X-1.699998X1.699998X1.699998X-1.699998X1.699998X0*%
G04 #@! TD*
G04 #@! TA.AperFunction,ComponentPad*
%ADD11R,2.000000X2.000000*%
G04 #@! TD*
G04 #@! TA.AperFunction,ComponentPad*
%ADD12R,1.600000X1.600000*%
G04 #@! TD*
G04 #@! TA.AperFunction,ComponentPad*
%ADD13C,1.600000*%
G04 #@! TD*
G04 #@! TA.AperFunction,ComponentPad*
%ADD14O,1.600000X1.600000*%
G04 #@! TD*
G04 #@! TA.AperFunction,ComponentPad*
%ADD15C,3.600000*%
G04 #@! TD*
G04 #@! TA.AperFunction,ComponentPad*
%ADD16C,2.000000*%
G04 #@! TD*
G04 #@! TA.AperFunction,ComponentPad*
%ADD17R,2.400000X2.400000*%
G04 #@! TD*
G04 #@! TA.AperFunction,ComponentPad*
%ADD18C,2.400000*%
G04 #@! TD*
G04 #@! TA.AperFunction,ComponentPad*
%ADD19R,1.800000X1.800000*%
G04 #@! TD*
G04 #@! TA.AperFunction,ComponentPad*
%ADD20O,1.800000X1.800000*%
G04 #@! TD*
G04 #@! TA.AperFunction,ComponentPad*
%ADD21C,5.000000*%
G04 #@! TD*
G04 #@! TA.AperFunction,ComponentPad*
%ADD22R,3.200000X3.200000*%
G04 #@! TD*
G04 #@! TA.AperFunction,ComponentPad*
%ADD23O,3.200000X3.200000*%
G04 #@! TD*
G04 #@! TA.AperFunction,ComponentPad*
%ADD24C,1.800000*%
G04 #@! TD*
G04 #@! TA.AperFunction,ComponentPad*
%ADD25R,2.800000X2.800000*%
G04 #@! TD*
G04 #@! TA.AperFunction,ComponentPad*
%ADD26C,2.800000*%
G04 #@! TD*
G04 APERTURE END LIST*
D10*
X104013000Y-62500000D03*
X149987000Y-62500000D03*
X112014000Y-62500000D03*
X142000000Y-62500000D03*
D11*
X130556000Y-61976000D03*
X135636000Y-61976000D03*
D12*
X153847349Y-97000000D03*
D13*
X157347349Y-97000000D03*
X114620000Y-111000000D03*
D14*
X107000000Y-111000000D03*
D15*
X133500000Y-106000000D03*
X133500000Y-94560000D03*
D13*
X103750000Y-110998000D03*
D14*
X96130000Y-110998000D03*
D16*
X152000000Y-109500000D03*
X152000000Y-103500000D03*
D17*
X124000000Y-83000000D03*
D18*
X131500000Y-83000000D03*
D17*
X146050000Y-86614000D03*
D18*
X146050000Y-79114000D03*
D13*
X156972000Y-88138000D03*
D14*
X156972000Y-80518000D03*
D19*
X108850000Y-90450000D03*
D20*
X107150000Y-94150000D03*
X105450000Y-90450000D03*
X103750000Y-94150000D03*
X102050000Y-90450000D03*
D13*
X155250000Y-91000000D03*
X157750000Y-91000000D03*
D21*
X117750000Y-94750000D03*
X93150000Y-94750000D03*
D13*
X137000000Y-90750000D03*
X137000000Y-88250000D03*
X112302000Y-90500000D03*
X112302000Y-93000000D03*
D22*
X111200000Y-100500000D03*
D23*
X98500000Y-100500000D03*
D24*
X156972000Y-78265000D03*
D19*
X156972000Y-75725000D03*
D25*
X113592000Y-79310000D03*
D26*
X108512000Y-79310000D03*
X103432000Y-79310000D03*
X98352000Y-79310000D03*
G04 #@! TA.AperFunction,Conductor*
G36*
X159536315Y-73269540D02*
G01*
X159633763Y-73325802D01*
X159706092Y-73412000D01*
X159744578Y-73517738D01*
X159749500Y-73574000D01*
X159749500Y-90389905D01*
X159729960Y-90500720D01*
X159673698Y-90598168D01*
X159587500Y-90670497D01*
X159481762Y-90708983D01*
X159369238Y-90708983D01*
X159263500Y-90670497D01*
X159177302Y-90598168D01*
X159146425Y-90544688D01*
X159129272Y-90539965D01*
X158669239Y-90999999D01*
X159129273Y-91460033D01*
X159145081Y-91455680D01*
X159157559Y-91427930D01*
X159236022Y-91347275D01*
X159337338Y-91298319D01*
X159449288Y-91286968D01*
X159558369Y-91314591D01*
X159651424Y-91377856D01*
X159717229Y-91469132D01*
X159747847Y-91577411D01*
X159749500Y-91610094D01*
X159749500Y-116925500D01*
X159729960Y-117036315D01*
X159673698Y-117133763D01*
X159587500Y-117206092D01*
X159481762Y-117244578D01*
X159425500Y-117249500D01*
X158308974Y-117249500D01*
X158198159Y-117229960D01*
X158100711Y-117173698D01*
X158028382Y-117087500D01*
X157989896Y-116981762D01*
X157987011Y-116961777D01*
X157982923Y-116925500D01*
X157962767Y-116746606D01*
X157887776Y-116418046D01*
X157868747Y-116363665D01*
X157776470Y-116099951D01*
X157630249Y-115796320D01*
X157630242Y-115796307D01*
X157450953Y-115510972D01*
X157450946Y-115510961D01*
X157240830Y-115247483D01*
X157240822Y-115247474D01*
X157002525Y-115009177D01*
X157002516Y-115009169D01*
X156739038Y-114799053D01*
X156739027Y-114799046D01*
X156453692Y-114619757D01*
X156453679Y-114619750D01*
X156150048Y-114473529D01*
X155831963Y-114362226D01*
X155831955Y-114362224D01*
X155503396Y-114287233D01*
X155168507Y-114249500D01*
X155168504Y-114249500D01*
X154831496Y-114249500D01*
X154831492Y-114249500D01*
X154496603Y-114287233D01*
X154168044Y-114362224D01*
X154168036Y-114362226D01*
X153849951Y-114473529D01*
X153546320Y-114619750D01*
X153546307Y-114619757D01*
X153260972Y-114799046D01*
X153260961Y-114799053D01*
X152997483Y-115009169D01*
X152997474Y-115009177D01*
X152759177Y-115247474D01*
X152759169Y-115247483D01*
X152549053Y-115510961D01*
X152549046Y-115510972D01*
X152369757Y-115796307D01*
X152369750Y-115796320D01*
X152223529Y-116099951D01*
X152112226Y-116418036D01*
X152112224Y-116418044D01*
X152037233Y-116746603D01*
X152012989Y-116961777D01*
X151981165Y-117069707D01*
X151914345Y-117160243D01*
X151820591Y-117222466D01*
X151711208Y-117248871D01*
X151691026Y-117249500D01*
X128308974Y-117249500D01*
X128198159Y-117229960D01*
X128100711Y-117173698D01*
X128028382Y-117087500D01*
X127989896Y-116981762D01*
X127987011Y-116961777D01*
X127982923Y-116925500D01*
X127962767Y-116746606D01*
X127887776Y-116418046D01*
X127868747Y-116363665D01*
X127776470Y-116099951D01*
X127630249Y-115796320D01*
X127630242Y-115796307D01*
X127450953Y-115510972D01*
X127450946Y-115510961D01*
X127240830Y-115247483D01*
X127240822Y-115247474D01*
X127002525Y-115009177D01*
X127002516Y-115009169D01*
X126739038Y-114799053D01*
X126739027Y-114799046D01*
X126453692Y-114619757D01*
X126453679Y-114619750D01*
X126150048Y-114473529D01*
X125831963Y-114362226D01*
X125831955Y-114362224D01*
X125503396Y-114287233D01*
X125168507Y-114249500D01*
X125168504Y-114249500D01*
X124831496Y-114249500D01*
X124831492Y-114249500D01*
X124496603Y-114287233D01*
X124168044Y-114362224D01*
X124168036Y-114362226D01*
X123849951Y-114473529D01*
X123546320Y-114619750D01*
X123546307Y-114619757D01*
X123260972Y-114799046D01*
X123260961Y-114799053D01*
X122997483Y-115009169D01*
X122997474Y-115009177D01*
X122759177Y-115247474D01*
X122759169Y-115247483D01*
X122549053Y-115510961D01*
X122549046Y-115510972D01*
X122369757Y-115796307D01*
X122369750Y-115796320D01*
X122223529Y-116099951D01*
X122112226Y-116418036D01*
X122112224Y-116418044D01*
X122037233Y-116746603D01*
X122012989Y-116961777D01*
X121981165Y-117069707D01*
X121914345Y-117160243D01*
X121820591Y-117222466D01*
X121711208Y-117248871D01*
X121691026Y-117249500D01*
X98308974Y-117249500D01*
X98198159Y-117229960D01*
X98100711Y-117173698D01*
X98028382Y-117087500D01*
X97989896Y-116981762D01*
X97987011Y-116961777D01*
X97982923Y-116925500D01*
X97962767Y-116746606D01*
X97887776Y-116418046D01*
X97868747Y-116363665D01*
X97776470Y-116099951D01*
X97630249Y-115796320D01*
X97630242Y-115796307D01*
X97450953Y-115510972D01*
X97450946Y-115510961D01*
X97240830Y-115247483D01*
X97240822Y-115247474D01*
X97002525Y-115009177D01*
X97002516Y-115009169D01*
X96739038Y-114799053D01*
X96739027Y-114799046D01*
X96453692Y-114619757D01*
X96453679Y-114619750D01*
X96150048Y-114473529D01*
X95831963Y-114362226D01*
X95831955Y-114362224D01*
X95503396Y-114287233D01*
X95168507Y-114249500D01*
X95168504Y-114249500D01*
X94831496Y-114249500D01*
X94831492Y-114249500D01*
X94496603Y-114287233D01*
X94168044Y-114362224D01*
X94168036Y-114362226D01*
X93849951Y-114473529D01*
X93546320Y-114619750D01*
X93546307Y-114619757D01*
X93260972Y-114799046D01*
X93260961Y-114799053D01*
X92997483Y-115009169D01*
X92997474Y-115009177D01*
X92759177Y-115247474D01*
X92759169Y-115247483D01*
X92549053Y-115510961D01*
X92549046Y-115510972D01*
X92369757Y-115796307D01*
X92369750Y-115796320D01*
X92223529Y-116099951D01*
X92112226Y-116418036D01*
X92112224Y-116418044D01*
X92037233Y-116746603D01*
X92012989Y-116961777D01*
X91981165Y-117069707D01*
X91914345Y-117160243D01*
X91820591Y-117222466D01*
X91711208Y-117248871D01*
X91691026Y-117249500D01*
X90574500Y-117249500D01*
X90463685Y-117229960D01*
X90366237Y-117173698D01*
X90293908Y-117087500D01*
X90255422Y-116981762D01*
X90250500Y-116925500D01*
X90250500Y-111648000D01*
X94831757Y-111648000D01*
X94850396Y-111690494D01*
X94981820Y-111891654D01*
X94981829Y-111891665D01*
X95144576Y-112068454D01*
X95334203Y-112216048D01*
X95334211Y-112216053D01*
X95480000Y-112294950D01*
X95480000Y-111648001D01*
X96780000Y-111648001D01*
X96780000Y-112294949D01*
X96925788Y-112216053D01*
X96925796Y-112216048D01*
X97115423Y-112068454D01*
X97278170Y-111891665D01*
X97278179Y-111891654D01*
X97409603Y-111690494D01*
X97428243Y-111648000D01*
X96780001Y-111648000D01*
X96780000Y-111648001D01*
X95480000Y-111648001D01*
X95479999Y-111648000D01*
X94831757Y-111648000D01*
X90250500Y-111648000D01*
X90250500Y-110945339D01*
X95730000Y-110945339D01*
X95730000Y-111050661D01*
X95757259Y-111152394D01*
X95809920Y-111243606D01*
X95884394Y-111318080D01*
X95975606Y-111370741D01*
X96077339Y-111398000D01*
X96182661Y-111398000D01*
X96284394Y-111370741D01*
X96375606Y-111318080D01*
X96450080Y-111243606D01*
X96502741Y-111152394D01*
X96530000Y-111050661D01*
X96530000Y-110997995D01*
X102294529Y-110997995D01*
X102294529Y-110998004D01*
X102314378Y-111237548D01*
X102314380Y-111237564D01*
X102373391Y-111470595D01*
X102469951Y-111690728D01*
X102601425Y-111891963D01*
X102601433Y-111891974D01*
X102730279Y-112031938D01*
X102763894Y-112068454D01*
X102764238Y-112068827D01*
X102953929Y-112216469D01*
X102953939Y-112216476D01*
X103118929Y-112305763D01*
X103165344Y-112330882D01*
X103392703Y-112408934D01*
X103629808Y-112448500D01*
X103629811Y-112448500D01*
X103870189Y-112448500D01*
X103870192Y-112448500D01*
X104107297Y-112408934D01*
X104334656Y-112330882D01*
X104542364Y-112218476D01*
X104546060Y-112216476D01*
X104546061Y-112216475D01*
X104546067Y-112216472D01*
X104735764Y-112068825D01*
X104898571Y-111891969D01*
X105030049Y-111690728D01*
X105077852Y-111581747D01*
X105140258Y-111488119D01*
X105230926Y-111421478D01*
X105338918Y-111389867D01*
X105451209Y-111397097D01*
X105554256Y-111442297D01*
X105635629Y-111520015D01*
X105671271Y-111581750D01*
X105719951Y-111692728D01*
X105851425Y-111893963D01*
X105851433Y-111893974D01*
X106014238Y-112070827D01*
X106203929Y-112218469D01*
X106203939Y-112218476D01*
X106345250Y-112294949D01*
X106415344Y-112332882D01*
X106642703Y-112410934D01*
X106879808Y-112450500D01*
X106879811Y-112450500D01*
X107120189Y-112450500D01*
X107120192Y-112450500D01*
X107357297Y-112410934D01*
X107584656Y-112332882D01*
X107796067Y-112218472D01*
X107985764Y-112070825D01*
X108148571Y-111893969D01*
X108280049Y-111692728D01*
X108376610Y-111472591D01*
X108435620Y-111239563D01*
X108455471Y-111000000D01*
X108455471Y-110999995D01*
X113164529Y-110999995D01*
X113164529Y-111000004D01*
X113184378Y-111239548D01*
X113184380Y-111239564D01*
X113243391Y-111472595D01*
X113339951Y-111692728D01*
X113471425Y-111893963D01*
X113471433Y-111893974D01*
X113634238Y-112070827D01*
X113823929Y-112218469D01*
X113823939Y-112218476D01*
X113965250Y-112294949D01*
X114035344Y-112332882D01*
X114262703Y-112410934D01*
X114499808Y-112450500D01*
X114499811Y-112450500D01*
X114740189Y-112450500D01*
X114740192Y-112450500D01*
X114977297Y-112410934D01*
X115204656Y-112332882D01*
X115416067Y-112218472D01*
X115605764Y-112070825D01*
X115768571Y-111893969D01*
X115900049Y-111692728D01*
X115996610Y-111472591D01*
X116055620Y-111239563D01*
X116075471Y-111000000D01*
X116075305Y-110998000D01*
X116055621Y-110760451D01*
X116055620Y-110760437D01*
X115996610Y-110527409D01*
X115900049Y-110307272D01*
X115768571Y-110106031D01*
X115768567Y-110106027D01*
X115768566Y-110106025D01*
X115605761Y-109929172D01*
X115416070Y-109781530D01*
X115416060Y-109781523D01*
X115204662Y-109667121D01*
X115204652Y-109667116D01*
X114977299Y-109589066D01*
X114740196Y-109549500D01*
X114740192Y-109549500D01*
X114499808Y-109549500D01*
X114499803Y-109549500D01*
X114262700Y-109589066D01*
X114035347Y-109667116D01*
X114035337Y-109667121D01*
X113823939Y-109781523D01*
X113823929Y-109781530D01*
X113634238Y-109929172D01*
X113471433Y-110106025D01*
X113471425Y-110106036D01*
X113339951Y-110307271D01*
X113243391Y-110527404D01*
X113184380Y-110760435D01*
X113184378Y-110760451D01*
X113164529Y-110999995D01*
X108455471Y-110999995D01*
X108455305Y-110998000D01*
X108435621Y-110760451D01*
X108435620Y-110760437D01*
X108376610Y-110527409D01*
X108280049Y-110307272D01*
X108148571Y-110106031D01*
X108148567Y-110106027D01*
X108148566Y-110106025D01*
X107985761Y-109929172D01*
X107796070Y-109781530D01*
X107796060Y-109781523D01*
X107584662Y-109667121D01*
X107584652Y-109667116D01*
X107357299Y-109589066D01*
X107120196Y-109549500D01*
X107120192Y-109549500D01*
X106879808Y-109549500D01*
X106879803Y-109549500D01*
X106642700Y-109589066D01*
X106415347Y-109667116D01*
X106415337Y-109667121D01*
X106203939Y-109781523D01*
X106203929Y-109781530D01*
X106014238Y-109929172D01*
X105851433Y-110106025D01*
X105851425Y-110106036D01*
X105719950Y-110307272D01*
X105672147Y-110416251D01*
X105609739Y-110509882D01*
X105519071Y-110576522D01*
X105411078Y-110608133D01*
X105298786Y-110600901D01*
X105195740Y-110555700D01*
X105114368Y-110477981D01*
X105078729Y-110416251D01*
X105030049Y-110305272D01*
X104898571Y-110104031D01*
X104898567Y-110104027D01*
X104898566Y-110104025D01*
X104737602Y-109929172D01*
X104735764Y-109927175D01*
X104735763Y-109927174D01*
X104735761Y-109927172D01*
X104546070Y-109779530D01*
X104546060Y-109779523D01*
X104334662Y-109665121D01*
X104334652Y-109665116D01*
X104107299Y-109587066D01*
X103870196Y-109547500D01*
X103870192Y-109547500D01*
X103629808Y-109547500D01*
X103629803Y-109547500D01*
X103392700Y-109587066D01*
X103165347Y-109665116D01*
X103165337Y-109665121D01*
X102953939Y-109779523D01*
X102953929Y-109779530D01*
X102764238Y-109927172D01*
X102601433Y-110104025D01*
X102601425Y-110104036D01*
X102469951Y-110305271D01*
X102373391Y-110525404D01*
X102314380Y-110758435D01*
X102314378Y-110758451D01*
X102294529Y-110997995D01*
X96530000Y-110997995D01*
X96530000Y-110945339D01*
X96502741Y-110843606D01*
X96450080Y-110752394D01*
X96375606Y-110677920D01*
X96284394Y-110625259D01*
X96182661Y-110598000D01*
X96077339Y-110598000D01*
X95975606Y-110625259D01*
X95884394Y-110677920D01*
X95809920Y-110752394D01*
X95757259Y-110843606D01*
X95730000Y-110945339D01*
X90250500Y-110945339D01*
X90250500Y-110348000D01*
X94831757Y-110348000D01*
X95479999Y-110348000D01*
X95480000Y-110347999D01*
X96780000Y-110347999D01*
X96780001Y-110348000D01*
X97428243Y-110348000D01*
X97409603Y-110305505D01*
X97278179Y-110104345D01*
X97278170Y-110104334D01*
X97115423Y-109927545D01*
X96925797Y-109779952D01*
X96925790Y-109779947D01*
X96780000Y-109701049D01*
X96780000Y-110347999D01*
X95480000Y-110347999D01*
X95480000Y-109701049D01*
X95479999Y-109701049D01*
X95334209Y-109779947D01*
X95334202Y-109779952D01*
X95144576Y-109927545D01*
X94981829Y-110104334D01*
X94981820Y-110104345D01*
X94850396Y-110305505D01*
X94831757Y-110348000D01*
X90250500Y-110348000D01*
X90250500Y-109499997D01*
X150344396Y-109499997D01*
X150344396Y-109500002D01*
X150364779Y-109758993D01*
X150364780Y-109758998D01*
X150425426Y-110011608D01*
X150524847Y-110251630D01*
X150564391Y-110316160D01*
X150660588Y-110473140D01*
X150660589Y-110473142D01*
X150660591Y-110473144D01*
X150829301Y-110670678D01*
X150829305Y-110670682D01*
X150829311Y-110670689D01*
X150829317Y-110670694D01*
X150829321Y-110670698D01*
X151026855Y-110839408D01*
X151026860Y-110839412D01*
X151248372Y-110975154D01*
X151488390Y-111074573D01*
X151741006Y-111135221D01*
X151959213Y-111152394D01*
X151999998Y-111155604D01*
X152000000Y-111155604D01*
X152000002Y-111155604D01*
X152040787Y-111152394D01*
X152258994Y-111135221D01*
X152511610Y-111074573D01*
X152751628Y-110975154D01*
X152973140Y-110839412D01*
X153170689Y-110670689D01*
X153339412Y-110473140D01*
X153475154Y-110251628D01*
X153574573Y-110011610D01*
X153635221Y-109758994D01*
X153655604Y-109500000D01*
X153635221Y-109241006D01*
X153574573Y-108988390D01*
X153475154Y-108748372D01*
X153339412Y-108526860D01*
X153339408Y-108526855D01*
X153170698Y-108329321D01*
X153170694Y-108329317D01*
X153170689Y-108329311D01*
X153170682Y-108329305D01*
X153170678Y-108329301D01*
X152973144Y-108160591D01*
X152973142Y-108160589D01*
X152973140Y-108160588D01*
X152751628Y-108024846D01*
X152511610Y-107925427D01*
X152511608Y-107925426D01*
X152258998Y-107864780D01*
X152258994Y-107864779D01*
X152172662Y-107857984D01*
X152000002Y-107844396D01*
X151999998Y-107844396D01*
X151741006Y-107864779D01*
X151741001Y-107864780D01*
X151488391Y-107925426D01*
X151248369Y-108024847D01*
X151026855Y-108160591D01*
X150829321Y-108329301D01*
X150829301Y-108329321D01*
X150660591Y-108526855D01*
X150524847Y-108748369D01*
X150425426Y-108988391D01*
X150364780Y-109241001D01*
X150364779Y-109241006D01*
X150344396Y-109499997D01*
X90250500Y-109499997D01*
X90250500Y-106000000D01*
X131044655Y-106000000D01*
X131064016Y-106307741D01*
X131121794Y-106610620D01*
X131121796Y-106610626D01*
X131217076Y-106903868D01*
X131217079Y-106903876D01*
X131348361Y-107182864D01*
X131348362Y-107182866D01*
X131513577Y-107443206D01*
X131513579Y-107443209D01*
X131513584Y-107443216D01*
X131710131Y-107680799D01*
X131934904Y-107891876D01*
X132184360Y-108073116D01*
X132184362Y-108073117D01*
X132184365Y-108073119D01*
X132454556Y-108221658D01*
X132454557Y-108221659D01*
X132454559Y-108221660D01*
X132454565Y-108221663D01*
X132741257Y-108335172D01*
X133039914Y-108411854D01*
X133345828Y-108450500D01*
X133345829Y-108450500D01*
X133654171Y-108450500D01*
X133654172Y-108450500D01*
X133960086Y-108411854D01*
X134258743Y-108335172D01*
X134545435Y-108221663D01*
X134815640Y-108073116D01*
X135065096Y-107891876D01*
X135289869Y-107680799D01*
X135486416Y-107443216D01*
X135651635Y-107182871D01*
X135782922Y-106903873D01*
X135878206Y-106610619D01*
X135935984Y-106307736D01*
X135955345Y-106000000D01*
X135935984Y-105692264D01*
X135878206Y-105389381D01*
X135782922Y-105096127D01*
X135651635Y-104817129D01*
X135486416Y-104556784D01*
X135289869Y-104319201D01*
X135065096Y-104108124D01*
X134815640Y-103926884D01*
X134815634Y-103926880D01*
X134545443Y-103778341D01*
X134545442Y-103778340D01*
X134545436Y-103778337D01*
X134545435Y-103778337D01*
X134258743Y-103664828D01*
X134258738Y-103664826D01*
X133960083Y-103588145D01*
X133705882Y-103556032D01*
X133654172Y-103549500D01*
X133345828Y-103549500D01*
X133301595Y-103555087D01*
X133039916Y-103588145D01*
X132741261Y-103664826D01*
X132454557Y-103778340D01*
X132454556Y-103778341D01*
X132184365Y-103926880D01*
X132184359Y-103926884D01*
X131934903Y-104108124D01*
X131710130Y-104319201D01*
X131513577Y-104556793D01*
X131348362Y-104817133D01*
X131348361Y-104817135D01*
X131217079Y-105096123D01*
X131217076Y-105096131D01*
X131121796Y-105389373D01*
X131121794Y-105389379D01*
X131064016Y-105692258D01*
X131044655Y-106000000D01*
X90250500Y-106000000D01*
X90250500Y-103499997D01*
X150344396Y-103499997D01*
X150344396Y-103500002D01*
X150364779Y-103758993D01*
X150364780Y-103758998D01*
X150425426Y-104011608D01*
X150475136Y-104131619D01*
X150524846Y-104251628D01*
X150660588Y-104473140D01*
X150660589Y-104473142D01*
X150660591Y-104473144D01*
X150829301Y-104670678D01*
X150829305Y-104670682D01*
X150829311Y-104670689D01*
X150829317Y-104670694D01*
X150829321Y-104670698D01*
X151000777Y-104817135D01*
X151026860Y-104839412D01*
X151248372Y-104975154D01*
X151488390Y-105074573D01*
X151741006Y-105135221D01*
X151964776Y-105152831D01*
X151999998Y-105155604D01*
X152000000Y-105155604D01*
X152000002Y-105155604D01*
X152032981Y-105153008D01*
X152258994Y-105135221D01*
X152511610Y-105074573D01*
X152751628Y-104975154D01*
X152973140Y-104839412D01*
X153170689Y-104670689D01*
X153339412Y-104473140D01*
X153475154Y-104251628D01*
X153574573Y-104011610D01*
X153635221Y-103758994D01*
X153655604Y-103500000D01*
X153635221Y-103241006D01*
X153574573Y-102988390D01*
X153475154Y-102748372D01*
X153339412Y-102526860D01*
X153339408Y-102526855D01*
X153170698Y-102329321D01*
X153170694Y-102329317D01*
X153170689Y-102329311D01*
X153170682Y-102329305D01*
X153170678Y-102329301D01*
X152973144Y-102160591D01*
X152973142Y-102160589D01*
X152973140Y-102160588D01*
X152751628Y-102024846D01*
X152511610Y-101925427D01*
X152511608Y-101925426D01*
X152258998Y-101864780D01*
X152258994Y-101864779D01*
X152172662Y-101857984D01*
X152000002Y-101844396D01*
X151999998Y-101844396D01*
X151741006Y-101864779D01*
X151741001Y-101864780D01*
X151488391Y-101925426D01*
X151248369Y-102024847D01*
X151026855Y-102160591D01*
X150829321Y-102329301D01*
X150829301Y-102329321D01*
X150660591Y-102526855D01*
X150524847Y-102748369D01*
X150425426Y-102988391D01*
X150364780Y-103241001D01*
X150364779Y-103241006D01*
X150344396Y-103499997D01*
X90250500Y-103499997D01*
X90250500Y-101150000D01*
X96344546Y-101150000D01*
X96416810Y-101362883D01*
X96416811Y-101362887D01*
X96547260Y-101627411D01*
X96547263Y-101627416D01*
X96711126Y-101872654D01*
X96905588Y-102094395D01*
X96905604Y-102094411D01*
X97127345Y-102288873D01*
X97372583Y-102452736D01*
X97372588Y-102452739D01*
X97637112Y-102583188D01*
X97637116Y-102583189D01*
X97849999Y-102655454D01*
X97850000Y-102655454D01*
X97850000Y-101150001D01*
X97849999Y-101150000D01*
X96344546Y-101150000D01*
X90250500Y-101150000D01*
X90250500Y-100421207D01*
X97700000Y-100421207D01*
X97700000Y-100578793D01*
X97730743Y-100733351D01*
X97791049Y-100878942D01*
X97878599Y-101009970D01*
X97990030Y-101121401D01*
X98121058Y-101208951D01*
X98266649Y-101269257D01*
X98421207Y-101300000D01*
X98578793Y-101300000D01*
X98733351Y-101269257D01*
X98878942Y-101208951D01*
X98967167Y-101150001D01*
X99150000Y-101150001D01*
X99150000Y-102655454D01*
X99362883Y-102583189D01*
X99362887Y-102583188D01*
X99627411Y-102452739D01*
X99627416Y-102452736D01*
X99872654Y-102288873D01*
X100094395Y-102094411D01*
X100094411Y-102094395D01*
X100288873Y-101872654D01*
X100452736Y-101627416D01*
X100452739Y-101627411D01*
X100583188Y-101362887D01*
X100583189Y-101362883D01*
X100655454Y-101150000D01*
X99150001Y-101150000D01*
X99150000Y-101150001D01*
X98967167Y-101150001D01*
X99009970Y-101121401D01*
X99121401Y-101009970D01*
X99208951Y-100878942D01*
X99269257Y-100733351D01*
X99300000Y-100578793D01*
X99300000Y-100421207D01*
X99269257Y-100266649D01*
X99208951Y-100121058D01*
X99121401Y-99990030D01*
X99009970Y-99878599D01*
X98967167Y-99849999D01*
X99150000Y-99849999D01*
X99150001Y-99850000D01*
X100655454Y-99850000D01*
X100655454Y-99849999D01*
X100583189Y-99637116D01*
X100583188Y-99637112D01*
X100452739Y-99372588D01*
X100452736Y-99372583D01*
X100288873Y-99127345D01*
X100094411Y-98905604D01*
X100094395Y-98905588D01*
X100013106Y-98834299D01*
X108949500Y-98834299D01*
X108949500Y-102165700D01*
X108952402Y-102202570D01*
X108998256Y-102360400D01*
X109081917Y-102501863D01*
X109198136Y-102618082D01*
X109339599Y-102701743D01*
X109339601Y-102701743D01*
X109339602Y-102701744D01*
X109497431Y-102747598D01*
X109534306Y-102750500D01*
X109534317Y-102750500D01*
X112865683Y-102750500D01*
X112865694Y-102750500D01*
X112902569Y-102747598D01*
X113060398Y-102701744D01*
X113201865Y-102618081D01*
X113318081Y-102501865D01*
X113401744Y-102360398D01*
X113447598Y-102202569D01*
X113450500Y-102165694D01*
X113450500Y-98834306D01*
X113447598Y-98797431D01*
X113401744Y-98639602D01*
X113401743Y-98639601D01*
X113401743Y-98639599D01*
X113318082Y-98498136D01*
X113201863Y-98381917D01*
X113060400Y-98298256D01*
X112902570Y-98252402D01*
X112865700Y-98249500D01*
X112865694Y-98249500D01*
X109534306Y-98249500D01*
X109534299Y-98249500D01*
X109497429Y-98252402D01*
X109339599Y-98298256D01*
X109198136Y-98381917D01*
X109081917Y-98498136D01*
X108998256Y-98639599D01*
X108952402Y-98797429D01*
X108949500Y-98834299D01*
X100013106Y-98834299D01*
X99872654Y-98711126D01*
X99627416Y-98547263D01*
X99627411Y-98547260D01*
X99362890Y-98416813D01*
X99362879Y-98416808D01*
X99150000Y-98344545D01*
X99150000Y-99849999D01*
X98967167Y-99849999D01*
X98878942Y-99791049D01*
X98733351Y-99730743D01*
X98578793Y-99700000D01*
X98421207Y-99700000D01*
X98266649Y-99730743D01*
X98121058Y-99791049D01*
X97990030Y-99878599D01*
X97878599Y-99990030D01*
X97791049Y-100121058D01*
X97730743Y-100266649D01*
X97700000Y-100421207D01*
X90250500Y-100421207D01*
X90250500Y-99849999D01*
X96344545Y-99849999D01*
X96344546Y-99850000D01*
X97849999Y-99850000D01*
X97850000Y-99849999D01*
X97850000Y-98344545D01*
X97637120Y-98416808D01*
X97637109Y-98416813D01*
X97372588Y-98547260D01*
X97372583Y-98547263D01*
X97127345Y-98711126D01*
X96905604Y-98905588D01*
X96905588Y-98905604D01*
X96711126Y-99127345D01*
X96547263Y-99372583D01*
X96547260Y-99372588D01*
X96416811Y-99637112D01*
X96416810Y-99637116D01*
X96344545Y-99849999D01*
X90250500Y-99849999D01*
X90250500Y-97082267D01*
X90270040Y-96971452D01*
X90326302Y-96874004D01*
X90412500Y-96801675D01*
X90518238Y-96763189D01*
X90630762Y-96763189D01*
X90736500Y-96801675D01*
X90816089Y-96866372D01*
X90918741Y-96981241D01*
X90918749Y-96981249D01*
X90918750Y-96981250D01*
X91182600Y-97217041D01*
X91222859Y-97245606D01*
X91440456Y-97400000D01*
X91471192Y-97421808D01*
X91780895Y-97592975D01*
X92107816Y-97728390D01*
X92107825Y-97728392D01*
X92107829Y-97728394D01*
X92447843Y-97826350D01*
X92447845Y-97826351D01*
X92644708Y-97859798D01*
X92796700Y-97885623D01*
X92914466Y-97892236D01*
X93149994Y-97905464D01*
X93150000Y-97905464D01*
X93150006Y-97905464D01*
X93326650Y-97895543D01*
X93503300Y-97885623D01*
X93646107Y-97861359D01*
X93852154Y-97826351D01*
X93852155Y-97826350D01*
X93852157Y-97826350D01*
X94192184Y-97728390D01*
X94519105Y-97592975D01*
X94828808Y-97421808D01*
X95117400Y-97217041D01*
X95381250Y-96981250D01*
X95617041Y-96717400D01*
X95821808Y-96428808D01*
X95992975Y-96119105D01*
X96128390Y-95792184D01*
X96226350Y-95452157D01*
X96233809Y-95408261D01*
X96285623Y-95103298D01*
X96285623Y-95103294D01*
X96305464Y-94750005D01*
X96305464Y-94749994D01*
X96285623Y-94396705D01*
X96285623Y-94396701D01*
X96285045Y-94393302D01*
X96273491Y-94325296D01*
X96243707Y-94149997D01*
X102194706Y-94149997D01*
X102194706Y-94150002D01*
X102213853Y-94393297D01*
X102213853Y-94393299D01*
X102213854Y-94393302D01*
X102253875Y-94560000D01*
X102270829Y-94630616D01*
X102364221Y-94856085D01*
X102364223Y-94856089D01*
X102401371Y-94916709D01*
X102491738Y-95064175D01*
X102491739Y-95064177D01*
X102491741Y-95064179D01*
X102650241Y-95249759D01*
X102835821Y-95408259D01*
X103043911Y-95535777D01*
X103269388Y-95629172D01*
X103506698Y-95686146D01*
X103668899Y-95698911D01*
X103749998Y-95705294D01*
X103750000Y-95705294D01*
X103750002Y-95705294D01*
X103819514Y-95699823D01*
X103993302Y-95686146D01*
X104230612Y-95629172D01*
X104456089Y-95535777D01*
X104664179Y-95408259D01*
X104849759Y-95249759D01*
X105008259Y-95064179D01*
X105135777Y-94856089D01*
X105144172Y-94835820D01*
X105150663Y-94820152D01*
X105211122Y-94725250D01*
X105300393Y-94656750D01*
X105407709Y-94622913D01*
X105520126Y-94627821D01*
X105624084Y-94670882D01*
X105707046Y-94746902D01*
X105749337Y-94820152D01*
X105764221Y-94856085D01*
X105764223Y-94856089D01*
X105801371Y-94916709D01*
X105891738Y-95064175D01*
X105891739Y-95064177D01*
X105891741Y-95064179D01*
X106050241Y-95249759D01*
X106235821Y-95408259D01*
X106443911Y-95535777D01*
X106669388Y-95629172D01*
X106906698Y-95686146D01*
X107068899Y-95698911D01*
X107149998Y-95705294D01*
X107150000Y-95705294D01*
X107150002Y-95705294D01*
X107219514Y-95699823D01*
X107393302Y-95686146D01*
X107630612Y-95629172D01*
X107856089Y-95535777D01*
X108064179Y-95408259D01*
X108249759Y-95249759D01*
X108408259Y-95064179D01*
X108535777Y-94856089D01*
X108579723Y-94749994D01*
X114594536Y-94749994D01*
X114594536Y-94750005D01*
X114614376Y-95103294D01*
X114614376Y-95103298D01*
X114673648Y-95452154D01*
X114673649Y-95452156D01*
X114771605Y-95792170D01*
X114771610Y-95792184D01*
X114907025Y-96119105D01*
X114907030Y-96119115D01*
X115078195Y-96428813D01*
X115157062Y-96539965D01*
X115282959Y-96717400D01*
X115518750Y-96981250D01*
X115782600Y-97217041D01*
X115822859Y-97245606D01*
X116040456Y-97400000D01*
X116071192Y-97421808D01*
X116380895Y-97592975D01*
X116707816Y-97728390D01*
X116707825Y-97728392D01*
X116707829Y-97728394D01*
X117047843Y-97826350D01*
X117047845Y-97826351D01*
X117244708Y-97859798D01*
X117396700Y-97885623D01*
X117514466Y-97892236D01*
X117749994Y-97905464D01*
X117750000Y-97905464D01*
X117750006Y-97905464D01*
X117926650Y-97895543D01*
X118103300Y-97885623D01*
X118246107Y-97861359D01*
X118452154Y-97826351D01*
X118452155Y-97826350D01*
X118452157Y-97826350D01*
X118792184Y-97728390D01*
X119119105Y-97592975D01*
X119428808Y-97421808D01*
X119717400Y-97217041D01*
X119981250Y-96981250D01*
X120217041Y-96717400D01*
X120421808Y-96428808D01*
X120592975Y-96119105D01*
X120728390Y-95792184D01*
X120826350Y-95452157D01*
X120833809Y-95408261D01*
X120885623Y-95103298D01*
X120885623Y-95103294D01*
X120905464Y-94750005D01*
X120905464Y-94749994D01*
X120894794Y-94560000D01*
X131044655Y-94560000D01*
X131064016Y-94867741D01*
X131121794Y-95170620D01*
X131121796Y-95170626D01*
X131217076Y-95463868D01*
X131217079Y-95463876D01*
X131348361Y-95742864D01*
X131348362Y-95742866D01*
X131513577Y-96003206D01*
X131513579Y-96003209D01*
X131513584Y-96003216D01*
X131710131Y-96240799D01*
X131934904Y-96451876D01*
X132184360Y-96633116D01*
X132184362Y-96633117D01*
X132184365Y-96633119D01*
X132454556Y-96781658D01*
X132454557Y-96781659D01*
X132454559Y-96781660D01*
X132454565Y-96781663D01*
X132741257Y-96895172D01*
X133039914Y-96971854D01*
X133345828Y-97010500D01*
X133345829Y-97010500D01*
X133654171Y-97010500D01*
X133654172Y-97010500D01*
X133960086Y-96971854D01*
X134258743Y-96895172D01*
X134545435Y-96781663D01*
X134815640Y-96633116D01*
X135065096Y-96451876D01*
X135289869Y-96240799D01*
X135377974Y-96134299D01*
X152396849Y-96134299D01*
X152396849Y-97865700D01*
X152399751Y-97902570D01*
X152445605Y-98060400D01*
X152529266Y-98201863D01*
X152645485Y-98318082D01*
X152786948Y-98401743D01*
X152786950Y-98401743D01*
X152786951Y-98401744D01*
X152944780Y-98447598D01*
X152981655Y-98450500D01*
X152981666Y-98450500D01*
X154713032Y-98450500D01*
X154713043Y-98450500D01*
X154749918Y-98447598D01*
X154907747Y-98401744D01*
X154941270Y-98381919D01*
X154950955Y-98376191D01*
X156890394Y-98376191D01*
X156890395Y-98376192D01*
X156990170Y-98410445D01*
X157227195Y-98449999D01*
X157227202Y-98450000D01*
X157467496Y-98450000D01*
X157467502Y-98449999D01*
X157704524Y-98410446D01*
X157804301Y-98376192D01*
X157347348Y-97919239D01*
X156890394Y-98376191D01*
X154950955Y-98376191D01*
X155049212Y-98318082D01*
X155049211Y-98318082D01*
X155049214Y-98318081D01*
X155165430Y-98201865D01*
X155249093Y-98060398D01*
X155294947Y-97902569D01*
X155297849Y-97865694D01*
X155297849Y-97412652D01*
X155317389Y-97301837D01*
X155373651Y-97204389D01*
X155459849Y-97132060D01*
X155565587Y-97093574D01*
X155678111Y-97093574D01*
X155783849Y-97132060D01*
X155870047Y-97204389D01*
X155926309Y-97301837D01*
X155935935Y-97333116D01*
X155968074Y-97460034D01*
X155968075Y-97460034D01*
X156428109Y-97000000D01*
X156375448Y-96947339D01*
X156947349Y-96947339D01*
X156947349Y-97052661D01*
X156974608Y-97154394D01*
X157027269Y-97245606D01*
X157101743Y-97320080D01*
X157192955Y-97372741D01*
X157294688Y-97400000D01*
X157400010Y-97400000D01*
X157501743Y-97372741D01*
X157592955Y-97320080D01*
X157667429Y-97245606D01*
X157720090Y-97154394D01*
X157747349Y-97052661D01*
X157747349Y-96999999D01*
X158266588Y-96999999D01*
X158726622Y-97460033D01*
X158782474Y-97239476D01*
X158782475Y-97239470D01*
X158802318Y-97000004D01*
X158802318Y-96999995D01*
X158782475Y-96760529D01*
X158782474Y-96760523D01*
X158726621Y-96539965D01*
X158266588Y-96999999D01*
X157747349Y-96999999D01*
X157747349Y-96947339D01*
X157720090Y-96845606D01*
X157667429Y-96754394D01*
X157592955Y-96679920D01*
X157501743Y-96627259D01*
X157400010Y-96600000D01*
X157294688Y-96600000D01*
X157192955Y-96627259D01*
X157101743Y-96679920D01*
X157027269Y-96754394D01*
X156974608Y-96845606D01*
X156947349Y-96947339D01*
X156375448Y-96947339D01*
X155968074Y-96539965D01*
X155935935Y-96666883D01*
X155889790Y-96769510D01*
X155811328Y-96850166D01*
X155710011Y-96899122D01*
X155598061Y-96910473D01*
X155488980Y-96882850D01*
X155395926Y-96819585D01*
X155330120Y-96728309D01*
X155299502Y-96620031D01*
X155297849Y-96587347D01*
X155297849Y-96134317D01*
X155297849Y-96134306D01*
X155294947Y-96097431D01*
X155249093Y-95939602D01*
X155249092Y-95939601D01*
X155249092Y-95939599D01*
X155165431Y-95798136D01*
X155049212Y-95681917D01*
X154950953Y-95623807D01*
X156890396Y-95623807D01*
X157347349Y-96080760D01*
X157804301Y-95623807D01*
X157804301Y-95623806D01*
X157704525Y-95589553D01*
X157467502Y-95550000D01*
X157227195Y-95550000D01*
X156990177Y-95589552D01*
X156890396Y-95623807D01*
X154950953Y-95623807D01*
X154907749Y-95598256D01*
X154749919Y-95552402D01*
X154713049Y-95549500D01*
X154713043Y-95549500D01*
X152981655Y-95549500D01*
X152981648Y-95549500D01*
X152944778Y-95552402D01*
X152786948Y-95598256D01*
X152645485Y-95681917D01*
X152529266Y-95798136D01*
X152445605Y-95939599D01*
X152399751Y-96097429D01*
X152396849Y-96134299D01*
X135377974Y-96134299D01*
X135486416Y-96003216D01*
X135651635Y-95742871D01*
X135782922Y-95463873D01*
X135878206Y-95170619D01*
X135935984Y-94867736D01*
X135955345Y-94560000D01*
X135935984Y-94252264D01*
X135878206Y-93949381D01*
X135782922Y-93656127D01*
X135651635Y-93377129D01*
X135486416Y-93116784D01*
X135289869Y-92879201D01*
X135065096Y-92668124D01*
X134815640Y-92486884D01*
X134815634Y-92486880D01*
X134545443Y-92338341D01*
X134545442Y-92338340D01*
X134545436Y-92338337D01*
X134545435Y-92338337D01*
X134258743Y-92224828D01*
X134258738Y-92224826D01*
X133960083Y-92148145D01*
X133705882Y-92116032D01*
X133654172Y-92109500D01*
X133345828Y-92109500D01*
X133301595Y-92115087D01*
X133039916Y-92148145D01*
X132741261Y-92224826D01*
X132454557Y-92338340D01*
X132454556Y-92338341D01*
X132184365Y-92486880D01*
X132184359Y-92486884D01*
X131934903Y-92668124D01*
X131710130Y-92879201D01*
X131610193Y-93000004D01*
X131566632Y-93052661D01*
X131513577Y-93116793D01*
X131348362Y-93377133D01*
X131348361Y-93377135D01*
X131217079Y-93656123D01*
X131217076Y-93656131D01*
X131121796Y-93949373D01*
X131121794Y-93949379D01*
X131064016Y-94252258D01*
X131044655Y-94560000D01*
X120894794Y-94560000D01*
X120885623Y-94396705D01*
X120885623Y-94396701D01*
X120885045Y-94393302D01*
X120873491Y-94325296D01*
X120826351Y-94047845D01*
X120826350Y-94047843D01*
X120728394Y-93707829D01*
X120728392Y-93707825D01*
X120728390Y-93707816D01*
X120592975Y-93380895D01*
X120421808Y-93071192D01*
X120406942Y-93050241D01*
X120356368Y-92978964D01*
X120217041Y-92782600D01*
X119981250Y-92518750D01*
X119717400Y-92282959D01*
X119545422Y-92160934D01*
X119428813Y-92078195D01*
X119119115Y-91907030D01*
X119119105Y-91907025D01*
X118792184Y-91771610D01*
X118792170Y-91771605D01*
X118452156Y-91673649D01*
X118452154Y-91673648D01*
X118103296Y-91614376D01*
X117750006Y-91594536D01*
X117749994Y-91594536D01*
X117396705Y-91614376D01*
X117396701Y-91614376D01*
X117047845Y-91673648D01*
X117047843Y-91673649D01*
X116707829Y-91771605D01*
X116707815Y-91771610D01*
X116380894Y-91907025D01*
X116380884Y-91907030D01*
X116071186Y-92078195D01*
X115782605Y-92282955D01*
X115782602Y-92282957D01*
X115782600Y-92282959D01*
X115726741Y-92332878D01*
X115518750Y-92518749D01*
X115518749Y-92518750D01*
X115362905Y-92693140D01*
X115299384Y-92764221D01*
X115282955Y-92782605D01*
X115078195Y-93071186D01*
X114907030Y-93380884D01*
X114907025Y-93380894D01*
X114771610Y-93707815D01*
X114771605Y-93707829D01*
X114673649Y-94047843D01*
X114673648Y-94047845D01*
X114614376Y-94396701D01*
X114614376Y-94396705D01*
X114594536Y-94749994D01*
X108579723Y-94749994D01*
X108629172Y-94630612D01*
X108686146Y-94393302D01*
X108687493Y-94376191D01*
X111845045Y-94376191D01*
X111845046Y-94376192D01*
X111944821Y-94410445D01*
X112181846Y-94449999D01*
X112181853Y-94450000D01*
X112422147Y-94450000D01*
X112422153Y-94449999D01*
X112659175Y-94410446D01*
X112758952Y-94376192D01*
X112301999Y-93919239D01*
X111845045Y-94376191D01*
X108687493Y-94376191D01*
X108705294Y-94150000D01*
X108686146Y-93906698D01*
X108629172Y-93669388D01*
X108623677Y-93656123D01*
X108581003Y-93553096D01*
X108535777Y-93443911D01*
X108408259Y-93235821D01*
X108249759Y-93050241D01*
X108190928Y-92999995D01*
X110847031Y-92999995D01*
X110847031Y-93000004D01*
X110866874Y-93239479D01*
X110922725Y-93460033D01*
X110922726Y-93460034D01*
X111382760Y-93000000D01*
X111330099Y-92947339D01*
X111902000Y-92947339D01*
X111902000Y-93052661D01*
X111929259Y-93154394D01*
X111981920Y-93245606D01*
X112056394Y-93320080D01*
X112147606Y-93372741D01*
X112249339Y-93400000D01*
X112354661Y-93400000D01*
X112456394Y-93372741D01*
X112547606Y-93320080D01*
X112622080Y-93245606D01*
X112674741Y-93154394D01*
X112702000Y-93052661D01*
X112702000Y-92999999D01*
X113221239Y-92999999D01*
X113681273Y-93460033D01*
X113737125Y-93239476D01*
X113737126Y-93239470D01*
X113756969Y-93000004D01*
X113756969Y-92999995D01*
X113737126Y-92760529D01*
X113737125Y-92760523D01*
X113681272Y-92539965D01*
X113221239Y-92999999D01*
X112702000Y-92999999D01*
X112702000Y-92947339D01*
X112674741Y-92845606D01*
X112622080Y-92754394D01*
X112547606Y-92679920D01*
X112456394Y-92627259D01*
X112354661Y-92600000D01*
X112249339Y-92600000D01*
X112147606Y-92627259D01*
X112056394Y-92679920D01*
X111981920Y-92754394D01*
X111929259Y-92845606D01*
X111902000Y-92947339D01*
X111330099Y-92947339D01*
X110922725Y-92539965D01*
X110866875Y-92760515D01*
X110866874Y-92760524D01*
X110847031Y-92999995D01*
X108190928Y-92999995D01*
X108064179Y-92891741D01*
X108064177Y-92891739D01*
X108064175Y-92891738D01*
X107916709Y-92801371D01*
X107856089Y-92764223D01*
X107856087Y-92764222D01*
X107856085Y-92764221D01*
X107630616Y-92670829D01*
X107619349Y-92668124D01*
X107393302Y-92613854D01*
X107393299Y-92613853D01*
X107393297Y-92613853D01*
X107150002Y-92594706D01*
X107149998Y-92594706D01*
X106906702Y-92613853D01*
X106906699Y-92613853D01*
X106906698Y-92613854D01*
X106824335Y-92633628D01*
X106669383Y-92670829D01*
X106443914Y-92764221D01*
X106443912Y-92764222D01*
X106235824Y-92891738D01*
X106050244Y-93050238D01*
X106050238Y-93050244D01*
X105891738Y-93235824D01*
X105764222Y-93443912D01*
X105764219Y-93443917D01*
X105749336Y-93479849D01*
X105688877Y-93574750D01*
X105599605Y-93643250D01*
X105492289Y-93677086D01*
X105379872Y-93672178D01*
X105275914Y-93629116D01*
X105192953Y-93553096D01*
X105150664Y-93479849D01*
X105135780Y-93443917D01*
X105135777Y-93443912D01*
X105135777Y-93443911D01*
X105008259Y-93235821D01*
X104849759Y-93050241D01*
X104664179Y-92891741D01*
X104664177Y-92891739D01*
X104664175Y-92891738D01*
X104516709Y-92801371D01*
X104456089Y-92764223D01*
X104456087Y-92764222D01*
X104456085Y-92764221D01*
X104230616Y-92670829D01*
X104219349Y-92668124D01*
X103993302Y-92613854D01*
X103993299Y-92613853D01*
X103993297Y-92613853D01*
X103750002Y-92594706D01*
X103749998Y-92594706D01*
X103506702Y-92613853D01*
X103506699Y-92613853D01*
X103506698Y-92613854D01*
X103424335Y-92633628D01*
X103269383Y-92670829D01*
X103043914Y-92764221D01*
X103043912Y-92764222D01*
X102835824Y-92891738D01*
X102650244Y-93050238D01*
X102650238Y-93050244D01*
X102491738Y-93235824D01*
X102364222Y-93443912D01*
X102364221Y-93443914D01*
X102270829Y-93669383D01*
X102213854Y-93906699D01*
X102213853Y-93906702D01*
X102194706Y-94149997D01*
X96243707Y-94149997D01*
X96226351Y-94047845D01*
X96226350Y-94047843D01*
X96128394Y-93707829D01*
X96128392Y-93707825D01*
X96128390Y-93707816D01*
X95992975Y-93380895D01*
X95821808Y-93071192D01*
X95806942Y-93050241D01*
X95756368Y-92978964D01*
X95617041Y-92782600D01*
X95381250Y-92518750D01*
X95117400Y-92282959D01*
X94945422Y-92160934D01*
X94828813Y-92078195D01*
X94519115Y-91907030D01*
X94519105Y-91907025D01*
X94192184Y-91771610D01*
X94192170Y-91771605D01*
X93852156Y-91673649D01*
X93852154Y-91673648D01*
X93503296Y-91614376D01*
X93150006Y-91594536D01*
X93149994Y-91594536D01*
X92796705Y-91614376D01*
X92796701Y-91614376D01*
X92447845Y-91673648D01*
X92447843Y-91673649D01*
X92107829Y-91771605D01*
X92107815Y-91771610D01*
X91780894Y-91907025D01*
X91780884Y-91907030D01*
X91471186Y-92078195D01*
X91182605Y-92282955D01*
X91182602Y-92282957D01*
X91182600Y-92282959D01*
X91126741Y-92332878D01*
X90918750Y-92518749D01*
X90918739Y-92518760D01*
X90816088Y-92633628D01*
X90727678Y-92703236D01*
X90620792Y-92738408D01*
X90508323Y-92734902D01*
X90403835Y-92693140D01*
X90319933Y-92618160D01*
X90266734Y-92519006D01*
X90250500Y-92417732D01*
X90250500Y-91100000D01*
X100641532Y-91100000D01*
X100664669Y-91155861D01*
X100664672Y-91155866D01*
X100792143Y-91363880D01*
X100950592Y-91549401D01*
X100950598Y-91549407D01*
X101136119Y-91707856D01*
X101344133Y-91835327D01*
X101344138Y-91835330D01*
X101400000Y-91858468D01*
X101400000Y-91100001D01*
X101399999Y-91100000D01*
X100641532Y-91100000D01*
X90250500Y-91100000D01*
X90250500Y-90377591D01*
X101500000Y-90377591D01*
X101500000Y-90522409D01*
X101537482Y-90662292D01*
X101609890Y-90787708D01*
X101712292Y-90890110D01*
X101837708Y-90962518D01*
X101977591Y-91000000D01*
X102122409Y-91000000D01*
X102262292Y-90962518D01*
X102387708Y-90890110D01*
X102490110Y-90787708D01*
X102562518Y-90662292D01*
X102600000Y-90522409D01*
X102600000Y-90377591D01*
X102562518Y-90237708D01*
X102490110Y-90112292D01*
X102387708Y-90009890D01*
X102262292Y-89937482D01*
X102122409Y-89900000D01*
X101977591Y-89900000D01*
X101837708Y-89937482D01*
X101712292Y-90009890D01*
X101609890Y-90112292D01*
X101537482Y-90237708D01*
X101500000Y-90377591D01*
X90250500Y-90377591D01*
X90250500Y-89800000D01*
X100641532Y-89800000D01*
X101399999Y-89800000D01*
X101400000Y-89799999D01*
X101400000Y-89041530D01*
X102700000Y-89041530D01*
X102700000Y-91858467D01*
X102755861Y-91835330D01*
X102755866Y-91835327D01*
X102963880Y-91707856D01*
X103149401Y-91549407D01*
X103149407Y-91549401D01*
X103307856Y-91363880D01*
X103435327Y-91155866D01*
X103435330Y-91155861D01*
X103450662Y-91118848D01*
X103511121Y-91023946D01*
X103600392Y-90955445D01*
X103707708Y-90921608D01*
X103820125Y-90926516D01*
X103924084Y-90969576D01*
X104007046Y-91045596D01*
X104049338Y-91118848D01*
X104064669Y-91155861D01*
X104064672Y-91155866D01*
X104192143Y-91363880D01*
X104350592Y-91549401D01*
X104350598Y-91549407D01*
X104536119Y-91707856D01*
X104744133Y-91835327D01*
X104744138Y-91835330D01*
X104800000Y-91858468D01*
X104800000Y-90377591D01*
X104900000Y-90377591D01*
X104900000Y-90522409D01*
X104937482Y-90662292D01*
X105009890Y-90787708D01*
X105112292Y-90890110D01*
X105237708Y-90962518D01*
X105377591Y-91000000D01*
X105522409Y-91000000D01*
X105662292Y-90962518D01*
X105787708Y-90890110D01*
X105890110Y-90787708D01*
X105962518Y-90662292D01*
X106000000Y-90522409D01*
X106000000Y-90377591D01*
X105962518Y-90237708D01*
X105890110Y-90112292D01*
X105787708Y-90009890D01*
X105662292Y-89937482D01*
X105522409Y-89900000D01*
X105377591Y-89900000D01*
X105237708Y-89937482D01*
X105112292Y-90009890D01*
X105009890Y-90112292D01*
X104937482Y-90237708D01*
X104900000Y-90377591D01*
X104800000Y-90377591D01*
X104800000Y-89041530D01*
X106100000Y-89041530D01*
X106100000Y-91858467D01*
X106155861Y-91835330D01*
X106155866Y-91835327D01*
X106363880Y-91707856D01*
X106549401Y-91549407D01*
X106549407Y-91549401D01*
X106707852Y-91363885D01*
X106710771Y-91359122D01*
X106713808Y-91355688D01*
X106715339Y-91353582D01*
X106715541Y-91353729D01*
X106785328Y-91274843D01*
X106884213Y-91221146D01*
X106995500Y-91204509D01*
X107105766Y-91226937D01*
X107201712Y-91285726D01*
X107271764Y-91373784D01*
X107298170Y-91438004D01*
X107348256Y-91610400D01*
X107431917Y-91751863D01*
X107548136Y-91868082D01*
X107689599Y-91951743D01*
X107689601Y-91951743D01*
X107689602Y-91951744D01*
X107847431Y-91997598D01*
X107884306Y-92000500D01*
X107884317Y-92000500D01*
X109815683Y-92000500D01*
X109815694Y-92000500D01*
X109852569Y-91997598D01*
X110010398Y-91951744D01*
X110012502Y-91950500D01*
X110108082Y-91893974D01*
X110151865Y-91868081D01*
X110268081Y-91751865D01*
X110349391Y-91614377D01*
X110351743Y-91610400D01*
X110356352Y-91594536D01*
X110397598Y-91452569D01*
X110400500Y-91415694D01*
X110400500Y-91321188D01*
X110420040Y-91210373D01*
X110476302Y-91112925D01*
X110562500Y-91040596D01*
X110668238Y-91002110D01*
X110780762Y-91002110D01*
X110886500Y-91040596D01*
X110972698Y-91112925D01*
X111015099Y-91181199D01*
X111015573Y-91180943D01*
X111019863Y-91188870D01*
X111021210Y-91191040D01*
X111021951Y-91192728D01*
X111021953Y-91192731D01*
X111153425Y-91393963D01*
X111153433Y-91393974D01*
X111316238Y-91570827D01*
X111505929Y-91718469D01*
X111505939Y-91718476D01*
X111604114Y-91771605D01*
X111717344Y-91832882D01*
X111944700Y-91910933D01*
X111944701Y-91910933D01*
X111944703Y-91910934D01*
X112067343Y-91931399D01*
X112173427Y-91968910D01*
X112243114Y-92021876D01*
X112301999Y-92080761D01*
X112302000Y-92080761D01*
X112360882Y-92021878D01*
X112453056Y-91957336D01*
X112536653Y-91931399D01*
X112659297Y-91910934D01*
X112886656Y-91832882D01*
X113098067Y-91718472D01*
X113287764Y-91570825D01*
X113450571Y-91393969D01*
X113582049Y-91192728D01*
X113678610Y-90972591D01*
X113734978Y-90749995D01*
X135544529Y-90749995D01*
X135544529Y-90750004D01*
X135564378Y-90989548D01*
X135564380Y-90989564D01*
X135623391Y-91222595D01*
X135719951Y-91442728D01*
X135851425Y-91643963D01*
X135851433Y-91643974D01*
X136014238Y-91820827D01*
X136203929Y-91968469D01*
X136203939Y-91968476D01*
X136368929Y-92057763D01*
X136415344Y-92082882D01*
X136642703Y-92160934D01*
X136879808Y-92200500D01*
X136879811Y-92200500D01*
X137120189Y-92200500D01*
X137120192Y-92200500D01*
X137357297Y-92160934D01*
X137584656Y-92082882D01*
X137796067Y-91968472D01*
X137985764Y-91820825D01*
X138148571Y-91643969D01*
X138280049Y-91442728D01*
X138376610Y-91222591D01*
X138432978Y-90999995D01*
X153794529Y-90999995D01*
X153794529Y-91000004D01*
X153814378Y-91239548D01*
X153814380Y-91239564D01*
X153873391Y-91472595D01*
X153969951Y-91692728D01*
X154101425Y-91893963D01*
X154101433Y-91893974D01*
X154264238Y-92070827D01*
X154453929Y-92218469D01*
X154453939Y-92218476D01*
X154573087Y-92282955D01*
X154665344Y-92332882D01*
X154665347Y-92332883D01*
X154891278Y-92410445D01*
X154892703Y-92410934D01*
X155129808Y-92450500D01*
X155129811Y-92450500D01*
X155370189Y-92450500D01*
X155370192Y-92450500D01*
X155607297Y-92410934D01*
X155708500Y-92376191D01*
X157293045Y-92376191D01*
X157293046Y-92376192D01*
X157392821Y-92410445D01*
X157629846Y-92449999D01*
X157629853Y-92450000D01*
X157870147Y-92450000D01*
X157870153Y-92449999D01*
X158107175Y-92410446D01*
X158206952Y-92376192D01*
X157749999Y-91919239D01*
X157293045Y-92376191D01*
X155708500Y-92376191D01*
X155834656Y-92332882D01*
X156046067Y-92218472D01*
X156235764Y-92070825D01*
X156398571Y-91893969D01*
X156530049Y-91692728D01*
X156626610Y-91472591D01*
X156685620Y-91239563D01*
X156685620Y-91239555D01*
X156687446Y-91228618D01*
X156724955Y-91122530D01*
X156777927Y-91052832D01*
X156883420Y-90947339D01*
X157350000Y-90947339D01*
X157350000Y-91052661D01*
X157377259Y-91154394D01*
X157429920Y-91245606D01*
X157504394Y-91320080D01*
X157595606Y-91372741D01*
X157697339Y-91400000D01*
X157802661Y-91400000D01*
X157904394Y-91372741D01*
X157995606Y-91320080D01*
X158070080Y-91245606D01*
X158122741Y-91154394D01*
X158150000Y-91052661D01*
X158150000Y-90947339D01*
X158122741Y-90845606D01*
X158070080Y-90754394D01*
X157995606Y-90679920D01*
X157904394Y-90627259D01*
X157802661Y-90600000D01*
X157697339Y-90600000D01*
X157595606Y-90627259D01*
X157504394Y-90679920D01*
X157429920Y-90754394D01*
X157377259Y-90845606D01*
X157350000Y-90947339D01*
X156883420Y-90947339D01*
X157750001Y-90080761D01*
X158206952Y-89623807D01*
X158206952Y-89623806D01*
X158196371Y-89620174D01*
X158097905Y-89565711D01*
X158024005Y-89480856D01*
X157983584Y-89375843D01*
X157981517Y-89263338D01*
X158018053Y-89156911D01*
X158063196Y-89094293D01*
X158120571Y-89031969D01*
X158252049Y-88830728D01*
X158348610Y-88610591D01*
X158407620Y-88377563D01*
X158427471Y-88138000D01*
X158407620Y-87898437D01*
X158348610Y-87665409D01*
X158252049Y-87445272D01*
X158120571Y-87244031D01*
X158120567Y-87244027D01*
X158120566Y-87244025D01*
X157957761Y-87067172D01*
X157768070Y-86919530D01*
X157768060Y-86919523D01*
X157556662Y-86805121D01*
X157556652Y-86805116D01*
X157329299Y-86727066D01*
X157092196Y-86687500D01*
X157092192Y-86687500D01*
X156851808Y-86687500D01*
X156851803Y-86687500D01*
X156614700Y-86727066D01*
X156387347Y-86805116D01*
X156387337Y-86805121D01*
X156175939Y-86919523D01*
X156175929Y-86919530D01*
X155986238Y-87067172D01*
X155823433Y-87244025D01*
X155823425Y-87244036D01*
X155691951Y-87445271D01*
X155595391Y-87665404D01*
X155536380Y-87898435D01*
X155536378Y-87898451D01*
X155516529Y-88137995D01*
X155516529Y-88138004D01*
X155536378Y-88377548D01*
X155536380Y-88377564D01*
X155595391Y-88610595D01*
X155691951Y-88830728D01*
X155823425Y-89031963D01*
X155823433Y-89031974D01*
X155829373Y-89038426D01*
X155890050Y-89133188D01*
X155914657Y-89242988D01*
X155900227Y-89354583D01*
X155848499Y-89454513D01*
X155765712Y-89530723D01*
X155661853Y-89574024D01*
X155549448Y-89579191D01*
X155537670Y-89577447D01*
X155370198Y-89549500D01*
X155370192Y-89549500D01*
X155129808Y-89549500D01*
X155129803Y-89549500D01*
X154892700Y-89589066D01*
X154665347Y-89667116D01*
X154665337Y-89667121D01*
X154453939Y-89781523D01*
X154453929Y-89781530D01*
X154264238Y-89929172D01*
X154101433Y-90106025D01*
X154101425Y-90106036D01*
X153969951Y-90307271D01*
X153873391Y-90527404D01*
X153814380Y-90760435D01*
X153814378Y-90760451D01*
X153794529Y-90999995D01*
X138432978Y-90999995D01*
X138435620Y-90989563D01*
X138447549Y-90845606D01*
X138455471Y-90750004D01*
X138455471Y-90749995D01*
X138435621Y-90510451D01*
X138435620Y-90510437D01*
X138376610Y-90277409D01*
X138369165Y-90260437D01*
X138304183Y-90112292D01*
X138280049Y-90057272D01*
X138148571Y-89856031D01*
X138148567Y-89856027D01*
X138148566Y-89856025D01*
X137985761Y-89679172D01*
X137796070Y-89531530D01*
X137796060Y-89531523D01*
X137584662Y-89417121D01*
X137584652Y-89417116D01*
X137357301Y-89339067D01*
X137357298Y-89339066D01*
X137357297Y-89339066D01*
X137302618Y-89329941D01*
X137234654Y-89318600D01*
X137128568Y-89281086D01*
X137058884Y-89228122D01*
X137000001Y-89169239D01*
X137000000Y-89169239D01*
X136941115Y-89228123D01*
X136848940Y-89292664D01*
X136765346Y-89318600D01*
X136677790Y-89333210D01*
X136642703Y-89339066D01*
X136642702Y-89339066D01*
X136642698Y-89339067D01*
X136415347Y-89417116D01*
X136415337Y-89417121D01*
X136203939Y-89531523D01*
X136203929Y-89531530D01*
X136014238Y-89679172D01*
X135851433Y-89856025D01*
X135851425Y-89856036D01*
X135719951Y-90057271D01*
X135623391Y-90277404D01*
X135564380Y-90510435D01*
X135564378Y-90510451D01*
X135544529Y-90749995D01*
X113734978Y-90749995D01*
X113737620Y-90739563D01*
X113749185Y-90600000D01*
X113757471Y-90500004D01*
X113757471Y-90499995D01*
X113737621Y-90260451D01*
X113737620Y-90260437D01*
X113678610Y-90027409D01*
X113670925Y-90009890D01*
X113636067Y-89930421D01*
X113582049Y-89807272D01*
X113450571Y-89606031D01*
X113450567Y-89606027D01*
X113450566Y-89606025D01*
X113287761Y-89429172D01*
X113098070Y-89281530D01*
X113098060Y-89281523D01*
X112886662Y-89167121D01*
X112886652Y-89167116D01*
X112659299Y-89089066D01*
X112422196Y-89049500D01*
X112422192Y-89049500D01*
X112181808Y-89049500D01*
X112181803Y-89049500D01*
X111944700Y-89089066D01*
X111717347Y-89167116D01*
X111717337Y-89167121D01*
X111505939Y-89281523D01*
X111505929Y-89281530D01*
X111316238Y-89429172D01*
X111153433Y-89606025D01*
X111153425Y-89606036D01*
X111021950Y-89807272D01*
X111021209Y-89808963D01*
X111020287Y-89810346D01*
X111015573Y-89819057D01*
X111014770Y-89818622D01*
X110958801Y-89902594D01*
X110868133Y-89969234D01*
X110760140Y-90000845D01*
X110647849Y-89993613D01*
X110544802Y-89948412D01*
X110463431Y-89870693D01*
X110413547Y-89769830D01*
X110400500Y-89678811D01*
X110400500Y-89484317D01*
X110400500Y-89484306D01*
X110397598Y-89447431D01*
X110351744Y-89289602D01*
X110351743Y-89289601D01*
X110351743Y-89289599D01*
X110268082Y-89148136D01*
X110151863Y-89031917D01*
X110010400Y-88948256D01*
X109852570Y-88902402D01*
X109815700Y-88899500D01*
X109815694Y-88899500D01*
X107884306Y-88899500D01*
X107884299Y-88899500D01*
X107847429Y-88902402D01*
X107689599Y-88948256D01*
X107548136Y-89031917D01*
X107431917Y-89148136D01*
X107348257Y-89289598D01*
X107298170Y-89461996D01*
X107248489Y-89562959D01*
X107167273Y-89640841D01*
X107064318Y-89686249D01*
X106952041Y-89693706D01*
X106843986Y-89662312D01*
X106753183Y-89595854D01*
X106710776Y-89540885D01*
X106707854Y-89536116D01*
X106549407Y-89350598D01*
X106549401Y-89350592D01*
X106363882Y-89192145D01*
X106155859Y-89064668D01*
X106100000Y-89041530D01*
X104800000Y-89041530D01*
X104744140Y-89064668D01*
X104536117Y-89192145D01*
X104350598Y-89350592D01*
X104350592Y-89350598D01*
X104192143Y-89536119D01*
X104064672Y-89744133D01*
X104064668Y-89744140D01*
X104049337Y-89781153D01*
X103988877Y-89876055D01*
X103899606Y-89944555D01*
X103792290Y-89978391D01*
X103679873Y-89973483D01*
X103575914Y-89930421D01*
X103492953Y-89854401D01*
X103450663Y-89781153D01*
X103435331Y-89744140D01*
X103435327Y-89744133D01*
X103307856Y-89536119D01*
X103149407Y-89350598D01*
X103149401Y-89350592D01*
X102963882Y-89192145D01*
X102755859Y-89064668D01*
X102700000Y-89041530D01*
X101400000Y-89041530D01*
X101344140Y-89064668D01*
X101136117Y-89192145D01*
X100950598Y-89350592D01*
X100950592Y-89350598D01*
X100792143Y-89536119D01*
X100664672Y-89744133D01*
X100664669Y-89744138D01*
X100641532Y-89800000D01*
X90250500Y-89800000D01*
X90250500Y-88249995D01*
X135545031Y-88249995D01*
X135545031Y-88250004D01*
X135564874Y-88489479D01*
X135620725Y-88710033D01*
X135620726Y-88710034D01*
X136080760Y-88250000D01*
X136028099Y-88197339D01*
X136600000Y-88197339D01*
X136600000Y-88302661D01*
X136627259Y-88404394D01*
X136679920Y-88495606D01*
X136754394Y-88570080D01*
X136845606Y-88622741D01*
X136947339Y-88650000D01*
X137052661Y-88650000D01*
X137154394Y-88622741D01*
X137245606Y-88570080D01*
X137320080Y-88495606D01*
X137372741Y-88404394D01*
X137400000Y-88302661D01*
X137400000Y-88249999D01*
X137919239Y-88249999D01*
X138379273Y-88710033D01*
X138435125Y-88489476D01*
X138435126Y-88489470D01*
X138454969Y-88250004D01*
X138454969Y-88249995D01*
X138435126Y-88010529D01*
X138435125Y-88010523D01*
X138379272Y-87789965D01*
X137919239Y-88249999D01*
X137400000Y-88249999D01*
X137400000Y-88197339D01*
X137372741Y-88095606D01*
X137320080Y-88004394D01*
X137245606Y-87929920D01*
X137154394Y-87877259D01*
X137052661Y-87850000D01*
X136947339Y-87850000D01*
X136845606Y-87877259D01*
X136754394Y-87929920D01*
X136679920Y-88004394D01*
X136627259Y-88095606D01*
X136600000Y-88197339D01*
X136028099Y-88197339D01*
X135620725Y-87789965D01*
X135564875Y-88010515D01*
X135564874Y-88010524D01*
X135545031Y-88249995D01*
X90250500Y-88249995D01*
X90250500Y-86873807D01*
X136543047Y-86873807D01*
X137000000Y-87330760D01*
X137456952Y-86873807D01*
X137456952Y-86873806D01*
X137357176Y-86839553D01*
X137120153Y-86800000D01*
X136879846Y-86800000D01*
X136642828Y-86839552D01*
X136543047Y-86873807D01*
X90250500Y-86873807D01*
X90250500Y-85348299D01*
X144199500Y-85348299D01*
X144199500Y-87879700D01*
X144202402Y-87916570D01*
X144248256Y-88074400D01*
X144331917Y-88215863D01*
X144448136Y-88332082D01*
X144589599Y-88415743D01*
X144589601Y-88415743D01*
X144589602Y-88415744D01*
X144747431Y-88461598D01*
X144784306Y-88464500D01*
X144784317Y-88464500D01*
X147315683Y-88464500D01*
X147315694Y-88464500D01*
X147352569Y-88461598D01*
X147510398Y-88415744D01*
X147651865Y-88332081D01*
X147768081Y-88215865D01*
X147851744Y-88074398D01*
X147897598Y-87916569D01*
X147900500Y-87879694D01*
X147900500Y-85348306D01*
X147897598Y-85311431D01*
X147851744Y-85153602D01*
X147851743Y-85153601D01*
X147851743Y-85153599D01*
X147768082Y-85012136D01*
X147651863Y-84895917D01*
X147510400Y-84812256D01*
X147352570Y-84766402D01*
X147315700Y-84763500D01*
X147315694Y-84763500D01*
X144784306Y-84763500D01*
X144784299Y-84763500D01*
X144747429Y-84766402D01*
X144589599Y-84812256D01*
X144448136Y-84895917D01*
X144331917Y-85012136D01*
X144248256Y-85153599D01*
X144202402Y-85311429D01*
X144199500Y-85348299D01*
X90250500Y-85348299D01*
X90250500Y-81734299D01*
X122149500Y-81734299D01*
X122149500Y-84265700D01*
X122152402Y-84302570D01*
X122198256Y-84460400D01*
X122281917Y-84601863D01*
X122398136Y-84718082D01*
X122539599Y-84801743D01*
X122539601Y-84801743D01*
X122539602Y-84801744D01*
X122697431Y-84847598D01*
X122734306Y-84850500D01*
X122734317Y-84850500D01*
X125265683Y-84850500D01*
X125265694Y-84850500D01*
X125302569Y-84847598D01*
X125460398Y-84801744D01*
X125601865Y-84718081D01*
X125632123Y-84687823D01*
X130731413Y-84687823D01*
X130977465Y-84779597D01*
X131236044Y-84835847D01*
X131500000Y-84854725D01*
X131763953Y-84835847D01*
X131763956Y-84835847D01*
X132022536Y-84779597D01*
X132268584Y-84687824D01*
X132268585Y-84687823D01*
X131500000Y-83919239D01*
X130731413Y-84687823D01*
X125632123Y-84687823D01*
X125718081Y-84601865D01*
X125801744Y-84460398D01*
X125847598Y-84302569D01*
X125850500Y-84265694D01*
X125850500Y-83000000D01*
X129645274Y-83000000D01*
X129664152Y-83263953D01*
X129664152Y-83263956D01*
X129720402Y-83522533D01*
X129720404Y-83522540D01*
X129812174Y-83768584D01*
X129812175Y-83768584D01*
X130580760Y-83000000D01*
X130501769Y-82921009D01*
X130900000Y-82921009D01*
X130900000Y-83078991D01*
X130940889Y-83231591D01*
X131019881Y-83368408D01*
X131131592Y-83480119D01*
X131268409Y-83559111D01*
X131421009Y-83600000D01*
X131578991Y-83600000D01*
X131731591Y-83559111D01*
X131868408Y-83480119D01*
X131980119Y-83368408D01*
X132059111Y-83231591D01*
X132100000Y-83078991D01*
X132100000Y-82999999D01*
X132419239Y-82999999D01*
X132419239Y-83000000D01*
X133187823Y-83768585D01*
X133187824Y-83768584D01*
X133279597Y-83522536D01*
X133335847Y-83263956D01*
X133335847Y-83263953D01*
X133354725Y-83000000D01*
X133335847Y-82736046D01*
X133335847Y-82736043D01*
X133279597Y-82477466D01*
X133279597Y-82477464D01*
X133187823Y-82231413D01*
X132419239Y-82999999D01*
X132100000Y-82999999D01*
X132100000Y-82921009D01*
X132059111Y-82768409D01*
X131980119Y-82631592D01*
X131868408Y-82519881D01*
X131731591Y-82440889D01*
X131578991Y-82400000D01*
X131421009Y-82400000D01*
X131268409Y-82440889D01*
X131131592Y-82519881D01*
X131019881Y-82631592D01*
X130940889Y-82768409D01*
X130900000Y-82921009D01*
X130501769Y-82921009D01*
X129812175Y-82231415D01*
X129720402Y-82477466D01*
X129664152Y-82736046D01*
X129645274Y-83000000D01*
X125850500Y-83000000D01*
X125850500Y-81734306D01*
X125847598Y-81697431D01*
X125801744Y-81539602D01*
X125801743Y-81539601D01*
X125801743Y-81539599D01*
X125718082Y-81398136D01*
X125632121Y-81312175D01*
X130731415Y-81312175D01*
X131500000Y-82080760D01*
X132268584Y-81312175D01*
X132268584Y-81312174D01*
X132022540Y-81220404D01*
X132022533Y-81220402D01*
X131763955Y-81164152D01*
X131500000Y-81145274D01*
X131236046Y-81164152D01*
X130977466Y-81220402D01*
X130731415Y-81312175D01*
X125632121Y-81312175D01*
X125601863Y-81281917D01*
X125460400Y-81198256D01*
X125302570Y-81152402D01*
X125265700Y-81149500D01*
X125265694Y-81149500D01*
X122734306Y-81149500D01*
X122734299Y-81149500D01*
X122697429Y-81152402D01*
X122539599Y-81198256D01*
X122398136Y-81281917D01*
X122281917Y-81398136D01*
X122198256Y-81539599D01*
X122152402Y-81697429D01*
X122149500Y-81734299D01*
X90250500Y-81734299D01*
X90250500Y-81146578D01*
X97434659Y-81146578D01*
X97663890Y-81246147D01*
X97663894Y-81246148D01*
X97933937Y-81321811D01*
X97933945Y-81321812D01*
X98211777Y-81360000D01*
X98492223Y-81360000D01*
X98770054Y-81321812D01*
X98770062Y-81321811D01*
X99040105Y-81246148D01*
X99040109Y-81246147D01*
X99269338Y-81146578D01*
X98351999Y-80229239D01*
X97434659Y-81146578D01*
X90250500Y-81146578D01*
X90250500Y-79310000D01*
X96297210Y-79310000D01*
X96316348Y-79589794D01*
X96316349Y-79589802D01*
X96373406Y-79864372D01*
X96373406Y-79864373D01*
X96467324Y-80128634D01*
X96517428Y-80225330D01*
X97432760Y-79310000D01*
X97363816Y-79241056D01*
X97652000Y-79241056D01*
X97652000Y-79378944D01*
X97678901Y-79514182D01*
X97731668Y-79641574D01*
X97808274Y-79756224D01*
X97905776Y-79853726D01*
X98020426Y-79930332D01*
X98147818Y-79983099D01*
X98283056Y-80010000D01*
X98420944Y-80010000D01*
X98556182Y-79983099D01*
X98683574Y-79930332D01*
X98798224Y-79853726D01*
X98895726Y-79756224D01*
X98972332Y-79641574D01*
X99025099Y-79514182D01*
X99052000Y-79378944D01*
X99052000Y-79309999D01*
X99271239Y-79309999D01*
X100186570Y-80225330D01*
X100236674Y-80128636D01*
X100236678Y-80128627D01*
X100330591Y-79864378D01*
X100330593Y-79864372D01*
X100387650Y-79589802D01*
X100387651Y-79589794D01*
X100406789Y-79310000D01*
X101376709Y-79310000D01*
X101395852Y-79589863D01*
X101395853Y-79589870D01*
X101444771Y-79825271D01*
X101452925Y-79864511D01*
X101546794Y-80128634D01*
X101546864Y-80128829D01*
X101546868Y-80128838D01*
X101675918Y-80377895D01*
X101675920Y-80377899D01*
X101837688Y-80607069D01*
X101837691Y-80607072D01*
X102019575Y-80801824D01*
X102029155Y-80812081D01*
X102246754Y-80989111D01*
X102246758Y-80989113D01*
X102246760Y-80989115D01*
X102249194Y-80990595D01*
X102486432Y-81134862D01*
X102743725Y-81246620D01*
X102743726Y-81246620D01*
X102743728Y-81246621D01*
X102780870Y-81257027D01*
X103013839Y-81322303D01*
X103291742Y-81360500D01*
X103291743Y-81360500D01*
X103572257Y-81360500D01*
X103572258Y-81360500D01*
X103850161Y-81322303D01*
X104120275Y-81246620D01*
X104377568Y-81134862D01*
X104617246Y-80989111D01*
X104834845Y-80812081D01*
X105026312Y-80607069D01*
X105188081Y-80377896D01*
X105317136Y-80128830D01*
X105411075Y-79864511D01*
X105468148Y-79589862D01*
X105487291Y-79310000D01*
X106456709Y-79310000D01*
X106475852Y-79589863D01*
X106475853Y-79589870D01*
X106524771Y-79825271D01*
X106532925Y-79864511D01*
X106626794Y-80128634D01*
X106626864Y-80128829D01*
X106626868Y-80128838D01*
X106755918Y-80377895D01*
X106755920Y-80377899D01*
X106917688Y-80607069D01*
X106917691Y-80607072D01*
X107099575Y-80801824D01*
X107109155Y-80812081D01*
X107326754Y-80989111D01*
X107326758Y-80989113D01*
X107326760Y-80989115D01*
X107329194Y-80990595D01*
X107566432Y-81134862D01*
X107823725Y-81246620D01*
X107823726Y-81246620D01*
X107823728Y-81246621D01*
X107860870Y-81257027D01*
X108093839Y-81322303D01*
X108371742Y-81360500D01*
X108371743Y-81360500D01*
X108652257Y-81360500D01*
X108652258Y-81360500D01*
X108930161Y-81322303D01*
X109200275Y-81246620D01*
X109457568Y-81134862D01*
X109697246Y-80989111D01*
X109914845Y-80812081D01*
X110106312Y-80607069D01*
X110268081Y-80377896D01*
X110397136Y-80128830D01*
X110491075Y-79864511D01*
X110548148Y-79589862D01*
X110567291Y-79310000D01*
X110548148Y-79030138D01*
X110491075Y-78755489D01*
X110397136Y-78491170D01*
X110268081Y-78242104D01*
X110268079Y-78242100D01*
X110106311Y-78012930D01*
X110106308Y-78012927D01*
X109948822Y-77844299D01*
X111541500Y-77844299D01*
X111541500Y-80775700D01*
X111544402Y-80812570D01*
X111590256Y-80970400D01*
X111673917Y-81111863D01*
X111790136Y-81228082D01*
X111931599Y-81311743D01*
X111931601Y-81311743D01*
X111931602Y-81311744D01*
X112089431Y-81357598D01*
X112126306Y-81360500D01*
X112126317Y-81360500D01*
X115057683Y-81360500D01*
X115057694Y-81360500D01*
X115094569Y-81357598D01*
X115252398Y-81311744D01*
X115393865Y-81228081D01*
X115510081Y-81111865D01*
X115593744Y-80970398D01*
X115639598Y-80812569D01*
X115640444Y-80801823D01*
X145281413Y-80801823D01*
X145527465Y-80893597D01*
X145786044Y-80949847D01*
X146050000Y-80968725D01*
X146313953Y-80949847D01*
X146313956Y-80949847D01*
X146572536Y-80893597D01*
X146818584Y-80801824D01*
X146818585Y-80801823D01*
X146050000Y-80033239D01*
X145281413Y-80801823D01*
X115640444Y-80801823D01*
X115642500Y-80775694D01*
X115642500Y-79114000D01*
X144195274Y-79114000D01*
X144214152Y-79377953D01*
X144214152Y-79377956D01*
X144270402Y-79636533D01*
X144270404Y-79636540D01*
X144362174Y-79882584D01*
X144362175Y-79882584D01*
X145130760Y-79114000D01*
X145051769Y-79035009D01*
X145450000Y-79035009D01*
X145450000Y-79192991D01*
X145490889Y-79345591D01*
X145569881Y-79482408D01*
X145681592Y-79594119D01*
X145818409Y-79673111D01*
X145971009Y-79714000D01*
X146128991Y-79714000D01*
X146281591Y-79673111D01*
X146418408Y-79594119D01*
X146530119Y-79482408D01*
X146609111Y-79345591D01*
X146650000Y-79192991D01*
X146650000Y-79113999D01*
X146969239Y-79113999D01*
X146969239Y-79114000D01*
X147737823Y-79882585D01*
X147737824Y-79882584D01*
X147829597Y-79636536D01*
X147885847Y-79377956D01*
X147885847Y-79377953D01*
X147904725Y-79114000D01*
X147885847Y-78850046D01*
X147885847Y-78850043D01*
X147829597Y-78591466D01*
X147829597Y-78591464D01*
X147737823Y-78345413D01*
X146969239Y-79113999D01*
X146650000Y-79113999D01*
X146650000Y-79035009D01*
X146609111Y-78882409D01*
X146530119Y-78745592D01*
X146418408Y-78633881D01*
X146281591Y-78554889D01*
X146128991Y-78514000D01*
X145971009Y-78514000D01*
X145818409Y-78554889D01*
X145681592Y-78633881D01*
X145569881Y-78745592D01*
X145490889Y-78882409D01*
X145450000Y-79035009D01*
X145051769Y-79035009D01*
X144362175Y-78345415D01*
X144270402Y-78591466D01*
X144214152Y-78850046D01*
X144195274Y-79114000D01*
X115642500Y-79114000D01*
X115642500Y-78264997D01*
X155416706Y-78264997D01*
X155416706Y-78265002D01*
X155435853Y-78508297D01*
X155435853Y-78508299D01*
X155435854Y-78508302D01*
X155479397Y-78689668D01*
X155492829Y-78745616D01*
X155586221Y-78971085D01*
X155586222Y-78971087D01*
X155713738Y-79179175D01*
X155713738Y-79179176D01*
X155733741Y-79202596D01*
X155782980Y-79260248D01*
X155840088Y-79357198D01*
X155860595Y-79467837D01*
X155842023Y-79578818D01*
X155807849Y-79647877D01*
X155691950Y-79825272D01*
X155595391Y-80045404D01*
X155536380Y-80278435D01*
X155536378Y-80278451D01*
X155516529Y-80517995D01*
X155516529Y-80518004D01*
X155536378Y-80757548D01*
X155536380Y-80757564D01*
X155595391Y-80990595D01*
X155691951Y-81210728D01*
X155823425Y-81411963D01*
X155823433Y-81411974D01*
X155986238Y-81588827D01*
X156175929Y-81736469D01*
X156175939Y-81736476D01*
X156340929Y-81825763D01*
X156387344Y-81850882D01*
X156614703Y-81928934D01*
X156851808Y-81968500D01*
X156851811Y-81968500D01*
X157092189Y-81968500D01*
X157092192Y-81968500D01*
X157329297Y-81928934D01*
X157556656Y-81850882D01*
X157768067Y-81736472D01*
X157957764Y-81588825D01*
X158120571Y-81411969D01*
X158252049Y-81210728D01*
X158348610Y-80990591D01*
X158407620Y-80757563D01*
X158420090Y-80607072D01*
X158427471Y-80518004D01*
X158427471Y-80517995D01*
X158407621Y-80278451D01*
X158407620Y-80278437D01*
X158348610Y-80045409D01*
X158252049Y-79825272D01*
X158136150Y-79647877D01*
X158091898Y-79544421D01*
X158085699Y-79432068D01*
X158118301Y-79324370D01*
X158161016Y-79260251D01*
X158230259Y-79179179D01*
X158357777Y-78971089D01*
X158451172Y-78745612D01*
X158508146Y-78508302D01*
X158527294Y-78265000D01*
X158508146Y-78021698D01*
X158451172Y-77784388D01*
X158357778Y-77558913D01*
X158357778Y-77558912D01*
X158301083Y-77466395D01*
X158259842Y-77361701D01*
X158256897Y-77249215D01*
X158292601Y-77142506D01*
X158348237Y-77068000D01*
X158389685Y-77026552D01*
X158473278Y-76885203D01*
X158473283Y-76885193D01*
X158519099Y-76727494D01*
X158519099Y-76727490D01*
X158521999Y-76690648D01*
X158522000Y-76690630D01*
X158522000Y-76375001D01*
X158521999Y-76375000D01*
X155422001Y-76375000D01*
X155422000Y-76375001D01*
X155422000Y-76690648D01*
X155424900Y-76727490D01*
X155424900Y-76727494D01*
X155470716Y-76885193D01*
X155470721Y-76885203D01*
X155554315Y-77026553D01*
X155595764Y-77068002D01*
X155660305Y-77160177D01*
X155689428Y-77268867D01*
X155679621Y-77380962D01*
X155642917Y-77466393D01*
X155586223Y-77558909D01*
X155586221Y-77558914D01*
X155492829Y-77784383D01*
X155435854Y-78021699D01*
X155435853Y-78021702D01*
X155416706Y-78264997D01*
X115642500Y-78264997D01*
X115642500Y-77844306D01*
X115639598Y-77807431D01*
X115593744Y-77649602D01*
X115593743Y-77649601D01*
X115593743Y-77649599D01*
X115510082Y-77508136D01*
X115428121Y-77426175D01*
X145281415Y-77426175D01*
X146050000Y-78194760D01*
X146818584Y-77426175D01*
X146818584Y-77426174D01*
X146572540Y-77334404D01*
X146572533Y-77334402D01*
X146313955Y-77278152D01*
X146050000Y-77259274D01*
X145786046Y-77278152D01*
X145527466Y-77334402D01*
X145281415Y-77426175D01*
X115428121Y-77426175D01*
X115393863Y-77391917D01*
X115252400Y-77308256D01*
X115094570Y-77262402D01*
X115057700Y-77259500D01*
X115057694Y-77259500D01*
X112126306Y-77259500D01*
X112126299Y-77259500D01*
X112089429Y-77262402D01*
X111931599Y-77308256D01*
X111790136Y-77391917D01*
X111673917Y-77508136D01*
X111590256Y-77649599D01*
X111544402Y-77807429D01*
X111541500Y-77844299D01*
X109948822Y-77844299D01*
X109914849Y-77807923D01*
X109914847Y-77807922D01*
X109914845Y-77807919D01*
X109697246Y-77630889D01*
X109697242Y-77630886D01*
X109697239Y-77630884D01*
X109457570Y-77485139D01*
X109414412Y-77466393D01*
X109371803Y-77447885D01*
X109200271Y-77373378D01*
X108967846Y-77308256D01*
X108930161Y-77297697D01*
X108930158Y-77297696D01*
X108930156Y-77297696D01*
X108720408Y-77268867D01*
X108652258Y-77259500D01*
X108371742Y-77259500D01*
X108306745Y-77268433D01*
X108093843Y-77297696D01*
X108093839Y-77297697D01*
X107823728Y-77373378D01*
X107566429Y-77485139D01*
X107326760Y-77630884D01*
X107326749Y-77630893D01*
X107109150Y-77807923D01*
X106917691Y-78012927D01*
X106917688Y-78012930D01*
X106755920Y-78242100D01*
X106755918Y-78242104D01*
X106626868Y-78491161D01*
X106626864Y-78491170D01*
X106532924Y-78755491D01*
X106532924Y-78755492D01*
X106475853Y-79030129D01*
X106475852Y-79030136D01*
X106456709Y-79310000D01*
X105487291Y-79310000D01*
X105468148Y-79030138D01*
X105411075Y-78755489D01*
X105317136Y-78491170D01*
X105188081Y-78242104D01*
X105188079Y-78242100D01*
X105026311Y-78012930D01*
X105026308Y-78012927D01*
X104834849Y-77807923D01*
X104834847Y-77807922D01*
X104834845Y-77807919D01*
X104617246Y-77630889D01*
X104617242Y-77630886D01*
X104617239Y-77630884D01*
X104377570Y-77485139D01*
X104334412Y-77466393D01*
X104291803Y-77447885D01*
X104120271Y-77373378D01*
X103887846Y-77308256D01*
X103850161Y-77297697D01*
X103850158Y-77297696D01*
X103850156Y-77297696D01*
X103640408Y-77268867D01*
X103572258Y-77259500D01*
X103291742Y-77259500D01*
X103226745Y-77268433D01*
X103013843Y-77297696D01*
X103013839Y-77297697D01*
X102743728Y-77373378D01*
X102486429Y-77485139D01*
X102246760Y-77630884D01*
X102246749Y-77630893D01*
X102029150Y-77807923D01*
X101837691Y-78012927D01*
X101837688Y-78012930D01*
X101675920Y-78242100D01*
X101675918Y-78242104D01*
X101546868Y-78491161D01*
X101546864Y-78491170D01*
X101452924Y-78755491D01*
X101452924Y-78755492D01*
X101395853Y-79030129D01*
X101395852Y-79030136D01*
X101376709Y-79310000D01*
X100406789Y-79310000D01*
X100387651Y-79030205D01*
X100387650Y-79030197D01*
X100330593Y-78755627D01*
X100330593Y-78755626D01*
X100236676Y-78491368D01*
X100236673Y-78491362D01*
X100186569Y-78394667D01*
X99271239Y-79309999D01*
X99052000Y-79309999D01*
X99052000Y-79241056D01*
X99025099Y-79105818D01*
X98972332Y-78978426D01*
X98895726Y-78863776D01*
X98798224Y-78766274D01*
X98683574Y-78689668D01*
X98556182Y-78636901D01*
X98420944Y-78610000D01*
X98283056Y-78610000D01*
X98147818Y-78636901D01*
X98020426Y-78689668D01*
X97905776Y-78766274D01*
X97808274Y-78863776D01*
X97731668Y-78978426D01*
X97678901Y-79105818D01*
X97652000Y-79241056D01*
X97363816Y-79241056D01*
X96517429Y-78394669D01*
X96467322Y-78491371D01*
X96373406Y-78755626D01*
X96373406Y-78755627D01*
X96316349Y-79030197D01*
X96316348Y-79030205D01*
X96297210Y-79310000D01*
X90250500Y-79310000D01*
X90250500Y-77473421D01*
X97434661Y-77473421D01*
X98352000Y-78390760D01*
X99269339Y-77473421D01*
X99040104Y-77373851D01*
X98770062Y-77298188D01*
X98770054Y-77298187D01*
X98492223Y-77260000D01*
X98211777Y-77260000D01*
X97933945Y-77298187D01*
X97933937Y-77298188D01*
X97663902Y-77373849D01*
X97663894Y-77373851D01*
X97434661Y-77473421D01*
X90250500Y-77473421D01*
X90250500Y-75665756D01*
X156522000Y-75665756D01*
X156522000Y-75784244D01*
X156552667Y-75898694D01*
X156611910Y-76001306D01*
X156695694Y-76085090D01*
X156798306Y-76144333D01*
X156912756Y-76175000D01*
X157031244Y-76175000D01*
X157145694Y-76144333D01*
X157248306Y-76085090D01*
X157332090Y-76001306D01*
X157391333Y-75898694D01*
X157422000Y-75784244D01*
X157422000Y-75665756D01*
X157391333Y-75551306D01*
X157332090Y-75448694D01*
X157248306Y-75364910D01*
X157145694Y-75305667D01*
X157031244Y-75275000D01*
X156912756Y-75275000D01*
X156798306Y-75305667D01*
X156695694Y-75364910D01*
X156611910Y-75448694D01*
X156552667Y-75551306D01*
X156522000Y-75665756D01*
X90250500Y-75665756D01*
X90250500Y-74759351D01*
X155422000Y-74759351D01*
X155422000Y-75074999D01*
X155422001Y-75075000D01*
X156321999Y-75075000D01*
X156322000Y-75074999D01*
X156322000Y-74175001D01*
X157622000Y-74175001D01*
X157622000Y-75074999D01*
X157622001Y-75075000D01*
X158521999Y-75075000D01*
X158522000Y-75074999D01*
X158522000Y-74759369D01*
X158521999Y-74759351D01*
X158519099Y-74722509D01*
X158519099Y-74722505D01*
X158473283Y-74564806D01*
X158473278Y-74564796D01*
X158389684Y-74423446D01*
X158273553Y-74307315D01*
X158132203Y-74223721D01*
X158132193Y-74223716D01*
X157974492Y-74177900D01*
X157937648Y-74175000D01*
X157622001Y-74175000D01*
X157622000Y-74175001D01*
X156322000Y-74175001D01*
X156321999Y-74175000D01*
X156006351Y-74175000D01*
X155969509Y-74177900D01*
X155969505Y-74177900D01*
X155811806Y-74223716D01*
X155811796Y-74223721D01*
X155670446Y-74307315D01*
X155554315Y-74423446D01*
X155470721Y-74564796D01*
X155470716Y-74564806D01*
X155424900Y-74722505D01*
X155424900Y-74722509D01*
X155422000Y-74759351D01*
X90250500Y-74759351D01*
X90250500Y-73574000D01*
X90270040Y-73463185D01*
X90326302Y-73365737D01*
X90412500Y-73293408D01*
X90518238Y-73254922D01*
X90574500Y-73250000D01*
X159425500Y-73250000D01*
X159536315Y-73269540D01*
G37*
G04 #@! TD.AperFunction*
M02*
