G04 #@! TF.GenerationSoftware,KiCad,Pcbnew,8.0.5*
G04 #@! TF.CreationDate,2026-05-04T16:45:14+02:00*
G04 #@! TF.ProjectId,c64-wedge-psu-pcb,6336342d-7765-4646-9765-2d7073752d70,rev?*
G04 #@! TF.SameCoordinates,Original*
G04 #@! TF.FileFunction,Copper,L1,Top*
G04 #@! TF.FilePolarity,Positive*
%FSLAX46Y46*%
G04 Gerber Fmt 4.6, Leading zero omitted, Abs format (unit mm)*
G04 Created by KiCad (PCBNEW 8.0.5) date 2026-05-04 16:45:14*
%MOMM*%
%LPD*%
G01*
G04 APERTURE LIST*
G04 Aperture macros list*
%AMRoundRect*
0 Rectangle with rounded corners*
0 $1 Rounding radius*
0 $2 $3 $4 $5 $6 $7 $8 $9 X,Y pos of 4 corners*
0 Add a 4 corners polygon primitive as box body*
4,1,4,$2,$3,$4,$5,$6,$7,$8,$9,$2,$3,0*
0 Add four circle primitives for the rounded corners*
1,1,$1+$1,$2,$3*
1,1,$1+$1,$4,$5*
1,1,$1+$1,$6,$7*
1,1,$1+$1,$8,$9*
0 Add four rect primitives between the rounded corners*
20,1,$1+$1,$2,$3,$4,$5,0*
20,1,$1+$1,$4,$5,$6,$7,0*
20,1,$1+$1,$6,$7,$8,$9,0*
20,1,$1+$1,$8,$9,$2,$3,0*%
G04 Aperture macros list end*
G04 #@! TA.AperFunction,ComponentPad*
%ADD10RoundRect,0.250002X-1.699998X-1.699998X1.699998X-1.699998X1.699998X1.699998X-1.699998X1.699998X0*%
G04 #@! TD*
G04 #@! TA.AperFunction,ComponentPad*
%ADD11R,2.000000X2.000000*%
G04 #@! TD*
G04 #@! TA.AperFunction,ComponentPad*
%ADD12R,1.600000X1.600000*%
G04 #@! TD*
G04 #@! TA.AperFunction,ComponentPad*
%ADD13C,1.600000*%
G04 #@! TD*
G04 #@! TA.AperFunction,ComponentPad*
%ADD14O,1.600000X1.600000*%
G04 #@! TD*
G04 #@! TA.AperFunction,ComponentPad*
%ADD15C,3.600000*%
G04 #@! TD*
G04 #@! TA.AperFunction,ComponentPad*
%ADD16C,2.000000*%
G04 #@! TD*
G04 #@! TA.AperFunction,ComponentPad*
%ADD17R,2.400000X2.400000*%
G04 #@! TD*
G04 #@! TA.AperFunction,ComponentPad*
%ADD18C,2.400000*%
G04 #@! TD*
G04 #@! TA.AperFunction,ComponentPad*
%ADD19R,1.800000X1.800000*%
G04 #@! TD*
G04 #@! TA.AperFunction,ComponentPad*
%ADD20O,1.800000X1.800000*%
G04 #@! TD*
G04 #@! TA.AperFunction,ComponentPad*
%ADD21C,5.000000*%
G04 #@! TD*
G04 #@! TA.AperFunction,ComponentPad*
%ADD22R,3.200000X3.200000*%
G04 #@! TD*
G04 #@! TA.AperFunction,ComponentPad*
%ADD23O,3.200000X3.200000*%
G04 #@! TD*
G04 #@! TA.AperFunction,ComponentPad*
%ADD24C,1.800000*%
G04 #@! TD*
G04 #@! TA.AperFunction,ComponentPad*
%ADD25R,2.800000X2.800000*%
G04 #@! TD*
G04 #@! TA.AperFunction,ComponentPad*
%ADD26C,2.800000*%
G04 #@! TD*
G04 #@! TA.AperFunction,Conductor*
%ADD27C,4.000000*%
G04 #@! TD*
G04 #@! TA.AperFunction,Conductor*
%ADD28C,1.800000*%
G04 #@! TD*
G04 APERTURE END LIST*
D10*
X104013000Y-62500000D03*
X149987000Y-62500000D03*
X112014000Y-62500000D03*
X142000000Y-62500000D03*
D11*
X130556000Y-61976000D03*
X135636000Y-61976000D03*
D12*
X153847349Y-97000000D03*
D13*
X157347349Y-97000000D03*
X114620000Y-111000000D03*
D14*
X107000000Y-111000000D03*
D15*
X133500000Y-106000000D03*
X133500000Y-94560000D03*
D13*
X103750000Y-110998000D03*
D14*
X96130000Y-110998000D03*
D16*
X152000000Y-109500000D03*
X152000000Y-103500000D03*
D17*
X124000000Y-83000000D03*
D18*
X131500000Y-83000000D03*
D17*
X146050000Y-86614000D03*
D18*
X146050000Y-79114000D03*
D13*
X156972000Y-88138000D03*
D14*
X156972000Y-80518000D03*
D19*
X108850000Y-90450000D03*
D20*
X107150000Y-94150000D03*
X105450000Y-90450000D03*
X103750000Y-94150000D03*
X102050000Y-90450000D03*
D13*
X155250000Y-91000000D03*
X157750000Y-91000000D03*
D21*
X117750000Y-94750000D03*
X93150000Y-94750000D03*
D13*
X137000000Y-90750000D03*
X137000000Y-88250000D03*
X112302000Y-90500000D03*
X112302000Y-93000000D03*
D22*
X111200000Y-100500000D03*
D23*
X98500000Y-100500000D03*
D24*
X156972000Y-78265000D03*
D19*
X156972000Y-75725000D03*
D25*
X113592000Y-79310000D03*
D26*
X108512000Y-79310000D03*
X103432000Y-79310000D03*
X98352000Y-79310000D03*
D27*
X156972000Y-69485000D02*
X149987000Y-62500000D01*
D28*
X130556000Y-61976000D02*
X130556000Y-82056000D01*
D27*
X156972000Y-69485000D02*
X156972000Y-74682000D01*
D28*
X130556000Y-82056000D02*
X131500000Y-83000000D01*
X141859000Y-61976000D02*
X141986000Y-62103000D01*
X156972000Y-80518000D02*
X156972000Y-78232000D01*
X103752000Y-111000000D02*
X103750000Y-110998000D01*
X103750000Y-94150000D02*
X103750000Y-110998000D01*
X107000000Y-111000000D02*
X103752000Y-111000000D01*
X144500000Y-113500000D02*
X151000000Y-113500000D01*
X142000000Y-111000000D02*
X144500000Y-113500000D01*
X114620000Y-111000000D02*
X142000000Y-111000000D01*
X152000000Y-109500000D02*
X152000000Y-112500000D01*
X152000000Y-112500000D02*
X151000000Y-113500000D01*
D27*
X104013000Y-62500000D02*
X104013000Y-67487000D01*
X104013000Y-67487000D02*
X103432000Y-68068000D01*
X103432000Y-68068000D02*
X103432000Y-79310000D01*
X112014000Y-68736000D02*
X108512000Y-72238000D01*
X108512000Y-72238000D02*
X108512000Y-79310000D01*
X112014000Y-62500000D02*
X112014000Y-68736000D01*
G04 #@! TA.AperFunction,Conductor*
G36*
X147943039Y-84519685D02*
G01*
X147988794Y-84572489D01*
X148000000Y-84624000D01*
X148000000Y-105500000D01*
X150008849Y-107500000D01*
X153884849Y-107500000D01*
X153951888Y-107519685D01*
X153997643Y-107572489D01*
X154008849Y-107624000D01*
X154008849Y-110876000D01*
X153989164Y-110943039D01*
X153936360Y-110988794D01*
X153884849Y-111000000D01*
X148060211Y-111000000D01*
X147993172Y-110980315D01*
X147972530Y-110963681D01*
X135508849Y-98500000D01*
X133060211Y-98500000D01*
X132993172Y-98480315D01*
X132972530Y-98463681D01*
X130545016Y-96036167D01*
X130511531Y-95974844D01*
X130508698Y-95948852D01*
X130500152Y-93051576D01*
X130519638Y-92984479D01*
X130536465Y-92963534D01*
X133463681Y-90036319D01*
X133525004Y-90002834D01*
X133551362Y-90000000D01*
X138500000Y-90000000D01*
X143963681Y-84536319D01*
X144025004Y-84502834D01*
X144051362Y-84500000D01*
X147876000Y-84500000D01*
X147943039Y-84519685D01*
G37*
G04 #@! TD.AperFunction*
G04 #@! TA.AperFunction,Conductor*
G36*
X108476609Y-92519540D02*
G01*
X108574057Y-92575802D01*
X108594897Y-92594897D01*
X114500000Y-98500000D01*
X128865794Y-98500000D01*
X128976609Y-98519540D01*
X129074057Y-98575802D01*
X129094897Y-98594897D01*
X135905103Y-105405103D01*
X135969644Y-105497278D01*
X135998767Y-105605968D01*
X136000000Y-105634206D01*
X136000000Y-108176000D01*
X135980460Y-108286815D01*
X135924198Y-108384263D01*
X135838000Y-108456592D01*
X135732262Y-108495078D01*
X135676000Y-108500000D01*
X113634206Y-108500000D01*
X113523391Y-108480460D01*
X113425943Y-108424198D01*
X113405103Y-108405103D01*
X105594897Y-100594897D01*
X105530356Y-100502722D01*
X105501233Y-100394032D01*
X105500000Y-100365794D01*
X105500000Y-92824000D01*
X105519540Y-92713185D01*
X105575802Y-92615737D01*
X105662000Y-92543408D01*
X105767738Y-92504922D01*
X105824000Y-92500000D01*
X108365794Y-92500000D01*
X108476609Y-92519540D01*
G37*
G04 #@! TD.AperFunction*
G04 #@! TA.AperFunction,Conductor*
G36*
X115976609Y-77019540D02*
G01*
X116074057Y-77075802D01*
X116094897Y-77094897D01*
X119500000Y-80500000D01*
X126176000Y-80500000D01*
X126286815Y-80519540D01*
X126384263Y-80575802D01*
X126456592Y-80662000D01*
X126495078Y-80767738D01*
X126500000Y-80824000D01*
X126500000Y-84865794D01*
X126480460Y-84976609D01*
X126424198Y-85074057D01*
X126405103Y-85094897D01*
X120094897Y-91405103D01*
X120002722Y-91469644D01*
X119894032Y-91498767D01*
X119865794Y-91500000D01*
X107824000Y-91500000D01*
X107713185Y-91480460D01*
X107615737Y-91424198D01*
X107543408Y-91338000D01*
X107504922Y-91232262D01*
X107500000Y-91176000D01*
X107500000Y-85634205D01*
X107519540Y-85523390D01*
X107575802Y-85425942D01*
X107594886Y-85405113D01*
X111500000Y-81500000D01*
X111500000Y-77324000D01*
X111519540Y-77213185D01*
X111575802Y-77115737D01*
X111662000Y-77043408D01*
X111767738Y-77004922D01*
X111824000Y-77000000D01*
X115865794Y-77000000D01*
X115976609Y-77019540D01*
G37*
G04 #@! TD.AperFunction*
G04 #@! TA.AperFunction,Conductor*
G36*
X144943039Y-60270185D02*
G01*
X144988794Y-60322989D01*
X145000000Y-60374500D01*
X145000000Y-63500000D01*
X153963681Y-72463681D01*
X153997166Y-72525004D01*
X154000000Y-72551362D01*
X154000000Y-81500000D01*
X158463681Y-85963681D01*
X158497166Y-86025004D01*
X158500000Y-86051362D01*
X158500000Y-88948637D01*
X158480315Y-89015676D01*
X158463681Y-89036318D01*
X157984148Y-89515850D01*
X157922825Y-89549335D01*
X157876069Y-89550480D01*
X157870193Y-89549500D01*
X157870192Y-89549500D01*
X157629808Y-89549500D01*
X157582387Y-89557413D01*
X157392699Y-89589066D01*
X157165347Y-89667116D01*
X157165342Y-89667118D01*
X156953930Y-89781529D01*
X156953924Y-89781533D01*
X156764242Y-89929169D01*
X156764239Y-89929172D01*
X156601430Y-90106029D01*
X156601427Y-90106033D01*
X156469951Y-90307270D01*
X156373389Y-90527410D01*
X156314379Y-90760440D01*
X156294529Y-90999994D01*
X156294529Y-91000005D01*
X156305505Y-91132467D01*
X156291424Y-91200903D01*
X156269610Y-91230388D01*
X155000000Y-92499999D01*
X155000000Y-105376000D01*
X154980315Y-105443039D01*
X154927511Y-105488794D01*
X154876000Y-105500000D01*
X150051362Y-105500000D01*
X149984323Y-105480315D01*
X149963681Y-105463681D01*
X149036319Y-104536319D01*
X149002834Y-104474996D01*
X149000000Y-104448638D01*
X149000000Y-77000000D01*
X136000000Y-64000000D01*
X133624000Y-64000000D01*
X133556961Y-63980315D01*
X133511206Y-63927511D01*
X133500000Y-63876000D01*
X133500000Y-60374500D01*
X133519685Y-60307461D01*
X133572489Y-60261706D01*
X133624000Y-60250500D01*
X144876000Y-60250500D01*
X144943039Y-60270185D01*
G37*
G04 #@! TD.AperFunction*
M02*
