G04 #@! TF.GenerationSoftware,KiCad,Pcbnew,(5.1.5)-3*
G04 #@! TF.CreationDate,2020-11-02T14:07:51+02:00*
G04 #@! TF.ProjectId,c64-wedge-psu-pcb,6336342d-7765-4646-9765-2d7073752d70,rev?*
G04 #@! TF.SameCoordinates,Original*
G04 #@! TF.FileFunction,Legend,Bot*
G04 #@! TF.FilePolarity,Positive*
%FSLAX46Y46*%
G04 Gerber Fmt 4.6, Leading zero omitted, Abs format (unit mm)*
G04 Created by KiCad (PCBNEW (5.1.5)-3) date 2020-11-02 14:07:51*
%MOMM*%
%LPD*%
G04 APERTURE LIST*
%ADD10C,0.120000*%
%ADD11C,0.150000*%
G04 APERTURE END LIST*
D10*
X117500000Y-106080000D02*
X117500000Y-101880000D01*
X119420000Y-108000000D02*
G75*
G03X119420000Y-108000000I-1920000J0D01*
G01*
X131220000Y-87095000D02*
X125780000Y-87095000D01*
X131220000Y-86855000D02*
X125780000Y-86855000D01*
X131220000Y-86975000D02*
X125780000Y-86975000D01*
X125780000Y-78780000D02*
X126660000Y-78780000D01*
X125780000Y-88520000D02*
X125780000Y-78780000D01*
X126660000Y-88520000D02*
X125780000Y-88520000D01*
X131220000Y-78780000D02*
X130340000Y-78780000D01*
X131220000Y-88520000D02*
X131220000Y-78780000D01*
X130340000Y-88520000D02*
X131220000Y-88520000D01*
X148380000Y-110670000D02*
X156720000Y-110670000D01*
X148380000Y-91330000D02*
X156720000Y-91330000D01*
X156720000Y-101875000D02*
X156720000Y-110670000D01*
X156720000Y-91330000D02*
X156720000Y-100125000D01*
X148380000Y-101875000D02*
X148380000Y-110670000D01*
X148380000Y-91330000D02*
X148380000Y-100125000D01*
X120060000Y-93850000D02*
X120060000Y-109590000D01*
X144940000Y-93850000D02*
X144940000Y-109590000D01*
X132484000Y-109590000D02*
X120060000Y-109590000D01*
X144940000Y-109590000D02*
X132516000Y-109590000D01*
X132484000Y-93850000D02*
X120060000Y-93850000D01*
X144940000Y-93850000D02*
X132516000Y-93850000D01*
X122015000Y-93109440D02*
X120215000Y-93109440D01*
X121115000Y-94009440D02*
X121115000Y-92209440D01*
X116040000Y-75130000D02*
X115960000Y-75130000D01*
X116814000Y-75170000D02*
X115186000Y-75170000D01*
X117166000Y-75210000D02*
X114834000Y-75210000D01*
X117435000Y-75250000D02*
X114565000Y-75250000D01*
X117661000Y-75290000D02*
X114339000Y-75290000D01*
X117860000Y-75330000D02*
X114140000Y-75330000D01*
X118039000Y-75370000D02*
X113961000Y-75370000D01*
X118203000Y-75410000D02*
X113797000Y-75410000D01*
X118355000Y-75450000D02*
X113645000Y-75450000D01*
X118498000Y-75490000D02*
X113502000Y-75490000D01*
X118632000Y-75530000D02*
X113368000Y-75530000D01*
X118759000Y-75570000D02*
X113241000Y-75570000D01*
X118880000Y-75610000D02*
X113120000Y-75610000D01*
X118996000Y-75650000D02*
X113004000Y-75650000D01*
X119107000Y-75690000D02*
X112893000Y-75690000D01*
X119214000Y-75730000D02*
X112786000Y-75730000D01*
X119317000Y-75770000D02*
X112683000Y-75770000D01*
X119416000Y-75810000D02*
X112584000Y-75810000D01*
X119512000Y-75850000D02*
X112488000Y-75850000D01*
X119605000Y-75890000D02*
X112395000Y-75890000D01*
X119696000Y-75930000D02*
X112304000Y-75930000D01*
X119784000Y-75970000D02*
X112216000Y-75970000D01*
X119869000Y-76010000D02*
X112131000Y-76010000D01*
X119952000Y-76050000D02*
X112048000Y-76050000D01*
X120033000Y-76089000D02*
X111967000Y-76089000D01*
X120113000Y-76129000D02*
X111887000Y-76129000D01*
X120190000Y-76169000D02*
X111810000Y-76169000D01*
X120265000Y-76209000D02*
X111735000Y-76209000D01*
X120339000Y-76249000D02*
X111661000Y-76249000D01*
X120412000Y-76289000D02*
X111588000Y-76289000D01*
X120482000Y-76329000D02*
X111518000Y-76329000D01*
X120552000Y-76369000D02*
X111448000Y-76369000D01*
X120620000Y-76409000D02*
X111380000Y-76409000D01*
X120686000Y-76449000D02*
X111314000Y-76449000D01*
X120752000Y-76489000D02*
X111248000Y-76489000D01*
X120816000Y-76529000D02*
X111184000Y-76529000D01*
X120879000Y-76569000D02*
X111121000Y-76569000D01*
X120941000Y-76609000D02*
X111059000Y-76609000D01*
X121002000Y-76649000D02*
X110998000Y-76649000D01*
X121062000Y-76689000D02*
X110938000Y-76689000D01*
X121120000Y-76729000D02*
X110880000Y-76729000D01*
X121178000Y-76769000D02*
X110822000Y-76769000D01*
X121235000Y-76809000D02*
X110765000Y-76809000D01*
X121291000Y-76849000D02*
X110709000Y-76849000D01*
X121346000Y-76889000D02*
X110654000Y-76889000D01*
X121400000Y-76929000D02*
X110600000Y-76929000D01*
X121454000Y-76969000D02*
X110546000Y-76969000D01*
X121506000Y-77009000D02*
X110494000Y-77009000D01*
X121558000Y-77049000D02*
X110442000Y-77049000D01*
X121609000Y-77089000D02*
X110391000Y-77089000D01*
X121660000Y-77129000D02*
X110340000Y-77129000D01*
X121709000Y-77169000D02*
X110291000Y-77169000D01*
X121758000Y-77209000D02*
X110242000Y-77209000D01*
X121806000Y-77249000D02*
X110194000Y-77249000D01*
X121854000Y-77289000D02*
X110146000Y-77289000D01*
X121901000Y-77329000D02*
X110099000Y-77329000D01*
X121947000Y-77369000D02*
X110053000Y-77369000D01*
X121993000Y-77409000D02*
X110007000Y-77409000D01*
X122038000Y-77449000D02*
X109962000Y-77449000D01*
X122082000Y-77489000D02*
X109918000Y-77489000D01*
X122126000Y-77529000D02*
X109874000Y-77529000D01*
X122170000Y-77569000D02*
X109830000Y-77569000D01*
X122212000Y-77609000D02*
X109788000Y-77609000D01*
X122254000Y-77649000D02*
X109746000Y-77649000D01*
X122296000Y-77689000D02*
X109704000Y-77689000D01*
X122337000Y-77729000D02*
X109663000Y-77729000D01*
X122378000Y-77769000D02*
X109622000Y-77769000D01*
X122418000Y-77809000D02*
X109582000Y-77809000D01*
X122458000Y-77849000D02*
X109542000Y-77849000D01*
X122497000Y-77889000D02*
X109503000Y-77889000D01*
X122536000Y-77929000D02*
X109464000Y-77929000D01*
X122574000Y-77969000D02*
X109426000Y-77969000D01*
X122612000Y-78009000D02*
X109388000Y-78009000D01*
X122649000Y-78049000D02*
X109351000Y-78049000D01*
X122686000Y-78089000D02*
X109314000Y-78089000D01*
X122722000Y-78129000D02*
X109278000Y-78129000D01*
X122758000Y-78169000D02*
X109242000Y-78169000D01*
X122794000Y-78209000D02*
X109206000Y-78209000D01*
X122829000Y-78249000D02*
X109171000Y-78249000D01*
X122864000Y-78289000D02*
X109136000Y-78289000D01*
X122898000Y-78329000D02*
X109102000Y-78329000D01*
X122932000Y-78369000D02*
X109068000Y-78369000D01*
X122965000Y-78409000D02*
X109035000Y-78409000D01*
X122999000Y-78449000D02*
X109001000Y-78449000D01*
X123031000Y-78489000D02*
X108969000Y-78489000D01*
X123064000Y-78529000D02*
X108936000Y-78529000D01*
X123096000Y-78569000D02*
X108904000Y-78569000D01*
X123127000Y-78609000D02*
X108873000Y-78609000D01*
X123159000Y-78649000D02*
X108841000Y-78649000D01*
X123190000Y-78689000D02*
X108810000Y-78689000D01*
X123220000Y-78729000D02*
X108780000Y-78729000D01*
X123250000Y-78769000D02*
X108750000Y-78769000D01*
X123280000Y-78809000D02*
X108720000Y-78809000D01*
X123310000Y-78849000D02*
X108690000Y-78849000D01*
X123339000Y-78889000D02*
X108661000Y-78889000D01*
X123368000Y-78929000D02*
X108632000Y-78929000D01*
X123397000Y-78969000D02*
X108603000Y-78969000D01*
X123425000Y-79009000D02*
X108575000Y-79009000D01*
X123453000Y-79049000D02*
X108547000Y-79049000D01*
X114560000Y-79089000D02*
X108520000Y-79089000D01*
X123480000Y-79089000D02*
X117440000Y-79089000D01*
X114560000Y-79129000D02*
X108492000Y-79129000D01*
X123508000Y-79129000D02*
X117440000Y-79129000D01*
X114560000Y-79169000D02*
X108465000Y-79169000D01*
X123535000Y-79169000D02*
X117440000Y-79169000D01*
X114560000Y-79209000D02*
X108439000Y-79209000D01*
X123561000Y-79209000D02*
X117440000Y-79209000D01*
X114560000Y-79249000D02*
X108412000Y-79249000D01*
X123588000Y-79249000D02*
X117440000Y-79249000D01*
X114560000Y-79289000D02*
X108386000Y-79289000D01*
X123614000Y-79289000D02*
X117440000Y-79289000D01*
X114560000Y-79329000D02*
X108360000Y-79329000D01*
X123640000Y-79329000D02*
X117440000Y-79329000D01*
X114560000Y-79369000D02*
X108335000Y-79369000D01*
X123665000Y-79369000D02*
X117440000Y-79369000D01*
X114560000Y-79409000D02*
X108310000Y-79409000D01*
X123690000Y-79409000D02*
X117440000Y-79409000D01*
X114560000Y-79449000D02*
X108285000Y-79449000D01*
X123715000Y-79449000D02*
X117440000Y-79449000D01*
X114560000Y-79489000D02*
X108260000Y-79489000D01*
X123740000Y-79489000D02*
X117440000Y-79489000D01*
X114560000Y-79529000D02*
X108236000Y-79529000D01*
X123764000Y-79529000D02*
X117440000Y-79529000D01*
X114560000Y-79569000D02*
X108212000Y-79569000D01*
X123788000Y-79569000D02*
X117440000Y-79569000D01*
X114560000Y-79609000D02*
X108188000Y-79609000D01*
X123812000Y-79609000D02*
X117440000Y-79609000D01*
X114560000Y-79649000D02*
X108165000Y-79649000D01*
X123835000Y-79649000D02*
X117440000Y-79649000D01*
X114560000Y-79689000D02*
X108141000Y-79689000D01*
X123859000Y-79689000D02*
X117440000Y-79689000D01*
X114560000Y-79729000D02*
X108118000Y-79729000D01*
X123882000Y-79729000D02*
X117440000Y-79729000D01*
X114560000Y-79769000D02*
X108096000Y-79769000D01*
X123904000Y-79769000D02*
X117440000Y-79769000D01*
X114560000Y-79809000D02*
X108073000Y-79809000D01*
X123927000Y-79809000D02*
X117440000Y-79809000D01*
X114560000Y-79849000D02*
X108051000Y-79849000D01*
X123949000Y-79849000D02*
X117440000Y-79849000D01*
X114560000Y-79889000D02*
X108029000Y-79889000D01*
X123971000Y-79889000D02*
X117440000Y-79889000D01*
X114560000Y-79929000D02*
X108008000Y-79929000D01*
X123992000Y-79929000D02*
X117440000Y-79929000D01*
X114560000Y-79969000D02*
X107986000Y-79969000D01*
X124014000Y-79969000D02*
X117440000Y-79969000D01*
X114560000Y-80009000D02*
X107965000Y-80009000D01*
X124035000Y-80009000D02*
X117440000Y-80009000D01*
X114560000Y-80049000D02*
X107944000Y-80049000D01*
X124056000Y-80049000D02*
X117440000Y-80049000D01*
X114560000Y-80089000D02*
X107924000Y-80089000D01*
X124076000Y-80089000D02*
X117440000Y-80089000D01*
X114560000Y-80129000D02*
X107903000Y-80129000D01*
X124097000Y-80129000D02*
X117440000Y-80129000D01*
X114560000Y-80169000D02*
X107883000Y-80169000D01*
X124117000Y-80169000D02*
X117440000Y-80169000D01*
X114560000Y-80209000D02*
X107863000Y-80209000D01*
X124137000Y-80209000D02*
X117440000Y-80209000D01*
X114560000Y-80249000D02*
X107844000Y-80249000D01*
X124156000Y-80249000D02*
X117440000Y-80249000D01*
X114560000Y-80289000D02*
X107824000Y-80289000D01*
X124176000Y-80289000D02*
X117440000Y-80289000D01*
X114560000Y-80329000D02*
X107805000Y-80329000D01*
X124195000Y-80329000D02*
X117440000Y-80329000D01*
X114560000Y-80369000D02*
X107786000Y-80369000D01*
X124214000Y-80369000D02*
X117440000Y-80369000D01*
X114560000Y-80409000D02*
X107767000Y-80409000D01*
X124233000Y-80409000D02*
X117440000Y-80409000D01*
X114560000Y-80449000D02*
X107749000Y-80449000D01*
X124251000Y-80449000D02*
X117440000Y-80449000D01*
X114560000Y-80489000D02*
X107731000Y-80489000D01*
X124269000Y-80489000D02*
X117440000Y-80489000D01*
X114560000Y-80529000D02*
X107713000Y-80529000D01*
X124287000Y-80529000D02*
X117440000Y-80529000D01*
X114560000Y-80569000D02*
X107695000Y-80569000D01*
X124305000Y-80569000D02*
X117440000Y-80569000D01*
X114560000Y-80609000D02*
X107677000Y-80609000D01*
X124323000Y-80609000D02*
X117440000Y-80609000D01*
X114560000Y-80649000D02*
X107660000Y-80649000D01*
X124340000Y-80649000D02*
X117440000Y-80649000D01*
X114560000Y-80689000D02*
X107643000Y-80689000D01*
X124357000Y-80689000D02*
X117440000Y-80689000D01*
X114560000Y-80729000D02*
X107626000Y-80729000D01*
X124374000Y-80729000D02*
X117440000Y-80729000D01*
X114560000Y-80769000D02*
X107610000Y-80769000D01*
X124390000Y-80769000D02*
X117440000Y-80769000D01*
X114560000Y-80809000D02*
X107593000Y-80809000D01*
X124407000Y-80809000D02*
X117440000Y-80809000D01*
X114560000Y-80849000D02*
X107577000Y-80849000D01*
X124423000Y-80849000D02*
X117440000Y-80849000D01*
X114560000Y-80889000D02*
X107561000Y-80889000D01*
X124439000Y-80889000D02*
X117440000Y-80889000D01*
X114560000Y-80929000D02*
X107545000Y-80929000D01*
X124455000Y-80929000D02*
X117440000Y-80929000D01*
X114560000Y-80969000D02*
X107530000Y-80969000D01*
X124470000Y-80969000D02*
X117440000Y-80969000D01*
X114560000Y-81009000D02*
X107514000Y-81009000D01*
X124486000Y-81009000D02*
X117440000Y-81009000D01*
X114560000Y-81049000D02*
X107499000Y-81049000D01*
X124501000Y-81049000D02*
X117440000Y-81049000D01*
X114560000Y-81089000D02*
X107484000Y-81089000D01*
X124516000Y-81089000D02*
X117440000Y-81089000D01*
X114560000Y-81129000D02*
X107470000Y-81129000D01*
X124530000Y-81129000D02*
X117440000Y-81129000D01*
X114560000Y-81169000D02*
X107455000Y-81169000D01*
X124545000Y-81169000D02*
X117440000Y-81169000D01*
X114560000Y-81209000D02*
X107441000Y-81209000D01*
X124559000Y-81209000D02*
X117440000Y-81209000D01*
X114560000Y-81249000D02*
X107427000Y-81249000D01*
X124573000Y-81249000D02*
X117440000Y-81249000D01*
X114560000Y-81289000D02*
X107413000Y-81289000D01*
X124587000Y-81289000D02*
X117440000Y-81289000D01*
X114560000Y-81329000D02*
X107400000Y-81329000D01*
X124600000Y-81329000D02*
X117440000Y-81329000D01*
X114560000Y-81369000D02*
X107386000Y-81369000D01*
X124614000Y-81369000D02*
X117440000Y-81369000D01*
X114560000Y-81409000D02*
X107373000Y-81409000D01*
X124627000Y-81409000D02*
X117440000Y-81409000D01*
X114560000Y-81449000D02*
X107360000Y-81449000D01*
X124640000Y-81449000D02*
X117440000Y-81449000D01*
X114560000Y-81489000D02*
X107347000Y-81489000D01*
X124653000Y-81489000D02*
X117440000Y-81489000D01*
X114560000Y-81529000D02*
X107335000Y-81529000D01*
X124665000Y-81529000D02*
X117440000Y-81529000D01*
X114560000Y-81569000D02*
X107322000Y-81569000D01*
X124678000Y-81569000D02*
X117440000Y-81569000D01*
X114560000Y-81609000D02*
X107310000Y-81609000D01*
X124690000Y-81609000D02*
X117440000Y-81609000D01*
X114560000Y-81649000D02*
X107298000Y-81649000D01*
X124702000Y-81649000D02*
X117440000Y-81649000D01*
X114560000Y-81689000D02*
X107286000Y-81689000D01*
X124714000Y-81689000D02*
X117440000Y-81689000D01*
X114560000Y-81729000D02*
X107275000Y-81729000D01*
X124725000Y-81729000D02*
X117440000Y-81729000D01*
X114560000Y-81769000D02*
X107263000Y-81769000D01*
X124737000Y-81769000D02*
X117440000Y-81769000D01*
X114560000Y-81809000D02*
X107252000Y-81809000D01*
X124748000Y-81809000D02*
X117440000Y-81809000D01*
X114560000Y-81849000D02*
X107241000Y-81849000D01*
X124759000Y-81849000D02*
X117440000Y-81849000D01*
X114560000Y-81889000D02*
X107230000Y-81889000D01*
X124770000Y-81889000D02*
X117440000Y-81889000D01*
X114560000Y-81929000D02*
X107220000Y-81929000D01*
X124780000Y-81929000D02*
X117440000Y-81929000D01*
X124791000Y-81969000D02*
X107209000Y-81969000D01*
X124801000Y-82009000D02*
X107199000Y-82009000D01*
X124811000Y-82049000D02*
X107189000Y-82049000D01*
X124821000Y-82089000D02*
X107179000Y-82089000D01*
X124831000Y-82129000D02*
X107169000Y-82129000D01*
X124840000Y-82169000D02*
X107160000Y-82169000D01*
X124849000Y-82209000D02*
X107151000Y-82209000D01*
X124858000Y-82249000D02*
X107142000Y-82249000D01*
X124867000Y-82289000D02*
X107133000Y-82289000D01*
X124876000Y-82329000D02*
X107124000Y-82329000D01*
X124885000Y-82369000D02*
X107115000Y-82369000D01*
X124893000Y-82409000D02*
X107107000Y-82409000D01*
X124901000Y-82449000D02*
X107099000Y-82449000D01*
X124909000Y-82489000D02*
X107091000Y-82489000D01*
X124917000Y-82529000D02*
X107083000Y-82529000D01*
X124924000Y-82569000D02*
X107076000Y-82569000D01*
X124932000Y-82609000D02*
X107068000Y-82609000D01*
X124939000Y-82649000D02*
X107061000Y-82649000D01*
X124946000Y-82689000D02*
X107054000Y-82689000D01*
X124953000Y-82729000D02*
X107047000Y-82729000D01*
X124960000Y-82769000D02*
X107040000Y-82769000D01*
X124966000Y-82809000D02*
X107034000Y-82809000D01*
X124972000Y-82849000D02*
X107028000Y-82849000D01*
X124979000Y-82889000D02*
X107021000Y-82889000D01*
X124984000Y-82929000D02*
X107016000Y-82929000D01*
X124990000Y-82969000D02*
X107010000Y-82969000D01*
X124996000Y-83009000D02*
X107004000Y-83009000D01*
X125001000Y-83049000D02*
X106999000Y-83049000D01*
X125006000Y-83089000D02*
X106994000Y-83089000D01*
X125011000Y-83129000D02*
X106989000Y-83129000D01*
X125016000Y-83169000D02*
X106984000Y-83169000D01*
X125021000Y-83209000D02*
X106979000Y-83209000D01*
X125026000Y-83249000D02*
X106974000Y-83249000D01*
X125030000Y-83289000D02*
X106970000Y-83289000D01*
X125034000Y-83329000D02*
X106966000Y-83329000D01*
X125038000Y-83369000D02*
X106962000Y-83369000D01*
X125042000Y-83409000D02*
X106958000Y-83409000D01*
X125045000Y-83449000D02*
X106955000Y-83449000D01*
X125049000Y-83489000D02*
X106951000Y-83489000D01*
X125052000Y-83529000D02*
X106948000Y-83529000D01*
X125055000Y-83570000D02*
X106945000Y-83570000D01*
X125058000Y-83610000D02*
X106942000Y-83610000D01*
X125061000Y-83650000D02*
X106939000Y-83650000D01*
X125063000Y-83690000D02*
X106937000Y-83690000D01*
X125066000Y-83730000D02*
X106934000Y-83730000D01*
X125068000Y-83770000D02*
X106932000Y-83770000D01*
X125070000Y-83810000D02*
X106930000Y-83810000D01*
X125072000Y-83850000D02*
X106928000Y-83850000D01*
X125073000Y-83890000D02*
X106927000Y-83890000D01*
X125075000Y-83930000D02*
X106925000Y-83930000D01*
X125076000Y-83970000D02*
X106924000Y-83970000D01*
X125077000Y-84010000D02*
X106923000Y-84010000D01*
X125078000Y-84050000D02*
X106922000Y-84050000D01*
X125079000Y-84090000D02*
X106921000Y-84090000D01*
X125080000Y-84130000D02*
X106920000Y-84130000D01*
X125080000Y-84170000D02*
X106920000Y-84170000D01*
X125080000Y-84210000D02*
X106920000Y-84210000D01*
X125081000Y-84250000D02*
X106919000Y-84250000D01*
X125120000Y-84250000D02*
G75*
G03X125120000Y-84250000I-9120000J0D01*
G01*
X106790000Y-104700000D02*
X108934000Y-104700000D01*
X106790000Y-103000000D02*
X112735000Y-103000000D01*
X106790000Y-101300000D02*
X108934000Y-101300000D01*
X106790000Y-99600000D02*
X112735000Y-99600000D01*
X106790000Y-97900000D02*
X108950000Y-97900000D01*
X90900000Y-106420000D02*
X106790000Y-106420000D01*
X90900000Y-96179000D02*
X106790000Y-96179000D01*
X90900000Y-96179000D02*
X90900000Y-106420000D01*
X106790000Y-96179000D02*
X106790000Y-106420000D01*
X149920000Y-77870000D02*
X149920000Y-77540000D01*
X156460000Y-77870000D02*
X149920000Y-77870000D01*
X156460000Y-77540000D02*
X156460000Y-77870000D01*
X149920000Y-75130000D02*
X149920000Y-75460000D01*
X156460000Y-75130000D02*
X149920000Y-75130000D01*
X156460000Y-75460000D02*
X156460000Y-75130000D01*
X155870000Y-79170000D02*
X155870000Y-81830000D01*
X153270000Y-79170000D02*
X155870000Y-79170000D01*
X153270000Y-81830000D02*
X155870000Y-81830000D01*
X153270000Y-79170000D02*
X153270000Y-81830000D01*
X152000000Y-79170000D02*
X150670000Y-79170000D01*
X150670000Y-79170000D02*
X150670000Y-80500000D01*
X106350000Y-90550000D02*
X92950000Y-90550000D01*
X92950000Y-90550000D02*
X90950000Y-88550000D01*
X90950000Y-88550000D02*
X90850000Y-75150000D01*
X90850000Y-75150000D02*
X106350000Y-75150000D01*
X106350000Y-75150000D02*
X106350000Y-90550000D01*
X100600000Y-82800000D02*
G75*
G03X100600000Y-82800000I-1900000J0D01*
G01*
X157935241Y-83846000D02*
X157935241Y-84476000D01*
X158250241Y-84161000D02*
X157620241Y-84161000D01*
X151509000Y-85598000D02*
X151509000Y-86402000D01*
X151549000Y-85367000D02*
X151549000Y-86633000D01*
X151589000Y-85198000D02*
X151589000Y-86802000D01*
X151629000Y-85060000D02*
X151629000Y-86940000D01*
X151669000Y-84941000D02*
X151669000Y-87059000D01*
X151709000Y-84835000D02*
X151709000Y-87165000D01*
X151749000Y-84738000D02*
X151749000Y-87262000D01*
X151789000Y-84650000D02*
X151789000Y-87350000D01*
X151829000Y-84568000D02*
X151829000Y-87432000D01*
X151869000Y-84491000D02*
X151869000Y-87509000D01*
X151909000Y-84419000D02*
X151909000Y-87581000D01*
X151949000Y-84350000D02*
X151949000Y-87650000D01*
X151989000Y-84286000D02*
X151989000Y-87714000D01*
X152029000Y-84224000D02*
X152029000Y-87776000D01*
X152069000Y-84166000D02*
X152069000Y-87834000D01*
X152109000Y-84110000D02*
X152109000Y-87890000D01*
X152149000Y-84056000D02*
X152149000Y-87944000D01*
X152189000Y-84005000D02*
X152189000Y-87995000D01*
X152229000Y-83956000D02*
X152229000Y-88044000D01*
X152269000Y-83908000D02*
X152269000Y-88092000D01*
X152309000Y-83863000D02*
X152309000Y-88137000D01*
X152349000Y-83818000D02*
X152349000Y-88182000D01*
X152389000Y-83776000D02*
X152389000Y-88224000D01*
X152429000Y-83735000D02*
X152429000Y-88265000D01*
X152469000Y-87040000D02*
X152469000Y-88305000D01*
X152469000Y-83695000D02*
X152469000Y-84960000D01*
X152509000Y-87040000D02*
X152509000Y-88343000D01*
X152509000Y-83657000D02*
X152509000Y-84960000D01*
X152549000Y-87040000D02*
X152549000Y-88380000D01*
X152549000Y-83620000D02*
X152549000Y-84960000D01*
X152589000Y-87040000D02*
X152589000Y-88416000D01*
X152589000Y-83584000D02*
X152589000Y-84960000D01*
X152629000Y-87040000D02*
X152629000Y-88450000D01*
X152629000Y-83550000D02*
X152629000Y-84960000D01*
X152669000Y-87040000D02*
X152669000Y-88484000D01*
X152669000Y-83516000D02*
X152669000Y-84960000D01*
X152709000Y-87040000D02*
X152709000Y-88516000D01*
X152709000Y-83484000D02*
X152709000Y-84960000D01*
X152749000Y-87040000D02*
X152749000Y-88548000D01*
X152749000Y-83452000D02*
X152749000Y-84960000D01*
X152789000Y-87040000D02*
X152789000Y-88578000D01*
X152789000Y-83422000D02*
X152789000Y-84960000D01*
X152829000Y-87040000D02*
X152829000Y-88607000D01*
X152829000Y-83393000D02*
X152829000Y-84960000D01*
X152869000Y-87040000D02*
X152869000Y-88636000D01*
X152869000Y-83364000D02*
X152869000Y-84960000D01*
X152909000Y-87040000D02*
X152909000Y-88664000D01*
X152909000Y-83336000D02*
X152909000Y-84960000D01*
X152949000Y-87040000D02*
X152949000Y-88690000D01*
X152949000Y-83310000D02*
X152949000Y-84960000D01*
X152989000Y-87040000D02*
X152989000Y-88716000D01*
X152989000Y-83284000D02*
X152989000Y-84960000D01*
X153029000Y-87040000D02*
X153029000Y-88742000D01*
X153029000Y-83258000D02*
X153029000Y-84960000D01*
X153069000Y-87040000D02*
X153069000Y-88766000D01*
X153069000Y-83234000D02*
X153069000Y-84960000D01*
X153109000Y-87040000D02*
X153109000Y-88790000D01*
X153109000Y-83210000D02*
X153109000Y-84960000D01*
X153149000Y-87040000D02*
X153149000Y-88812000D01*
X153149000Y-83188000D02*
X153149000Y-84960000D01*
X153189000Y-87040000D02*
X153189000Y-88834000D01*
X153189000Y-83166000D02*
X153189000Y-84960000D01*
X153229000Y-87040000D02*
X153229000Y-88856000D01*
X153229000Y-83144000D02*
X153229000Y-84960000D01*
X153269000Y-87040000D02*
X153269000Y-88876000D01*
X153269000Y-83124000D02*
X153269000Y-84960000D01*
X153309000Y-87040000D02*
X153309000Y-88896000D01*
X153309000Y-83104000D02*
X153309000Y-84960000D01*
X153349000Y-87040000D02*
X153349000Y-88916000D01*
X153349000Y-83084000D02*
X153349000Y-84960000D01*
X153389000Y-87040000D02*
X153389000Y-88934000D01*
X153389000Y-83066000D02*
X153389000Y-84960000D01*
X153429000Y-87040000D02*
X153429000Y-88952000D01*
X153429000Y-83048000D02*
X153429000Y-84960000D01*
X153469000Y-87040000D02*
X153469000Y-88970000D01*
X153469000Y-83030000D02*
X153469000Y-84960000D01*
X153509000Y-87040000D02*
X153509000Y-88986000D01*
X153509000Y-83014000D02*
X153509000Y-84960000D01*
X153549000Y-87040000D02*
X153549000Y-89002000D01*
X153549000Y-82998000D02*
X153549000Y-84960000D01*
X153589000Y-87040000D02*
X153589000Y-89018000D01*
X153589000Y-82982000D02*
X153589000Y-84960000D01*
X153629000Y-87040000D02*
X153629000Y-89033000D01*
X153629000Y-82967000D02*
X153629000Y-84960000D01*
X153669000Y-87040000D02*
X153669000Y-89047000D01*
X153669000Y-82953000D02*
X153669000Y-84960000D01*
X153709000Y-87040000D02*
X153709000Y-89061000D01*
X153709000Y-82939000D02*
X153709000Y-84960000D01*
X153749000Y-87040000D02*
X153749000Y-89074000D01*
X153749000Y-82926000D02*
X153749000Y-84960000D01*
X153789000Y-87040000D02*
X153789000Y-89086000D01*
X153789000Y-82914000D02*
X153789000Y-84960000D01*
X153829000Y-87040000D02*
X153829000Y-89098000D01*
X153829000Y-82902000D02*
X153829000Y-84960000D01*
X153869000Y-87040000D02*
X153869000Y-89110000D01*
X153869000Y-82890000D02*
X153869000Y-84960000D01*
X153909000Y-87040000D02*
X153909000Y-89121000D01*
X153909000Y-82879000D02*
X153909000Y-84960000D01*
X153949000Y-87040000D02*
X153949000Y-89131000D01*
X153949000Y-82869000D02*
X153949000Y-84960000D01*
X153989000Y-87040000D02*
X153989000Y-89141000D01*
X153989000Y-82859000D02*
X153989000Y-84960000D01*
X154029000Y-87040000D02*
X154029000Y-89150000D01*
X154029000Y-82850000D02*
X154029000Y-84960000D01*
X154070000Y-87040000D02*
X154070000Y-89159000D01*
X154070000Y-82841000D02*
X154070000Y-84960000D01*
X154110000Y-87040000D02*
X154110000Y-89167000D01*
X154110000Y-82833000D02*
X154110000Y-84960000D01*
X154150000Y-87040000D02*
X154150000Y-89175000D01*
X154150000Y-82825000D02*
X154150000Y-84960000D01*
X154190000Y-87040000D02*
X154190000Y-89182000D01*
X154190000Y-82818000D02*
X154190000Y-84960000D01*
X154230000Y-87040000D02*
X154230000Y-89189000D01*
X154230000Y-82811000D02*
X154230000Y-84960000D01*
X154270000Y-87040000D02*
X154270000Y-89195000D01*
X154270000Y-82805000D02*
X154270000Y-84960000D01*
X154310000Y-87040000D02*
X154310000Y-89201000D01*
X154310000Y-82799000D02*
X154310000Y-84960000D01*
X154350000Y-87040000D02*
X154350000Y-89206000D01*
X154350000Y-82794000D02*
X154350000Y-84960000D01*
X154390000Y-87040000D02*
X154390000Y-89211000D01*
X154390000Y-82789000D02*
X154390000Y-84960000D01*
X154430000Y-87040000D02*
X154430000Y-89215000D01*
X154430000Y-82785000D02*
X154430000Y-84960000D01*
X154470000Y-87040000D02*
X154470000Y-89218000D01*
X154470000Y-82782000D02*
X154470000Y-84960000D01*
X154510000Y-87040000D02*
X154510000Y-89222000D01*
X154510000Y-82778000D02*
X154510000Y-84960000D01*
X154550000Y-82776000D02*
X154550000Y-89224000D01*
X154590000Y-82773000D02*
X154590000Y-89227000D01*
X154630000Y-82772000D02*
X154630000Y-89228000D01*
X154670000Y-82770000D02*
X154670000Y-89230000D01*
X154710000Y-82770000D02*
X154710000Y-89230000D01*
X154750000Y-82770000D02*
X154750000Y-89230000D01*
X158020000Y-86000000D02*
G75*
G03X158020000Y-86000000I-3270000J0D01*
G01*
X147015000Y-93109440D02*
X145215000Y-93109440D01*
X146115000Y-94009440D02*
X146115000Y-92209440D01*
X141040000Y-75130000D02*
X140960000Y-75130000D01*
X141814000Y-75170000D02*
X140186000Y-75170000D01*
X142166000Y-75210000D02*
X139834000Y-75210000D01*
X142435000Y-75250000D02*
X139565000Y-75250000D01*
X142661000Y-75290000D02*
X139339000Y-75290000D01*
X142860000Y-75330000D02*
X139140000Y-75330000D01*
X143039000Y-75370000D02*
X138961000Y-75370000D01*
X143203000Y-75410000D02*
X138797000Y-75410000D01*
X143355000Y-75450000D02*
X138645000Y-75450000D01*
X143498000Y-75490000D02*
X138502000Y-75490000D01*
X143632000Y-75530000D02*
X138368000Y-75530000D01*
X143759000Y-75570000D02*
X138241000Y-75570000D01*
X143880000Y-75610000D02*
X138120000Y-75610000D01*
X143996000Y-75650000D02*
X138004000Y-75650000D01*
X144107000Y-75690000D02*
X137893000Y-75690000D01*
X144214000Y-75730000D02*
X137786000Y-75730000D01*
X144317000Y-75770000D02*
X137683000Y-75770000D01*
X144416000Y-75810000D02*
X137584000Y-75810000D01*
X144512000Y-75850000D02*
X137488000Y-75850000D01*
X144605000Y-75890000D02*
X137395000Y-75890000D01*
X144696000Y-75930000D02*
X137304000Y-75930000D01*
X144784000Y-75970000D02*
X137216000Y-75970000D01*
X144869000Y-76010000D02*
X137131000Y-76010000D01*
X144952000Y-76050000D02*
X137048000Y-76050000D01*
X145033000Y-76089000D02*
X136967000Y-76089000D01*
X145113000Y-76129000D02*
X136887000Y-76129000D01*
X145190000Y-76169000D02*
X136810000Y-76169000D01*
X145265000Y-76209000D02*
X136735000Y-76209000D01*
X145339000Y-76249000D02*
X136661000Y-76249000D01*
X145412000Y-76289000D02*
X136588000Y-76289000D01*
X145482000Y-76329000D02*
X136518000Y-76329000D01*
X145552000Y-76369000D02*
X136448000Y-76369000D01*
X145620000Y-76409000D02*
X136380000Y-76409000D01*
X145686000Y-76449000D02*
X136314000Y-76449000D01*
X145752000Y-76489000D02*
X136248000Y-76489000D01*
X145816000Y-76529000D02*
X136184000Y-76529000D01*
X145879000Y-76569000D02*
X136121000Y-76569000D01*
X145941000Y-76609000D02*
X136059000Y-76609000D01*
X146002000Y-76649000D02*
X135998000Y-76649000D01*
X146062000Y-76689000D02*
X135938000Y-76689000D01*
X146120000Y-76729000D02*
X135880000Y-76729000D01*
X146178000Y-76769000D02*
X135822000Y-76769000D01*
X146235000Y-76809000D02*
X135765000Y-76809000D01*
X146291000Y-76849000D02*
X135709000Y-76849000D01*
X146346000Y-76889000D02*
X135654000Y-76889000D01*
X146400000Y-76929000D02*
X135600000Y-76929000D01*
X146454000Y-76969000D02*
X135546000Y-76969000D01*
X146506000Y-77009000D02*
X135494000Y-77009000D01*
X146558000Y-77049000D02*
X135442000Y-77049000D01*
X146609000Y-77089000D02*
X135391000Y-77089000D01*
X146660000Y-77129000D02*
X135340000Y-77129000D01*
X146709000Y-77169000D02*
X135291000Y-77169000D01*
X146758000Y-77209000D02*
X135242000Y-77209000D01*
X146806000Y-77249000D02*
X135194000Y-77249000D01*
X146854000Y-77289000D02*
X135146000Y-77289000D01*
X146901000Y-77329000D02*
X135099000Y-77329000D01*
X146947000Y-77369000D02*
X135053000Y-77369000D01*
X146993000Y-77409000D02*
X135007000Y-77409000D01*
X147038000Y-77449000D02*
X134962000Y-77449000D01*
X147082000Y-77489000D02*
X134918000Y-77489000D01*
X147126000Y-77529000D02*
X134874000Y-77529000D01*
X147170000Y-77569000D02*
X134830000Y-77569000D01*
X147212000Y-77609000D02*
X134788000Y-77609000D01*
X147254000Y-77649000D02*
X134746000Y-77649000D01*
X147296000Y-77689000D02*
X134704000Y-77689000D01*
X147337000Y-77729000D02*
X134663000Y-77729000D01*
X147378000Y-77769000D02*
X134622000Y-77769000D01*
X147418000Y-77809000D02*
X134582000Y-77809000D01*
X147458000Y-77849000D02*
X134542000Y-77849000D01*
X147497000Y-77889000D02*
X134503000Y-77889000D01*
X147536000Y-77929000D02*
X134464000Y-77929000D01*
X147574000Y-77969000D02*
X134426000Y-77969000D01*
X147612000Y-78009000D02*
X134388000Y-78009000D01*
X147649000Y-78049000D02*
X134351000Y-78049000D01*
X147686000Y-78089000D02*
X134314000Y-78089000D01*
X147722000Y-78129000D02*
X134278000Y-78129000D01*
X147758000Y-78169000D02*
X134242000Y-78169000D01*
X147794000Y-78209000D02*
X134206000Y-78209000D01*
X147829000Y-78249000D02*
X134171000Y-78249000D01*
X147864000Y-78289000D02*
X134136000Y-78289000D01*
X147898000Y-78329000D02*
X134102000Y-78329000D01*
X147932000Y-78369000D02*
X134068000Y-78369000D01*
X147965000Y-78409000D02*
X134035000Y-78409000D01*
X147999000Y-78449000D02*
X134001000Y-78449000D01*
X148031000Y-78489000D02*
X133969000Y-78489000D01*
X148064000Y-78529000D02*
X133936000Y-78529000D01*
X148096000Y-78569000D02*
X133904000Y-78569000D01*
X148127000Y-78609000D02*
X133873000Y-78609000D01*
X148159000Y-78649000D02*
X133841000Y-78649000D01*
X148190000Y-78689000D02*
X133810000Y-78689000D01*
X148220000Y-78729000D02*
X133780000Y-78729000D01*
X148250000Y-78769000D02*
X133750000Y-78769000D01*
X148280000Y-78809000D02*
X133720000Y-78809000D01*
X148310000Y-78849000D02*
X133690000Y-78849000D01*
X148339000Y-78889000D02*
X133661000Y-78889000D01*
X148368000Y-78929000D02*
X133632000Y-78929000D01*
X148397000Y-78969000D02*
X133603000Y-78969000D01*
X148425000Y-79009000D02*
X133575000Y-79009000D01*
X148453000Y-79049000D02*
X133547000Y-79049000D01*
X139560000Y-79089000D02*
X133520000Y-79089000D01*
X148480000Y-79089000D02*
X142440000Y-79089000D01*
X139560000Y-79129000D02*
X133492000Y-79129000D01*
X148508000Y-79129000D02*
X142440000Y-79129000D01*
X139560000Y-79169000D02*
X133465000Y-79169000D01*
X148535000Y-79169000D02*
X142440000Y-79169000D01*
X139560000Y-79209000D02*
X133439000Y-79209000D01*
X148561000Y-79209000D02*
X142440000Y-79209000D01*
X139560000Y-79249000D02*
X133412000Y-79249000D01*
X148588000Y-79249000D02*
X142440000Y-79249000D01*
X139560000Y-79289000D02*
X133386000Y-79289000D01*
X148614000Y-79289000D02*
X142440000Y-79289000D01*
X139560000Y-79329000D02*
X133360000Y-79329000D01*
X148640000Y-79329000D02*
X142440000Y-79329000D01*
X139560000Y-79369000D02*
X133335000Y-79369000D01*
X148665000Y-79369000D02*
X142440000Y-79369000D01*
X139560000Y-79409000D02*
X133310000Y-79409000D01*
X148690000Y-79409000D02*
X142440000Y-79409000D01*
X139560000Y-79449000D02*
X133285000Y-79449000D01*
X148715000Y-79449000D02*
X142440000Y-79449000D01*
X139560000Y-79489000D02*
X133260000Y-79489000D01*
X148740000Y-79489000D02*
X142440000Y-79489000D01*
X139560000Y-79529000D02*
X133236000Y-79529000D01*
X148764000Y-79529000D02*
X142440000Y-79529000D01*
X139560000Y-79569000D02*
X133212000Y-79569000D01*
X148788000Y-79569000D02*
X142440000Y-79569000D01*
X139560000Y-79609000D02*
X133188000Y-79609000D01*
X148812000Y-79609000D02*
X142440000Y-79609000D01*
X139560000Y-79649000D02*
X133165000Y-79649000D01*
X148835000Y-79649000D02*
X142440000Y-79649000D01*
X139560000Y-79689000D02*
X133141000Y-79689000D01*
X148859000Y-79689000D02*
X142440000Y-79689000D01*
X139560000Y-79729000D02*
X133118000Y-79729000D01*
X148882000Y-79729000D02*
X142440000Y-79729000D01*
X139560000Y-79769000D02*
X133096000Y-79769000D01*
X148904000Y-79769000D02*
X142440000Y-79769000D01*
X139560000Y-79809000D02*
X133073000Y-79809000D01*
X148927000Y-79809000D02*
X142440000Y-79809000D01*
X139560000Y-79849000D02*
X133051000Y-79849000D01*
X148949000Y-79849000D02*
X142440000Y-79849000D01*
X139560000Y-79889000D02*
X133029000Y-79889000D01*
X148971000Y-79889000D02*
X142440000Y-79889000D01*
X139560000Y-79929000D02*
X133008000Y-79929000D01*
X148992000Y-79929000D02*
X142440000Y-79929000D01*
X139560000Y-79969000D02*
X132986000Y-79969000D01*
X149014000Y-79969000D02*
X142440000Y-79969000D01*
X139560000Y-80009000D02*
X132965000Y-80009000D01*
X149035000Y-80009000D02*
X142440000Y-80009000D01*
X139560000Y-80049000D02*
X132944000Y-80049000D01*
X149056000Y-80049000D02*
X142440000Y-80049000D01*
X139560000Y-80089000D02*
X132924000Y-80089000D01*
X149076000Y-80089000D02*
X142440000Y-80089000D01*
X139560000Y-80129000D02*
X132903000Y-80129000D01*
X149097000Y-80129000D02*
X142440000Y-80129000D01*
X139560000Y-80169000D02*
X132883000Y-80169000D01*
X149117000Y-80169000D02*
X142440000Y-80169000D01*
X139560000Y-80209000D02*
X132863000Y-80209000D01*
X149137000Y-80209000D02*
X142440000Y-80209000D01*
X139560000Y-80249000D02*
X132844000Y-80249000D01*
X149156000Y-80249000D02*
X142440000Y-80249000D01*
X139560000Y-80289000D02*
X132824000Y-80289000D01*
X149176000Y-80289000D02*
X142440000Y-80289000D01*
X139560000Y-80329000D02*
X132805000Y-80329000D01*
X149195000Y-80329000D02*
X142440000Y-80329000D01*
X139560000Y-80369000D02*
X132786000Y-80369000D01*
X149214000Y-80369000D02*
X142440000Y-80369000D01*
X139560000Y-80409000D02*
X132767000Y-80409000D01*
X149233000Y-80409000D02*
X142440000Y-80409000D01*
X139560000Y-80449000D02*
X132749000Y-80449000D01*
X149251000Y-80449000D02*
X142440000Y-80449000D01*
X139560000Y-80489000D02*
X132731000Y-80489000D01*
X149269000Y-80489000D02*
X142440000Y-80489000D01*
X139560000Y-80529000D02*
X132713000Y-80529000D01*
X149287000Y-80529000D02*
X142440000Y-80529000D01*
X139560000Y-80569000D02*
X132695000Y-80569000D01*
X149305000Y-80569000D02*
X142440000Y-80569000D01*
X139560000Y-80609000D02*
X132677000Y-80609000D01*
X149323000Y-80609000D02*
X142440000Y-80609000D01*
X139560000Y-80649000D02*
X132660000Y-80649000D01*
X149340000Y-80649000D02*
X142440000Y-80649000D01*
X139560000Y-80689000D02*
X132643000Y-80689000D01*
X149357000Y-80689000D02*
X142440000Y-80689000D01*
X139560000Y-80729000D02*
X132626000Y-80729000D01*
X149374000Y-80729000D02*
X142440000Y-80729000D01*
X139560000Y-80769000D02*
X132610000Y-80769000D01*
X149390000Y-80769000D02*
X142440000Y-80769000D01*
X139560000Y-80809000D02*
X132593000Y-80809000D01*
X149407000Y-80809000D02*
X142440000Y-80809000D01*
X139560000Y-80849000D02*
X132577000Y-80849000D01*
X149423000Y-80849000D02*
X142440000Y-80849000D01*
X139560000Y-80889000D02*
X132561000Y-80889000D01*
X149439000Y-80889000D02*
X142440000Y-80889000D01*
X139560000Y-80929000D02*
X132545000Y-80929000D01*
X149455000Y-80929000D02*
X142440000Y-80929000D01*
X139560000Y-80969000D02*
X132530000Y-80969000D01*
X149470000Y-80969000D02*
X142440000Y-80969000D01*
X139560000Y-81009000D02*
X132514000Y-81009000D01*
X149486000Y-81009000D02*
X142440000Y-81009000D01*
X139560000Y-81049000D02*
X132499000Y-81049000D01*
X149501000Y-81049000D02*
X142440000Y-81049000D01*
X139560000Y-81089000D02*
X132484000Y-81089000D01*
X149516000Y-81089000D02*
X142440000Y-81089000D01*
X139560000Y-81129000D02*
X132470000Y-81129000D01*
X149530000Y-81129000D02*
X142440000Y-81129000D01*
X139560000Y-81169000D02*
X132455000Y-81169000D01*
X149545000Y-81169000D02*
X142440000Y-81169000D01*
X139560000Y-81209000D02*
X132441000Y-81209000D01*
X149559000Y-81209000D02*
X142440000Y-81209000D01*
X139560000Y-81249000D02*
X132427000Y-81249000D01*
X149573000Y-81249000D02*
X142440000Y-81249000D01*
X139560000Y-81289000D02*
X132413000Y-81289000D01*
X149587000Y-81289000D02*
X142440000Y-81289000D01*
X139560000Y-81329000D02*
X132400000Y-81329000D01*
X149600000Y-81329000D02*
X142440000Y-81329000D01*
X139560000Y-81369000D02*
X132386000Y-81369000D01*
X149614000Y-81369000D02*
X142440000Y-81369000D01*
X139560000Y-81409000D02*
X132373000Y-81409000D01*
X149627000Y-81409000D02*
X142440000Y-81409000D01*
X139560000Y-81449000D02*
X132360000Y-81449000D01*
X149640000Y-81449000D02*
X142440000Y-81449000D01*
X139560000Y-81489000D02*
X132347000Y-81489000D01*
X149653000Y-81489000D02*
X142440000Y-81489000D01*
X139560000Y-81529000D02*
X132335000Y-81529000D01*
X149665000Y-81529000D02*
X142440000Y-81529000D01*
X139560000Y-81569000D02*
X132322000Y-81569000D01*
X149678000Y-81569000D02*
X142440000Y-81569000D01*
X139560000Y-81609000D02*
X132310000Y-81609000D01*
X149690000Y-81609000D02*
X142440000Y-81609000D01*
X139560000Y-81649000D02*
X132298000Y-81649000D01*
X149702000Y-81649000D02*
X142440000Y-81649000D01*
X139560000Y-81689000D02*
X132286000Y-81689000D01*
X149714000Y-81689000D02*
X142440000Y-81689000D01*
X139560000Y-81729000D02*
X132275000Y-81729000D01*
X149725000Y-81729000D02*
X142440000Y-81729000D01*
X139560000Y-81769000D02*
X132263000Y-81769000D01*
X149737000Y-81769000D02*
X142440000Y-81769000D01*
X139560000Y-81809000D02*
X132252000Y-81809000D01*
X149748000Y-81809000D02*
X142440000Y-81809000D01*
X139560000Y-81849000D02*
X132241000Y-81849000D01*
X149759000Y-81849000D02*
X142440000Y-81849000D01*
X139560000Y-81889000D02*
X132230000Y-81889000D01*
X149770000Y-81889000D02*
X142440000Y-81889000D01*
X139560000Y-81929000D02*
X132220000Y-81929000D01*
X149780000Y-81929000D02*
X142440000Y-81929000D01*
X149791000Y-81969000D02*
X132209000Y-81969000D01*
X149801000Y-82009000D02*
X132199000Y-82009000D01*
X149811000Y-82049000D02*
X132189000Y-82049000D01*
X149821000Y-82089000D02*
X132179000Y-82089000D01*
X149831000Y-82129000D02*
X132169000Y-82129000D01*
X149840000Y-82169000D02*
X132160000Y-82169000D01*
X149849000Y-82209000D02*
X132151000Y-82209000D01*
X149858000Y-82249000D02*
X132142000Y-82249000D01*
X149867000Y-82289000D02*
X132133000Y-82289000D01*
X149876000Y-82329000D02*
X132124000Y-82329000D01*
X149885000Y-82369000D02*
X132115000Y-82369000D01*
X149893000Y-82409000D02*
X132107000Y-82409000D01*
X149901000Y-82449000D02*
X132099000Y-82449000D01*
X149909000Y-82489000D02*
X132091000Y-82489000D01*
X149917000Y-82529000D02*
X132083000Y-82529000D01*
X149924000Y-82569000D02*
X132076000Y-82569000D01*
X149932000Y-82609000D02*
X132068000Y-82609000D01*
X149939000Y-82649000D02*
X132061000Y-82649000D01*
X149946000Y-82689000D02*
X132054000Y-82689000D01*
X149953000Y-82729000D02*
X132047000Y-82729000D01*
X149960000Y-82769000D02*
X132040000Y-82769000D01*
X149966000Y-82809000D02*
X132034000Y-82809000D01*
X149972000Y-82849000D02*
X132028000Y-82849000D01*
X149979000Y-82889000D02*
X132021000Y-82889000D01*
X149984000Y-82929000D02*
X132016000Y-82929000D01*
X149990000Y-82969000D02*
X132010000Y-82969000D01*
X149996000Y-83009000D02*
X132004000Y-83009000D01*
X150001000Y-83049000D02*
X131999000Y-83049000D01*
X150006000Y-83089000D02*
X131994000Y-83089000D01*
X150011000Y-83129000D02*
X131989000Y-83129000D01*
X150016000Y-83169000D02*
X131984000Y-83169000D01*
X150021000Y-83209000D02*
X131979000Y-83209000D01*
X150026000Y-83249000D02*
X131974000Y-83249000D01*
X150030000Y-83289000D02*
X131970000Y-83289000D01*
X150034000Y-83329000D02*
X131966000Y-83329000D01*
X150038000Y-83369000D02*
X131962000Y-83369000D01*
X150042000Y-83409000D02*
X131958000Y-83409000D01*
X150045000Y-83449000D02*
X131955000Y-83449000D01*
X150049000Y-83489000D02*
X131951000Y-83489000D01*
X150052000Y-83529000D02*
X131948000Y-83529000D01*
X150055000Y-83570000D02*
X131945000Y-83570000D01*
X150058000Y-83610000D02*
X131942000Y-83610000D01*
X150061000Y-83650000D02*
X131939000Y-83650000D01*
X150063000Y-83690000D02*
X131937000Y-83690000D01*
X150066000Y-83730000D02*
X131934000Y-83730000D01*
X150068000Y-83770000D02*
X131932000Y-83770000D01*
X150070000Y-83810000D02*
X131930000Y-83810000D01*
X150072000Y-83850000D02*
X131928000Y-83850000D01*
X150073000Y-83890000D02*
X131927000Y-83890000D01*
X150075000Y-83930000D02*
X131925000Y-83930000D01*
X150076000Y-83970000D02*
X131924000Y-83970000D01*
X150077000Y-84010000D02*
X131923000Y-84010000D01*
X150078000Y-84050000D02*
X131922000Y-84050000D01*
X150079000Y-84090000D02*
X131921000Y-84090000D01*
X150080000Y-84130000D02*
X131920000Y-84130000D01*
X150080000Y-84170000D02*
X131920000Y-84170000D01*
X150080000Y-84210000D02*
X131920000Y-84210000D01*
X150081000Y-84250000D02*
X131919000Y-84250000D01*
X150120000Y-84250000D02*
G75*
G03X150120000Y-84250000I-9120000J0D01*
G01*
D11*
X117666666Y-104452380D02*
X118000000Y-103976190D01*
X118238095Y-104452380D02*
X118238095Y-103452380D01*
X117857142Y-103452380D01*
X117761904Y-103500000D01*
X117714285Y-103547619D01*
X117666666Y-103642857D01*
X117666666Y-103785714D01*
X117714285Y-103880952D01*
X117761904Y-103928571D01*
X117857142Y-103976190D01*
X118238095Y-103976190D01*
X116714285Y-104452380D02*
X117285714Y-104452380D01*
X117000000Y-104452380D02*
X117000000Y-103452380D01*
X117095238Y-103595238D01*
X117190476Y-103690476D01*
X117285714Y-103738095D01*
X129238095Y-83452380D02*
X129238095Y-82452380D01*
X129000000Y-82452380D01*
X128857142Y-82500000D01*
X128761904Y-82595238D01*
X128714285Y-82690476D01*
X128666666Y-82880952D01*
X128666666Y-83023809D01*
X128714285Y-83214285D01*
X128761904Y-83309523D01*
X128857142Y-83404761D01*
X129000000Y-83452380D01*
X129238095Y-83452380D01*
X128285714Y-82547619D02*
X128238095Y-82500000D01*
X128142857Y-82452380D01*
X127904761Y-82452380D01*
X127809523Y-82500000D01*
X127761904Y-82547619D01*
X127714285Y-82642857D01*
X127714285Y-82738095D01*
X127761904Y-82880952D01*
X128333333Y-83452380D01*
X127714285Y-83452380D01*
X131361904Y-90452380D02*
X131361904Y-89452380D01*
X130790476Y-90452380D02*
X131219047Y-89880952D01*
X130790476Y-89452380D02*
X131361904Y-90023809D01*
X152666666Y-101202380D02*
X153142857Y-101202380D01*
X153142857Y-100202380D01*
X152428571Y-100202380D02*
X151809523Y-100202380D01*
X152142857Y-100583333D01*
X152000000Y-100583333D01*
X151904761Y-100630952D01*
X151857142Y-100678571D01*
X151809523Y-100773809D01*
X151809523Y-101011904D01*
X151857142Y-101107142D01*
X151904761Y-101154761D01*
X152000000Y-101202380D01*
X152285714Y-101202380D01*
X152380952Y-101154761D01*
X152428571Y-101107142D01*
X132666666Y-101952380D02*
X133142857Y-101952380D01*
X133142857Y-100952380D01*
X132380952Y-101047619D02*
X132333333Y-101000000D01*
X132238095Y-100952380D01*
X132000000Y-100952380D01*
X131904761Y-101000000D01*
X131857142Y-101047619D01*
X131809523Y-101142857D01*
X131809523Y-101238095D01*
X131857142Y-101380952D01*
X132428571Y-101952380D01*
X131809523Y-101952380D01*
X119166666Y-86357142D02*
X119214285Y-86404761D01*
X119357142Y-86452380D01*
X119452380Y-86452380D01*
X119595238Y-86404761D01*
X119690476Y-86309523D01*
X119738095Y-86214285D01*
X119785714Y-86023809D01*
X119785714Y-85880952D01*
X119738095Y-85690476D01*
X119690476Y-85595238D01*
X119595238Y-85500000D01*
X119452380Y-85452380D01*
X119357142Y-85452380D01*
X119214285Y-85500000D01*
X119166666Y-85547619D01*
X118214285Y-86452380D02*
X118785714Y-86452380D01*
X118500000Y-86452380D02*
X118500000Y-85452380D01*
X118595238Y-85595238D01*
X118690476Y-85690476D01*
X118785714Y-85738095D01*
X103061904Y-100852380D02*
X103061904Y-101661904D01*
X103014285Y-101757142D01*
X102966666Y-101804761D01*
X102871428Y-101852380D01*
X102680952Y-101852380D01*
X102585714Y-101804761D01*
X102538095Y-101757142D01*
X102490476Y-101661904D01*
X102490476Y-100852380D01*
X101490476Y-101852380D02*
X102061904Y-101852380D01*
X101776190Y-101852380D02*
X101776190Y-100852380D01*
X101871428Y-100995238D01*
X101966666Y-101090476D01*
X102061904Y-101138095D01*
X153416666Y-76952380D02*
X153750000Y-76476190D01*
X153988095Y-76952380D02*
X153988095Y-75952380D01*
X153607142Y-75952380D01*
X153511904Y-76000000D01*
X153464285Y-76047619D01*
X153416666Y-76142857D01*
X153416666Y-76285714D01*
X153464285Y-76380952D01*
X153511904Y-76428571D01*
X153607142Y-76476190D01*
X153988095Y-76476190D01*
X153035714Y-76047619D02*
X152988095Y-76000000D01*
X152892857Y-75952380D01*
X152654761Y-75952380D01*
X152559523Y-76000000D01*
X152511904Y-76047619D01*
X152464285Y-76142857D01*
X152464285Y-76238095D01*
X152511904Y-76380952D01*
X153083333Y-76952380D01*
X152464285Y-76952380D01*
X158869047Y-80952380D02*
X159345238Y-80952380D01*
X159345238Y-79952380D01*
X158535714Y-80428571D02*
X158202380Y-80428571D01*
X158059523Y-80952380D02*
X158535714Y-80952380D01*
X158535714Y-79952380D01*
X158059523Y-79952380D01*
X157630952Y-80952380D02*
X157630952Y-79952380D01*
X157392857Y-79952380D01*
X157250000Y-80000000D01*
X157154761Y-80095238D01*
X157107142Y-80190476D01*
X157059523Y-80380952D01*
X157059523Y-80523809D01*
X157107142Y-80714285D01*
X157154761Y-80809523D01*
X157250000Y-80904761D01*
X157392857Y-80952380D01*
X157630952Y-80952380D01*
X156107142Y-80952380D02*
X156678571Y-80952380D01*
X156392857Y-80952380D02*
X156392857Y-79952380D01*
X156488095Y-80095238D01*
X156583333Y-80190476D01*
X156678571Y-80238095D01*
X99488095Y-83052380D02*
X99488095Y-82052380D01*
X99250000Y-82052380D01*
X99107142Y-82100000D01*
X99011904Y-82195238D01*
X98964285Y-82290476D01*
X98916666Y-82480952D01*
X98916666Y-82623809D01*
X98964285Y-82814285D01*
X99011904Y-82909523D01*
X99107142Y-83004761D01*
X99250000Y-83052380D01*
X99488095Y-83052380D01*
X97964285Y-83052380D02*
X98535714Y-83052380D01*
X98250000Y-83052380D02*
X98250000Y-82052380D01*
X98345238Y-82195238D01*
X98440476Y-82290476D01*
X98535714Y-82338095D01*
X155896666Y-88367142D02*
X155944285Y-88414761D01*
X156087142Y-88462380D01*
X156182380Y-88462380D01*
X156325238Y-88414761D01*
X156420476Y-88319523D01*
X156468095Y-88224285D01*
X156515714Y-88033809D01*
X156515714Y-87890952D01*
X156468095Y-87700476D01*
X156420476Y-87605238D01*
X156325238Y-87510000D01*
X156182380Y-87462380D01*
X156087142Y-87462380D01*
X155944285Y-87510000D01*
X155896666Y-87557619D01*
X155563333Y-87462380D02*
X154944285Y-87462380D01*
X155277619Y-87843333D01*
X155134761Y-87843333D01*
X155039523Y-87890952D01*
X154991904Y-87938571D01*
X154944285Y-88033809D01*
X154944285Y-88271904D01*
X154991904Y-88367142D01*
X155039523Y-88414761D01*
X155134761Y-88462380D01*
X155420476Y-88462380D01*
X155515714Y-88414761D01*
X155563333Y-88367142D01*
X144166666Y-86357142D02*
X144214285Y-86404761D01*
X144357142Y-86452380D01*
X144452380Y-86452380D01*
X144595238Y-86404761D01*
X144690476Y-86309523D01*
X144738095Y-86214285D01*
X144785714Y-86023809D01*
X144785714Y-85880952D01*
X144738095Y-85690476D01*
X144690476Y-85595238D01*
X144595238Y-85500000D01*
X144452380Y-85452380D01*
X144357142Y-85452380D01*
X144214285Y-85500000D01*
X144166666Y-85547619D01*
X143785714Y-85547619D02*
X143738095Y-85500000D01*
X143642857Y-85452380D01*
X143404761Y-85452380D01*
X143309523Y-85500000D01*
X143261904Y-85547619D01*
X143214285Y-85642857D01*
X143214285Y-85738095D01*
X143261904Y-85880952D01*
X143833333Y-86452380D01*
X143214285Y-86452380D01*
M02*
