G04 #@! TF.GenerationSoftware,KiCad,Pcbnew,8.0.6*
G04 #@! TF.CreationDate,2026-03-29T15:19:43+03:00*
G04 #@! TF.ProjectId,c64-wedge-psu-pcb,6336342d-7765-4646-9765-2d7073752d70,rev?*
G04 #@! TF.SameCoordinates,Original*
G04 #@! TF.FileFunction,Legend,Bot*
G04 #@! TF.FilePolarity,Positive*
%FSLAX46Y46*%
G04 Gerber Fmt 4.6, Leading zero omitted, Abs format (unit mm)*
G04 Created by KiCad (PCBNEW 8.0.6) date 2026-03-29 15:19:43*
%MOMM*%
%LPD*%
G01*
G04 APERTURE LIST*
%ADD10C,0.120000*%
%ADD11C,0.150000*%
%ADD12C,0.100000*%
G04 APERTURE END LIST*
D10*
X119000000Y-75000000D02*
X119000000Y-113000000D01*
X159000000Y-74422000D02*
X90166000Y-74422000D01*
D11*
X128690666Y-85068580D02*
X128738285Y-85116200D01*
X128738285Y-85116200D02*
X128881142Y-85163819D01*
X128881142Y-85163819D02*
X128976380Y-85163819D01*
X128976380Y-85163819D02*
X129119237Y-85116200D01*
X129119237Y-85116200D02*
X129214475Y-85020961D01*
X129214475Y-85020961D02*
X129262094Y-84925723D01*
X129262094Y-84925723D02*
X129309713Y-84735247D01*
X129309713Y-84735247D02*
X129309713Y-84592390D01*
X129309713Y-84592390D02*
X129262094Y-84401914D01*
X129262094Y-84401914D02*
X129214475Y-84306676D01*
X129214475Y-84306676D02*
X129119237Y-84211438D01*
X129119237Y-84211438D02*
X128976380Y-84163819D01*
X128976380Y-84163819D02*
X128881142Y-84163819D01*
X128881142Y-84163819D02*
X128738285Y-84211438D01*
X128738285Y-84211438D02*
X128690666Y-84259057D01*
X127738285Y-85163819D02*
X128309713Y-85163819D01*
X128023999Y-85163819D02*
X128023999Y-84163819D01*
X128023999Y-84163819D02*
X128119237Y-84306676D01*
X128119237Y-84306676D02*
X128214475Y-84401914D01*
X128214475Y-84401914D02*
X128309713Y-84449533D01*
X107862666Y-112468819D02*
X108195999Y-111992628D01*
X108434094Y-112468819D02*
X108434094Y-111468819D01*
X108434094Y-111468819D02*
X108053142Y-111468819D01*
X108053142Y-111468819D02*
X107957904Y-111516438D01*
X107957904Y-111516438D02*
X107910285Y-111564057D01*
X107910285Y-111564057D02*
X107862666Y-111659295D01*
X107862666Y-111659295D02*
X107862666Y-111802152D01*
X107862666Y-111802152D02*
X107910285Y-111897390D01*
X107910285Y-111897390D02*
X107957904Y-111945009D01*
X107957904Y-111945009D02*
X108053142Y-111992628D01*
X108053142Y-111992628D02*
X108434094Y-111992628D01*
X107481713Y-111564057D02*
X107434094Y-111516438D01*
X107434094Y-111516438D02*
X107338856Y-111468819D01*
X107338856Y-111468819D02*
X107100761Y-111468819D01*
X107100761Y-111468819D02*
X107005523Y-111516438D01*
X107005523Y-111516438D02*
X106957904Y-111564057D01*
X106957904Y-111564057D02*
X106910285Y-111659295D01*
X106910285Y-111659295D02*
X106910285Y-111754533D01*
X106910285Y-111754533D02*
X106957904Y-111897390D01*
X106957904Y-111897390D02*
X107529332Y-112468819D01*
X107529332Y-112468819D02*
X106910285Y-112468819D01*
X97956666Y-112468819D02*
X98289999Y-111992628D01*
X98528094Y-112468819D02*
X98528094Y-111468819D01*
X98528094Y-111468819D02*
X98147142Y-111468819D01*
X98147142Y-111468819D02*
X98051904Y-111516438D01*
X98051904Y-111516438D02*
X98004285Y-111564057D01*
X98004285Y-111564057D02*
X97956666Y-111659295D01*
X97956666Y-111659295D02*
X97956666Y-111802152D01*
X97956666Y-111802152D02*
X98004285Y-111897390D01*
X98004285Y-111897390D02*
X98051904Y-111945009D01*
X98051904Y-111945009D02*
X98147142Y-111992628D01*
X98147142Y-111992628D02*
X98528094Y-111992628D01*
X97004285Y-112468819D02*
X97575713Y-112468819D01*
X97289999Y-112468819D02*
X97289999Y-111468819D01*
X97289999Y-111468819D02*
X97385237Y-111611676D01*
X97385237Y-111611676D02*
X97480475Y-111706914D01*
X97480475Y-111706914D02*
X97575713Y-111754533D01*
X111863094Y-83004819D02*
X111863094Y-82004819D01*
X111863094Y-82004819D02*
X111624999Y-82004819D01*
X111624999Y-82004819D02*
X111482142Y-82052438D01*
X111482142Y-82052438D02*
X111386904Y-82147676D01*
X111386904Y-82147676D02*
X111339285Y-82242914D01*
X111339285Y-82242914D02*
X111291666Y-82433390D01*
X111291666Y-82433390D02*
X111291666Y-82576247D01*
X111291666Y-82576247D02*
X111339285Y-82766723D01*
X111339285Y-82766723D02*
X111386904Y-82861961D01*
X111386904Y-82861961D02*
X111482142Y-82957200D01*
X111482142Y-82957200D02*
X111624999Y-83004819D01*
X111624999Y-83004819D02*
X111863094Y-83004819D01*
X110339285Y-83004819D02*
X110910713Y-83004819D01*
X110624999Y-83004819D02*
X110624999Y-82004819D01*
X110624999Y-82004819D02*
X110720237Y-82147676D01*
X110720237Y-82147676D02*
X110815475Y-82242914D01*
X110815475Y-82242914D02*
X110910713Y-82290533D01*
X113986904Y-89354819D02*
X113986904Y-88354819D01*
X113415476Y-89354819D02*
X113844047Y-88783390D01*
X113415476Y-88354819D02*
X113986904Y-88926247D01*
X100433094Y-83004819D02*
X100433094Y-82004819D01*
X100433094Y-82004819D02*
X100194999Y-82004819D01*
X100194999Y-82004819D02*
X100052142Y-82052438D01*
X100052142Y-82052438D02*
X99956904Y-82147676D01*
X99956904Y-82147676D02*
X99909285Y-82242914D01*
X99909285Y-82242914D02*
X99861666Y-82433390D01*
X99861666Y-82433390D02*
X99861666Y-82576247D01*
X99861666Y-82576247D02*
X99909285Y-82766723D01*
X99909285Y-82766723D02*
X99956904Y-82861961D01*
X99956904Y-82861961D02*
X100052142Y-82957200D01*
X100052142Y-82957200D02*
X100194999Y-83004819D01*
X100194999Y-83004819D02*
X100433094Y-83004819D01*
X99528332Y-82004819D02*
X98909285Y-82004819D01*
X98909285Y-82004819D02*
X99242618Y-82385771D01*
X99242618Y-82385771D02*
X99099761Y-82385771D01*
X99099761Y-82385771D02*
X99004523Y-82433390D01*
X99004523Y-82433390D02*
X98956904Y-82481009D01*
X98956904Y-82481009D02*
X98909285Y-82576247D01*
X98909285Y-82576247D02*
X98909285Y-82814342D01*
X98909285Y-82814342D02*
X98956904Y-82909580D01*
X98956904Y-82909580D02*
X99004523Y-82957200D01*
X99004523Y-82957200D02*
X99099761Y-83004819D01*
X99099761Y-83004819D02*
X99385475Y-83004819D01*
X99385475Y-83004819D02*
X99480713Y-82957200D01*
X99480713Y-82957200D02*
X99528332Y-82909580D01*
X99956904Y-73860819D02*
X99956904Y-72860819D01*
X99385476Y-73860819D02*
X99814047Y-73289390D01*
X99385476Y-72860819D02*
X99956904Y-73432247D01*
X157138666Y-96244580D02*
X157186285Y-96292200D01*
X157186285Y-96292200D02*
X157329142Y-96339819D01*
X157329142Y-96339819D02*
X157424380Y-96339819D01*
X157424380Y-96339819D02*
X157567237Y-96292200D01*
X157567237Y-96292200D02*
X157662475Y-96196961D01*
X157662475Y-96196961D02*
X157710094Y-96101723D01*
X157710094Y-96101723D02*
X157757713Y-95911247D01*
X157757713Y-95911247D02*
X157757713Y-95768390D01*
X157757713Y-95768390D02*
X157710094Y-95577914D01*
X157710094Y-95577914D02*
X157662475Y-95482676D01*
X157662475Y-95482676D02*
X157567237Y-95387438D01*
X157567237Y-95387438D02*
X157424380Y-95339819D01*
X157424380Y-95339819D02*
X157329142Y-95339819D01*
X157329142Y-95339819D02*
X157186285Y-95387438D01*
X157186285Y-95387438D02*
X157138666Y-95435057D01*
X156805332Y-95339819D02*
X156186285Y-95339819D01*
X156186285Y-95339819D02*
X156519618Y-95720771D01*
X156519618Y-95720771D02*
X156376761Y-95720771D01*
X156376761Y-95720771D02*
X156281523Y-95768390D01*
X156281523Y-95768390D02*
X156233904Y-95816009D01*
X156233904Y-95816009D02*
X156186285Y-95911247D01*
X156186285Y-95911247D02*
X156186285Y-96149342D01*
X156186285Y-96149342D02*
X156233904Y-96244580D01*
X156233904Y-96244580D02*
X156281523Y-96292200D01*
X156281523Y-96292200D02*
X156376761Y-96339819D01*
X156376761Y-96339819D02*
X156662475Y-96339819D01*
X156662475Y-96339819D02*
X156757713Y-96292200D01*
X156757713Y-96292200D02*
X156805332Y-96244580D01*
X131992666Y-102552819D02*
X132468856Y-102552819D01*
X132468856Y-102552819D02*
X132468856Y-101552819D01*
X131135523Y-102552819D02*
X131706951Y-102552819D01*
X131421237Y-102552819D02*
X131421237Y-101552819D01*
X131421237Y-101552819D02*
X131516475Y-101695676D01*
X131516475Y-101695676D02*
X131611713Y-101790914D01*
X131611713Y-101790914D02*
X131706951Y-101838533D01*
D12*
X150240666Y-102565419D02*
X150716856Y-102565419D01*
X150716856Y-102565419D02*
X150716856Y-101565419D01*
X149954951Y-101660657D02*
X149907332Y-101613038D01*
X149907332Y-101613038D02*
X149812094Y-101565419D01*
X149812094Y-101565419D02*
X149573999Y-101565419D01*
X149573999Y-101565419D02*
X149478761Y-101613038D01*
X149478761Y-101613038D02*
X149431142Y-101660657D01*
X149431142Y-101660657D02*
X149383523Y-101755895D01*
X149383523Y-101755895D02*
X149383523Y-101851133D01*
X149383523Y-101851133D02*
X149431142Y-101993990D01*
X149431142Y-101993990D02*
X150002570Y-102565419D01*
X150002570Y-102565419D02*
X149383523Y-102565419D01*
D11*
X146216666Y-85068580D02*
X146264285Y-85116200D01*
X146264285Y-85116200D02*
X146407142Y-85163819D01*
X146407142Y-85163819D02*
X146502380Y-85163819D01*
X146502380Y-85163819D02*
X146645237Y-85116200D01*
X146645237Y-85116200D02*
X146740475Y-85020961D01*
X146740475Y-85020961D02*
X146788094Y-84925723D01*
X146788094Y-84925723D02*
X146835713Y-84735247D01*
X146835713Y-84735247D02*
X146835713Y-84592390D01*
X146835713Y-84592390D02*
X146788094Y-84401914D01*
X146788094Y-84401914D02*
X146740475Y-84306676D01*
X146740475Y-84306676D02*
X146645237Y-84211438D01*
X146645237Y-84211438D02*
X146502380Y-84163819D01*
X146502380Y-84163819D02*
X146407142Y-84163819D01*
X146407142Y-84163819D02*
X146264285Y-84211438D01*
X146264285Y-84211438D02*
X146216666Y-84259057D01*
X145835713Y-84259057D02*
X145788094Y-84211438D01*
X145788094Y-84211438D02*
X145692856Y-84163819D01*
X145692856Y-84163819D02*
X145454761Y-84163819D01*
X145454761Y-84163819D02*
X145359523Y-84211438D01*
X145359523Y-84211438D02*
X145311904Y-84259057D01*
X145311904Y-84259057D02*
X145264285Y-84354295D01*
X145264285Y-84354295D02*
X145264285Y-84449533D01*
X145264285Y-84449533D02*
X145311904Y-84592390D01*
X145311904Y-84592390D02*
X145883332Y-85163819D01*
X145883332Y-85163819D02*
X145264285Y-85163819D01*
X157138666Y-84782819D02*
X157471999Y-84306628D01*
X157710094Y-84782819D02*
X157710094Y-83782819D01*
X157710094Y-83782819D02*
X157329142Y-83782819D01*
X157329142Y-83782819D02*
X157233904Y-83830438D01*
X157233904Y-83830438D02*
X157186285Y-83878057D01*
X157186285Y-83878057D02*
X157138666Y-83973295D01*
X157138666Y-83973295D02*
X157138666Y-84116152D01*
X157138666Y-84116152D02*
X157186285Y-84211390D01*
X157186285Y-84211390D02*
X157233904Y-84259009D01*
X157233904Y-84259009D02*
X157329142Y-84306628D01*
X157329142Y-84306628D02*
X157710094Y-84306628D01*
X156805332Y-83782819D02*
X156186285Y-83782819D01*
X156186285Y-83782819D02*
X156519618Y-84163771D01*
X156519618Y-84163771D02*
X156376761Y-84163771D01*
X156376761Y-84163771D02*
X156281523Y-84211390D01*
X156281523Y-84211390D02*
X156233904Y-84259009D01*
X156233904Y-84259009D02*
X156186285Y-84354247D01*
X156186285Y-84354247D02*
X156186285Y-84592342D01*
X156186285Y-84592342D02*
X156233904Y-84687580D01*
X156233904Y-84687580D02*
X156281523Y-84735200D01*
X156281523Y-84735200D02*
X156376761Y-84782819D01*
X156376761Y-84782819D02*
X156662475Y-84782819D01*
X156662475Y-84782819D02*
X156757713Y-84735200D01*
X156757713Y-84735200D02*
X156805332Y-84687580D01*
X106171904Y-96228819D02*
X106171904Y-97038342D01*
X106171904Y-97038342D02*
X106124285Y-97133580D01*
X106124285Y-97133580D02*
X106076666Y-97181200D01*
X106076666Y-97181200D02*
X105981428Y-97228819D01*
X105981428Y-97228819D02*
X105790952Y-97228819D01*
X105790952Y-97228819D02*
X105695714Y-97181200D01*
X105695714Y-97181200D02*
X105648095Y-97133580D01*
X105648095Y-97133580D02*
X105600476Y-97038342D01*
X105600476Y-97038342D02*
X105600476Y-96228819D01*
X104600476Y-97228819D02*
X105171904Y-97228819D01*
X104886190Y-97228819D02*
X104886190Y-96228819D01*
X104886190Y-96228819D02*
X104981428Y-96371676D01*
X104981428Y-96371676D02*
X105076666Y-96466914D01*
X105076666Y-96466914D02*
X105171904Y-96514533D01*
X158091047Y-73860819D02*
X158567237Y-73860819D01*
X158567237Y-73860819D02*
X158567237Y-72860819D01*
X157757713Y-73337009D02*
X157424380Y-73337009D01*
X157281523Y-73860819D02*
X157757713Y-73860819D01*
X157757713Y-73860819D02*
X157757713Y-72860819D01*
X157757713Y-72860819D02*
X157281523Y-72860819D01*
X156852951Y-73860819D02*
X156852951Y-72860819D01*
X156852951Y-72860819D02*
X156614856Y-72860819D01*
X156614856Y-72860819D02*
X156471999Y-72908438D01*
X156471999Y-72908438D02*
X156376761Y-73003676D01*
X156376761Y-73003676D02*
X156329142Y-73098914D01*
X156329142Y-73098914D02*
X156281523Y-73289390D01*
X156281523Y-73289390D02*
X156281523Y-73432247D01*
X156281523Y-73432247D02*
X156329142Y-73622723D01*
X156329142Y-73622723D02*
X156376761Y-73717961D01*
X156376761Y-73717961D02*
X156471999Y-73813200D01*
X156471999Y-73813200D02*
X156614856Y-73860819D01*
X156614856Y-73860819D02*
X156852951Y-73860819D01*
X155329142Y-73860819D02*
X155900570Y-73860819D01*
X155614856Y-73860819D02*
X155614856Y-72860819D01*
X155614856Y-72860819D02*
X155710094Y-73003676D01*
X155710094Y-73003676D02*
X155805332Y-73098914D01*
X155805332Y-73098914D02*
X155900570Y-73146533D01*
X111482094Y-107388819D02*
X111482094Y-106388819D01*
X111482094Y-106388819D02*
X111243999Y-106388819D01*
X111243999Y-106388819D02*
X111101142Y-106436438D01*
X111101142Y-106436438D02*
X111005904Y-106531676D01*
X111005904Y-106531676D02*
X110958285Y-106626914D01*
X110958285Y-106626914D02*
X110910666Y-106817390D01*
X110910666Y-106817390D02*
X110910666Y-106960247D01*
X110910666Y-106960247D02*
X110958285Y-107150723D01*
X110958285Y-107150723D02*
X111005904Y-107245961D01*
X111005904Y-107245961D02*
X111101142Y-107341200D01*
X111101142Y-107341200D02*
X111243999Y-107388819D01*
X111243999Y-107388819D02*
X111482094Y-107388819D01*
X110005904Y-106388819D02*
X110482094Y-106388819D01*
X110482094Y-106388819D02*
X110529713Y-106865009D01*
X110529713Y-106865009D02*
X110482094Y-106817390D01*
X110482094Y-106817390D02*
X110386856Y-106769771D01*
X110386856Y-106769771D02*
X110148761Y-106769771D01*
X110148761Y-106769771D02*
X110053523Y-106817390D01*
X110053523Y-106817390D02*
X110005904Y-106865009D01*
X110005904Y-106865009D02*
X109958285Y-106960247D01*
X109958285Y-106960247D02*
X109958285Y-107198342D01*
X109958285Y-107198342D02*
X110005904Y-107293580D01*
X110005904Y-107293580D02*
X110053523Y-107341200D01*
X110053523Y-107341200D02*
X110148761Y-107388819D01*
X110148761Y-107388819D02*
X110386856Y-107388819D01*
X110386856Y-107388819D02*
X110482094Y-107341200D01*
X110482094Y-107341200D02*
X110529713Y-107293580D01*
X117355904Y-104340819D02*
X117355904Y-103340819D01*
X116784476Y-104340819D02*
X117213047Y-103769390D01*
X116784476Y-103340819D02*
X117355904Y-103912247D01*
X94718094Y-83004819D02*
X94718094Y-82004819D01*
X94718094Y-82004819D02*
X94479999Y-82004819D01*
X94479999Y-82004819D02*
X94337142Y-82052438D01*
X94337142Y-82052438D02*
X94241904Y-82147676D01*
X94241904Y-82147676D02*
X94194285Y-82242914D01*
X94194285Y-82242914D02*
X94146666Y-82433390D01*
X94146666Y-82433390D02*
X94146666Y-82576247D01*
X94146666Y-82576247D02*
X94194285Y-82766723D01*
X94194285Y-82766723D02*
X94241904Y-82861961D01*
X94241904Y-82861961D02*
X94337142Y-82957200D01*
X94337142Y-82957200D02*
X94479999Y-83004819D01*
X94479999Y-83004819D02*
X94718094Y-83004819D01*
X93289523Y-82338152D02*
X93289523Y-83004819D01*
X93527618Y-81957200D02*
X93765713Y-82671485D01*
X93765713Y-82671485D02*
X93146666Y-82671485D01*
X94241904Y-73860819D02*
X94241904Y-72860819D01*
X93670476Y-73860819D02*
X94099047Y-73289390D01*
X93670476Y-72860819D02*
X94241904Y-73432247D01*
X106148094Y-83004819D02*
X106148094Y-82004819D01*
X106148094Y-82004819D02*
X105909999Y-82004819D01*
X105909999Y-82004819D02*
X105767142Y-82052438D01*
X105767142Y-82052438D02*
X105671904Y-82147676D01*
X105671904Y-82147676D02*
X105624285Y-82242914D01*
X105624285Y-82242914D02*
X105576666Y-82433390D01*
X105576666Y-82433390D02*
X105576666Y-82576247D01*
X105576666Y-82576247D02*
X105624285Y-82766723D01*
X105624285Y-82766723D02*
X105671904Y-82861961D01*
X105671904Y-82861961D02*
X105767142Y-82957200D01*
X105767142Y-82957200D02*
X105909999Y-83004819D01*
X105909999Y-83004819D02*
X106148094Y-83004819D01*
X105195713Y-82100057D02*
X105148094Y-82052438D01*
X105148094Y-82052438D02*
X105052856Y-82004819D01*
X105052856Y-82004819D02*
X104814761Y-82004819D01*
X104814761Y-82004819D02*
X104719523Y-82052438D01*
X104719523Y-82052438D02*
X104671904Y-82100057D01*
X104671904Y-82100057D02*
X104624285Y-82195295D01*
X104624285Y-82195295D02*
X104624285Y-82290533D01*
X104624285Y-82290533D02*
X104671904Y-82433390D01*
X104671904Y-82433390D02*
X105243332Y-83004819D01*
X105243332Y-83004819D02*
X104624285Y-83004819D01*
X108271904Y-89354819D02*
X108271904Y-88354819D01*
X107700476Y-89354819D02*
X108129047Y-88783390D01*
X107700476Y-88354819D02*
X108271904Y-88926247D01*
D10*
X133639000Y-91839440D02*
X133639000Y-93639440D01*
X132739000Y-92739440D02*
X134539000Y-92739440D01*
X119443000Y-83880000D02*
X137605000Y-83880000D01*
X119444000Y-83840000D02*
X137604000Y-83840000D01*
X119444000Y-83800000D02*
X137604000Y-83800000D01*
X119444000Y-83760000D02*
X137604000Y-83760000D01*
X119445000Y-83720000D02*
X137603000Y-83720000D01*
X119446000Y-83680000D02*
X137602000Y-83680000D01*
X119447000Y-83640000D02*
X137601000Y-83640000D01*
X119448000Y-83600000D02*
X137600000Y-83600000D01*
X119449000Y-83560000D02*
X137599000Y-83560000D01*
X119451000Y-83520000D02*
X137597000Y-83520000D01*
X119452000Y-83480000D02*
X137596000Y-83480000D01*
X119454000Y-83440000D02*
X137594000Y-83440000D01*
X119456000Y-83400000D02*
X137592000Y-83400000D01*
X119458000Y-83360000D02*
X137590000Y-83360000D01*
X119461000Y-83320000D02*
X137587000Y-83320000D01*
X119463000Y-83280000D02*
X137585000Y-83280000D01*
X119466000Y-83240000D02*
X137582000Y-83240000D01*
X119469000Y-83200000D02*
X137579000Y-83200000D01*
X119472000Y-83159000D02*
X137576000Y-83159000D01*
X119475000Y-83119000D02*
X137573000Y-83119000D01*
X119479000Y-83079000D02*
X137569000Y-83079000D01*
X119482000Y-83039000D02*
X137566000Y-83039000D01*
X119486000Y-82999000D02*
X137562000Y-82999000D01*
X119490000Y-82959000D02*
X137558000Y-82959000D01*
X119494000Y-82919000D02*
X137554000Y-82919000D01*
X119498000Y-82879000D02*
X137550000Y-82879000D01*
X119503000Y-82839000D02*
X137545000Y-82839000D01*
X119508000Y-82799000D02*
X137540000Y-82799000D01*
X119513000Y-82759000D02*
X137535000Y-82759000D01*
X119518000Y-82719000D02*
X137530000Y-82719000D01*
X119523000Y-82679000D02*
X137525000Y-82679000D01*
X119528000Y-82639000D02*
X137520000Y-82639000D01*
X119534000Y-82599000D02*
X137514000Y-82599000D01*
X119540000Y-82559000D02*
X137508000Y-82559000D01*
X119545000Y-82519000D02*
X137503000Y-82519000D01*
X119552000Y-82479000D02*
X137496000Y-82479000D01*
X119558000Y-82439000D02*
X137490000Y-82439000D01*
X119564000Y-82399000D02*
X137484000Y-82399000D01*
X119571000Y-82359000D02*
X137477000Y-82359000D01*
X119578000Y-82319000D02*
X137470000Y-82319000D01*
X119585000Y-82279000D02*
X137463000Y-82279000D01*
X119592000Y-82239000D02*
X137456000Y-82239000D01*
X119600000Y-82199000D02*
X137448000Y-82199000D01*
X119607000Y-82159000D02*
X137441000Y-82159000D01*
X119615000Y-82119000D02*
X137433000Y-82119000D01*
X119623000Y-82079000D02*
X137425000Y-82079000D01*
X119631000Y-82039000D02*
X137417000Y-82039000D01*
X119639000Y-81999000D02*
X137409000Y-81999000D01*
X119648000Y-81959000D02*
X137400000Y-81959000D01*
X119657000Y-81919000D02*
X137391000Y-81919000D01*
X119666000Y-81879000D02*
X137382000Y-81879000D01*
X119675000Y-81839000D02*
X137373000Y-81839000D01*
X119684000Y-81799000D02*
X137364000Y-81799000D01*
X119693000Y-81759000D02*
X137355000Y-81759000D01*
X119703000Y-81719000D02*
X137345000Y-81719000D01*
X119713000Y-81679000D02*
X137335000Y-81679000D01*
X119723000Y-81639000D02*
X137325000Y-81639000D01*
X119733000Y-81599000D02*
X137315000Y-81599000D01*
X129964000Y-81559000D02*
X137304000Y-81559000D01*
X119744000Y-81559000D02*
X127084000Y-81559000D01*
X129964000Y-81519000D02*
X137294000Y-81519000D01*
X119754000Y-81519000D02*
X127084000Y-81519000D01*
X129964000Y-81479000D02*
X137283000Y-81479000D01*
X119765000Y-81479000D02*
X127084000Y-81479000D01*
X129964000Y-81439000D02*
X137272000Y-81439000D01*
X119776000Y-81439000D02*
X127084000Y-81439000D01*
X129964000Y-81399000D02*
X137261000Y-81399000D01*
X119787000Y-81399000D02*
X127084000Y-81399000D01*
X129964000Y-81359000D02*
X137249000Y-81359000D01*
X119799000Y-81359000D02*
X127084000Y-81359000D01*
X129964000Y-81319000D02*
X137238000Y-81319000D01*
X119810000Y-81319000D02*
X127084000Y-81319000D01*
X129964000Y-81279000D02*
X137226000Y-81279000D01*
X119822000Y-81279000D02*
X127084000Y-81279000D01*
X129964000Y-81239000D02*
X137214000Y-81239000D01*
X119834000Y-81239000D02*
X127084000Y-81239000D01*
X129964000Y-81199000D02*
X137202000Y-81199000D01*
X119846000Y-81199000D02*
X127084000Y-81199000D01*
X129964000Y-81159000D02*
X137189000Y-81159000D01*
X119859000Y-81159000D02*
X127084000Y-81159000D01*
X129964000Y-81119000D02*
X137177000Y-81119000D01*
X119871000Y-81119000D02*
X127084000Y-81119000D01*
X129964000Y-81079000D02*
X137164000Y-81079000D01*
X119884000Y-81079000D02*
X127084000Y-81079000D01*
X129964000Y-81039000D02*
X137151000Y-81039000D01*
X119897000Y-81039000D02*
X127084000Y-81039000D01*
X129964000Y-80999000D02*
X137138000Y-80999000D01*
X119910000Y-80999000D02*
X127084000Y-80999000D01*
X129964000Y-80959000D02*
X137124000Y-80959000D01*
X119924000Y-80959000D02*
X127084000Y-80959000D01*
X129964000Y-80919000D02*
X137111000Y-80919000D01*
X119937000Y-80919000D02*
X127084000Y-80919000D01*
X129964000Y-80879000D02*
X137097000Y-80879000D01*
X119951000Y-80879000D02*
X127084000Y-80879000D01*
X129964000Y-80839000D02*
X137083000Y-80839000D01*
X119965000Y-80839000D02*
X127084000Y-80839000D01*
X129964000Y-80799000D02*
X137069000Y-80799000D01*
X119979000Y-80799000D02*
X127084000Y-80799000D01*
X129964000Y-80759000D02*
X137054000Y-80759000D01*
X119994000Y-80759000D02*
X127084000Y-80759000D01*
X129964000Y-80719000D02*
X137040000Y-80719000D01*
X120008000Y-80719000D02*
X127084000Y-80719000D01*
X129964000Y-80679000D02*
X137025000Y-80679000D01*
X120023000Y-80679000D02*
X127084000Y-80679000D01*
X129964000Y-80639000D02*
X137010000Y-80639000D01*
X120038000Y-80639000D02*
X127084000Y-80639000D01*
X129964000Y-80599000D02*
X136994000Y-80599000D01*
X120054000Y-80599000D02*
X127084000Y-80599000D01*
X129964000Y-80559000D02*
X136979000Y-80559000D01*
X120069000Y-80559000D02*
X127084000Y-80559000D01*
X129964000Y-80519000D02*
X136963000Y-80519000D01*
X120085000Y-80519000D02*
X127084000Y-80519000D01*
X129964000Y-80479000D02*
X136947000Y-80479000D01*
X120101000Y-80479000D02*
X127084000Y-80479000D01*
X129964000Y-80439000D02*
X136931000Y-80439000D01*
X120117000Y-80439000D02*
X127084000Y-80439000D01*
X129964000Y-80399000D02*
X136914000Y-80399000D01*
X120134000Y-80399000D02*
X127084000Y-80399000D01*
X129964000Y-80359000D02*
X136898000Y-80359000D01*
X120150000Y-80359000D02*
X127084000Y-80359000D01*
X129964000Y-80319000D02*
X136881000Y-80319000D01*
X120167000Y-80319000D02*
X127084000Y-80319000D01*
X129964000Y-80279000D02*
X136864000Y-80279000D01*
X120184000Y-80279000D02*
X127084000Y-80279000D01*
X129964000Y-80239000D02*
X136847000Y-80239000D01*
X120201000Y-80239000D02*
X127084000Y-80239000D01*
X129964000Y-80199000D02*
X136829000Y-80199000D01*
X120219000Y-80199000D02*
X127084000Y-80199000D01*
X129964000Y-80159000D02*
X136811000Y-80159000D01*
X120237000Y-80159000D02*
X127084000Y-80159000D01*
X129964000Y-80119000D02*
X136793000Y-80119000D01*
X120255000Y-80119000D02*
X127084000Y-80119000D01*
X129964000Y-80079000D02*
X136775000Y-80079000D01*
X120273000Y-80079000D02*
X127084000Y-80079000D01*
X129964000Y-80039000D02*
X136757000Y-80039000D01*
X120291000Y-80039000D02*
X127084000Y-80039000D01*
X129964000Y-79999000D02*
X136738000Y-79999000D01*
X120310000Y-79999000D02*
X127084000Y-79999000D01*
X129964000Y-79959000D02*
X136719000Y-79959000D01*
X120329000Y-79959000D02*
X127084000Y-79959000D01*
X129964000Y-79919000D02*
X136700000Y-79919000D01*
X120348000Y-79919000D02*
X127084000Y-79919000D01*
X129964000Y-79879000D02*
X136680000Y-79879000D01*
X120368000Y-79879000D02*
X127084000Y-79879000D01*
X129964000Y-79839000D02*
X136661000Y-79839000D01*
X120387000Y-79839000D02*
X127084000Y-79839000D01*
X129964000Y-79799000D02*
X136641000Y-79799000D01*
X120407000Y-79799000D02*
X127084000Y-79799000D01*
X129964000Y-79759000D02*
X136621000Y-79759000D01*
X120427000Y-79759000D02*
X127084000Y-79759000D01*
X129964000Y-79719000D02*
X136600000Y-79719000D01*
X120448000Y-79719000D02*
X127084000Y-79719000D01*
X129964000Y-79679000D02*
X136580000Y-79679000D01*
X120468000Y-79679000D02*
X127084000Y-79679000D01*
X129964000Y-79639000D02*
X136559000Y-79639000D01*
X120489000Y-79639000D02*
X127084000Y-79639000D01*
X129964000Y-79599000D02*
X136538000Y-79599000D01*
X120510000Y-79599000D02*
X127084000Y-79599000D01*
X129964000Y-79559000D02*
X136516000Y-79559000D01*
X120532000Y-79559000D02*
X127084000Y-79559000D01*
X129964000Y-79519000D02*
X136495000Y-79519000D01*
X120553000Y-79519000D02*
X127084000Y-79519000D01*
X129964000Y-79479000D02*
X136473000Y-79479000D01*
X120575000Y-79479000D02*
X127084000Y-79479000D01*
X129964000Y-79439000D02*
X136451000Y-79439000D01*
X120597000Y-79439000D02*
X127084000Y-79439000D01*
X129964000Y-79399000D02*
X136428000Y-79399000D01*
X120620000Y-79399000D02*
X127084000Y-79399000D01*
X129964000Y-79359000D02*
X136406000Y-79359000D01*
X120642000Y-79359000D02*
X127084000Y-79359000D01*
X129964000Y-79319000D02*
X136383000Y-79319000D01*
X120665000Y-79319000D02*
X127084000Y-79319000D01*
X129964000Y-79279000D02*
X136359000Y-79279000D01*
X120689000Y-79279000D02*
X127084000Y-79279000D01*
X129964000Y-79239000D02*
X136336000Y-79239000D01*
X120712000Y-79239000D02*
X127084000Y-79239000D01*
X129964000Y-79199000D02*
X136312000Y-79199000D01*
X120736000Y-79199000D02*
X127084000Y-79199000D01*
X129964000Y-79159000D02*
X136288000Y-79159000D01*
X120760000Y-79159000D02*
X127084000Y-79159000D01*
X129964000Y-79119000D02*
X136264000Y-79119000D01*
X120784000Y-79119000D02*
X127084000Y-79119000D01*
X129964000Y-79079000D02*
X136239000Y-79079000D01*
X120809000Y-79079000D02*
X127084000Y-79079000D01*
X129964000Y-79039000D02*
X136214000Y-79039000D01*
X120834000Y-79039000D02*
X127084000Y-79039000D01*
X129964000Y-78999000D02*
X136189000Y-78999000D01*
X120859000Y-78999000D02*
X127084000Y-78999000D01*
X129964000Y-78959000D02*
X136164000Y-78959000D01*
X120884000Y-78959000D02*
X127084000Y-78959000D01*
X129964000Y-78919000D02*
X136138000Y-78919000D01*
X120910000Y-78919000D02*
X127084000Y-78919000D01*
X129964000Y-78879000D02*
X136112000Y-78879000D01*
X120936000Y-78879000D02*
X127084000Y-78879000D01*
X129964000Y-78839000D02*
X136085000Y-78839000D01*
X120963000Y-78839000D02*
X127084000Y-78839000D01*
X129964000Y-78799000D02*
X136059000Y-78799000D01*
X120989000Y-78799000D02*
X127084000Y-78799000D01*
X129964000Y-78759000D02*
X136032000Y-78759000D01*
X121016000Y-78759000D02*
X127084000Y-78759000D01*
X129964000Y-78719000D02*
X136004000Y-78719000D01*
X121044000Y-78719000D02*
X127084000Y-78719000D01*
X121071000Y-78679000D02*
X135977000Y-78679000D01*
X121099000Y-78639000D02*
X135949000Y-78639000D01*
X121127000Y-78599000D02*
X135921000Y-78599000D01*
X121156000Y-78559000D02*
X135892000Y-78559000D01*
X121185000Y-78519000D02*
X135863000Y-78519000D01*
X121214000Y-78479000D02*
X135834000Y-78479000D01*
X121244000Y-78439000D02*
X135804000Y-78439000D01*
X121274000Y-78399000D02*
X135774000Y-78399000D01*
X121304000Y-78359000D02*
X135744000Y-78359000D01*
X121334000Y-78319000D02*
X135714000Y-78319000D01*
X121365000Y-78279000D02*
X135683000Y-78279000D01*
X121397000Y-78239000D02*
X135651000Y-78239000D01*
X121428000Y-78199000D02*
X135620000Y-78199000D01*
X121460000Y-78159000D02*
X135588000Y-78159000D01*
X121493000Y-78119000D02*
X135555000Y-78119000D01*
X121525000Y-78079000D02*
X135523000Y-78079000D01*
X121559000Y-78039000D02*
X135489000Y-78039000D01*
X121592000Y-77999000D02*
X135456000Y-77999000D01*
X121626000Y-77959000D02*
X135422000Y-77959000D01*
X121660000Y-77919000D02*
X135388000Y-77919000D01*
X121695000Y-77879000D02*
X135353000Y-77879000D01*
X121730000Y-77839000D02*
X135318000Y-77839000D01*
X121766000Y-77799000D02*
X135282000Y-77799000D01*
X121802000Y-77759000D02*
X135246000Y-77759000D01*
X121838000Y-77719000D02*
X135210000Y-77719000D01*
X121875000Y-77679000D02*
X135173000Y-77679000D01*
X121912000Y-77639000D02*
X135136000Y-77639000D01*
X121950000Y-77599000D02*
X135098000Y-77599000D01*
X121988000Y-77559000D02*
X135060000Y-77559000D01*
X122027000Y-77519000D02*
X135021000Y-77519000D01*
X122066000Y-77479000D02*
X134982000Y-77479000D01*
X122106000Y-77439000D02*
X134942000Y-77439000D01*
X122146000Y-77399000D02*
X134902000Y-77399000D01*
X122187000Y-77359000D02*
X134861000Y-77359000D01*
X122228000Y-77319000D02*
X134820000Y-77319000D01*
X122270000Y-77279000D02*
X134778000Y-77279000D01*
X122312000Y-77239000D02*
X134736000Y-77239000D01*
X122354000Y-77199000D02*
X134694000Y-77199000D01*
X122398000Y-77159000D02*
X134650000Y-77159000D01*
X122442000Y-77119000D02*
X134606000Y-77119000D01*
X122486000Y-77079000D02*
X134562000Y-77079000D01*
X122531000Y-77039000D02*
X134517000Y-77039000D01*
X122577000Y-76999000D02*
X134471000Y-76999000D01*
X122623000Y-76959000D02*
X134425000Y-76959000D01*
X122670000Y-76919000D02*
X134378000Y-76919000D01*
X122718000Y-76879000D02*
X134330000Y-76879000D01*
X122766000Y-76839000D02*
X134282000Y-76839000D01*
X122815000Y-76799000D02*
X134233000Y-76799000D01*
X122864000Y-76759000D02*
X134184000Y-76759000D01*
X122915000Y-76719000D02*
X134133000Y-76719000D01*
X122966000Y-76679000D02*
X134082000Y-76679000D01*
X123018000Y-76639000D02*
X134030000Y-76639000D01*
X123070000Y-76599000D02*
X133978000Y-76599000D01*
X123124000Y-76559000D02*
X133924000Y-76559000D01*
X123178000Y-76519000D02*
X133870000Y-76519000D01*
X123233000Y-76479000D02*
X133815000Y-76479000D01*
X123289000Y-76439000D02*
X133759000Y-76439000D01*
X123346000Y-76399000D02*
X133702000Y-76399000D01*
X123404000Y-76359000D02*
X133644000Y-76359000D01*
X123462000Y-76319000D02*
X133586000Y-76319000D01*
X123522000Y-76279000D02*
X133526000Y-76279000D01*
X123583000Y-76239000D02*
X133465000Y-76239000D01*
X123645000Y-76199000D02*
X133403000Y-76199000D01*
X123708000Y-76159000D02*
X133340000Y-76159000D01*
X123772000Y-76119000D02*
X133276000Y-76119000D01*
X123838000Y-76079000D02*
X133210000Y-76079000D01*
X123904000Y-76039000D02*
X133144000Y-76039000D01*
X123972000Y-75999000D02*
X133076000Y-75999000D01*
X124042000Y-75959000D02*
X133006000Y-75959000D01*
X124112000Y-75919000D02*
X132936000Y-75919000D01*
X124185000Y-75879000D02*
X132863000Y-75879000D01*
X124259000Y-75839000D02*
X132789000Y-75839000D01*
X124334000Y-75799000D02*
X132714000Y-75799000D01*
X124411000Y-75759000D02*
X132637000Y-75759000D01*
X124491000Y-75719000D02*
X132557000Y-75719000D01*
X124572000Y-75680000D02*
X132476000Y-75680000D01*
X124655000Y-75640000D02*
X132393000Y-75640000D01*
X124740000Y-75600000D02*
X132308000Y-75600000D01*
X124828000Y-75560000D02*
X132220000Y-75560000D01*
X124919000Y-75520000D02*
X132129000Y-75520000D01*
X125012000Y-75480000D02*
X132036000Y-75480000D01*
X125108000Y-75440000D02*
X131940000Y-75440000D01*
X125207000Y-75400000D02*
X131841000Y-75400000D01*
X125310000Y-75360000D02*
X131738000Y-75360000D01*
X125417000Y-75320000D02*
X131631000Y-75320000D01*
X125528000Y-75280000D02*
X131520000Y-75280000D01*
X125644000Y-75240000D02*
X131404000Y-75240000D01*
X125765000Y-75200000D02*
X131283000Y-75200000D01*
X125892000Y-75160000D02*
X131156000Y-75160000D01*
X126026000Y-75120000D02*
X131022000Y-75120000D01*
X126169000Y-75080000D02*
X130879000Y-75080000D01*
X126321000Y-75040000D02*
X130727000Y-75040000D01*
X126485000Y-75000000D02*
X130563000Y-75000000D01*
X126664000Y-74960000D02*
X130384000Y-74960000D01*
X126863000Y-74920000D02*
X130185000Y-74920000D01*
X127089000Y-74880000D02*
X129959000Y-74880000D01*
X127358000Y-74840000D02*
X129690000Y-74840000D01*
X127710000Y-74800000D02*
X129338000Y-74800000D01*
X128484000Y-74760000D02*
X128564000Y-74760000D01*
X137644000Y-83880000D02*
G75*
G02*
X119404000Y-83880000I-9120000J0D01*
G01*
X119404000Y-83880000D02*
G75*
G02*
X137644000Y-83880000I9120000J0D01*
G01*
X104426000Y-110390000D02*
X110966000Y-110390000D01*
X110966000Y-110390000D02*
X110966000Y-110720000D01*
X110966000Y-113130000D02*
X110966000Y-112800000D01*
X104426000Y-113130000D02*
X110966000Y-113130000D01*
X104426000Y-110720000D02*
X104426000Y-110390000D01*
X104426000Y-112800000D02*
X104426000Y-113130000D01*
X94520000Y-110390000D02*
X101060000Y-110390000D01*
X101060000Y-110390000D02*
X101060000Y-110720000D01*
X101060000Y-113130000D02*
X101060000Y-112800000D01*
X94520000Y-113130000D02*
X101060000Y-113130000D01*
X94520000Y-110720000D02*
X94520000Y-110390000D01*
X94520000Y-112800000D02*
X94520000Y-113130000D01*
X113845000Y-77680000D02*
X113845000Y-87420000D01*
X113845000Y-87420000D02*
X112965000Y-87420000D01*
X108405000Y-87420000D02*
X109285000Y-87420000D01*
X108405000Y-77680000D02*
X108405000Y-87420000D01*
X108405000Y-85995000D02*
X113845000Y-85995000D01*
X108405000Y-85875000D02*
X113845000Y-85875000D01*
X108405000Y-85755000D02*
X113845000Y-85755000D01*
X112965000Y-77680000D02*
X113845000Y-77680000D01*
X109285000Y-77680000D02*
X108405000Y-77680000D01*
X96975000Y-87420000D02*
X96975000Y-77680000D01*
X96975000Y-77680000D02*
X97855000Y-77680000D01*
X102415000Y-77680000D02*
X101535000Y-77680000D01*
X102415000Y-87420000D02*
X102415000Y-77680000D01*
X102415000Y-79105000D02*
X96975000Y-79105000D01*
X102415000Y-79225000D02*
X96975000Y-79225000D01*
X102415000Y-79345000D02*
X96975000Y-79345000D01*
X97855000Y-87420000D02*
X96975000Y-87420000D01*
X101535000Y-87420000D02*
X102415000Y-87420000D01*
X158831698Y-91411000D02*
X159631698Y-91411000D01*
X159231698Y-91811000D02*
X159231698Y-91011000D01*
X155222000Y-97806000D02*
X155222000Y-89646000D01*
X155182000Y-97806000D02*
X155182000Y-89646000D01*
X155142000Y-97806000D02*
X155142000Y-89646000D01*
X155102000Y-97805000D02*
X155102000Y-89647000D01*
X155062000Y-97803000D02*
X155062000Y-89649000D01*
X155022000Y-97802000D02*
X155022000Y-89650000D01*
X154982000Y-97800000D02*
X154982000Y-89652000D01*
X154942000Y-97797000D02*
X154942000Y-89655000D01*
X154902000Y-97794000D02*
X154902000Y-89658000D01*
X154862000Y-97791000D02*
X154862000Y-89661000D01*
X154822000Y-97787000D02*
X154822000Y-89665000D01*
X154782000Y-97783000D02*
X154782000Y-89669000D01*
X154742000Y-97778000D02*
X154742000Y-89674000D01*
X154702000Y-97774000D02*
X154702000Y-89678000D01*
X154662000Y-97768000D02*
X154662000Y-89684000D01*
X154622000Y-97763000D02*
X154622000Y-89689000D01*
X154582000Y-97756000D02*
X154582000Y-89696000D01*
X154542000Y-97750000D02*
X154542000Y-89702000D01*
X154501000Y-92686000D02*
X154501000Y-89709000D01*
X154501000Y-97743000D02*
X154501000Y-94766000D01*
X154461000Y-92686000D02*
X154461000Y-89716000D01*
X154461000Y-97736000D02*
X154461000Y-94766000D01*
X154421000Y-92686000D02*
X154421000Y-89724000D01*
X154421000Y-97728000D02*
X154421000Y-94766000D01*
X154381000Y-92686000D02*
X154381000Y-89732000D01*
X154381000Y-97720000D02*
X154381000Y-94766000D01*
X154341000Y-92686000D02*
X154341000Y-89741000D01*
X154341000Y-97711000D02*
X154341000Y-94766000D01*
X154301000Y-92686000D02*
X154301000Y-89750000D01*
X154301000Y-97702000D02*
X154301000Y-94766000D01*
X154261000Y-92686000D02*
X154261000Y-89759000D01*
X154261000Y-97693000D02*
X154261000Y-94766000D01*
X154221000Y-92686000D02*
X154221000Y-89769000D01*
X154221000Y-97683000D02*
X154221000Y-94766000D01*
X154181000Y-92686000D02*
X154181000Y-89779000D01*
X154181000Y-97673000D02*
X154181000Y-94766000D01*
X154141000Y-92686000D02*
X154141000Y-89790000D01*
X154141000Y-97662000D02*
X154141000Y-94766000D01*
X154101000Y-92686000D02*
X154101000Y-89801000D01*
X154101000Y-97651000D02*
X154101000Y-94766000D01*
X154061000Y-92686000D02*
X154061000Y-89812000D01*
X154061000Y-97640000D02*
X154061000Y-94766000D01*
X154021000Y-92686000D02*
X154021000Y-89824000D01*
X154021000Y-97628000D02*
X154021000Y-94766000D01*
X153981000Y-92686000D02*
X153981000Y-89837000D01*
X153981000Y-97615000D02*
X153981000Y-94766000D01*
X153941000Y-92686000D02*
X153941000Y-89849000D01*
X153941000Y-97603000D02*
X153941000Y-94766000D01*
X153901000Y-92686000D02*
X153901000Y-89863000D01*
X153901000Y-97589000D02*
X153901000Y-94766000D01*
X153861000Y-92686000D02*
X153861000Y-89876000D01*
X153861000Y-97576000D02*
X153861000Y-94766000D01*
X153821000Y-92686000D02*
X153821000Y-89891000D01*
X153821000Y-97561000D02*
X153821000Y-94766000D01*
X153781000Y-92686000D02*
X153781000Y-89905000D01*
X153781000Y-97547000D02*
X153781000Y-94766000D01*
X153741000Y-92686000D02*
X153741000Y-89921000D01*
X153741000Y-97531000D02*
X153741000Y-94766000D01*
X153701000Y-92686000D02*
X153701000Y-89936000D01*
X153701000Y-97516000D02*
X153701000Y-94766000D01*
X153661000Y-92686000D02*
X153661000Y-89952000D01*
X153661000Y-97500000D02*
X153661000Y-94766000D01*
X153621000Y-92686000D02*
X153621000Y-89969000D01*
X153621000Y-97483000D02*
X153621000Y-94766000D01*
X153581000Y-92686000D02*
X153581000Y-89986000D01*
X153581000Y-97466000D02*
X153581000Y-94766000D01*
X153541000Y-92686000D02*
X153541000Y-90004000D01*
X153541000Y-97448000D02*
X153541000Y-94766000D01*
X153501000Y-92686000D02*
X153501000Y-90022000D01*
X153501000Y-97430000D02*
X153501000Y-94766000D01*
X153461000Y-92686000D02*
X153461000Y-90040000D01*
X153461000Y-97412000D02*
X153461000Y-94766000D01*
X153421000Y-92686000D02*
X153421000Y-90060000D01*
X153421000Y-97392000D02*
X153421000Y-94766000D01*
X153381000Y-92686000D02*
X153381000Y-90079000D01*
X153381000Y-97373000D02*
X153381000Y-94766000D01*
X153341000Y-92686000D02*
X153341000Y-90099000D01*
X153341000Y-97353000D02*
X153341000Y-94766000D01*
X153301000Y-92686000D02*
X153301000Y-90120000D01*
X153301000Y-97332000D02*
X153301000Y-94766000D01*
X153261000Y-92686000D02*
X153261000Y-90142000D01*
X153261000Y-97310000D02*
X153261000Y-94766000D01*
X153221000Y-92686000D02*
X153221000Y-90164000D01*
X153221000Y-97288000D02*
X153221000Y-94766000D01*
X153181000Y-92686000D02*
X153181000Y-90186000D01*
X153181000Y-97266000D02*
X153181000Y-94766000D01*
X153141000Y-92686000D02*
X153141000Y-90209000D01*
X153141000Y-97243000D02*
X153141000Y-94766000D01*
X153101000Y-92686000D02*
X153101000Y-90233000D01*
X153101000Y-97219000D02*
X153101000Y-94766000D01*
X153061000Y-92686000D02*
X153061000Y-90257000D01*
X153061000Y-97195000D02*
X153061000Y-94766000D01*
X153021000Y-92686000D02*
X153021000Y-90282000D01*
X153021000Y-97170000D02*
X153021000Y-94766000D01*
X152981000Y-92686000D02*
X152981000Y-90308000D01*
X152981000Y-97144000D02*
X152981000Y-94766000D01*
X152941000Y-92686000D02*
X152941000Y-90334000D01*
X152941000Y-97118000D02*
X152941000Y-94766000D01*
X152901000Y-92686000D02*
X152901000Y-90361000D01*
X152901000Y-97091000D02*
X152901000Y-94766000D01*
X152861000Y-92686000D02*
X152861000Y-90388000D01*
X152861000Y-97064000D02*
X152861000Y-94766000D01*
X152821000Y-92686000D02*
X152821000Y-90417000D01*
X152821000Y-97035000D02*
X152821000Y-94766000D01*
X152781000Y-92686000D02*
X152781000Y-90446000D01*
X152781000Y-97006000D02*
X152781000Y-94766000D01*
X152741000Y-92686000D02*
X152741000Y-90476000D01*
X152741000Y-96976000D02*
X152741000Y-94766000D01*
X152701000Y-92686000D02*
X152701000Y-90506000D01*
X152701000Y-96946000D02*
X152701000Y-94766000D01*
X152661000Y-92686000D02*
X152661000Y-90537000D01*
X152661000Y-96915000D02*
X152661000Y-94766000D01*
X152621000Y-92686000D02*
X152621000Y-90570000D01*
X152621000Y-96882000D02*
X152621000Y-94766000D01*
X152581000Y-92686000D02*
X152581000Y-90602000D01*
X152581000Y-96850000D02*
X152581000Y-94766000D01*
X152541000Y-92686000D02*
X152541000Y-90636000D01*
X152541000Y-96816000D02*
X152541000Y-94766000D01*
X152501000Y-92686000D02*
X152501000Y-90671000D01*
X152501000Y-96781000D02*
X152501000Y-94766000D01*
X152461000Y-92686000D02*
X152461000Y-90707000D01*
X152461000Y-96745000D02*
X152461000Y-94766000D01*
X152421000Y-96709000D02*
X152421000Y-90743000D01*
X152381000Y-96671000D02*
X152381000Y-90781000D01*
X152341000Y-96633000D02*
X152341000Y-90819000D01*
X152301000Y-96593000D02*
X152301000Y-90859000D01*
X152261000Y-96552000D02*
X152261000Y-90900000D01*
X152221000Y-96510000D02*
X152221000Y-90942000D01*
X152181000Y-96467000D02*
X152181000Y-90985000D01*
X152141000Y-96423000D02*
X152141000Y-91029000D01*
X152101000Y-96377000D02*
X152101000Y-91075000D01*
X152061000Y-96330000D02*
X152061000Y-91122000D01*
X152021000Y-96282000D02*
X152021000Y-91170000D01*
X151981000Y-96231000D02*
X151981000Y-91221000D01*
X151941000Y-96180000D02*
X151941000Y-91272000D01*
X151901000Y-96126000D02*
X151901000Y-91326000D01*
X151861000Y-96071000D02*
X151861000Y-91381000D01*
X151821000Y-96013000D02*
X151821000Y-91439000D01*
X151781000Y-95954000D02*
X151781000Y-91498000D01*
X151741000Y-95892000D02*
X151741000Y-91560000D01*
X151701000Y-95828000D02*
X151701000Y-91624000D01*
X151661000Y-95760000D02*
X151661000Y-91692000D01*
X151621000Y-95690000D02*
X151621000Y-91762000D01*
X151581000Y-95616000D02*
X151581000Y-91836000D01*
X151541000Y-95539000D02*
X151541000Y-91913000D01*
X151501000Y-95457000D02*
X151501000Y-91995000D01*
X151461000Y-95371000D02*
X151461000Y-92081000D01*
X151421000Y-95278000D02*
X151421000Y-92174000D01*
X151381000Y-95179000D02*
X151381000Y-92273000D01*
X151341000Y-95072000D02*
X151341000Y-92380000D01*
X151301000Y-94955000D02*
X151301000Y-92497000D01*
X151261000Y-94824000D02*
X151261000Y-92628000D01*
X151221000Y-94674000D02*
X151221000Y-92778000D01*
X151181000Y-94494000D02*
X151181000Y-92958000D01*
X151141000Y-94259000D02*
X151141000Y-93193000D01*
X159342000Y-93726000D02*
G75*
G02*
X151102000Y-93726000I-4120000J0D01*
G01*
X151102000Y-93726000D02*
G75*
G02*
X159342000Y-93726000I4120000J0D01*
G01*
X119386000Y-93852000D02*
X119386000Y-109592000D01*
X131810000Y-109592000D02*
X119386000Y-109592000D01*
X131810000Y-93852000D02*
X119386000Y-93852000D01*
X144266000Y-109592000D02*
X131842000Y-109592000D01*
X144266000Y-93852000D02*
X131842000Y-93852000D01*
X144266000Y-93852000D02*
X144266000Y-109592000D01*
D12*
X155574000Y-102108000D02*
G75*
G02*
X144574000Y-102108000I-5500000J0D01*
G01*
X144574000Y-102108000D02*
G75*
G02*
X155574000Y-102108000I5500000J0D01*
G01*
D10*
X150605000Y-90969491D02*
X150605000Y-92569491D01*
X149805000Y-91769491D02*
X151405000Y-91769491D01*
X137969000Y-83880000D02*
X154131000Y-83880000D01*
X137970000Y-83840000D02*
X154130000Y-83840000D01*
X137970000Y-83800000D02*
X154130000Y-83800000D01*
X137970000Y-83760000D02*
X154130000Y-83760000D01*
X137971000Y-83720000D02*
X154129000Y-83720000D01*
X137972000Y-83680000D02*
X154128000Y-83680000D01*
X137973000Y-83640000D02*
X154127000Y-83640000D01*
X137974000Y-83600000D02*
X154126000Y-83600000D01*
X137976000Y-83560000D02*
X154124000Y-83560000D01*
X137977000Y-83520000D02*
X154123000Y-83520000D01*
X137979000Y-83480000D02*
X154121000Y-83480000D01*
X137981000Y-83440000D02*
X154119000Y-83440000D01*
X137984000Y-83400000D02*
X154116000Y-83400000D01*
X137986000Y-83360000D02*
X154114000Y-83360000D01*
X137989000Y-83320000D02*
X154111000Y-83320000D01*
X137992000Y-83280000D02*
X154108000Y-83280000D01*
X137995000Y-83240000D02*
X154105000Y-83240000D01*
X137998000Y-83200000D02*
X154102000Y-83200000D01*
X138001000Y-83159000D02*
X154099000Y-83159000D01*
X138005000Y-83119000D02*
X154095000Y-83119000D01*
X138009000Y-83079000D02*
X154091000Y-83079000D01*
X138013000Y-83039000D02*
X154087000Y-83039000D01*
X138017000Y-82999000D02*
X154083000Y-82999000D01*
X138022000Y-82959000D02*
X154078000Y-82959000D01*
X138026000Y-82919000D02*
X154074000Y-82919000D01*
X138031000Y-82879000D02*
X154069000Y-82879000D01*
X138036000Y-82839000D02*
X154064000Y-82839000D01*
X138042000Y-82799000D02*
X154058000Y-82799000D01*
X138047000Y-82759000D02*
X154053000Y-82759000D01*
X138053000Y-82719000D02*
X154047000Y-82719000D01*
X138059000Y-82679000D02*
X154041000Y-82679000D01*
X138065000Y-82639000D02*
X154035000Y-82639000D01*
X138071000Y-82599000D02*
X154029000Y-82599000D01*
X138078000Y-82559000D02*
X154022000Y-82559000D01*
X138084000Y-82519000D02*
X154016000Y-82519000D01*
X138091000Y-82479000D02*
X154009000Y-82479000D01*
X138098000Y-82439000D02*
X154002000Y-82439000D01*
X138106000Y-82399000D02*
X153994000Y-82399000D01*
X138113000Y-82359000D02*
X153987000Y-82359000D01*
X138121000Y-82319000D02*
X153979000Y-82319000D01*
X138129000Y-82279000D02*
X153971000Y-82279000D01*
X138137000Y-82239000D02*
X153963000Y-82239000D01*
X138145000Y-82199000D02*
X153955000Y-82199000D01*
X138154000Y-82159000D02*
X153946000Y-82159000D01*
X138163000Y-82119000D02*
X153937000Y-82119000D01*
X138172000Y-82079000D02*
X153928000Y-82079000D01*
X138181000Y-82039000D02*
X153919000Y-82039000D01*
X138190000Y-81999000D02*
X153910000Y-81999000D01*
X138200000Y-81959000D02*
X153900000Y-81959000D01*
X138210000Y-81919000D02*
X153890000Y-81919000D01*
X138220000Y-81879000D02*
X153880000Y-81879000D01*
X138230000Y-81839000D02*
X153870000Y-81839000D01*
X138240000Y-81799000D02*
X153860000Y-81799000D01*
X138251000Y-81759000D02*
X153849000Y-81759000D01*
X138262000Y-81719000D02*
X153838000Y-81719000D01*
X138273000Y-81679000D02*
X153827000Y-81679000D01*
X138285000Y-81639000D02*
X153815000Y-81639000D01*
X138296000Y-81599000D02*
X153804000Y-81599000D01*
X147490000Y-81559000D02*
X153792000Y-81559000D01*
X138308000Y-81559000D02*
X144610000Y-81559000D01*
X147490000Y-81519000D02*
X153780000Y-81519000D01*
X138320000Y-81519000D02*
X144610000Y-81519000D01*
X147490000Y-81479000D02*
X153768000Y-81479000D01*
X138332000Y-81479000D02*
X144610000Y-81479000D01*
X147490000Y-81439000D02*
X153755000Y-81439000D01*
X138345000Y-81439000D02*
X144610000Y-81439000D01*
X147490000Y-81399000D02*
X153743000Y-81399000D01*
X138357000Y-81399000D02*
X144610000Y-81399000D01*
X147490000Y-81359000D02*
X153730000Y-81359000D01*
X138370000Y-81359000D02*
X144610000Y-81359000D01*
X147490000Y-81319000D02*
X153716000Y-81319000D01*
X138384000Y-81319000D02*
X144610000Y-81319000D01*
X147490000Y-81279000D02*
X153703000Y-81279000D01*
X138397000Y-81279000D02*
X144610000Y-81279000D01*
X147490000Y-81239000D02*
X153689000Y-81239000D01*
X138411000Y-81239000D02*
X144610000Y-81239000D01*
X147490000Y-81199000D02*
X153675000Y-81199000D01*
X138425000Y-81199000D02*
X144610000Y-81199000D01*
X147490000Y-81159000D02*
X153661000Y-81159000D01*
X138439000Y-81159000D02*
X144610000Y-81159000D01*
X147490000Y-81119000D02*
X153647000Y-81119000D01*
X138453000Y-81119000D02*
X144610000Y-81119000D01*
X147490000Y-81079000D02*
X153632000Y-81079000D01*
X138468000Y-81079000D02*
X144610000Y-81079000D01*
X147490000Y-81039000D02*
X153618000Y-81039000D01*
X138482000Y-81039000D02*
X144610000Y-81039000D01*
X147490000Y-80999000D02*
X153603000Y-80999000D01*
X138497000Y-80999000D02*
X144610000Y-80999000D01*
X147490000Y-80959000D02*
X153587000Y-80959000D01*
X138513000Y-80959000D02*
X144610000Y-80959000D01*
X147490000Y-80919000D02*
X153572000Y-80919000D01*
X138528000Y-80919000D02*
X144610000Y-80919000D01*
X147490000Y-80879000D02*
X153556000Y-80879000D01*
X138544000Y-80879000D02*
X144610000Y-80879000D01*
X147490000Y-80839000D02*
X153540000Y-80839000D01*
X138560000Y-80839000D02*
X144610000Y-80839000D01*
X147490000Y-80799000D02*
X153524000Y-80799000D01*
X138576000Y-80799000D02*
X144610000Y-80799000D01*
X147490000Y-80759000D02*
X153507000Y-80759000D01*
X138593000Y-80759000D02*
X144610000Y-80759000D01*
X147490000Y-80719000D02*
X153490000Y-80719000D01*
X138610000Y-80719000D02*
X144610000Y-80719000D01*
X147490000Y-80679000D02*
X153473000Y-80679000D01*
X138627000Y-80679000D02*
X144610000Y-80679000D01*
X147490000Y-80639000D02*
X153456000Y-80639000D01*
X138644000Y-80639000D02*
X144610000Y-80639000D01*
X147490000Y-80599000D02*
X153439000Y-80599000D01*
X138661000Y-80599000D02*
X144610000Y-80599000D01*
X147490000Y-80559000D02*
X153421000Y-80559000D01*
X138679000Y-80559000D02*
X144610000Y-80559000D01*
X147490000Y-80519000D02*
X153403000Y-80519000D01*
X138697000Y-80519000D02*
X144610000Y-80519000D01*
X147490000Y-80479000D02*
X153384000Y-80479000D01*
X138716000Y-80479000D02*
X144610000Y-80479000D01*
X147490000Y-80439000D02*
X153366000Y-80439000D01*
X138734000Y-80439000D02*
X144610000Y-80439000D01*
X147490000Y-80399000D02*
X153347000Y-80399000D01*
X138753000Y-80399000D02*
X144610000Y-80399000D01*
X147490000Y-80359000D02*
X153328000Y-80359000D01*
X138772000Y-80359000D02*
X144610000Y-80359000D01*
X147490000Y-80319000D02*
X153308000Y-80319000D01*
X138792000Y-80319000D02*
X144610000Y-80319000D01*
X147490000Y-80279000D02*
X153289000Y-80279000D01*
X138811000Y-80279000D02*
X144610000Y-80279000D01*
X147490000Y-80239000D02*
X153269000Y-80239000D01*
X138831000Y-80239000D02*
X144610000Y-80239000D01*
X147490000Y-80199000D02*
X153249000Y-80199000D01*
X138851000Y-80199000D02*
X144610000Y-80199000D01*
X147490000Y-80159000D02*
X153228000Y-80159000D01*
X138872000Y-80159000D02*
X144610000Y-80159000D01*
X147490000Y-80119000D02*
X153207000Y-80119000D01*
X138893000Y-80119000D02*
X144610000Y-80119000D01*
X147490000Y-80079000D02*
X153186000Y-80079000D01*
X138914000Y-80079000D02*
X144610000Y-80079000D01*
X147490000Y-80039000D02*
X153165000Y-80039000D01*
X138935000Y-80039000D02*
X144610000Y-80039000D01*
X147490000Y-79999000D02*
X153144000Y-79999000D01*
X138956000Y-79999000D02*
X144610000Y-79999000D01*
X147490000Y-79959000D02*
X153122000Y-79959000D01*
X138978000Y-79959000D02*
X144610000Y-79959000D01*
X147490000Y-79919000D02*
X153099000Y-79919000D01*
X139001000Y-79919000D02*
X144610000Y-79919000D01*
X147490000Y-79879000D02*
X153077000Y-79879000D01*
X139023000Y-79879000D02*
X144610000Y-79879000D01*
X147490000Y-79839000D02*
X153054000Y-79839000D01*
X139046000Y-79839000D02*
X144610000Y-79839000D01*
X147490000Y-79799000D02*
X153031000Y-79799000D01*
X139069000Y-79799000D02*
X144610000Y-79799000D01*
X147490000Y-79759000D02*
X153008000Y-79759000D01*
X139092000Y-79759000D02*
X144610000Y-79759000D01*
X147490000Y-79719000D02*
X152984000Y-79719000D01*
X139116000Y-79719000D02*
X144610000Y-79719000D01*
X147490000Y-79679000D02*
X152960000Y-79679000D01*
X139140000Y-79679000D02*
X144610000Y-79679000D01*
X147490000Y-79639000D02*
X152936000Y-79639000D01*
X139164000Y-79639000D02*
X144610000Y-79639000D01*
X147490000Y-79599000D02*
X152911000Y-79599000D01*
X139189000Y-79599000D02*
X144610000Y-79599000D01*
X147490000Y-79559000D02*
X152886000Y-79559000D01*
X139214000Y-79559000D02*
X144610000Y-79559000D01*
X147490000Y-79519000D02*
X152861000Y-79519000D01*
X139239000Y-79519000D02*
X144610000Y-79519000D01*
X147490000Y-79479000D02*
X152835000Y-79479000D01*
X139265000Y-79479000D02*
X144610000Y-79479000D01*
X147490000Y-79439000D02*
X152809000Y-79439000D01*
X139291000Y-79439000D02*
X144610000Y-79439000D01*
X147490000Y-79399000D02*
X152783000Y-79399000D01*
X139317000Y-79399000D02*
X144610000Y-79399000D01*
X147490000Y-79359000D02*
X152756000Y-79359000D01*
X139344000Y-79359000D02*
X144610000Y-79359000D01*
X147490000Y-79319000D02*
X152729000Y-79319000D01*
X139371000Y-79319000D02*
X144610000Y-79319000D01*
X147490000Y-79279000D02*
X152702000Y-79279000D01*
X139398000Y-79279000D02*
X144610000Y-79279000D01*
X147490000Y-79239000D02*
X152674000Y-79239000D01*
X139426000Y-79239000D02*
X144610000Y-79239000D01*
X147490000Y-79199000D02*
X152646000Y-79199000D01*
X139454000Y-79199000D02*
X144610000Y-79199000D01*
X147490000Y-79159000D02*
X152618000Y-79159000D01*
X139482000Y-79159000D02*
X144610000Y-79159000D01*
X147490000Y-79119000D02*
X152589000Y-79119000D01*
X139511000Y-79119000D02*
X144610000Y-79119000D01*
X147490000Y-79079000D02*
X152560000Y-79079000D01*
X139540000Y-79079000D02*
X144610000Y-79079000D01*
X147490000Y-79039000D02*
X152530000Y-79039000D01*
X139570000Y-79039000D02*
X144610000Y-79039000D01*
X147490000Y-78999000D02*
X152500000Y-78999000D01*
X139600000Y-78999000D02*
X144610000Y-78999000D01*
X147490000Y-78959000D02*
X152470000Y-78959000D01*
X139630000Y-78959000D02*
X144610000Y-78959000D01*
X147490000Y-78919000D02*
X152440000Y-78919000D01*
X139660000Y-78919000D02*
X144610000Y-78919000D01*
X147490000Y-78879000D02*
X152408000Y-78879000D01*
X139692000Y-78879000D02*
X144610000Y-78879000D01*
X147490000Y-78839000D02*
X152377000Y-78839000D01*
X139723000Y-78839000D02*
X144610000Y-78839000D01*
X147490000Y-78799000D02*
X152345000Y-78799000D01*
X139755000Y-78799000D02*
X144610000Y-78799000D01*
X147490000Y-78759000D02*
X152313000Y-78759000D01*
X139787000Y-78759000D02*
X144610000Y-78759000D01*
X147490000Y-78719000D02*
X152280000Y-78719000D01*
X139820000Y-78719000D02*
X144610000Y-78719000D01*
X139853000Y-78679000D02*
X152247000Y-78679000D01*
X139887000Y-78639000D02*
X152213000Y-78639000D01*
X139921000Y-78599000D02*
X152179000Y-78599000D01*
X139955000Y-78559000D02*
X152145000Y-78559000D01*
X139990000Y-78519000D02*
X152110000Y-78519000D01*
X140025000Y-78479000D02*
X152075000Y-78479000D01*
X140061000Y-78439000D02*
X152039000Y-78439000D01*
X140098000Y-78399000D02*
X152002000Y-78399000D01*
X140134000Y-78359000D02*
X151966000Y-78359000D01*
X140172000Y-78319000D02*
X151928000Y-78319000D01*
X140210000Y-78279000D02*
X151890000Y-78279000D01*
X140248000Y-78239000D02*
X151852000Y-78239000D01*
X140287000Y-78199000D02*
X151813000Y-78199000D01*
X140326000Y-78159000D02*
X151774000Y-78159000D01*
X140366000Y-78119000D02*
X151734000Y-78119000D01*
X140407000Y-78079000D02*
X151693000Y-78079000D01*
X140448000Y-78039000D02*
X151652000Y-78039000D01*
X140490000Y-77999000D02*
X151610000Y-77999000D01*
X140532000Y-77959000D02*
X151568000Y-77959000D01*
X140575000Y-77919000D02*
X151525000Y-77919000D01*
X140618000Y-77879000D02*
X151482000Y-77879000D01*
X140662000Y-77839000D02*
X151438000Y-77839000D01*
X140707000Y-77799000D02*
X151393000Y-77799000D01*
X140753000Y-77759000D02*
X151347000Y-77759000D01*
X140799000Y-77719000D02*
X151301000Y-77719000D01*
X140846000Y-77679000D02*
X151254000Y-77679000D01*
X140894000Y-77639000D02*
X151206000Y-77639000D01*
X140942000Y-77599000D02*
X151158000Y-77599000D01*
X140991000Y-77559000D02*
X151109000Y-77559000D01*
X141041000Y-77519000D02*
X151059000Y-77519000D01*
X141092000Y-77479000D02*
X151008000Y-77479000D01*
X141144000Y-77439000D02*
X150956000Y-77439000D01*
X141196000Y-77399000D02*
X150904000Y-77399000D01*
X141250000Y-77359000D02*
X150850000Y-77359000D01*
X141304000Y-77319000D02*
X150796000Y-77319000D01*
X141359000Y-77279000D02*
X150741000Y-77279000D01*
X141416000Y-77239000D02*
X150684000Y-77239000D01*
X141473000Y-77199000D02*
X150627000Y-77199000D01*
X141531000Y-77159000D02*
X150569000Y-77159000D01*
X141591000Y-77119000D02*
X150509000Y-77119000D01*
X141652000Y-77079000D02*
X150448000Y-77079000D01*
X141714000Y-77039000D02*
X150386000Y-77039000D01*
X141777000Y-76999000D02*
X150323000Y-76999000D01*
X141841000Y-76959000D02*
X150259000Y-76959000D01*
X141907000Y-76919000D02*
X150193000Y-76919000D01*
X141974000Y-76879000D02*
X150126000Y-76879000D01*
X142043000Y-76839000D02*
X150057000Y-76839000D01*
X142114000Y-76799000D02*
X149986000Y-76799000D01*
X142186000Y-76759000D02*
X149914000Y-76759000D01*
X142260000Y-76719000D02*
X149840000Y-76719000D01*
X142335000Y-76679000D02*
X149765000Y-76679000D01*
X142413000Y-76639000D02*
X149687000Y-76639000D01*
X142493000Y-76599000D02*
X149607000Y-76599000D01*
X142575000Y-76559000D02*
X149525000Y-76559000D01*
X142660000Y-76519000D02*
X149440000Y-76519000D01*
X142747000Y-76479000D02*
X149353000Y-76479000D01*
X142837000Y-76439000D02*
X149263000Y-76439000D01*
X142930000Y-76399000D02*
X149170000Y-76399000D01*
X143026000Y-76359000D02*
X149074000Y-76359000D01*
X143126000Y-76319000D02*
X148974000Y-76319000D01*
X143230000Y-76279000D02*
X148870000Y-76279000D01*
X143339000Y-76239000D02*
X148761000Y-76239000D01*
X143453000Y-76199000D02*
X148647000Y-76199000D01*
X143572000Y-76159000D02*
X148528000Y-76159000D01*
X143699000Y-76119000D02*
X148401000Y-76119000D01*
X143832000Y-76079000D02*
X148268000Y-76079000D01*
X143976000Y-76039000D02*
X148124000Y-76039000D01*
X144130000Y-75999000D02*
X147970000Y-75999000D01*
X144298000Y-75959000D02*
X147802000Y-75959000D01*
X144486000Y-75919000D02*
X147614000Y-75919000D01*
X144699000Y-75879000D02*
X147401000Y-75879000D01*
X144952000Y-75839000D02*
X147148000Y-75839000D01*
X145285000Y-75799000D02*
X146815000Y-75799000D01*
X154170000Y-83880000D02*
G75*
G02*
X137930000Y-83880000I-8120000J0D01*
G01*
X137930000Y-83880000D02*
G75*
G02*
X154170000Y-83880000I8120000J0D01*
G01*
X158342000Y-81058000D02*
X158342000Y-87598000D01*
X158342000Y-87598000D02*
X158012000Y-87598000D01*
X155602000Y-87598000D02*
X155932000Y-87598000D01*
X155602000Y-81058000D02*
X155602000Y-87598000D01*
X158012000Y-81058000D02*
X158342000Y-81058000D01*
X155932000Y-81058000D02*
X155602000Y-81058000D01*
X110531000Y-99081000D02*
X110531000Y-94440000D01*
X100290000Y-94440000D02*
X110531000Y-94440000D01*
X100290000Y-95949000D02*
X110531000Y-95949000D01*
X109860000Y-99081000D02*
X110531000Y-99081000D01*
X106475000Y-99081000D02*
X107760000Y-99081000D01*
X107260000Y-95949000D02*
X107260000Y-94440000D01*
X107110000Y-101695000D02*
X107110000Y-99081000D01*
X103075000Y-99081000D02*
X104345000Y-99081000D01*
X103710000Y-101695000D02*
X103710000Y-99081000D01*
X103560000Y-95949000D02*
X103560000Y-94440000D01*
X100290000Y-99081000D02*
X100945000Y-99081000D01*
X100290000Y-99081000D02*
X100290000Y-94440000D01*
X158052000Y-78522000D02*
X158208000Y-78522000D01*
X155736000Y-78522000D02*
X155892000Y-78522000D01*
X158050608Y-75289665D02*
G75*
G02*
X158207516Y-78522000I-1078608J-1672335D01*
G01*
X158051837Y-75920870D02*
G75*
G02*
X158052000Y-78002961I-1079837J-1041130D01*
G01*
X155892000Y-78002961D02*
G75*
G02*
X155892163Y-75920870I1080000J1040961D01*
G01*
X155736484Y-78522000D02*
G75*
G02*
X155893392Y-75289665I1235516J1560000D01*
G01*
X105874000Y-104214000D02*
X115614000Y-104214000D01*
X115614000Y-104214000D02*
X115614000Y-105094000D01*
X115614000Y-109654000D02*
X115614000Y-108774000D01*
X105874000Y-109654000D02*
X115614000Y-109654000D01*
X114189000Y-109654000D02*
X114189000Y-104214000D01*
X114069000Y-109654000D02*
X114069000Y-104214000D01*
X113949000Y-109654000D02*
X113949000Y-104214000D01*
X105874000Y-105094000D02*
X105874000Y-104214000D01*
X105874000Y-108774000D02*
X105874000Y-109654000D01*
X91260000Y-87420000D02*
X91260000Y-77680000D01*
X91260000Y-77680000D02*
X92140000Y-77680000D01*
X96700000Y-77680000D02*
X95820000Y-77680000D01*
X96700000Y-87420000D02*
X96700000Y-77680000D01*
X96700000Y-79105000D02*
X91260000Y-79105000D01*
X96700000Y-79225000D02*
X91260000Y-79225000D01*
X96700000Y-79345000D02*
X91260000Y-79345000D01*
X92140000Y-87420000D02*
X91260000Y-87420000D01*
X95820000Y-87420000D02*
X96700000Y-87420000D01*
X108130000Y-77680000D02*
X108130000Y-87420000D01*
X108130000Y-87420000D02*
X107250000Y-87420000D01*
X102690000Y-87420000D02*
X103570000Y-87420000D01*
X102690000Y-77680000D02*
X102690000Y-87420000D01*
X102690000Y-85995000D02*
X108130000Y-85995000D01*
X102690000Y-85875000D02*
X108130000Y-85875000D01*
X102690000Y-85755000D02*
X108130000Y-85755000D01*
X107250000Y-77680000D02*
X108130000Y-77680000D01*
X103570000Y-77680000D02*
X102690000Y-77680000D01*
M02*
