M48
; DRILL file {KiCad 8.0.6} date 2026-03-15T19:50:12+0200
; FORMAT={-:-/ absolute / inch / decimal}
; #@! TF.CreationDate,2026-03-15T19:50:12+02:00
; #@! TF.GenerationSoftware,Kicad,Pcbnew,8.0.6
; #@! TF.FileFunction,Plated,1,2,PTH
FMAT,2
INCH
; #@! TA.AperFunction,Plated,PTH,ComponentDrill
T1C0.0315
; #@! TA.AperFunction,Plated,PTH,ComponentDrill
T2C0.0354
; #@! TA.AperFunction,Plated,PTH,ComponentDrill
T3C0.0394
; #@! TA.AperFunction,Plated,PTH,ComponentDrill
T4C0.0433
; #@! TA.AperFunction,Plated,PTH,ComponentDrill
T5C0.0472
; #@! TA.AperFunction,Plated,PTH,ComponentDrill
T6C0.0630
; #@! TA.AperFunction,Plated,PTH,ComponentDrill
T7C0.0709
; #@! TA.AperFunction,Plated,PTH,ComponentDrill
T8C0.0827
%
G90
G05
T1
X4.5Y-3.85
X4.5Y-4.15
X4.62Y-3.85
X4.62Y-4.15
X4.725Y-3.45
X4.725Y-3.5484
X5.3266Y-3.525
X5.425Y-3.525
X6.025Y-3.6872
X6.025Y-3.825
X6.175Y-3.25
X6.175Y-3.55
X6.18Y-3.925
X6.18Y-4.0234
T2
X6.15Y-3.05
X6.15Y-3.15
T3
X5.8281Y-4.15
X6.025Y-4.15
T4
X4.0161Y-3.9
X4.0831Y-4.0457
X4.15Y-3.9
X4.2169Y-4.0457
X4.2839Y-3.9
T5
X5.05Y-3.1299
X5.05Y-3.4252
X5.7Y-3.1299
X5.7Y-3.4252
T6
X3.75Y-3.0
X3.75Y-3.5
X3.95Y-3.0
X3.95Y-3.5
X4.15Y-3.0
X4.15Y-3.5
X4.35Y-3.0
X4.35Y-3.5
X4.55Y-3.0
X4.55Y-3.5
T7
X5.2Y-3.8
X5.2Y-4.2504
T8
X4.0945Y-2.4705
X4.4094Y-2.4705
X5.5906Y-2.4705
X5.9055Y-2.4705
M30
