G04 #@! TF.GenerationSoftware,KiCad,Pcbnew,(5.1.5)-3*
G04 #@! TF.CreationDate,2020-11-24T14:20:47+02:00*
G04 #@! TF.ProjectId,c64-wedge-psu-pcb,6336342d-7765-4646-9765-2d7073752d70,rev?*
G04 #@! TF.SameCoordinates,Original*
G04 #@! TF.FileFunction,Copper,L1,Top*
G04 #@! TF.FilePolarity,Positive*
%FSLAX46Y46*%
G04 Gerber Fmt 4.6, Leading zero omitted, Abs format (unit mm)*
G04 Created by KiCad (PCBNEW (5.1.5)-3) date 2020-11-24 14:20:47*
%MOMM*%
%LPD*%
G04 APERTURE LIST*
%ADD10O,1.600000X1.600000*%
%ADD11C,1.600000*%
%ADD12O,1.800000X1.800000*%
%ADD13R,1.800000X1.800000*%
%ADD14C,2.400000*%
%ADD15R,2.400000X2.400000*%
%ADD16C,3.000000*%
%ADD17R,1.600000X1.600000*%
%ADD18O,3.200000X3.200000*%
%ADD19R,3.200000X3.200000*%
%ADD20C,3.600000*%
%ADD21R,1.700000X1.700000*%
%ADD22O,1.700000X1.700000*%
%ADD23C,2.600000*%
%ADD24R,2.600000X2.600000*%
%ADD25C,4.500880*%
%ADD26C,1.800000*%
G04 APERTURE END LIST*
D10*
X112500000Y-110290000D03*
D11*
X112500000Y-107750000D03*
D10*
X151500000Y-79250000D03*
D11*
X151500000Y-76710000D03*
D10*
X116300000Y-110290000D03*
D11*
X116300000Y-107750000D03*
D12*
X112500000Y-104150000D03*
X116300000Y-102450000D03*
X112500000Y-100750000D03*
X116300000Y-99050000D03*
D13*
X112500000Y-97350000D03*
D14*
X141000000Y-79500000D03*
D15*
X141000000Y-87000000D03*
D14*
X115500000Y-79500000D03*
D15*
X115500000Y-87000000D03*
D16*
X156120000Y-101000000D03*
X148500000Y-101000000D03*
D11*
X153000000Y-86500000D03*
D17*
X153000000Y-90000000D03*
D18*
X127000000Y-77300000D03*
D19*
X127000000Y-90000000D03*
D20*
X132000000Y-95000000D03*
X132000000Y-106440000D03*
D21*
X155000000Y-79250000D03*
D22*
X155000000Y-81790000D03*
D23*
X93500000Y-77600000D03*
D24*
X93500000Y-88000000D03*
D23*
X103900000Y-88000000D03*
X103900000Y-77600000D03*
D25*
X150000000Y-63000000D03*
X142000000Y-63000000D03*
X112000000Y-63000000D03*
X104000000Y-63000000D03*
D26*
X93500000Y-90700000D02*
X95800000Y-93000000D01*
X93500000Y-88000000D02*
X93500000Y-90700000D01*
X95800000Y-93000000D02*
X107000000Y-93000000D01*
X107000000Y-93000000D02*
X112000000Y-88000000D01*
X112900000Y-87000000D02*
X115500000Y-87000000D01*
X112000000Y-88000000D02*
X112000000Y-87900000D01*
X112000000Y-87900000D02*
X112900000Y-87000000D01*
X112500000Y-92600000D02*
X112500000Y-97350000D01*
X115500000Y-87000000D02*
X115500000Y-89600000D01*
X115500000Y-89600000D02*
X112500000Y-92600000D01*
X146000000Y-92000000D02*
X141000000Y-87000000D01*
X132500000Y-106440000D02*
X132500000Y-106500000D01*
X116300000Y-110290000D02*
X112500000Y-110290000D01*
X116300000Y-110290000D02*
X131500000Y-110250000D01*
X131500000Y-110250000D02*
X133500000Y-110250000D01*
X146000000Y-109000000D02*
X146000000Y-102000000D01*
X146000000Y-102000000D02*
X147000000Y-101000000D01*
X133500000Y-110250000D02*
X144710000Y-110290000D01*
X144710000Y-110290000D02*
X146000000Y-109000000D01*
X147000000Y-101000000D02*
X146000000Y-100000000D01*
X146000000Y-92000000D02*
X146000000Y-100000000D01*
X146000000Y-100000000D02*
X146000000Y-102000000D01*
X148500000Y-101000000D02*
X147000000Y-101000000D01*
X132000000Y-92454416D02*
X137454416Y-87000000D01*
X132000000Y-95000000D02*
X132000000Y-92454416D01*
X137454416Y-87000000D02*
X141000000Y-87000000D01*
X93500000Y-73500000D02*
X93500000Y-77600000D01*
X104000000Y-63000000D02*
X93500000Y-73500000D01*
X99000000Y-83100000D02*
X103900000Y-88000000D01*
X99000000Y-75000000D02*
X99000000Y-83100000D01*
X112000000Y-63000000D02*
X112000000Y-67000000D01*
X112000000Y-67000000D02*
X109000000Y-70000000D01*
X104000000Y-70000000D02*
X99000000Y-75000000D01*
X109000000Y-70000000D02*
X104000000Y-70000000D01*
X116300000Y-99050000D02*
X116300000Y-95200000D01*
X116300000Y-95200000D02*
X121500000Y-90000000D01*
X121500000Y-90000000D02*
X127000000Y-90000000D01*
X127000000Y-101440000D02*
X132000000Y-106440000D01*
X127000000Y-90000000D02*
X127000000Y-101440000D01*
X142000000Y-63000000D02*
X143000000Y-63000000D01*
X156120000Y-101000000D02*
X156636000Y-101000000D01*
X156120000Y-101000000D02*
X158000000Y-99120000D01*
X149000000Y-70000000D02*
X142000000Y-63000000D01*
X152000000Y-70000000D02*
X149000000Y-70000000D01*
X158000000Y-76000000D02*
X152000000Y-70000000D01*
X155800000Y-90000000D02*
X157800000Y-92000000D01*
X157800000Y-92000000D02*
X158000000Y-92000000D01*
X153000000Y-90000000D02*
X155800000Y-90000000D01*
X158000000Y-99120000D02*
X158000000Y-92000000D01*
X158000000Y-87800000D02*
X158000000Y-87750000D01*
X155800000Y-90000000D02*
X158000000Y-87800000D01*
X158000000Y-92000000D02*
X158000000Y-87750000D01*
X158000000Y-87750000D02*
X158000000Y-76000000D01*
X157910001Y-75910001D02*
X158000000Y-76000000D01*
X151500000Y-76710000D02*
X152299999Y-75910001D01*
X152299999Y-75910001D02*
X157910001Y-75910001D01*
X151500000Y-79250000D02*
X155000000Y-79250000D01*
X116300000Y-107639982D02*
X116299710Y-107639982D01*
X116300000Y-102450000D02*
X116300000Y-107639982D01*
M02*
