M48
; DRILL file {KiCad (5.1.5)-3} date 21.11.2020 12:26:25
; FORMAT={-:-/ absolute / metric / decimal}
; #@! TF.CreationDate,2020-11-21T12:26:25+02:00
; #@! TF.GenerationSoftware,Kicad,Pcbnew,(5.1.5)-3
FMAT,2
METRIC
T1C0.800
T2C1.000
T3C1.100
T4C1.200
T5C1.300
T6C1.500
T7C1.600
T8C1.800
T9C1.999
T10C3.500
%
G90
G05
T1
X153.0Y-86.75
X156.5Y-86.75
X149.38Y-76.5
X157.0Y-76.5
T2
X152.0Y-80.5
X154.54Y-80.5
T3
X112.5Y-97.35
X112.5Y-100.75
X112.5Y-104.15
X116.3Y-99.05
X116.3Y-102.45
T4
X127.42Y-111.0
X132.5Y-111.0
X115.5Y-79.5
X115.5Y-87.0
X141.0Y-79.5
X141.0Y-87.0
T5
X93.5Y-77.6
X93.5Y-88.0
X103.9Y-77.6
X103.9Y-88.0
T6
X148.5Y-101.0
X156.12Y-101.0
T7
X128.5Y-76.8
X128.5Y-89.5
T8
X132.5Y-95.0
X132.5Y-106.44
T9
X142.0Y-63.0
X104.0Y-63.0
X150.0Y-63.0
X112.0Y-63.0
T10
X96.32Y-100.75
T0
M30
