G04 #@! TF.GenerationSoftware,KiCad,Pcbnew,8.0.6*
G04 #@! TF.CreationDate,2026-04-20T23:57:07+03:00*
G04 #@! TF.ProjectId,c64-wedge-psu-pcb,6336342d-7765-4646-9765-2d7073752d70,rev?*
G04 #@! TF.SameCoordinates,Original*
G04 #@! TF.FileFunction,Legend,Top*
G04 #@! TF.FilePolarity,Positive*
%FSLAX46Y46*%
G04 Gerber Fmt 4.6, Leading zero omitted, Abs format (unit mm)*
G04 Created by KiCad (PCBNEW 8.0.6) date 2026-04-20 23:57:07*
%MOMM*%
%LPD*%
G01*
G04 APERTURE LIST*
%ADD10C,0.150000*%
%ADD11C,0.300000*%
%ADD12C,0.125000*%
%ADD13C,0.120000*%
%ADD14C,0.000000*%
G04 APERTURE END LIST*
D10*
X149238095Y-65502438D02*
X149142857Y-65454819D01*
X149142857Y-65454819D02*
X149000000Y-65454819D01*
X149000000Y-65454819D02*
X148857143Y-65502438D01*
X148857143Y-65502438D02*
X148761905Y-65597676D01*
X148761905Y-65597676D02*
X148714286Y-65692914D01*
X148714286Y-65692914D02*
X148666667Y-65883390D01*
X148666667Y-65883390D02*
X148666667Y-66026247D01*
X148666667Y-66026247D02*
X148714286Y-66216723D01*
X148714286Y-66216723D02*
X148761905Y-66311961D01*
X148761905Y-66311961D02*
X148857143Y-66407200D01*
X148857143Y-66407200D02*
X149000000Y-66454819D01*
X149000000Y-66454819D02*
X149095238Y-66454819D01*
X149095238Y-66454819D02*
X149238095Y-66407200D01*
X149238095Y-66407200D02*
X149285714Y-66359580D01*
X149285714Y-66359580D02*
X149285714Y-66026247D01*
X149285714Y-66026247D02*
X149095238Y-66026247D01*
X149714286Y-66454819D02*
X149714286Y-65454819D01*
X149714286Y-65454819D02*
X150285714Y-66454819D01*
X150285714Y-66454819D02*
X150285714Y-65454819D01*
X150761905Y-66454819D02*
X150761905Y-65454819D01*
X150761905Y-65454819D02*
X151000000Y-65454819D01*
X151000000Y-65454819D02*
X151142857Y-65502438D01*
X151142857Y-65502438D02*
X151238095Y-65597676D01*
X151238095Y-65597676D02*
X151285714Y-65692914D01*
X151285714Y-65692914D02*
X151333333Y-65883390D01*
X151333333Y-65883390D02*
X151333333Y-66026247D01*
X151333333Y-66026247D02*
X151285714Y-66216723D01*
X151285714Y-66216723D02*
X151238095Y-66311961D01*
X151238095Y-66311961D02*
X151142857Y-66407200D01*
X151142857Y-66407200D02*
X151000000Y-66454819D01*
X151000000Y-66454819D02*
X150761905Y-66454819D01*
X111968285Y-112310152D02*
X111968285Y-113119676D01*
X111968285Y-113119676D02*
X111920666Y-113214914D01*
X111920666Y-113214914D02*
X111873047Y-113262533D01*
X111873047Y-113262533D02*
X111777809Y-113310152D01*
X111777809Y-113310152D02*
X111634952Y-113310152D01*
X111634952Y-113310152D02*
X111539714Y-113262533D01*
X111968285Y-112929200D02*
X111873047Y-112976819D01*
X111873047Y-112976819D02*
X111682571Y-112976819D01*
X111682571Y-112976819D02*
X111587333Y-112929200D01*
X111587333Y-112929200D02*
X111539714Y-112881580D01*
X111539714Y-112881580D02*
X111492095Y-112786342D01*
X111492095Y-112786342D02*
X111492095Y-112500628D01*
X111492095Y-112500628D02*
X111539714Y-112405390D01*
X111539714Y-112405390D02*
X111587333Y-112357771D01*
X111587333Y-112357771D02*
X111682571Y-112310152D01*
X111682571Y-112310152D02*
X111873047Y-112310152D01*
X111873047Y-112310152D02*
X111968285Y-112357771D01*
X112444476Y-112976819D02*
X112444476Y-112310152D01*
X112444476Y-111976819D02*
X112396857Y-112024438D01*
X112396857Y-112024438D02*
X112444476Y-112072057D01*
X112444476Y-112072057D02*
X112492095Y-112024438D01*
X112492095Y-112024438D02*
X112444476Y-111976819D01*
X112444476Y-111976819D02*
X112444476Y-112072057D01*
X112777809Y-112310152D02*
X113158761Y-112310152D01*
X112920666Y-111976819D02*
X112920666Y-112833961D01*
X112920666Y-112833961D02*
X112968285Y-112929200D01*
X112968285Y-112929200D02*
X113063523Y-112976819D01*
X113063523Y-112976819D02*
X113158761Y-112976819D01*
X113492095Y-112976819D02*
X113492095Y-111976819D01*
X113920666Y-112976819D02*
X113920666Y-112453009D01*
X113920666Y-112453009D02*
X113873047Y-112357771D01*
X113873047Y-112357771D02*
X113777809Y-112310152D01*
X113777809Y-112310152D02*
X113634952Y-112310152D01*
X113634952Y-112310152D02*
X113539714Y-112357771D01*
X113539714Y-112357771D02*
X113492095Y-112405390D01*
X114825428Y-112310152D02*
X114825428Y-112976819D01*
X114396857Y-112310152D02*
X114396857Y-112833961D01*
X114396857Y-112833961D02*
X114444476Y-112929200D01*
X114444476Y-112929200D02*
X114539714Y-112976819D01*
X114539714Y-112976819D02*
X114682571Y-112976819D01*
X114682571Y-112976819D02*
X114777809Y-112929200D01*
X114777809Y-112929200D02*
X114825428Y-112881580D01*
X115301619Y-112976819D02*
X115301619Y-111976819D01*
X115301619Y-112357771D02*
X115396857Y-112310152D01*
X115396857Y-112310152D02*
X115587333Y-112310152D01*
X115587333Y-112310152D02*
X115682571Y-112357771D01*
X115682571Y-112357771D02*
X115730190Y-112405390D01*
X115730190Y-112405390D02*
X115777809Y-112500628D01*
X115777809Y-112500628D02*
X115777809Y-112786342D01*
X115777809Y-112786342D02*
X115730190Y-112881580D01*
X115730190Y-112881580D02*
X115682571Y-112929200D01*
X115682571Y-112929200D02*
X115587333Y-112976819D01*
X115587333Y-112976819D02*
X115396857Y-112976819D01*
X115396857Y-112976819D02*
X115301619Y-112929200D01*
X116206381Y-112881580D02*
X116254000Y-112929200D01*
X116254000Y-112929200D02*
X116206381Y-112976819D01*
X116206381Y-112976819D02*
X116158762Y-112929200D01*
X116158762Y-112929200D02*
X116206381Y-112881580D01*
X116206381Y-112881580D02*
X116206381Y-112976819D01*
X117111142Y-112929200D02*
X117015904Y-112976819D01*
X117015904Y-112976819D02*
X116825428Y-112976819D01*
X116825428Y-112976819D02*
X116730190Y-112929200D01*
X116730190Y-112929200D02*
X116682571Y-112881580D01*
X116682571Y-112881580D02*
X116634952Y-112786342D01*
X116634952Y-112786342D02*
X116634952Y-112500628D01*
X116634952Y-112500628D02*
X116682571Y-112405390D01*
X116682571Y-112405390D02*
X116730190Y-112357771D01*
X116730190Y-112357771D02*
X116825428Y-112310152D01*
X116825428Y-112310152D02*
X117015904Y-112310152D01*
X117015904Y-112310152D02*
X117111142Y-112357771D01*
X117682571Y-112976819D02*
X117587333Y-112929200D01*
X117587333Y-112929200D02*
X117539714Y-112881580D01*
X117539714Y-112881580D02*
X117492095Y-112786342D01*
X117492095Y-112786342D02*
X117492095Y-112500628D01*
X117492095Y-112500628D02*
X117539714Y-112405390D01*
X117539714Y-112405390D02*
X117587333Y-112357771D01*
X117587333Y-112357771D02*
X117682571Y-112310152D01*
X117682571Y-112310152D02*
X117825428Y-112310152D01*
X117825428Y-112310152D02*
X117920666Y-112357771D01*
X117920666Y-112357771D02*
X117968285Y-112405390D01*
X117968285Y-112405390D02*
X118015904Y-112500628D01*
X118015904Y-112500628D02*
X118015904Y-112786342D01*
X118015904Y-112786342D02*
X117968285Y-112881580D01*
X117968285Y-112881580D02*
X117920666Y-112929200D01*
X117920666Y-112929200D02*
X117825428Y-112976819D01*
X117825428Y-112976819D02*
X117682571Y-112976819D01*
X118444476Y-112976819D02*
X118444476Y-112310152D01*
X118444476Y-112405390D02*
X118492095Y-112357771D01*
X118492095Y-112357771D02*
X118587333Y-112310152D01*
X118587333Y-112310152D02*
X118730190Y-112310152D01*
X118730190Y-112310152D02*
X118825428Y-112357771D01*
X118825428Y-112357771D02*
X118873047Y-112453009D01*
X118873047Y-112453009D02*
X118873047Y-112976819D01*
X118873047Y-112453009D02*
X118920666Y-112357771D01*
X118920666Y-112357771D02*
X119015904Y-112310152D01*
X119015904Y-112310152D02*
X119158761Y-112310152D01*
X119158761Y-112310152D02*
X119254000Y-112357771D01*
X119254000Y-112357771D02*
X119301619Y-112453009D01*
X119301619Y-112453009D02*
X119301619Y-112976819D01*
X120492094Y-111929200D02*
X119634952Y-113214914D01*
X120682571Y-112310152D02*
X121063523Y-112310152D01*
X120825428Y-111976819D02*
X120825428Y-112833961D01*
X120825428Y-112833961D02*
X120873047Y-112929200D01*
X120873047Y-112929200D02*
X120968285Y-112976819D01*
X120968285Y-112976819D02*
X121063523Y-112976819D01*
X121396857Y-112976819D02*
X121396857Y-112310152D01*
X121396857Y-111976819D02*
X121349238Y-112024438D01*
X121349238Y-112024438D02*
X121396857Y-112072057D01*
X121396857Y-112072057D02*
X121444476Y-112024438D01*
X121444476Y-112024438D02*
X121396857Y-111976819D01*
X121396857Y-111976819D02*
X121396857Y-112072057D01*
X121873047Y-112976819D02*
X121873047Y-112310152D01*
X121873047Y-112405390D02*
X121920666Y-112357771D01*
X121920666Y-112357771D02*
X122015904Y-112310152D01*
X122015904Y-112310152D02*
X122158761Y-112310152D01*
X122158761Y-112310152D02*
X122253999Y-112357771D01*
X122253999Y-112357771D02*
X122301618Y-112453009D01*
X122301618Y-112453009D02*
X122301618Y-112976819D01*
X122301618Y-112453009D02*
X122349237Y-112357771D01*
X122349237Y-112357771D02*
X122444475Y-112310152D01*
X122444475Y-112310152D02*
X122587332Y-112310152D01*
X122587332Y-112310152D02*
X122682571Y-112357771D01*
X122682571Y-112357771D02*
X122730190Y-112453009D01*
X122730190Y-112453009D02*
X122730190Y-112976819D01*
X123206380Y-112310152D02*
X123206380Y-113310152D01*
X123206380Y-112357771D02*
X123301618Y-112310152D01*
X123301618Y-112310152D02*
X123492094Y-112310152D01*
X123492094Y-112310152D02*
X123587332Y-112357771D01*
X123587332Y-112357771D02*
X123634951Y-112405390D01*
X123634951Y-112405390D02*
X123682570Y-112500628D01*
X123682570Y-112500628D02*
X123682570Y-112786342D01*
X123682570Y-112786342D02*
X123634951Y-112881580D01*
X123634951Y-112881580D02*
X123587332Y-112929200D01*
X123587332Y-112929200D02*
X123492094Y-112976819D01*
X123492094Y-112976819D02*
X123301618Y-112976819D01*
X123301618Y-112976819D02*
X123206380Y-112929200D01*
X124492094Y-112929200D02*
X124396856Y-112976819D01*
X124396856Y-112976819D02*
X124206380Y-112976819D01*
X124206380Y-112976819D02*
X124111142Y-112929200D01*
X124111142Y-112929200D02*
X124063523Y-112833961D01*
X124063523Y-112833961D02*
X124063523Y-112453009D01*
X124063523Y-112453009D02*
X124111142Y-112357771D01*
X124111142Y-112357771D02*
X124206380Y-112310152D01*
X124206380Y-112310152D02*
X124396856Y-112310152D01*
X124396856Y-112310152D02*
X124492094Y-112357771D01*
X124492094Y-112357771D02*
X124539713Y-112453009D01*
X124539713Y-112453009D02*
X124539713Y-112548247D01*
X124539713Y-112548247D02*
X124063523Y-112643485D01*
X124968285Y-112976819D02*
X124968285Y-112310152D01*
X124968285Y-112500628D02*
X125015904Y-112405390D01*
X125015904Y-112405390D02*
X125063523Y-112357771D01*
X125063523Y-112357771D02*
X125158761Y-112310152D01*
X125158761Y-112310152D02*
X125253999Y-112310152D01*
X125587333Y-112976819D02*
X125587333Y-112310152D01*
X125587333Y-111976819D02*
X125539714Y-112024438D01*
X125539714Y-112024438D02*
X125587333Y-112072057D01*
X125587333Y-112072057D02*
X125634952Y-112024438D01*
X125634952Y-112024438D02*
X125587333Y-111976819D01*
X125587333Y-111976819D02*
X125587333Y-112072057D01*
X126777808Y-111929200D02*
X125920666Y-113214914D01*
X127539713Y-112929200D02*
X127444475Y-112976819D01*
X127444475Y-112976819D02*
X127253999Y-112976819D01*
X127253999Y-112976819D02*
X127158761Y-112929200D01*
X127158761Y-112929200D02*
X127111142Y-112881580D01*
X127111142Y-112881580D02*
X127063523Y-112786342D01*
X127063523Y-112786342D02*
X127063523Y-112500628D01*
X127063523Y-112500628D02*
X127111142Y-112405390D01*
X127111142Y-112405390D02*
X127158761Y-112357771D01*
X127158761Y-112357771D02*
X127253999Y-112310152D01*
X127253999Y-112310152D02*
X127444475Y-112310152D01*
X127444475Y-112310152D02*
X127539713Y-112357771D01*
X128396856Y-111976819D02*
X128206380Y-111976819D01*
X128206380Y-111976819D02*
X128111142Y-112024438D01*
X128111142Y-112024438D02*
X128063523Y-112072057D01*
X128063523Y-112072057D02*
X127968285Y-112214914D01*
X127968285Y-112214914D02*
X127920666Y-112405390D01*
X127920666Y-112405390D02*
X127920666Y-112786342D01*
X127920666Y-112786342D02*
X127968285Y-112881580D01*
X127968285Y-112881580D02*
X128015904Y-112929200D01*
X128015904Y-112929200D02*
X128111142Y-112976819D01*
X128111142Y-112976819D02*
X128301618Y-112976819D01*
X128301618Y-112976819D02*
X128396856Y-112929200D01*
X128396856Y-112929200D02*
X128444475Y-112881580D01*
X128444475Y-112881580D02*
X128492094Y-112786342D01*
X128492094Y-112786342D02*
X128492094Y-112548247D01*
X128492094Y-112548247D02*
X128444475Y-112453009D01*
X128444475Y-112453009D02*
X128396856Y-112405390D01*
X128396856Y-112405390D02*
X128301618Y-112357771D01*
X128301618Y-112357771D02*
X128111142Y-112357771D01*
X128111142Y-112357771D02*
X128015904Y-112405390D01*
X128015904Y-112405390D02*
X127968285Y-112453009D01*
X127968285Y-112453009D02*
X127920666Y-112548247D01*
X129349237Y-112310152D02*
X129349237Y-112976819D01*
X129111142Y-111929200D02*
X128873047Y-112643485D01*
X128873047Y-112643485D02*
X129492094Y-112643485D01*
X129873047Y-112595866D02*
X130634952Y-112595866D01*
X131015904Y-112310152D02*
X131206380Y-112976819D01*
X131206380Y-112976819D02*
X131396856Y-112500628D01*
X131396856Y-112500628D02*
X131587332Y-112976819D01*
X131587332Y-112976819D02*
X131777808Y-112310152D01*
X132539713Y-112929200D02*
X132444475Y-112976819D01*
X132444475Y-112976819D02*
X132253999Y-112976819D01*
X132253999Y-112976819D02*
X132158761Y-112929200D01*
X132158761Y-112929200D02*
X132111142Y-112833961D01*
X132111142Y-112833961D02*
X132111142Y-112453009D01*
X132111142Y-112453009D02*
X132158761Y-112357771D01*
X132158761Y-112357771D02*
X132253999Y-112310152D01*
X132253999Y-112310152D02*
X132444475Y-112310152D01*
X132444475Y-112310152D02*
X132539713Y-112357771D01*
X132539713Y-112357771D02*
X132587332Y-112453009D01*
X132587332Y-112453009D02*
X132587332Y-112548247D01*
X132587332Y-112548247D02*
X132111142Y-112643485D01*
X133444475Y-112976819D02*
X133444475Y-111976819D01*
X133444475Y-112929200D02*
X133349237Y-112976819D01*
X133349237Y-112976819D02*
X133158761Y-112976819D01*
X133158761Y-112976819D02*
X133063523Y-112929200D01*
X133063523Y-112929200D02*
X133015904Y-112881580D01*
X133015904Y-112881580D02*
X132968285Y-112786342D01*
X132968285Y-112786342D02*
X132968285Y-112500628D01*
X132968285Y-112500628D02*
X133015904Y-112405390D01*
X133015904Y-112405390D02*
X133063523Y-112357771D01*
X133063523Y-112357771D02*
X133158761Y-112310152D01*
X133158761Y-112310152D02*
X133349237Y-112310152D01*
X133349237Y-112310152D02*
X133444475Y-112357771D01*
X134349237Y-112310152D02*
X134349237Y-113119676D01*
X134349237Y-113119676D02*
X134301618Y-113214914D01*
X134301618Y-113214914D02*
X134253999Y-113262533D01*
X134253999Y-113262533D02*
X134158761Y-113310152D01*
X134158761Y-113310152D02*
X134015904Y-113310152D01*
X134015904Y-113310152D02*
X133920666Y-113262533D01*
X134349237Y-112929200D02*
X134253999Y-112976819D01*
X134253999Y-112976819D02*
X134063523Y-112976819D01*
X134063523Y-112976819D02*
X133968285Y-112929200D01*
X133968285Y-112929200D02*
X133920666Y-112881580D01*
X133920666Y-112881580D02*
X133873047Y-112786342D01*
X133873047Y-112786342D02*
X133873047Y-112500628D01*
X133873047Y-112500628D02*
X133920666Y-112405390D01*
X133920666Y-112405390D02*
X133968285Y-112357771D01*
X133968285Y-112357771D02*
X134063523Y-112310152D01*
X134063523Y-112310152D02*
X134253999Y-112310152D01*
X134253999Y-112310152D02*
X134349237Y-112357771D01*
X135206380Y-112929200D02*
X135111142Y-112976819D01*
X135111142Y-112976819D02*
X134920666Y-112976819D01*
X134920666Y-112976819D02*
X134825428Y-112929200D01*
X134825428Y-112929200D02*
X134777809Y-112833961D01*
X134777809Y-112833961D02*
X134777809Y-112453009D01*
X134777809Y-112453009D02*
X134825428Y-112357771D01*
X134825428Y-112357771D02*
X134920666Y-112310152D01*
X134920666Y-112310152D02*
X135111142Y-112310152D01*
X135111142Y-112310152D02*
X135206380Y-112357771D01*
X135206380Y-112357771D02*
X135253999Y-112453009D01*
X135253999Y-112453009D02*
X135253999Y-112548247D01*
X135253999Y-112548247D02*
X134777809Y-112643485D01*
X135682571Y-112595866D02*
X136444476Y-112595866D01*
X136920666Y-112310152D02*
X136920666Y-113310152D01*
X136920666Y-112357771D02*
X137015904Y-112310152D01*
X137015904Y-112310152D02*
X137206380Y-112310152D01*
X137206380Y-112310152D02*
X137301618Y-112357771D01*
X137301618Y-112357771D02*
X137349237Y-112405390D01*
X137349237Y-112405390D02*
X137396856Y-112500628D01*
X137396856Y-112500628D02*
X137396856Y-112786342D01*
X137396856Y-112786342D02*
X137349237Y-112881580D01*
X137349237Y-112881580D02*
X137301618Y-112929200D01*
X137301618Y-112929200D02*
X137206380Y-112976819D01*
X137206380Y-112976819D02*
X137015904Y-112976819D01*
X137015904Y-112976819D02*
X136920666Y-112929200D01*
X137777809Y-112929200D02*
X137873047Y-112976819D01*
X137873047Y-112976819D02*
X138063523Y-112976819D01*
X138063523Y-112976819D02*
X138158761Y-112929200D01*
X138158761Y-112929200D02*
X138206380Y-112833961D01*
X138206380Y-112833961D02*
X138206380Y-112786342D01*
X138206380Y-112786342D02*
X138158761Y-112691104D01*
X138158761Y-112691104D02*
X138063523Y-112643485D01*
X138063523Y-112643485D02*
X137920666Y-112643485D01*
X137920666Y-112643485D02*
X137825428Y-112595866D01*
X137825428Y-112595866D02*
X137777809Y-112500628D01*
X137777809Y-112500628D02*
X137777809Y-112453009D01*
X137777809Y-112453009D02*
X137825428Y-112357771D01*
X137825428Y-112357771D02*
X137920666Y-112310152D01*
X137920666Y-112310152D02*
X138063523Y-112310152D01*
X138063523Y-112310152D02*
X138158761Y-112357771D01*
X139063523Y-112310152D02*
X139063523Y-112976819D01*
X138634952Y-112310152D02*
X138634952Y-112833961D01*
X138634952Y-112833961D02*
X138682571Y-112929200D01*
X138682571Y-112929200D02*
X138777809Y-112976819D01*
X138777809Y-112976819D02*
X138920666Y-112976819D01*
X138920666Y-112976819D02*
X139015904Y-112929200D01*
X139015904Y-112929200D02*
X139063523Y-112881580D01*
X139539714Y-112595866D02*
X140301619Y-112595866D01*
X140777809Y-112310152D02*
X140777809Y-113310152D01*
X140777809Y-112357771D02*
X140873047Y-112310152D01*
X140873047Y-112310152D02*
X141063523Y-112310152D01*
X141063523Y-112310152D02*
X141158761Y-112357771D01*
X141158761Y-112357771D02*
X141206380Y-112405390D01*
X141206380Y-112405390D02*
X141253999Y-112500628D01*
X141253999Y-112500628D02*
X141253999Y-112786342D01*
X141253999Y-112786342D02*
X141206380Y-112881580D01*
X141206380Y-112881580D02*
X141158761Y-112929200D01*
X141158761Y-112929200D02*
X141063523Y-112976819D01*
X141063523Y-112976819D02*
X140873047Y-112976819D01*
X140873047Y-112976819D02*
X140777809Y-112929200D01*
X142111142Y-112929200D02*
X142015904Y-112976819D01*
X142015904Y-112976819D02*
X141825428Y-112976819D01*
X141825428Y-112976819D02*
X141730190Y-112929200D01*
X141730190Y-112929200D02*
X141682571Y-112881580D01*
X141682571Y-112881580D02*
X141634952Y-112786342D01*
X141634952Y-112786342D02*
X141634952Y-112500628D01*
X141634952Y-112500628D02*
X141682571Y-112405390D01*
X141682571Y-112405390D02*
X141730190Y-112357771D01*
X141730190Y-112357771D02*
X141825428Y-112310152D01*
X141825428Y-112310152D02*
X142015904Y-112310152D01*
X142015904Y-112310152D02*
X142111142Y-112357771D01*
X142539714Y-112976819D02*
X142539714Y-111976819D01*
X142539714Y-112357771D02*
X142634952Y-112310152D01*
X142634952Y-112310152D02*
X142825428Y-112310152D01*
X142825428Y-112310152D02*
X142920666Y-112357771D01*
X142920666Y-112357771D02*
X142968285Y-112405390D01*
X142968285Y-112405390D02*
X143015904Y-112500628D01*
X143015904Y-112500628D02*
X143015904Y-112786342D01*
X143015904Y-112786342D02*
X142968285Y-112881580D01*
X142968285Y-112881580D02*
X142920666Y-112929200D01*
X142920666Y-112929200D02*
X142825428Y-112976819D01*
X142825428Y-112976819D02*
X142634952Y-112976819D01*
X142634952Y-112976819D02*
X142539714Y-112929200D01*
X129892588Y-65211438D02*
X129797350Y-65163819D01*
X129797350Y-65163819D02*
X129654493Y-65163819D01*
X129654493Y-65163819D02*
X129511636Y-65211438D01*
X129511636Y-65211438D02*
X129416398Y-65306676D01*
X129416398Y-65306676D02*
X129368779Y-65401914D01*
X129368779Y-65401914D02*
X129321160Y-65592390D01*
X129321160Y-65592390D02*
X129321160Y-65735247D01*
X129321160Y-65735247D02*
X129368779Y-65925723D01*
X129368779Y-65925723D02*
X129416398Y-66020961D01*
X129416398Y-66020961D02*
X129511636Y-66116200D01*
X129511636Y-66116200D02*
X129654493Y-66163819D01*
X129654493Y-66163819D02*
X129749731Y-66163819D01*
X129749731Y-66163819D02*
X129892588Y-66116200D01*
X129892588Y-66116200D02*
X129940207Y-66068580D01*
X129940207Y-66068580D02*
X129940207Y-65735247D01*
X129940207Y-65735247D02*
X129749731Y-65735247D01*
X130368779Y-66163819D02*
X130368779Y-65163819D01*
X130368779Y-65163819D02*
X130940207Y-66163819D01*
X130940207Y-66163819D02*
X130940207Y-65163819D01*
X131416398Y-66163819D02*
X131416398Y-65163819D01*
X131416398Y-65163819D02*
X131654493Y-65163819D01*
X131654493Y-65163819D02*
X131797350Y-65211438D01*
X131797350Y-65211438D02*
X131892588Y-65306676D01*
X131892588Y-65306676D02*
X131940207Y-65401914D01*
X131940207Y-65401914D02*
X131987826Y-65592390D01*
X131987826Y-65592390D02*
X131987826Y-65735247D01*
X131987826Y-65735247D02*
X131940207Y-65925723D01*
X131940207Y-65925723D02*
X131892588Y-66020961D01*
X131892588Y-66020961D02*
X131797350Y-66116200D01*
X131797350Y-66116200D02*
X131654493Y-66163819D01*
X131654493Y-66163819D02*
X131416398Y-66163819D01*
X133178779Y-65782866D02*
X133940684Y-65782866D01*
X133559731Y-66163819D02*
X133559731Y-65401914D01*
X134893064Y-65163819D02*
X134416874Y-65163819D01*
X134416874Y-65163819D02*
X134369255Y-65640009D01*
X134369255Y-65640009D02*
X134416874Y-65592390D01*
X134416874Y-65592390D02*
X134512112Y-65544771D01*
X134512112Y-65544771D02*
X134750207Y-65544771D01*
X134750207Y-65544771D02*
X134845445Y-65592390D01*
X134845445Y-65592390D02*
X134893064Y-65640009D01*
X134893064Y-65640009D02*
X134940683Y-65735247D01*
X134940683Y-65735247D02*
X134940683Y-65973342D01*
X134940683Y-65973342D02*
X134893064Y-66068580D01*
X134893064Y-66068580D02*
X134845445Y-66116200D01*
X134845445Y-66116200D02*
X134750207Y-66163819D01*
X134750207Y-66163819D02*
X134512112Y-66163819D01*
X134512112Y-66163819D02*
X134416874Y-66116200D01*
X134416874Y-66116200D02*
X134369255Y-66068580D01*
X135226398Y-65163819D02*
X135559731Y-66163819D01*
X135559731Y-66163819D02*
X135893064Y-65163819D01*
X136226398Y-66163819D02*
X136226398Y-65163819D01*
X136226398Y-65163819D02*
X136464493Y-65163819D01*
X136464493Y-65163819D02*
X136607350Y-65211438D01*
X136607350Y-65211438D02*
X136702588Y-65306676D01*
X136702588Y-65306676D02*
X136750207Y-65401914D01*
X136750207Y-65401914D02*
X136797826Y-65592390D01*
X136797826Y-65592390D02*
X136797826Y-65735247D01*
X136797826Y-65735247D02*
X136750207Y-65925723D01*
X136750207Y-65925723D02*
X136702588Y-66020961D01*
X136702588Y-66020961D02*
X136607350Y-66116200D01*
X136607350Y-66116200D02*
X136464493Y-66163819D01*
X136464493Y-66163819D02*
X136226398Y-66163819D01*
X137797826Y-66068580D02*
X137750207Y-66116200D01*
X137750207Y-66116200D02*
X137607350Y-66163819D01*
X137607350Y-66163819D02*
X137512112Y-66163819D01*
X137512112Y-66163819D02*
X137369255Y-66116200D01*
X137369255Y-66116200D02*
X137274017Y-66020961D01*
X137274017Y-66020961D02*
X137226398Y-65925723D01*
X137226398Y-65925723D02*
X137178779Y-65735247D01*
X137178779Y-65735247D02*
X137178779Y-65592390D01*
X137178779Y-65592390D02*
X137226398Y-65401914D01*
X137226398Y-65401914D02*
X137274017Y-65306676D01*
X137274017Y-65306676D02*
X137369255Y-65211438D01*
X137369255Y-65211438D02*
X137512112Y-65163819D01*
X137512112Y-65163819D02*
X137607350Y-65163819D01*
X137607350Y-65163819D02*
X137750207Y-65211438D01*
X137750207Y-65211438D02*
X137797826Y-65259057D01*
X106119048Y-66169104D02*
X106595238Y-66169104D01*
X106023810Y-66454819D02*
X106357143Y-65454819D01*
X106357143Y-65454819D02*
X106690476Y-66454819D01*
X107595238Y-66359580D02*
X107547619Y-66407200D01*
X107547619Y-66407200D02*
X107404762Y-66454819D01*
X107404762Y-66454819D02*
X107309524Y-66454819D01*
X107309524Y-66454819D02*
X107166667Y-66407200D01*
X107166667Y-66407200D02*
X107071429Y-66311961D01*
X107071429Y-66311961D02*
X107023810Y-66216723D01*
X107023810Y-66216723D02*
X106976191Y-66026247D01*
X106976191Y-66026247D02*
X106976191Y-65883390D01*
X106976191Y-65883390D02*
X107023810Y-65692914D01*
X107023810Y-65692914D02*
X107071429Y-65597676D01*
X107071429Y-65597676D02*
X107166667Y-65502438D01*
X107166667Y-65502438D02*
X107309524Y-65454819D01*
X107309524Y-65454819D02*
X107404762Y-65454819D01*
X107404762Y-65454819D02*
X107547619Y-65502438D01*
X107547619Y-65502438D02*
X107595238Y-65550057D01*
X108785715Y-66454819D02*
X108785715Y-65454819D01*
X109261905Y-66454819D02*
X109261905Y-65454819D01*
X109261905Y-65454819D02*
X109833333Y-66454819D01*
X109833333Y-66454819D02*
X109833333Y-65454819D01*
D11*
X121523808Y-74719161D02*
X121428570Y-74814400D01*
X121428570Y-74814400D02*
X121142856Y-74909638D01*
X121142856Y-74909638D02*
X120952380Y-74909638D01*
X120952380Y-74909638D02*
X120666665Y-74814400D01*
X120666665Y-74814400D02*
X120476189Y-74623923D01*
X120476189Y-74623923D02*
X120380951Y-74433447D01*
X120380951Y-74433447D02*
X120285713Y-74052495D01*
X120285713Y-74052495D02*
X120285713Y-73766780D01*
X120285713Y-73766780D02*
X120380951Y-73385828D01*
X120380951Y-73385828D02*
X120476189Y-73195352D01*
X120476189Y-73195352D02*
X120666665Y-73004876D01*
X120666665Y-73004876D02*
X120952380Y-72909638D01*
X120952380Y-72909638D02*
X121142856Y-72909638D01*
X121142856Y-72909638D02*
X121428570Y-73004876D01*
X121428570Y-73004876D02*
X121523808Y-73100114D01*
X123238094Y-72909638D02*
X122857141Y-72909638D01*
X122857141Y-72909638D02*
X122666665Y-73004876D01*
X122666665Y-73004876D02*
X122571427Y-73100114D01*
X122571427Y-73100114D02*
X122380951Y-73385828D01*
X122380951Y-73385828D02*
X122285713Y-73766780D01*
X122285713Y-73766780D02*
X122285713Y-74528685D01*
X122285713Y-74528685D02*
X122380951Y-74719161D01*
X122380951Y-74719161D02*
X122476189Y-74814400D01*
X122476189Y-74814400D02*
X122666665Y-74909638D01*
X122666665Y-74909638D02*
X123047618Y-74909638D01*
X123047618Y-74909638D02*
X123238094Y-74814400D01*
X123238094Y-74814400D02*
X123333332Y-74719161D01*
X123333332Y-74719161D02*
X123428570Y-74528685D01*
X123428570Y-74528685D02*
X123428570Y-74052495D01*
X123428570Y-74052495D02*
X123333332Y-73862019D01*
X123333332Y-73862019D02*
X123238094Y-73766780D01*
X123238094Y-73766780D02*
X123047618Y-73671542D01*
X123047618Y-73671542D02*
X122666665Y-73671542D01*
X122666665Y-73671542D02*
X122476189Y-73766780D01*
X122476189Y-73766780D02*
X122380951Y-73862019D01*
X122380951Y-73862019D02*
X122285713Y-74052495D01*
X125142856Y-73576304D02*
X125142856Y-74909638D01*
X124666665Y-72814400D02*
X124190475Y-74242971D01*
X124190475Y-74242971D02*
X125428570Y-74242971D01*
X127523809Y-72909638D02*
X127999999Y-74909638D01*
X127999999Y-74909638D02*
X128380952Y-73481066D01*
X128380952Y-73481066D02*
X128761904Y-74909638D01*
X128761904Y-74909638D02*
X129238095Y-72909638D01*
X130761904Y-74814400D02*
X130571428Y-74909638D01*
X130571428Y-74909638D02*
X130190475Y-74909638D01*
X130190475Y-74909638D02*
X129999999Y-74814400D01*
X129999999Y-74814400D02*
X129904761Y-74623923D01*
X129904761Y-74623923D02*
X129904761Y-73862019D01*
X129904761Y-73862019D02*
X129999999Y-73671542D01*
X129999999Y-73671542D02*
X130190475Y-73576304D01*
X130190475Y-73576304D02*
X130571428Y-73576304D01*
X130571428Y-73576304D02*
X130761904Y-73671542D01*
X130761904Y-73671542D02*
X130857142Y-73862019D01*
X130857142Y-73862019D02*
X130857142Y-74052495D01*
X130857142Y-74052495D02*
X129904761Y-74242971D01*
X132571428Y-74909638D02*
X132571428Y-72909638D01*
X132571428Y-74814400D02*
X132380952Y-74909638D01*
X132380952Y-74909638D02*
X131999999Y-74909638D01*
X131999999Y-74909638D02*
X131809523Y-74814400D01*
X131809523Y-74814400D02*
X131714285Y-74719161D01*
X131714285Y-74719161D02*
X131619047Y-74528685D01*
X131619047Y-74528685D02*
X131619047Y-73957257D01*
X131619047Y-73957257D02*
X131714285Y-73766780D01*
X131714285Y-73766780D02*
X131809523Y-73671542D01*
X131809523Y-73671542D02*
X131999999Y-73576304D01*
X131999999Y-73576304D02*
X132380952Y-73576304D01*
X132380952Y-73576304D02*
X132571428Y-73671542D01*
X134380952Y-73576304D02*
X134380952Y-75195352D01*
X134380952Y-75195352D02*
X134285714Y-75385828D01*
X134285714Y-75385828D02*
X134190476Y-75481066D01*
X134190476Y-75481066D02*
X133999999Y-75576304D01*
X133999999Y-75576304D02*
X133714285Y-75576304D01*
X133714285Y-75576304D02*
X133523809Y-75481066D01*
X134380952Y-74814400D02*
X134190476Y-74909638D01*
X134190476Y-74909638D02*
X133809523Y-74909638D01*
X133809523Y-74909638D02*
X133619047Y-74814400D01*
X133619047Y-74814400D02*
X133523809Y-74719161D01*
X133523809Y-74719161D02*
X133428571Y-74528685D01*
X133428571Y-74528685D02*
X133428571Y-73957257D01*
X133428571Y-73957257D02*
X133523809Y-73766780D01*
X133523809Y-73766780D02*
X133619047Y-73671542D01*
X133619047Y-73671542D02*
X133809523Y-73576304D01*
X133809523Y-73576304D02*
X134190476Y-73576304D01*
X134190476Y-73576304D02*
X134380952Y-73671542D01*
X136095238Y-74814400D02*
X135904762Y-74909638D01*
X135904762Y-74909638D02*
X135523809Y-74909638D01*
X135523809Y-74909638D02*
X135333333Y-74814400D01*
X135333333Y-74814400D02*
X135238095Y-74623923D01*
X135238095Y-74623923D02*
X135238095Y-73862019D01*
X135238095Y-73862019D02*
X135333333Y-73671542D01*
X135333333Y-73671542D02*
X135523809Y-73576304D01*
X135523809Y-73576304D02*
X135904762Y-73576304D01*
X135904762Y-73576304D02*
X136095238Y-73671542D01*
X136095238Y-73671542D02*
X136190476Y-73862019D01*
X136190476Y-73862019D02*
X136190476Y-74052495D01*
X136190476Y-74052495D02*
X135238095Y-74242971D01*
X138571429Y-74909638D02*
X138571429Y-72909638D01*
X138571429Y-72909638D02*
X139333334Y-72909638D01*
X139333334Y-72909638D02*
X139523810Y-73004876D01*
X139523810Y-73004876D02*
X139619048Y-73100114D01*
X139619048Y-73100114D02*
X139714286Y-73290590D01*
X139714286Y-73290590D02*
X139714286Y-73576304D01*
X139714286Y-73576304D02*
X139619048Y-73766780D01*
X139619048Y-73766780D02*
X139523810Y-73862019D01*
X139523810Y-73862019D02*
X139333334Y-73957257D01*
X139333334Y-73957257D02*
X138571429Y-73957257D01*
X141714286Y-74719161D02*
X141619048Y-74814400D01*
X141619048Y-74814400D02*
X141333334Y-74909638D01*
X141333334Y-74909638D02*
X141142858Y-74909638D01*
X141142858Y-74909638D02*
X140857143Y-74814400D01*
X140857143Y-74814400D02*
X140666667Y-74623923D01*
X140666667Y-74623923D02*
X140571429Y-74433447D01*
X140571429Y-74433447D02*
X140476191Y-74052495D01*
X140476191Y-74052495D02*
X140476191Y-73766780D01*
X140476191Y-73766780D02*
X140571429Y-73385828D01*
X140571429Y-73385828D02*
X140666667Y-73195352D01*
X140666667Y-73195352D02*
X140857143Y-73004876D01*
X140857143Y-73004876D02*
X141142858Y-72909638D01*
X141142858Y-72909638D02*
X141333334Y-72909638D01*
X141333334Y-72909638D02*
X141619048Y-73004876D01*
X141619048Y-73004876D02*
X141714286Y-73100114D01*
X143238096Y-73862019D02*
X143523810Y-73957257D01*
X143523810Y-73957257D02*
X143619048Y-74052495D01*
X143619048Y-74052495D02*
X143714286Y-74242971D01*
X143714286Y-74242971D02*
X143714286Y-74528685D01*
X143714286Y-74528685D02*
X143619048Y-74719161D01*
X143619048Y-74719161D02*
X143523810Y-74814400D01*
X143523810Y-74814400D02*
X143333334Y-74909638D01*
X143333334Y-74909638D02*
X142571429Y-74909638D01*
X142571429Y-74909638D02*
X142571429Y-72909638D01*
X142571429Y-72909638D02*
X143238096Y-72909638D01*
X143238096Y-72909638D02*
X143428572Y-73004876D01*
X143428572Y-73004876D02*
X143523810Y-73100114D01*
X143523810Y-73100114D02*
X143619048Y-73290590D01*
X143619048Y-73290590D02*
X143619048Y-73481066D01*
X143619048Y-73481066D02*
X143523810Y-73671542D01*
X143523810Y-73671542D02*
X143428572Y-73766780D01*
X143428572Y-73766780D02*
X143238096Y-73862019D01*
X143238096Y-73862019D02*
X142571429Y-73862019D01*
D10*
X125744286Y-76154819D02*
X126077619Y-77154819D01*
X126077619Y-77154819D02*
X126410952Y-76154819D01*
X126696667Y-76250057D02*
X126744286Y-76202438D01*
X126744286Y-76202438D02*
X126839524Y-76154819D01*
X126839524Y-76154819D02*
X127077619Y-76154819D01*
X127077619Y-76154819D02*
X127172857Y-76202438D01*
X127172857Y-76202438D02*
X127220476Y-76250057D01*
X127220476Y-76250057D02*
X127268095Y-76345295D01*
X127268095Y-76345295D02*
X127268095Y-76440533D01*
X127268095Y-76440533D02*
X127220476Y-76583390D01*
X127220476Y-76583390D02*
X126649048Y-77154819D01*
X126649048Y-77154819D02*
X127268095Y-77154819D01*
X127696667Y-77059580D02*
X127744286Y-77107200D01*
X127744286Y-77107200D02*
X127696667Y-77154819D01*
X127696667Y-77154819D02*
X127649048Y-77107200D01*
X127649048Y-77107200D02*
X127696667Y-77059580D01*
X127696667Y-77059580D02*
X127696667Y-77154819D01*
X128696666Y-77154819D02*
X128125238Y-77154819D01*
X128410952Y-77154819D02*
X128410952Y-76154819D01*
X128410952Y-76154819D02*
X128315714Y-76297676D01*
X128315714Y-76297676D02*
X128220476Y-76392914D01*
X128220476Y-76392914D02*
X128125238Y-76440533D01*
X129887143Y-76773866D02*
X130649048Y-76773866D01*
X132077619Y-76154819D02*
X132172857Y-76154819D01*
X132172857Y-76154819D02*
X132268095Y-76202438D01*
X132268095Y-76202438D02*
X132315714Y-76250057D01*
X132315714Y-76250057D02*
X132363333Y-76345295D01*
X132363333Y-76345295D02*
X132410952Y-76535771D01*
X132410952Y-76535771D02*
X132410952Y-76773866D01*
X132410952Y-76773866D02*
X132363333Y-76964342D01*
X132363333Y-76964342D02*
X132315714Y-77059580D01*
X132315714Y-77059580D02*
X132268095Y-77107200D01*
X132268095Y-77107200D02*
X132172857Y-77154819D01*
X132172857Y-77154819D02*
X132077619Y-77154819D01*
X132077619Y-77154819D02*
X131982381Y-77107200D01*
X131982381Y-77107200D02*
X131934762Y-77059580D01*
X131934762Y-77059580D02*
X131887143Y-76964342D01*
X131887143Y-76964342D02*
X131839524Y-76773866D01*
X131839524Y-76773866D02*
X131839524Y-76535771D01*
X131839524Y-76535771D02*
X131887143Y-76345295D01*
X131887143Y-76345295D02*
X131934762Y-76250057D01*
X131934762Y-76250057D02*
X131982381Y-76202438D01*
X131982381Y-76202438D02*
X132077619Y-76154819D01*
X133268095Y-76488152D02*
X133268095Y-77154819D01*
X133030000Y-76107200D02*
X132791905Y-76821485D01*
X132791905Y-76821485D02*
X133410952Y-76821485D01*
X134506190Y-76107200D02*
X133649048Y-77392914D01*
X134791905Y-76250057D02*
X134839524Y-76202438D01*
X134839524Y-76202438D02*
X134934762Y-76154819D01*
X134934762Y-76154819D02*
X135172857Y-76154819D01*
X135172857Y-76154819D02*
X135268095Y-76202438D01*
X135268095Y-76202438D02*
X135315714Y-76250057D01*
X135315714Y-76250057D02*
X135363333Y-76345295D01*
X135363333Y-76345295D02*
X135363333Y-76440533D01*
X135363333Y-76440533D02*
X135315714Y-76583390D01*
X135315714Y-76583390D02*
X134744286Y-77154819D01*
X134744286Y-77154819D02*
X135363333Y-77154819D01*
X135982381Y-76154819D02*
X136077619Y-76154819D01*
X136077619Y-76154819D02*
X136172857Y-76202438D01*
X136172857Y-76202438D02*
X136220476Y-76250057D01*
X136220476Y-76250057D02*
X136268095Y-76345295D01*
X136268095Y-76345295D02*
X136315714Y-76535771D01*
X136315714Y-76535771D02*
X136315714Y-76773866D01*
X136315714Y-76773866D02*
X136268095Y-76964342D01*
X136268095Y-76964342D02*
X136220476Y-77059580D01*
X136220476Y-77059580D02*
X136172857Y-77107200D01*
X136172857Y-77107200D02*
X136077619Y-77154819D01*
X136077619Y-77154819D02*
X135982381Y-77154819D01*
X135982381Y-77154819D02*
X135887143Y-77107200D01*
X135887143Y-77107200D02*
X135839524Y-77059580D01*
X135839524Y-77059580D02*
X135791905Y-76964342D01*
X135791905Y-76964342D02*
X135744286Y-76773866D01*
X135744286Y-76773866D02*
X135744286Y-76535771D01*
X135744286Y-76535771D02*
X135791905Y-76345295D01*
X135791905Y-76345295D02*
X135839524Y-76250057D01*
X135839524Y-76250057D02*
X135887143Y-76202438D01*
X135887143Y-76202438D02*
X135982381Y-76154819D01*
X136696667Y-76250057D02*
X136744286Y-76202438D01*
X136744286Y-76202438D02*
X136839524Y-76154819D01*
X136839524Y-76154819D02*
X137077619Y-76154819D01*
X137077619Y-76154819D02*
X137172857Y-76202438D01*
X137172857Y-76202438D02*
X137220476Y-76250057D01*
X137220476Y-76250057D02*
X137268095Y-76345295D01*
X137268095Y-76345295D02*
X137268095Y-76440533D01*
X137268095Y-76440533D02*
X137220476Y-76583390D01*
X137220476Y-76583390D02*
X136649048Y-77154819D01*
X136649048Y-77154819D02*
X137268095Y-77154819D01*
X138125238Y-76154819D02*
X137934762Y-76154819D01*
X137934762Y-76154819D02*
X137839524Y-76202438D01*
X137839524Y-76202438D02*
X137791905Y-76250057D01*
X137791905Y-76250057D02*
X137696667Y-76392914D01*
X137696667Y-76392914D02*
X137649048Y-76583390D01*
X137649048Y-76583390D02*
X137649048Y-76964342D01*
X137649048Y-76964342D02*
X137696667Y-77059580D01*
X137696667Y-77059580D02*
X137744286Y-77107200D01*
X137744286Y-77107200D02*
X137839524Y-77154819D01*
X137839524Y-77154819D02*
X138030000Y-77154819D01*
X138030000Y-77154819D02*
X138125238Y-77107200D01*
X138125238Y-77107200D02*
X138172857Y-77059580D01*
X138172857Y-77059580D02*
X138220476Y-76964342D01*
X138220476Y-76964342D02*
X138220476Y-76726247D01*
X138220476Y-76726247D02*
X138172857Y-76631009D01*
X138172857Y-76631009D02*
X138125238Y-76583390D01*
X138125238Y-76583390D02*
X138030000Y-76535771D01*
X138030000Y-76535771D02*
X137839524Y-76535771D01*
X137839524Y-76535771D02*
X137744286Y-76583390D01*
X137744286Y-76583390D02*
X137696667Y-76631009D01*
X137696667Y-76631009D02*
X137649048Y-76726247D01*
X139614286Y-66073866D02*
X140376191Y-66073866D01*
X139995238Y-66454819D02*
X139995238Y-65692914D01*
X141328571Y-65454819D02*
X140852381Y-65454819D01*
X140852381Y-65454819D02*
X140804762Y-65931009D01*
X140804762Y-65931009D02*
X140852381Y-65883390D01*
X140852381Y-65883390D02*
X140947619Y-65835771D01*
X140947619Y-65835771D02*
X141185714Y-65835771D01*
X141185714Y-65835771D02*
X141280952Y-65883390D01*
X141280952Y-65883390D02*
X141328571Y-65931009D01*
X141328571Y-65931009D02*
X141376190Y-66026247D01*
X141376190Y-66026247D02*
X141376190Y-66264342D01*
X141376190Y-66264342D02*
X141328571Y-66359580D01*
X141328571Y-66359580D02*
X141280952Y-66407200D01*
X141280952Y-66407200D02*
X141185714Y-66454819D01*
X141185714Y-66454819D02*
X140947619Y-66454819D01*
X140947619Y-66454819D02*
X140852381Y-66407200D01*
X140852381Y-66407200D02*
X140804762Y-66359580D01*
X141661905Y-65454819D02*
X141995238Y-66454819D01*
X141995238Y-66454819D02*
X142328571Y-65454819D01*
X142661905Y-66454819D02*
X142661905Y-65454819D01*
X142661905Y-65454819D02*
X142900000Y-65454819D01*
X142900000Y-65454819D02*
X143042857Y-65502438D01*
X143042857Y-65502438D02*
X143138095Y-65597676D01*
X143138095Y-65597676D02*
X143185714Y-65692914D01*
X143185714Y-65692914D02*
X143233333Y-65883390D01*
X143233333Y-65883390D02*
X143233333Y-66026247D01*
X143233333Y-66026247D02*
X143185714Y-66216723D01*
X143185714Y-66216723D02*
X143138095Y-66311961D01*
X143138095Y-66311961D02*
X143042857Y-66407200D01*
X143042857Y-66407200D02*
X142900000Y-66454819D01*
X142900000Y-66454819D02*
X142661905Y-66454819D01*
X144233333Y-66359580D02*
X144185714Y-66407200D01*
X144185714Y-66407200D02*
X144042857Y-66454819D01*
X144042857Y-66454819D02*
X143947619Y-66454819D01*
X143947619Y-66454819D02*
X143804762Y-66407200D01*
X143804762Y-66407200D02*
X143709524Y-66311961D01*
X143709524Y-66311961D02*
X143661905Y-66216723D01*
X143661905Y-66216723D02*
X143614286Y-66026247D01*
X143614286Y-66026247D02*
X143614286Y-65883390D01*
X143614286Y-65883390D02*
X143661905Y-65692914D01*
X143661905Y-65692914D02*
X143709524Y-65597676D01*
X143709524Y-65597676D02*
X143804762Y-65502438D01*
X143804762Y-65502438D02*
X143947619Y-65454819D01*
X143947619Y-65454819D02*
X144042857Y-65454819D01*
X144042857Y-65454819D02*
X144185714Y-65502438D01*
X144185714Y-65502438D02*
X144233333Y-65550057D01*
D12*
X147418045Y-68252071D02*
X147370426Y-68204452D01*
X147370426Y-68204452D02*
X147275188Y-68061595D01*
X147275188Y-68061595D02*
X147227569Y-67966357D01*
X147227569Y-67966357D02*
X147179950Y-67823500D01*
X147179950Y-67823500D02*
X147132331Y-67585404D01*
X147132331Y-67585404D02*
X147132331Y-67394928D01*
X147132331Y-67394928D02*
X147179950Y-67156833D01*
X147179950Y-67156833D02*
X147227569Y-67013976D01*
X147227569Y-67013976D02*
X147275188Y-66918738D01*
X147275188Y-66918738D02*
X147370426Y-66775880D01*
X147370426Y-66775880D02*
X147418045Y-66728261D01*
X148322807Y-66918738D02*
X148227569Y-66871119D01*
X148227569Y-66871119D02*
X148084712Y-66871119D01*
X148084712Y-66871119D02*
X147941855Y-66918738D01*
X147941855Y-66918738D02*
X147846617Y-67013976D01*
X147846617Y-67013976D02*
X147798998Y-67109214D01*
X147798998Y-67109214D02*
X147751379Y-67299690D01*
X147751379Y-67299690D02*
X147751379Y-67442547D01*
X147751379Y-67442547D02*
X147798998Y-67633023D01*
X147798998Y-67633023D02*
X147846617Y-67728261D01*
X147846617Y-67728261D02*
X147941855Y-67823500D01*
X147941855Y-67823500D02*
X148084712Y-67871119D01*
X148084712Y-67871119D02*
X148179950Y-67871119D01*
X148179950Y-67871119D02*
X148322807Y-67823500D01*
X148322807Y-67823500D02*
X148370426Y-67775880D01*
X148370426Y-67775880D02*
X148370426Y-67442547D01*
X148370426Y-67442547D02*
X148179950Y-67442547D01*
X149370426Y-67871119D02*
X149037093Y-67394928D01*
X148798998Y-67871119D02*
X148798998Y-66871119D01*
X148798998Y-66871119D02*
X149179950Y-66871119D01*
X149179950Y-66871119D02*
X149275188Y-66918738D01*
X149275188Y-66918738D02*
X149322807Y-66966357D01*
X149322807Y-66966357D02*
X149370426Y-67061595D01*
X149370426Y-67061595D02*
X149370426Y-67204452D01*
X149370426Y-67204452D02*
X149322807Y-67299690D01*
X149322807Y-67299690D02*
X149275188Y-67347309D01*
X149275188Y-67347309D02*
X149179950Y-67394928D01*
X149179950Y-67394928D02*
X148798998Y-67394928D01*
X149798998Y-67347309D02*
X150132331Y-67347309D01*
X150275188Y-67871119D02*
X149798998Y-67871119D01*
X149798998Y-67871119D02*
X149798998Y-66871119D01*
X149798998Y-66871119D02*
X150275188Y-66871119D01*
X150703760Y-67347309D02*
X151037093Y-67347309D01*
X151179950Y-67871119D02*
X150703760Y-67871119D01*
X150703760Y-67871119D02*
X150703760Y-66871119D01*
X150703760Y-66871119D02*
X151179950Y-66871119D01*
X151608522Y-67871119D02*
X151608522Y-66871119D01*
X151608522Y-66871119D02*
X152179950Y-67871119D01*
X152179950Y-67871119D02*
X152179950Y-66871119D01*
X152560903Y-68252071D02*
X152608522Y-68204452D01*
X152608522Y-68204452D02*
X152703760Y-68061595D01*
X152703760Y-68061595D02*
X152751379Y-67966357D01*
X152751379Y-67966357D02*
X152798998Y-67823500D01*
X152798998Y-67823500D02*
X152846617Y-67585404D01*
X152846617Y-67585404D02*
X152846617Y-67394928D01*
X152846617Y-67394928D02*
X152798998Y-67156833D01*
X152798998Y-67156833D02*
X152751379Y-67013976D01*
X152751379Y-67013976D02*
X152703760Y-66918738D01*
X152703760Y-66918738D02*
X152608522Y-66775880D01*
X152608522Y-66775880D02*
X152560903Y-66728261D01*
X139798045Y-68252071D02*
X139750426Y-68204452D01*
X139750426Y-68204452D02*
X139655188Y-68061595D01*
X139655188Y-68061595D02*
X139607569Y-67966357D01*
X139607569Y-67966357D02*
X139559950Y-67823500D01*
X139559950Y-67823500D02*
X139512331Y-67585404D01*
X139512331Y-67585404D02*
X139512331Y-67394928D01*
X139512331Y-67394928D02*
X139559950Y-67156833D01*
X139559950Y-67156833D02*
X139607569Y-67013976D01*
X139607569Y-67013976D02*
X139655188Y-66918738D01*
X139655188Y-66918738D02*
X139750426Y-66775880D01*
X139750426Y-66775880D02*
X139798045Y-66728261D01*
X140083760Y-66871119D02*
X140321855Y-67871119D01*
X140321855Y-67871119D02*
X140512331Y-67156833D01*
X140512331Y-67156833D02*
X140702807Y-67871119D01*
X140702807Y-67871119D02*
X140940903Y-66871119D01*
X141321855Y-67871119D02*
X141321855Y-66871119D01*
X141321855Y-67347309D02*
X141893283Y-67347309D01*
X141893283Y-67871119D02*
X141893283Y-66871119D01*
X142369474Y-67871119D02*
X142369474Y-66871119D01*
X142702807Y-66871119D02*
X143274235Y-66871119D01*
X142988521Y-67871119D02*
X142988521Y-66871119D01*
X143607569Y-67347309D02*
X143940902Y-67347309D01*
X144083759Y-67871119D02*
X143607569Y-67871119D01*
X143607569Y-67871119D02*
X143607569Y-66871119D01*
X143607569Y-66871119D02*
X144083759Y-66871119D01*
X144417093Y-68252071D02*
X144464712Y-68204452D01*
X144464712Y-68204452D02*
X144559950Y-68061595D01*
X144559950Y-68061595D02*
X144607569Y-67966357D01*
X144607569Y-67966357D02*
X144655188Y-67823500D01*
X144655188Y-67823500D02*
X144702807Y-67585404D01*
X144702807Y-67585404D02*
X144702807Y-67394928D01*
X144702807Y-67394928D02*
X144655188Y-67156833D01*
X144655188Y-67156833D02*
X144607569Y-67013976D01*
X144607569Y-67013976D02*
X144559950Y-66918738D01*
X144559950Y-66918738D02*
X144464712Y-66775880D01*
X144464712Y-66775880D02*
X144417093Y-66728261D01*
D10*
X157313333Y-98403580D02*
X157265714Y-98451200D01*
X157265714Y-98451200D02*
X157122857Y-98498819D01*
X157122857Y-98498819D02*
X157027619Y-98498819D01*
X157027619Y-98498819D02*
X156884762Y-98451200D01*
X156884762Y-98451200D02*
X156789524Y-98355961D01*
X156789524Y-98355961D02*
X156741905Y-98260723D01*
X156741905Y-98260723D02*
X156694286Y-98070247D01*
X156694286Y-98070247D02*
X156694286Y-97927390D01*
X156694286Y-97927390D02*
X156741905Y-97736914D01*
X156741905Y-97736914D02*
X156789524Y-97641676D01*
X156789524Y-97641676D02*
X156884762Y-97546438D01*
X156884762Y-97546438D02*
X157027619Y-97498819D01*
X157027619Y-97498819D02*
X157122857Y-97498819D01*
X157122857Y-97498819D02*
X157265714Y-97546438D01*
X157265714Y-97546438D02*
X157313333Y-97594057D01*
X158170476Y-97498819D02*
X157980000Y-97498819D01*
X157980000Y-97498819D02*
X157884762Y-97546438D01*
X157884762Y-97546438D02*
X157837143Y-97594057D01*
X157837143Y-97594057D02*
X157741905Y-97736914D01*
X157741905Y-97736914D02*
X157694286Y-97927390D01*
X157694286Y-97927390D02*
X157694286Y-98308342D01*
X157694286Y-98308342D02*
X157741905Y-98403580D01*
X157741905Y-98403580D02*
X157789524Y-98451200D01*
X157789524Y-98451200D02*
X157884762Y-98498819D01*
X157884762Y-98498819D02*
X158075238Y-98498819D01*
X158075238Y-98498819D02*
X158170476Y-98451200D01*
X158170476Y-98451200D02*
X158218095Y-98403580D01*
X158218095Y-98403580D02*
X158265714Y-98308342D01*
X158265714Y-98308342D02*
X158265714Y-98070247D01*
X158265714Y-98070247D02*
X158218095Y-97975009D01*
X158218095Y-97975009D02*
X158170476Y-97927390D01*
X158170476Y-97927390D02*
X158075238Y-97879771D01*
X158075238Y-97879771D02*
X157884762Y-97879771D01*
X157884762Y-97879771D02*
X157789524Y-97927390D01*
X157789524Y-97927390D02*
X157741905Y-97975009D01*
X157741905Y-97975009D02*
X157694286Y-98070247D01*
X155837143Y-98768819D02*
X155932381Y-98768819D01*
X155932381Y-98768819D02*
X156027619Y-98816438D01*
X156027619Y-98816438D02*
X156075238Y-98864057D01*
X156075238Y-98864057D02*
X156122857Y-98959295D01*
X156122857Y-98959295D02*
X156170476Y-99149771D01*
X156170476Y-99149771D02*
X156170476Y-99387866D01*
X156170476Y-99387866D02*
X156122857Y-99578342D01*
X156122857Y-99578342D02*
X156075238Y-99673580D01*
X156075238Y-99673580D02*
X156027619Y-99721200D01*
X156027619Y-99721200D02*
X155932381Y-99768819D01*
X155932381Y-99768819D02*
X155837143Y-99768819D01*
X155837143Y-99768819D02*
X155741905Y-99721200D01*
X155741905Y-99721200D02*
X155694286Y-99673580D01*
X155694286Y-99673580D02*
X155646667Y-99578342D01*
X155646667Y-99578342D02*
X155599048Y-99387866D01*
X155599048Y-99387866D02*
X155599048Y-99149771D01*
X155599048Y-99149771D02*
X155646667Y-98959295D01*
X155646667Y-98959295D02*
X155694286Y-98864057D01*
X155694286Y-98864057D02*
X155741905Y-98816438D01*
X155741905Y-98816438D02*
X155837143Y-98768819D01*
X156599048Y-99673580D02*
X156646667Y-99721200D01*
X156646667Y-99721200D02*
X156599048Y-99768819D01*
X156599048Y-99768819D02*
X156551429Y-99721200D01*
X156551429Y-99721200D02*
X156599048Y-99673580D01*
X156599048Y-99673580D02*
X156599048Y-99768819D01*
X157599047Y-99768819D02*
X157027619Y-99768819D01*
X157313333Y-99768819D02*
X157313333Y-98768819D01*
X157313333Y-98768819D02*
X157218095Y-98911676D01*
X157218095Y-98911676D02*
X157122857Y-99006914D01*
X157122857Y-99006914D02*
X157027619Y-99054533D01*
X158456190Y-99102152D02*
X158456190Y-99768819D01*
X158027619Y-99102152D02*
X158027619Y-99625961D01*
X158027619Y-99625961D02*
X158075238Y-99721200D01*
X158075238Y-99721200D02*
X158170476Y-99768819D01*
X158170476Y-99768819D02*
X158313333Y-99768819D01*
X158313333Y-99768819D02*
X158408571Y-99721200D01*
X158408571Y-99721200D02*
X158456190Y-99673580D01*
X159265714Y-99245009D02*
X158932381Y-99245009D01*
X158932381Y-99768819D02*
X158932381Y-98768819D01*
X158932381Y-98768819D02*
X159408571Y-98768819D01*
X129294095Y-63716819D02*
X129865523Y-63716819D01*
X129579809Y-64716819D02*
X129579809Y-63716819D01*
X130198857Y-64716819D02*
X130198857Y-63716819D01*
X130198857Y-63716819D02*
X130579809Y-63716819D01*
X130579809Y-63716819D02*
X130675047Y-63764438D01*
X130675047Y-63764438D02*
X130722666Y-63812057D01*
X130722666Y-63812057D02*
X130770285Y-63907295D01*
X130770285Y-63907295D02*
X130770285Y-64050152D01*
X130770285Y-64050152D02*
X130722666Y-64145390D01*
X130722666Y-64145390D02*
X130675047Y-64193009D01*
X130675047Y-64193009D02*
X130579809Y-64240628D01*
X130579809Y-64240628D02*
X130198857Y-64240628D01*
X131151238Y-63812057D02*
X131198857Y-63764438D01*
X131198857Y-63764438D02*
X131294095Y-63716819D01*
X131294095Y-63716819D02*
X131532190Y-63716819D01*
X131532190Y-63716819D02*
X131627428Y-63764438D01*
X131627428Y-63764438D02*
X131675047Y-63812057D01*
X131675047Y-63812057D02*
X131722666Y-63907295D01*
X131722666Y-63907295D02*
X131722666Y-64002533D01*
X131722666Y-64002533D02*
X131675047Y-64145390D01*
X131675047Y-64145390D02*
X131103619Y-64716819D01*
X131103619Y-64716819D02*
X131722666Y-64716819D01*
X138537333Y-93537580D02*
X138489714Y-93585200D01*
X138489714Y-93585200D02*
X138346857Y-93632819D01*
X138346857Y-93632819D02*
X138251619Y-93632819D01*
X138251619Y-93632819D02*
X138108762Y-93585200D01*
X138108762Y-93585200D02*
X138013524Y-93489961D01*
X138013524Y-93489961D02*
X137965905Y-93394723D01*
X137965905Y-93394723D02*
X137918286Y-93204247D01*
X137918286Y-93204247D02*
X137918286Y-93061390D01*
X137918286Y-93061390D02*
X137965905Y-92870914D01*
X137965905Y-92870914D02*
X138013524Y-92775676D01*
X138013524Y-92775676D02*
X138108762Y-92680438D01*
X138108762Y-92680438D02*
X138251619Y-92632819D01*
X138251619Y-92632819D02*
X138346857Y-92632819D01*
X138346857Y-92632819D02*
X138489714Y-92680438D01*
X138489714Y-92680438D02*
X138537333Y-92728057D01*
X139442095Y-92632819D02*
X138965905Y-92632819D01*
X138965905Y-92632819D02*
X138918286Y-93109009D01*
X138918286Y-93109009D02*
X138965905Y-93061390D01*
X138965905Y-93061390D02*
X139061143Y-93013771D01*
X139061143Y-93013771D02*
X139299238Y-93013771D01*
X139299238Y-93013771D02*
X139394476Y-93061390D01*
X139394476Y-93061390D02*
X139442095Y-93109009D01*
X139442095Y-93109009D02*
X139489714Y-93204247D01*
X139489714Y-93204247D02*
X139489714Y-93442342D01*
X139489714Y-93442342D02*
X139442095Y-93537580D01*
X139442095Y-93537580D02*
X139394476Y-93585200D01*
X139394476Y-93585200D02*
X139299238Y-93632819D01*
X139299238Y-93632819D02*
X139061143Y-93632819D01*
X139061143Y-93632819D02*
X138965905Y-93585200D01*
X138965905Y-93585200D02*
X138918286Y-93537580D01*
X137061143Y-94069819D02*
X137156381Y-94069819D01*
X137156381Y-94069819D02*
X137251619Y-94117438D01*
X137251619Y-94117438D02*
X137299238Y-94165057D01*
X137299238Y-94165057D02*
X137346857Y-94260295D01*
X137346857Y-94260295D02*
X137394476Y-94450771D01*
X137394476Y-94450771D02*
X137394476Y-94688866D01*
X137394476Y-94688866D02*
X137346857Y-94879342D01*
X137346857Y-94879342D02*
X137299238Y-94974580D01*
X137299238Y-94974580D02*
X137251619Y-95022200D01*
X137251619Y-95022200D02*
X137156381Y-95069819D01*
X137156381Y-95069819D02*
X137061143Y-95069819D01*
X137061143Y-95069819D02*
X136965905Y-95022200D01*
X136965905Y-95022200D02*
X136918286Y-94974580D01*
X136918286Y-94974580D02*
X136870667Y-94879342D01*
X136870667Y-94879342D02*
X136823048Y-94688866D01*
X136823048Y-94688866D02*
X136823048Y-94450771D01*
X136823048Y-94450771D02*
X136870667Y-94260295D01*
X136870667Y-94260295D02*
X136918286Y-94165057D01*
X136918286Y-94165057D02*
X136965905Y-94117438D01*
X136965905Y-94117438D02*
X137061143Y-94069819D01*
X137823048Y-94974580D02*
X137870667Y-95022200D01*
X137870667Y-95022200D02*
X137823048Y-95069819D01*
X137823048Y-95069819D02*
X137775429Y-95022200D01*
X137775429Y-95022200D02*
X137823048Y-94974580D01*
X137823048Y-94974580D02*
X137823048Y-95069819D01*
X138823047Y-95069819D02*
X138251619Y-95069819D01*
X138537333Y-95069819D02*
X138537333Y-94069819D01*
X138537333Y-94069819D02*
X138442095Y-94212676D01*
X138442095Y-94212676D02*
X138346857Y-94307914D01*
X138346857Y-94307914D02*
X138251619Y-94355533D01*
X139680190Y-94403152D02*
X139680190Y-95069819D01*
X139251619Y-94403152D02*
X139251619Y-94926961D01*
X139251619Y-94926961D02*
X139299238Y-95022200D01*
X139299238Y-95022200D02*
X139394476Y-95069819D01*
X139394476Y-95069819D02*
X139537333Y-95069819D01*
X139537333Y-95069819D02*
X139632571Y-95022200D01*
X139632571Y-95022200D02*
X139680190Y-94974580D01*
X140489714Y-94546009D02*
X140156381Y-94546009D01*
X140156381Y-95069819D02*
X140156381Y-94069819D01*
X140156381Y-94069819D02*
X140632571Y-94069819D01*
X120483333Y-95609580D02*
X120435714Y-95657200D01*
X120435714Y-95657200D02*
X120292857Y-95704819D01*
X120292857Y-95704819D02*
X120197619Y-95704819D01*
X120197619Y-95704819D02*
X120054762Y-95657200D01*
X120054762Y-95657200D02*
X119959524Y-95561961D01*
X119959524Y-95561961D02*
X119911905Y-95466723D01*
X119911905Y-95466723D02*
X119864286Y-95276247D01*
X119864286Y-95276247D02*
X119864286Y-95133390D01*
X119864286Y-95133390D02*
X119911905Y-94942914D01*
X119911905Y-94942914D02*
X119959524Y-94847676D01*
X119959524Y-94847676D02*
X120054762Y-94752438D01*
X120054762Y-94752438D02*
X120197619Y-94704819D01*
X120197619Y-94704819D02*
X120292857Y-94704819D01*
X120292857Y-94704819D02*
X120435714Y-94752438D01*
X120435714Y-94752438D02*
X120483333Y-94800057D01*
X121340476Y-95038152D02*
X121340476Y-95704819D01*
X121102381Y-94657200D02*
X120864286Y-95371485D01*
X120864286Y-95371485D02*
X121483333Y-95371485D01*
X119007143Y-96101819D02*
X119102381Y-96101819D01*
X119102381Y-96101819D02*
X119197619Y-96149438D01*
X119197619Y-96149438D02*
X119245238Y-96197057D01*
X119245238Y-96197057D02*
X119292857Y-96292295D01*
X119292857Y-96292295D02*
X119340476Y-96482771D01*
X119340476Y-96482771D02*
X119340476Y-96720866D01*
X119340476Y-96720866D02*
X119292857Y-96911342D01*
X119292857Y-96911342D02*
X119245238Y-97006580D01*
X119245238Y-97006580D02*
X119197619Y-97054200D01*
X119197619Y-97054200D02*
X119102381Y-97101819D01*
X119102381Y-97101819D02*
X119007143Y-97101819D01*
X119007143Y-97101819D02*
X118911905Y-97054200D01*
X118911905Y-97054200D02*
X118864286Y-97006580D01*
X118864286Y-97006580D02*
X118816667Y-96911342D01*
X118816667Y-96911342D02*
X118769048Y-96720866D01*
X118769048Y-96720866D02*
X118769048Y-96482771D01*
X118769048Y-96482771D02*
X118816667Y-96292295D01*
X118816667Y-96292295D02*
X118864286Y-96197057D01*
X118864286Y-96197057D02*
X118911905Y-96149438D01*
X118911905Y-96149438D02*
X119007143Y-96101819D01*
X119769048Y-97006580D02*
X119816667Y-97054200D01*
X119816667Y-97054200D02*
X119769048Y-97101819D01*
X119769048Y-97101819D02*
X119721429Y-97054200D01*
X119721429Y-97054200D02*
X119769048Y-97006580D01*
X119769048Y-97006580D02*
X119769048Y-97101819D01*
X120769047Y-97101819D02*
X120197619Y-97101819D01*
X120483333Y-97101819D02*
X120483333Y-96101819D01*
X120483333Y-96101819D02*
X120388095Y-96244676D01*
X120388095Y-96244676D02*
X120292857Y-96339914D01*
X120292857Y-96339914D02*
X120197619Y-96387533D01*
X121626190Y-96435152D02*
X121626190Y-97101819D01*
X121197619Y-96435152D02*
X121197619Y-96958961D01*
X121197619Y-96958961D02*
X121245238Y-97054200D01*
X121245238Y-97054200D02*
X121340476Y-97101819D01*
X121340476Y-97101819D02*
X121483333Y-97101819D01*
X121483333Y-97101819D02*
X121578571Y-97054200D01*
X121578571Y-97054200D02*
X121626190Y-97006580D01*
X122435714Y-96578009D02*
X122102381Y-96578009D01*
X122102381Y-97101819D02*
X122102381Y-96101819D01*
X122102381Y-96101819D02*
X122578571Y-96101819D01*
X134374095Y-63716819D02*
X134945523Y-63716819D01*
X134659809Y-64716819D02*
X134659809Y-63716819D01*
X135278857Y-64716819D02*
X135278857Y-63716819D01*
X135278857Y-63716819D02*
X135659809Y-63716819D01*
X135659809Y-63716819D02*
X135755047Y-63764438D01*
X135755047Y-63764438D02*
X135802666Y-63812057D01*
X135802666Y-63812057D02*
X135850285Y-63907295D01*
X135850285Y-63907295D02*
X135850285Y-64050152D01*
X135850285Y-64050152D02*
X135802666Y-64145390D01*
X135802666Y-64145390D02*
X135755047Y-64193009D01*
X135755047Y-64193009D02*
X135659809Y-64240628D01*
X135659809Y-64240628D02*
X135278857Y-64240628D01*
X136802666Y-64716819D02*
X136231238Y-64716819D01*
X136516952Y-64716819D02*
X136516952Y-63716819D01*
X136516952Y-63716819D02*
X136421714Y-63859676D01*
X136421714Y-63859676D02*
X136326476Y-63954914D01*
X136326476Y-63954914D02*
X136231238Y-64002533D01*
D13*
X153824000Y-99976000D02*
X153824000Y-102716000D01*
X153824000Y-99976000D02*
X159064000Y-99976000D01*
X153824000Y-102716000D02*
X159064000Y-102716000D01*
X159064000Y-99976000D02*
X159064000Y-102716000D01*
X129356000Y-60776000D02*
X131756000Y-60776000D01*
X129356000Y-63176000D02*
X129356000Y-60776000D01*
X131756000Y-60776000D02*
X131756000Y-63176000D01*
X131756000Y-63176000D02*
X129356000Y-63176000D01*
X136084000Y-92048000D02*
X136084000Y-89308000D01*
X141324000Y-89308000D02*
X136084000Y-89308000D01*
X141324000Y-92048000D02*
X136084000Y-92048000D01*
X141324000Y-92048000D02*
X141324000Y-89308000D01*
X119280000Y-89054000D02*
X119280000Y-94294000D01*
X122020000Y-89054000D02*
X119280000Y-89054000D01*
X122020000Y-89054000D02*
X122020000Y-94294000D01*
X122020000Y-94294000D02*
X119280000Y-94294000D01*
X134436000Y-60776000D02*
X136836000Y-60776000D01*
X134436000Y-63176000D02*
X134436000Y-60776000D01*
X136836000Y-60776000D02*
X136836000Y-63176000D01*
X136836000Y-63176000D02*
X134436000Y-63176000D01*
D14*
G36*
X120083308Y-70953233D02*
G01*
X120064210Y-70972331D01*
X120045112Y-70953233D01*
X120064210Y-70934135D01*
X120083308Y-70953233D01*
G37*
G36*
X122833383Y-67553834D02*
G01*
X122814285Y-67572932D01*
X122795188Y-67553834D01*
X122814285Y-67534737D01*
X122833383Y-67553834D01*
G37*
G36*
X123750075Y-66407970D02*
G01*
X123730977Y-66427068D01*
X123711879Y-66407970D01*
X123730977Y-66388872D01*
X123750075Y-66407970D01*
G37*
G36*
X123750075Y-66522556D02*
G01*
X123730977Y-66541654D01*
X123711879Y-66522556D01*
X123730977Y-66503459D01*
X123750075Y-66522556D01*
G37*
G36*
X124093834Y-67362857D02*
G01*
X124074737Y-67381955D01*
X124055639Y-67362857D01*
X124074737Y-67343759D01*
X124093834Y-67362857D01*
G37*
G36*
X124132030Y-66904511D02*
G01*
X124112932Y-66923609D01*
X124093834Y-66904511D01*
X124112932Y-66885413D01*
X124132030Y-66904511D01*
G37*
G36*
X124170225Y-66484361D02*
G01*
X124151128Y-66503459D01*
X124132030Y-66484361D01*
X124151128Y-66465263D01*
X124170225Y-66484361D01*
G37*
G36*
X124895940Y-66904511D02*
G01*
X124876842Y-66923609D01*
X124857744Y-66904511D01*
X124876842Y-66885413D01*
X124895940Y-66904511D01*
G37*
G36*
X124895940Y-67133684D02*
G01*
X124876842Y-67152782D01*
X124857744Y-67133684D01*
X124876842Y-67114586D01*
X124895940Y-67133684D01*
G37*
G36*
X125010526Y-68432331D02*
G01*
X124991428Y-68451428D01*
X124972331Y-68432331D01*
X124991428Y-68413233D01*
X125010526Y-68432331D01*
G37*
G36*
X125086917Y-68394135D02*
G01*
X125067819Y-68413233D01*
X125048722Y-68394135D01*
X125067819Y-68375037D01*
X125086917Y-68394135D01*
G37*
G36*
X125277894Y-66942707D02*
G01*
X125258797Y-66961804D01*
X125239699Y-66942707D01*
X125258797Y-66923609D01*
X125277894Y-66942707D01*
G37*
G36*
X125621654Y-67171880D02*
G01*
X125602556Y-67190977D01*
X125583458Y-67171880D01*
X125602556Y-67152782D01*
X125621654Y-67171880D01*
G37*
G36*
X125621654Y-67286466D02*
G01*
X125602556Y-67305564D01*
X125583458Y-67286466D01*
X125602556Y-67267368D01*
X125621654Y-67286466D01*
G37*
G36*
X125698045Y-66675338D02*
G01*
X125678947Y-66694436D01*
X125659849Y-66675338D01*
X125678947Y-66656240D01*
X125698045Y-66675338D01*
G37*
G36*
X125965413Y-67362857D02*
G01*
X125946315Y-67381955D01*
X125927218Y-67362857D01*
X125946315Y-67343759D01*
X125965413Y-67362857D01*
G37*
G36*
X126041804Y-66789925D02*
G01*
X126022706Y-66809022D01*
X126003609Y-66789925D01*
X126022706Y-66770827D01*
X126041804Y-66789925D01*
G37*
G36*
X126118195Y-66293383D02*
G01*
X126099097Y-66312481D01*
X126080000Y-66293383D01*
X126099097Y-66274286D01*
X126118195Y-66293383D01*
G37*
G36*
X126232782Y-67973985D02*
G01*
X126213684Y-67993083D01*
X126194586Y-67973985D01*
X126213684Y-67954887D01*
X126232782Y-67973985D01*
G37*
G36*
X126309173Y-67477443D02*
G01*
X126290075Y-67496541D01*
X126270977Y-67477443D01*
X126290075Y-67458346D01*
X126309173Y-67477443D01*
G37*
G36*
X126461955Y-66407970D02*
G01*
X126442857Y-66427068D01*
X126423759Y-66407970D01*
X126442857Y-66388872D01*
X126461955Y-66407970D01*
G37*
G36*
X119574035Y-70412130D02*
G01*
X119578606Y-70457459D01*
X119574035Y-70463058D01*
X119551328Y-70457814D01*
X119548571Y-70437594D01*
X119562546Y-70406155D01*
X119574035Y-70412130D01*
G37*
G36*
X120033009Y-71079756D02*
G01*
X120037562Y-71139450D01*
X120029993Y-71152964D01*
X120012633Y-71141572D01*
X120009932Y-71102832D01*
X120019261Y-71062076D01*
X120033009Y-71079756D01*
G37*
G36*
X120491355Y-70048477D02*
G01*
X120495908Y-70108172D01*
X120488339Y-70121685D01*
X120470979Y-70110294D01*
X120468278Y-70071554D01*
X120477606Y-70030798D01*
X120491355Y-70048477D01*
G37*
G36*
X122362934Y-67451184D02*
G01*
X122367487Y-67510879D01*
X122359918Y-67524392D01*
X122342558Y-67513001D01*
X122339857Y-67474261D01*
X122349185Y-67433505D01*
X122362934Y-67451184D01*
G37*
G36*
X122782456Y-67700251D02*
G01*
X122787027Y-67745580D01*
X122782456Y-67751178D01*
X122759749Y-67745935D01*
X122756992Y-67725714D01*
X122770967Y-67694275D01*
X122782456Y-67700251D01*
G37*
G36*
X124119298Y-66783559D02*
G01*
X124123869Y-66828888D01*
X124119298Y-66834486D01*
X124096591Y-66829243D01*
X124093834Y-66809022D01*
X124107809Y-66777583D01*
X124119298Y-66783559D01*
G37*
G36*
X124157493Y-66363408D02*
G01*
X124162065Y-66408738D01*
X124157493Y-66414336D01*
X124134786Y-66409093D01*
X124132030Y-66388872D01*
X124146005Y-66357433D01*
X124157493Y-66363408D01*
G37*
G36*
X124539281Y-66646692D02*
G01*
X124544326Y-66724891D01*
X124539281Y-66742180D01*
X124525340Y-66746979D01*
X124520016Y-66694436D01*
X124526018Y-66640212D01*
X124539281Y-66646692D01*
G37*
G36*
X124577644Y-66287017D02*
G01*
X124582215Y-66332347D01*
X124577644Y-66337945D01*
X124554937Y-66332702D01*
X124552180Y-66312481D01*
X124566155Y-66281042D01*
X124577644Y-66287017D01*
G37*
G36*
X124615839Y-65981454D02*
G01*
X124620411Y-66026783D01*
X124615839Y-66032381D01*
X124593132Y-66027138D01*
X124590376Y-66006917D01*
X124604351Y-65975478D01*
X124615839Y-65981454D01*
G37*
G36*
X124883208Y-66974536D02*
G01*
X124887779Y-67019865D01*
X124883208Y-67025464D01*
X124860501Y-67020220D01*
X124857744Y-67000000D01*
X124871719Y-66968561D01*
X124883208Y-66974536D01*
G37*
G36*
X124959599Y-66363408D02*
G01*
X124964170Y-66408738D01*
X124959599Y-66414336D01*
X124936892Y-66409093D01*
X124934135Y-66388872D01*
X124948110Y-66357433D01*
X124959599Y-66363408D01*
G37*
G36*
X125035990Y-65790476D02*
G01*
X125040561Y-65835805D01*
X125035990Y-65841403D01*
X125013282Y-65836160D01*
X125010526Y-65815940D01*
X125024501Y-65784501D01*
X125035990Y-65790476D01*
G37*
G36*
X125227595Y-67336598D02*
G01*
X125232149Y-67396293D01*
X125224580Y-67409806D01*
X125207220Y-67398414D01*
X125204519Y-67359674D01*
X125213847Y-67318918D01*
X125227595Y-67336598D01*
G37*
G36*
X125265791Y-67031034D02*
G01*
X125270344Y-67090729D01*
X125262775Y-67104242D01*
X125245415Y-67092850D01*
X125242714Y-67054110D01*
X125252042Y-67013354D01*
X125265791Y-67031034D01*
G37*
G36*
X125303191Y-66646692D02*
G01*
X125308235Y-66724891D01*
X125303191Y-66742180D01*
X125289250Y-66746979D01*
X125283925Y-66694436D01*
X125289928Y-66640212D01*
X125303191Y-66646692D01*
G37*
G36*
X125341554Y-66401604D02*
G01*
X125346125Y-66446933D01*
X125341554Y-66452531D01*
X125318846Y-66447288D01*
X125316090Y-66427068D01*
X125330065Y-66395628D01*
X125341554Y-66401604D01*
G37*
G36*
X125647746Y-66916447D02*
G01*
X125652299Y-66976142D01*
X125644730Y-66989655D01*
X125627370Y-66978264D01*
X125624669Y-66939524D01*
X125633997Y-66898768D01*
X125647746Y-66916447D01*
G37*
G36*
X125990877Y-67050927D02*
G01*
X125995448Y-67096256D01*
X125990877Y-67101855D01*
X125968170Y-67096611D01*
X125965413Y-67076391D01*
X125979388Y-67044952D01*
X125990877Y-67050927D01*
G37*
G36*
X126067268Y-66516190D02*
G01*
X126071839Y-66561519D01*
X126067268Y-66567118D01*
X126044561Y-66561875D01*
X126041804Y-66541654D01*
X126055779Y-66510215D01*
X126067268Y-66516190D01*
G37*
G36*
X126258245Y-67700251D02*
G01*
X126262817Y-67745580D01*
X126258245Y-67751178D01*
X126235538Y-67745935D01*
X126232782Y-67725714D01*
X126246757Y-67694275D01*
X126258245Y-67700251D01*
G37*
G36*
X126334636Y-67127318D02*
G01*
X126339208Y-67172647D01*
X126334636Y-67178245D01*
X126311929Y-67173002D01*
X126309173Y-67152782D01*
X126323148Y-67121343D01*
X126334636Y-67127318D01*
G37*
G36*
X126373460Y-66878252D02*
G01*
X126378013Y-66937947D01*
X126370445Y-66951460D01*
X126353084Y-66940068D01*
X126350384Y-66901328D01*
X126359712Y-66860572D01*
X126373460Y-66878252D01*
G37*
G36*
X126487418Y-66134235D02*
G01*
X126491989Y-66179565D01*
X126487418Y-66185163D01*
X126464711Y-66179920D01*
X126461955Y-66159699D01*
X126475930Y-66128260D01*
X126487418Y-66134235D01*
G37*
G36*
X119116554Y-70981880D02*
G01*
X119122495Y-71078752D01*
X119116554Y-71115564D01*
X119105484Y-71127451D01*
X119099456Y-71074637D01*
X119099087Y-71048722D01*
X119103069Y-70979232D01*
X119112984Y-70971042D01*
X119116554Y-70981880D01*
G37*
G36*
X119575585Y-70657663D02*
G01*
X119581735Y-70757187D01*
X119574814Y-70810445D01*
X119564490Y-70819374D01*
X119558697Y-70764523D01*
X119558203Y-70724060D01*
X119561964Y-70650091D01*
X119570591Y-70638869D01*
X119575585Y-70657663D01*
G37*
G36*
X122364199Y-67773459D02*
G01*
X122370593Y-67896834D01*
X122364199Y-67983534D01*
X122355873Y-68007230D01*
X122350113Y-67963851D01*
X122348288Y-67878496D01*
X122350656Y-67784199D01*
X122356822Y-67748858D01*
X122364199Y-67773459D01*
G37*
G36*
X122822143Y-67219624D02*
G01*
X122828463Y-67330925D01*
X122822143Y-67391504D01*
X122812698Y-67409604D01*
X122806705Y-67361616D01*
X122805591Y-67305564D01*
X122808570Y-67222953D01*
X122816188Y-67200275D01*
X122822143Y-67219624D01*
G37*
G36*
X123242696Y-67353308D02*
G01*
X123249090Y-67476684D01*
X123242696Y-67563383D01*
X123234369Y-67587079D01*
X123228609Y-67543700D01*
X123226784Y-67458346D01*
X123229152Y-67364049D01*
X123235318Y-67328708D01*
X123242696Y-67353308D01*
G37*
G36*
X123279863Y-66894962D02*
G01*
X123285803Y-66991835D01*
X123279863Y-67028646D01*
X123268792Y-67040534D01*
X123262764Y-66987719D01*
X123262395Y-66961804D01*
X123266377Y-66892315D01*
X123276292Y-66884125D01*
X123279863Y-66894962D01*
G37*
G36*
X123700013Y-66856767D02*
G01*
X123705953Y-66953639D01*
X123700013Y-66990451D01*
X123688942Y-67002338D01*
X123682915Y-66949524D01*
X123682545Y-66923609D01*
X123686528Y-66854119D01*
X123696442Y-66845930D01*
X123700013Y-66856767D01*
G37*
G36*
X124044399Y-67525188D02*
G01*
X124050718Y-67636489D01*
X124044399Y-67697068D01*
X124034954Y-67715168D01*
X124028961Y-67667180D01*
X124027846Y-67611128D01*
X124030826Y-67528517D01*
X124038444Y-67505839D01*
X124044399Y-67525188D01*
G37*
G36*
X124082595Y-67066842D02*
G01*
X124088914Y-67178143D01*
X124082595Y-67238722D01*
X124073149Y-67256822D01*
X124067156Y-67208834D01*
X124066042Y-67152782D01*
X124069022Y-67070171D01*
X124076639Y-67047493D01*
X124082595Y-67066842D01*
G37*
G36*
X124500368Y-66889122D02*
G01*
X124502258Y-66895689D01*
X124507850Y-66978891D01*
X124500843Y-67010276D01*
X124488304Y-67011545D01*
X124483183Y-66951752D01*
X124483235Y-66942707D01*
X124488743Y-66883467D01*
X124500368Y-66889122D01*
G37*
G36*
X124808309Y-67677970D02*
G01*
X124814628Y-67789271D01*
X124808309Y-67849850D01*
X124798863Y-67867950D01*
X124792870Y-67819962D01*
X124791756Y-67763910D01*
X124794736Y-67681299D01*
X124802354Y-67658621D01*
X124808309Y-67677970D01*
G37*
G36*
X124845878Y-67315113D02*
G01*
X124851818Y-67411985D01*
X124845878Y-67448797D01*
X124834807Y-67460684D01*
X124828779Y-67407870D01*
X124828410Y-67381955D01*
X124832392Y-67312465D01*
X124842307Y-67304275D01*
X124845878Y-67315113D01*
G37*
G36*
X124920519Y-66698145D02*
G01*
X124922409Y-66704712D01*
X124928000Y-66787913D01*
X124920993Y-66819298D01*
X124908454Y-66820568D01*
X124903333Y-66760775D01*
X124903386Y-66751729D01*
X124908893Y-66692490D01*
X124920519Y-66698145D01*
G37*
G36*
X125152068Y-67907143D02*
G01*
X125158387Y-68018444D01*
X125152068Y-68079022D01*
X125142623Y-68097123D01*
X125136630Y-68049134D01*
X125135516Y-67993083D01*
X125138495Y-67910472D01*
X125146113Y-67887794D01*
X125152068Y-67907143D01*
G37*
G36*
X125189637Y-67582481D02*
G01*
X125195577Y-67679354D01*
X125189637Y-67716165D01*
X125178566Y-67728053D01*
X125172539Y-67675238D01*
X125172169Y-67649323D01*
X125176152Y-67579833D01*
X125186066Y-67571644D01*
X125189637Y-67582481D01*
G37*
G36*
X125315652Y-68977521D02*
G01*
X125316090Y-68986165D01*
X125286727Y-69022893D01*
X125275640Y-69024361D01*
X125252829Y-69000961D01*
X125258797Y-68986165D01*
X125293119Y-68949727D01*
X125299246Y-68947970D01*
X125315652Y-68977521D01*
G37*
G36*
X125534082Y-67754806D02*
G01*
X125540231Y-67854329D01*
X125533311Y-67907588D01*
X125522986Y-67916517D01*
X125517193Y-67861666D01*
X125516700Y-67821203D01*
X125520460Y-67747234D01*
X125529087Y-67736012D01*
X125534082Y-67754806D01*
G37*
G36*
X125569842Y-67500250D02*
G01*
X125571732Y-67506817D01*
X125577324Y-67590019D01*
X125570317Y-67621403D01*
X125557778Y-67622673D01*
X125552657Y-67562880D01*
X125552709Y-67553834D01*
X125558217Y-67494595D01*
X125569842Y-67500250D01*
G37*
G36*
X125913601Y-67576641D02*
G01*
X125915491Y-67583208D01*
X125921083Y-67666410D01*
X125914076Y-67697794D01*
X125901537Y-67699064D01*
X125896416Y-67639271D01*
X125896468Y-67630225D01*
X125901976Y-67570986D01*
X125913601Y-67576641D01*
G37*
G36*
X124778402Y-68598191D02*
G01*
X124769932Y-68710170D01*
X124745107Y-68871579D01*
X124714524Y-69043459D01*
X124710328Y-68833383D01*
X124714419Y-68705282D01*
X124729444Y-68603472D01*
X124743158Y-68566015D01*
X124769464Y-68548045D01*
X124778402Y-68598191D01*
G37*
G36*
X122783632Y-67899671D02*
G01*
X122784623Y-67907143D01*
X122790944Y-68041076D01*
X122784623Y-68155413D01*
X122777134Y-68184241D01*
X122771655Y-68145246D01*
X122769249Y-68046988D01*
X122769218Y-68031278D01*
X122771173Y-67926343D01*
X122776332Y-67879621D01*
X122783632Y-67899671D01*
G37*
G36*
X120493422Y-70389850D02*
G01*
X120499077Y-70557568D01*
X120496385Y-70736732D01*
X120493422Y-70790902D01*
X120487936Y-70837200D01*
X120483455Y-70813846D01*
X120480451Y-70727577D01*
X120479394Y-70590376D01*
X120480518Y-70449585D01*
X120483575Y-70365184D01*
X120488095Y-70343910D01*
X120493422Y-70389850D01*
G37*
G36*
X124775803Y-67983449D02*
G01*
X124781018Y-68074380D01*
X124781353Y-68118147D01*
X124774695Y-68227354D01*
X124757854Y-68300689D01*
X124747928Y-68314796D01*
X124732252Y-68293535D01*
X124729253Y-68216413D01*
X124733912Y-68154720D01*
X124750903Y-68024658D01*
X124765316Y-67967221D01*
X124775803Y-67983449D01*
G37*
G36*
X122746043Y-68424327D02*
G01*
X122750753Y-68550833D01*
X122751269Y-68575564D01*
X122750567Y-68714967D01*
X122743571Y-68819067D01*
X122731701Y-68869516D01*
X122728346Y-68871603D01*
X122714231Y-68837261D01*
X122708636Y-68749000D01*
X122710612Y-68671076D01*
X122721528Y-68497484D01*
X122731214Y-68398159D01*
X122739458Y-68373604D01*
X122746043Y-68424327D01*
G37*
G36*
X124465412Y-67264571D02*
G01*
X124466634Y-67324662D01*
X124462003Y-67454672D01*
X124448430Y-67611970D01*
X124439194Y-67687519D01*
X124423100Y-67797160D01*
X124414006Y-67834955D01*
X124409775Y-67804902D01*
X124408553Y-67744812D01*
X124413185Y-67614801D01*
X124426757Y-67457503D01*
X124435993Y-67381955D01*
X124452087Y-67272314D01*
X124461181Y-67234518D01*
X124465412Y-67264571D01*
G37*
G36*
X121861080Y-68843054D02*
G01*
X121866507Y-68919190D01*
X121870787Y-69070887D01*
X121872075Y-69148496D01*
X121872299Y-69323429D01*
X121868145Y-69466495D01*
X121860350Y-69562781D01*
X121849849Y-69597383D01*
X121837886Y-69562244D01*
X121830987Y-69468578D01*
X121830188Y-69334142D01*
X121831491Y-69282270D01*
X121839711Y-69062086D01*
X121847502Y-68915094D01*
X121854685Y-68841886D01*
X121861080Y-68843054D01*
G37*
G36*
X123654910Y-67382001D02*
G01*
X123649883Y-67520758D01*
X123646588Y-67592030D01*
X123636317Y-67774138D01*
X123625629Y-67912370D01*
X123615611Y-68000829D01*
X123607350Y-68033612D01*
X123601933Y-68004821D01*
X123600446Y-67908556D01*
X123601438Y-67837118D01*
X123609491Y-67675208D01*
X123625413Y-67492401D01*
X123636171Y-67401053D01*
X123648151Y-67323933D01*
X123654365Y-67316987D01*
X123654910Y-67382001D01*
G37*
G36*
X120951544Y-69785108D02*
G01*
X120952048Y-69797819D01*
X120956689Y-70009336D01*
X120956767Y-70246838D01*
X120952279Y-70460053D01*
X120952048Y-70466240D01*
X120948127Y-70536546D01*
X120944695Y-70535680D01*
X120941952Y-70468860D01*
X120940097Y-70341305D01*
X120939327Y-70158233D01*
X120939317Y-70132030D01*
X120939939Y-69942464D01*
X120941671Y-69807771D01*
X120944315Y-69733168D01*
X120947672Y-69723875D01*
X120951544Y-69785108D01*
G37*
G36*
X121869681Y-69663610D02*
G01*
X121863485Y-69695906D01*
X121852758Y-69760583D01*
X121844662Y-69879326D01*
X121840553Y-70029819D01*
X121840300Y-70077861D01*
X121837160Y-70223812D01*
X121828784Y-70335183D01*
X121816743Y-70394350D01*
X121811654Y-70399482D01*
X121800758Y-70364057D01*
X121794246Y-70268467D01*
X121792819Y-70128847D01*
X121795093Y-70017527D01*
X121804569Y-69837909D01*
X121819298Y-69709548D01*
X121837884Y-69642736D01*
X121846924Y-69635489D01*
X121869681Y-69663610D01*
G37*
G36*
X124375778Y-68339108D02*
G01*
X124366945Y-68521744D01*
X124357580Y-68681496D01*
X124348873Y-68799785D01*
X124342717Y-68854747D01*
X124334134Y-68935102D01*
X124327743Y-69057086D01*
X124325930Y-69129398D01*
X124317550Y-69241453D01*
X124299159Y-69314235D01*
X124283748Y-69329925D01*
X124263535Y-69293665D01*
X124260845Y-69188727D01*
X124268192Y-69091203D01*
X124281951Y-68956107D01*
X124301294Y-68770729D01*
X124323526Y-68560730D01*
X124343435Y-68375037D01*
X124394975Y-67897594D01*
X124375778Y-68339108D01*
G37*
G36*
X122740817Y-68942057D02*
G01*
X122738166Y-69014812D01*
X122729396Y-69094309D01*
X122718452Y-69230202D01*
X122706810Y-69402583D01*
X122697153Y-69568724D01*
X122684614Y-69746519D01*
X122668486Y-69895268D01*
X122650883Y-69998995D01*
X122634549Y-70041397D01*
X122611895Y-70029549D01*
X122617679Y-69955380D01*
X122628210Y-69874737D01*
X122640716Y-69737304D01*
X122653603Y-69562597D01*
X122664867Y-69377669D01*
X122677103Y-69198812D01*
X122691882Y-69051510D01*
X122707399Y-68950359D01*
X122721848Y-68909951D01*
X122722749Y-68909774D01*
X122740817Y-68942057D01*
G37*
G36*
X123594909Y-68131782D02*
G01*
X123594177Y-68238623D01*
X123588046Y-68393235D01*
X123577564Y-68581493D01*
X123563777Y-68789271D01*
X123547733Y-69002444D01*
X123530480Y-69206887D01*
X123513064Y-69388472D01*
X123496533Y-69533076D01*
X123481935Y-69626573D01*
X123472957Y-69654586D01*
X123452327Y-69648129D01*
X123450877Y-69568439D01*
X123457317Y-69501804D01*
X123467868Y-69397173D01*
X123482245Y-69234708D01*
X123498912Y-69032780D01*
X123516330Y-68809757D01*
X123525307Y-68689736D01*
X123541605Y-68483509D01*
X123557595Y-68308478D01*
X123571990Y-68176794D01*
X123583503Y-68100607D01*
X123589194Y-68086838D01*
X123594909Y-68131782D01*
G37*
G36*
X123207557Y-67868955D02*
G01*
X123204057Y-67993875D01*
X123197231Y-68145865D01*
X123179119Y-68484996D01*
X123159542Y-68805118D01*
X123139201Y-69097978D01*
X123118798Y-69355325D01*
X123099032Y-69568906D01*
X123080605Y-69730471D01*
X123064218Y-69831768D01*
X123051242Y-69864662D01*
X123033996Y-69831009D01*
X123033253Y-69745402D01*
X123037923Y-69702331D01*
X123047236Y-69616355D01*
X123060666Y-69468013D01*
X123077072Y-69271149D01*
X123095312Y-69039608D01*
X123114245Y-68787233D01*
X123120597Y-68699699D01*
X123141074Y-68426422D01*
X123159793Y-68197988D01*
X123176196Y-68018411D01*
X123189730Y-67891705D01*
X123199838Y-67821884D01*
X123205966Y-67812963D01*
X123207557Y-67868955D01*
G37*
G36*
X122330485Y-68260451D02*
G01*
X122334241Y-68357583D01*
X122333033Y-68508670D01*
X122327596Y-68701124D01*
X122318664Y-68922356D01*
X122306968Y-69159776D01*
X122293244Y-69400797D01*
X122278224Y-69632829D01*
X122262642Y-69843283D01*
X122247232Y-70019572D01*
X122232727Y-70149106D01*
X122219860Y-70219296D01*
X122215873Y-70227519D01*
X122189672Y-70236996D01*
X122196048Y-70189323D01*
X122203492Y-70131566D01*
X122213781Y-70008567D01*
X122226183Y-69831390D01*
X122239962Y-69611101D01*
X122254386Y-69358764D01*
X122266985Y-69119850D01*
X122280769Y-68862066D01*
X122294086Y-68639012D01*
X122306323Y-68458977D01*
X122316867Y-68330251D01*
X122325106Y-68261123D01*
X122330428Y-68259884D01*
X122330485Y-68260451D01*
G37*
G36*
X124013002Y-67904271D02*
G01*
X124008999Y-68027872D01*
X123997172Y-68221771D01*
X123977426Y-68488109D01*
X123960414Y-68699699D01*
X123942171Y-68924816D01*
X123926319Y-69126614D01*
X123913887Y-69291499D01*
X123905902Y-69405878D01*
X123903370Y-69454060D01*
X123884566Y-69510753D01*
X123863934Y-69520902D01*
X123840675Y-69489762D01*
X123843410Y-69434962D01*
X123852335Y-69370828D01*
X123866092Y-69244142D01*
X123883345Y-69068493D01*
X123902761Y-68857471D01*
X123923005Y-68624665D01*
X123923119Y-68623308D01*
X123942967Y-68394490D01*
X123961577Y-68191244D01*
X123977722Y-68026077D01*
X123990180Y-67911497D01*
X123997725Y-67860009D01*
X123997921Y-67859398D01*
X124009278Y-67848827D01*
X124013002Y-67904271D01*
G37*
G36*
X123338649Y-61550125D02*
G01*
X123372190Y-61558216D01*
X123453798Y-61591256D01*
X123583198Y-61660543D01*
X123762978Y-61767686D01*
X123995724Y-61914293D01*
X124284025Y-62101972D01*
X124630466Y-62332331D01*
X124787623Y-62437945D01*
X125067123Y-62626730D01*
X125331350Y-62806090D01*
X125572486Y-62970654D01*
X125782713Y-63115046D01*
X125954211Y-63233894D01*
X126079162Y-63321824D01*
X126149748Y-63373464D01*
X126155544Y-63378057D01*
X126243243Y-63443536D01*
X126308376Y-63481871D01*
X126322944Y-63486015D01*
X126376709Y-63516361D01*
X126449838Y-63594267D01*
X126525471Y-63700038D01*
X126565283Y-63769148D01*
X126606055Y-63919805D01*
X126603319Y-64028085D01*
X126608025Y-64190797D01*
X126639986Y-64288975D01*
X126664011Y-64370994D01*
X126682434Y-64495732D01*
X126694108Y-64640251D01*
X126697890Y-64781608D01*
X126692635Y-64896866D01*
X126677198Y-64963083D01*
X126673836Y-64967467D01*
X126658943Y-64950594D01*
X126652932Y-64882481D01*
X126643335Y-64787987D01*
X126618533Y-64653814D01*
X126593367Y-64546723D01*
X126564916Y-64417026D01*
X126551319Y-64312862D01*
X126553973Y-64264292D01*
X126544523Y-64218434D01*
X126521173Y-64211729D01*
X126421119Y-64230276D01*
X126357464Y-64276402D01*
X126347368Y-64307218D01*
X126316728Y-64362934D01*
X126292167Y-64377521D01*
X126258073Y-64409499D01*
X126261280Y-64478929D01*
X126273069Y-64524588D01*
X126292730Y-64633984D01*
X126304641Y-64780474D01*
X126306451Y-64879898D01*
X126303730Y-65109323D01*
X126231402Y-64861053D01*
X126193192Y-64711268D01*
X126166472Y-64571104D01*
X126157733Y-64484192D01*
X126150835Y-64398586D01*
X126122519Y-64370720D01*
X126070451Y-64378633D01*
X125989170Y-64397149D01*
X125951724Y-64402185D01*
X125935253Y-64433877D01*
X125942647Y-64497178D01*
X125951061Y-64563609D01*
X125922083Y-64573910D01*
X125907740Y-64569155D01*
X125875904Y-64566832D01*
X125862393Y-64601820D01*
X125864614Y-64688863D01*
X125872262Y-64770699D01*
X125886590Y-64898104D01*
X125899679Y-64995565D01*
X125906729Y-65033669D01*
X125907208Y-65093505D01*
X125894355Y-65194015D01*
X125888834Y-65224646D01*
X125859612Y-65376692D01*
X125855219Y-65239529D01*
X125840922Y-65118248D01*
X125810002Y-64972685D01*
X125793947Y-64914867D01*
X125760006Y-64781668D01*
X125739436Y-64659907D01*
X125736654Y-64618244D01*
X125726544Y-64542346D01*
X125690721Y-64527671D01*
X125675823Y-64532304D01*
X125603055Y-64552915D01*
X125580334Y-64555489D01*
X125551830Y-64587507D01*
X125545263Y-64631880D01*
X125519635Y-64695431D01*
X125483829Y-64708271D01*
X125441626Y-64727163D01*
X125444176Y-64794782D01*
X125446118Y-64802789D01*
X125474184Y-64956256D01*
X125490257Y-65129597D01*
X125493122Y-65294517D01*
X125481561Y-65422725D01*
X125474077Y-65453083D01*
X125451721Y-65517346D01*
X125440386Y-65522922D01*
X125435582Y-65463012D01*
X125433959Y-65392311D01*
X125419750Y-65244001D01*
X125388030Y-65081546D01*
X125373797Y-65029454D01*
X125340251Y-64902578D01*
X125319604Y-64793146D01*
X125316503Y-64756015D01*
X125312547Y-64692360D01*
X125287112Y-64674589D01*
X125218561Y-64694606D01*
X125185622Y-64707048D01*
X125114801Y-64753883D01*
X125111430Y-64804098D01*
X125110664Y-64850519D01*
X125082054Y-64853066D01*
X125057683Y-64850932D01*
X125043351Y-64865553D01*
X125038673Y-64909694D01*
X125043268Y-64996124D01*
X125056751Y-65137607D01*
X125069780Y-65262105D01*
X125076934Y-65410612D01*
X125067763Y-65535524D01*
X125054679Y-65586767D01*
X125029965Y-65639983D01*
X125018054Y-65634705D01*
X125013633Y-65563195D01*
X125012947Y-65525995D01*
X124999569Y-65391400D01*
X124968779Y-65237417D01*
X124953646Y-65182236D01*
X124920101Y-65055360D01*
X124899454Y-64945928D01*
X124896353Y-64908797D01*
X124887864Y-64841636D01*
X124874331Y-64822857D01*
X124804996Y-64846179D01*
X124736986Y-64898258D01*
X124705003Y-64952263D01*
X124704962Y-64953799D01*
X124674006Y-65010615D01*
X124643335Y-65029310D01*
X124600185Y-65075577D01*
X124606490Y-65138434D01*
X124631659Y-65263203D01*
X124648238Y-65419240D01*
X124655150Y-65580298D01*
X124651315Y-65720133D01*
X124635656Y-65812498D01*
X124634324Y-65815940D01*
X124610745Y-65865617D01*
X124598654Y-65858941D01*
X124593751Y-65787645D01*
X124592797Y-65736070D01*
X124579124Y-65587795D01*
X124547718Y-65425370D01*
X124533496Y-65373213D01*
X124499625Y-65241150D01*
X124479041Y-65121602D01*
X124476203Y-65080677D01*
X124472207Y-65003556D01*
X124447296Y-64980961D01*
X124380807Y-65003307D01*
X124344630Y-65019634D01*
X124275372Y-65068013D01*
X124265183Y-65139371D01*
X124269531Y-65162867D01*
X124275394Y-65222201D01*
X124259254Y-65223910D01*
X124198641Y-65174422D01*
X124164955Y-65191981D01*
X124167463Y-65269311D01*
X124173173Y-65291482D01*
X124188720Y-65385874D01*
X124199478Y-65530445D01*
X124203754Y-65699045D01*
X124203413Y-65758394D01*
X124200671Y-65915694D01*
X124197242Y-66001910D01*
X124191822Y-66022349D01*
X124183107Y-65982317D01*
X124170483Y-65892331D01*
X124145667Y-65739001D01*
X124114417Y-65588568D01*
X124099313Y-65529474D01*
X124070886Y-65403308D01*
X124056338Y-65288463D01*
X124055852Y-65271654D01*
X124038213Y-65189446D01*
X124001469Y-65166616D01*
X123895889Y-65187019D01*
X123834212Y-65239687D01*
X123826466Y-65271530D01*
X123798288Y-65342592D01*
X123768928Y-65372481D01*
X123733456Y-65418316D01*
X123735608Y-65492393D01*
X123749830Y-65548319D01*
X123769888Y-65659348D01*
X123782247Y-65809456D01*
X123784371Y-65930274D01*
X123782193Y-66036219D01*
X123777649Y-66097292D01*
X123767764Y-66108093D01*
X123749566Y-66063221D01*
X123720079Y-65957278D01*
X123676330Y-65784863D01*
X123653165Y-65692041D01*
X123623827Y-65554345D01*
X123608689Y-65441109D01*
X123611015Y-65376928D01*
X123610833Y-65331839D01*
X123556412Y-65322486D01*
X123452115Y-65343981D01*
X123390869Y-65374150D01*
X123380491Y-65434463D01*
X123387660Y-65474192D01*
X123397596Y-65548076D01*
X123371339Y-65567352D01*
X123325869Y-65558578D01*
X123265917Y-65550964D01*
X123262706Y-65585497D01*
X123272110Y-65609274D01*
X123286275Y-65676811D01*
X123299439Y-65800892D01*
X123309830Y-65961675D01*
X123314446Y-66083308D01*
X123318560Y-66253832D01*
X123319160Y-66353250D01*
X123315545Y-66386795D01*
X123307011Y-66359699D01*
X123292856Y-66277197D01*
X123290453Y-66261947D01*
X123263689Y-66110550D01*
X123233260Y-65965897D01*
X123216576Y-65899090D01*
X123189651Y-65769778D01*
X123177420Y-65647213D01*
X123177356Y-65640877D01*
X123167779Y-65534947D01*
X123133388Y-65496915D01*
X123064918Y-65519890D01*
X123037549Y-65536858D01*
X122979338Y-65585797D01*
X122959277Y-65647293D01*
X122967989Y-65751429D01*
X122968848Y-65757210D01*
X122972011Y-65919061D01*
X122943146Y-66085210D01*
X122942907Y-66086024D01*
X122910769Y-66217885D01*
X122891429Y-66340556D01*
X122889427Y-66369774D01*
X122885492Y-66472116D01*
X122879196Y-66613455D01*
X122874365Y-66713534D01*
X122862899Y-66942707D01*
X122809716Y-66601441D01*
X122779485Y-66437727D01*
X122744586Y-66294557D01*
X122710972Y-66195082D01*
X122699591Y-66173271D01*
X122663225Y-66087908D01*
X122682527Y-65999094D01*
X122686928Y-65989188D01*
X122713556Y-65899410D01*
X122692425Y-65865824D01*
X122631390Y-65892248D01*
X122580129Y-65937246D01*
X122525348Y-65997133D01*
X122501625Y-66051128D01*
X122504551Y-66126061D01*
X122529284Y-66246813D01*
X122554010Y-66373005D01*
X122555465Y-66456618D01*
X122530537Y-66528755D01*
X122494914Y-66590387D01*
X122450951Y-66678101D01*
X122425691Y-66779831D01*
X122414749Y-66919342D01*
X122413233Y-67033155D01*
X122408832Y-67186287D01*
X122396794Y-67294120D01*
X122378863Y-67342468D01*
X122375037Y-67343759D01*
X122351664Y-67309739D01*
X122338038Y-67224184D01*
X122336629Y-67181428D01*
X122325872Y-67024304D01*
X122297686Y-66885231D01*
X122257563Y-66782435D01*
X122210997Y-66734145D01*
X122201362Y-66732631D01*
X122159191Y-66702866D01*
X122146658Y-66638234D01*
X122167485Y-66575729D01*
X122184060Y-66560752D01*
X122211520Y-66509146D01*
X122222255Y-66424211D01*
X122222255Y-66311276D01*
X122114630Y-66431730D01*
X122052837Y-66505842D01*
X122027193Y-66565626D01*
X122032129Y-66641650D01*
X122057336Y-66746220D01*
X122097988Y-66933852D01*
X122105107Y-67060934D01*
X122078172Y-67135809D01*
X122031278Y-67163849D01*
X121987207Y-67186808D01*
X121963080Y-67239061D01*
X121952549Y-67339727D01*
X121950532Y-67407026D01*
X121946650Y-67533732D01*
X121939321Y-67712686D01*
X121929603Y-67919877D01*
X121918805Y-68126767D01*
X121891431Y-68623308D01*
X121884751Y-68107669D01*
X121876998Y-67849823D01*
X121861664Y-67634192D01*
X121839897Y-67468588D01*
X121812844Y-67360825D01*
X121781650Y-67318714D01*
X121769324Y-67321315D01*
X121737898Y-67302757D01*
X121700912Y-67233588D01*
X121699004Y-67228626D01*
X121676859Y-67131200D01*
X121703588Y-67057534D01*
X121709407Y-67049566D01*
X121749147Y-66972201D01*
X121762141Y-66896399D01*
X121745142Y-66850775D01*
X121732372Y-66847218D01*
X121686727Y-66872489D01*
X121619689Y-66933614D01*
X121616720Y-66936753D01*
X121571055Y-66990490D01*
X121552111Y-67041033D01*
X121557802Y-67113100D01*
X121586040Y-67231405D01*
X121590418Y-67248243D01*
X121620982Y-67374597D01*
X121628720Y-67456265D01*
X121611417Y-67522120D01*
X121566855Y-67601032D01*
X121562836Y-67607504D01*
X121506815Y-67718269D01*
X121474935Y-67820822D01*
X121472673Y-67840301D01*
X121470617Y-67901177D01*
X121467055Y-68028327D01*
X121462245Y-68211656D01*
X121456444Y-68441066D01*
X121449910Y-68706462D01*
X121442900Y-68997747D01*
X121439557Y-69138947D01*
X121431570Y-69441077D01*
X121422446Y-69723997D01*
X121412651Y-69977201D01*
X121402649Y-70190180D01*
X121392908Y-70352426D01*
X121383893Y-70453433D01*
X121380271Y-70475789D01*
X121373062Y-70475328D01*
X121368289Y-70406762D01*
X121366000Y-70278341D01*
X121366246Y-70098315D01*
X121369075Y-69874933D01*
X121374537Y-69616445D01*
X121375018Y-69597293D01*
X121381822Y-69314325D01*
X121387585Y-69045527D01*
X121392086Y-68803739D01*
X121395102Y-68601798D01*
X121396414Y-68452543D01*
X121396030Y-68377035D01*
X121386932Y-68232621D01*
X121367647Y-68066677D01*
X121341638Y-67899360D01*
X121312369Y-67750829D01*
X121283302Y-67641243D01*
X121261493Y-67593940D01*
X121240857Y-67535109D01*
X121229775Y-67434058D01*
X121229173Y-67403830D01*
X121229173Y-67250007D01*
X121129395Y-67349785D01*
X121029617Y-67449563D01*
X121092416Y-67711774D01*
X121136343Y-67896738D01*
X121163871Y-68019984D01*
X121176679Y-68094011D01*
X121176449Y-68131320D01*
X121164861Y-68144414D01*
X121150781Y-68145865D01*
X121070268Y-68180868D01*
X121019911Y-68285042D01*
X121000268Y-68457137D01*
X121000000Y-68484642D01*
X120994101Y-68610511D01*
X120978796Y-68703266D01*
X120961804Y-68737895D01*
X120932527Y-68725107D01*
X120922961Y-68673307D01*
X120912977Y-68597692D01*
X120886859Y-68471036D01*
X120849420Y-68315760D01*
X120831724Y-68248317D01*
X120793352Y-68090273D01*
X120767683Y-67953710D01*
X120758406Y-67859874D01*
X120760436Y-67837716D01*
X120761542Y-67776054D01*
X120722113Y-67772888D01*
X120649593Y-67827267D01*
X120621823Y-67855377D01*
X120571730Y-67914638D01*
X120555256Y-67967410D01*
X120569543Y-68042868D01*
X120595617Y-68122755D01*
X120658021Y-68330621D01*
X120683651Y-68486995D01*
X120673194Y-68606958D01*
X120627338Y-68705594D01*
X120622508Y-68712529D01*
X120565524Y-68828049D01*
X120539545Y-68950278D01*
X120539453Y-68953866D01*
X120529704Y-69079788D01*
X120508778Y-69218743D01*
X120505650Y-69234436D01*
X120474048Y-69387218D01*
X120469001Y-69253534D01*
X120455231Y-69139043D01*
X120424731Y-68983933D01*
X120384043Y-68814571D01*
X120339710Y-68657322D01*
X120298272Y-68538553D01*
X120283924Y-68507634D01*
X120260432Y-68414529D01*
X120263168Y-68317338D01*
X120283148Y-68203158D01*
X120178088Y-68304654D01*
X120073028Y-68406151D01*
X120154559Y-68708308D01*
X120203899Y-68901275D01*
X120229077Y-69034059D01*
X120229741Y-69119062D01*
X120205538Y-69168686D01*
X120156117Y-69195333D01*
X120140601Y-69199653D01*
X120045112Y-69223620D01*
X120038345Y-69916547D01*
X120031578Y-70609474D01*
X120005811Y-70055639D01*
X119990737Y-69796452D01*
X119970740Y-69591648D01*
X119942662Y-69419236D01*
X119903348Y-69257227D01*
X119879695Y-69177143D01*
X119834200Y-69022005D01*
X119799264Y-68887780D01*
X119780375Y-68796178D01*
X119778545Y-68776958D01*
X119772909Y-68732706D01*
X119747237Y-68736827D01*
X119686243Y-68792954D01*
X119678432Y-68800747D01*
X119579121Y-68900059D01*
X119656633Y-69124541D01*
X119703291Y-69270758D01*
X119738472Y-69401945D01*
X119759600Y-69504706D01*
X119764105Y-69565642D01*
X119749413Y-69571358D01*
X119740080Y-69559098D01*
X119710025Y-69523363D01*
X119702074Y-69557742D01*
X119701938Y-69566749D01*
X119671266Y-69639064D01*
X119638563Y-69666832D01*
X119606694Y-69699184D01*
X119587869Y-69762696D01*
X119579450Y-69872981D01*
X119578563Y-70022038D01*
X119578918Y-70170514D01*
X119575912Y-70249210D01*
X119568291Y-70264707D01*
X119554800Y-70223588D01*
X119546698Y-70189323D01*
X119490197Y-69959797D01*
X119432363Y-69759419D01*
X119376814Y-69598016D01*
X119327171Y-69485414D01*
X119287052Y-69431442D01*
X119267893Y-69432357D01*
X119244200Y-69442371D01*
X119251875Y-69403611D01*
X119286912Y-69335010D01*
X119289306Y-69331143D01*
X119317567Y-69256692D01*
X119294187Y-69227430D01*
X119234005Y-69250923D01*
X119195996Y-69283569D01*
X119112912Y-69366653D01*
X119193299Y-69625206D01*
X119254313Y-69827896D01*
X119291002Y-69967224D01*
X119305071Y-70051647D01*
X119298224Y-70089621D01*
X119287775Y-70093834D01*
X119236852Y-70116688D01*
X119178451Y-70160677D01*
X119141906Y-70201250D01*
X119120398Y-70255911D01*
X119111155Y-70342388D01*
X119111406Y-70478411D01*
X119114251Y-70571278D01*
X119126295Y-70915037D01*
X119076466Y-70685865D01*
X119034461Y-70508601D01*
X118986192Y-70329691D01*
X118936507Y-70164400D01*
X118890250Y-70027991D01*
X118852270Y-69935731D01*
X118827855Y-69902857D01*
X118811977Y-69869920D01*
X118813134Y-69789539D01*
X118814465Y-69778722D01*
X118831038Y-69654586D01*
X118727098Y-69755304D01*
X118623158Y-69856021D01*
X118698788Y-70060868D01*
X118766338Y-70259143D01*
X118799925Y-70403796D01*
X118800543Y-70509131D01*
X118769184Y-70589449D01*
X118738212Y-70628632D01*
X118655738Y-70730818D01*
X118594663Y-70824044D01*
X118534101Y-70931299D01*
X118467152Y-71048942D01*
X118463972Y-71054502D01*
X118432268Y-71116408D01*
X118414198Y-71178425D01*
X118408896Y-71258519D01*
X118415491Y-71374653D01*
X118433116Y-71544791D01*
X118438130Y-71588995D01*
X118459463Y-71771484D01*
X118479823Y-71938077D01*
X118496426Y-72066362D01*
X118504137Y-72120200D01*
X118503281Y-72228844D01*
X118472686Y-72275748D01*
X118464732Y-72298352D01*
X118530837Y-72308195D01*
X118553579Y-72308588D01*
X118637226Y-72314871D01*
X118654480Y-72335868D01*
X118640922Y-72353604D01*
X118572376Y-72383095D01*
X118450022Y-72402655D01*
X118295852Y-72411854D01*
X118131856Y-72410261D01*
X117980026Y-72397447D01*
X117862352Y-72372980D01*
X117851081Y-72369059D01*
X117764650Y-72333739D01*
X117687358Y-72291884D01*
X117611590Y-72235418D01*
X117529734Y-72156266D01*
X117434173Y-72046351D01*
X117317295Y-71897598D01*
X117171485Y-71701930D01*
X117000158Y-71466512D01*
X116813570Y-71209485D01*
X116598611Y-70914675D01*
X116372490Y-70605602D01*
X116152416Y-70305786D01*
X115955597Y-70038746D01*
X115947421Y-70027685D01*
X115780886Y-69801503D01*
X115617212Y-69577537D01*
X115466030Y-69369091D01*
X115336974Y-69189472D01*
X115239676Y-69051985D01*
X115209484Y-69008377D01*
X115014608Y-68723639D01*
X114965360Y-68129755D01*
X114942727Y-67813078D01*
X114933869Y-67560014D01*
X114939687Y-67358881D01*
X114961080Y-67197994D01*
X114998948Y-67065670D01*
X115054190Y-66950224D01*
X115056511Y-66946241D01*
X115104105Y-66884833D01*
X115201144Y-66776144D01*
X115342369Y-66625357D01*
X115522524Y-66437657D01*
X115736352Y-66218228D01*
X115978594Y-65972254D01*
X116243995Y-65704920D01*
X116527296Y-65421410D01*
X116823240Y-65126908D01*
X117126570Y-64826599D01*
X117432029Y-64525667D01*
X117734359Y-64229296D01*
X118028303Y-63942671D01*
X118189849Y-63786085D01*
X123281267Y-63786085D01*
X123290462Y-63826427D01*
X123319382Y-63795818D01*
X123358125Y-63696128D01*
X123377561Y-63604303D01*
X123373164Y-63548295D01*
X123369044Y-63543879D01*
X123342284Y-63564888D01*
X123311003Y-63639796D01*
X123300301Y-63677526D01*
X123281267Y-63786085D01*
X118189849Y-63786085D01*
X118308603Y-63670977D01*
X118381306Y-63601005D01*
X122241353Y-63601005D01*
X122351721Y-63579640D01*
X122468090Y-63547083D01*
X122580894Y-63502845D01*
X122699699Y-63447416D01*
X122589331Y-63468781D01*
X122472962Y-63501338D01*
X122360158Y-63545576D01*
X122241353Y-63601005D01*
X118381306Y-63601005D01*
X118570004Y-63419396D01*
X118807246Y-63193115D01*
X118836236Y-63165803D01*
X122326222Y-63165803D01*
X122327333Y-63168781D01*
X122349448Y-63210636D01*
X122362552Y-63183643D01*
X122364957Y-63168844D01*
X123554212Y-63168844D01*
X123556632Y-63179422D01*
X123629330Y-63162292D01*
X123762369Y-63119567D01*
X123865370Y-63078350D01*
X123929940Y-63040736D01*
X123941052Y-63025436D01*
X123909854Y-63020189D01*
X123829757Y-63042457D01*
X123760406Y-63069622D01*
X123622120Y-63131822D01*
X123554212Y-63168844D01*
X122364957Y-63168844D01*
X122368110Y-63149439D01*
X122408913Y-63069601D01*
X122492275Y-62993516D01*
X122502139Y-62987251D01*
X122572149Y-62937839D01*
X122574049Y-62915364D01*
X122554730Y-62913225D01*
X122470678Y-62940866D01*
X122390366Y-63008145D01*
X122335109Y-63091109D01*
X122326222Y-63165803D01*
X118836236Y-63165803D01*
X119015074Y-62997316D01*
X119188229Y-62837185D01*
X119321454Y-62717905D01*
X119409493Y-62644662D01*
X119438751Y-62624809D01*
X119553993Y-62574132D01*
X119716238Y-62513126D01*
X119898782Y-62451540D01*
X119992586Y-62422605D01*
X120265699Y-62341029D01*
X120568100Y-62249987D01*
X120886819Y-62153447D01*
X121208888Y-62055377D01*
X121521336Y-61959746D01*
X121811195Y-61870523D01*
X122065496Y-61791676D01*
X122271269Y-61727173D01*
X122404418Y-61684611D01*
X122705925Y-61595948D01*
X122954057Y-61545034D01*
X123160928Y-61530287D01*
X123338649Y-61550125D01*
G37*
M02*
