G04 #@! TF.GenerationSoftware,KiCad,Pcbnew,8.0.6*
G04 #@! TF.CreationDate,2026-03-29T02:05:17+02:00*
G04 #@! TF.ProjectId,c64-wedge-psu-pcb,6336342d-7765-4646-9765-2d7073752d70,rev?*
G04 #@! TF.SameCoordinates,Original*
G04 #@! TF.FileFunction,Copper,L2,Bot*
G04 #@! TF.FilePolarity,Positive*
%FSLAX46Y46*%
G04 Gerber Fmt 4.6, Leading zero omitted, Abs format (unit mm)*
G04 Created by KiCad (PCBNEW 8.0.6) date 2026-03-29 02:05:17*
%MOMM*%
%LPD*%
G01*
G04 APERTURE LIST*
G04 Aperture macros list*
%AMRoundRect*
0 Rectangle with rounded corners*
0 $1 Rounding radius*
0 $2 $3 $4 $5 $6 $7 $8 $9 X,Y pos of 4 corners*
0 Add a 4 corners polygon primitive as box body*
4,1,4,$2,$3,$4,$5,$6,$7,$8,$9,$2,$3,0*
0 Add four circle primitives for the rounded corners*
1,1,$1+$1,$2,$3*
1,1,$1+$1,$4,$5*
1,1,$1+$1,$6,$7*
1,1,$1+$1,$8,$9*
0 Add four rect primitives between the rounded corners*
20,1,$1+$1,$2,$3,$4,$5,0*
20,1,$1+$1,$4,$5,$6,$7,0*
20,1,$1+$1,$6,$7,$8,$9,0*
20,1,$1+$1,$8,$9,$2,$3,0*%
G04 Aperture macros list end*
G04 #@! TA.AperFunction,ComponentPad*
%ADD10C,1.600000*%
G04 #@! TD*
G04 #@! TA.AperFunction,ComponentPad*
%ADD11C,2.400000*%
G04 #@! TD*
G04 #@! TA.AperFunction,ComponentPad*
%ADD12R,2.400000X2.400000*%
G04 #@! TD*
G04 #@! TA.AperFunction,ComponentPad*
%ADD13RoundRect,0.250002X-1.699998X-1.699998X1.699998X-1.699998X1.699998X1.699998X-1.699998X1.699998X0*%
G04 #@! TD*
G04 #@! TA.AperFunction,ComponentPad*
%ADD14O,1.600000X1.600000*%
G04 #@! TD*
G04 #@! TA.AperFunction,ComponentPad*
%ADD15O,3.200000X3.200000*%
G04 #@! TD*
G04 #@! TA.AperFunction,ComponentPad*
%ADD16R,3.200000X3.200000*%
G04 #@! TD*
G04 #@! TA.AperFunction,ComponentPad*
%ADD17R,1.600000X1.600000*%
G04 #@! TD*
G04 #@! TA.AperFunction,ComponentPad*
%ADD18C,3.600000*%
G04 #@! TD*
G04 #@! TA.AperFunction,ComponentPad*
%ADD19C,2.000000*%
G04 #@! TD*
G04 #@! TA.AperFunction,ComponentPad*
%ADD20R,1.800000X1.800000*%
G04 #@! TD*
G04 #@! TA.AperFunction,ComponentPad*
%ADD21O,1.800000X1.800000*%
G04 #@! TD*
G04 #@! TA.AperFunction,ComponentPad*
%ADD22C,1.800000*%
G04 #@! TD*
G04 APERTURE END LIST*
D10*
X104140000Y-92710000D03*
X101640000Y-92710000D03*
D11*
X128524000Y-80130000D03*
D12*
X128524000Y-87630000D03*
D13*
X104000000Y-62750000D03*
X150000000Y-62750000D03*
X112000000Y-62750000D03*
D10*
X110236000Y-111506000D03*
D14*
X102616000Y-111506000D03*
D13*
X142000000Y-62750000D03*
D14*
X92710000Y-111506000D03*
D10*
X100330000Y-111506000D03*
D15*
X111125000Y-76200000D03*
D16*
X111125000Y-88900000D03*
D10*
X157988000Y-99314000D03*
X157988000Y-101814000D03*
X139954000Y-90678000D03*
X137454000Y-90678000D03*
D16*
X99695000Y-76200000D03*
D15*
X99695000Y-88900000D03*
D17*
X156972000Y-93726000D03*
D10*
X153472000Y-93726000D03*
D18*
X131826000Y-107452000D03*
X131826000Y-96012000D03*
D19*
X147574000Y-102108000D03*
X152574000Y-102108000D03*
D11*
X146050000Y-80130000D03*
D12*
X146050000Y-87630000D03*
D10*
X156972000Y-88138000D03*
D14*
X156972000Y-80518000D03*
D20*
X108810000Y-99060000D03*
D21*
X107110000Y-102760000D03*
X105410000Y-99060000D03*
X103710000Y-102760000D03*
X102010000Y-99060000D03*
D20*
X156972000Y-78232000D03*
D22*
X156972000Y-75692000D03*
D16*
X107188000Y-106934000D03*
D15*
X94488000Y-106934000D03*
D16*
X93980000Y-76200000D03*
D15*
X93980000Y-88900000D03*
X105410000Y-76200000D03*
D16*
X105410000Y-88900000D03*
G04 #@! TA.AperFunction,Conductor*
G36*
X101402433Y-60045040D02*
G01*
X101499881Y-60101302D01*
X101572210Y-60187500D01*
X101610696Y-60293238D01*
X101610696Y-60405762D01*
X101572210Y-60511500D01*
X101543415Y-60553397D01*
X101540620Y-60556847D01*
X101540614Y-60556856D01*
X101454685Y-60725501D01*
X101454679Y-60725515D01*
X101405687Y-60908358D01*
X101399500Y-60986970D01*
X101399500Y-64513015D01*
X101399501Y-64513039D01*
X101405687Y-64591637D01*
X101405688Y-64591645D01*
X101454679Y-64774484D01*
X101454685Y-64774498D01*
X101540614Y-64943143D01*
X101540618Y-64943148D01*
X101659744Y-65090256D01*
X101806851Y-65209381D01*
X101806856Y-65209385D01*
X101975501Y-65295314D01*
X101975513Y-65295320D01*
X102158357Y-65344312D01*
X102236981Y-65350500D01*
X105763018Y-65350499D01*
X105763021Y-65350498D01*
X105763039Y-65350498D01*
X105808640Y-65346908D01*
X105841643Y-65344312D01*
X106024487Y-65295320D01*
X106103130Y-65255248D01*
X106193143Y-65209385D01*
X106193144Y-65209383D01*
X106193148Y-65209382D01*
X106340256Y-65090256D01*
X106459382Y-64943148D01*
X106545320Y-64774487D01*
X106594312Y-64591643D01*
X106600500Y-64513019D01*
X106600499Y-60986982D01*
X106600498Y-60986970D01*
X106600498Y-60986960D01*
X106594312Y-60908362D01*
X106594312Y-60908358D01*
X106594312Y-60908357D01*
X106545320Y-60725513D01*
X106545314Y-60725501D01*
X106459385Y-60556856D01*
X106459379Y-60556847D01*
X106456585Y-60553397D01*
X106453360Y-60547579D01*
X106450135Y-60542613D01*
X106450482Y-60542387D01*
X106402033Y-60454981D01*
X106384431Y-60343842D01*
X106405903Y-60233386D01*
X106463858Y-60136934D01*
X106551307Y-60066122D01*
X106657701Y-60029488D01*
X106708382Y-60025500D01*
X109291618Y-60025500D01*
X109402433Y-60045040D01*
X109499881Y-60101302D01*
X109572210Y-60187500D01*
X109610696Y-60293238D01*
X109610696Y-60405762D01*
X109572210Y-60511500D01*
X109543415Y-60553397D01*
X109540620Y-60556847D01*
X109540614Y-60556856D01*
X109454685Y-60725501D01*
X109454679Y-60725515D01*
X109405687Y-60908358D01*
X109399500Y-60986970D01*
X109399500Y-64513015D01*
X109399501Y-64513039D01*
X109405687Y-64591637D01*
X109405688Y-64591645D01*
X109454679Y-64774484D01*
X109454685Y-64774498D01*
X109540614Y-64943143D01*
X109540618Y-64943148D01*
X109659744Y-65090256D01*
X109806851Y-65209381D01*
X109806856Y-65209385D01*
X109975501Y-65295314D01*
X109975513Y-65295320D01*
X110158357Y-65344312D01*
X110236981Y-65350500D01*
X113763018Y-65350499D01*
X113763021Y-65350498D01*
X113763039Y-65350498D01*
X113808640Y-65346908D01*
X113841643Y-65344312D01*
X114024487Y-65295320D01*
X114103130Y-65255248D01*
X114193143Y-65209385D01*
X114193144Y-65209383D01*
X114193148Y-65209382D01*
X114340256Y-65090256D01*
X114459382Y-64943148D01*
X114545320Y-64774487D01*
X114594312Y-64591643D01*
X114600500Y-64513019D01*
X114600499Y-60986982D01*
X114600498Y-60986970D01*
X114600498Y-60986960D01*
X114594312Y-60908362D01*
X114594312Y-60908358D01*
X114594312Y-60908357D01*
X114545320Y-60725513D01*
X114545314Y-60725501D01*
X114459385Y-60556856D01*
X114459379Y-60556847D01*
X114456585Y-60553397D01*
X114453360Y-60547579D01*
X114450135Y-60542613D01*
X114450482Y-60542387D01*
X114402033Y-60454981D01*
X114384431Y-60343842D01*
X114405903Y-60233386D01*
X114463858Y-60136934D01*
X114551307Y-60066122D01*
X114657701Y-60029488D01*
X114708382Y-60025500D01*
X139291618Y-60025500D01*
X139402433Y-60045040D01*
X139499881Y-60101302D01*
X139572210Y-60187500D01*
X139610696Y-60293238D01*
X139610696Y-60405762D01*
X139572210Y-60511500D01*
X139543415Y-60553397D01*
X139540620Y-60556847D01*
X139540614Y-60556856D01*
X139454685Y-60725501D01*
X139454679Y-60725515D01*
X139405687Y-60908358D01*
X139399500Y-60986970D01*
X139399500Y-64513015D01*
X139399501Y-64513039D01*
X139405687Y-64591637D01*
X139405688Y-64591645D01*
X139454679Y-64774484D01*
X139454685Y-64774498D01*
X139540614Y-64943143D01*
X139540618Y-64943148D01*
X139659744Y-65090256D01*
X139806851Y-65209381D01*
X139806856Y-65209385D01*
X139975501Y-65295314D01*
X139975513Y-65295320D01*
X140158357Y-65344312D01*
X140236981Y-65350500D01*
X143763018Y-65350499D01*
X143763021Y-65350498D01*
X143763039Y-65350498D01*
X143808640Y-65346908D01*
X143841643Y-65344312D01*
X144024487Y-65295320D01*
X144103130Y-65255248D01*
X144193143Y-65209385D01*
X144193144Y-65209383D01*
X144193148Y-65209382D01*
X144340256Y-65090256D01*
X144459382Y-64943148D01*
X144545320Y-64774487D01*
X144594312Y-64591643D01*
X144600500Y-64513019D01*
X144600499Y-60986982D01*
X144600498Y-60986970D01*
X144600498Y-60986960D01*
X144594312Y-60908362D01*
X144594312Y-60908358D01*
X144594312Y-60908357D01*
X144545320Y-60725513D01*
X144545314Y-60725501D01*
X144459385Y-60556856D01*
X144459379Y-60556847D01*
X144456585Y-60553397D01*
X144453360Y-60547579D01*
X144450135Y-60542613D01*
X144450482Y-60542387D01*
X144402033Y-60454981D01*
X144384431Y-60343842D01*
X144405903Y-60233386D01*
X144463858Y-60136934D01*
X144551307Y-60066122D01*
X144657701Y-60029488D01*
X144708382Y-60025500D01*
X147292262Y-60025500D01*
X147403077Y-60045040D01*
X147500525Y-60101302D01*
X147572854Y-60187500D01*
X147611340Y-60293238D01*
X147611340Y-60405762D01*
X147572854Y-60511500D01*
X147544057Y-60553400D01*
X147541043Y-60557120D01*
X147541037Y-60557131D01*
X147455151Y-60725689D01*
X147406184Y-60908437D01*
X147400000Y-60987009D01*
X147400000Y-62099999D01*
X147400001Y-62100000D01*
X149171491Y-62100000D01*
X149069502Y-62252638D01*
X148990350Y-62443726D01*
X148950000Y-62646584D01*
X148950000Y-62853416D01*
X148990350Y-63056274D01*
X149069502Y-63247362D01*
X149171491Y-63400000D01*
X147400001Y-63400000D01*
X147400000Y-63400001D01*
X147400000Y-64512990D01*
X147406184Y-64591562D01*
X147455151Y-64774310D01*
X147541037Y-64942868D01*
X147541043Y-64942878D01*
X147660095Y-65089896D01*
X147660103Y-65089904D01*
X147807121Y-65208956D01*
X147807131Y-65208962D01*
X147975690Y-65294848D01*
X147975688Y-65294848D01*
X148158437Y-65343815D01*
X148237009Y-65349999D01*
X148237029Y-65350000D01*
X149349999Y-65350000D01*
X149350000Y-65349999D01*
X149350000Y-63578508D01*
X149502638Y-63680498D01*
X149693726Y-63759650D01*
X149896584Y-63800000D01*
X150103416Y-63800000D01*
X150306274Y-63759650D01*
X150497362Y-63680498D01*
X150650000Y-63578508D01*
X150650000Y-65349999D01*
X150650001Y-65350000D01*
X151762971Y-65350000D01*
X151762990Y-65349999D01*
X151841562Y-65343815D01*
X152024310Y-65294848D01*
X152192868Y-65208962D01*
X152192878Y-65208956D01*
X152339896Y-65089904D01*
X152339904Y-65089896D01*
X152458956Y-64942878D01*
X152458962Y-64942868D01*
X152544848Y-64774310D01*
X152593815Y-64591562D01*
X152599999Y-64512990D01*
X152600000Y-64512971D01*
X152600000Y-63400001D01*
X152599999Y-63400000D01*
X150828509Y-63400000D01*
X150930498Y-63247362D01*
X151009650Y-63056274D01*
X151050000Y-62853416D01*
X151050000Y-62646584D01*
X151009650Y-62443726D01*
X150930498Y-62252638D01*
X150828509Y-62100000D01*
X152599999Y-62100000D01*
X152600000Y-62099999D01*
X152600000Y-60987029D01*
X152599999Y-60987009D01*
X152593815Y-60908437D01*
X152544848Y-60725689D01*
X152458962Y-60557131D01*
X152458956Y-60557120D01*
X152455943Y-60553400D01*
X152452463Y-60547122D01*
X152449709Y-60542881D01*
X152450005Y-60542688D01*
X152401390Y-60454984D01*
X152383787Y-60343846D01*
X152405258Y-60233389D01*
X152463212Y-60136937D01*
X152550659Y-60066123D01*
X152657053Y-60029489D01*
X152707738Y-60025500D01*
X159650500Y-60025500D01*
X159761315Y-60045040D01*
X159858763Y-60101302D01*
X159931092Y-60187500D01*
X159969578Y-60293238D01*
X159974500Y-60349500D01*
X159974500Y-98686590D01*
X159954960Y-98797405D01*
X159898698Y-98894853D01*
X159812500Y-98967182D01*
X159706762Y-99005668D01*
X159594238Y-99005668D01*
X159488500Y-98967182D01*
X159402302Y-98894853D01*
X159353790Y-98816740D01*
X159296700Y-98686590D01*
X159268049Y-98621272D01*
X159136571Y-98420031D01*
X159136567Y-98420027D01*
X159136566Y-98420025D01*
X158973761Y-98243172D01*
X158784070Y-98095530D01*
X158784060Y-98095523D01*
X158572662Y-97981121D01*
X158572652Y-97981116D01*
X158345299Y-97903066D01*
X158108196Y-97863500D01*
X158108192Y-97863500D01*
X157867808Y-97863500D01*
X157867803Y-97863500D01*
X157630700Y-97903066D01*
X157403347Y-97981116D01*
X157403337Y-97981121D01*
X157191939Y-98095523D01*
X157191929Y-98095530D01*
X157002238Y-98243172D01*
X156839433Y-98420025D01*
X156839425Y-98420036D01*
X156707951Y-98621271D01*
X156611391Y-98841404D01*
X156552380Y-99074435D01*
X156552378Y-99074451D01*
X156532529Y-99313995D01*
X156532529Y-99314004D01*
X156552378Y-99553548D01*
X156552380Y-99553564D01*
X156611391Y-99786595D01*
X156707951Y-100006728D01*
X156839425Y-100207963D01*
X156839433Y-100207974D01*
X157002238Y-100384827D01*
X157191929Y-100532469D01*
X157191939Y-100532476D01*
X157336114Y-100610499D01*
X157403344Y-100646882D01*
X157630700Y-100724933D01*
X157630701Y-100724933D01*
X157630703Y-100724934D01*
X157753343Y-100745399D01*
X157859427Y-100782910D01*
X157929114Y-100835876D01*
X157987999Y-100894761D01*
X157988000Y-100894761D01*
X158046882Y-100835878D01*
X158139056Y-100771336D01*
X158222653Y-100745399D01*
X158345297Y-100724934D01*
X158572656Y-100646882D01*
X158737652Y-100557590D01*
X158784060Y-100532476D01*
X158784061Y-100532475D01*
X158784067Y-100532472D01*
X158973764Y-100384825D01*
X159136571Y-100207969D01*
X159268049Y-100006728D01*
X159353790Y-99811259D01*
X159416197Y-99717627D01*
X159506865Y-99650987D01*
X159614858Y-99619375D01*
X159727149Y-99626606D01*
X159830196Y-99671807D01*
X159911568Y-99749525D01*
X159961452Y-99850388D01*
X159974500Y-99941409D01*
X159974500Y-101152569D01*
X159954960Y-101263384D01*
X159898698Y-101360832D01*
X159812500Y-101433161D01*
X159706762Y-101471647D01*
X159594238Y-101471647D01*
X159488500Y-101433161D01*
X159407230Y-101364967D01*
X159367272Y-101353965D01*
X158907239Y-101813999D01*
X159367273Y-102274033D01*
X159413706Y-102261248D01*
X159461022Y-102212611D01*
X159562338Y-102163655D01*
X159674288Y-102152304D01*
X159783369Y-102179927D01*
X159876424Y-102243192D01*
X159942229Y-102334468D01*
X159972847Y-102442747D01*
X159974500Y-102475430D01*
X159974500Y-113650500D01*
X159954960Y-113761315D01*
X159898698Y-113858763D01*
X159812500Y-113931092D01*
X159706762Y-113969578D01*
X159650500Y-113974500D01*
X90349500Y-113974500D01*
X90238685Y-113954960D01*
X90141237Y-113898698D01*
X90068908Y-113812500D01*
X90030422Y-113706762D01*
X90025500Y-113650500D01*
X90025500Y-112156000D01*
X91411757Y-112156000D01*
X91430396Y-112198494D01*
X91561820Y-112399654D01*
X91561829Y-112399665D01*
X91724576Y-112576454D01*
X91914203Y-112724048D01*
X91914211Y-112724053D01*
X92060000Y-112802950D01*
X92060000Y-112156001D01*
X93360000Y-112156001D01*
X93360000Y-112802949D01*
X93505788Y-112724053D01*
X93505796Y-112724048D01*
X93695423Y-112576454D01*
X93858170Y-112399665D01*
X93858179Y-112399654D01*
X93989603Y-112198494D01*
X94008243Y-112156000D01*
X93360001Y-112156000D01*
X93360000Y-112156001D01*
X92060000Y-112156001D01*
X92059999Y-112156000D01*
X91411757Y-112156000D01*
X90025500Y-112156000D01*
X90025500Y-111453339D01*
X92310000Y-111453339D01*
X92310000Y-111558661D01*
X92337259Y-111660394D01*
X92389920Y-111751606D01*
X92464394Y-111826080D01*
X92555606Y-111878741D01*
X92657339Y-111906000D01*
X92762661Y-111906000D01*
X92864394Y-111878741D01*
X92955606Y-111826080D01*
X93030080Y-111751606D01*
X93082741Y-111660394D01*
X93110000Y-111558661D01*
X93110000Y-111505995D01*
X98874529Y-111505995D01*
X98874529Y-111506004D01*
X98894378Y-111745548D01*
X98894380Y-111745564D01*
X98953391Y-111978595D01*
X99049951Y-112198728D01*
X99181425Y-112399963D01*
X99181433Y-112399974D01*
X99186999Y-112406020D01*
X99343894Y-112576454D01*
X99344238Y-112576827D01*
X99533929Y-112724469D01*
X99533939Y-112724476D01*
X99698929Y-112813763D01*
X99745344Y-112838882D01*
X99972703Y-112916934D01*
X100209808Y-112956500D01*
X100209811Y-112956500D01*
X100450189Y-112956500D01*
X100450192Y-112956500D01*
X100687297Y-112916934D01*
X100914656Y-112838882D01*
X101126067Y-112724472D01*
X101273995Y-112609334D01*
X101373445Y-112556690D01*
X101484902Y-112541235D01*
X101594924Y-112564832D01*
X101672005Y-112609335D01*
X101819928Y-112724468D01*
X101819939Y-112724476D01*
X101984929Y-112813763D01*
X102031344Y-112838882D01*
X102258703Y-112916934D01*
X102495808Y-112956500D01*
X102495811Y-112956500D01*
X102736189Y-112956500D01*
X102736192Y-112956500D01*
X102973297Y-112916934D01*
X103200656Y-112838882D01*
X103412067Y-112724472D01*
X103601764Y-112576825D01*
X103764571Y-112399969D01*
X103896049Y-112198728D01*
X103992610Y-111978591D01*
X104051620Y-111745563D01*
X104060016Y-111644230D01*
X104071471Y-111506004D01*
X104071471Y-111505995D01*
X108780529Y-111505995D01*
X108780529Y-111506004D01*
X108800378Y-111745548D01*
X108800380Y-111745564D01*
X108859391Y-111978595D01*
X108955951Y-112198728D01*
X109087425Y-112399963D01*
X109087433Y-112399974D01*
X109092999Y-112406020D01*
X109249894Y-112576454D01*
X109250238Y-112576827D01*
X109439929Y-112724469D01*
X109439939Y-112724476D01*
X109604929Y-112813763D01*
X109651344Y-112838882D01*
X109878703Y-112916934D01*
X110115808Y-112956500D01*
X110115811Y-112956500D01*
X110356189Y-112956500D01*
X110356192Y-112956500D01*
X110593297Y-112916934D01*
X110820656Y-112838882D01*
X111032067Y-112724472D01*
X111221764Y-112576825D01*
X111384571Y-112399969D01*
X111516049Y-112198728D01*
X111612610Y-111978591D01*
X111671620Y-111745563D01*
X111680016Y-111644230D01*
X111691471Y-111506004D01*
X111691471Y-111505995D01*
X111671621Y-111266451D01*
X111671620Y-111266437D01*
X111612610Y-111033409D01*
X111516049Y-110813272D01*
X111384571Y-110612031D01*
X111384567Y-110612027D01*
X111384566Y-110612025D01*
X111254526Y-110470764D01*
X111221764Y-110435175D01*
X111221763Y-110435174D01*
X111221761Y-110435172D01*
X111032070Y-110287530D01*
X111032060Y-110287523D01*
X110820662Y-110173121D01*
X110820652Y-110173116D01*
X110593299Y-110095066D01*
X110356196Y-110055500D01*
X110356192Y-110055500D01*
X110115808Y-110055500D01*
X110115803Y-110055500D01*
X109878700Y-110095066D01*
X109651347Y-110173116D01*
X109651337Y-110173121D01*
X109439939Y-110287523D01*
X109439929Y-110287530D01*
X109250238Y-110435172D01*
X109087433Y-110612025D01*
X109087425Y-110612036D01*
X108955951Y-110813271D01*
X108859391Y-111033404D01*
X108800380Y-111266435D01*
X108800378Y-111266451D01*
X108780529Y-111505995D01*
X104071471Y-111505995D01*
X104051621Y-111266451D01*
X104051620Y-111266437D01*
X103992610Y-111033409D01*
X103896049Y-110813272D01*
X103764571Y-110612031D01*
X103764567Y-110612027D01*
X103764566Y-110612025D01*
X103634526Y-110470764D01*
X103601764Y-110435175D01*
X103601763Y-110435174D01*
X103601761Y-110435172D01*
X103412070Y-110287530D01*
X103412060Y-110287523D01*
X103200662Y-110173121D01*
X103200652Y-110173116D01*
X102973299Y-110095066D01*
X102736196Y-110055500D01*
X102736192Y-110055500D01*
X102495808Y-110055500D01*
X102495803Y-110055500D01*
X102258700Y-110095066D01*
X102031347Y-110173116D01*
X102031337Y-110173121D01*
X101819939Y-110287523D01*
X101819929Y-110287530D01*
X101672004Y-110402665D01*
X101572554Y-110455309D01*
X101461097Y-110470764D01*
X101351075Y-110447167D01*
X101273996Y-110402665D01*
X101126070Y-110287530D01*
X101126060Y-110287523D01*
X100914662Y-110173121D01*
X100914652Y-110173116D01*
X100687299Y-110095066D01*
X100450196Y-110055500D01*
X100450192Y-110055500D01*
X100209808Y-110055500D01*
X100209803Y-110055500D01*
X99972700Y-110095066D01*
X99745347Y-110173116D01*
X99745337Y-110173121D01*
X99533939Y-110287523D01*
X99533929Y-110287530D01*
X99344238Y-110435172D01*
X99181433Y-110612025D01*
X99181425Y-110612036D01*
X99049951Y-110813271D01*
X98953391Y-111033404D01*
X98894380Y-111266435D01*
X98894378Y-111266451D01*
X98874529Y-111505995D01*
X93110000Y-111505995D01*
X93110000Y-111453339D01*
X93082741Y-111351606D01*
X93030080Y-111260394D01*
X92955606Y-111185920D01*
X92864394Y-111133259D01*
X92762661Y-111106000D01*
X92657339Y-111106000D01*
X92555606Y-111133259D01*
X92464394Y-111185920D01*
X92389920Y-111260394D01*
X92337259Y-111351606D01*
X92310000Y-111453339D01*
X90025500Y-111453339D01*
X90025500Y-110856000D01*
X91411757Y-110856000D01*
X92059999Y-110856000D01*
X92060000Y-110855999D01*
X93360000Y-110855999D01*
X93360001Y-110856000D01*
X94008243Y-110856000D01*
X93989603Y-110813505D01*
X93858179Y-110612345D01*
X93858170Y-110612334D01*
X93695423Y-110435545D01*
X93505797Y-110287952D01*
X93505790Y-110287947D01*
X93360000Y-110209049D01*
X93360000Y-110855999D01*
X92060000Y-110855999D01*
X92060000Y-110209049D01*
X92059999Y-110209049D01*
X91914209Y-110287947D01*
X91914202Y-110287952D01*
X91724576Y-110435545D01*
X91561829Y-110612334D01*
X91561820Y-110612345D01*
X91430396Y-110813505D01*
X91411757Y-110856000D01*
X90025500Y-110856000D01*
X90025500Y-102759997D01*
X102154706Y-102759997D01*
X102154706Y-102760002D01*
X102173853Y-103003297D01*
X102173854Y-103003300D01*
X102230829Y-103240616D01*
X102324221Y-103466085D01*
X102324222Y-103466087D01*
X102451738Y-103674175D01*
X102451739Y-103674177D01*
X102451741Y-103674179D01*
X102610241Y-103859759D01*
X102795821Y-104018259D01*
X103003911Y-104145777D01*
X103229388Y-104239172D01*
X103466698Y-104296146D01*
X103628899Y-104308911D01*
X103709998Y-104315294D01*
X103710000Y-104315294D01*
X103710002Y-104315294D01*
X103779514Y-104309823D01*
X103953302Y-104296146D01*
X104190612Y-104239172D01*
X104416089Y-104145777D01*
X104624179Y-104018259D01*
X104809759Y-103859759D01*
X104968259Y-103674179D01*
X105095777Y-103466089D01*
X105104172Y-103445820D01*
X105110663Y-103430152D01*
X105171122Y-103335250D01*
X105260393Y-103266750D01*
X105367709Y-103232913D01*
X105480126Y-103237821D01*
X105584084Y-103280882D01*
X105667046Y-103356902D01*
X105709337Y-103430152D01*
X105724221Y-103466085D01*
X105724222Y-103466087D01*
X105851738Y-103674175D01*
X105851739Y-103674177D01*
X105851741Y-103674179D01*
X106010241Y-103859759D01*
X106195821Y-104018259D01*
X106195823Y-104018260D01*
X106195824Y-104018261D01*
X106195829Y-104018265D01*
X106301867Y-104083245D01*
X106386143Y-104157805D01*
X106439835Y-104256693D01*
X106456467Y-104367981D01*
X106434033Y-104478246D01*
X106375240Y-104574189D01*
X106287177Y-104644237D01*
X106180468Y-104679941D01*
X106132578Y-104683500D01*
X105522299Y-104683500D01*
X105485429Y-104686402D01*
X105327599Y-104732256D01*
X105186136Y-104815917D01*
X105069917Y-104932136D01*
X104986256Y-105073599D01*
X104940402Y-105231429D01*
X104937500Y-105268299D01*
X104937500Y-108599700D01*
X104940402Y-108636570D01*
X104986256Y-108794400D01*
X105069917Y-108935863D01*
X105186136Y-109052082D01*
X105327599Y-109135743D01*
X105327601Y-109135743D01*
X105327602Y-109135744D01*
X105485431Y-109181598D01*
X105522306Y-109184500D01*
X105522317Y-109184500D01*
X108853683Y-109184500D01*
X108853694Y-109184500D01*
X108890569Y-109181598D01*
X109048398Y-109135744D01*
X109053380Y-109132798D01*
X109189863Y-109052082D01*
X109189862Y-109052082D01*
X109189865Y-109052081D01*
X109306081Y-108935865D01*
X109389744Y-108794398D01*
X109435598Y-108636569D01*
X109438500Y-108599694D01*
X109438500Y-107452000D01*
X129370655Y-107452000D01*
X129390016Y-107759741D01*
X129447794Y-108062620D01*
X129447796Y-108062626D01*
X129543076Y-108355868D01*
X129543079Y-108355876D01*
X129674361Y-108634864D01*
X129674362Y-108634866D01*
X129839577Y-108895206D01*
X129839579Y-108895209D01*
X129839584Y-108895216D01*
X130036131Y-109132799D01*
X130260904Y-109343876D01*
X130510360Y-109525116D01*
X130510362Y-109525117D01*
X130510365Y-109525119D01*
X130780556Y-109673658D01*
X130780557Y-109673659D01*
X130780559Y-109673660D01*
X130780565Y-109673663D01*
X131067257Y-109787172D01*
X131365914Y-109863854D01*
X131671828Y-109902500D01*
X131671829Y-109902500D01*
X131980171Y-109902500D01*
X131980172Y-109902500D01*
X132286086Y-109863854D01*
X132584743Y-109787172D01*
X132871435Y-109673663D01*
X133141640Y-109525116D01*
X133391096Y-109343876D01*
X133615869Y-109132799D01*
X133812416Y-108895216D01*
X133977635Y-108634871D01*
X134108922Y-108355873D01*
X134204206Y-108062619D01*
X134261984Y-107759736D01*
X134281345Y-107452000D01*
X134261984Y-107144264D01*
X134204206Y-106841381D01*
X134108922Y-106548127D01*
X133977635Y-106269129D01*
X133812416Y-106008784D01*
X133615869Y-105771201D01*
X133391096Y-105560124D01*
X133141640Y-105378884D01*
X133141634Y-105378880D01*
X132871443Y-105230341D01*
X132871442Y-105230340D01*
X132871436Y-105230337D01*
X132871435Y-105230337D01*
X132584743Y-105116828D01*
X132584738Y-105116826D01*
X132286083Y-105040145D01*
X132031882Y-105008032D01*
X131980172Y-105001500D01*
X131671828Y-105001500D01*
X131627595Y-105007087D01*
X131365916Y-105040145D01*
X131067261Y-105116826D01*
X130780557Y-105230340D01*
X130780556Y-105230341D01*
X130510365Y-105378880D01*
X130510359Y-105378884D01*
X130260903Y-105560124D01*
X130036130Y-105771201D01*
X129839577Y-106008793D01*
X129674362Y-106269133D01*
X129674361Y-106269135D01*
X129543079Y-106548123D01*
X129543076Y-106548131D01*
X129447796Y-106841373D01*
X129447794Y-106841379D01*
X129390016Y-107144258D01*
X129370655Y-107452000D01*
X109438500Y-107452000D01*
X109438500Y-105268306D01*
X109435598Y-105231431D01*
X109389744Y-105073602D01*
X109389743Y-105073601D01*
X109389743Y-105073599D01*
X109306082Y-104932136D01*
X109189863Y-104815917D01*
X109048400Y-104732256D01*
X108890570Y-104686402D01*
X108853700Y-104683500D01*
X108853694Y-104683500D01*
X108087422Y-104683500D01*
X107976607Y-104663960D01*
X107879159Y-104607698D01*
X107806830Y-104521500D01*
X107768344Y-104415762D01*
X107768344Y-104303238D01*
X107806830Y-104197500D01*
X107879159Y-104111302D01*
X107918133Y-104083245D01*
X108024170Y-104018265D01*
X108024172Y-104018262D01*
X108024179Y-104018259D01*
X108209759Y-103859759D01*
X108368259Y-103674179D01*
X108495777Y-103466089D01*
X108589172Y-103240612D01*
X108646146Y-103003302D01*
X108665294Y-102760000D01*
X108646146Y-102516698D01*
X108589172Y-102279388D01*
X108518180Y-102107997D01*
X145918396Y-102107997D01*
X145918396Y-102108002D01*
X145938779Y-102366993D01*
X145938780Y-102366998D01*
X145999426Y-102619608D01*
X145999427Y-102619610D01*
X146098846Y-102859628D01*
X146234588Y-103081140D01*
X146234589Y-103081142D01*
X146234591Y-103081144D01*
X146403301Y-103278678D01*
X146403305Y-103278682D01*
X146403311Y-103278689D01*
X146403317Y-103278694D01*
X146403321Y-103278698D01*
X146580651Y-103430152D01*
X146600860Y-103447412D01*
X146822372Y-103583154D01*
X147062390Y-103682573D01*
X147315006Y-103743221D01*
X147538776Y-103760831D01*
X147573998Y-103763604D01*
X147574000Y-103763604D01*
X147574002Y-103763604D01*
X147606981Y-103761008D01*
X147832994Y-103743221D01*
X148085610Y-103682573D01*
X148325628Y-103583154D01*
X148547140Y-103447412D01*
X148744689Y-103278689D01*
X148913412Y-103081140D01*
X149049154Y-102859628D01*
X149148573Y-102619610D01*
X149209221Y-102366994D01*
X149227008Y-102140981D01*
X149229604Y-102108002D01*
X149229604Y-102107997D01*
X150918396Y-102107997D01*
X150918396Y-102108002D01*
X150938779Y-102366993D01*
X150938780Y-102366998D01*
X150999426Y-102619608D01*
X150999427Y-102619610D01*
X151098846Y-102859628D01*
X151234588Y-103081140D01*
X151234589Y-103081142D01*
X151234591Y-103081144D01*
X151403301Y-103278678D01*
X151403305Y-103278682D01*
X151403311Y-103278689D01*
X151403317Y-103278694D01*
X151403321Y-103278698D01*
X151580651Y-103430152D01*
X151600860Y-103447412D01*
X151822372Y-103583154D01*
X152062390Y-103682573D01*
X152315006Y-103743221D01*
X152538776Y-103760831D01*
X152573998Y-103763604D01*
X152574000Y-103763604D01*
X152574002Y-103763604D01*
X152606981Y-103761008D01*
X152832994Y-103743221D01*
X153085610Y-103682573D01*
X153325628Y-103583154D01*
X153547140Y-103447412D01*
X153744689Y-103278689D01*
X153820274Y-103190191D01*
X157531045Y-103190191D01*
X157531046Y-103190192D01*
X157630821Y-103224445D01*
X157867846Y-103263999D01*
X157867853Y-103264000D01*
X158108147Y-103264000D01*
X158108153Y-103263999D01*
X158345175Y-103224446D01*
X158444952Y-103190192D01*
X157987999Y-102733239D01*
X157531045Y-103190191D01*
X153820274Y-103190191D01*
X153913412Y-103081140D01*
X154049154Y-102859628D01*
X154148573Y-102619610D01*
X154209221Y-102366994D01*
X154227008Y-102140981D01*
X154229604Y-102108002D01*
X154229604Y-102107997D01*
X154225313Y-102053479D01*
X154209221Y-101849006D01*
X154200816Y-101813995D01*
X156533031Y-101813995D01*
X156533031Y-101814004D01*
X156552874Y-102053479D01*
X156608725Y-102274033D01*
X156608726Y-102274034D01*
X157068760Y-101814000D01*
X157016099Y-101761339D01*
X157588000Y-101761339D01*
X157588000Y-101866661D01*
X157615259Y-101968394D01*
X157667920Y-102059606D01*
X157742394Y-102134080D01*
X157833606Y-102186741D01*
X157935339Y-102214000D01*
X158040661Y-102214000D01*
X158142394Y-102186741D01*
X158233606Y-102134080D01*
X158308080Y-102059606D01*
X158360741Y-101968394D01*
X158388000Y-101866661D01*
X158388000Y-101761339D01*
X158360741Y-101659606D01*
X158308080Y-101568394D01*
X158233606Y-101493920D01*
X158142394Y-101441259D01*
X158040661Y-101414000D01*
X157935339Y-101414000D01*
X157833606Y-101441259D01*
X157742394Y-101493920D01*
X157667920Y-101568394D01*
X157615259Y-101659606D01*
X157588000Y-101761339D01*
X157016099Y-101761339D01*
X156608725Y-101353965D01*
X156552875Y-101574515D01*
X156552874Y-101574524D01*
X156533031Y-101813995D01*
X154200816Y-101813995D01*
X154148573Y-101596390D01*
X154049154Y-101356372D01*
X153913412Y-101134860D01*
X153744689Y-100937311D01*
X153744682Y-100937305D01*
X153744678Y-100937301D01*
X153547144Y-100768591D01*
X153547142Y-100768589D01*
X153547140Y-100768588D01*
X153390160Y-100672391D01*
X153325630Y-100632847D01*
X153271677Y-100610499D01*
X153085610Y-100533427D01*
X153085608Y-100533426D01*
X152832998Y-100472780D01*
X152832994Y-100472779D01*
X152746662Y-100465984D01*
X152574002Y-100452396D01*
X152573998Y-100452396D01*
X152315006Y-100472779D01*
X152315001Y-100472780D01*
X152062391Y-100533426D01*
X151822369Y-100632847D01*
X151600855Y-100768591D01*
X151403321Y-100937301D01*
X151403301Y-100937321D01*
X151234591Y-101134855D01*
X151098847Y-101356369D01*
X150999426Y-101596391D01*
X150938780Y-101849001D01*
X150938779Y-101849006D01*
X150918396Y-102107997D01*
X149229604Y-102107997D01*
X149225313Y-102053479D01*
X149209221Y-101849006D01*
X149148573Y-101596390D01*
X149049154Y-101356372D01*
X148913412Y-101134860D01*
X148744689Y-100937311D01*
X148744682Y-100937305D01*
X148744678Y-100937301D01*
X148547144Y-100768591D01*
X148547142Y-100768589D01*
X148547140Y-100768588D01*
X148390160Y-100672391D01*
X148325630Y-100632847D01*
X148271677Y-100610499D01*
X148085610Y-100533427D01*
X148085608Y-100533426D01*
X147832998Y-100472780D01*
X147832994Y-100472779D01*
X147746662Y-100465984D01*
X147574002Y-100452396D01*
X147573998Y-100452396D01*
X147315006Y-100472779D01*
X147315001Y-100472780D01*
X147062391Y-100533426D01*
X146822369Y-100632847D01*
X146600855Y-100768591D01*
X146403321Y-100937301D01*
X146403301Y-100937321D01*
X146234591Y-101134855D01*
X146098847Y-101356369D01*
X145999426Y-101596391D01*
X145938780Y-101849001D01*
X145938779Y-101849006D01*
X145918396Y-102107997D01*
X108518180Y-102107997D01*
X108495777Y-102053911D01*
X108368259Y-101845821D01*
X108209759Y-101660241D01*
X108024179Y-101501741D01*
X108024177Y-101501739D01*
X108024175Y-101501738D01*
X107816087Y-101374222D01*
X107816085Y-101374221D01*
X107590616Y-101280829D01*
X107590612Y-101280828D01*
X107353302Y-101223854D01*
X107353299Y-101223853D01*
X107353297Y-101223853D01*
X107110002Y-101204706D01*
X107109998Y-101204706D01*
X106866702Y-101223853D01*
X106866699Y-101223853D01*
X106866698Y-101223854D01*
X106737355Y-101254906D01*
X106629383Y-101280829D01*
X106403914Y-101374221D01*
X106403912Y-101374222D01*
X106195824Y-101501738D01*
X106010244Y-101660238D01*
X106010238Y-101660244D01*
X105851738Y-101845824D01*
X105724222Y-102053912D01*
X105724219Y-102053917D01*
X105709336Y-102089849D01*
X105648877Y-102184750D01*
X105559605Y-102253250D01*
X105452289Y-102287086D01*
X105339872Y-102282178D01*
X105235914Y-102239116D01*
X105152953Y-102163096D01*
X105110664Y-102089849D01*
X105095780Y-102053917D01*
X105095777Y-102053912D01*
X105095777Y-102053911D01*
X104968259Y-101845821D01*
X104809759Y-101660241D01*
X104624179Y-101501741D01*
X104624177Y-101501739D01*
X104624175Y-101501738D01*
X104416087Y-101374222D01*
X104416085Y-101374221D01*
X104190616Y-101280829D01*
X104190612Y-101280828D01*
X103953302Y-101223854D01*
X103953299Y-101223853D01*
X103953297Y-101223853D01*
X103710002Y-101204706D01*
X103709998Y-101204706D01*
X103466702Y-101223853D01*
X103466699Y-101223853D01*
X103466698Y-101223854D01*
X103337355Y-101254906D01*
X103229383Y-101280829D01*
X103003914Y-101374221D01*
X103003912Y-101374222D01*
X102795824Y-101501738D01*
X102610244Y-101660238D01*
X102610238Y-101660244D01*
X102451738Y-101845824D01*
X102324222Y-102053912D01*
X102324221Y-102053914D01*
X102230829Y-102279383D01*
X102173854Y-102516699D01*
X102173853Y-102516702D01*
X102154706Y-102759997D01*
X90025500Y-102759997D01*
X90025500Y-98094299D01*
X107259500Y-98094299D01*
X107259500Y-100025700D01*
X107262402Y-100062570D01*
X107308256Y-100220400D01*
X107391917Y-100361863D01*
X107508136Y-100478082D01*
X107649599Y-100561743D01*
X107649601Y-100561743D01*
X107649602Y-100561744D01*
X107807431Y-100607598D01*
X107844306Y-100610500D01*
X107844317Y-100610500D01*
X109775683Y-100610500D01*
X109775694Y-100610500D01*
X109812569Y-100607598D01*
X109970398Y-100561744D01*
X110019895Y-100532472D01*
X110111863Y-100478082D01*
X110111862Y-100478082D01*
X110111865Y-100478081D01*
X110228081Y-100361865D01*
X110311744Y-100220398D01*
X110357598Y-100062569D01*
X110360500Y-100025694D01*
X110360500Y-98094306D01*
X110357598Y-98057431D01*
X110311744Y-97899602D01*
X110311743Y-97899601D01*
X110311743Y-97899599D01*
X110228082Y-97758136D01*
X110111863Y-97641917D01*
X109970400Y-97558256D01*
X109812570Y-97512402D01*
X109775700Y-97509500D01*
X109775694Y-97509500D01*
X107844306Y-97509500D01*
X107844299Y-97509500D01*
X107807429Y-97512402D01*
X107649599Y-97558256D01*
X107508136Y-97641917D01*
X107391917Y-97758136D01*
X107308256Y-97899599D01*
X107262402Y-98057429D01*
X107259500Y-98094299D01*
X90025500Y-98094299D01*
X90025500Y-96012000D01*
X129370655Y-96012000D01*
X129390016Y-96319741D01*
X129447794Y-96622620D01*
X129447796Y-96622626D01*
X129543076Y-96915868D01*
X129543079Y-96915876D01*
X129674361Y-97194864D01*
X129674362Y-97194866D01*
X129839577Y-97455206D01*
X129839579Y-97455209D01*
X129839584Y-97455216D01*
X130036131Y-97692799D01*
X130260904Y-97903876D01*
X130510360Y-98085116D01*
X130510362Y-98085117D01*
X130510365Y-98085119D01*
X130780556Y-98233658D01*
X130780557Y-98233659D01*
X130780559Y-98233660D01*
X130780565Y-98233663D01*
X131067257Y-98347172D01*
X131365914Y-98423854D01*
X131671828Y-98462500D01*
X131671829Y-98462500D01*
X131980171Y-98462500D01*
X131980172Y-98462500D01*
X132286086Y-98423854D01*
X132584743Y-98347172D01*
X132871435Y-98233663D01*
X133141640Y-98085116D01*
X133391096Y-97903876D01*
X133615869Y-97692799D01*
X133812416Y-97455216D01*
X133977635Y-97194871D01*
X134108922Y-96915873D01*
X134204206Y-96622619D01*
X134261984Y-96319736D01*
X134281345Y-96012000D01*
X134261984Y-95704264D01*
X134204206Y-95401381D01*
X134108922Y-95108127D01*
X134106129Y-95102191D01*
X153015045Y-95102191D01*
X153015046Y-95102192D01*
X153114821Y-95136445D01*
X153351846Y-95175999D01*
X153351853Y-95176000D01*
X153592147Y-95176000D01*
X153592153Y-95175999D01*
X153829175Y-95136446D01*
X153928952Y-95102192D01*
X153471999Y-94645239D01*
X153015045Y-95102191D01*
X134106129Y-95102191D01*
X133977635Y-94829129D01*
X133850357Y-94628570D01*
X133812422Y-94568793D01*
X133812420Y-94568791D01*
X133812416Y-94568784D01*
X133615869Y-94331201D01*
X133391096Y-94120124D01*
X133141640Y-93938884D01*
X133141634Y-93938880D01*
X132871443Y-93790341D01*
X132871442Y-93790340D01*
X132871436Y-93790337D01*
X132871435Y-93790337D01*
X132708925Y-93725995D01*
X152017031Y-93725995D01*
X152017031Y-93726004D01*
X152036874Y-93965479D01*
X152092725Y-94186033D01*
X152092726Y-94186034D01*
X152552760Y-93726000D01*
X152500099Y-93673339D01*
X153072000Y-93673339D01*
X153072000Y-93778661D01*
X153099259Y-93880394D01*
X153151920Y-93971606D01*
X153226394Y-94046080D01*
X153317606Y-94098741D01*
X153419339Y-94126000D01*
X153524661Y-94126000D01*
X153626394Y-94098741D01*
X153717606Y-94046080D01*
X153792080Y-93971606D01*
X153844741Y-93880394D01*
X153872000Y-93778661D01*
X153872000Y-93725999D01*
X154391239Y-93725999D01*
X154851272Y-94186032D01*
X154883414Y-94059110D01*
X154929559Y-93956483D01*
X155008022Y-93875828D01*
X155109338Y-93826872D01*
X155221288Y-93815521D01*
X155330369Y-93843144D01*
X155423424Y-93906409D01*
X155489229Y-93997685D01*
X155519847Y-94105964D01*
X155521500Y-94138647D01*
X155521500Y-94591700D01*
X155524402Y-94628570D01*
X155570256Y-94786400D01*
X155653917Y-94927863D01*
X155770136Y-95044082D01*
X155911599Y-95127743D01*
X155911601Y-95127743D01*
X155911602Y-95127744D01*
X156069431Y-95173598D01*
X156106306Y-95176500D01*
X156106317Y-95176500D01*
X157837683Y-95176500D01*
X157837694Y-95176500D01*
X157874569Y-95173598D01*
X158032398Y-95127744D01*
X158065576Y-95108123D01*
X158173863Y-95044082D01*
X158173862Y-95044082D01*
X158173865Y-95044081D01*
X158290081Y-94927865D01*
X158373744Y-94786398D01*
X158419598Y-94628569D01*
X158422500Y-94591694D01*
X158422500Y-92860306D01*
X158419598Y-92823431D01*
X158373744Y-92665602D01*
X158373743Y-92665601D01*
X158373743Y-92665599D01*
X158290082Y-92524136D01*
X158173863Y-92407917D01*
X158032400Y-92324256D01*
X157874570Y-92278402D01*
X157837700Y-92275500D01*
X157837694Y-92275500D01*
X156106306Y-92275500D01*
X156106299Y-92275500D01*
X156069429Y-92278402D01*
X155911599Y-92324256D01*
X155770136Y-92407917D01*
X155653917Y-92524136D01*
X155570256Y-92665599D01*
X155524402Y-92823429D01*
X155521500Y-92860299D01*
X155521500Y-93313351D01*
X155501960Y-93424166D01*
X155445698Y-93521614D01*
X155359500Y-93593943D01*
X155253762Y-93632429D01*
X155141238Y-93632429D01*
X155035500Y-93593943D01*
X154949302Y-93521614D01*
X154893040Y-93424166D01*
X154883414Y-93392888D01*
X154851272Y-93265965D01*
X154391239Y-93725999D01*
X153872000Y-93725999D01*
X153872000Y-93673339D01*
X153844741Y-93571606D01*
X153792080Y-93480394D01*
X153717606Y-93405920D01*
X153626394Y-93353259D01*
X153524661Y-93326000D01*
X153419339Y-93326000D01*
X153317606Y-93353259D01*
X153226394Y-93405920D01*
X153151920Y-93480394D01*
X153099259Y-93571606D01*
X153072000Y-93673339D01*
X152500099Y-93673339D01*
X152092725Y-93265965D01*
X152036875Y-93486515D01*
X152036874Y-93486524D01*
X152017031Y-93725995D01*
X132708925Y-93725995D01*
X132584743Y-93676828D01*
X132584738Y-93676826D01*
X132286083Y-93600145D01*
X132031882Y-93568032D01*
X131980172Y-93561500D01*
X131671828Y-93561500D01*
X131627595Y-93567087D01*
X131365916Y-93600145D01*
X131067261Y-93676826D01*
X130780557Y-93790340D01*
X130780556Y-93790341D01*
X130510365Y-93938880D01*
X130510359Y-93938884D01*
X130260903Y-94120124D01*
X130036130Y-94331201D01*
X129839577Y-94568793D01*
X129674362Y-94829133D01*
X129674361Y-94829135D01*
X129543079Y-95108123D01*
X129543076Y-95108131D01*
X129447796Y-95401373D01*
X129447794Y-95401379D01*
X129390016Y-95704258D01*
X129370655Y-96012000D01*
X90025500Y-96012000D01*
X90025500Y-94086191D01*
X101183045Y-94086191D01*
X101183046Y-94086192D01*
X101282821Y-94120445D01*
X101519846Y-94159999D01*
X101519853Y-94160000D01*
X101760147Y-94160000D01*
X101760153Y-94159999D01*
X101997175Y-94120446D01*
X102096952Y-94086192D01*
X101639999Y-93629239D01*
X101183045Y-94086191D01*
X90025500Y-94086191D01*
X90025500Y-92709995D01*
X100185031Y-92709995D01*
X100185031Y-92710004D01*
X100204874Y-92949479D01*
X100260725Y-93170033D01*
X100260726Y-93170034D01*
X100720760Y-92710000D01*
X100668099Y-92657339D01*
X101240000Y-92657339D01*
X101240000Y-92762661D01*
X101267259Y-92864394D01*
X101319920Y-92955606D01*
X101394394Y-93030080D01*
X101485606Y-93082741D01*
X101587339Y-93110000D01*
X101692661Y-93110000D01*
X101794394Y-93082741D01*
X101885606Y-93030080D01*
X101960080Y-92955606D01*
X102012741Y-92864394D01*
X102040000Y-92762661D01*
X102040000Y-92709999D01*
X102559239Y-92709999D01*
X102559239Y-92710000D01*
X102612074Y-92762836D01*
X102676615Y-92855011D01*
X102702551Y-92938604D01*
X102704379Y-92949559D01*
X102763391Y-93182595D01*
X102859951Y-93402728D01*
X102991425Y-93603963D01*
X102991433Y-93603974D01*
X103154238Y-93780827D01*
X103343929Y-93928469D01*
X103343939Y-93928476D01*
X103471827Y-93997685D01*
X103555344Y-94042882D01*
X103555347Y-94042883D01*
X103781278Y-94120445D01*
X103782703Y-94120934D01*
X104019808Y-94160500D01*
X104019811Y-94160500D01*
X104260189Y-94160500D01*
X104260192Y-94160500D01*
X104497297Y-94120934D01*
X104724656Y-94042882D01*
X104889652Y-93953590D01*
X104936060Y-93928476D01*
X104936061Y-93928475D01*
X104936067Y-93928472D01*
X105125764Y-93780825D01*
X105288571Y-93603969D01*
X105420049Y-93402728D01*
X105516610Y-93182591D01*
X105575620Y-92949563D01*
X105591093Y-92762836D01*
X105595471Y-92710004D01*
X105595471Y-92709995D01*
X105575621Y-92470451D01*
X105575620Y-92470440D01*
X105575620Y-92470437D01*
X105545073Y-92349807D01*
X153015047Y-92349807D01*
X153472000Y-92806760D01*
X153928952Y-92349807D01*
X153928952Y-92349806D01*
X153829176Y-92315553D01*
X153592153Y-92276000D01*
X153351846Y-92276000D01*
X153114828Y-92315552D01*
X153015047Y-92349807D01*
X105545073Y-92349807D01*
X105516610Y-92237409D01*
X105436243Y-92054191D01*
X136997045Y-92054191D01*
X136997046Y-92054192D01*
X137096821Y-92088445D01*
X137333846Y-92127999D01*
X137333853Y-92128000D01*
X137574147Y-92128000D01*
X137574153Y-92127999D01*
X137811175Y-92088446D01*
X137910952Y-92054192D01*
X137453999Y-91597239D01*
X136997045Y-92054191D01*
X105436243Y-92054191D01*
X105420049Y-92017272D01*
X105288571Y-91816031D01*
X105288567Y-91816027D01*
X105288566Y-91816025D01*
X105176178Y-91693939D01*
X105115501Y-91599176D01*
X105090895Y-91489375D01*
X105105326Y-91377781D01*
X105157055Y-91277852D01*
X105239841Y-91201641D01*
X105343701Y-91158342D01*
X105414553Y-91150500D01*
X107075683Y-91150500D01*
X107075694Y-91150500D01*
X107112569Y-91147598D01*
X107270398Y-91101744D01*
X107411865Y-91018081D01*
X107528081Y-90901865D01*
X107611744Y-90760398D01*
X107657598Y-90602569D01*
X107660500Y-90565694D01*
X107660500Y-87234306D01*
X107660499Y-87234299D01*
X108874500Y-87234299D01*
X108874500Y-90565700D01*
X108877402Y-90602570D01*
X108923256Y-90760400D01*
X109006917Y-90901863D01*
X109123136Y-91018082D01*
X109264599Y-91101743D01*
X109264601Y-91101743D01*
X109264602Y-91101744D01*
X109422431Y-91147598D01*
X109459306Y-91150500D01*
X109459317Y-91150500D01*
X112790683Y-91150500D01*
X112790694Y-91150500D01*
X112827569Y-91147598D01*
X112985398Y-91101744D01*
X113126865Y-91018081D01*
X113243081Y-90901865D01*
X113326744Y-90760398D01*
X113350685Y-90677995D01*
X135999031Y-90677995D01*
X135999031Y-90678004D01*
X136018874Y-90917479D01*
X136074725Y-91138033D01*
X136074726Y-91138034D01*
X136534760Y-90678000D01*
X136482099Y-90625339D01*
X137054000Y-90625339D01*
X137054000Y-90730661D01*
X137081259Y-90832394D01*
X137133920Y-90923606D01*
X137208394Y-90998080D01*
X137299606Y-91050741D01*
X137401339Y-91078000D01*
X137506661Y-91078000D01*
X137608394Y-91050741D01*
X137699606Y-90998080D01*
X137774080Y-90923606D01*
X137826741Y-90832394D01*
X137854000Y-90730661D01*
X137854000Y-90677999D01*
X138373239Y-90677999D01*
X138373239Y-90678000D01*
X138426074Y-90730836D01*
X138490615Y-90823011D01*
X138516551Y-90906604D01*
X138518379Y-90917559D01*
X138577391Y-91150595D01*
X138673951Y-91370728D01*
X138805425Y-91571963D01*
X138805433Y-91571974D01*
X138968238Y-91748827D01*
X139157929Y-91896469D01*
X139157939Y-91896476D01*
X139322929Y-91985763D01*
X139369344Y-92010882D01*
X139369347Y-92010883D01*
X139595278Y-92088445D01*
X139596703Y-92088934D01*
X139833808Y-92128500D01*
X139833811Y-92128500D01*
X140074189Y-92128500D01*
X140074192Y-92128500D01*
X140311297Y-92088934D01*
X140538656Y-92010882D01*
X140750067Y-91896472D01*
X140939764Y-91748825D01*
X141102571Y-91571969D01*
X141234049Y-91370728D01*
X141330610Y-91150591D01*
X141389620Y-90917563D01*
X141405093Y-90730836D01*
X141409471Y-90678004D01*
X141409471Y-90677995D01*
X141389621Y-90438451D01*
X141389620Y-90438440D01*
X141389620Y-90438437D01*
X141330610Y-90205409D01*
X141234049Y-89985272D01*
X141102571Y-89784031D01*
X141102567Y-89784027D01*
X141102566Y-89784025D01*
X140939761Y-89607172D01*
X140750070Y-89459530D01*
X140750060Y-89459523D01*
X140538662Y-89345121D01*
X140538652Y-89345116D01*
X140311299Y-89267066D01*
X140074196Y-89227500D01*
X140074192Y-89227500D01*
X139833808Y-89227500D01*
X139833803Y-89227500D01*
X139596700Y-89267066D01*
X139369347Y-89345116D01*
X139369337Y-89345121D01*
X139157939Y-89459523D01*
X139157929Y-89459530D01*
X138968238Y-89607172D01*
X138805433Y-89784025D01*
X138805425Y-89784036D01*
X138673951Y-89985271D01*
X138577391Y-90205404D01*
X138518379Y-90438440D01*
X138516551Y-90449396D01*
X138479037Y-90555482D01*
X138426075Y-90625163D01*
X138373239Y-90677999D01*
X137854000Y-90677999D01*
X137854000Y-90625339D01*
X137826741Y-90523606D01*
X137774080Y-90432394D01*
X137699606Y-90357920D01*
X137608394Y-90305259D01*
X137506661Y-90278000D01*
X137401339Y-90278000D01*
X137299606Y-90305259D01*
X137208394Y-90357920D01*
X137133920Y-90432394D01*
X137081259Y-90523606D01*
X137054000Y-90625339D01*
X136482099Y-90625339D01*
X136074725Y-90217965D01*
X136018875Y-90438515D01*
X136018874Y-90438524D01*
X135999031Y-90677995D01*
X113350685Y-90677995D01*
X113372598Y-90602569D01*
X113375500Y-90565694D01*
X113375500Y-87234306D01*
X113372598Y-87197431D01*
X113326744Y-87039602D01*
X113326743Y-87039601D01*
X113326743Y-87039599D01*
X113243082Y-86898136D01*
X113126863Y-86781917D01*
X112985400Y-86698256D01*
X112827570Y-86652402D01*
X112790700Y-86649500D01*
X112790694Y-86649500D01*
X109459306Y-86649500D01*
X109459299Y-86649500D01*
X109422429Y-86652402D01*
X109264599Y-86698256D01*
X109123136Y-86781917D01*
X109006917Y-86898136D01*
X108923256Y-87039599D01*
X108877402Y-87197429D01*
X108874500Y-87234299D01*
X107660499Y-87234299D01*
X107657598Y-87197431D01*
X107611744Y-87039602D01*
X107611743Y-87039601D01*
X107611743Y-87039599D01*
X107528082Y-86898136D01*
X107411863Y-86781917D01*
X107270400Y-86698256D01*
X107112570Y-86652402D01*
X107075700Y-86649500D01*
X107075694Y-86649500D01*
X103744306Y-86649500D01*
X103744299Y-86649500D01*
X103707429Y-86652402D01*
X103549599Y-86698256D01*
X103408136Y-86781917D01*
X103291917Y-86898136D01*
X103208256Y-87039599D01*
X103162402Y-87197429D01*
X103159500Y-87234299D01*
X103159500Y-90565700D01*
X103162402Y-90602570D01*
X103208256Y-90760400D01*
X103291917Y-90901863D01*
X103387001Y-90996947D01*
X103451542Y-91089122D01*
X103480665Y-91197812D01*
X103470858Y-91309907D01*
X103423303Y-91411889D01*
X103353363Y-91481828D01*
X103354507Y-91483298D01*
X103154238Y-91639172D01*
X102991433Y-91816025D01*
X102991425Y-91816036D01*
X102859951Y-92017271D01*
X102763391Y-92237404D01*
X102704379Y-92470440D01*
X102702551Y-92481396D01*
X102665037Y-92587482D01*
X102612075Y-92657163D01*
X102559239Y-92709999D01*
X102040000Y-92709999D01*
X102040000Y-92657339D01*
X102012741Y-92555606D01*
X101960080Y-92464394D01*
X101885606Y-92389920D01*
X101794394Y-92337259D01*
X101692661Y-92310000D01*
X101587339Y-92310000D01*
X101485606Y-92337259D01*
X101394394Y-92389920D01*
X101319920Y-92464394D01*
X101267259Y-92555606D01*
X101240000Y-92657339D01*
X100668099Y-92657339D01*
X100260725Y-92249965D01*
X100204875Y-92470515D01*
X100204874Y-92470524D01*
X100185031Y-92709995D01*
X90025500Y-92709995D01*
X90025500Y-91333806D01*
X101183046Y-91333806D01*
X101640000Y-91790760D01*
X102096952Y-91333807D01*
X102096952Y-91333806D01*
X101997176Y-91299553D01*
X101760153Y-91260000D01*
X101519846Y-91260000D01*
X101269609Y-91301759D01*
X101269231Y-91299497D01*
X101189629Y-91305347D01*
X101183046Y-91333806D01*
X90025500Y-91333806D01*
X90025500Y-89550000D01*
X91824546Y-89550000D01*
X91896810Y-89762883D01*
X91896811Y-89762887D01*
X92027260Y-90027411D01*
X92027263Y-90027416D01*
X92191126Y-90272654D01*
X92385588Y-90494395D01*
X92385604Y-90494411D01*
X92607345Y-90688873D01*
X92852583Y-90852736D01*
X92852588Y-90852739D01*
X93117112Y-90983188D01*
X93117116Y-90983189D01*
X93329999Y-91055454D01*
X93330000Y-91055454D01*
X93330000Y-89550001D01*
X93329999Y-89550000D01*
X91824546Y-89550000D01*
X90025500Y-89550000D01*
X90025500Y-88821207D01*
X93180000Y-88821207D01*
X93180000Y-88978793D01*
X93210743Y-89133351D01*
X93271049Y-89278942D01*
X93358599Y-89409970D01*
X93470030Y-89521401D01*
X93601058Y-89608951D01*
X93746649Y-89669257D01*
X93901207Y-89700000D01*
X94058793Y-89700000D01*
X94213351Y-89669257D01*
X94358942Y-89608951D01*
X94447167Y-89550001D01*
X94630000Y-89550001D01*
X94630000Y-91055454D01*
X94842883Y-90983189D01*
X94842887Y-90983188D01*
X95107411Y-90852739D01*
X95107416Y-90852736D01*
X95352654Y-90688873D01*
X95574395Y-90494411D01*
X95574411Y-90494395D01*
X95768873Y-90272654D01*
X95932736Y-90027416D01*
X95932739Y-90027411D01*
X96063188Y-89762887D01*
X96063189Y-89762883D01*
X96135454Y-89550000D01*
X97539546Y-89550000D01*
X97611810Y-89762883D01*
X97611811Y-89762887D01*
X97742260Y-90027411D01*
X97742263Y-90027416D01*
X97906126Y-90272654D01*
X98100588Y-90494395D01*
X98100604Y-90494411D01*
X98322345Y-90688873D01*
X98567583Y-90852736D01*
X98567588Y-90852739D01*
X98832112Y-90983188D01*
X98832116Y-90983189D01*
X99044999Y-91055454D01*
X99045000Y-91055454D01*
X99045000Y-89550001D01*
X99044999Y-89550000D01*
X97539546Y-89550000D01*
X96135454Y-89550000D01*
X94630001Y-89550000D01*
X94630000Y-89550001D01*
X94447167Y-89550001D01*
X94489970Y-89521401D01*
X94601401Y-89409970D01*
X94688951Y-89278942D01*
X94749257Y-89133351D01*
X94780000Y-88978793D01*
X94780000Y-88821207D01*
X98895000Y-88821207D01*
X98895000Y-88978793D01*
X98925743Y-89133351D01*
X98986049Y-89278942D01*
X99073599Y-89409970D01*
X99185030Y-89521401D01*
X99316058Y-89608951D01*
X99461649Y-89669257D01*
X99616207Y-89700000D01*
X99773793Y-89700000D01*
X99928351Y-89669257D01*
X100073942Y-89608951D01*
X100162167Y-89550001D01*
X100345000Y-89550001D01*
X100345000Y-91055454D01*
X100557883Y-90983189D01*
X100557886Y-90983188D01*
X100742089Y-90892349D01*
X100850118Y-90860861D01*
X100912330Y-90864938D01*
X100946395Y-90794462D01*
X101027060Y-90716009D01*
X101029190Y-90714574D01*
X101067651Y-90688875D01*
X101289395Y-90494411D01*
X101289411Y-90494395D01*
X101483873Y-90272654D01*
X101647736Y-90027416D01*
X101647739Y-90027411D01*
X101778188Y-89762887D01*
X101778189Y-89762883D01*
X101850454Y-89550000D01*
X100345001Y-89550000D01*
X100345000Y-89550001D01*
X100162167Y-89550001D01*
X100204970Y-89521401D01*
X100316401Y-89409970D01*
X100403951Y-89278942D01*
X100464257Y-89133351D01*
X100495000Y-88978793D01*
X100495000Y-88821207D01*
X100464257Y-88666649D01*
X100403951Y-88521058D01*
X100316401Y-88390030D01*
X100204970Y-88278599D01*
X100162167Y-88249999D01*
X100345000Y-88249999D01*
X100345001Y-88250000D01*
X101850454Y-88250000D01*
X101850454Y-88249999D01*
X101778189Y-88037116D01*
X101778188Y-88037112D01*
X101647739Y-87772588D01*
X101647736Y-87772583D01*
X101483873Y-87527345D01*
X101289411Y-87305604D01*
X101289395Y-87305588D01*
X101067654Y-87111126D01*
X100822416Y-86947263D01*
X100822411Y-86947260D01*
X100557890Y-86816813D01*
X100557879Y-86816808D01*
X100345000Y-86744545D01*
X100345000Y-88249999D01*
X100162167Y-88249999D01*
X100073942Y-88191049D01*
X99928351Y-88130743D01*
X99773793Y-88100000D01*
X99616207Y-88100000D01*
X99461649Y-88130743D01*
X99316058Y-88191049D01*
X99185030Y-88278599D01*
X99073599Y-88390030D01*
X98986049Y-88521058D01*
X98925743Y-88666649D01*
X98895000Y-88821207D01*
X94780000Y-88821207D01*
X94749257Y-88666649D01*
X94688951Y-88521058D01*
X94601401Y-88390030D01*
X94489970Y-88278599D01*
X94447167Y-88249999D01*
X94630000Y-88249999D01*
X94630001Y-88250000D01*
X96135454Y-88250000D01*
X96135454Y-88249999D01*
X97539545Y-88249999D01*
X97539546Y-88250000D01*
X99044999Y-88250000D01*
X99045000Y-88249999D01*
X99045000Y-86744545D01*
X98832120Y-86816808D01*
X98832109Y-86816813D01*
X98567588Y-86947260D01*
X98567583Y-86947263D01*
X98322345Y-87111126D01*
X98100604Y-87305588D01*
X98100588Y-87305604D01*
X97906126Y-87527345D01*
X97742263Y-87772583D01*
X97742260Y-87772588D01*
X97611811Y-88037112D01*
X97611810Y-88037116D01*
X97539545Y-88249999D01*
X96135454Y-88249999D01*
X96063189Y-88037116D01*
X96063188Y-88037112D01*
X95932739Y-87772588D01*
X95932736Y-87772583D01*
X95768873Y-87527345D01*
X95574411Y-87305604D01*
X95574395Y-87305588D01*
X95352654Y-87111126D01*
X95107416Y-86947263D01*
X95107411Y-86947260D01*
X94842890Y-86816813D01*
X94842879Y-86816808D01*
X94630000Y-86744545D01*
X94630000Y-88249999D01*
X94447167Y-88249999D01*
X94358942Y-88191049D01*
X94213351Y-88130743D01*
X94058793Y-88100000D01*
X93901207Y-88100000D01*
X93746649Y-88130743D01*
X93601058Y-88191049D01*
X93470030Y-88278599D01*
X93358599Y-88390030D01*
X93271049Y-88521058D01*
X93210743Y-88666649D01*
X93180000Y-88821207D01*
X90025500Y-88821207D01*
X90025500Y-88249999D01*
X91824545Y-88249999D01*
X91824546Y-88250000D01*
X93329999Y-88250000D01*
X93330000Y-88249999D01*
X93330000Y-86744545D01*
X93117120Y-86816808D01*
X93117109Y-86816813D01*
X92852588Y-86947260D01*
X92852583Y-86947263D01*
X92607345Y-87111126D01*
X92385604Y-87305588D01*
X92385588Y-87305604D01*
X92191126Y-87527345D01*
X92027263Y-87772583D01*
X92027260Y-87772588D01*
X91896811Y-88037112D01*
X91896810Y-88037116D01*
X91824545Y-88249999D01*
X90025500Y-88249999D01*
X90025500Y-86364299D01*
X126673500Y-86364299D01*
X126673500Y-88895700D01*
X126676402Y-88932570D01*
X126722256Y-89090400D01*
X126805917Y-89231863D01*
X126922136Y-89348082D01*
X127063599Y-89431743D01*
X127063601Y-89431743D01*
X127063602Y-89431744D01*
X127221431Y-89477598D01*
X127258306Y-89480500D01*
X127258317Y-89480500D01*
X129789683Y-89480500D01*
X129789694Y-89480500D01*
X129826569Y-89477598D01*
X129984398Y-89431744D01*
X130125865Y-89348081D01*
X130172139Y-89301807D01*
X136997047Y-89301807D01*
X137454000Y-89758760D01*
X137910952Y-89301807D01*
X137910952Y-89301806D01*
X137811176Y-89267553D01*
X137574153Y-89228000D01*
X137333846Y-89228000D01*
X137096828Y-89267552D01*
X136997047Y-89301807D01*
X130172139Y-89301807D01*
X130242081Y-89231865D01*
X130325744Y-89090398D01*
X130371598Y-88932569D01*
X130374500Y-88895694D01*
X130374500Y-86364306D01*
X130374499Y-86364299D01*
X144199500Y-86364299D01*
X144199500Y-88895700D01*
X144202402Y-88932570D01*
X144248256Y-89090400D01*
X144331917Y-89231863D01*
X144448136Y-89348082D01*
X144589599Y-89431743D01*
X144589601Y-89431743D01*
X144589602Y-89431744D01*
X144747431Y-89477598D01*
X144784306Y-89480500D01*
X144784317Y-89480500D01*
X147315683Y-89480500D01*
X147315694Y-89480500D01*
X147352569Y-89477598D01*
X147510398Y-89431744D01*
X147651865Y-89348081D01*
X147768081Y-89231865D01*
X147851744Y-89090398D01*
X147897598Y-88932569D01*
X147900500Y-88895694D01*
X147900500Y-88137995D01*
X155516529Y-88137995D01*
X155516529Y-88138004D01*
X155536378Y-88377548D01*
X155536380Y-88377564D01*
X155595391Y-88610595D01*
X155691951Y-88830728D01*
X155823425Y-89031963D01*
X155823433Y-89031974D01*
X155986238Y-89208827D01*
X156175929Y-89356469D01*
X156175939Y-89356476D01*
X156315023Y-89431744D01*
X156387344Y-89470882D01*
X156614703Y-89548934D01*
X156851808Y-89588500D01*
X156851811Y-89588500D01*
X157092189Y-89588500D01*
X157092192Y-89588500D01*
X157329297Y-89548934D01*
X157556656Y-89470882D01*
X157768067Y-89356472D01*
X157957764Y-89208825D01*
X158120571Y-89031969D01*
X158252049Y-88830728D01*
X158348610Y-88610591D01*
X158407620Y-88377563D01*
X158427471Y-88138000D01*
X158424322Y-88100000D01*
X158407621Y-87898451D01*
X158407620Y-87898437D01*
X158348610Y-87665409D01*
X158252049Y-87445272D01*
X158120571Y-87244031D01*
X158120567Y-87244027D01*
X158120566Y-87244025D01*
X157957761Y-87067172D01*
X157768070Y-86919530D01*
X157768060Y-86919523D01*
X157556662Y-86805121D01*
X157556652Y-86805116D01*
X157329299Y-86727066D01*
X157092196Y-86687500D01*
X157092192Y-86687500D01*
X156851808Y-86687500D01*
X156851803Y-86687500D01*
X156614700Y-86727066D01*
X156387347Y-86805116D01*
X156387337Y-86805121D01*
X156175939Y-86919523D01*
X156175929Y-86919530D01*
X155986238Y-87067172D01*
X155823433Y-87244025D01*
X155823425Y-87244036D01*
X155691951Y-87445271D01*
X155595391Y-87665404D01*
X155536380Y-87898435D01*
X155536378Y-87898451D01*
X155516529Y-88137995D01*
X147900500Y-88137995D01*
X147900500Y-86364306D01*
X147897598Y-86327431D01*
X147851744Y-86169602D01*
X147851743Y-86169601D01*
X147851743Y-86169599D01*
X147768082Y-86028136D01*
X147651863Y-85911917D01*
X147510400Y-85828256D01*
X147352570Y-85782402D01*
X147315700Y-85779500D01*
X147315694Y-85779500D01*
X144784306Y-85779500D01*
X144784299Y-85779500D01*
X144747429Y-85782402D01*
X144589599Y-85828256D01*
X144448136Y-85911917D01*
X144331917Y-86028136D01*
X144248256Y-86169599D01*
X144202402Y-86327429D01*
X144199500Y-86364299D01*
X130374499Y-86364299D01*
X130371598Y-86327431D01*
X130325744Y-86169602D01*
X130325743Y-86169601D01*
X130325743Y-86169599D01*
X130242082Y-86028136D01*
X130125863Y-85911917D01*
X129984400Y-85828256D01*
X129826570Y-85782402D01*
X129789700Y-85779500D01*
X129789694Y-85779500D01*
X127258306Y-85779500D01*
X127258299Y-85779500D01*
X127221429Y-85782402D01*
X127063599Y-85828256D01*
X126922136Y-85911917D01*
X126805917Y-86028136D01*
X126722256Y-86169599D01*
X126676402Y-86327429D01*
X126673500Y-86364299D01*
X90025500Y-86364299D01*
X90025500Y-74534299D01*
X91729500Y-74534299D01*
X91729500Y-77865700D01*
X91732402Y-77902570D01*
X91778256Y-78060400D01*
X91861917Y-78201863D01*
X91978136Y-78318082D01*
X92119599Y-78401743D01*
X92119601Y-78401743D01*
X92119602Y-78401744D01*
X92277431Y-78447598D01*
X92314306Y-78450500D01*
X92314317Y-78450500D01*
X95645683Y-78450500D01*
X95645694Y-78450500D01*
X95682569Y-78447598D01*
X95840398Y-78401744D01*
X95981865Y-78318081D01*
X96098081Y-78201865D01*
X96181744Y-78060398D01*
X96227598Y-77902569D01*
X96230500Y-77865694D01*
X96230500Y-74534306D01*
X96230499Y-74534299D01*
X97444500Y-74534299D01*
X97444500Y-77865700D01*
X97447402Y-77902570D01*
X97493256Y-78060400D01*
X97576917Y-78201863D01*
X97693136Y-78318082D01*
X97834599Y-78401743D01*
X97834601Y-78401743D01*
X97834602Y-78401744D01*
X97992431Y-78447598D01*
X98029306Y-78450500D01*
X98029317Y-78450500D01*
X101360683Y-78450500D01*
X101360694Y-78450500D01*
X101397569Y-78447598D01*
X101555398Y-78401744D01*
X101696865Y-78318081D01*
X101813081Y-78201865D01*
X101896744Y-78060398D01*
X101942598Y-77902569D01*
X101945500Y-77865694D01*
X101945500Y-76199995D01*
X103154671Y-76199995D01*
X103154671Y-76200004D01*
X103173964Y-76494369D01*
X103173967Y-76494390D01*
X103231517Y-76783718D01*
X103231520Y-76783728D01*
X103326344Y-77063066D01*
X103326350Y-77063082D01*
X103456826Y-77327662D01*
X103456828Y-77327665D01*
X103620727Y-77572957D01*
X103815242Y-77794758D01*
X104037043Y-77989273D01*
X104282335Y-78153172D01*
X104546923Y-78283652D01*
X104648347Y-78318081D01*
X104826271Y-78378479D01*
X104826281Y-78378482D01*
X105115609Y-78436032D01*
X105115612Y-78436032D01*
X105115620Y-78436034D01*
X105115625Y-78436034D01*
X105115630Y-78436035D01*
X105409996Y-78455329D01*
X105410000Y-78455329D01*
X105410004Y-78455329D01*
X105704369Y-78436035D01*
X105704372Y-78436034D01*
X105704380Y-78436034D01*
X105876775Y-78401743D01*
X105993718Y-78378482D01*
X105993720Y-78378481D01*
X105993722Y-78378481D01*
X106273077Y-78283652D01*
X106537665Y-78153172D01*
X106782957Y-77989273D01*
X107004758Y-77794758D01*
X107199273Y-77572957D01*
X107363172Y-77327665D01*
X107493652Y-77063077D01*
X107588481Y-76783722D01*
X107646034Y-76494380D01*
X107665329Y-76200000D01*
X107665329Y-76199995D01*
X108869671Y-76199995D01*
X108869671Y-76200004D01*
X108888964Y-76494369D01*
X108888967Y-76494390D01*
X108946517Y-76783718D01*
X108946520Y-76783728D01*
X109041344Y-77063066D01*
X109041350Y-77063082D01*
X109171826Y-77327662D01*
X109171828Y-77327665D01*
X109335727Y-77572957D01*
X109530242Y-77794758D01*
X109752043Y-77989273D01*
X109997335Y-78153172D01*
X110261923Y-78283652D01*
X110363347Y-78318081D01*
X110541271Y-78378479D01*
X110541281Y-78378482D01*
X110830609Y-78436032D01*
X110830612Y-78436032D01*
X110830620Y-78436034D01*
X110830625Y-78436034D01*
X110830630Y-78436035D01*
X111124996Y-78455329D01*
X111125000Y-78455329D01*
X111125004Y-78455329D01*
X111419369Y-78436035D01*
X111419372Y-78436034D01*
X111419380Y-78436034D01*
X111591775Y-78401743D01*
X111708718Y-78378482D01*
X111708720Y-78378481D01*
X111708722Y-78378481D01*
X111988077Y-78283652D01*
X112252665Y-78153172D01*
X112497957Y-77989273D01*
X112719758Y-77794758D01*
X112914273Y-77572957D01*
X113078172Y-77327665D01*
X113208652Y-77063077D01*
X113303481Y-76783722D01*
X113361034Y-76494380D01*
X113380329Y-76200000D01*
X113378524Y-76172461D01*
X113361035Y-75905630D01*
X113361032Y-75905609D01*
X113318543Y-75691997D01*
X155417207Y-75691997D01*
X155417207Y-75692002D01*
X155436349Y-75935221D01*
X155436350Y-75935227D01*
X155493305Y-76172461D01*
X155586666Y-76397855D01*
X155586672Y-76397867D01*
X155643010Y-76489802D01*
X155684251Y-76594496D01*
X155687196Y-76706982D01*
X155651492Y-76813691D01*
X155595860Y-76888193D01*
X155553917Y-76930136D01*
X155470256Y-77071599D01*
X155424402Y-77229429D01*
X155421500Y-77266299D01*
X155421500Y-79197700D01*
X155424402Y-79234570D01*
X155470256Y-79392400D01*
X155553917Y-79533863D01*
X155582184Y-79562130D01*
X155646725Y-79654305D01*
X155675848Y-79762995D01*
X155666041Y-79875090D01*
X155649793Y-79921380D01*
X155595390Y-80045407D01*
X155536380Y-80278435D01*
X155536378Y-80278451D01*
X155516529Y-80517995D01*
X155516529Y-80518004D01*
X155536378Y-80757548D01*
X155536380Y-80757564D01*
X155595391Y-80990595D01*
X155691951Y-81210728D01*
X155823425Y-81411963D01*
X155823433Y-81411974D01*
X155986238Y-81588827D01*
X156175929Y-81736469D01*
X156175939Y-81736476D01*
X156340929Y-81825763D01*
X156387344Y-81850882D01*
X156614703Y-81928934D01*
X156851808Y-81968500D01*
X156851811Y-81968500D01*
X157092189Y-81968500D01*
X157092192Y-81968500D01*
X157329297Y-81928934D01*
X157556656Y-81850882D01*
X157768067Y-81736472D01*
X157957764Y-81588825D01*
X158120571Y-81411969D01*
X158252049Y-81210728D01*
X158348610Y-80990591D01*
X158407620Y-80757563D01*
X158427471Y-80518000D01*
X158407620Y-80278437D01*
X158348610Y-80045409D01*
X158294206Y-79921380D01*
X158267587Y-79812054D01*
X158279965Y-79700213D01*
X158329848Y-79599350D01*
X158361816Y-79562130D01*
X158390081Y-79533865D01*
X158390083Y-79533863D01*
X158473743Y-79392400D01*
X158473744Y-79392398D01*
X158519598Y-79234569D01*
X158522500Y-79197694D01*
X158522500Y-77266306D01*
X158519598Y-77229431D01*
X158473744Y-77071602D01*
X158473743Y-77071601D01*
X158473743Y-77071599D01*
X158390082Y-76930136D01*
X158348141Y-76888195D01*
X158283600Y-76796020D01*
X158254477Y-76687330D01*
X158264284Y-76575235D01*
X158300990Y-76489800D01*
X158357329Y-76397863D01*
X158357333Y-76397855D01*
X158450694Y-76172461D01*
X158507649Y-75935227D01*
X158507650Y-75935221D01*
X158526793Y-75692002D01*
X158526793Y-75691997D01*
X158507650Y-75448778D01*
X158507649Y-75448772D01*
X158450696Y-75211544D01*
X158427556Y-75155682D01*
X157201102Y-76382136D01*
X157108927Y-76446677D01*
X157000237Y-76475800D01*
X156888142Y-76465993D01*
X156786160Y-76418438D01*
X156742896Y-76382136D01*
X155993516Y-75632756D01*
X156522000Y-75632756D01*
X156522000Y-75751244D01*
X156552667Y-75865694D01*
X156611910Y-75968306D01*
X156695694Y-76052090D01*
X156798306Y-76111333D01*
X156912756Y-76142000D01*
X157031244Y-76142000D01*
X157145694Y-76111333D01*
X157248306Y-76052090D01*
X157332090Y-75968306D01*
X157391333Y-75865694D01*
X157422000Y-75751244D01*
X157422000Y-75632756D01*
X157391333Y-75518306D01*
X157332090Y-75415694D01*
X157248306Y-75331910D01*
X157145694Y-75272667D01*
X157031244Y-75242000D01*
X156912756Y-75242000D01*
X156798306Y-75272667D01*
X156695694Y-75331910D01*
X156611910Y-75415694D01*
X156552667Y-75518306D01*
X156522000Y-75632756D01*
X155993516Y-75632756D01*
X155516442Y-75155682D01*
X155493304Y-75211543D01*
X155436350Y-75448772D01*
X155436349Y-75448778D01*
X155417207Y-75691997D01*
X113318543Y-75691997D01*
X113303482Y-75616281D01*
X113303479Y-75616271D01*
X113208655Y-75336933D01*
X113208652Y-75336923D01*
X113161841Y-75242000D01*
X113078172Y-75072336D01*
X112968412Y-74908068D01*
X112914277Y-74827048D01*
X112914273Y-74827043D01*
X112719758Y-74605242D01*
X112497957Y-74410727D01*
X112391507Y-74339599D01*
X112252667Y-74246829D01*
X112252662Y-74246826D01*
X112231605Y-74236442D01*
X156435682Y-74236442D01*
X156972000Y-74772760D01*
X157508317Y-74236442D01*
X157452457Y-74213304D01*
X157215227Y-74156350D01*
X157215221Y-74156349D01*
X156972002Y-74137207D01*
X156971998Y-74137207D01*
X156728778Y-74156349D01*
X156728772Y-74156350D01*
X156491543Y-74213304D01*
X156435682Y-74236442D01*
X112231605Y-74236442D01*
X111988082Y-74116350D01*
X111988066Y-74116344D01*
X111708728Y-74021520D01*
X111708718Y-74021517D01*
X111419390Y-73963967D01*
X111419369Y-73963964D01*
X111125004Y-73944671D01*
X111124996Y-73944671D01*
X110830630Y-73963964D01*
X110830609Y-73963967D01*
X110541281Y-74021517D01*
X110541271Y-74021520D01*
X110261933Y-74116344D01*
X110261923Y-74116347D01*
X110018397Y-74236442D01*
X109997336Y-74246828D01*
X109997335Y-74246829D01*
X109752048Y-74410722D01*
X109530242Y-74605242D01*
X109335722Y-74827048D01*
X109171827Y-75072338D01*
X109041347Y-75336923D01*
X109041344Y-75336933D01*
X108946520Y-75616271D01*
X108946517Y-75616281D01*
X108888967Y-75905609D01*
X108888964Y-75905630D01*
X108869671Y-76199995D01*
X107665329Y-76199995D01*
X107663524Y-76172461D01*
X107646035Y-75905630D01*
X107646032Y-75905609D01*
X107588482Y-75616281D01*
X107588479Y-75616271D01*
X107493655Y-75336933D01*
X107493652Y-75336923D01*
X107446841Y-75242000D01*
X107363172Y-75072336D01*
X107253412Y-74908068D01*
X107199277Y-74827048D01*
X107199273Y-74827043D01*
X107004758Y-74605242D01*
X106782957Y-74410727D01*
X106676507Y-74339599D01*
X106537667Y-74246829D01*
X106537662Y-74246826D01*
X106273082Y-74116350D01*
X106273066Y-74116344D01*
X105993728Y-74021520D01*
X105993718Y-74021517D01*
X105704390Y-73963967D01*
X105704369Y-73963964D01*
X105410004Y-73944671D01*
X105409996Y-73944671D01*
X105115630Y-73963964D01*
X105115609Y-73963967D01*
X104826281Y-74021517D01*
X104826271Y-74021520D01*
X104546933Y-74116344D01*
X104546923Y-74116347D01*
X104303397Y-74236442D01*
X104282336Y-74246828D01*
X104282335Y-74246829D01*
X104037048Y-74410722D01*
X103815242Y-74605242D01*
X103620722Y-74827048D01*
X103456827Y-75072338D01*
X103326347Y-75336923D01*
X103326344Y-75336933D01*
X103231520Y-75616271D01*
X103231517Y-75616281D01*
X103173967Y-75905609D01*
X103173964Y-75905630D01*
X103154671Y-76199995D01*
X101945500Y-76199995D01*
X101945500Y-74534306D01*
X101942598Y-74497431D01*
X101896744Y-74339602D01*
X101896743Y-74339601D01*
X101896743Y-74339599D01*
X101813082Y-74198136D01*
X101696863Y-74081917D01*
X101555400Y-73998256D01*
X101397570Y-73952402D01*
X101360700Y-73949500D01*
X101360694Y-73949500D01*
X98029306Y-73949500D01*
X98029299Y-73949500D01*
X97992429Y-73952402D01*
X97834599Y-73998256D01*
X97693136Y-74081917D01*
X97576917Y-74198136D01*
X97493256Y-74339599D01*
X97447402Y-74497429D01*
X97444500Y-74534299D01*
X96230499Y-74534299D01*
X96227598Y-74497431D01*
X96181744Y-74339602D01*
X96181743Y-74339601D01*
X96181743Y-74339599D01*
X96098082Y-74198136D01*
X95981863Y-74081917D01*
X95840400Y-73998256D01*
X95682570Y-73952402D01*
X95645700Y-73949500D01*
X95645694Y-73949500D01*
X92314306Y-73949500D01*
X92314299Y-73949500D01*
X92277429Y-73952402D01*
X92119599Y-73998256D01*
X91978136Y-74081917D01*
X91861917Y-74198136D01*
X91778256Y-74339599D01*
X91732402Y-74497429D01*
X91729500Y-74534299D01*
X90025500Y-74534299D01*
X90025500Y-60349500D01*
X90045040Y-60238685D01*
X90101302Y-60141237D01*
X90187500Y-60068908D01*
X90293238Y-60030422D01*
X90349500Y-60025500D01*
X101291618Y-60025500D01*
X101402433Y-60045040D01*
G37*
G04 #@! TD.AperFunction*
M02*
