G04 #@! TF.GenerationSoftware,KiCad,Pcbnew,(5.1.5)-3*
G04 #@! TF.CreationDate,2022-01-30T18:04:33+02:00*
G04 #@! TF.ProjectId,c64-wedge-psu-pcb,6336342d-7765-4646-9765-2d7073752d70,rev?*
G04 #@! TF.SameCoordinates,Original*
G04 #@! TF.FileFunction,Copper,L2,Bot*
G04 #@! TF.FilePolarity,Positive*
%FSLAX46Y46*%
G04 Gerber Fmt 4.6, Leading zero omitted, Abs format (unit mm)*
G04 Created by KiCad (PCBNEW (5.1.5)-3) date 2022-01-30 18:04:33*
%MOMM*%
%LPD*%
G04 APERTURE LIST*
%ADD10C,1.800000*%
%ADD11R,1.800000X1.800000*%
%ADD12O,1.600000X1.600000*%
%ADD13C,1.600000*%
%ADD14O,1.800000X1.800000*%
%ADD15C,2.400000*%
%ADD16R,2.400000X2.400000*%
%ADD17C,3.000000*%
%ADD18R,1.600000X1.600000*%
%ADD19O,3.200000X3.200000*%
%ADD20R,3.200000X3.200000*%
%ADD21C,3.600000*%
%ADD22C,2.600000*%
%ADD23R,2.600000X2.600000*%
%ADD24C,4.500880*%
%ADD25C,0.650000*%
G04 APERTURE END LIST*
D10*
X154700000Y-82440000D03*
D11*
X154700000Y-79900000D03*
D12*
X108680000Y-108000000D03*
D13*
X116300000Y-108000000D03*
D12*
X150800000Y-77620000D03*
D13*
X150800000Y-70000000D03*
D12*
X108680000Y-111200000D03*
D13*
X116300000Y-111200000D03*
D14*
X112500000Y-104150000D03*
X116300000Y-102450000D03*
X112500000Y-100750000D03*
X116300000Y-99050000D03*
D11*
X112500000Y-97350000D03*
D15*
X141000000Y-79500000D03*
D16*
X141000000Y-87000000D03*
D15*
X115500000Y-79500000D03*
D16*
X115500000Y-87000000D03*
D17*
X156120000Y-101000000D03*
X148500000Y-101000000D03*
D13*
X153000000Y-86500000D03*
D18*
X153000000Y-90000000D03*
D19*
X127000000Y-77300000D03*
D20*
X127000000Y-90000000D03*
D21*
X132000000Y-95000000D03*
X132000000Y-106440000D03*
D22*
X93500000Y-77600000D03*
D23*
X93500000Y-88000000D03*
D22*
X103900000Y-88000000D03*
X103900000Y-77600000D03*
D24*
X150000000Y-63000000D03*
X142000000Y-63000000D03*
X112000000Y-63000000D03*
X104000000Y-63000000D03*
D25*
G36*
X101141652Y-61472181D02*
G01*
X100898511Y-62059174D01*
X100774560Y-62682322D01*
X100774560Y-63317678D01*
X100898511Y-63940826D01*
X101141652Y-64527819D01*
X101494637Y-65056098D01*
X101943902Y-65505363D01*
X102472181Y-65858348D01*
X103059174Y-66101489D01*
X103682322Y-66225440D01*
X104317678Y-66225440D01*
X104940826Y-66101489D01*
X105527819Y-65858348D01*
X106056098Y-65505363D01*
X106505363Y-65056098D01*
X106858348Y-64527819D01*
X107101489Y-63940826D01*
X107225440Y-63317678D01*
X107225440Y-62682322D01*
X107101489Y-62059174D01*
X106858348Y-61472181D01*
X106542847Y-61000000D01*
X109457153Y-61000000D01*
X109141652Y-61472181D01*
X108898511Y-62059174D01*
X108774560Y-62682322D01*
X108774560Y-63317678D01*
X108898511Y-63940826D01*
X109141652Y-64527819D01*
X109494637Y-65056098D01*
X109943902Y-65505363D01*
X110472181Y-65858348D01*
X111059174Y-66101489D01*
X111682322Y-66225440D01*
X112317678Y-66225440D01*
X112940826Y-66101489D01*
X113527819Y-65858348D01*
X114056098Y-65505363D01*
X114505363Y-65056098D01*
X114858348Y-64527819D01*
X115101489Y-63940826D01*
X115225440Y-63317678D01*
X115225440Y-62682322D01*
X115101489Y-62059174D01*
X114858348Y-61472181D01*
X114542847Y-61000000D01*
X139457153Y-61000000D01*
X139141652Y-61472181D01*
X138898511Y-62059174D01*
X138774560Y-62682322D01*
X138774560Y-63317678D01*
X138898511Y-63940826D01*
X139141652Y-64527819D01*
X139494637Y-65056098D01*
X139943902Y-65505363D01*
X140472181Y-65858348D01*
X141059174Y-66101489D01*
X141682322Y-66225440D01*
X142317678Y-66225440D01*
X142940826Y-66101489D01*
X143527819Y-65858348D01*
X144056098Y-65505363D01*
X144224738Y-65336723D01*
X148122897Y-65336723D01*
X148367493Y-65799876D01*
X148945090Y-66064564D01*
X149563227Y-66211482D01*
X150198148Y-66234985D01*
X150825455Y-66134168D01*
X151421039Y-65912907D01*
X151632507Y-65799876D01*
X151877103Y-65336723D01*
X150000000Y-63459619D01*
X148122897Y-65336723D01*
X144224738Y-65336723D01*
X144505363Y-65056098D01*
X144858348Y-64527819D01*
X145101489Y-63940826D01*
X145225440Y-63317678D01*
X145225440Y-62682322D01*
X145101489Y-62059174D01*
X144858348Y-61472181D01*
X144542847Y-61000000D01*
X147540378Y-61000000D01*
X147663276Y-61122898D01*
X147200124Y-61367493D01*
X146935436Y-61945090D01*
X146788518Y-62563227D01*
X146765015Y-63198148D01*
X146865832Y-63825455D01*
X147087093Y-64421039D01*
X147200124Y-64632507D01*
X147663277Y-64877103D01*
X149540381Y-63000000D01*
X149526238Y-62985858D01*
X149985858Y-62526238D01*
X150000000Y-62540381D01*
X150014142Y-62526238D01*
X150473762Y-62985858D01*
X150459619Y-63000000D01*
X152336723Y-64877103D01*
X152799876Y-64632507D01*
X153064564Y-64054910D01*
X153211482Y-63436773D01*
X153234985Y-62801852D01*
X153134168Y-62174545D01*
X152912907Y-61578961D01*
X152799876Y-61367493D01*
X152336724Y-61122898D01*
X152459622Y-61000000D01*
X159000000Y-61000000D01*
X159000001Y-89675000D01*
X154779717Y-89675000D01*
X154779717Y-89200000D01*
X154760892Y-89008867D01*
X154705140Y-88825079D01*
X154614605Y-88655698D01*
X154492765Y-88507235D01*
X154344302Y-88385395D01*
X154174921Y-88294860D01*
X153991133Y-88239108D01*
X153800000Y-88220283D01*
X153437490Y-88220283D01*
X153595341Y-88181295D01*
X153767885Y-88109825D01*
X153834492Y-87794111D01*
X153000000Y-86959619D01*
X152165508Y-87794111D01*
X152232115Y-88109825D01*
X152537649Y-88220283D01*
X152200000Y-88220283D01*
X152008867Y-88239108D01*
X151825079Y-88294860D01*
X151655698Y-88385395D01*
X151507235Y-88507235D01*
X151385395Y-88655698D01*
X151294860Y-88825079D01*
X151239108Y-89008867D01*
X151220283Y-89200000D01*
X151220283Y-89675000D01*
X129579717Y-89675000D01*
X129579717Y-88400000D01*
X129560892Y-88208867D01*
X129505140Y-88025079D01*
X129414605Y-87855698D01*
X129292765Y-87707235D01*
X129144302Y-87585395D01*
X128974921Y-87494860D01*
X128791133Y-87439108D01*
X128600000Y-87420283D01*
X125400000Y-87420283D01*
X125208867Y-87439108D01*
X125025079Y-87494860D01*
X124855698Y-87585395D01*
X124707235Y-87707235D01*
X124585395Y-87855698D01*
X124494860Y-88025079D01*
X124439108Y-88208867D01*
X124420283Y-88400000D01*
X124420283Y-89675000D01*
X118000000Y-89675000D01*
X117936596Y-89681245D01*
X117875628Y-89699739D01*
X117819440Y-89729772D01*
X117770190Y-89770190D01*
X117729772Y-89819440D01*
X117699739Y-89875628D01*
X117681245Y-89936596D01*
X117675000Y-90000000D01*
X117675000Y-97773350D01*
X117495243Y-97593593D01*
X117188145Y-97388397D01*
X116846917Y-97247056D01*
X116484671Y-97175000D01*
X116115329Y-97175000D01*
X115753083Y-97247056D01*
X115411855Y-97388397D01*
X115104757Y-97593593D01*
X114843593Y-97854757D01*
X114638397Y-98161855D01*
X114497056Y-98503083D01*
X114425000Y-98865329D01*
X114425000Y-99234671D01*
X114497056Y-99596917D01*
X114638397Y-99938145D01*
X114843593Y-100245243D01*
X115104757Y-100506407D01*
X115411855Y-100711603D01*
X115504554Y-100750000D01*
X115411855Y-100788397D01*
X115104757Y-100993593D01*
X114843593Y-101254757D01*
X114638397Y-101561855D01*
X114497056Y-101903083D01*
X114425000Y-102265329D01*
X114425000Y-102634671D01*
X114497056Y-102996917D01*
X114638397Y-103338145D01*
X114843593Y-103645243D01*
X115104757Y-103906407D01*
X115411855Y-104111603D01*
X115753083Y-104252944D01*
X116115329Y-104325000D01*
X116484671Y-104325000D01*
X116846917Y-104252944D01*
X117188145Y-104111603D01*
X117495243Y-103906407D01*
X117675000Y-103726650D01*
X117675000Y-106864772D01*
X117431496Y-106621268D01*
X117140778Y-106427016D01*
X116817748Y-106293213D01*
X116474822Y-106225000D01*
X116125178Y-106225000D01*
X115782252Y-106293213D01*
X115459222Y-106427016D01*
X115168504Y-106621268D01*
X114921268Y-106868504D01*
X114727016Y-107159222D01*
X114593213Y-107482252D01*
X114525000Y-107825178D01*
X114525000Y-108174822D01*
X114593213Y-108517748D01*
X114727016Y-108840778D01*
X114921268Y-109131496D01*
X115168504Y-109378732D01*
X115459222Y-109572984D01*
X115524445Y-109600000D01*
X115459222Y-109627016D01*
X115168504Y-109821268D01*
X114921268Y-110068504D01*
X114727016Y-110359222D01*
X114593213Y-110682252D01*
X114525000Y-111025178D01*
X114525000Y-111374822D01*
X114593213Y-111717748D01*
X114727016Y-112040778D01*
X114921268Y-112331496D01*
X115168504Y-112578732D01*
X115459222Y-112772984D01*
X115782252Y-112906787D01*
X116125178Y-112975000D01*
X116474822Y-112975000D01*
X116817748Y-112906787D01*
X117140778Y-112772984D01*
X117431496Y-112578732D01*
X117675000Y-112335228D01*
X117675000Y-113000000D01*
X91000000Y-113000000D01*
X91000000Y-111025178D01*
X106905000Y-111025178D01*
X106905000Y-111374822D01*
X106973213Y-111717748D01*
X107107016Y-112040778D01*
X107301268Y-112331496D01*
X107548504Y-112578732D01*
X107839222Y-112772984D01*
X108162252Y-112906787D01*
X108505178Y-112975000D01*
X108854822Y-112975000D01*
X109197748Y-112906787D01*
X109520778Y-112772984D01*
X109811496Y-112578732D01*
X110058732Y-112331496D01*
X110252984Y-112040778D01*
X110386787Y-111717748D01*
X110455000Y-111374822D01*
X110455000Y-111025178D01*
X110386787Y-110682252D01*
X110252984Y-110359222D01*
X110058732Y-110068504D01*
X109811496Y-109821268D01*
X109520778Y-109627016D01*
X109441226Y-109594065D01*
X109588887Y-109524659D01*
X109868869Y-109318048D01*
X110103164Y-109060785D01*
X110282767Y-108762757D01*
X110352668Y-108593976D01*
X110176363Y-108325000D01*
X109005000Y-108325000D01*
X109005000Y-108345000D01*
X108355000Y-108345000D01*
X108355000Y-108325000D01*
X107183637Y-108325000D01*
X107007332Y-108593976D01*
X107077233Y-108762757D01*
X107256836Y-109060785D01*
X107491131Y-109318048D01*
X107771113Y-109524659D01*
X107918774Y-109594065D01*
X107839222Y-109627016D01*
X107548504Y-109821268D01*
X107301268Y-110068504D01*
X107107016Y-110359222D01*
X106973213Y-110682252D01*
X106905000Y-111025178D01*
X91000000Y-111025178D01*
X91000000Y-107406024D01*
X107007332Y-107406024D01*
X107183637Y-107675000D01*
X108355000Y-107675000D01*
X108355000Y-106498747D01*
X109005000Y-106498747D01*
X109005000Y-107675000D01*
X110176363Y-107675000D01*
X110352668Y-107406024D01*
X110282767Y-107237243D01*
X110103164Y-106939215D01*
X109868869Y-106681952D01*
X109588887Y-106475341D01*
X109273977Y-106327322D01*
X109005000Y-106498747D01*
X108355000Y-106498747D01*
X108086023Y-106327322D01*
X107771113Y-106475341D01*
X107491131Y-106681952D01*
X107256836Y-106939215D01*
X107077233Y-107237243D01*
X107007332Y-107406024D01*
X91000000Y-107406024D01*
X91000000Y-104759875D01*
X110726948Y-104759875D01*
X110879997Y-105094062D01*
X111095302Y-105391969D01*
X111364589Y-105642148D01*
X111677509Y-105834984D01*
X111890126Y-105923043D01*
X112175000Y-105748547D01*
X112175000Y-104475000D01*
X112825000Y-104475000D01*
X112825000Y-105748547D01*
X113109874Y-105923043D01*
X113322491Y-105834984D01*
X113635411Y-105642148D01*
X113904698Y-105391969D01*
X114120003Y-105094062D01*
X114273052Y-104759875D01*
X114102878Y-104475000D01*
X112825000Y-104475000D01*
X112175000Y-104475000D01*
X110897122Y-104475000D01*
X110726948Y-104759875D01*
X91000000Y-104759875D01*
X91000000Y-100481611D01*
X93595000Y-100481611D01*
X93595000Y-101018389D01*
X93699720Y-101544853D01*
X93905136Y-102040771D01*
X94203354Y-102487086D01*
X94582914Y-102866646D01*
X95029229Y-103164864D01*
X95525147Y-103370280D01*
X96051611Y-103475000D01*
X96588389Y-103475000D01*
X97114853Y-103370280D01*
X97610771Y-103164864D01*
X98057086Y-102866646D01*
X98436646Y-102487086D01*
X98734864Y-102040771D01*
X98940280Y-101544853D01*
X98977074Y-101359875D01*
X110726948Y-101359875D01*
X110879997Y-101694062D01*
X111095302Y-101991969D01*
X111364589Y-102242148D01*
X111677509Y-102434984D01*
X111713765Y-102450000D01*
X111677509Y-102465016D01*
X111364589Y-102657852D01*
X111095302Y-102908031D01*
X110879997Y-103205938D01*
X110726948Y-103540125D01*
X110897122Y-103825000D01*
X112175000Y-103825000D01*
X112175000Y-102551453D01*
X112009373Y-102450000D01*
X112175000Y-102348547D01*
X112175000Y-101075000D01*
X112825000Y-101075000D01*
X112825000Y-102348547D01*
X112990627Y-102450000D01*
X112825000Y-102551453D01*
X112825000Y-103825000D01*
X114102878Y-103825000D01*
X114273052Y-103540125D01*
X114120003Y-103205938D01*
X113904698Y-102908031D01*
X113635411Y-102657852D01*
X113322491Y-102465016D01*
X113286235Y-102450000D01*
X113322491Y-102434984D01*
X113635411Y-102242148D01*
X113904698Y-101991969D01*
X114120003Y-101694062D01*
X114273052Y-101359875D01*
X114102878Y-101075000D01*
X112825000Y-101075000D01*
X112175000Y-101075000D01*
X110897122Y-101075000D01*
X110726948Y-101359875D01*
X98977074Y-101359875D01*
X99045000Y-101018389D01*
X99045000Y-100481611D01*
X98940280Y-99955147D01*
X98734864Y-99459229D01*
X98436646Y-99012914D01*
X98057086Y-98633354D01*
X97610771Y-98335136D01*
X97114853Y-98129720D01*
X96588389Y-98025000D01*
X96051611Y-98025000D01*
X95525147Y-98129720D01*
X95029229Y-98335136D01*
X94582914Y-98633354D01*
X94203354Y-99012914D01*
X93905136Y-99459229D01*
X93699720Y-99955147D01*
X93595000Y-100481611D01*
X91000000Y-100481611D01*
X91000000Y-96450000D01*
X110620283Y-96450000D01*
X110620283Y-98250000D01*
X110639108Y-98441133D01*
X110694860Y-98624921D01*
X110785395Y-98794302D01*
X110907235Y-98942765D01*
X111055698Y-99064605D01*
X111225079Y-99155140D01*
X111408867Y-99210892D01*
X111436393Y-99213603D01*
X111364589Y-99257852D01*
X111095302Y-99508031D01*
X110879997Y-99805938D01*
X110726948Y-100140125D01*
X110897122Y-100425000D01*
X112175000Y-100425000D01*
X112175000Y-100405000D01*
X112825000Y-100405000D01*
X112825000Y-100425000D01*
X114102878Y-100425000D01*
X114273052Y-100140125D01*
X114120003Y-99805938D01*
X113904698Y-99508031D01*
X113635411Y-99257852D01*
X113563607Y-99213603D01*
X113591133Y-99210892D01*
X113774921Y-99155140D01*
X113944302Y-99064605D01*
X114092765Y-98942765D01*
X114214605Y-98794302D01*
X114305140Y-98624921D01*
X114360892Y-98441133D01*
X114379717Y-98250000D01*
X114379717Y-96450000D01*
X114360892Y-96258867D01*
X114305140Y-96075079D01*
X114214605Y-95905698D01*
X114092765Y-95757235D01*
X113944302Y-95635395D01*
X113774921Y-95544860D01*
X113591133Y-95489108D01*
X113400000Y-95470283D01*
X111600000Y-95470283D01*
X111408867Y-95489108D01*
X111225079Y-95544860D01*
X111055698Y-95635395D01*
X110907235Y-95757235D01*
X110785395Y-95905698D01*
X110694860Y-96075079D01*
X110639108Y-96258867D01*
X110620283Y-96450000D01*
X91000000Y-96450000D01*
X91000000Y-86700000D01*
X91220283Y-86700000D01*
X91220283Y-89300000D01*
X91239108Y-89491133D01*
X91294860Y-89674921D01*
X91385395Y-89844302D01*
X91507235Y-89992765D01*
X91655698Y-90114605D01*
X91825079Y-90205140D01*
X92008867Y-90260892D01*
X92200000Y-90279717D01*
X94800000Y-90279717D01*
X94991133Y-90260892D01*
X95174921Y-90205140D01*
X95344302Y-90114605D01*
X95492765Y-89992765D01*
X95614605Y-89844302D01*
X95705140Y-89674921D01*
X95760892Y-89491133D01*
X95779717Y-89300000D01*
X95779717Y-87775932D01*
X101625000Y-87775932D01*
X101625000Y-88224068D01*
X101712427Y-88663593D01*
X101883921Y-89077617D01*
X102132892Y-89450228D01*
X102449772Y-89767108D01*
X102822383Y-90016079D01*
X103236407Y-90187573D01*
X103675932Y-90275000D01*
X104124068Y-90275000D01*
X104563593Y-90187573D01*
X104977617Y-90016079D01*
X105350228Y-89767108D01*
X105667108Y-89450228D01*
X105916079Y-89077617D01*
X106087573Y-88663593D01*
X106175000Y-88224068D01*
X106175000Y-87775932D01*
X106087573Y-87336407D01*
X105916079Y-86922383D01*
X105667108Y-86549772D01*
X105350228Y-86232892D01*
X104977617Y-85983921D01*
X104563593Y-85812427D01*
X104501119Y-85800000D01*
X113320283Y-85800000D01*
X113320283Y-88200000D01*
X113339108Y-88391133D01*
X113394860Y-88574921D01*
X113485395Y-88744302D01*
X113607235Y-88892765D01*
X113755698Y-89014605D01*
X113925079Y-89105140D01*
X114108867Y-89160892D01*
X114300000Y-89179717D01*
X116700000Y-89179717D01*
X116891133Y-89160892D01*
X117074921Y-89105140D01*
X117244302Y-89014605D01*
X117392765Y-88892765D01*
X117514605Y-88744302D01*
X117605140Y-88574921D01*
X117660892Y-88391133D01*
X117679717Y-88200000D01*
X117679717Y-85800000D01*
X138820283Y-85800000D01*
X138820283Y-88200000D01*
X138839108Y-88391133D01*
X138894860Y-88574921D01*
X138985395Y-88744302D01*
X139107235Y-88892765D01*
X139255698Y-89014605D01*
X139425079Y-89105140D01*
X139608867Y-89160892D01*
X139800000Y-89179717D01*
X142200000Y-89179717D01*
X142391133Y-89160892D01*
X142574921Y-89105140D01*
X142744302Y-89014605D01*
X142892765Y-88892765D01*
X143014605Y-88744302D01*
X143105140Y-88574921D01*
X143160892Y-88391133D01*
X143179717Y-88200000D01*
X143179717Y-86406620D01*
X151218858Y-86406620D01*
X151234865Y-86755898D01*
X151318705Y-87095341D01*
X151390175Y-87267885D01*
X151705889Y-87334492D01*
X152540381Y-86500000D01*
X153459619Y-86500000D01*
X154294111Y-87334492D01*
X154609825Y-87267885D01*
X154728700Y-86939069D01*
X154781142Y-86593380D01*
X154765135Y-86244102D01*
X154681295Y-85904659D01*
X154609825Y-85732115D01*
X154294111Y-85665508D01*
X153459619Y-86500000D01*
X152540381Y-86500000D01*
X151705889Y-85665508D01*
X151390175Y-85732115D01*
X151271300Y-86060931D01*
X151218858Y-86406620D01*
X143179717Y-86406620D01*
X143179717Y-85800000D01*
X143160892Y-85608867D01*
X143105140Y-85425079D01*
X143014605Y-85255698D01*
X142973728Y-85205889D01*
X152165508Y-85205889D01*
X153000000Y-86040381D01*
X153834492Y-85205889D01*
X153767885Y-84890175D01*
X153439069Y-84771300D01*
X153093380Y-84718858D01*
X152744102Y-84734865D01*
X152404659Y-84818705D01*
X152232115Y-84890175D01*
X152165508Y-85205889D01*
X142973728Y-85205889D01*
X142892765Y-85107235D01*
X142744302Y-84985395D01*
X142574921Y-84894860D01*
X142391133Y-84839108D01*
X142200000Y-84820283D01*
X139800000Y-84820283D01*
X139608867Y-84839108D01*
X139425079Y-84894860D01*
X139255698Y-84985395D01*
X139107235Y-85107235D01*
X138985395Y-85255698D01*
X138894860Y-85425079D01*
X138839108Y-85608867D01*
X138820283Y-85800000D01*
X117679717Y-85800000D01*
X117660892Y-85608867D01*
X117605140Y-85425079D01*
X117514605Y-85255698D01*
X117392765Y-85107235D01*
X117244302Y-84985395D01*
X117074921Y-84894860D01*
X116891133Y-84839108D01*
X116700000Y-84820283D01*
X114300000Y-84820283D01*
X114108867Y-84839108D01*
X113925079Y-84894860D01*
X113755698Y-84985395D01*
X113607235Y-85107235D01*
X113485395Y-85255698D01*
X113394860Y-85425079D01*
X113339108Y-85608867D01*
X113320283Y-85800000D01*
X104501119Y-85800000D01*
X104124068Y-85725000D01*
X103675932Y-85725000D01*
X103236407Y-85812427D01*
X102822383Y-85983921D01*
X102449772Y-86232892D01*
X102132892Y-86549772D01*
X101883921Y-86922383D01*
X101712427Y-87336407D01*
X101625000Y-87775932D01*
X95779717Y-87775932D01*
X95779717Y-86700000D01*
X95760892Y-86508867D01*
X95705140Y-86325079D01*
X95614605Y-86155698D01*
X95492765Y-86007235D01*
X95344302Y-85885395D01*
X95174921Y-85794860D01*
X94991133Y-85739108D01*
X94800000Y-85720283D01*
X92200000Y-85720283D01*
X92008867Y-85739108D01*
X91825079Y-85794860D01*
X91655698Y-85885395D01*
X91507235Y-86007235D01*
X91385395Y-86155698D01*
X91294860Y-86325079D01*
X91239108Y-86508867D01*
X91220283Y-86700000D01*
X91000000Y-86700000D01*
X91000000Y-83806698D01*
X153792921Y-83806698D01*
X153872102Y-84132427D01*
X154218186Y-84261422D01*
X154582786Y-84320422D01*
X154951891Y-84307157D01*
X155311314Y-84222139D01*
X155527898Y-84132427D01*
X155607079Y-83806698D01*
X154700000Y-82899619D01*
X153792921Y-83806698D01*
X91000000Y-83806698D01*
X91000000Y-82322786D01*
X152819578Y-82322786D01*
X152832843Y-82691891D01*
X152917861Y-83051314D01*
X153007573Y-83267898D01*
X153333302Y-83347079D01*
X154240381Y-82440000D01*
X154226239Y-82425858D01*
X154685858Y-81966239D01*
X154700000Y-81980381D01*
X154714143Y-81966239D01*
X155173762Y-82425858D01*
X155159619Y-82440000D01*
X156066698Y-83347079D01*
X156392427Y-83267898D01*
X156521422Y-82921814D01*
X156580422Y-82557214D01*
X156567157Y-82188109D01*
X156482139Y-81828686D01*
X156392427Y-81612102D01*
X156203356Y-81566141D01*
X156292765Y-81492765D01*
X156414605Y-81344302D01*
X156505140Y-81174921D01*
X156560892Y-80991133D01*
X156579717Y-80800000D01*
X156579717Y-79000000D01*
X156560892Y-78808867D01*
X156505140Y-78625079D01*
X156414605Y-78455698D01*
X156292765Y-78307235D01*
X156144302Y-78185395D01*
X155974921Y-78094860D01*
X155791133Y-78039108D01*
X155600000Y-78020283D01*
X153800000Y-78020283D01*
X153608867Y-78039108D01*
X153425079Y-78094860D01*
X153255698Y-78185395D01*
X153107235Y-78307235D01*
X152985395Y-78455698D01*
X152894860Y-78625079D01*
X152839108Y-78808867D01*
X152820283Y-79000000D01*
X152820283Y-80800000D01*
X152839108Y-80991133D01*
X152894860Y-81174921D01*
X152985395Y-81344302D01*
X153107235Y-81492765D01*
X153196644Y-81566141D01*
X153007573Y-81612102D01*
X152878578Y-81958186D01*
X152819578Y-82322786D01*
X91000000Y-82322786D01*
X91000000Y-81083483D01*
X114376137Y-81083483D01*
X114492595Y-81439498D01*
X114890329Y-81598766D01*
X115311492Y-81677380D01*
X115739900Y-81672318D01*
X116159089Y-81583776D01*
X116507405Y-81439498D01*
X116623863Y-81083483D01*
X139876137Y-81083483D01*
X139992595Y-81439498D01*
X140390329Y-81598766D01*
X140811492Y-81677380D01*
X141239900Y-81672318D01*
X141659089Y-81583776D01*
X142007405Y-81439498D01*
X142123863Y-81083483D01*
X141000000Y-79959619D01*
X139876137Y-81083483D01*
X116623863Y-81083483D01*
X115500000Y-79959619D01*
X114376137Y-81083483D01*
X91000000Y-81083483D01*
X91000000Y-77375932D01*
X91225000Y-77375932D01*
X91225000Y-77824068D01*
X91312427Y-78263593D01*
X91483921Y-78677617D01*
X91732892Y-79050228D01*
X92049772Y-79367108D01*
X92422383Y-79616079D01*
X92836407Y-79787573D01*
X93275932Y-79875000D01*
X93724068Y-79875000D01*
X94163593Y-79787573D01*
X94577617Y-79616079D01*
X94950228Y-79367108D01*
X95061835Y-79255501D01*
X102704118Y-79255501D01*
X102832897Y-79621664D01*
X103247809Y-79791000D01*
X103687783Y-79876137D01*
X104135913Y-79873803D01*
X104574977Y-79784088D01*
X104967103Y-79621664D01*
X105076190Y-79311492D01*
X113322620Y-79311492D01*
X113327682Y-79739900D01*
X113416224Y-80159089D01*
X113560502Y-80507405D01*
X113916517Y-80623863D01*
X115040381Y-79500000D01*
X115959619Y-79500000D01*
X117083483Y-80623863D01*
X117439498Y-80507405D01*
X117598766Y-80109671D01*
X117677380Y-79688508D01*
X117672318Y-79260100D01*
X117583776Y-78840911D01*
X117439498Y-78492595D01*
X117083483Y-78376137D01*
X115959619Y-79500000D01*
X115040381Y-79500000D01*
X113916517Y-78376137D01*
X113560502Y-78492595D01*
X113401234Y-78890329D01*
X113322620Y-79311492D01*
X105076190Y-79311492D01*
X105095882Y-79255501D01*
X103900000Y-78059619D01*
X102704118Y-79255501D01*
X95061835Y-79255501D01*
X95267108Y-79050228D01*
X95516079Y-78677617D01*
X95687573Y-78263593D01*
X95775000Y-77824068D01*
X95775000Y-77387783D01*
X101623863Y-77387783D01*
X101626197Y-77835913D01*
X101715912Y-78274977D01*
X101878336Y-78667103D01*
X102244499Y-78795882D01*
X103440381Y-77600000D01*
X104359619Y-77600000D01*
X105555501Y-78795882D01*
X105921664Y-78667103D01*
X106091000Y-78252191D01*
X106155954Y-77916517D01*
X114376137Y-77916517D01*
X115500000Y-79040381D01*
X116519783Y-78020597D01*
X124527875Y-78020597D01*
X124715958Y-78489039D01*
X124991815Y-78911786D01*
X125344846Y-79272593D01*
X125761483Y-79557595D01*
X126225716Y-79755839D01*
X126279404Y-79772118D01*
X126675000Y-79608485D01*
X126675000Y-77625000D01*
X127325000Y-77625000D01*
X127325000Y-79608485D01*
X127720596Y-79772118D01*
X127774284Y-79755839D01*
X128238517Y-79557595D01*
X128598288Y-79311492D01*
X138822620Y-79311492D01*
X138827682Y-79739900D01*
X138916224Y-80159089D01*
X139060502Y-80507405D01*
X139416517Y-80623863D01*
X140540381Y-79500000D01*
X141459619Y-79500000D01*
X142583483Y-80623863D01*
X142939498Y-80507405D01*
X143098766Y-80109671D01*
X143177380Y-79688508D01*
X143172318Y-79260100D01*
X143083776Y-78840911D01*
X142939498Y-78492595D01*
X142583483Y-78376137D01*
X141459619Y-79500000D01*
X140540381Y-79500000D01*
X139416517Y-78376137D01*
X139060502Y-78492595D01*
X138901234Y-78890329D01*
X138822620Y-79311492D01*
X128598288Y-79311492D01*
X128655154Y-79272593D01*
X129008185Y-78911786D01*
X129284042Y-78489039D01*
X129472125Y-78020597D01*
X129429646Y-77916517D01*
X139876137Y-77916517D01*
X141000000Y-79040381D01*
X142123863Y-77916517D01*
X142007405Y-77560502D01*
X141719411Y-77445178D01*
X149025000Y-77445178D01*
X149025000Y-77794822D01*
X149093213Y-78137748D01*
X149227016Y-78460778D01*
X149421268Y-78751496D01*
X149668504Y-78998732D01*
X149959222Y-79192984D01*
X150282252Y-79326787D01*
X150625178Y-79395000D01*
X150974822Y-79395000D01*
X151317748Y-79326787D01*
X151640778Y-79192984D01*
X151931496Y-78998732D01*
X152178732Y-78751496D01*
X152372984Y-78460778D01*
X152506787Y-78137748D01*
X152575000Y-77794822D01*
X152575000Y-77445178D01*
X152506787Y-77102252D01*
X152372984Y-76779222D01*
X152178732Y-76488504D01*
X151931496Y-76241268D01*
X151640778Y-76047016D01*
X151317748Y-75913213D01*
X150974822Y-75845000D01*
X150625178Y-75845000D01*
X150282252Y-75913213D01*
X149959222Y-76047016D01*
X149668504Y-76241268D01*
X149421268Y-76488504D01*
X149227016Y-76779222D01*
X149093213Y-77102252D01*
X149025000Y-77445178D01*
X141719411Y-77445178D01*
X141609671Y-77401234D01*
X141188508Y-77322620D01*
X140760100Y-77327682D01*
X140340911Y-77416224D01*
X139992595Y-77560502D01*
X139876137Y-77916517D01*
X129429646Y-77916517D01*
X129310665Y-77625000D01*
X127325000Y-77625000D01*
X126675000Y-77625000D01*
X124689335Y-77625000D01*
X124527875Y-78020597D01*
X116519783Y-78020597D01*
X116623863Y-77916517D01*
X116507405Y-77560502D01*
X116109671Y-77401234D01*
X115688508Y-77322620D01*
X115260100Y-77327682D01*
X114840911Y-77416224D01*
X114492595Y-77560502D01*
X114376137Y-77916517D01*
X106155954Y-77916517D01*
X106176137Y-77812217D01*
X106173803Y-77364087D01*
X106084088Y-76925023D01*
X105940928Y-76579403D01*
X124527875Y-76579403D01*
X124689335Y-76975000D01*
X126675000Y-76975000D01*
X126675000Y-74991515D01*
X127325000Y-74991515D01*
X127325000Y-76975000D01*
X129310665Y-76975000D01*
X129472125Y-76579403D01*
X129284042Y-76110961D01*
X129008185Y-75688214D01*
X128655154Y-75327407D01*
X128238517Y-75042405D01*
X127774284Y-74844161D01*
X127720596Y-74827882D01*
X127325000Y-74991515D01*
X126675000Y-74991515D01*
X126279404Y-74827882D01*
X126225716Y-74844161D01*
X125761483Y-75042405D01*
X125344846Y-75327407D01*
X124991815Y-75688214D01*
X124715958Y-76110961D01*
X124527875Y-76579403D01*
X105940928Y-76579403D01*
X105921664Y-76532897D01*
X105555501Y-76404118D01*
X104359619Y-77600000D01*
X103440381Y-77600000D01*
X102244499Y-76404118D01*
X101878336Y-76532897D01*
X101709000Y-76947809D01*
X101623863Y-77387783D01*
X95775000Y-77387783D01*
X95775000Y-77375932D01*
X95687573Y-76936407D01*
X95516079Y-76522383D01*
X95267108Y-76149772D01*
X95061835Y-75944499D01*
X102704118Y-75944499D01*
X103900000Y-77140381D01*
X105095882Y-75944499D01*
X104967103Y-75578336D01*
X104552191Y-75409000D01*
X104112217Y-75323863D01*
X103664087Y-75326197D01*
X103225023Y-75415912D01*
X102832897Y-75578336D01*
X102704118Y-75944499D01*
X95061835Y-75944499D01*
X94950228Y-75832892D01*
X94577617Y-75583921D01*
X94163593Y-75412427D01*
X93724068Y-75325000D01*
X93275932Y-75325000D01*
X92836407Y-75412427D01*
X92422383Y-75583921D01*
X92049772Y-75832892D01*
X91732892Y-76149772D01*
X91483921Y-76522383D01*
X91312427Y-76936407D01*
X91225000Y-77375932D01*
X91000000Y-77375932D01*
X91000000Y-69825178D01*
X149025000Y-69825178D01*
X149025000Y-70174822D01*
X149093213Y-70517748D01*
X149227016Y-70840778D01*
X149421268Y-71131496D01*
X149668504Y-71378732D01*
X149959222Y-71572984D01*
X150282252Y-71706787D01*
X150625178Y-71775000D01*
X150974822Y-71775000D01*
X151317748Y-71706787D01*
X151640778Y-71572984D01*
X151931496Y-71378732D01*
X152178732Y-71131496D01*
X152372984Y-70840778D01*
X152506787Y-70517748D01*
X152575000Y-70174822D01*
X152575000Y-69825178D01*
X152506787Y-69482252D01*
X152372984Y-69159222D01*
X152178732Y-68868504D01*
X151931496Y-68621268D01*
X151640778Y-68427016D01*
X151317748Y-68293213D01*
X150974822Y-68225000D01*
X150625178Y-68225000D01*
X150282252Y-68293213D01*
X149959222Y-68427016D01*
X149668504Y-68621268D01*
X149421268Y-68868504D01*
X149227016Y-69159222D01*
X149093213Y-69482252D01*
X149025000Y-69825178D01*
X91000000Y-69825178D01*
X91000000Y-61000000D01*
X101457153Y-61000000D01*
X101141652Y-61472181D01*
G37*
X101141652Y-61472181D02*
X100898511Y-62059174D01*
X100774560Y-62682322D01*
X100774560Y-63317678D01*
X100898511Y-63940826D01*
X101141652Y-64527819D01*
X101494637Y-65056098D01*
X101943902Y-65505363D01*
X102472181Y-65858348D01*
X103059174Y-66101489D01*
X103682322Y-66225440D01*
X104317678Y-66225440D01*
X104940826Y-66101489D01*
X105527819Y-65858348D01*
X106056098Y-65505363D01*
X106505363Y-65056098D01*
X106858348Y-64527819D01*
X107101489Y-63940826D01*
X107225440Y-63317678D01*
X107225440Y-62682322D01*
X107101489Y-62059174D01*
X106858348Y-61472181D01*
X106542847Y-61000000D01*
X109457153Y-61000000D01*
X109141652Y-61472181D01*
X108898511Y-62059174D01*
X108774560Y-62682322D01*
X108774560Y-63317678D01*
X108898511Y-63940826D01*
X109141652Y-64527819D01*
X109494637Y-65056098D01*
X109943902Y-65505363D01*
X110472181Y-65858348D01*
X111059174Y-66101489D01*
X111682322Y-66225440D01*
X112317678Y-66225440D01*
X112940826Y-66101489D01*
X113527819Y-65858348D01*
X114056098Y-65505363D01*
X114505363Y-65056098D01*
X114858348Y-64527819D01*
X115101489Y-63940826D01*
X115225440Y-63317678D01*
X115225440Y-62682322D01*
X115101489Y-62059174D01*
X114858348Y-61472181D01*
X114542847Y-61000000D01*
X139457153Y-61000000D01*
X139141652Y-61472181D01*
X138898511Y-62059174D01*
X138774560Y-62682322D01*
X138774560Y-63317678D01*
X138898511Y-63940826D01*
X139141652Y-64527819D01*
X139494637Y-65056098D01*
X139943902Y-65505363D01*
X140472181Y-65858348D01*
X141059174Y-66101489D01*
X141682322Y-66225440D01*
X142317678Y-66225440D01*
X142940826Y-66101489D01*
X143527819Y-65858348D01*
X144056098Y-65505363D01*
X144224738Y-65336723D01*
X148122897Y-65336723D01*
X148367493Y-65799876D01*
X148945090Y-66064564D01*
X149563227Y-66211482D01*
X150198148Y-66234985D01*
X150825455Y-66134168D01*
X151421039Y-65912907D01*
X151632507Y-65799876D01*
X151877103Y-65336723D01*
X150000000Y-63459619D01*
X148122897Y-65336723D01*
X144224738Y-65336723D01*
X144505363Y-65056098D01*
X144858348Y-64527819D01*
X145101489Y-63940826D01*
X145225440Y-63317678D01*
X145225440Y-62682322D01*
X145101489Y-62059174D01*
X144858348Y-61472181D01*
X144542847Y-61000000D01*
X147540378Y-61000000D01*
X147663276Y-61122898D01*
X147200124Y-61367493D01*
X146935436Y-61945090D01*
X146788518Y-62563227D01*
X146765015Y-63198148D01*
X146865832Y-63825455D01*
X147087093Y-64421039D01*
X147200124Y-64632507D01*
X147663277Y-64877103D01*
X149540381Y-63000000D01*
X149526238Y-62985858D01*
X149985858Y-62526238D01*
X150000000Y-62540381D01*
X150014142Y-62526238D01*
X150473762Y-62985858D01*
X150459619Y-63000000D01*
X152336723Y-64877103D01*
X152799876Y-64632507D01*
X153064564Y-64054910D01*
X153211482Y-63436773D01*
X153234985Y-62801852D01*
X153134168Y-62174545D01*
X152912907Y-61578961D01*
X152799876Y-61367493D01*
X152336724Y-61122898D01*
X152459622Y-61000000D01*
X159000000Y-61000000D01*
X159000001Y-89675000D01*
X154779717Y-89675000D01*
X154779717Y-89200000D01*
X154760892Y-89008867D01*
X154705140Y-88825079D01*
X154614605Y-88655698D01*
X154492765Y-88507235D01*
X154344302Y-88385395D01*
X154174921Y-88294860D01*
X153991133Y-88239108D01*
X153800000Y-88220283D01*
X153437490Y-88220283D01*
X153595341Y-88181295D01*
X153767885Y-88109825D01*
X153834492Y-87794111D01*
X153000000Y-86959619D01*
X152165508Y-87794111D01*
X152232115Y-88109825D01*
X152537649Y-88220283D01*
X152200000Y-88220283D01*
X152008867Y-88239108D01*
X151825079Y-88294860D01*
X151655698Y-88385395D01*
X151507235Y-88507235D01*
X151385395Y-88655698D01*
X151294860Y-88825079D01*
X151239108Y-89008867D01*
X151220283Y-89200000D01*
X151220283Y-89675000D01*
X129579717Y-89675000D01*
X129579717Y-88400000D01*
X129560892Y-88208867D01*
X129505140Y-88025079D01*
X129414605Y-87855698D01*
X129292765Y-87707235D01*
X129144302Y-87585395D01*
X128974921Y-87494860D01*
X128791133Y-87439108D01*
X128600000Y-87420283D01*
X125400000Y-87420283D01*
X125208867Y-87439108D01*
X125025079Y-87494860D01*
X124855698Y-87585395D01*
X124707235Y-87707235D01*
X124585395Y-87855698D01*
X124494860Y-88025079D01*
X124439108Y-88208867D01*
X124420283Y-88400000D01*
X124420283Y-89675000D01*
X118000000Y-89675000D01*
X117936596Y-89681245D01*
X117875628Y-89699739D01*
X117819440Y-89729772D01*
X117770190Y-89770190D01*
X117729772Y-89819440D01*
X117699739Y-89875628D01*
X117681245Y-89936596D01*
X117675000Y-90000000D01*
X117675000Y-97773350D01*
X117495243Y-97593593D01*
X117188145Y-97388397D01*
X116846917Y-97247056D01*
X116484671Y-97175000D01*
X116115329Y-97175000D01*
X115753083Y-97247056D01*
X115411855Y-97388397D01*
X115104757Y-97593593D01*
X114843593Y-97854757D01*
X114638397Y-98161855D01*
X114497056Y-98503083D01*
X114425000Y-98865329D01*
X114425000Y-99234671D01*
X114497056Y-99596917D01*
X114638397Y-99938145D01*
X114843593Y-100245243D01*
X115104757Y-100506407D01*
X115411855Y-100711603D01*
X115504554Y-100750000D01*
X115411855Y-100788397D01*
X115104757Y-100993593D01*
X114843593Y-101254757D01*
X114638397Y-101561855D01*
X114497056Y-101903083D01*
X114425000Y-102265329D01*
X114425000Y-102634671D01*
X114497056Y-102996917D01*
X114638397Y-103338145D01*
X114843593Y-103645243D01*
X115104757Y-103906407D01*
X115411855Y-104111603D01*
X115753083Y-104252944D01*
X116115329Y-104325000D01*
X116484671Y-104325000D01*
X116846917Y-104252944D01*
X117188145Y-104111603D01*
X117495243Y-103906407D01*
X117675000Y-103726650D01*
X117675000Y-106864772D01*
X117431496Y-106621268D01*
X117140778Y-106427016D01*
X116817748Y-106293213D01*
X116474822Y-106225000D01*
X116125178Y-106225000D01*
X115782252Y-106293213D01*
X115459222Y-106427016D01*
X115168504Y-106621268D01*
X114921268Y-106868504D01*
X114727016Y-107159222D01*
X114593213Y-107482252D01*
X114525000Y-107825178D01*
X114525000Y-108174822D01*
X114593213Y-108517748D01*
X114727016Y-108840778D01*
X114921268Y-109131496D01*
X115168504Y-109378732D01*
X115459222Y-109572984D01*
X115524445Y-109600000D01*
X115459222Y-109627016D01*
X115168504Y-109821268D01*
X114921268Y-110068504D01*
X114727016Y-110359222D01*
X114593213Y-110682252D01*
X114525000Y-111025178D01*
X114525000Y-111374822D01*
X114593213Y-111717748D01*
X114727016Y-112040778D01*
X114921268Y-112331496D01*
X115168504Y-112578732D01*
X115459222Y-112772984D01*
X115782252Y-112906787D01*
X116125178Y-112975000D01*
X116474822Y-112975000D01*
X116817748Y-112906787D01*
X117140778Y-112772984D01*
X117431496Y-112578732D01*
X117675000Y-112335228D01*
X117675000Y-113000000D01*
X91000000Y-113000000D01*
X91000000Y-111025178D01*
X106905000Y-111025178D01*
X106905000Y-111374822D01*
X106973213Y-111717748D01*
X107107016Y-112040778D01*
X107301268Y-112331496D01*
X107548504Y-112578732D01*
X107839222Y-112772984D01*
X108162252Y-112906787D01*
X108505178Y-112975000D01*
X108854822Y-112975000D01*
X109197748Y-112906787D01*
X109520778Y-112772984D01*
X109811496Y-112578732D01*
X110058732Y-112331496D01*
X110252984Y-112040778D01*
X110386787Y-111717748D01*
X110455000Y-111374822D01*
X110455000Y-111025178D01*
X110386787Y-110682252D01*
X110252984Y-110359222D01*
X110058732Y-110068504D01*
X109811496Y-109821268D01*
X109520778Y-109627016D01*
X109441226Y-109594065D01*
X109588887Y-109524659D01*
X109868869Y-109318048D01*
X110103164Y-109060785D01*
X110282767Y-108762757D01*
X110352668Y-108593976D01*
X110176363Y-108325000D01*
X109005000Y-108325000D01*
X109005000Y-108345000D01*
X108355000Y-108345000D01*
X108355000Y-108325000D01*
X107183637Y-108325000D01*
X107007332Y-108593976D01*
X107077233Y-108762757D01*
X107256836Y-109060785D01*
X107491131Y-109318048D01*
X107771113Y-109524659D01*
X107918774Y-109594065D01*
X107839222Y-109627016D01*
X107548504Y-109821268D01*
X107301268Y-110068504D01*
X107107016Y-110359222D01*
X106973213Y-110682252D01*
X106905000Y-111025178D01*
X91000000Y-111025178D01*
X91000000Y-107406024D01*
X107007332Y-107406024D01*
X107183637Y-107675000D01*
X108355000Y-107675000D01*
X108355000Y-106498747D01*
X109005000Y-106498747D01*
X109005000Y-107675000D01*
X110176363Y-107675000D01*
X110352668Y-107406024D01*
X110282767Y-107237243D01*
X110103164Y-106939215D01*
X109868869Y-106681952D01*
X109588887Y-106475341D01*
X109273977Y-106327322D01*
X109005000Y-106498747D01*
X108355000Y-106498747D01*
X108086023Y-106327322D01*
X107771113Y-106475341D01*
X107491131Y-106681952D01*
X107256836Y-106939215D01*
X107077233Y-107237243D01*
X107007332Y-107406024D01*
X91000000Y-107406024D01*
X91000000Y-104759875D01*
X110726948Y-104759875D01*
X110879997Y-105094062D01*
X111095302Y-105391969D01*
X111364589Y-105642148D01*
X111677509Y-105834984D01*
X111890126Y-105923043D01*
X112175000Y-105748547D01*
X112175000Y-104475000D01*
X112825000Y-104475000D01*
X112825000Y-105748547D01*
X113109874Y-105923043D01*
X113322491Y-105834984D01*
X113635411Y-105642148D01*
X113904698Y-105391969D01*
X114120003Y-105094062D01*
X114273052Y-104759875D01*
X114102878Y-104475000D01*
X112825000Y-104475000D01*
X112175000Y-104475000D01*
X110897122Y-104475000D01*
X110726948Y-104759875D01*
X91000000Y-104759875D01*
X91000000Y-100481611D01*
X93595000Y-100481611D01*
X93595000Y-101018389D01*
X93699720Y-101544853D01*
X93905136Y-102040771D01*
X94203354Y-102487086D01*
X94582914Y-102866646D01*
X95029229Y-103164864D01*
X95525147Y-103370280D01*
X96051611Y-103475000D01*
X96588389Y-103475000D01*
X97114853Y-103370280D01*
X97610771Y-103164864D01*
X98057086Y-102866646D01*
X98436646Y-102487086D01*
X98734864Y-102040771D01*
X98940280Y-101544853D01*
X98977074Y-101359875D01*
X110726948Y-101359875D01*
X110879997Y-101694062D01*
X111095302Y-101991969D01*
X111364589Y-102242148D01*
X111677509Y-102434984D01*
X111713765Y-102450000D01*
X111677509Y-102465016D01*
X111364589Y-102657852D01*
X111095302Y-102908031D01*
X110879997Y-103205938D01*
X110726948Y-103540125D01*
X110897122Y-103825000D01*
X112175000Y-103825000D01*
X112175000Y-102551453D01*
X112009373Y-102450000D01*
X112175000Y-102348547D01*
X112175000Y-101075000D01*
X112825000Y-101075000D01*
X112825000Y-102348547D01*
X112990627Y-102450000D01*
X112825000Y-102551453D01*
X112825000Y-103825000D01*
X114102878Y-103825000D01*
X114273052Y-103540125D01*
X114120003Y-103205938D01*
X113904698Y-102908031D01*
X113635411Y-102657852D01*
X113322491Y-102465016D01*
X113286235Y-102450000D01*
X113322491Y-102434984D01*
X113635411Y-102242148D01*
X113904698Y-101991969D01*
X114120003Y-101694062D01*
X114273052Y-101359875D01*
X114102878Y-101075000D01*
X112825000Y-101075000D01*
X112175000Y-101075000D01*
X110897122Y-101075000D01*
X110726948Y-101359875D01*
X98977074Y-101359875D01*
X99045000Y-101018389D01*
X99045000Y-100481611D01*
X98940280Y-99955147D01*
X98734864Y-99459229D01*
X98436646Y-99012914D01*
X98057086Y-98633354D01*
X97610771Y-98335136D01*
X97114853Y-98129720D01*
X96588389Y-98025000D01*
X96051611Y-98025000D01*
X95525147Y-98129720D01*
X95029229Y-98335136D01*
X94582914Y-98633354D01*
X94203354Y-99012914D01*
X93905136Y-99459229D01*
X93699720Y-99955147D01*
X93595000Y-100481611D01*
X91000000Y-100481611D01*
X91000000Y-96450000D01*
X110620283Y-96450000D01*
X110620283Y-98250000D01*
X110639108Y-98441133D01*
X110694860Y-98624921D01*
X110785395Y-98794302D01*
X110907235Y-98942765D01*
X111055698Y-99064605D01*
X111225079Y-99155140D01*
X111408867Y-99210892D01*
X111436393Y-99213603D01*
X111364589Y-99257852D01*
X111095302Y-99508031D01*
X110879997Y-99805938D01*
X110726948Y-100140125D01*
X110897122Y-100425000D01*
X112175000Y-100425000D01*
X112175000Y-100405000D01*
X112825000Y-100405000D01*
X112825000Y-100425000D01*
X114102878Y-100425000D01*
X114273052Y-100140125D01*
X114120003Y-99805938D01*
X113904698Y-99508031D01*
X113635411Y-99257852D01*
X113563607Y-99213603D01*
X113591133Y-99210892D01*
X113774921Y-99155140D01*
X113944302Y-99064605D01*
X114092765Y-98942765D01*
X114214605Y-98794302D01*
X114305140Y-98624921D01*
X114360892Y-98441133D01*
X114379717Y-98250000D01*
X114379717Y-96450000D01*
X114360892Y-96258867D01*
X114305140Y-96075079D01*
X114214605Y-95905698D01*
X114092765Y-95757235D01*
X113944302Y-95635395D01*
X113774921Y-95544860D01*
X113591133Y-95489108D01*
X113400000Y-95470283D01*
X111600000Y-95470283D01*
X111408867Y-95489108D01*
X111225079Y-95544860D01*
X111055698Y-95635395D01*
X110907235Y-95757235D01*
X110785395Y-95905698D01*
X110694860Y-96075079D01*
X110639108Y-96258867D01*
X110620283Y-96450000D01*
X91000000Y-96450000D01*
X91000000Y-86700000D01*
X91220283Y-86700000D01*
X91220283Y-89300000D01*
X91239108Y-89491133D01*
X91294860Y-89674921D01*
X91385395Y-89844302D01*
X91507235Y-89992765D01*
X91655698Y-90114605D01*
X91825079Y-90205140D01*
X92008867Y-90260892D01*
X92200000Y-90279717D01*
X94800000Y-90279717D01*
X94991133Y-90260892D01*
X95174921Y-90205140D01*
X95344302Y-90114605D01*
X95492765Y-89992765D01*
X95614605Y-89844302D01*
X95705140Y-89674921D01*
X95760892Y-89491133D01*
X95779717Y-89300000D01*
X95779717Y-87775932D01*
X101625000Y-87775932D01*
X101625000Y-88224068D01*
X101712427Y-88663593D01*
X101883921Y-89077617D01*
X102132892Y-89450228D01*
X102449772Y-89767108D01*
X102822383Y-90016079D01*
X103236407Y-90187573D01*
X103675932Y-90275000D01*
X104124068Y-90275000D01*
X104563593Y-90187573D01*
X104977617Y-90016079D01*
X105350228Y-89767108D01*
X105667108Y-89450228D01*
X105916079Y-89077617D01*
X106087573Y-88663593D01*
X106175000Y-88224068D01*
X106175000Y-87775932D01*
X106087573Y-87336407D01*
X105916079Y-86922383D01*
X105667108Y-86549772D01*
X105350228Y-86232892D01*
X104977617Y-85983921D01*
X104563593Y-85812427D01*
X104501119Y-85800000D01*
X113320283Y-85800000D01*
X113320283Y-88200000D01*
X113339108Y-88391133D01*
X113394860Y-88574921D01*
X113485395Y-88744302D01*
X113607235Y-88892765D01*
X113755698Y-89014605D01*
X113925079Y-89105140D01*
X114108867Y-89160892D01*
X114300000Y-89179717D01*
X116700000Y-89179717D01*
X116891133Y-89160892D01*
X117074921Y-89105140D01*
X117244302Y-89014605D01*
X117392765Y-88892765D01*
X117514605Y-88744302D01*
X117605140Y-88574921D01*
X117660892Y-88391133D01*
X117679717Y-88200000D01*
X117679717Y-85800000D01*
X138820283Y-85800000D01*
X138820283Y-88200000D01*
X138839108Y-88391133D01*
X138894860Y-88574921D01*
X138985395Y-88744302D01*
X139107235Y-88892765D01*
X139255698Y-89014605D01*
X139425079Y-89105140D01*
X139608867Y-89160892D01*
X139800000Y-89179717D01*
X142200000Y-89179717D01*
X142391133Y-89160892D01*
X142574921Y-89105140D01*
X142744302Y-89014605D01*
X142892765Y-88892765D01*
X143014605Y-88744302D01*
X143105140Y-88574921D01*
X143160892Y-88391133D01*
X143179717Y-88200000D01*
X143179717Y-86406620D01*
X151218858Y-86406620D01*
X151234865Y-86755898D01*
X151318705Y-87095341D01*
X151390175Y-87267885D01*
X151705889Y-87334492D01*
X152540381Y-86500000D01*
X153459619Y-86500000D01*
X154294111Y-87334492D01*
X154609825Y-87267885D01*
X154728700Y-86939069D01*
X154781142Y-86593380D01*
X154765135Y-86244102D01*
X154681295Y-85904659D01*
X154609825Y-85732115D01*
X154294111Y-85665508D01*
X153459619Y-86500000D01*
X152540381Y-86500000D01*
X151705889Y-85665508D01*
X151390175Y-85732115D01*
X151271300Y-86060931D01*
X151218858Y-86406620D01*
X143179717Y-86406620D01*
X143179717Y-85800000D01*
X143160892Y-85608867D01*
X143105140Y-85425079D01*
X143014605Y-85255698D01*
X142973728Y-85205889D01*
X152165508Y-85205889D01*
X153000000Y-86040381D01*
X153834492Y-85205889D01*
X153767885Y-84890175D01*
X153439069Y-84771300D01*
X153093380Y-84718858D01*
X152744102Y-84734865D01*
X152404659Y-84818705D01*
X152232115Y-84890175D01*
X152165508Y-85205889D01*
X142973728Y-85205889D01*
X142892765Y-85107235D01*
X142744302Y-84985395D01*
X142574921Y-84894860D01*
X142391133Y-84839108D01*
X142200000Y-84820283D01*
X139800000Y-84820283D01*
X139608867Y-84839108D01*
X139425079Y-84894860D01*
X139255698Y-84985395D01*
X139107235Y-85107235D01*
X138985395Y-85255698D01*
X138894860Y-85425079D01*
X138839108Y-85608867D01*
X138820283Y-85800000D01*
X117679717Y-85800000D01*
X117660892Y-85608867D01*
X117605140Y-85425079D01*
X117514605Y-85255698D01*
X117392765Y-85107235D01*
X117244302Y-84985395D01*
X117074921Y-84894860D01*
X116891133Y-84839108D01*
X116700000Y-84820283D01*
X114300000Y-84820283D01*
X114108867Y-84839108D01*
X113925079Y-84894860D01*
X113755698Y-84985395D01*
X113607235Y-85107235D01*
X113485395Y-85255698D01*
X113394860Y-85425079D01*
X113339108Y-85608867D01*
X113320283Y-85800000D01*
X104501119Y-85800000D01*
X104124068Y-85725000D01*
X103675932Y-85725000D01*
X103236407Y-85812427D01*
X102822383Y-85983921D01*
X102449772Y-86232892D01*
X102132892Y-86549772D01*
X101883921Y-86922383D01*
X101712427Y-87336407D01*
X101625000Y-87775932D01*
X95779717Y-87775932D01*
X95779717Y-86700000D01*
X95760892Y-86508867D01*
X95705140Y-86325079D01*
X95614605Y-86155698D01*
X95492765Y-86007235D01*
X95344302Y-85885395D01*
X95174921Y-85794860D01*
X94991133Y-85739108D01*
X94800000Y-85720283D01*
X92200000Y-85720283D01*
X92008867Y-85739108D01*
X91825079Y-85794860D01*
X91655698Y-85885395D01*
X91507235Y-86007235D01*
X91385395Y-86155698D01*
X91294860Y-86325079D01*
X91239108Y-86508867D01*
X91220283Y-86700000D01*
X91000000Y-86700000D01*
X91000000Y-83806698D01*
X153792921Y-83806698D01*
X153872102Y-84132427D01*
X154218186Y-84261422D01*
X154582786Y-84320422D01*
X154951891Y-84307157D01*
X155311314Y-84222139D01*
X155527898Y-84132427D01*
X155607079Y-83806698D01*
X154700000Y-82899619D01*
X153792921Y-83806698D01*
X91000000Y-83806698D01*
X91000000Y-82322786D01*
X152819578Y-82322786D01*
X152832843Y-82691891D01*
X152917861Y-83051314D01*
X153007573Y-83267898D01*
X153333302Y-83347079D01*
X154240381Y-82440000D01*
X154226239Y-82425858D01*
X154685858Y-81966239D01*
X154700000Y-81980381D01*
X154714143Y-81966239D01*
X155173762Y-82425858D01*
X155159619Y-82440000D01*
X156066698Y-83347079D01*
X156392427Y-83267898D01*
X156521422Y-82921814D01*
X156580422Y-82557214D01*
X156567157Y-82188109D01*
X156482139Y-81828686D01*
X156392427Y-81612102D01*
X156203356Y-81566141D01*
X156292765Y-81492765D01*
X156414605Y-81344302D01*
X156505140Y-81174921D01*
X156560892Y-80991133D01*
X156579717Y-80800000D01*
X156579717Y-79000000D01*
X156560892Y-78808867D01*
X156505140Y-78625079D01*
X156414605Y-78455698D01*
X156292765Y-78307235D01*
X156144302Y-78185395D01*
X155974921Y-78094860D01*
X155791133Y-78039108D01*
X155600000Y-78020283D01*
X153800000Y-78020283D01*
X153608867Y-78039108D01*
X153425079Y-78094860D01*
X153255698Y-78185395D01*
X153107235Y-78307235D01*
X152985395Y-78455698D01*
X152894860Y-78625079D01*
X152839108Y-78808867D01*
X152820283Y-79000000D01*
X152820283Y-80800000D01*
X152839108Y-80991133D01*
X152894860Y-81174921D01*
X152985395Y-81344302D01*
X153107235Y-81492765D01*
X153196644Y-81566141D01*
X153007573Y-81612102D01*
X152878578Y-81958186D01*
X152819578Y-82322786D01*
X91000000Y-82322786D01*
X91000000Y-81083483D01*
X114376137Y-81083483D01*
X114492595Y-81439498D01*
X114890329Y-81598766D01*
X115311492Y-81677380D01*
X115739900Y-81672318D01*
X116159089Y-81583776D01*
X116507405Y-81439498D01*
X116623863Y-81083483D01*
X139876137Y-81083483D01*
X139992595Y-81439498D01*
X140390329Y-81598766D01*
X140811492Y-81677380D01*
X141239900Y-81672318D01*
X141659089Y-81583776D01*
X142007405Y-81439498D01*
X142123863Y-81083483D01*
X141000000Y-79959619D01*
X139876137Y-81083483D01*
X116623863Y-81083483D01*
X115500000Y-79959619D01*
X114376137Y-81083483D01*
X91000000Y-81083483D01*
X91000000Y-77375932D01*
X91225000Y-77375932D01*
X91225000Y-77824068D01*
X91312427Y-78263593D01*
X91483921Y-78677617D01*
X91732892Y-79050228D01*
X92049772Y-79367108D01*
X92422383Y-79616079D01*
X92836407Y-79787573D01*
X93275932Y-79875000D01*
X93724068Y-79875000D01*
X94163593Y-79787573D01*
X94577617Y-79616079D01*
X94950228Y-79367108D01*
X95061835Y-79255501D01*
X102704118Y-79255501D01*
X102832897Y-79621664D01*
X103247809Y-79791000D01*
X103687783Y-79876137D01*
X104135913Y-79873803D01*
X104574977Y-79784088D01*
X104967103Y-79621664D01*
X105076190Y-79311492D01*
X113322620Y-79311492D01*
X113327682Y-79739900D01*
X113416224Y-80159089D01*
X113560502Y-80507405D01*
X113916517Y-80623863D01*
X115040381Y-79500000D01*
X115959619Y-79500000D01*
X117083483Y-80623863D01*
X117439498Y-80507405D01*
X117598766Y-80109671D01*
X117677380Y-79688508D01*
X117672318Y-79260100D01*
X117583776Y-78840911D01*
X117439498Y-78492595D01*
X117083483Y-78376137D01*
X115959619Y-79500000D01*
X115040381Y-79500000D01*
X113916517Y-78376137D01*
X113560502Y-78492595D01*
X113401234Y-78890329D01*
X113322620Y-79311492D01*
X105076190Y-79311492D01*
X105095882Y-79255501D01*
X103900000Y-78059619D01*
X102704118Y-79255501D01*
X95061835Y-79255501D01*
X95267108Y-79050228D01*
X95516079Y-78677617D01*
X95687573Y-78263593D01*
X95775000Y-77824068D01*
X95775000Y-77387783D01*
X101623863Y-77387783D01*
X101626197Y-77835913D01*
X101715912Y-78274977D01*
X101878336Y-78667103D01*
X102244499Y-78795882D01*
X103440381Y-77600000D01*
X104359619Y-77600000D01*
X105555501Y-78795882D01*
X105921664Y-78667103D01*
X106091000Y-78252191D01*
X106155954Y-77916517D01*
X114376137Y-77916517D01*
X115500000Y-79040381D01*
X116519783Y-78020597D01*
X124527875Y-78020597D01*
X124715958Y-78489039D01*
X124991815Y-78911786D01*
X125344846Y-79272593D01*
X125761483Y-79557595D01*
X126225716Y-79755839D01*
X126279404Y-79772118D01*
X126675000Y-79608485D01*
X126675000Y-77625000D01*
X127325000Y-77625000D01*
X127325000Y-79608485D01*
X127720596Y-79772118D01*
X127774284Y-79755839D01*
X128238517Y-79557595D01*
X128598288Y-79311492D01*
X138822620Y-79311492D01*
X138827682Y-79739900D01*
X138916224Y-80159089D01*
X139060502Y-80507405D01*
X139416517Y-80623863D01*
X140540381Y-79500000D01*
X141459619Y-79500000D01*
X142583483Y-80623863D01*
X142939498Y-80507405D01*
X143098766Y-80109671D01*
X143177380Y-79688508D01*
X143172318Y-79260100D01*
X143083776Y-78840911D01*
X142939498Y-78492595D01*
X142583483Y-78376137D01*
X141459619Y-79500000D01*
X140540381Y-79500000D01*
X139416517Y-78376137D01*
X139060502Y-78492595D01*
X138901234Y-78890329D01*
X138822620Y-79311492D01*
X128598288Y-79311492D01*
X128655154Y-79272593D01*
X129008185Y-78911786D01*
X129284042Y-78489039D01*
X129472125Y-78020597D01*
X129429646Y-77916517D01*
X139876137Y-77916517D01*
X141000000Y-79040381D01*
X142123863Y-77916517D01*
X142007405Y-77560502D01*
X141719411Y-77445178D01*
X149025000Y-77445178D01*
X149025000Y-77794822D01*
X149093213Y-78137748D01*
X149227016Y-78460778D01*
X149421268Y-78751496D01*
X149668504Y-78998732D01*
X149959222Y-79192984D01*
X150282252Y-79326787D01*
X150625178Y-79395000D01*
X150974822Y-79395000D01*
X151317748Y-79326787D01*
X151640778Y-79192984D01*
X151931496Y-78998732D01*
X152178732Y-78751496D01*
X152372984Y-78460778D01*
X152506787Y-78137748D01*
X152575000Y-77794822D01*
X152575000Y-77445178D01*
X152506787Y-77102252D01*
X152372984Y-76779222D01*
X152178732Y-76488504D01*
X151931496Y-76241268D01*
X151640778Y-76047016D01*
X151317748Y-75913213D01*
X150974822Y-75845000D01*
X150625178Y-75845000D01*
X150282252Y-75913213D01*
X149959222Y-76047016D01*
X149668504Y-76241268D01*
X149421268Y-76488504D01*
X149227016Y-76779222D01*
X149093213Y-77102252D01*
X149025000Y-77445178D01*
X141719411Y-77445178D01*
X141609671Y-77401234D01*
X141188508Y-77322620D01*
X140760100Y-77327682D01*
X140340911Y-77416224D01*
X139992595Y-77560502D01*
X139876137Y-77916517D01*
X129429646Y-77916517D01*
X129310665Y-77625000D01*
X127325000Y-77625000D01*
X126675000Y-77625000D01*
X124689335Y-77625000D01*
X124527875Y-78020597D01*
X116519783Y-78020597D01*
X116623863Y-77916517D01*
X116507405Y-77560502D01*
X116109671Y-77401234D01*
X115688508Y-77322620D01*
X115260100Y-77327682D01*
X114840911Y-77416224D01*
X114492595Y-77560502D01*
X114376137Y-77916517D01*
X106155954Y-77916517D01*
X106176137Y-77812217D01*
X106173803Y-77364087D01*
X106084088Y-76925023D01*
X105940928Y-76579403D01*
X124527875Y-76579403D01*
X124689335Y-76975000D01*
X126675000Y-76975000D01*
X126675000Y-74991515D01*
X127325000Y-74991515D01*
X127325000Y-76975000D01*
X129310665Y-76975000D01*
X129472125Y-76579403D01*
X129284042Y-76110961D01*
X129008185Y-75688214D01*
X128655154Y-75327407D01*
X128238517Y-75042405D01*
X127774284Y-74844161D01*
X127720596Y-74827882D01*
X127325000Y-74991515D01*
X126675000Y-74991515D01*
X126279404Y-74827882D01*
X126225716Y-74844161D01*
X125761483Y-75042405D01*
X125344846Y-75327407D01*
X124991815Y-75688214D01*
X124715958Y-76110961D01*
X124527875Y-76579403D01*
X105940928Y-76579403D01*
X105921664Y-76532897D01*
X105555501Y-76404118D01*
X104359619Y-77600000D01*
X103440381Y-77600000D01*
X102244499Y-76404118D01*
X101878336Y-76532897D01*
X101709000Y-76947809D01*
X101623863Y-77387783D01*
X95775000Y-77387783D01*
X95775000Y-77375932D01*
X95687573Y-76936407D01*
X95516079Y-76522383D01*
X95267108Y-76149772D01*
X95061835Y-75944499D01*
X102704118Y-75944499D01*
X103900000Y-77140381D01*
X105095882Y-75944499D01*
X104967103Y-75578336D01*
X104552191Y-75409000D01*
X104112217Y-75323863D01*
X103664087Y-75326197D01*
X103225023Y-75415912D01*
X102832897Y-75578336D01*
X102704118Y-75944499D01*
X95061835Y-75944499D01*
X94950228Y-75832892D01*
X94577617Y-75583921D01*
X94163593Y-75412427D01*
X93724068Y-75325000D01*
X93275932Y-75325000D01*
X92836407Y-75412427D01*
X92422383Y-75583921D01*
X92049772Y-75832892D01*
X91732892Y-76149772D01*
X91483921Y-76522383D01*
X91312427Y-76936407D01*
X91225000Y-77375932D01*
X91000000Y-77375932D01*
X91000000Y-69825178D01*
X149025000Y-69825178D01*
X149025000Y-70174822D01*
X149093213Y-70517748D01*
X149227016Y-70840778D01*
X149421268Y-71131496D01*
X149668504Y-71378732D01*
X149959222Y-71572984D01*
X150282252Y-71706787D01*
X150625178Y-71775000D01*
X150974822Y-71775000D01*
X151317748Y-71706787D01*
X151640778Y-71572984D01*
X151931496Y-71378732D01*
X152178732Y-71131496D01*
X152372984Y-70840778D01*
X152506787Y-70517748D01*
X152575000Y-70174822D01*
X152575000Y-69825178D01*
X152506787Y-69482252D01*
X152372984Y-69159222D01*
X152178732Y-68868504D01*
X151931496Y-68621268D01*
X151640778Y-68427016D01*
X151317748Y-68293213D01*
X150974822Y-68225000D01*
X150625178Y-68225000D01*
X150282252Y-68293213D01*
X149959222Y-68427016D01*
X149668504Y-68621268D01*
X149421268Y-68868504D01*
X149227016Y-69159222D01*
X149093213Y-69482252D01*
X149025000Y-69825178D01*
X91000000Y-69825178D01*
X91000000Y-61000000D01*
X101457153Y-61000000D01*
X101141652Y-61472181D01*
M02*
