G04 #@! TF.GenerationSoftware,KiCad,Pcbnew,8.0.6*
G04 #@! TF.CreationDate,2026-03-29T02:05:17+02:00*
G04 #@! TF.ProjectId,c64-wedge-psu-pcb,6336342d-7765-4646-9765-2d7073752d70,rev?*
G04 #@! TF.SameCoordinates,Original*
G04 #@! TF.FileFunction,Soldermask,Bot*
G04 #@! TF.FilePolarity,Negative*
%FSLAX46Y46*%
G04 Gerber Fmt 4.6, Leading zero omitted, Abs format (unit mm)*
G04 Created by KiCad (PCBNEW 8.0.6) date 2026-03-29 02:05:17*
%MOMM*%
%LPD*%
G01*
G04 APERTURE LIST*
G04 APERTURE END LIST*
G36*
X92751199Y-110659662D02*
G01*
X92798954Y-110659662D01*
X92840194Y-110668427D01*
X92875901Y-110671945D01*
X92920759Y-110685552D01*
X92972973Y-110696651D01*
X93006384Y-110711526D01*
X93035435Y-110720339D01*
X93081602Y-110745015D01*
X93135500Y-110769012D01*
X93160554Y-110787215D01*
X93182453Y-110798920D01*
X93227128Y-110835584D01*
X93279430Y-110873584D01*
X93296411Y-110892443D01*
X93311320Y-110904679D01*
X93351387Y-110953501D01*
X93398473Y-111005795D01*
X93408364Y-111022927D01*
X93417079Y-111033546D01*
X93449306Y-111093840D01*
X93487427Y-111159867D01*
X93491813Y-111173368D01*
X93495660Y-111180564D01*
X93516861Y-111250455D01*
X93542404Y-111329067D01*
X93543303Y-111337623D01*
X93544054Y-111340098D01*
X93551371Y-111414389D01*
X93561000Y-111506000D01*
X93551370Y-111597619D01*
X93544054Y-111671901D01*
X93543303Y-111674375D01*
X93542404Y-111682933D01*
X93516856Y-111761558D01*
X93495660Y-111831435D01*
X93491814Y-111838629D01*
X93487427Y-111852133D01*
X93449299Y-111918172D01*
X93417079Y-111978453D01*
X93408366Y-111989069D01*
X93398473Y-112006205D01*
X93351378Y-112058509D01*
X93311320Y-112107320D01*
X93296414Y-112119552D01*
X93279430Y-112138416D01*
X93227118Y-112176423D01*
X93182453Y-112213079D01*
X93160559Y-112224780D01*
X93135500Y-112242988D01*
X93081591Y-112266989D01*
X93035435Y-112291660D01*
X93006391Y-112300470D01*
X92972973Y-112315349D01*
X92920748Y-112326449D01*
X92875901Y-112340054D01*
X92840203Y-112343570D01*
X92798954Y-112352338D01*
X92751188Y-112352338D01*
X92710000Y-112356395D01*
X92668811Y-112352338D01*
X92621046Y-112352338D01*
X92579797Y-112343570D01*
X92544098Y-112340054D01*
X92499248Y-112326448D01*
X92447027Y-112315349D01*
X92413610Y-112300471D01*
X92384564Y-112291660D01*
X92338402Y-112266986D01*
X92284500Y-112242988D01*
X92259443Y-112224783D01*
X92237546Y-112213079D01*
X92192873Y-112176416D01*
X92140570Y-112138416D01*
X92123588Y-112119555D01*
X92108679Y-112107320D01*
X92068610Y-112058496D01*
X92021527Y-112006205D01*
X92011636Y-111989073D01*
X92002920Y-111978453D01*
X91970687Y-111918148D01*
X91932573Y-111852133D01*
X91928186Y-111838634D01*
X91924339Y-111831435D01*
X91903128Y-111761512D01*
X91877596Y-111682933D01*
X91876697Y-111674380D01*
X91875945Y-111671901D01*
X91868613Y-111597467D01*
X91859000Y-111506000D01*
X91868612Y-111414540D01*
X91875945Y-111340098D01*
X91876697Y-111337618D01*
X91877596Y-111329067D01*
X91903123Y-111250502D01*
X91924339Y-111180564D01*
X91928187Y-111173363D01*
X91932573Y-111159867D01*
X91970680Y-111093863D01*
X92002920Y-111033546D01*
X92011638Y-111022923D01*
X92021527Y-111005795D01*
X92068601Y-110953513D01*
X92108679Y-110904679D01*
X92123591Y-110892440D01*
X92140570Y-110873584D01*
X92192862Y-110835591D01*
X92237546Y-110798920D01*
X92259448Y-110787213D01*
X92284500Y-110769012D01*
X92338391Y-110745018D01*
X92384564Y-110720339D01*
X92413617Y-110711525D01*
X92447027Y-110696651D01*
X92499237Y-110685553D01*
X92544098Y-110671945D01*
X92579806Y-110668427D01*
X92621046Y-110659662D01*
X92668801Y-110659662D01*
X92710000Y-110655604D01*
X92751199Y-110659662D01*
G37*
G36*
X100371199Y-110659662D02*
G01*
X100418954Y-110659662D01*
X100460194Y-110668427D01*
X100495901Y-110671945D01*
X100540759Y-110685552D01*
X100592973Y-110696651D01*
X100626384Y-110711526D01*
X100655435Y-110720339D01*
X100701602Y-110745015D01*
X100755500Y-110769012D01*
X100780554Y-110787215D01*
X100802453Y-110798920D01*
X100847128Y-110835584D01*
X100899430Y-110873584D01*
X100916411Y-110892443D01*
X100931320Y-110904679D01*
X100971387Y-110953501D01*
X101018473Y-111005795D01*
X101028364Y-111022927D01*
X101037079Y-111033546D01*
X101069306Y-111093840D01*
X101107427Y-111159867D01*
X101111813Y-111173368D01*
X101115660Y-111180564D01*
X101136861Y-111250455D01*
X101162404Y-111329067D01*
X101163303Y-111337623D01*
X101164054Y-111340098D01*
X101171371Y-111414389D01*
X101181000Y-111506000D01*
X101171370Y-111597619D01*
X101164054Y-111671901D01*
X101163303Y-111674375D01*
X101162404Y-111682933D01*
X101136856Y-111761558D01*
X101115660Y-111831435D01*
X101111814Y-111838629D01*
X101107427Y-111852133D01*
X101069299Y-111918172D01*
X101037079Y-111978453D01*
X101028366Y-111989069D01*
X101018473Y-112006205D01*
X100971378Y-112058509D01*
X100931320Y-112107320D01*
X100916414Y-112119552D01*
X100899430Y-112138416D01*
X100847118Y-112176423D01*
X100802453Y-112213079D01*
X100780559Y-112224780D01*
X100755500Y-112242988D01*
X100701591Y-112266989D01*
X100655435Y-112291660D01*
X100626391Y-112300470D01*
X100592973Y-112315349D01*
X100540748Y-112326449D01*
X100495901Y-112340054D01*
X100460203Y-112343570D01*
X100418954Y-112352338D01*
X100371188Y-112352338D01*
X100330000Y-112356395D01*
X100288811Y-112352338D01*
X100241046Y-112352338D01*
X100199797Y-112343570D01*
X100164098Y-112340054D01*
X100119248Y-112326448D01*
X100067027Y-112315349D01*
X100033610Y-112300471D01*
X100004564Y-112291660D01*
X99958402Y-112266986D01*
X99904500Y-112242988D01*
X99879443Y-112224783D01*
X99857546Y-112213079D01*
X99812873Y-112176416D01*
X99760570Y-112138416D01*
X99743588Y-112119555D01*
X99728679Y-112107320D01*
X99688610Y-112058496D01*
X99641527Y-112006205D01*
X99631636Y-111989073D01*
X99622920Y-111978453D01*
X99590687Y-111918148D01*
X99552573Y-111852133D01*
X99548186Y-111838634D01*
X99544339Y-111831435D01*
X99523128Y-111761512D01*
X99497596Y-111682933D01*
X99496697Y-111674380D01*
X99495945Y-111671901D01*
X99488613Y-111597467D01*
X99479000Y-111506000D01*
X99488612Y-111414540D01*
X99495945Y-111340098D01*
X99496697Y-111337618D01*
X99497596Y-111329067D01*
X99523123Y-111250502D01*
X99544339Y-111180564D01*
X99548187Y-111173363D01*
X99552573Y-111159867D01*
X99590680Y-111093863D01*
X99622920Y-111033546D01*
X99631638Y-111022923D01*
X99641527Y-111005795D01*
X99688601Y-110953513D01*
X99728679Y-110904679D01*
X99743591Y-110892440D01*
X99760570Y-110873584D01*
X99812862Y-110835591D01*
X99857546Y-110798920D01*
X99879448Y-110787213D01*
X99904500Y-110769012D01*
X99958391Y-110745018D01*
X100004564Y-110720339D01*
X100033617Y-110711525D01*
X100067027Y-110696651D01*
X100119237Y-110685553D01*
X100164098Y-110671945D01*
X100199806Y-110668427D01*
X100241046Y-110659662D01*
X100288801Y-110659662D01*
X100330000Y-110655604D01*
X100371199Y-110659662D01*
G37*
G36*
X102657199Y-110659662D02*
G01*
X102704954Y-110659662D01*
X102746194Y-110668427D01*
X102781901Y-110671945D01*
X102826759Y-110685552D01*
X102878973Y-110696651D01*
X102912384Y-110711526D01*
X102941435Y-110720339D01*
X102987602Y-110745015D01*
X103041500Y-110769012D01*
X103066554Y-110787215D01*
X103088453Y-110798920D01*
X103133128Y-110835584D01*
X103185430Y-110873584D01*
X103202411Y-110892443D01*
X103217320Y-110904679D01*
X103257387Y-110953501D01*
X103304473Y-111005795D01*
X103314364Y-111022927D01*
X103323079Y-111033546D01*
X103355306Y-111093840D01*
X103393427Y-111159867D01*
X103397813Y-111173368D01*
X103401660Y-111180564D01*
X103422861Y-111250455D01*
X103448404Y-111329067D01*
X103449303Y-111337623D01*
X103450054Y-111340098D01*
X103457371Y-111414389D01*
X103467000Y-111506000D01*
X103457370Y-111597619D01*
X103450054Y-111671901D01*
X103449303Y-111674375D01*
X103448404Y-111682933D01*
X103422856Y-111761558D01*
X103401660Y-111831435D01*
X103397814Y-111838629D01*
X103393427Y-111852133D01*
X103355299Y-111918172D01*
X103323079Y-111978453D01*
X103314366Y-111989069D01*
X103304473Y-112006205D01*
X103257378Y-112058509D01*
X103217320Y-112107320D01*
X103202414Y-112119552D01*
X103185430Y-112138416D01*
X103133118Y-112176423D01*
X103088453Y-112213079D01*
X103066559Y-112224780D01*
X103041500Y-112242988D01*
X102987591Y-112266989D01*
X102941435Y-112291660D01*
X102912391Y-112300470D01*
X102878973Y-112315349D01*
X102826748Y-112326449D01*
X102781901Y-112340054D01*
X102746203Y-112343570D01*
X102704954Y-112352338D01*
X102657188Y-112352338D01*
X102616000Y-112356395D01*
X102574811Y-112352338D01*
X102527046Y-112352338D01*
X102485797Y-112343570D01*
X102450098Y-112340054D01*
X102405248Y-112326448D01*
X102353027Y-112315349D01*
X102319610Y-112300471D01*
X102290564Y-112291660D01*
X102244402Y-112266986D01*
X102190500Y-112242988D01*
X102165443Y-112224783D01*
X102143546Y-112213079D01*
X102098873Y-112176416D01*
X102046570Y-112138416D01*
X102029588Y-112119555D01*
X102014679Y-112107320D01*
X101974610Y-112058496D01*
X101927527Y-112006205D01*
X101917636Y-111989073D01*
X101908920Y-111978453D01*
X101876687Y-111918148D01*
X101838573Y-111852133D01*
X101834186Y-111838634D01*
X101830339Y-111831435D01*
X101809128Y-111761512D01*
X101783596Y-111682933D01*
X101782697Y-111674380D01*
X101781945Y-111671901D01*
X101774613Y-111597467D01*
X101765000Y-111506000D01*
X101774612Y-111414540D01*
X101781945Y-111340098D01*
X101782697Y-111337618D01*
X101783596Y-111329067D01*
X101809123Y-111250502D01*
X101830339Y-111180564D01*
X101834187Y-111173363D01*
X101838573Y-111159867D01*
X101876680Y-111093863D01*
X101908920Y-111033546D01*
X101917638Y-111022923D01*
X101927527Y-111005795D01*
X101974601Y-110953513D01*
X102014679Y-110904679D01*
X102029591Y-110892440D01*
X102046570Y-110873584D01*
X102098862Y-110835591D01*
X102143546Y-110798920D01*
X102165448Y-110787213D01*
X102190500Y-110769012D01*
X102244391Y-110745018D01*
X102290564Y-110720339D01*
X102319617Y-110711525D01*
X102353027Y-110696651D01*
X102405237Y-110685553D01*
X102450098Y-110671945D01*
X102485806Y-110668427D01*
X102527046Y-110659662D01*
X102574801Y-110659662D01*
X102616000Y-110655604D01*
X102657199Y-110659662D01*
G37*
G36*
X110277199Y-110659662D02*
G01*
X110324954Y-110659662D01*
X110366194Y-110668427D01*
X110401901Y-110671945D01*
X110446759Y-110685552D01*
X110498973Y-110696651D01*
X110532384Y-110711526D01*
X110561435Y-110720339D01*
X110607602Y-110745015D01*
X110661500Y-110769012D01*
X110686554Y-110787215D01*
X110708453Y-110798920D01*
X110753128Y-110835584D01*
X110805430Y-110873584D01*
X110822411Y-110892443D01*
X110837320Y-110904679D01*
X110877387Y-110953501D01*
X110924473Y-111005795D01*
X110934364Y-111022927D01*
X110943079Y-111033546D01*
X110975306Y-111093840D01*
X111013427Y-111159867D01*
X111017813Y-111173368D01*
X111021660Y-111180564D01*
X111042861Y-111250455D01*
X111068404Y-111329067D01*
X111069303Y-111337623D01*
X111070054Y-111340098D01*
X111077371Y-111414389D01*
X111087000Y-111506000D01*
X111077370Y-111597619D01*
X111070054Y-111671901D01*
X111069303Y-111674375D01*
X111068404Y-111682933D01*
X111042856Y-111761558D01*
X111021660Y-111831435D01*
X111017814Y-111838629D01*
X111013427Y-111852133D01*
X110975299Y-111918172D01*
X110943079Y-111978453D01*
X110934366Y-111989069D01*
X110924473Y-112006205D01*
X110877378Y-112058509D01*
X110837320Y-112107320D01*
X110822414Y-112119552D01*
X110805430Y-112138416D01*
X110753118Y-112176423D01*
X110708453Y-112213079D01*
X110686559Y-112224780D01*
X110661500Y-112242988D01*
X110607591Y-112266989D01*
X110561435Y-112291660D01*
X110532391Y-112300470D01*
X110498973Y-112315349D01*
X110446748Y-112326449D01*
X110401901Y-112340054D01*
X110366203Y-112343570D01*
X110324954Y-112352338D01*
X110277188Y-112352338D01*
X110236000Y-112356395D01*
X110194811Y-112352338D01*
X110147046Y-112352338D01*
X110105797Y-112343570D01*
X110070098Y-112340054D01*
X110025248Y-112326448D01*
X109973027Y-112315349D01*
X109939610Y-112300471D01*
X109910564Y-112291660D01*
X109864402Y-112266986D01*
X109810500Y-112242988D01*
X109785443Y-112224783D01*
X109763546Y-112213079D01*
X109718873Y-112176416D01*
X109666570Y-112138416D01*
X109649588Y-112119555D01*
X109634679Y-112107320D01*
X109594610Y-112058496D01*
X109547527Y-112006205D01*
X109537636Y-111989073D01*
X109528920Y-111978453D01*
X109496687Y-111918148D01*
X109458573Y-111852133D01*
X109454186Y-111838634D01*
X109450339Y-111831435D01*
X109429128Y-111761512D01*
X109403596Y-111682933D01*
X109402697Y-111674380D01*
X109401945Y-111671901D01*
X109394613Y-111597467D01*
X109385000Y-111506000D01*
X109394612Y-111414540D01*
X109401945Y-111340098D01*
X109402697Y-111337618D01*
X109403596Y-111329067D01*
X109429123Y-111250502D01*
X109450339Y-111180564D01*
X109454187Y-111173363D01*
X109458573Y-111159867D01*
X109496680Y-111093863D01*
X109528920Y-111033546D01*
X109537638Y-111022923D01*
X109547527Y-111005795D01*
X109594601Y-110953513D01*
X109634679Y-110904679D01*
X109649591Y-110892440D01*
X109666570Y-110873584D01*
X109718862Y-110835591D01*
X109763546Y-110798920D01*
X109785448Y-110787213D01*
X109810500Y-110769012D01*
X109864391Y-110745018D01*
X109910564Y-110720339D01*
X109939617Y-110711525D01*
X109973027Y-110696651D01*
X110025237Y-110685553D01*
X110070098Y-110671945D01*
X110105806Y-110668427D01*
X110147046Y-110659662D01*
X110194801Y-110659662D01*
X110236000Y-110655604D01*
X110277199Y-110659662D01*
G37*
G36*
X132089425Y-105619841D02*
G01*
X132347487Y-105675979D01*
X132594933Y-105768271D01*
X132826726Y-105894840D01*
X133038147Y-106053108D01*
X133224892Y-106239853D01*
X133383160Y-106451274D01*
X133509729Y-106683067D01*
X133602021Y-106930513D01*
X133658159Y-107188575D01*
X133677000Y-107452000D01*
X133658159Y-107715425D01*
X133602021Y-107973487D01*
X133509729Y-108220933D01*
X133383160Y-108452726D01*
X133224892Y-108664147D01*
X133038147Y-108850892D01*
X132826726Y-109009160D01*
X132594933Y-109135729D01*
X132347487Y-109228021D01*
X132089425Y-109284159D01*
X131826000Y-109303000D01*
X131562575Y-109284159D01*
X131304513Y-109228021D01*
X131057067Y-109135729D01*
X130825274Y-109009160D01*
X130613853Y-108850892D01*
X130427108Y-108664147D01*
X130268840Y-108452726D01*
X130142271Y-108220933D01*
X130049979Y-107973487D01*
X129993841Y-107715425D01*
X129975000Y-107452000D01*
X129993841Y-107188575D01*
X130049979Y-106930513D01*
X130142271Y-106683067D01*
X130268840Y-106451274D01*
X130427108Y-106239853D01*
X130613853Y-106053108D01*
X130825274Y-105894840D01*
X131057067Y-105768271D01*
X131304513Y-105675979D01*
X131562575Y-105619841D01*
X131826000Y-105601000D01*
X132089425Y-105619841D01*
G37*
G36*
X94551098Y-105287966D02*
G01*
X94611353Y-105287966D01*
X94677199Y-105297890D01*
X94746273Y-105303327D01*
X94801947Y-105316693D01*
X94855302Y-105324735D01*
X94925021Y-105346240D01*
X94998187Y-105363806D01*
X95045495Y-105383401D01*
X95091052Y-105397454D01*
X95162569Y-105431895D01*
X95237538Y-105462948D01*
X95276022Y-105486531D01*
X95313322Y-105504494D01*
X95384271Y-105552866D01*
X95458433Y-105598313D01*
X95488127Y-105623674D01*
X95517162Y-105643470D01*
X95584956Y-105706374D01*
X95655433Y-105766567D01*
X95676834Y-105791625D01*
X95698011Y-105811274D01*
X95759925Y-105888911D01*
X95823687Y-105963567D01*
X95837709Y-105986449D01*
X95851830Y-106004156D01*
X95905087Y-106096399D01*
X95959052Y-106184462D01*
X95966977Y-106203597D01*
X95975185Y-106217812D01*
X96017038Y-106324454D01*
X96058194Y-106423813D01*
X96061597Y-106437991D01*
X96065314Y-106447460D01*
X96093157Y-106569446D01*
X96118673Y-106675727D01*
X96119334Y-106684133D01*
X96120214Y-106687986D01*
X96131683Y-106841031D01*
X96139000Y-106934000D01*
X96131682Y-107026975D01*
X96120214Y-107180013D01*
X96119334Y-107183865D01*
X96118673Y-107192273D01*
X96093152Y-107298573D01*
X96065314Y-107420539D01*
X96061598Y-107430005D01*
X96058194Y-107444187D01*
X96017031Y-107543563D01*
X95975185Y-107650187D01*
X95966979Y-107664399D01*
X95959052Y-107683538D01*
X95905077Y-107771616D01*
X95851830Y-107863843D01*
X95837712Y-107881546D01*
X95823687Y-107904433D01*
X95759913Y-107979102D01*
X95698011Y-108056725D01*
X95676838Y-108076369D01*
X95655433Y-108101433D01*
X95584942Y-108161637D01*
X95517162Y-108224529D01*
X95488133Y-108244320D01*
X95458433Y-108269687D01*
X95384257Y-108315142D01*
X95313322Y-108363505D01*
X95276030Y-108381463D01*
X95237538Y-108405052D01*
X95162554Y-108436110D01*
X95091052Y-108470545D01*
X95045504Y-108484594D01*
X94998187Y-108504194D01*
X94925007Y-108521762D01*
X94855302Y-108543264D01*
X94801955Y-108551304D01*
X94746273Y-108564673D01*
X94677195Y-108570109D01*
X94611353Y-108580034D01*
X94551098Y-108580034D01*
X94488000Y-108585000D01*
X94424902Y-108580034D01*
X94364647Y-108580034D01*
X94298803Y-108570109D01*
X94229727Y-108564673D01*
X94174045Y-108551305D01*
X94120697Y-108543264D01*
X94050988Y-108521761D01*
X93977813Y-108504194D01*
X93930498Y-108484595D01*
X93884947Y-108470545D01*
X93813438Y-108436107D01*
X93738462Y-108405052D01*
X93699972Y-108381465D01*
X93662675Y-108363504D01*
X93591726Y-108315131D01*
X93517567Y-108269687D01*
X93487873Y-108244326D01*
X93458839Y-108224531D01*
X93391043Y-108161625D01*
X93320567Y-108101433D01*
X93299164Y-108076374D01*
X93277988Y-108056725D01*
X93216071Y-107979084D01*
X93152313Y-107904433D01*
X93138291Y-107881551D01*
X93124169Y-107863843D01*
X93070905Y-107771588D01*
X93016948Y-107683538D01*
X93009023Y-107664405D01*
X93000814Y-107650187D01*
X92958949Y-107543517D01*
X92917806Y-107444187D01*
X92914402Y-107430012D01*
X92910685Y-107420539D01*
X92882827Y-107298488D01*
X92857327Y-107192273D01*
X92856665Y-107183871D01*
X92855785Y-107180013D01*
X92844296Y-107026710D01*
X92837000Y-106934000D01*
X92844296Y-106841297D01*
X92855785Y-106687986D01*
X92856665Y-106684126D01*
X92857327Y-106675727D01*
X92882822Y-106569530D01*
X92910685Y-106447460D01*
X92914403Y-106437984D01*
X92917806Y-106423813D01*
X92958942Y-106324500D01*
X93000814Y-106217812D01*
X93009024Y-106203590D01*
X93016948Y-106184462D01*
X93070895Y-106096427D01*
X93124169Y-106004156D01*
X93138293Y-105986443D01*
X93152313Y-105963567D01*
X93216059Y-105888929D01*
X93277988Y-105811274D01*
X93299169Y-105791620D01*
X93320567Y-105766567D01*
X93391029Y-105706386D01*
X93458839Y-105643468D01*
X93487879Y-105623668D01*
X93517567Y-105598313D01*
X93591711Y-105552876D01*
X93662675Y-105504495D01*
X93699980Y-105486529D01*
X93738462Y-105462948D01*
X93813423Y-105431898D01*
X93884947Y-105397454D01*
X93930507Y-105383400D01*
X93977813Y-105363806D01*
X94050973Y-105346241D01*
X94120697Y-105324735D01*
X94174054Y-105316692D01*
X94229727Y-105303327D01*
X94298799Y-105297890D01*
X94364647Y-105287966D01*
X94424902Y-105287966D01*
X94488000Y-105283000D01*
X94551098Y-105287966D01*
G37*
G36*
X108807517Y-105286882D02*
G01*
X108824062Y-105297938D01*
X108835118Y-105314483D01*
X108839000Y-105334000D01*
X108839000Y-108534000D01*
X108835118Y-108553517D01*
X108824062Y-108570062D01*
X108807517Y-108581118D01*
X108788000Y-108585000D01*
X105588000Y-108585000D01*
X105568483Y-108581118D01*
X105551938Y-108570062D01*
X105540882Y-108553517D01*
X105537000Y-108534000D01*
X105537000Y-105334000D01*
X105540882Y-105314483D01*
X105551938Y-105297938D01*
X105568483Y-105286882D01*
X105588000Y-105283000D01*
X108788000Y-105283000D01*
X108807517Y-105286882D01*
G37*
G36*
X103756604Y-101813590D02*
G01*
X103797696Y-101813590D01*
X103843456Y-101822144D01*
X103895531Y-101827273D01*
X103935091Y-101839273D01*
X103970111Y-101845820D01*
X104018617Y-101864611D01*
X104073932Y-101881391D01*
X104105534Y-101898282D01*
X104133656Y-101909177D01*
X104182513Y-101939428D01*
X104238347Y-101969272D01*
X104261809Y-101988526D01*
X104282784Y-102001514D01*
X104329256Y-102043879D01*
X104382459Y-102087541D01*
X104398224Y-102106751D01*
X104412400Y-102119674D01*
X104453557Y-102174174D01*
X104500728Y-102231653D01*
X104509848Y-102248717D01*
X104518099Y-102259642D01*
X104550925Y-102325566D01*
X104588609Y-102396068D01*
X104592628Y-102409316D01*
X104596282Y-102416655D01*
X104617864Y-102492507D01*
X104642727Y-102574469D01*
X104643543Y-102582762D01*
X104644280Y-102585350D01*
X104651937Y-102667982D01*
X104661000Y-102760000D01*
X104651936Y-102852026D01*
X104644280Y-102934649D01*
X104643544Y-102937235D01*
X104642727Y-102945531D01*
X104617859Y-103027507D01*
X104596282Y-103103344D01*
X104592628Y-103110680D01*
X104588609Y-103123932D01*
X104550917Y-103194447D01*
X104518099Y-103260357D01*
X104509850Y-103271279D01*
X104500728Y-103288347D01*
X104453547Y-103345836D01*
X104412400Y-103400325D01*
X104398227Y-103413244D01*
X104382459Y-103432459D01*
X104329245Y-103476129D01*
X104282784Y-103518485D01*
X104261814Y-103531469D01*
X104238347Y-103550728D01*
X104182502Y-103580577D01*
X104133656Y-103610822D01*
X104105541Y-103621713D01*
X104073932Y-103638609D01*
X104018605Y-103655392D01*
X103970111Y-103674179D01*
X103935098Y-103680724D01*
X103895531Y-103692727D01*
X103843453Y-103697856D01*
X103797696Y-103706410D01*
X103756604Y-103706410D01*
X103710000Y-103711000D01*
X103663396Y-103706410D01*
X103622304Y-103706410D01*
X103576545Y-103697856D01*
X103524469Y-103692727D01*
X103484902Y-103680724D01*
X103449888Y-103674179D01*
X103401389Y-103655390D01*
X103346068Y-103638609D01*
X103314461Y-103621714D01*
X103286343Y-103610822D01*
X103237490Y-103580573D01*
X103181653Y-103550728D01*
X103158188Y-103531471D01*
X103137215Y-103518485D01*
X103090744Y-103476121D01*
X103037541Y-103432459D01*
X103021775Y-103413248D01*
X103007599Y-103400325D01*
X102966439Y-103345821D01*
X102919272Y-103288347D01*
X102910151Y-103271284D01*
X102901900Y-103260357D01*
X102869067Y-103194420D01*
X102831391Y-103123932D01*
X102827372Y-103110685D01*
X102823717Y-103103344D01*
X102802124Y-103027454D01*
X102777273Y-102945531D01*
X102776456Y-102937241D01*
X102775719Y-102934649D01*
X102768046Y-102851854D01*
X102759000Y-102760000D01*
X102768045Y-102668153D01*
X102775719Y-102585350D01*
X102776456Y-102582757D01*
X102777273Y-102574469D01*
X102802119Y-102492560D01*
X102823717Y-102416655D01*
X102827373Y-102409311D01*
X102831391Y-102396068D01*
X102869060Y-102325593D01*
X102901900Y-102259642D01*
X102910153Y-102248712D01*
X102919272Y-102231653D01*
X102966430Y-102174190D01*
X103007599Y-102119674D01*
X103021778Y-102106747D01*
X103037541Y-102087541D01*
X103090733Y-102043887D01*
X103137215Y-102001514D01*
X103158193Y-101988524D01*
X103181653Y-101969272D01*
X103237478Y-101939432D01*
X103286343Y-101909177D01*
X103314467Y-101898281D01*
X103346068Y-101881391D01*
X103401377Y-101864612D01*
X103449888Y-101845820D01*
X103484909Y-101839273D01*
X103524469Y-101827273D01*
X103576542Y-101822144D01*
X103622304Y-101813590D01*
X103663396Y-101813590D01*
X103710000Y-101809000D01*
X103756604Y-101813590D01*
G37*
G36*
X107156604Y-101813590D02*
G01*
X107197696Y-101813590D01*
X107243456Y-101822144D01*
X107295531Y-101827273D01*
X107335091Y-101839273D01*
X107370111Y-101845820D01*
X107418617Y-101864611D01*
X107473932Y-101881391D01*
X107505534Y-101898282D01*
X107533656Y-101909177D01*
X107582513Y-101939428D01*
X107638347Y-101969272D01*
X107661809Y-101988526D01*
X107682784Y-102001514D01*
X107729256Y-102043879D01*
X107782459Y-102087541D01*
X107798224Y-102106751D01*
X107812400Y-102119674D01*
X107853557Y-102174174D01*
X107900728Y-102231653D01*
X107909848Y-102248717D01*
X107918099Y-102259642D01*
X107950925Y-102325566D01*
X107988609Y-102396068D01*
X107992628Y-102409316D01*
X107996282Y-102416655D01*
X108017864Y-102492507D01*
X108042727Y-102574469D01*
X108043543Y-102582762D01*
X108044280Y-102585350D01*
X108051937Y-102667982D01*
X108061000Y-102760000D01*
X108051936Y-102852026D01*
X108044280Y-102934649D01*
X108043544Y-102937235D01*
X108042727Y-102945531D01*
X108017859Y-103027507D01*
X107996282Y-103103344D01*
X107992628Y-103110680D01*
X107988609Y-103123932D01*
X107950917Y-103194447D01*
X107918099Y-103260357D01*
X107909850Y-103271279D01*
X107900728Y-103288347D01*
X107853547Y-103345836D01*
X107812400Y-103400325D01*
X107798227Y-103413244D01*
X107782459Y-103432459D01*
X107729245Y-103476129D01*
X107682784Y-103518485D01*
X107661814Y-103531469D01*
X107638347Y-103550728D01*
X107582502Y-103580577D01*
X107533656Y-103610822D01*
X107505541Y-103621713D01*
X107473932Y-103638609D01*
X107418605Y-103655392D01*
X107370111Y-103674179D01*
X107335098Y-103680724D01*
X107295531Y-103692727D01*
X107243453Y-103697856D01*
X107197696Y-103706410D01*
X107156604Y-103706410D01*
X107110000Y-103711000D01*
X107063396Y-103706410D01*
X107022304Y-103706410D01*
X106976545Y-103697856D01*
X106924469Y-103692727D01*
X106884902Y-103680724D01*
X106849888Y-103674179D01*
X106801389Y-103655390D01*
X106746068Y-103638609D01*
X106714461Y-103621714D01*
X106686343Y-103610822D01*
X106637490Y-103580573D01*
X106581653Y-103550728D01*
X106558188Y-103531471D01*
X106537215Y-103518485D01*
X106490744Y-103476121D01*
X106437541Y-103432459D01*
X106421775Y-103413248D01*
X106407599Y-103400325D01*
X106366439Y-103345821D01*
X106319272Y-103288347D01*
X106310151Y-103271284D01*
X106301900Y-103260357D01*
X106269067Y-103194420D01*
X106231391Y-103123932D01*
X106227372Y-103110685D01*
X106223717Y-103103344D01*
X106202124Y-103027454D01*
X106177273Y-102945531D01*
X106176456Y-102937241D01*
X106175719Y-102934649D01*
X106168046Y-102851854D01*
X106159000Y-102760000D01*
X106168045Y-102668153D01*
X106175719Y-102585350D01*
X106176456Y-102582757D01*
X106177273Y-102574469D01*
X106202119Y-102492560D01*
X106223717Y-102416655D01*
X106227373Y-102409311D01*
X106231391Y-102396068D01*
X106269060Y-102325593D01*
X106301900Y-102259642D01*
X106310153Y-102248712D01*
X106319272Y-102231653D01*
X106366430Y-102174190D01*
X106407599Y-102119674D01*
X106421778Y-102106747D01*
X106437541Y-102087541D01*
X106490733Y-102043887D01*
X106537215Y-102001514D01*
X106558193Y-101988524D01*
X106581653Y-101969272D01*
X106637478Y-101939432D01*
X106686343Y-101909177D01*
X106714467Y-101898281D01*
X106746068Y-101881391D01*
X106801377Y-101864612D01*
X106849888Y-101845820D01*
X106884909Y-101839273D01*
X106924469Y-101827273D01*
X106976542Y-101822144D01*
X107022304Y-101813590D01*
X107063396Y-101813590D01*
X107110000Y-101809000D01*
X107156604Y-101813590D01*
G37*
G36*
X147624938Y-101062017D02*
G01*
X147670923Y-101062017D01*
X147722139Y-101071590D01*
X147779040Y-101077195D01*
X147822261Y-101090306D01*
X147861474Y-101097636D01*
X147915785Y-101118676D01*
X147976200Y-101137003D01*
X148010720Y-101155454D01*
X148042232Y-101167662D01*
X148096977Y-101201559D01*
X148157904Y-101234125D01*
X148183506Y-101255136D01*
X148207048Y-101269713D01*
X148259212Y-101317267D01*
X148317169Y-101364831D01*
X148334342Y-101385757D01*
X148350301Y-101400305D01*
X148396629Y-101461653D01*
X148447875Y-101524096D01*
X148457783Y-101542634D01*
X148467122Y-101555000D01*
X148504274Y-101629613D01*
X148544997Y-101705800D01*
X148549340Y-101720117D01*
X148553528Y-101728528D01*
X148578267Y-101815476D01*
X148604805Y-101902960D01*
X148605676Y-101911811D01*
X148606577Y-101914975D01*
X148615938Y-102016002D01*
X148625000Y-102108000D01*
X148615938Y-102200005D01*
X148606577Y-102301024D01*
X148605676Y-102304187D01*
X148604805Y-102313040D01*
X148578262Y-102400538D01*
X148553528Y-102487471D01*
X148549341Y-102495879D01*
X148544997Y-102510200D01*
X148504267Y-102586399D01*
X148467122Y-102660999D01*
X148457785Y-102673362D01*
X148447875Y-102691904D01*
X148396620Y-102754357D01*
X148350301Y-102815694D01*
X148334345Y-102830238D01*
X148317169Y-102851169D01*
X148259201Y-102898741D01*
X148207048Y-102946286D01*
X148183511Y-102960859D01*
X148157904Y-102981875D01*
X148096965Y-103014447D01*
X148042232Y-103048337D01*
X148010726Y-103060542D01*
X147976200Y-103078997D01*
X147915773Y-103097327D01*
X147861474Y-103118363D01*
X147822268Y-103125691D01*
X147779040Y-103138805D01*
X147722136Y-103144409D01*
X147670923Y-103153983D01*
X147624938Y-103153983D01*
X147574000Y-103159000D01*
X147523062Y-103153983D01*
X147477077Y-103153983D01*
X147425863Y-103144409D01*
X147368960Y-103138805D01*
X147325732Y-103125692D01*
X147286525Y-103118363D01*
X147232221Y-103097325D01*
X147171800Y-103078997D01*
X147137275Y-103060543D01*
X147105767Y-103048337D01*
X147051027Y-103014443D01*
X146990096Y-102981875D01*
X146964491Y-102960861D01*
X146940951Y-102946286D01*
X146888788Y-102898733D01*
X146830831Y-102851169D01*
X146813656Y-102830242D01*
X146797698Y-102815694D01*
X146751367Y-102754342D01*
X146700125Y-102691904D01*
X146690216Y-102673366D01*
X146680877Y-102660999D01*
X146643717Y-102586372D01*
X146603003Y-102510200D01*
X146598660Y-102495884D01*
X146594471Y-102487471D01*
X146569721Y-102400485D01*
X146543195Y-102313040D01*
X146542323Y-102304192D01*
X146541422Y-102301024D01*
X146532044Y-102199833D01*
X146523000Y-102108000D01*
X146532044Y-102016173D01*
X146541422Y-101914975D01*
X146542323Y-101911805D01*
X146543195Y-101902960D01*
X146569716Y-101815529D01*
X146594471Y-101728528D01*
X146598661Y-101720112D01*
X146603003Y-101705800D01*
X146643710Y-101629641D01*
X146680877Y-101555000D01*
X146690218Y-101542629D01*
X146700125Y-101524096D01*
X146751357Y-101461668D01*
X146797698Y-101400305D01*
X146813660Y-101385753D01*
X146830831Y-101364831D01*
X146888777Y-101317275D01*
X146940951Y-101269713D01*
X146964496Y-101255134D01*
X146990096Y-101234125D01*
X147051015Y-101201563D01*
X147105767Y-101167662D01*
X147137282Y-101155452D01*
X147171800Y-101137003D01*
X147232209Y-101118677D01*
X147286525Y-101097636D01*
X147325739Y-101090305D01*
X147368960Y-101077195D01*
X147425860Y-101071590D01*
X147477077Y-101062017D01*
X147523062Y-101062017D01*
X147574000Y-101057000D01*
X147624938Y-101062017D01*
G37*
G36*
X152624938Y-101062017D02*
G01*
X152670923Y-101062017D01*
X152722139Y-101071590D01*
X152779040Y-101077195D01*
X152822261Y-101090306D01*
X152861474Y-101097636D01*
X152915785Y-101118676D01*
X152976200Y-101137003D01*
X153010720Y-101155454D01*
X153042232Y-101167662D01*
X153096977Y-101201559D01*
X153157904Y-101234125D01*
X153183506Y-101255136D01*
X153207048Y-101269713D01*
X153259212Y-101317267D01*
X153317169Y-101364831D01*
X153334342Y-101385757D01*
X153350301Y-101400305D01*
X153396629Y-101461653D01*
X153447875Y-101524096D01*
X153457783Y-101542634D01*
X153467122Y-101555000D01*
X153504274Y-101629613D01*
X153544997Y-101705800D01*
X153549340Y-101720117D01*
X153553528Y-101728528D01*
X153578267Y-101815476D01*
X153604805Y-101902960D01*
X153605676Y-101911811D01*
X153606577Y-101914975D01*
X153615938Y-102016002D01*
X153625000Y-102108000D01*
X153615938Y-102200005D01*
X153606577Y-102301024D01*
X153605676Y-102304187D01*
X153604805Y-102313040D01*
X153578262Y-102400538D01*
X153553528Y-102487471D01*
X153549341Y-102495879D01*
X153544997Y-102510200D01*
X153504267Y-102586399D01*
X153467122Y-102660999D01*
X153457785Y-102673362D01*
X153447875Y-102691904D01*
X153396620Y-102754357D01*
X153350301Y-102815694D01*
X153334345Y-102830238D01*
X153317169Y-102851169D01*
X153259201Y-102898741D01*
X153207048Y-102946286D01*
X153183511Y-102960859D01*
X153157904Y-102981875D01*
X153096965Y-103014447D01*
X153042232Y-103048337D01*
X153010726Y-103060542D01*
X152976200Y-103078997D01*
X152915773Y-103097327D01*
X152861474Y-103118363D01*
X152822268Y-103125691D01*
X152779040Y-103138805D01*
X152722136Y-103144409D01*
X152670923Y-103153983D01*
X152624938Y-103153983D01*
X152574000Y-103159000D01*
X152523062Y-103153983D01*
X152477077Y-103153983D01*
X152425863Y-103144409D01*
X152368960Y-103138805D01*
X152325732Y-103125692D01*
X152286525Y-103118363D01*
X152232221Y-103097325D01*
X152171800Y-103078997D01*
X152137275Y-103060543D01*
X152105767Y-103048337D01*
X152051027Y-103014443D01*
X151990096Y-102981875D01*
X151964491Y-102960861D01*
X151940951Y-102946286D01*
X151888788Y-102898733D01*
X151830831Y-102851169D01*
X151813656Y-102830242D01*
X151797698Y-102815694D01*
X151751367Y-102754342D01*
X151700125Y-102691904D01*
X151690216Y-102673366D01*
X151680877Y-102660999D01*
X151643717Y-102586372D01*
X151603003Y-102510200D01*
X151598660Y-102495884D01*
X151594471Y-102487471D01*
X151569721Y-102400485D01*
X151543195Y-102313040D01*
X151542323Y-102304192D01*
X151541422Y-102301024D01*
X151532044Y-102199833D01*
X151523000Y-102108000D01*
X151532044Y-102016173D01*
X151541422Y-101914975D01*
X151542323Y-101911805D01*
X151543195Y-101902960D01*
X151569716Y-101815529D01*
X151594471Y-101728528D01*
X151598661Y-101720112D01*
X151603003Y-101705800D01*
X151643710Y-101629641D01*
X151680877Y-101555000D01*
X151690218Y-101542629D01*
X151700125Y-101524096D01*
X151751357Y-101461668D01*
X151797698Y-101400305D01*
X151813660Y-101385753D01*
X151830831Y-101364831D01*
X151888777Y-101317275D01*
X151940951Y-101269713D01*
X151964496Y-101255134D01*
X151990096Y-101234125D01*
X152051015Y-101201563D01*
X152105767Y-101167662D01*
X152137282Y-101155452D01*
X152171800Y-101137003D01*
X152232209Y-101118677D01*
X152286525Y-101097636D01*
X152325739Y-101090305D01*
X152368960Y-101077195D01*
X152425860Y-101071590D01*
X152477077Y-101062017D01*
X152523062Y-101062017D01*
X152574000Y-101057000D01*
X152624938Y-101062017D01*
G37*
G36*
X158029199Y-100967662D02*
G01*
X158076954Y-100967662D01*
X158118194Y-100976427D01*
X158153901Y-100979945D01*
X158198759Y-100993552D01*
X158250973Y-101004651D01*
X158284384Y-101019526D01*
X158313435Y-101028339D01*
X158359602Y-101053015D01*
X158413500Y-101077012D01*
X158438554Y-101095215D01*
X158460453Y-101106920D01*
X158505128Y-101143584D01*
X158557430Y-101181584D01*
X158574411Y-101200443D01*
X158589320Y-101212679D01*
X158629387Y-101261501D01*
X158676473Y-101313795D01*
X158686364Y-101330927D01*
X158695079Y-101341546D01*
X158727306Y-101401840D01*
X158765427Y-101467867D01*
X158769813Y-101481368D01*
X158773660Y-101488564D01*
X158794861Y-101558455D01*
X158820404Y-101637067D01*
X158821303Y-101645623D01*
X158822054Y-101648098D01*
X158829371Y-101722389D01*
X158839000Y-101814000D01*
X158829370Y-101905619D01*
X158822054Y-101979901D01*
X158821303Y-101982375D01*
X158820404Y-101990933D01*
X158794856Y-102069558D01*
X158773660Y-102139435D01*
X158769814Y-102146629D01*
X158765427Y-102160133D01*
X158727299Y-102226172D01*
X158695079Y-102286453D01*
X158686366Y-102297069D01*
X158676473Y-102314205D01*
X158629378Y-102366509D01*
X158589320Y-102415320D01*
X158574414Y-102427552D01*
X158557430Y-102446416D01*
X158505118Y-102484423D01*
X158460453Y-102521079D01*
X158438559Y-102532780D01*
X158413500Y-102550988D01*
X158359591Y-102574989D01*
X158313435Y-102599660D01*
X158284391Y-102608470D01*
X158250973Y-102623349D01*
X158198748Y-102634449D01*
X158153901Y-102648054D01*
X158118203Y-102651570D01*
X158076954Y-102660338D01*
X158029188Y-102660338D01*
X157988000Y-102664395D01*
X157946811Y-102660338D01*
X157899046Y-102660338D01*
X157857797Y-102651570D01*
X157822098Y-102648054D01*
X157777248Y-102634448D01*
X157725027Y-102623349D01*
X157691610Y-102608471D01*
X157662564Y-102599660D01*
X157616402Y-102574986D01*
X157562500Y-102550988D01*
X157537443Y-102532783D01*
X157515546Y-102521079D01*
X157470873Y-102484416D01*
X157418570Y-102446416D01*
X157401588Y-102427555D01*
X157386679Y-102415320D01*
X157346610Y-102366496D01*
X157299527Y-102314205D01*
X157289636Y-102297073D01*
X157280920Y-102286453D01*
X157248687Y-102226148D01*
X157210573Y-102160133D01*
X157206186Y-102146634D01*
X157202339Y-102139435D01*
X157181128Y-102069512D01*
X157155596Y-101990933D01*
X157154697Y-101982380D01*
X157153945Y-101979901D01*
X157146613Y-101905467D01*
X157137000Y-101814000D01*
X157146612Y-101722540D01*
X157153945Y-101648098D01*
X157154697Y-101645618D01*
X157155596Y-101637067D01*
X157181123Y-101558502D01*
X157202339Y-101488564D01*
X157206187Y-101481363D01*
X157210573Y-101467867D01*
X157248680Y-101401863D01*
X157280920Y-101341546D01*
X157289638Y-101330923D01*
X157299527Y-101313795D01*
X157346601Y-101261513D01*
X157386679Y-101212679D01*
X157401591Y-101200440D01*
X157418570Y-101181584D01*
X157470862Y-101143591D01*
X157515546Y-101106920D01*
X157537448Y-101095213D01*
X157562500Y-101077012D01*
X157616391Y-101053018D01*
X157662564Y-101028339D01*
X157691617Y-101019525D01*
X157725027Y-101004651D01*
X157777237Y-100993553D01*
X157822098Y-100979945D01*
X157857806Y-100976427D01*
X157899046Y-100967662D01*
X157946801Y-100967662D01*
X157988000Y-100963604D01*
X158029199Y-100967662D01*
G37*
G36*
X158029199Y-98467662D02*
G01*
X158076954Y-98467662D01*
X158118194Y-98476427D01*
X158153901Y-98479945D01*
X158198759Y-98493552D01*
X158250973Y-98504651D01*
X158284384Y-98519526D01*
X158313435Y-98528339D01*
X158359602Y-98553015D01*
X158413500Y-98577012D01*
X158438554Y-98595215D01*
X158460453Y-98606920D01*
X158505128Y-98643584D01*
X158557430Y-98681584D01*
X158574411Y-98700443D01*
X158589320Y-98712679D01*
X158629387Y-98761501D01*
X158676473Y-98813795D01*
X158686364Y-98830927D01*
X158695079Y-98841546D01*
X158727306Y-98901840D01*
X158765427Y-98967867D01*
X158769813Y-98981368D01*
X158773660Y-98988564D01*
X158794861Y-99058455D01*
X158820404Y-99137067D01*
X158821303Y-99145623D01*
X158822054Y-99148098D01*
X158829371Y-99222389D01*
X158839000Y-99314000D01*
X158829370Y-99405619D01*
X158822054Y-99479901D01*
X158821303Y-99482375D01*
X158820404Y-99490933D01*
X158794856Y-99569558D01*
X158773660Y-99639435D01*
X158769814Y-99646629D01*
X158765427Y-99660133D01*
X158727299Y-99726172D01*
X158695079Y-99786453D01*
X158686366Y-99797069D01*
X158676473Y-99814205D01*
X158629378Y-99866509D01*
X158589320Y-99915320D01*
X158574414Y-99927552D01*
X158557430Y-99946416D01*
X158505118Y-99984423D01*
X158460453Y-100021079D01*
X158438559Y-100032780D01*
X158413500Y-100050988D01*
X158359591Y-100074989D01*
X158313435Y-100099660D01*
X158284391Y-100108470D01*
X158250973Y-100123349D01*
X158198748Y-100134449D01*
X158153901Y-100148054D01*
X158118203Y-100151570D01*
X158076954Y-100160338D01*
X158029188Y-100160338D01*
X157988000Y-100164395D01*
X157946811Y-100160338D01*
X157899046Y-100160338D01*
X157857797Y-100151570D01*
X157822098Y-100148054D01*
X157777248Y-100134448D01*
X157725027Y-100123349D01*
X157691610Y-100108471D01*
X157662564Y-100099660D01*
X157616402Y-100074986D01*
X157562500Y-100050988D01*
X157537443Y-100032783D01*
X157515546Y-100021079D01*
X157470873Y-99984416D01*
X157418570Y-99946416D01*
X157401588Y-99927555D01*
X157386679Y-99915320D01*
X157346610Y-99866496D01*
X157299527Y-99814205D01*
X157289636Y-99797073D01*
X157280920Y-99786453D01*
X157248687Y-99726148D01*
X157210573Y-99660133D01*
X157206186Y-99646634D01*
X157202339Y-99639435D01*
X157181128Y-99569512D01*
X157155596Y-99490933D01*
X157154697Y-99482380D01*
X157153945Y-99479901D01*
X157146613Y-99405467D01*
X157137000Y-99314000D01*
X157146612Y-99222540D01*
X157153945Y-99148098D01*
X157154697Y-99145618D01*
X157155596Y-99137067D01*
X157181123Y-99058502D01*
X157202339Y-98988564D01*
X157206187Y-98981363D01*
X157210573Y-98967867D01*
X157248680Y-98901863D01*
X157280920Y-98841546D01*
X157289638Y-98830923D01*
X157299527Y-98813795D01*
X157346601Y-98761513D01*
X157386679Y-98712679D01*
X157401591Y-98700440D01*
X157418570Y-98681584D01*
X157470862Y-98643591D01*
X157515546Y-98606920D01*
X157537448Y-98595213D01*
X157562500Y-98577012D01*
X157616391Y-98553018D01*
X157662564Y-98528339D01*
X157691617Y-98519525D01*
X157725027Y-98504651D01*
X157777237Y-98493553D01*
X157822098Y-98479945D01*
X157857806Y-98476427D01*
X157899046Y-98467662D01*
X157946801Y-98467662D01*
X157988000Y-98463604D01*
X158029199Y-98467662D01*
G37*
G36*
X102056604Y-98113590D02*
G01*
X102097696Y-98113590D01*
X102143456Y-98122144D01*
X102195531Y-98127273D01*
X102235091Y-98139273D01*
X102270111Y-98145820D01*
X102318617Y-98164611D01*
X102373932Y-98181391D01*
X102405534Y-98198282D01*
X102433656Y-98209177D01*
X102482513Y-98239428D01*
X102538347Y-98269272D01*
X102561809Y-98288526D01*
X102582784Y-98301514D01*
X102629256Y-98343879D01*
X102682459Y-98387541D01*
X102698224Y-98406751D01*
X102712400Y-98419674D01*
X102753557Y-98474174D01*
X102800728Y-98531653D01*
X102809848Y-98548717D01*
X102818099Y-98559642D01*
X102850925Y-98625566D01*
X102888609Y-98696068D01*
X102892628Y-98709316D01*
X102896282Y-98716655D01*
X102917864Y-98792507D01*
X102942727Y-98874469D01*
X102943543Y-98882762D01*
X102944280Y-98885350D01*
X102951926Y-98967867D01*
X102961000Y-99060000D01*
X102951936Y-99152026D01*
X102944280Y-99234649D01*
X102943544Y-99237235D01*
X102942727Y-99245531D01*
X102917859Y-99327507D01*
X102896282Y-99403344D01*
X102892628Y-99410680D01*
X102888609Y-99423932D01*
X102850917Y-99494447D01*
X102818099Y-99560357D01*
X102809850Y-99571279D01*
X102800728Y-99588347D01*
X102753547Y-99645836D01*
X102712400Y-99700325D01*
X102698227Y-99713244D01*
X102682459Y-99732459D01*
X102629245Y-99776129D01*
X102582784Y-99818485D01*
X102561814Y-99831469D01*
X102538347Y-99850728D01*
X102482502Y-99880577D01*
X102433656Y-99910822D01*
X102405541Y-99921713D01*
X102373932Y-99938609D01*
X102318605Y-99955392D01*
X102270111Y-99974179D01*
X102235098Y-99980724D01*
X102195531Y-99992727D01*
X102143453Y-99997856D01*
X102097696Y-100006410D01*
X102056604Y-100006410D01*
X102010000Y-100011000D01*
X101963396Y-100006410D01*
X101922304Y-100006410D01*
X101876545Y-99997856D01*
X101824469Y-99992727D01*
X101784902Y-99980724D01*
X101749888Y-99974179D01*
X101701389Y-99955390D01*
X101646068Y-99938609D01*
X101614461Y-99921714D01*
X101586343Y-99910822D01*
X101537490Y-99880573D01*
X101481653Y-99850728D01*
X101458188Y-99831471D01*
X101437215Y-99818485D01*
X101390744Y-99776121D01*
X101337541Y-99732459D01*
X101321775Y-99713248D01*
X101307599Y-99700325D01*
X101266439Y-99645821D01*
X101219272Y-99588347D01*
X101210151Y-99571284D01*
X101201900Y-99560357D01*
X101169067Y-99494420D01*
X101131391Y-99423932D01*
X101127372Y-99410685D01*
X101123717Y-99403344D01*
X101102124Y-99327454D01*
X101077273Y-99245531D01*
X101076456Y-99237241D01*
X101075719Y-99234649D01*
X101068046Y-99151854D01*
X101059000Y-99060000D01*
X101068045Y-98968153D01*
X101075719Y-98885350D01*
X101076456Y-98882757D01*
X101077273Y-98874469D01*
X101102119Y-98792560D01*
X101123717Y-98716655D01*
X101127373Y-98709311D01*
X101131391Y-98696068D01*
X101169060Y-98625593D01*
X101201900Y-98559642D01*
X101210153Y-98548712D01*
X101219272Y-98531653D01*
X101266430Y-98474190D01*
X101307599Y-98419674D01*
X101321778Y-98406747D01*
X101337541Y-98387541D01*
X101390733Y-98343887D01*
X101437215Y-98301514D01*
X101458193Y-98288524D01*
X101481653Y-98269272D01*
X101537478Y-98239432D01*
X101586343Y-98209177D01*
X101614467Y-98198281D01*
X101646068Y-98181391D01*
X101701377Y-98164612D01*
X101749888Y-98145820D01*
X101784909Y-98139273D01*
X101824469Y-98127273D01*
X101876542Y-98122144D01*
X101922304Y-98113590D01*
X101963396Y-98113590D01*
X102010000Y-98109000D01*
X102056604Y-98113590D01*
G37*
G36*
X105456604Y-98113590D02*
G01*
X105497696Y-98113590D01*
X105543456Y-98122144D01*
X105595531Y-98127273D01*
X105635091Y-98139273D01*
X105670111Y-98145820D01*
X105718617Y-98164611D01*
X105773932Y-98181391D01*
X105805534Y-98198282D01*
X105833656Y-98209177D01*
X105882513Y-98239428D01*
X105938347Y-98269272D01*
X105961809Y-98288526D01*
X105982784Y-98301514D01*
X106029256Y-98343879D01*
X106082459Y-98387541D01*
X106098224Y-98406751D01*
X106112400Y-98419674D01*
X106153557Y-98474174D01*
X106200728Y-98531653D01*
X106209848Y-98548717D01*
X106218099Y-98559642D01*
X106250925Y-98625566D01*
X106288609Y-98696068D01*
X106292628Y-98709316D01*
X106296282Y-98716655D01*
X106317864Y-98792507D01*
X106342727Y-98874469D01*
X106343543Y-98882762D01*
X106344280Y-98885350D01*
X106351926Y-98967867D01*
X106361000Y-99060000D01*
X106351936Y-99152026D01*
X106344280Y-99234649D01*
X106343544Y-99237235D01*
X106342727Y-99245531D01*
X106317859Y-99327507D01*
X106296282Y-99403344D01*
X106292628Y-99410680D01*
X106288609Y-99423932D01*
X106250917Y-99494447D01*
X106218099Y-99560357D01*
X106209850Y-99571279D01*
X106200728Y-99588347D01*
X106153547Y-99645836D01*
X106112400Y-99700325D01*
X106098227Y-99713244D01*
X106082459Y-99732459D01*
X106029245Y-99776129D01*
X105982784Y-99818485D01*
X105961814Y-99831469D01*
X105938347Y-99850728D01*
X105882502Y-99880577D01*
X105833656Y-99910822D01*
X105805541Y-99921713D01*
X105773932Y-99938609D01*
X105718605Y-99955392D01*
X105670111Y-99974179D01*
X105635098Y-99980724D01*
X105595531Y-99992727D01*
X105543453Y-99997856D01*
X105497696Y-100006410D01*
X105456604Y-100006410D01*
X105410000Y-100011000D01*
X105363396Y-100006410D01*
X105322304Y-100006410D01*
X105276545Y-99997856D01*
X105224469Y-99992727D01*
X105184902Y-99980724D01*
X105149888Y-99974179D01*
X105101389Y-99955390D01*
X105046068Y-99938609D01*
X105014461Y-99921714D01*
X104986343Y-99910822D01*
X104937490Y-99880573D01*
X104881653Y-99850728D01*
X104858188Y-99831471D01*
X104837215Y-99818485D01*
X104790744Y-99776121D01*
X104737541Y-99732459D01*
X104721775Y-99713248D01*
X104707599Y-99700325D01*
X104666439Y-99645821D01*
X104619272Y-99588347D01*
X104610151Y-99571284D01*
X104601900Y-99560357D01*
X104569067Y-99494420D01*
X104531391Y-99423932D01*
X104527372Y-99410685D01*
X104523717Y-99403344D01*
X104502124Y-99327454D01*
X104477273Y-99245531D01*
X104476456Y-99237241D01*
X104475719Y-99234649D01*
X104468046Y-99151854D01*
X104459000Y-99060000D01*
X104468045Y-98968153D01*
X104475719Y-98885350D01*
X104476456Y-98882757D01*
X104477273Y-98874469D01*
X104502119Y-98792560D01*
X104523717Y-98716655D01*
X104527373Y-98709311D01*
X104531391Y-98696068D01*
X104569060Y-98625593D01*
X104601900Y-98559642D01*
X104610153Y-98548712D01*
X104619272Y-98531653D01*
X104666430Y-98474190D01*
X104707599Y-98419674D01*
X104721778Y-98406747D01*
X104737541Y-98387541D01*
X104790733Y-98343887D01*
X104837215Y-98301514D01*
X104858193Y-98288524D01*
X104881653Y-98269272D01*
X104937478Y-98239432D01*
X104986343Y-98209177D01*
X105014467Y-98198281D01*
X105046068Y-98181391D01*
X105101377Y-98164612D01*
X105149888Y-98145820D01*
X105184909Y-98139273D01*
X105224469Y-98127273D01*
X105276542Y-98122144D01*
X105322304Y-98113590D01*
X105363396Y-98113590D01*
X105410000Y-98109000D01*
X105456604Y-98113590D01*
G37*
G36*
X109729517Y-98112882D02*
G01*
X109746062Y-98123938D01*
X109757118Y-98140483D01*
X109761000Y-98160000D01*
X109761000Y-99960000D01*
X109757118Y-99979517D01*
X109746062Y-99996062D01*
X109729517Y-100007118D01*
X109710000Y-100011000D01*
X107910000Y-100011000D01*
X107890483Y-100007118D01*
X107873938Y-99996062D01*
X107862882Y-99979517D01*
X107859000Y-99960000D01*
X107859000Y-98160000D01*
X107862882Y-98140483D01*
X107873938Y-98123938D01*
X107890483Y-98112882D01*
X107910000Y-98109000D01*
X109710000Y-98109000D01*
X109729517Y-98112882D01*
G37*
G36*
X132089425Y-94179841D02*
G01*
X132347487Y-94235979D01*
X132594933Y-94328271D01*
X132826726Y-94454840D01*
X133038147Y-94613108D01*
X133224892Y-94799853D01*
X133383160Y-95011274D01*
X133509729Y-95243067D01*
X133602021Y-95490513D01*
X133658159Y-95748575D01*
X133677000Y-96012000D01*
X133658159Y-96275425D01*
X133602021Y-96533487D01*
X133509729Y-96780933D01*
X133383160Y-97012726D01*
X133224892Y-97224147D01*
X133038147Y-97410892D01*
X132826726Y-97569160D01*
X132594933Y-97695729D01*
X132347487Y-97788021D01*
X132089425Y-97844159D01*
X131826000Y-97863000D01*
X131562575Y-97844159D01*
X131304513Y-97788021D01*
X131057067Y-97695729D01*
X130825274Y-97569160D01*
X130613853Y-97410892D01*
X130427108Y-97224147D01*
X130268840Y-97012726D01*
X130142271Y-96780933D01*
X130049979Y-96533487D01*
X129993841Y-96275425D01*
X129975000Y-96012000D01*
X129993841Y-95748575D01*
X130049979Y-95490513D01*
X130142271Y-95243067D01*
X130268840Y-95011274D01*
X130427108Y-94799853D01*
X130613853Y-94613108D01*
X130825274Y-94454840D01*
X131057067Y-94328271D01*
X131304513Y-94235979D01*
X131562575Y-94179841D01*
X131826000Y-94161000D01*
X132089425Y-94179841D01*
G37*
G36*
X157791517Y-92878882D02*
G01*
X157808062Y-92889938D01*
X157819118Y-92906483D01*
X157823000Y-92926000D01*
X157823000Y-94526000D01*
X157819118Y-94545517D01*
X157808062Y-94562062D01*
X157791517Y-94573118D01*
X157772000Y-94577000D01*
X156172000Y-94577000D01*
X156152483Y-94573118D01*
X156135938Y-94562062D01*
X156124882Y-94545517D01*
X156121000Y-94526000D01*
X156121000Y-92926000D01*
X156124882Y-92906483D01*
X156135938Y-92889938D01*
X156152483Y-92878882D01*
X156172000Y-92875000D01*
X157772000Y-92875000D01*
X157791517Y-92878882D01*
G37*
G36*
X153513199Y-92879662D02*
G01*
X153560954Y-92879662D01*
X153602194Y-92888427D01*
X153637901Y-92891945D01*
X153682759Y-92905552D01*
X153734973Y-92916651D01*
X153768384Y-92931526D01*
X153797435Y-92940339D01*
X153843602Y-92965015D01*
X153897500Y-92989012D01*
X153922554Y-93007215D01*
X153944453Y-93018920D01*
X153989128Y-93055584D01*
X154041430Y-93093584D01*
X154058411Y-93112443D01*
X154073320Y-93124679D01*
X154113387Y-93173501D01*
X154160473Y-93225795D01*
X154170364Y-93242927D01*
X154179079Y-93253546D01*
X154211306Y-93313840D01*
X154249427Y-93379867D01*
X154253813Y-93393368D01*
X154257660Y-93400564D01*
X154278861Y-93470455D01*
X154304404Y-93549067D01*
X154305303Y-93557623D01*
X154306054Y-93560098D01*
X154313371Y-93634389D01*
X154323000Y-93726000D01*
X154313370Y-93817619D01*
X154306054Y-93891901D01*
X154305303Y-93894375D01*
X154304404Y-93902933D01*
X154278856Y-93981558D01*
X154257660Y-94051435D01*
X154253814Y-94058629D01*
X154249427Y-94072133D01*
X154211299Y-94138172D01*
X154179079Y-94198453D01*
X154170366Y-94209069D01*
X154160473Y-94226205D01*
X154113378Y-94278509D01*
X154073320Y-94327320D01*
X154058414Y-94339552D01*
X154041430Y-94358416D01*
X153989118Y-94396423D01*
X153944453Y-94433079D01*
X153922559Y-94444780D01*
X153897500Y-94462988D01*
X153843591Y-94486989D01*
X153797435Y-94511660D01*
X153768391Y-94520470D01*
X153734973Y-94535349D01*
X153682748Y-94546449D01*
X153637901Y-94560054D01*
X153602203Y-94563570D01*
X153560954Y-94572338D01*
X153513188Y-94572338D01*
X153472000Y-94576395D01*
X153430811Y-94572338D01*
X153383046Y-94572338D01*
X153341797Y-94563570D01*
X153306098Y-94560054D01*
X153261248Y-94546448D01*
X153209027Y-94535349D01*
X153175610Y-94520471D01*
X153146564Y-94511660D01*
X153100402Y-94486986D01*
X153046500Y-94462988D01*
X153021443Y-94444783D01*
X152999546Y-94433079D01*
X152954873Y-94396416D01*
X152902570Y-94358416D01*
X152885588Y-94339555D01*
X152870679Y-94327320D01*
X152830610Y-94278496D01*
X152783527Y-94226205D01*
X152773636Y-94209073D01*
X152764920Y-94198453D01*
X152732687Y-94138148D01*
X152694573Y-94072133D01*
X152690186Y-94058634D01*
X152686339Y-94051435D01*
X152665128Y-93981512D01*
X152639596Y-93902933D01*
X152638697Y-93894380D01*
X152637945Y-93891901D01*
X152630613Y-93817467D01*
X152621000Y-93726000D01*
X152630612Y-93634540D01*
X152637945Y-93560098D01*
X152638697Y-93557618D01*
X152639596Y-93549067D01*
X152665123Y-93470502D01*
X152686339Y-93400564D01*
X152690187Y-93393363D01*
X152694573Y-93379867D01*
X152732680Y-93313863D01*
X152764920Y-93253546D01*
X152773638Y-93242923D01*
X152783527Y-93225795D01*
X152830601Y-93173513D01*
X152870679Y-93124679D01*
X152885591Y-93112440D01*
X152902570Y-93093584D01*
X152954862Y-93055591D01*
X152999546Y-93018920D01*
X153021448Y-93007213D01*
X153046500Y-92989012D01*
X153100391Y-92965018D01*
X153146564Y-92940339D01*
X153175617Y-92931525D01*
X153209027Y-92916651D01*
X153261237Y-92905553D01*
X153306098Y-92891945D01*
X153341806Y-92888427D01*
X153383046Y-92879662D01*
X153430801Y-92879662D01*
X153472000Y-92875604D01*
X153513199Y-92879662D01*
G37*
G36*
X101681810Y-91859000D02*
G01*
X101729444Y-91859000D01*
X101770578Y-91867743D01*
X101806822Y-91871313D01*
X101852354Y-91885125D01*
X101904422Y-91896192D01*
X101937738Y-91911025D01*
X101967242Y-91919975D01*
X102014128Y-91945036D01*
X102067844Y-91968952D01*
X102092818Y-91987097D01*
X102115076Y-91998994D01*
X102160476Y-92036253D01*
X102212567Y-92074100D01*
X102229482Y-92092886D01*
X102244658Y-92105341D01*
X102285443Y-92155037D01*
X102332266Y-92207039D01*
X102342100Y-92224073D01*
X102351005Y-92234923D01*
X102383944Y-92296549D01*
X102421710Y-92361960D01*
X102426054Y-92375329D01*
X102430024Y-92382757D01*
X102451908Y-92454901D01*
X102476989Y-92532092D01*
X102477872Y-92540493D01*
X102478686Y-92543177D01*
X102486610Y-92623632D01*
X102495688Y-92710000D01*
X102486609Y-92796375D01*
X102478686Y-92876822D01*
X102477872Y-92879504D01*
X102476989Y-92887908D01*
X102451903Y-92965112D01*
X102430024Y-93037242D01*
X102426054Y-93044667D01*
X102421710Y-93058040D01*
X102383937Y-93123463D01*
X102351005Y-93185076D01*
X102342102Y-93195923D01*
X102332266Y-93212961D01*
X102285434Y-93264972D01*
X102244658Y-93314658D01*
X102229486Y-93327109D01*
X102212567Y-93345900D01*
X102160465Y-93383754D01*
X102115076Y-93421005D01*
X102092823Y-93432899D01*
X102067844Y-93451048D01*
X102014117Y-93474968D01*
X101967242Y-93500024D01*
X101937745Y-93508971D01*
X101904422Y-93523808D01*
X101852343Y-93534877D01*
X101806822Y-93548686D01*
X101770587Y-93552254D01*
X101729444Y-93561000D01*
X101681799Y-93561000D01*
X101640000Y-93565117D01*
X101598200Y-93561000D01*
X101550556Y-93561000D01*
X101509413Y-93552255D01*
X101473177Y-93548686D01*
X101427652Y-93534876D01*
X101375578Y-93523808D01*
X101342256Y-93508972D01*
X101312757Y-93500024D01*
X101265876Y-93474965D01*
X101212156Y-93451048D01*
X101187179Y-93432901D01*
X101164923Y-93421005D01*
X101119525Y-93383747D01*
X101067433Y-93345900D01*
X101050516Y-93327112D01*
X101035341Y-93314658D01*
X100994554Y-93264960D01*
X100947734Y-93212961D01*
X100937899Y-93195927D01*
X100928994Y-93185076D01*
X100896048Y-93123439D01*
X100858290Y-93058040D01*
X100853946Y-93044672D01*
X100849975Y-93037242D01*
X100828081Y-92965065D01*
X100803011Y-92887908D01*
X100802128Y-92879509D01*
X100801313Y-92876822D01*
X100793374Y-92796224D01*
X100784312Y-92710000D01*
X100793373Y-92623783D01*
X100801313Y-92543177D01*
X100802128Y-92540488D01*
X100803011Y-92532092D01*
X100828076Y-92454948D01*
X100849975Y-92382757D01*
X100853947Y-92375325D01*
X100858290Y-92361960D01*
X100896041Y-92296572D01*
X100928994Y-92234923D01*
X100937901Y-92224069D01*
X100947734Y-92207039D01*
X100994545Y-92155049D01*
X101035341Y-92105341D01*
X101050520Y-92092883D01*
X101067433Y-92074100D01*
X101119515Y-92036259D01*
X101164923Y-91998994D01*
X101187184Y-91987094D01*
X101212156Y-91968952D01*
X101265865Y-91945038D01*
X101312757Y-91919975D01*
X101342264Y-91911024D01*
X101375578Y-91896192D01*
X101427641Y-91885125D01*
X101473177Y-91871313D01*
X101509422Y-91867743D01*
X101550556Y-91859000D01*
X101598190Y-91859000D01*
X101640000Y-91854882D01*
X101681810Y-91859000D01*
G37*
G36*
X104181810Y-91859000D02*
G01*
X104229444Y-91859000D01*
X104270578Y-91867743D01*
X104306822Y-91871313D01*
X104352354Y-91885125D01*
X104404422Y-91896192D01*
X104437738Y-91911025D01*
X104467242Y-91919975D01*
X104514128Y-91945036D01*
X104567844Y-91968952D01*
X104592818Y-91987097D01*
X104615076Y-91998994D01*
X104660476Y-92036253D01*
X104712567Y-92074100D01*
X104729482Y-92092886D01*
X104744658Y-92105341D01*
X104785443Y-92155037D01*
X104832266Y-92207039D01*
X104842100Y-92224073D01*
X104851005Y-92234923D01*
X104883944Y-92296549D01*
X104921710Y-92361960D01*
X104926054Y-92375329D01*
X104930024Y-92382757D01*
X104951908Y-92454901D01*
X104976989Y-92532092D01*
X104977872Y-92540493D01*
X104978686Y-92543177D01*
X104986610Y-92623632D01*
X104995688Y-92710000D01*
X104986609Y-92796375D01*
X104978686Y-92876822D01*
X104977872Y-92879504D01*
X104976989Y-92887908D01*
X104951903Y-92965112D01*
X104930024Y-93037242D01*
X104926054Y-93044667D01*
X104921710Y-93058040D01*
X104883937Y-93123463D01*
X104851005Y-93185076D01*
X104842102Y-93195923D01*
X104832266Y-93212961D01*
X104785434Y-93264972D01*
X104744658Y-93314658D01*
X104729486Y-93327109D01*
X104712567Y-93345900D01*
X104660465Y-93383754D01*
X104615076Y-93421005D01*
X104592823Y-93432899D01*
X104567844Y-93451048D01*
X104514117Y-93474968D01*
X104467242Y-93500024D01*
X104437745Y-93508971D01*
X104404422Y-93523808D01*
X104352343Y-93534877D01*
X104306822Y-93548686D01*
X104270587Y-93552254D01*
X104229444Y-93561000D01*
X104181799Y-93561000D01*
X104140000Y-93565117D01*
X104098200Y-93561000D01*
X104050556Y-93561000D01*
X104009413Y-93552255D01*
X103973177Y-93548686D01*
X103927652Y-93534876D01*
X103875578Y-93523808D01*
X103842256Y-93508972D01*
X103812757Y-93500024D01*
X103765876Y-93474965D01*
X103712156Y-93451048D01*
X103687179Y-93432901D01*
X103664923Y-93421005D01*
X103619525Y-93383747D01*
X103567433Y-93345900D01*
X103550516Y-93327112D01*
X103535341Y-93314658D01*
X103494554Y-93264960D01*
X103447734Y-93212961D01*
X103437899Y-93195927D01*
X103428994Y-93185076D01*
X103396048Y-93123439D01*
X103358290Y-93058040D01*
X103353946Y-93044672D01*
X103349975Y-93037242D01*
X103328081Y-92965065D01*
X103303011Y-92887908D01*
X103302128Y-92879509D01*
X103301313Y-92876822D01*
X103293374Y-92796224D01*
X103284312Y-92710000D01*
X103293373Y-92623783D01*
X103301313Y-92543177D01*
X103302128Y-92540488D01*
X103303011Y-92532092D01*
X103328076Y-92454948D01*
X103349975Y-92382757D01*
X103353947Y-92375325D01*
X103358290Y-92361960D01*
X103396041Y-92296572D01*
X103428994Y-92234923D01*
X103437901Y-92224069D01*
X103447734Y-92207039D01*
X103494545Y-92155049D01*
X103535341Y-92105341D01*
X103550520Y-92092883D01*
X103567433Y-92074100D01*
X103619515Y-92036259D01*
X103664923Y-91998994D01*
X103687184Y-91987094D01*
X103712156Y-91968952D01*
X103765865Y-91945038D01*
X103812757Y-91919975D01*
X103842264Y-91911024D01*
X103875578Y-91896192D01*
X103927641Y-91885125D01*
X103973177Y-91871313D01*
X104009422Y-91867743D01*
X104050556Y-91859000D01*
X104098190Y-91859000D01*
X104140000Y-91854882D01*
X104181810Y-91859000D01*
G37*
G36*
X137495199Y-89831662D02*
G01*
X137542954Y-89831662D01*
X137584194Y-89840427D01*
X137619901Y-89843945D01*
X137664759Y-89857552D01*
X137716973Y-89868651D01*
X137750384Y-89883526D01*
X137779435Y-89892339D01*
X137825602Y-89917015D01*
X137879500Y-89941012D01*
X137904554Y-89959215D01*
X137926453Y-89970920D01*
X137971128Y-90007584D01*
X138023430Y-90045584D01*
X138040411Y-90064443D01*
X138055320Y-90076679D01*
X138095387Y-90125501D01*
X138142473Y-90177795D01*
X138152364Y-90194927D01*
X138161079Y-90205546D01*
X138193306Y-90265840D01*
X138231427Y-90331867D01*
X138235813Y-90345368D01*
X138239660Y-90352564D01*
X138260861Y-90422455D01*
X138286404Y-90501067D01*
X138287303Y-90509623D01*
X138288054Y-90512098D01*
X138295371Y-90586389D01*
X138305000Y-90678000D01*
X138295370Y-90769619D01*
X138288054Y-90843901D01*
X138287303Y-90846375D01*
X138286404Y-90854933D01*
X138260856Y-90933558D01*
X138239660Y-91003435D01*
X138235814Y-91010629D01*
X138231427Y-91024133D01*
X138193299Y-91090172D01*
X138161079Y-91150453D01*
X138152366Y-91161069D01*
X138142473Y-91178205D01*
X138095378Y-91230509D01*
X138055320Y-91279320D01*
X138040414Y-91291552D01*
X138023430Y-91310416D01*
X137971118Y-91348423D01*
X137926453Y-91385079D01*
X137904559Y-91396780D01*
X137879500Y-91414988D01*
X137825591Y-91438989D01*
X137779435Y-91463660D01*
X137750391Y-91472470D01*
X137716973Y-91487349D01*
X137664748Y-91498449D01*
X137619901Y-91512054D01*
X137584203Y-91515570D01*
X137542954Y-91524338D01*
X137495188Y-91524338D01*
X137454000Y-91528395D01*
X137412811Y-91524338D01*
X137365046Y-91524338D01*
X137323797Y-91515570D01*
X137288098Y-91512054D01*
X137243248Y-91498448D01*
X137191027Y-91487349D01*
X137157610Y-91472471D01*
X137128564Y-91463660D01*
X137082402Y-91438986D01*
X137028500Y-91414988D01*
X137003443Y-91396783D01*
X136981546Y-91385079D01*
X136936873Y-91348416D01*
X136884570Y-91310416D01*
X136867588Y-91291555D01*
X136852679Y-91279320D01*
X136812610Y-91230496D01*
X136765527Y-91178205D01*
X136755636Y-91161073D01*
X136746920Y-91150453D01*
X136714687Y-91090148D01*
X136676573Y-91024133D01*
X136672186Y-91010634D01*
X136668339Y-91003435D01*
X136647128Y-90933512D01*
X136621596Y-90854933D01*
X136620697Y-90846380D01*
X136619945Y-90843901D01*
X136612613Y-90769467D01*
X136603000Y-90678000D01*
X136612612Y-90586540D01*
X136619945Y-90512098D01*
X136620697Y-90509618D01*
X136621596Y-90501067D01*
X136647123Y-90422502D01*
X136668339Y-90352564D01*
X136672187Y-90345363D01*
X136676573Y-90331867D01*
X136714680Y-90265863D01*
X136746920Y-90205546D01*
X136755638Y-90194923D01*
X136765527Y-90177795D01*
X136812601Y-90125513D01*
X136852679Y-90076679D01*
X136867591Y-90064440D01*
X136884570Y-90045584D01*
X136936862Y-90007591D01*
X136981546Y-89970920D01*
X137003448Y-89959213D01*
X137028500Y-89941012D01*
X137082391Y-89917018D01*
X137128564Y-89892339D01*
X137157617Y-89883525D01*
X137191027Y-89868651D01*
X137243237Y-89857553D01*
X137288098Y-89843945D01*
X137323806Y-89840427D01*
X137365046Y-89831662D01*
X137412801Y-89831662D01*
X137454000Y-89827604D01*
X137495199Y-89831662D01*
G37*
G36*
X139995199Y-89831662D02*
G01*
X140042954Y-89831662D01*
X140084194Y-89840427D01*
X140119901Y-89843945D01*
X140164759Y-89857552D01*
X140216973Y-89868651D01*
X140250384Y-89883526D01*
X140279435Y-89892339D01*
X140325602Y-89917015D01*
X140379500Y-89941012D01*
X140404554Y-89959215D01*
X140426453Y-89970920D01*
X140471128Y-90007584D01*
X140523430Y-90045584D01*
X140540411Y-90064443D01*
X140555320Y-90076679D01*
X140595387Y-90125501D01*
X140642473Y-90177795D01*
X140652364Y-90194927D01*
X140661079Y-90205546D01*
X140693306Y-90265840D01*
X140731427Y-90331867D01*
X140735813Y-90345368D01*
X140739660Y-90352564D01*
X140760861Y-90422455D01*
X140786404Y-90501067D01*
X140787303Y-90509623D01*
X140788054Y-90512098D01*
X140795371Y-90586389D01*
X140805000Y-90678000D01*
X140795370Y-90769619D01*
X140788054Y-90843901D01*
X140787303Y-90846375D01*
X140786404Y-90854933D01*
X140760856Y-90933558D01*
X140739660Y-91003435D01*
X140735814Y-91010629D01*
X140731427Y-91024133D01*
X140693299Y-91090172D01*
X140661079Y-91150453D01*
X140652366Y-91161069D01*
X140642473Y-91178205D01*
X140595378Y-91230509D01*
X140555320Y-91279320D01*
X140540414Y-91291552D01*
X140523430Y-91310416D01*
X140471118Y-91348423D01*
X140426453Y-91385079D01*
X140404559Y-91396780D01*
X140379500Y-91414988D01*
X140325591Y-91438989D01*
X140279435Y-91463660D01*
X140250391Y-91472470D01*
X140216973Y-91487349D01*
X140164748Y-91498449D01*
X140119901Y-91512054D01*
X140084203Y-91515570D01*
X140042954Y-91524338D01*
X139995188Y-91524338D01*
X139954000Y-91528395D01*
X139912811Y-91524338D01*
X139865046Y-91524338D01*
X139823797Y-91515570D01*
X139788098Y-91512054D01*
X139743248Y-91498448D01*
X139691027Y-91487349D01*
X139657610Y-91472471D01*
X139628564Y-91463660D01*
X139582402Y-91438986D01*
X139528500Y-91414988D01*
X139503443Y-91396783D01*
X139481546Y-91385079D01*
X139436873Y-91348416D01*
X139384570Y-91310416D01*
X139367588Y-91291555D01*
X139352679Y-91279320D01*
X139312610Y-91230496D01*
X139265527Y-91178205D01*
X139255636Y-91161073D01*
X139246920Y-91150453D01*
X139214687Y-91090148D01*
X139176573Y-91024133D01*
X139172186Y-91010634D01*
X139168339Y-91003435D01*
X139147128Y-90933512D01*
X139121596Y-90854933D01*
X139120697Y-90846380D01*
X139119945Y-90843901D01*
X139112613Y-90769467D01*
X139103000Y-90678000D01*
X139112612Y-90586540D01*
X139119945Y-90512098D01*
X139120697Y-90509618D01*
X139121596Y-90501067D01*
X139147123Y-90422502D01*
X139168339Y-90352564D01*
X139172187Y-90345363D01*
X139176573Y-90331867D01*
X139214680Y-90265863D01*
X139246920Y-90205546D01*
X139255638Y-90194923D01*
X139265527Y-90177795D01*
X139312601Y-90125513D01*
X139352679Y-90076679D01*
X139367591Y-90064440D01*
X139384570Y-90045584D01*
X139436862Y-90007591D01*
X139481546Y-89970920D01*
X139503448Y-89959213D01*
X139528500Y-89941012D01*
X139582391Y-89917018D01*
X139628564Y-89892339D01*
X139657617Y-89883525D01*
X139691027Y-89868651D01*
X139743237Y-89857553D01*
X139788098Y-89843945D01*
X139823806Y-89840427D01*
X139865046Y-89831662D01*
X139912801Y-89831662D01*
X139954000Y-89827604D01*
X139995199Y-89831662D01*
G37*
G36*
X94043098Y-87253966D02*
G01*
X94103353Y-87253966D01*
X94169199Y-87263890D01*
X94238273Y-87269327D01*
X94293947Y-87282693D01*
X94347302Y-87290735D01*
X94417021Y-87312240D01*
X94490187Y-87329806D01*
X94537495Y-87349401D01*
X94583052Y-87363454D01*
X94654569Y-87397895D01*
X94729538Y-87428948D01*
X94768022Y-87452531D01*
X94805322Y-87470494D01*
X94876271Y-87518866D01*
X94950433Y-87564313D01*
X94980127Y-87589674D01*
X95009162Y-87609470D01*
X95076956Y-87672374D01*
X95147433Y-87732567D01*
X95168834Y-87757625D01*
X95190011Y-87777274D01*
X95251925Y-87854911D01*
X95315687Y-87929567D01*
X95329709Y-87952449D01*
X95343830Y-87970156D01*
X95397087Y-88062399D01*
X95451052Y-88150462D01*
X95458977Y-88169597D01*
X95467185Y-88183812D01*
X95509038Y-88290454D01*
X95550194Y-88389813D01*
X95553597Y-88403991D01*
X95557314Y-88413460D01*
X95585157Y-88535446D01*
X95610673Y-88641727D01*
X95611334Y-88650133D01*
X95612214Y-88653986D01*
X95623683Y-88807031D01*
X95631000Y-88900000D01*
X95623682Y-88992975D01*
X95612214Y-89146013D01*
X95611334Y-89149865D01*
X95610673Y-89158273D01*
X95585152Y-89264573D01*
X95557314Y-89386539D01*
X95553598Y-89396005D01*
X95550194Y-89410187D01*
X95509031Y-89509563D01*
X95467185Y-89616187D01*
X95458979Y-89630399D01*
X95451052Y-89649538D01*
X95397077Y-89737616D01*
X95343830Y-89829843D01*
X95329712Y-89847546D01*
X95315687Y-89870433D01*
X95251913Y-89945102D01*
X95190011Y-90022725D01*
X95168838Y-90042369D01*
X95147433Y-90067433D01*
X95076942Y-90127637D01*
X95009162Y-90190529D01*
X94980133Y-90210320D01*
X94950433Y-90235687D01*
X94876257Y-90281142D01*
X94805322Y-90329505D01*
X94768030Y-90347463D01*
X94729538Y-90371052D01*
X94654554Y-90402110D01*
X94583052Y-90436545D01*
X94537504Y-90450594D01*
X94490187Y-90470194D01*
X94417007Y-90487762D01*
X94347302Y-90509264D01*
X94293955Y-90517304D01*
X94238273Y-90530673D01*
X94169195Y-90536109D01*
X94103353Y-90546034D01*
X94043098Y-90546034D01*
X93980000Y-90551000D01*
X93916902Y-90546034D01*
X93856647Y-90546034D01*
X93790803Y-90536109D01*
X93721727Y-90530673D01*
X93666045Y-90517305D01*
X93612697Y-90509264D01*
X93542988Y-90487761D01*
X93469813Y-90470194D01*
X93422498Y-90450595D01*
X93376947Y-90436545D01*
X93305438Y-90402107D01*
X93230462Y-90371052D01*
X93191972Y-90347465D01*
X93154675Y-90329504D01*
X93083726Y-90281131D01*
X93009567Y-90235687D01*
X92979873Y-90210326D01*
X92950839Y-90190531D01*
X92883043Y-90127625D01*
X92812567Y-90067433D01*
X92791164Y-90042374D01*
X92769988Y-90022725D01*
X92708071Y-89945084D01*
X92644313Y-89870433D01*
X92630291Y-89847551D01*
X92616169Y-89829843D01*
X92562905Y-89737588D01*
X92508948Y-89649538D01*
X92501023Y-89630405D01*
X92492814Y-89616187D01*
X92450949Y-89509517D01*
X92409806Y-89410187D01*
X92406402Y-89396012D01*
X92402685Y-89386539D01*
X92374827Y-89264488D01*
X92349327Y-89158273D01*
X92348665Y-89149871D01*
X92347785Y-89146013D01*
X92336296Y-88992710D01*
X92329000Y-88900000D01*
X92336296Y-88807297D01*
X92347785Y-88653986D01*
X92348665Y-88650126D01*
X92349327Y-88641727D01*
X92374822Y-88535530D01*
X92402685Y-88413460D01*
X92406403Y-88403984D01*
X92409806Y-88389813D01*
X92450942Y-88290500D01*
X92492814Y-88183812D01*
X92501024Y-88169590D01*
X92508948Y-88150462D01*
X92562895Y-88062427D01*
X92616169Y-87970156D01*
X92630293Y-87952443D01*
X92644313Y-87929567D01*
X92708059Y-87854929D01*
X92769988Y-87777274D01*
X92791169Y-87757620D01*
X92812567Y-87732567D01*
X92883029Y-87672386D01*
X92950839Y-87609468D01*
X92979879Y-87589668D01*
X93009567Y-87564313D01*
X93083711Y-87518876D01*
X93154675Y-87470495D01*
X93191980Y-87452529D01*
X93230462Y-87428948D01*
X93305423Y-87397898D01*
X93376947Y-87363454D01*
X93422507Y-87349400D01*
X93469813Y-87329806D01*
X93542973Y-87312241D01*
X93612697Y-87290735D01*
X93666054Y-87282692D01*
X93721727Y-87269327D01*
X93790799Y-87263890D01*
X93856647Y-87253966D01*
X93916902Y-87253966D01*
X93980000Y-87249000D01*
X94043098Y-87253966D01*
G37*
G36*
X99758098Y-87253966D02*
G01*
X99818353Y-87253966D01*
X99884199Y-87263890D01*
X99953273Y-87269327D01*
X100008947Y-87282693D01*
X100062302Y-87290735D01*
X100132021Y-87312240D01*
X100205187Y-87329806D01*
X100252495Y-87349401D01*
X100298052Y-87363454D01*
X100369569Y-87397895D01*
X100444538Y-87428948D01*
X100483022Y-87452531D01*
X100520322Y-87470494D01*
X100591271Y-87518866D01*
X100665433Y-87564313D01*
X100695127Y-87589674D01*
X100724162Y-87609470D01*
X100791956Y-87672374D01*
X100862433Y-87732567D01*
X100883834Y-87757625D01*
X100905011Y-87777274D01*
X100966925Y-87854911D01*
X101030687Y-87929567D01*
X101044709Y-87952449D01*
X101058830Y-87970156D01*
X101112087Y-88062399D01*
X101166052Y-88150462D01*
X101173977Y-88169597D01*
X101182185Y-88183812D01*
X101224038Y-88290454D01*
X101265194Y-88389813D01*
X101268597Y-88403991D01*
X101272314Y-88413460D01*
X101300157Y-88535446D01*
X101325673Y-88641727D01*
X101326334Y-88650133D01*
X101327214Y-88653986D01*
X101338683Y-88807031D01*
X101346000Y-88900000D01*
X101338682Y-88992975D01*
X101327214Y-89146013D01*
X101326334Y-89149865D01*
X101325673Y-89158273D01*
X101300152Y-89264573D01*
X101272314Y-89386539D01*
X101268598Y-89396005D01*
X101265194Y-89410187D01*
X101224031Y-89509563D01*
X101182185Y-89616187D01*
X101173979Y-89630399D01*
X101166052Y-89649538D01*
X101112077Y-89737616D01*
X101058830Y-89829843D01*
X101044712Y-89847546D01*
X101030687Y-89870433D01*
X100966913Y-89945102D01*
X100905011Y-90022725D01*
X100883838Y-90042369D01*
X100862433Y-90067433D01*
X100791942Y-90127637D01*
X100724162Y-90190529D01*
X100695133Y-90210320D01*
X100665433Y-90235687D01*
X100591257Y-90281142D01*
X100520322Y-90329505D01*
X100483030Y-90347463D01*
X100444538Y-90371052D01*
X100369554Y-90402110D01*
X100298052Y-90436545D01*
X100252504Y-90450594D01*
X100205187Y-90470194D01*
X100132007Y-90487762D01*
X100062302Y-90509264D01*
X100008955Y-90517304D01*
X99953273Y-90530673D01*
X99884195Y-90536109D01*
X99818353Y-90546034D01*
X99758098Y-90546034D01*
X99695000Y-90551000D01*
X99631902Y-90546034D01*
X99571647Y-90546034D01*
X99505803Y-90536109D01*
X99436727Y-90530673D01*
X99381045Y-90517305D01*
X99327697Y-90509264D01*
X99257988Y-90487761D01*
X99184813Y-90470194D01*
X99137498Y-90450595D01*
X99091947Y-90436545D01*
X99020438Y-90402107D01*
X98945462Y-90371052D01*
X98906972Y-90347465D01*
X98869675Y-90329504D01*
X98798726Y-90281131D01*
X98724567Y-90235687D01*
X98694873Y-90210326D01*
X98665839Y-90190531D01*
X98598043Y-90127625D01*
X98527567Y-90067433D01*
X98506164Y-90042374D01*
X98484988Y-90022725D01*
X98423071Y-89945084D01*
X98359313Y-89870433D01*
X98345291Y-89847551D01*
X98331169Y-89829843D01*
X98277905Y-89737588D01*
X98223948Y-89649538D01*
X98216023Y-89630405D01*
X98207814Y-89616187D01*
X98165949Y-89509517D01*
X98124806Y-89410187D01*
X98121402Y-89396012D01*
X98117685Y-89386539D01*
X98089827Y-89264488D01*
X98064327Y-89158273D01*
X98063665Y-89149871D01*
X98062785Y-89146013D01*
X98051296Y-88992710D01*
X98044000Y-88900000D01*
X98051296Y-88807297D01*
X98062785Y-88653986D01*
X98063665Y-88650126D01*
X98064327Y-88641727D01*
X98089822Y-88535530D01*
X98117685Y-88413460D01*
X98121403Y-88403984D01*
X98124806Y-88389813D01*
X98165942Y-88290500D01*
X98207814Y-88183812D01*
X98216024Y-88169590D01*
X98223948Y-88150462D01*
X98277895Y-88062427D01*
X98331169Y-87970156D01*
X98345293Y-87952443D01*
X98359313Y-87929567D01*
X98423059Y-87854929D01*
X98484988Y-87777274D01*
X98506169Y-87757620D01*
X98527567Y-87732567D01*
X98598029Y-87672386D01*
X98665839Y-87609468D01*
X98694879Y-87589668D01*
X98724567Y-87564313D01*
X98798711Y-87518876D01*
X98869675Y-87470495D01*
X98906980Y-87452529D01*
X98945462Y-87428948D01*
X99020423Y-87397898D01*
X99091947Y-87363454D01*
X99137507Y-87349400D01*
X99184813Y-87329806D01*
X99257973Y-87312241D01*
X99327697Y-87290735D01*
X99381054Y-87282692D01*
X99436727Y-87269327D01*
X99505799Y-87263890D01*
X99571647Y-87253966D01*
X99631902Y-87253966D01*
X99695000Y-87249000D01*
X99758098Y-87253966D01*
G37*
G36*
X107029517Y-87252882D02*
G01*
X107046062Y-87263938D01*
X107057118Y-87280483D01*
X107061000Y-87300000D01*
X107061000Y-90500000D01*
X107057118Y-90519517D01*
X107046062Y-90536062D01*
X107029517Y-90547118D01*
X107010000Y-90551000D01*
X103810000Y-90551000D01*
X103790483Y-90547118D01*
X103773938Y-90536062D01*
X103762882Y-90519517D01*
X103759000Y-90500000D01*
X103759000Y-87300000D01*
X103762882Y-87280483D01*
X103773938Y-87263938D01*
X103790483Y-87252882D01*
X103810000Y-87249000D01*
X107010000Y-87249000D01*
X107029517Y-87252882D01*
G37*
G36*
X112744517Y-87252882D02*
G01*
X112761062Y-87263938D01*
X112772118Y-87280483D01*
X112776000Y-87300000D01*
X112776000Y-90500000D01*
X112772118Y-90519517D01*
X112761062Y-90536062D01*
X112744517Y-90547118D01*
X112725000Y-90551000D01*
X109525000Y-90551000D01*
X109505483Y-90547118D01*
X109488938Y-90536062D01*
X109477882Y-90519517D01*
X109474000Y-90500000D01*
X109474000Y-87300000D01*
X109477882Y-87280483D01*
X109488938Y-87263938D01*
X109505483Y-87252882D01*
X109525000Y-87249000D01*
X112725000Y-87249000D01*
X112744517Y-87252882D01*
G37*
G36*
X157013199Y-87291662D02*
G01*
X157060954Y-87291662D01*
X157102194Y-87300427D01*
X157137901Y-87303945D01*
X157182759Y-87317552D01*
X157234973Y-87328651D01*
X157268384Y-87343526D01*
X157297435Y-87352339D01*
X157343602Y-87377015D01*
X157397500Y-87401012D01*
X157422554Y-87419215D01*
X157444453Y-87430920D01*
X157489128Y-87467584D01*
X157541430Y-87505584D01*
X157558411Y-87524443D01*
X157573320Y-87536679D01*
X157613387Y-87585501D01*
X157660473Y-87637795D01*
X157670364Y-87654927D01*
X157679079Y-87665546D01*
X157711306Y-87725840D01*
X157749427Y-87791867D01*
X157753813Y-87805368D01*
X157757660Y-87812564D01*
X157778861Y-87882455D01*
X157804404Y-87961067D01*
X157805303Y-87969623D01*
X157806054Y-87972098D01*
X157813371Y-88046389D01*
X157823000Y-88138000D01*
X157813370Y-88229619D01*
X157806054Y-88303901D01*
X157805303Y-88306375D01*
X157804404Y-88314933D01*
X157778856Y-88393558D01*
X157757660Y-88463435D01*
X157753814Y-88470629D01*
X157749427Y-88484133D01*
X157711299Y-88550172D01*
X157679079Y-88610453D01*
X157670366Y-88621069D01*
X157660473Y-88638205D01*
X157613378Y-88690509D01*
X157573320Y-88739320D01*
X157558414Y-88751552D01*
X157541430Y-88770416D01*
X157489118Y-88808423D01*
X157444453Y-88845079D01*
X157422559Y-88856780D01*
X157397500Y-88874988D01*
X157343591Y-88898989D01*
X157297435Y-88923660D01*
X157268391Y-88932470D01*
X157234973Y-88947349D01*
X157182748Y-88958449D01*
X157137901Y-88972054D01*
X157102203Y-88975570D01*
X157060954Y-88984338D01*
X157013188Y-88984338D01*
X156972000Y-88988395D01*
X156930811Y-88984338D01*
X156883046Y-88984338D01*
X156841797Y-88975570D01*
X156806098Y-88972054D01*
X156761248Y-88958448D01*
X156709027Y-88947349D01*
X156675610Y-88932471D01*
X156646564Y-88923660D01*
X156600402Y-88898986D01*
X156546500Y-88874988D01*
X156521443Y-88856783D01*
X156499546Y-88845079D01*
X156454873Y-88808416D01*
X156402570Y-88770416D01*
X156385588Y-88751555D01*
X156370679Y-88739320D01*
X156330610Y-88690496D01*
X156283527Y-88638205D01*
X156273636Y-88621073D01*
X156264920Y-88610453D01*
X156232687Y-88550148D01*
X156194573Y-88484133D01*
X156190186Y-88470634D01*
X156186339Y-88463435D01*
X156165128Y-88393512D01*
X156139596Y-88314933D01*
X156138697Y-88306380D01*
X156137945Y-88303901D01*
X156130613Y-88229467D01*
X156121000Y-88138000D01*
X156130612Y-88046540D01*
X156137945Y-87972098D01*
X156138697Y-87969618D01*
X156139596Y-87961067D01*
X156165123Y-87882502D01*
X156186339Y-87812564D01*
X156190187Y-87805363D01*
X156194573Y-87791867D01*
X156232680Y-87725863D01*
X156264920Y-87665546D01*
X156273638Y-87654923D01*
X156283527Y-87637795D01*
X156330601Y-87585513D01*
X156370679Y-87536679D01*
X156385591Y-87524440D01*
X156402570Y-87505584D01*
X156454862Y-87467591D01*
X156499546Y-87430920D01*
X156521448Y-87419213D01*
X156546500Y-87401012D01*
X156600391Y-87377018D01*
X156646564Y-87352339D01*
X156675617Y-87343525D01*
X156709027Y-87328651D01*
X156761237Y-87317553D01*
X156806098Y-87303945D01*
X156841806Y-87300427D01*
X156883046Y-87291662D01*
X156930801Y-87291662D01*
X156972000Y-87287604D01*
X157013199Y-87291662D01*
G37*
G36*
X129743899Y-86381959D02*
G01*
X129760769Y-86393231D01*
X129772041Y-86410101D01*
X129774999Y-86424978D01*
X129775000Y-88835023D01*
X129772041Y-88849899D01*
X129760769Y-88866769D01*
X129743899Y-88878041D01*
X129729022Y-88880999D01*
X127318977Y-88881000D01*
X127304101Y-88878041D01*
X127287231Y-88866769D01*
X127275959Y-88849899D01*
X127273001Y-88835023D01*
X127273000Y-88835020D01*
X127273000Y-86424977D01*
X127275959Y-86410100D01*
X127287231Y-86393231D01*
X127304098Y-86381960D01*
X127304100Y-86381959D01*
X127304101Y-86381959D01*
X127309082Y-86380968D01*
X127318979Y-86379000D01*
X129729022Y-86379000D01*
X129729023Y-86379000D01*
X129743899Y-86381959D01*
G37*
G36*
X147269517Y-86382882D02*
G01*
X147286062Y-86393938D01*
X147297118Y-86410483D01*
X147301000Y-86430000D01*
X147301000Y-88830000D01*
X147297118Y-88849517D01*
X147286062Y-88866062D01*
X147269517Y-88877118D01*
X147250000Y-88881000D01*
X144850000Y-88881000D01*
X144830483Y-88877118D01*
X144813938Y-88866062D01*
X144802882Y-88849517D01*
X144799000Y-88830000D01*
X144799000Y-86430000D01*
X144802882Y-86410483D01*
X144813938Y-86393938D01*
X144830483Y-86382882D01*
X144850000Y-86379000D01*
X147250000Y-86379000D01*
X147269517Y-86382882D01*
G37*
G36*
X128578625Y-78879000D02*
G01*
X128627662Y-78879000D01*
X128681705Y-78888018D01*
X128742064Y-78893299D01*
X128789467Y-78906000D01*
X128832154Y-78913124D01*
X128889418Y-78932782D01*
X128953502Y-78949954D01*
X128992756Y-78968258D01*
X129028243Y-78980441D01*
X129086544Y-79011992D01*
X129151890Y-79042463D01*
X129182651Y-79064002D01*
X129210575Y-79079114D01*
X129267423Y-79123360D01*
X129331199Y-79168017D01*
X129353673Y-79190491D01*
X129374181Y-79206453D01*
X129426862Y-79263680D01*
X129485983Y-79322801D01*
X129500906Y-79344113D01*
X129514599Y-79358988D01*
X129560286Y-79428917D01*
X129611537Y-79502111D01*
X129620090Y-79520453D01*
X129627992Y-79532548D01*
X129663855Y-79614308D01*
X129704046Y-79700498D01*
X129707789Y-79714468D01*
X129711272Y-79722408D01*
X129734593Y-79814501D01*
X129760701Y-79911936D01*
X129761457Y-79920586D01*
X129762167Y-79923387D01*
X129770477Y-80023687D01*
X129779779Y-80130000D01*
X129770477Y-80236322D01*
X129762167Y-80336612D01*
X129761457Y-80339411D01*
X129760701Y-80348064D01*
X129734588Y-80445515D01*
X129711272Y-80537591D01*
X129707790Y-80545529D01*
X129704046Y-80559502D01*
X129663844Y-80645714D01*
X129627992Y-80727451D01*
X129620093Y-80739540D01*
X129611537Y-80757890D01*
X129560271Y-80831104D01*
X129514599Y-80901011D01*
X129500909Y-80915881D01*
X129485983Y-80937199D01*
X129426850Y-80996331D01*
X129374181Y-81053546D01*
X129353677Y-81069504D01*
X129331199Y-81091983D01*
X129267410Y-81136648D01*
X129210575Y-81180885D01*
X129182658Y-81195992D01*
X129151890Y-81217537D01*
X129086531Y-81248013D01*
X129028243Y-81279558D01*
X128992764Y-81291737D01*
X128953502Y-81310046D01*
X128889404Y-81327220D01*
X128832154Y-81346875D01*
X128789475Y-81353997D01*
X128742064Y-81366701D01*
X128681702Y-81371981D01*
X128627662Y-81381000D01*
X128578625Y-81381000D01*
X128524000Y-81385779D01*
X128469375Y-81381000D01*
X128420338Y-81381000D01*
X128366297Y-81371981D01*
X128305936Y-81366701D01*
X128258525Y-81353997D01*
X128215845Y-81346875D01*
X128158590Y-81327219D01*
X128094498Y-81310046D01*
X128055237Y-81291738D01*
X128019756Y-81279558D01*
X127961461Y-81248010D01*
X127896110Y-81217537D01*
X127865345Y-81195995D01*
X127837424Y-81180885D01*
X127780579Y-81136641D01*
X127716801Y-81091983D01*
X127694325Y-81069507D01*
X127673818Y-81053546D01*
X127621136Y-80996318D01*
X127562017Y-80937199D01*
X127547093Y-80915886D01*
X127533400Y-80901011D01*
X127487713Y-80831083D01*
X127436463Y-80757890D01*
X127427909Y-80739546D01*
X127420007Y-80727451D01*
X127384138Y-80645678D01*
X127343954Y-80559502D01*
X127340211Y-80545534D01*
X127336727Y-80537591D01*
X127313393Y-80445448D01*
X127287299Y-80348064D01*
X127286542Y-80339417D01*
X127285832Y-80336612D01*
X127277504Y-80236105D01*
X127268221Y-80130000D01*
X127277503Y-80023903D01*
X127285832Y-79923387D01*
X127286542Y-79920580D01*
X127287299Y-79911936D01*
X127313388Y-79814569D01*
X127336727Y-79722408D01*
X127340212Y-79714462D01*
X127343954Y-79700498D01*
X127384127Y-79614344D01*
X127420007Y-79532548D01*
X127427912Y-79520448D01*
X127436463Y-79502111D01*
X127487698Y-79428939D01*
X127533400Y-79358988D01*
X127547096Y-79344109D01*
X127562017Y-79322801D01*
X127621125Y-79263692D01*
X127673818Y-79206453D01*
X127694330Y-79190487D01*
X127716801Y-79168017D01*
X127780563Y-79123370D01*
X127837424Y-79079114D01*
X127865355Y-79063998D01*
X127896111Y-79042463D01*
X127961443Y-79011997D01*
X128019756Y-78980441D01*
X128055246Y-78968257D01*
X128094498Y-78949954D01*
X128158577Y-78932783D01*
X128215845Y-78913124D01*
X128258533Y-78906000D01*
X128305936Y-78893299D01*
X128366293Y-78888018D01*
X128420338Y-78879000D01*
X128469375Y-78879000D01*
X128524000Y-78874221D01*
X128578625Y-78879000D01*
G37*
G36*
X146103720Y-78883700D02*
G01*
X146153273Y-78883700D01*
X146207891Y-78892814D01*
X146267234Y-78898006D01*
X146313834Y-78910492D01*
X146356997Y-78917695D01*
X146414900Y-78937573D01*
X146477867Y-78954445D01*
X146516438Y-78972430D01*
X146552349Y-78984759D01*
X146611347Y-79016687D01*
X146675500Y-79046602D01*
X146705701Y-79067749D01*
X146733995Y-79083061D01*
X146791590Y-79127889D01*
X146854127Y-79171678D01*
X146876167Y-79193718D01*
X146896987Y-79209923D01*
X146950470Y-79268021D01*
X147008322Y-79325873D01*
X147022924Y-79346727D01*
X147036878Y-79361885D01*
X147083430Y-79433139D01*
X147133398Y-79504500D01*
X147141738Y-79522385D01*
X147149843Y-79534791D01*
X147186635Y-79618668D01*
X147225555Y-79702133D01*
X147229179Y-79715658D01*
X147232813Y-79723943D01*
X147257144Y-79820025D01*
X147281994Y-79912766D01*
X147282714Y-79921000D01*
X147283515Y-79924162D01*
X147292892Y-80037335D01*
X147301000Y-80130000D01*
X147292892Y-80222672D01*
X147283515Y-80335837D01*
X147282714Y-80338997D01*
X147281994Y-80347234D01*
X147257139Y-80439991D01*
X147232813Y-80536056D01*
X147229179Y-80544338D01*
X147225555Y-80557867D01*
X147186627Y-80641347D01*
X147149843Y-80725208D01*
X147141739Y-80737611D01*
X147133398Y-80755500D01*
X147083421Y-80826874D01*
X147036878Y-80898114D01*
X147022927Y-80913268D01*
X147008322Y-80934127D01*
X146950458Y-80991990D01*
X146896987Y-81050076D01*
X146876172Y-81066276D01*
X146854127Y-81088322D01*
X146791577Y-81132119D01*
X146733995Y-81176938D01*
X146705707Y-81192246D01*
X146675500Y-81213398D01*
X146611334Y-81243318D01*
X146552349Y-81275240D01*
X146516446Y-81287565D01*
X146477867Y-81305555D01*
X146414887Y-81322430D01*
X146356997Y-81342304D01*
X146313842Y-81349505D01*
X146267234Y-81361994D01*
X146207888Y-81367186D01*
X146153273Y-81376300D01*
X146103720Y-81376300D01*
X146050000Y-81381000D01*
X145996280Y-81376300D01*
X145946727Y-81376300D01*
X145892111Y-81367186D01*
X145832766Y-81361994D01*
X145786159Y-81349505D01*
X145743002Y-81342304D01*
X145685108Y-81322429D01*
X145622133Y-81305555D01*
X145583556Y-81287566D01*
X145547650Y-81275240D01*
X145488658Y-81243315D01*
X145424500Y-81213398D01*
X145394295Y-81192248D01*
X145366004Y-81176938D01*
X145308412Y-81132112D01*
X145245873Y-81088322D01*
X145223831Y-81066280D01*
X145203012Y-81050076D01*
X145149528Y-80991977D01*
X145091678Y-80934127D01*
X145077075Y-80913273D01*
X145063121Y-80898114D01*
X145016563Y-80826852D01*
X144966602Y-80755500D01*
X144958262Y-80737616D01*
X144950156Y-80725208D01*
X144913355Y-80641311D01*
X144874445Y-80557867D01*
X144870821Y-80544344D01*
X144867186Y-80536056D01*
X144842842Y-80439923D01*
X144818006Y-80347234D01*
X144817285Y-80339003D01*
X144816484Y-80335837D01*
X144807089Y-80222456D01*
X144799000Y-80130000D01*
X144807088Y-80037551D01*
X144816484Y-79924162D01*
X144817286Y-79920994D01*
X144818006Y-79912766D01*
X144842837Y-79820093D01*
X144867186Y-79723943D01*
X144870822Y-79715653D01*
X144874445Y-79702133D01*
X144913348Y-79618704D01*
X144950156Y-79534791D01*
X144958264Y-79522380D01*
X144966602Y-79504500D01*
X145016554Y-79433160D01*
X145063121Y-79361885D01*
X145077078Y-79346722D01*
X145091678Y-79325873D01*
X145149517Y-79268033D01*
X145203012Y-79209923D01*
X145223835Y-79193715D01*
X145245873Y-79171678D01*
X145308399Y-79127896D01*
X145366004Y-79083061D01*
X145394301Y-79067746D01*
X145424500Y-79046602D01*
X145488644Y-79016690D01*
X145547650Y-78984759D01*
X145583564Y-78972429D01*
X145622133Y-78954445D01*
X145685095Y-78937574D01*
X145743002Y-78917695D01*
X145786166Y-78910492D01*
X145832766Y-78898006D01*
X145892107Y-78892814D01*
X145946727Y-78883700D01*
X145996280Y-78883700D01*
X146050000Y-78879000D01*
X146103720Y-78883700D01*
G37*
G36*
X157013199Y-79671662D02*
G01*
X157060954Y-79671662D01*
X157102194Y-79680427D01*
X157137901Y-79683945D01*
X157182759Y-79697552D01*
X157234973Y-79708651D01*
X157268384Y-79723526D01*
X157297435Y-79732339D01*
X157343602Y-79757015D01*
X157397500Y-79781012D01*
X157422554Y-79799215D01*
X157444453Y-79810920D01*
X157489128Y-79847584D01*
X157541430Y-79885584D01*
X157558411Y-79904443D01*
X157573320Y-79916679D01*
X157613387Y-79965501D01*
X157660473Y-80017795D01*
X157670364Y-80034927D01*
X157679079Y-80045546D01*
X157711306Y-80105840D01*
X157749427Y-80171867D01*
X157753813Y-80185368D01*
X157757660Y-80192564D01*
X157778861Y-80262455D01*
X157804404Y-80341067D01*
X157805303Y-80349623D01*
X157806054Y-80352098D01*
X157813371Y-80426389D01*
X157823000Y-80518000D01*
X157813370Y-80609619D01*
X157806054Y-80683901D01*
X157805303Y-80686375D01*
X157804404Y-80694933D01*
X157778856Y-80773558D01*
X157757660Y-80843435D01*
X157753814Y-80850629D01*
X157749427Y-80864133D01*
X157711299Y-80930172D01*
X157679079Y-80990453D01*
X157670366Y-81001069D01*
X157660473Y-81018205D01*
X157613378Y-81070509D01*
X157573320Y-81119320D01*
X157558414Y-81131552D01*
X157541430Y-81150416D01*
X157489118Y-81188423D01*
X157444453Y-81225079D01*
X157422559Y-81236780D01*
X157397500Y-81254988D01*
X157343591Y-81278989D01*
X157297435Y-81303660D01*
X157268391Y-81312470D01*
X157234973Y-81327349D01*
X157182748Y-81338449D01*
X157137901Y-81352054D01*
X157102203Y-81355570D01*
X157060954Y-81364338D01*
X157013188Y-81364338D01*
X156972000Y-81368395D01*
X156930811Y-81364338D01*
X156883046Y-81364338D01*
X156841797Y-81355570D01*
X156806098Y-81352054D01*
X156761248Y-81338448D01*
X156709027Y-81327349D01*
X156675610Y-81312471D01*
X156646564Y-81303660D01*
X156600402Y-81278986D01*
X156546500Y-81254988D01*
X156521443Y-81236783D01*
X156499546Y-81225079D01*
X156454873Y-81188416D01*
X156402570Y-81150416D01*
X156385588Y-81131555D01*
X156370679Y-81119320D01*
X156330610Y-81070496D01*
X156283527Y-81018205D01*
X156273636Y-81001073D01*
X156264920Y-80990453D01*
X156232687Y-80930148D01*
X156194573Y-80864133D01*
X156190186Y-80850634D01*
X156186339Y-80843435D01*
X156165128Y-80773512D01*
X156139596Y-80694933D01*
X156138697Y-80686380D01*
X156137945Y-80683901D01*
X156130613Y-80609467D01*
X156121000Y-80518000D01*
X156130612Y-80426540D01*
X156137945Y-80352098D01*
X156138697Y-80349618D01*
X156139596Y-80341067D01*
X156165123Y-80262502D01*
X156186339Y-80192564D01*
X156190187Y-80185363D01*
X156194573Y-80171867D01*
X156232680Y-80105863D01*
X156264920Y-80045546D01*
X156273638Y-80034923D01*
X156283527Y-80017795D01*
X156330601Y-79965513D01*
X156370679Y-79916679D01*
X156385591Y-79904440D01*
X156402570Y-79885584D01*
X156454862Y-79847591D01*
X156499546Y-79810920D01*
X156521448Y-79799213D01*
X156546500Y-79781012D01*
X156600391Y-79757018D01*
X156646564Y-79732339D01*
X156675617Y-79723525D01*
X156709027Y-79708651D01*
X156761237Y-79697553D01*
X156806098Y-79683945D01*
X156841806Y-79680427D01*
X156883046Y-79671662D01*
X156930801Y-79671662D01*
X156972000Y-79667604D01*
X157013199Y-79671662D01*
G37*
G36*
X157891517Y-77284882D02*
G01*
X157908062Y-77295938D01*
X157919118Y-77312483D01*
X157923000Y-77332000D01*
X157923000Y-79132000D01*
X157919118Y-79151517D01*
X157908062Y-79168062D01*
X157891517Y-79179118D01*
X157872000Y-79183000D01*
X156072000Y-79183000D01*
X156052483Y-79179118D01*
X156035938Y-79168062D01*
X156024882Y-79151517D01*
X156021000Y-79132000D01*
X156021000Y-77332000D01*
X156024882Y-77312483D01*
X156035938Y-77295938D01*
X156052483Y-77284882D01*
X156072000Y-77281000D01*
X157872000Y-77281000D01*
X157891517Y-77284882D01*
G37*
G36*
X95599517Y-74552882D02*
G01*
X95616062Y-74563938D01*
X95627118Y-74580483D01*
X95631000Y-74600000D01*
X95631000Y-77800000D01*
X95627118Y-77819517D01*
X95616062Y-77836062D01*
X95599517Y-77847118D01*
X95580000Y-77851000D01*
X92380000Y-77851000D01*
X92360483Y-77847118D01*
X92343938Y-77836062D01*
X92332882Y-77819517D01*
X92329000Y-77800000D01*
X92329000Y-74600000D01*
X92332882Y-74580483D01*
X92343938Y-74563938D01*
X92360483Y-74552882D01*
X92380000Y-74549000D01*
X95580000Y-74549000D01*
X95599517Y-74552882D01*
G37*
G36*
X101314517Y-74552882D02*
G01*
X101331062Y-74563938D01*
X101342118Y-74580483D01*
X101346000Y-74600000D01*
X101346000Y-77800000D01*
X101342118Y-77819517D01*
X101331062Y-77836062D01*
X101314517Y-77847118D01*
X101295000Y-77851000D01*
X98095000Y-77851000D01*
X98075483Y-77847118D01*
X98058938Y-77836062D01*
X98047882Y-77819517D01*
X98044000Y-77800000D01*
X98044000Y-74600000D01*
X98047882Y-74580483D01*
X98058938Y-74563938D01*
X98075483Y-74552882D01*
X98095000Y-74549000D01*
X101295000Y-74549000D01*
X101314517Y-74552882D01*
G37*
G36*
X105473098Y-74553966D02*
G01*
X105533353Y-74553966D01*
X105599199Y-74563890D01*
X105668273Y-74569327D01*
X105723947Y-74582693D01*
X105777302Y-74590735D01*
X105847021Y-74612240D01*
X105920187Y-74629806D01*
X105967495Y-74649401D01*
X106013052Y-74663454D01*
X106084569Y-74697895D01*
X106159538Y-74728948D01*
X106198022Y-74752531D01*
X106235322Y-74770494D01*
X106306271Y-74818866D01*
X106380433Y-74864313D01*
X106410127Y-74889674D01*
X106439162Y-74909470D01*
X106506956Y-74972374D01*
X106577433Y-75032567D01*
X106598834Y-75057625D01*
X106620011Y-75077274D01*
X106681925Y-75154911D01*
X106745687Y-75229567D01*
X106759709Y-75252449D01*
X106773830Y-75270156D01*
X106827087Y-75362399D01*
X106881052Y-75450462D01*
X106888977Y-75469597D01*
X106897185Y-75483812D01*
X106939038Y-75590454D01*
X106980194Y-75689813D01*
X106983597Y-75703991D01*
X106987314Y-75713460D01*
X107015157Y-75835446D01*
X107040673Y-75941727D01*
X107041334Y-75950133D01*
X107042214Y-75953986D01*
X107053683Y-76107031D01*
X107061000Y-76200000D01*
X107053682Y-76292975D01*
X107042214Y-76446013D01*
X107041334Y-76449865D01*
X107040673Y-76458273D01*
X107015152Y-76564573D01*
X106987314Y-76686539D01*
X106983598Y-76696005D01*
X106980194Y-76710187D01*
X106939031Y-76809563D01*
X106897185Y-76916187D01*
X106888979Y-76930399D01*
X106881052Y-76949538D01*
X106827077Y-77037616D01*
X106773830Y-77129843D01*
X106759712Y-77147546D01*
X106745687Y-77170433D01*
X106681913Y-77245102D01*
X106620011Y-77322725D01*
X106598838Y-77342369D01*
X106577433Y-77367433D01*
X106506942Y-77427637D01*
X106439162Y-77490529D01*
X106410133Y-77510320D01*
X106380433Y-77535687D01*
X106306257Y-77581142D01*
X106235322Y-77629505D01*
X106198030Y-77647463D01*
X106159538Y-77671052D01*
X106084554Y-77702110D01*
X106013052Y-77736545D01*
X105967504Y-77750594D01*
X105920187Y-77770194D01*
X105847007Y-77787762D01*
X105777302Y-77809264D01*
X105723955Y-77817304D01*
X105668273Y-77830673D01*
X105599195Y-77836109D01*
X105533353Y-77846034D01*
X105473098Y-77846034D01*
X105410000Y-77851000D01*
X105346902Y-77846034D01*
X105286647Y-77846034D01*
X105220803Y-77836109D01*
X105151727Y-77830673D01*
X105096045Y-77817305D01*
X105042697Y-77809264D01*
X104972988Y-77787761D01*
X104899813Y-77770194D01*
X104852498Y-77750595D01*
X104806947Y-77736545D01*
X104735438Y-77702107D01*
X104660462Y-77671052D01*
X104621972Y-77647465D01*
X104584675Y-77629504D01*
X104513726Y-77581131D01*
X104439567Y-77535687D01*
X104409873Y-77510326D01*
X104380839Y-77490531D01*
X104313043Y-77427625D01*
X104242567Y-77367433D01*
X104221164Y-77342374D01*
X104199988Y-77322725D01*
X104138071Y-77245084D01*
X104074313Y-77170433D01*
X104060291Y-77147551D01*
X104046169Y-77129843D01*
X103992905Y-77037588D01*
X103938948Y-76949538D01*
X103931023Y-76930405D01*
X103922814Y-76916187D01*
X103880949Y-76809517D01*
X103839806Y-76710187D01*
X103836402Y-76696012D01*
X103832685Y-76686539D01*
X103804827Y-76564488D01*
X103779327Y-76458273D01*
X103778665Y-76449871D01*
X103777785Y-76446013D01*
X103766296Y-76292710D01*
X103759000Y-76200000D01*
X103766296Y-76107297D01*
X103777785Y-75953986D01*
X103778665Y-75950126D01*
X103779327Y-75941727D01*
X103804822Y-75835530D01*
X103832685Y-75713460D01*
X103836403Y-75703984D01*
X103839806Y-75689813D01*
X103880942Y-75590500D01*
X103922814Y-75483812D01*
X103931024Y-75469590D01*
X103938948Y-75450462D01*
X103992895Y-75362427D01*
X104046169Y-75270156D01*
X104060293Y-75252443D01*
X104074313Y-75229567D01*
X104138059Y-75154929D01*
X104199988Y-75077274D01*
X104221169Y-75057620D01*
X104242567Y-75032567D01*
X104313029Y-74972386D01*
X104380839Y-74909468D01*
X104409879Y-74889668D01*
X104439567Y-74864313D01*
X104513711Y-74818876D01*
X104584675Y-74770495D01*
X104621980Y-74752529D01*
X104660462Y-74728948D01*
X104735423Y-74697898D01*
X104806947Y-74663454D01*
X104852507Y-74649400D01*
X104899813Y-74629806D01*
X104972973Y-74612241D01*
X105042697Y-74590735D01*
X105096054Y-74582692D01*
X105151727Y-74569327D01*
X105220799Y-74563890D01*
X105286647Y-74553966D01*
X105346902Y-74553966D01*
X105410000Y-74549000D01*
X105473098Y-74553966D01*
G37*
G36*
X111188098Y-74553966D02*
G01*
X111248353Y-74553966D01*
X111314199Y-74563890D01*
X111383273Y-74569327D01*
X111438947Y-74582693D01*
X111492302Y-74590735D01*
X111562021Y-74612240D01*
X111635187Y-74629806D01*
X111682495Y-74649401D01*
X111728052Y-74663454D01*
X111799569Y-74697895D01*
X111874538Y-74728948D01*
X111913022Y-74752531D01*
X111950322Y-74770494D01*
X112021271Y-74818866D01*
X112095433Y-74864313D01*
X112125127Y-74889674D01*
X112154162Y-74909470D01*
X112221956Y-74972374D01*
X112292433Y-75032567D01*
X112313834Y-75057625D01*
X112335011Y-75077274D01*
X112396925Y-75154911D01*
X112460687Y-75229567D01*
X112474709Y-75252449D01*
X112488830Y-75270156D01*
X112542087Y-75362399D01*
X112596052Y-75450462D01*
X112603977Y-75469597D01*
X112612185Y-75483812D01*
X112654038Y-75590454D01*
X112695194Y-75689813D01*
X112698597Y-75703991D01*
X112702314Y-75713460D01*
X112730157Y-75835446D01*
X112755673Y-75941727D01*
X112756334Y-75950133D01*
X112757214Y-75953986D01*
X112768683Y-76107031D01*
X112776000Y-76200000D01*
X112768682Y-76292975D01*
X112757214Y-76446013D01*
X112756334Y-76449865D01*
X112755673Y-76458273D01*
X112730152Y-76564573D01*
X112702314Y-76686539D01*
X112698598Y-76696005D01*
X112695194Y-76710187D01*
X112654031Y-76809563D01*
X112612185Y-76916187D01*
X112603979Y-76930399D01*
X112596052Y-76949538D01*
X112542077Y-77037616D01*
X112488830Y-77129843D01*
X112474712Y-77147546D01*
X112460687Y-77170433D01*
X112396913Y-77245102D01*
X112335011Y-77322725D01*
X112313838Y-77342369D01*
X112292433Y-77367433D01*
X112221942Y-77427637D01*
X112154162Y-77490529D01*
X112125133Y-77510320D01*
X112095433Y-77535687D01*
X112021257Y-77581142D01*
X111950322Y-77629505D01*
X111913030Y-77647463D01*
X111874538Y-77671052D01*
X111799554Y-77702110D01*
X111728052Y-77736545D01*
X111682504Y-77750594D01*
X111635187Y-77770194D01*
X111562007Y-77787762D01*
X111492302Y-77809264D01*
X111438955Y-77817304D01*
X111383273Y-77830673D01*
X111314195Y-77836109D01*
X111248353Y-77846034D01*
X111188098Y-77846034D01*
X111125000Y-77851000D01*
X111061902Y-77846034D01*
X111001647Y-77846034D01*
X110935803Y-77836109D01*
X110866727Y-77830673D01*
X110811045Y-77817305D01*
X110757697Y-77809264D01*
X110687988Y-77787761D01*
X110614813Y-77770194D01*
X110567498Y-77750595D01*
X110521947Y-77736545D01*
X110450438Y-77702107D01*
X110375462Y-77671052D01*
X110336972Y-77647465D01*
X110299675Y-77629504D01*
X110228726Y-77581131D01*
X110154567Y-77535687D01*
X110124873Y-77510326D01*
X110095839Y-77490531D01*
X110028043Y-77427625D01*
X109957567Y-77367433D01*
X109936164Y-77342374D01*
X109914988Y-77322725D01*
X109853071Y-77245084D01*
X109789313Y-77170433D01*
X109775291Y-77147551D01*
X109761169Y-77129843D01*
X109707905Y-77037588D01*
X109653948Y-76949538D01*
X109646023Y-76930405D01*
X109637814Y-76916187D01*
X109595949Y-76809517D01*
X109554806Y-76710187D01*
X109551402Y-76696012D01*
X109547685Y-76686539D01*
X109519827Y-76564488D01*
X109494327Y-76458273D01*
X109493665Y-76449871D01*
X109492785Y-76446013D01*
X109481296Y-76292710D01*
X109474000Y-76200000D01*
X109481296Y-76107297D01*
X109492785Y-75953986D01*
X109493665Y-75950126D01*
X109494327Y-75941727D01*
X109519822Y-75835530D01*
X109547685Y-75713460D01*
X109551403Y-75703984D01*
X109554806Y-75689813D01*
X109595942Y-75590500D01*
X109637814Y-75483812D01*
X109646024Y-75469590D01*
X109653948Y-75450462D01*
X109707895Y-75362427D01*
X109761169Y-75270156D01*
X109775293Y-75252443D01*
X109789313Y-75229567D01*
X109853059Y-75154929D01*
X109914988Y-75077274D01*
X109936169Y-75057620D01*
X109957567Y-75032567D01*
X110028029Y-74972386D01*
X110095839Y-74909468D01*
X110124879Y-74889668D01*
X110154567Y-74864313D01*
X110228711Y-74818876D01*
X110299675Y-74770495D01*
X110336980Y-74752529D01*
X110375462Y-74728948D01*
X110450423Y-74697898D01*
X110521947Y-74663454D01*
X110567507Y-74649400D01*
X110614813Y-74629806D01*
X110687973Y-74612241D01*
X110757697Y-74590735D01*
X110811054Y-74582692D01*
X110866727Y-74569327D01*
X110935799Y-74563890D01*
X111001647Y-74553966D01*
X111061902Y-74553966D01*
X111125000Y-74549000D01*
X111188098Y-74553966D01*
G37*
G36*
X157018604Y-74745590D02*
G01*
X157059696Y-74745590D01*
X157105456Y-74754144D01*
X157157531Y-74759273D01*
X157197091Y-74771273D01*
X157232111Y-74777820D01*
X157280617Y-74796611D01*
X157335932Y-74813391D01*
X157367534Y-74830282D01*
X157395656Y-74841177D01*
X157444513Y-74871428D01*
X157500347Y-74901272D01*
X157523809Y-74920526D01*
X157544784Y-74933514D01*
X157591256Y-74975879D01*
X157644459Y-75019541D01*
X157660224Y-75038751D01*
X157674400Y-75051674D01*
X157715557Y-75106174D01*
X157762728Y-75163653D01*
X157771848Y-75180717D01*
X157780099Y-75191642D01*
X157812925Y-75257566D01*
X157850609Y-75328068D01*
X157854628Y-75341316D01*
X157858282Y-75348655D01*
X157879864Y-75424507D01*
X157904727Y-75506469D01*
X157905543Y-75514762D01*
X157906280Y-75517350D01*
X157913937Y-75599982D01*
X157923000Y-75692000D01*
X157913936Y-75784026D01*
X157906280Y-75866649D01*
X157905544Y-75869235D01*
X157904727Y-75877531D01*
X157879859Y-75959507D01*
X157858282Y-76035344D01*
X157854628Y-76042680D01*
X157850609Y-76055932D01*
X157812917Y-76126447D01*
X157780099Y-76192357D01*
X157771850Y-76203279D01*
X157762728Y-76220347D01*
X157715547Y-76277836D01*
X157674400Y-76332325D01*
X157660227Y-76345244D01*
X157644459Y-76364459D01*
X157591245Y-76408129D01*
X157544784Y-76450485D01*
X157523814Y-76463469D01*
X157500347Y-76482728D01*
X157444502Y-76512577D01*
X157395656Y-76542822D01*
X157367541Y-76553713D01*
X157335932Y-76570609D01*
X157280605Y-76587392D01*
X157232111Y-76606179D01*
X157197098Y-76612724D01*
X157157531Y-76624727D01*
X157105453Y-76629856D01*
X157059696Y-76638410D01*
X157018604Y-76638410D01*
X156972000Y-76643000D01*
X156925396Y-76638410D01*
X156884304Y-76638410D01*
X156838545Y-76629856D01*
X156786469Y-76624727D01*
X156746902Y-76612724D01*
X156711888Y-76606179D01*
X156663389Y-76587390D01*
X156608068Y-76570609D01*
X156576461Y-76553714D01*
X156548343Y-76542822D01*
X156499490Y-76512573D01*
X156443653Y-76482728D01*
X156420188Y-76463471D01*
X156399215Y-76450485D01*
X156352744Y-76408121D01*
X156299541Y-76364459D01*
X156283775Y-76345248D01*
X156269599Y-76332325D01*
X156228439Y-76277821D01*
X156181272Y-76220347D01*
X156172151Y-76203284D01*
X156163900Y-76192357D01*
X156131067Y-76126420D01*
X156093391Y-76055932D01*
X156089372Y-76042685D01*
X156085717Y-76035344D01*
X156064124Y-75959454D01*
X156039273Y-75877531D01*
X156038456Y-75869241D01*
X156037719Y-75866649D01*
X156030046Y-75783854D01*
X156021000Y-75692000D01*
X156030045Y-75600153D01*
X156037719Y-75517350D01*
X156038456Y-75514757D01*
X156039273Y-75506469D01*
X156064119Y-75424560D01*
X156085717Y-75348655D01*
X156089373Y-75341311D01*
X156093391Y-75328068D01*
X156131060Y-75257593D01*
X156163900Y-75191642D01*
X156172153Y-75180712D01*
X156181272Y-75163653D01*
X156228430Y-75106190D01*
X156269599Y-75051674D01*
X156283778Y-75038747D01*
X156299541Y-75019541D01*
X156352733Y-74975887D01*
X156399215Y-74933514D01*
X156420193Y-74920524D01*
X156443653Y-74901272D01*
X156499478Y-74871432D01*
X156548343Y-74841177D01*
X156576467Y-74830281D01*
X156608068Y-74813391D01*
X156663377Y-74796612D01*
X156711888Y-74777820D01*
X156746909Y-74771273D01*
X156786469Y-74759273D01*
X156838542Y-74754144D01*
X156884304Y-74745590D01*
X156925396Y-74745590D01*
X156972000Y-74741000D01*
X157018604Y-74745590D01*
G37*
G36*
X105768913Y-60756995D02*
G01*
X105784725Y-60763976D01*
X105792530Y-60765213D01*
X105825038Y-60781776D01*
X105870105Y-60801676D01*
X105948324Y-60879895D01*
X105968226Y-60924968D01*
X105984786Y-60957469D01*
X105986021Y-60965271D01*
X105993005Y-60981087D01*
X106001000Y-61050002D01*
X106001000Y-64449998D01*
X105993005Y-64518913D01*
X105986021Y-64534729D01*
X105984786Y-64542530D01*
X105968229Y-64575023D01*
X105948324Y-64620105D01*
X105870105Y-64698324D01*
X105825023Y-64718229D01*
X105792530Y-64734786D01*
X105784728Y-64736021D01*
X105768913Y-64743005D01*
X105699998Y-64751000D01*
X102300002Y-64751000D01*
X102231087Y-64743005D01*
X102215271Y-64736021D01*
X102207469Y-64734786D01*
X102174968Y-64718226D01*
X102129895Y-64698324D01*
X102051676Y-64620105D01*
X102031776Y-64575038D01*
X102015213Y-64542530D01*
X102013976Y-64534725D01*
X102006995Y-64518913D01*
X101999000Y-64449998D01*
X101999000Y-61050002D01*
X102006995Y-60981087D01*
X102013976Y-60965275D01*
X102015213Y-60957469D01*
X102031780Y-60924954D01*
X102051676Y-60879895D01*
X102129895Y-60801676D01*
X102174954Y-60781780D01*
X102207469Y-60765213D01*
X102215275Y-60763976D01*
X102231087Y-60756995D01*
X102300002Y-60749000D01*
X105699998Y-60749000D01*
X105768913Y-60756995D01*
G37*
G36*
X113768913Y-60756995D02*
G01*
X113784725Y-60763976D01*
X113792530Y-60765213D01*
X113825038Y-60781776D01*
X113870105Y-60801676D01*
X113948324Y-60879895D01*
X113968226Y-60924968D01*
X113984786Y-60957469D01*
X113986021Y-60965271D01*
X113993005Y-60981087D01*
X114001000Y-61050002D01*
X114001000Y-64449998D01*
X113993005Y-64518913D01*
X113986021Y-64534729D01*
X113984786Y-64542530D01*
X113968229Y-64575023D01*
X113948324Y-64620105D01*
X113870105Y-64698324D01*
X113825023Y-64718229D01*
X113792530Y-64734786D01*
X113784728Y-64736021D01*
X113768913Y-64743005D01*
X113699998Y-64751000D01*
X110300002Y-64751000D01*
X110231087Y-64743005D01*
X110215271Y-64736021D01*
X110207469Y-64734786D01*
X110174968Y-64718226D01*
X110129895Y-64698324D01*
X110051676Y-64620105D01*
X110031776Y-64575038D01*
X110015213Y-64542530D01*
X110013976Y-64534725D01*
X110006995Y-64518913D01*
X109999000Y-64449998D01*
X109999000Y-61050002D01*
X110006995Y-60981087D01*
X110013976Y-60965275D01*
X110015213Y-60957469D01*
X110031780Y-60924954D01*
X110051676Y-60879895D01*
X110129895Y-60801676D01*
X110174954Y-60781780D01*
X110207469Y-60765213D01*
X110215275Y-60763976D01*
X110231087Y-60756995D01*
X110300002Y-60749000D01*
X113699998Y-60749000D01*
X113768913Y-60756995D01*
G37*
G36*
X143768913Y-60756995D02*
G01*
X143784725Y-60763976D01*
X143792530Y-60765213D01*
X143825038Y-60781776D01*
X143870105Y-60801676D01*
X143948324Y-60879895D01*
X143968226Y-60924968D01*
X143984786Y-60957469D01*
X143986021Y-60965271D01*
X143993005Y-60981087D01*
X144001000Y-61050002D01*
X144001000Y-64449998D01*
X143993005Y-64518913D01*
X143986021Y-64534729D01*
X143984786Y-64542530D01*
X143968229Y-64575023D01*
X143948324Y-64620105D01*
X143870105Y-64698324D01*
X143825023Y-64718229D01*
X143792530Y-64734786D01*
X143784728Y-64736021D01*
X143768913Y-64743005D01*
X143699998Y-64751000D01*
X140300002Y-64751000D01*
X140231087Y-64743005D01*
X140215271Y-64736021D01*
X140207469Y-64734786D01*
X140174968Y-64718226D01*
X140129895Y-64698324D01*
X140051676Y-64620105D01*
X140031776Y-64575038D01*
X140015213Y-64542530D01*
X140013976Y-64534725D01*
X140006995Y-64518913D01*
X139999000Y-64449998D01*
X139999000Y-61050002D01*
X140006995Y-60981087D01*
X140013976Y-60965275D01*
X140015213Y-60957469D01*
X140031780Y-60924954D01*
X140051676Y-60879895D01*
X140129895Y-60801676D01*
X140174954Y-60781780D01*
X140207469Y-60765213D01*
X140215275Y-60763976D01*
X140231087Y-60756995D01*
X140300002Y-60749000D01*
X143699998Y-60749000D01*
X143768913Y-60756995D01*
G37*
G36*
X151768913Y-60756995D02*
G01*
X151784725Y-60763976D01*
X151792530Y-60765213D01*
X151825038Y-60781776D01*
X151870105Y-60801676D01*
X151948324Y-60879895D01*
X151968226Y-60924968D01*
X151984786Y-60957469D01*
X151986021Y-60965271D01*
X151993005Y-60981087D01*
X152001000Y-61050002D01*
X152001000Y-64449998D01*
X151993005Y-64518913D01*
X151986021Y-64534729D01*
X151984786Y-64542530D01*
X151968229Y-64575023D01*
X151948324Y-64620105D01*
X151870105Y-64698324D01*
X151825023Y-64718229D01*
X151792530Y-64734786D01*
X151784728Y-64736021D01*
X151768913Y-64743005D01*
X151699998Y-64751000D01*
X148300002Y-64751000D01*
X148231087Y-64743005D01*
X148215271Y-64736021D01*
X148207469Y-64734786D01*
X148174968Y-64718226D01*
X148129895Y-64698324D01*
X148051676Y-64620105D01*
X148031776Y-64575038D01*
X148015213Y-64542530D01*
X148013976Y-64534725D01*
X148006995Y-64518913D01*
X147999000Y-64449998D01*
X147999000Y-61050002D01*
X148006995Y-60981087D01*
X148013976Y-60965275D01*
X148015213Y-60957469D01*
X148031780Y-60924954D01*
X148051676Y-60879895D01*
X148129895Y-60801676D01*
X148174954Y-60781780D01*
X148207469Y-60765213D01*
X148215275Y-60763976D01*
X148231087Y-60756995D01*
X148300002Y-60749000D01*
X151699998Y-60749000D01*
X151768913Y-60756995D01*
G37*
M02*
