G04 #@! TF.GenerationSoftware,KiCad,Pcbnew,(5.1.5)-3*
G04 #@! TF.CreationDate,2022-06-08T01:14:33+03:00*
G04 #@! TF.ProjectId,c64-wedge-psu-pcb,6336342d-7765-4646-9765-2d7073752d70,rev?*
G04 #@! TF.SameCoordinates,Original*
G04 #@! TF.FileFunction,Copper,L1,Top*
G04 #@! TF.FilePolarity,Positive*
%FSLAX46Y46*%
G04 Gerber Fmt 4.6, Leading zero omitted, Abs format (unit mm)*
G04 Created by KiCad (PCBNEW (5.1.5)-3) date 2022-06-08 01:14:33*
%MOMM*%
%LPD*%
G04 APERTURE LIST*
%ADD10C,1.800000*%
%ADD11R,1.800000X1.800000*%
%ADD12O,1.600000X1.600000*%
%ADD13C,1.600000*%
%ADD14O,1.800000X1.800000*%
%ADD15C,2.400000*%
%ADD16R,2.400000X2.400000*%
%ADD17C,3.000000*%
%ADD18R,1.600000X1.600000*%
%ADD19O,3.200000X3.200000*%
%ADD20R,3.200000X3.200000*%
%ADD21C,3.600000*%
%ADD22C,2.600000*%
%ADD23R,2.600000X2.600000*%
%ADD24C,4.500880*%
%ADD25C,1.800000*%
G04 APERTURE END LIST*
D10*
X154700000Y-82440000D03*
D11*
X154700000Y-79900000D03*
D12*
X108680000Y-108000000D03*
D13*
X116300000Y-108000000D03*
D12*
X150380000Y-76500000D03*
D13*
X158000000Y-76500000D03*
D12*
X108680000Y-111200000D03*
D13*
X116300000Y-111200000D03*
D14*
X112500000Y-104150000D03*
X116300000Y-102450000D03*
X112500000Y-100750000D03*
X116300000Y-99050000D03*
D11*
X112500000Y-97350000D03*
D15*
X141000000Y-79500000D03*
D16*
X141000000Y-87000000D03*
D15*
X115500000Y-79500000D03*
D16*
X115500000Y-87000000D03*
D17*
X156120000Y-101000000D03*
X148500000Y-101000000D03*
D13*
X153000000Y-86500000D03*
D18*
X153000000Y-90000000D03*
D19*
X127000000Y-77300000D03*
D20*
X127000000Y-90000000D03*
D21*
X132000000Y-95000000D03*
X132000000Y-106440000D03*
D22*
X93500000Y-77600000D03*
D23*
X93500000Y-88000000D03*
D22*
X103900000Y-88000000D03*
X103900000Y-77600000D03*
D24*
X150000000Y-62750000D03*
X142000000Y-62750000D03*
X112000000Y-62750000D03*
X104000000Y-62750000D03*
D25*
X93500000Y-90700000D02*
X95800000Y-93000000D01*
X93500000Y-88000000D02*
X93500000Y-90700000D01*
X95800000Y-93000000D02*
X107000000Y-93000000D01*
X107000000Y-93000000D02*
X112000000Y-88000000D01*
X112900000Y-87000000D02*
X115500000Y-87000000D01*
X112000000Y-88000000D02*
X112000000Y-87900000D01*
X112000000Y-87900000D02*
X112900000Y-87000000D01*
X112500000Y-92600000D02*
X112500000Y-97350000D01*
X115500000Y-87000000D02*
X115500000Y-89600000D01*
X115500000Y-89600000D02*
X112500000Y-92600000D01*
X146000000Y-92000000D02*
X141000000Y-87000000D01*
X146000000Y-102000000D02*
X147000000Y-101000000D01*
X147000000Y-101000000D02*
X146000000Y-100000000D01*
X146000000Y-92000000D02*
X146000000Y-100000000D01*
X146000000Y-100000000D02*
X146000000Y-102000000D01*
X148500000Y-101000000D02*
X147000000Y-101000000D01*
X132000000Y-92454416D02*
X137454416Y-87000000D01*
X132000000Y-95000000D02*
X132000000Y-92454416D01*
X137454416Y-87000000D02*
X141000000Y-87000000D01*
X146000000Y-109000000D02*
X146000000Y-102000000D01*
X117431370Y-111200000D02*
X118381370Y-110250000D01*
X118381370Y-110250000D02*
X133500000Y-110250000D01*
X144710000Y-110290000D02*
X146000000Y-109000000D01*
X116300000Y-111200000D02*
X117431370Y-111200000D01*
X133500000Y-110250000D02*
X144710000Y-110290000D01*
X93500000Y-73250000D02*
X104000000Y-62750000D01*
X93500000Y-77600000D02*
X93500000Y-73250000D01*
X99000000Y-83100000D02*
X103900000Y-88000000D01*
X99000000Y-75750000D02*
X99000000Y-83100000D01*
X112000000Y-62750000D02*
X99000000Y-75750000D01*
X132500000Y-106440000D02*
X132500000Y-106500000D01*
X116300000Y-99050000D02*
X116300000Y-95200000D01*
X116300000Y-95200000D02*
X121500000Y-90000000D01*
X121500000Y-90000000D02*
X127000000Y-90000000D01*
X127000000Y-101440000D02*
X132000000Y-106440000D01*
X127000000Y-90000000D02*
X127000000Y-101440000D01*
X142000000Y-63000000D02*
X143000000Y-63000000D01*
X156120000Y-101000000D02*
X156636000Y-101000000D01*
X156120000Y-101000000D02*
X158000000Y-99120000D01*
X155800000Y-90000000D02*
X157800000Y-92000000D01*
X157800000Y-92000000D02*
X158000000Y-92000000D01*
X153000000Y-90000000D02*
X155800000Y-90000000D01*
X158000000Y-99120000D02*
X158000000Y-92000000D01*
X158000000Y-87800000D02*
X158000000Y-87750000D01*
X155800000Y-90000000D02*
X158000000Y-87800000D01*
X158000000Y-92000000D02*
X158000000Y-87750000D01*
X158000000Y-87750000D02*
X158000000Y-79000000D01*
X158000000Y-77000000D02*
X158000000Y-79000000D01*
X158000000Y-76500000D02*
X158000000Y-77000000D01*
X158000000Y-78750000D02*
X158000000Y-79000000D01*
X142000000Y-62750000D02*
X158000000Y-78750000D01*
X150380000Y-78280000D02*
X152000000Y-79900000D01*
X152000000Y-79900000D02*
X154700000Y-79900000D01*
X150380000Y-76500000D02*
X150380000Y-78280000D01*
X116300000Y-102450000D02*
X116300000Y-108000000D01*
X116300000Y-108000000D02*
X114300000Y-108000000D01*
X111100000Y-111200000D02*
X108680000Y-111200000D01*
X114300000Y-108000000D02*
X111100000Y-111200000D01*
M02*
