G04 #@! TF.GenerationSoftware,KiCad,Pcbnew,(5.1.5)-3*
G04 #@! TF.CreationDate,2020-11-02T14:07:51+02:00*
G04 #@! TF.ProjectId,c64-wedge-psu-pcb,6336342d-7765-4646-9765-2d7073752d70,rev?*
G04 #@! TF.SameCoordinates,Original*
G04 #@! TF.FileFunction,Copper,L2,Bot*
G04 #@! TF.FilePolarity,Positive*
%FSLAX46Y46*%
G04 Gerber Fmt 4.6, Leading zero omitted, Abs format (unit mm)*
G04 Created by KiCad (PCBNEW (5.1.5)-3) date 2020-11-02 14:07:51*
%MOMM*%
%LPD*%
G04 APERTURE LIST*
%ADD10O,2.400000X2.400000*%
%ADD11C,2.400000*%
%ADD12O,3.200000X3.200000*%
%ADD13R,3.200000X3.200000*%
%ADD14C,1.600000*%
%ADD15C,3.600000*%
%ADD16R,2.400000X2.400000*%
%ADD17O,1.800000X1.800000*%
%ADD18R,1.800000X1.800000*%
%ADD19O,1.600000X1.600000*%
%ADD20R,1.700000X1.700000*%
%ADD21O,1.700000X1.700000*%
%ADD22C,2.600000*%
%ADD23R,2.600000X2.600000*%
%ADD24R,1.600000X1.600000*%
%ADD25C,4.500880*%
%ADD26C,0.650000*%
G04 APERTURE END LIST*
D10*
X117500000Y-100380000D03*
D11*
X117500000Y-108000000D03*
D12*
X128500000Y-77300000D03*
D13*
X128500000Y-90000000D03*
D14*
X156100000Y-101000000D03*
X149000000Y-101000000D03*
D15*
X132500000Y-107440000D03*
X132500000Y-96000000D03*
D11*
X116000000Y-80500000D03*
D16*
X116000000Y-88000000D03*
D17*
X110000000Y-104700000D03*
X113800000Y-103000000D03*
X110000000Y-101300000D03*
X113800000Y-99600000D03*
D18*
X110000000Y-97900000D03*
D19*
X149380000Y-76500000D03*
D14*
X157000000Y-76500000D03*
D20*
X152000000Y-80500000D03*
D21*
X154540000Y-80500000D03*
D22*
X93500000Y-77600000D03*
D23*
X93500000Y-88000000D03*
D22*
X103900000Y-88000000D03*
X103900000Y-77600000D03*
D14*
X153500000Y-86000000D03*
D24*
X156000000Y-86000000D03*
D11*
X141000000Y-80500000D03*
D16*
X141000000Y-88000000D03*
D25*
X150000000Y-63000000D03*
X142000000Y-63000000D03*
X112000000Y-63000000D03*
X104000000Y-63000000D03*
D26*
G36*
X101141652Y-61472181D02*
G01*
X100898511Y-62059174D01*
X100774560Y-62682322D01*
X100774560Y-63317678D01*
X100898511Y-63940826D01*
X101141652Y-64527819D01*
X101494637Y-65056098D01*
X101943902Y-65505363D01*
X102472181Y-65858348D01*
X103059174Y-66101489D01*
X103682322Y-66225440D01*
X104317678Y-66225440D01*
X104940826Y-66101489D01*
X105527819Y-65858348D01*
X106056098Y-65505363D01*
X106505363Y-65056098D01*
X106858348Y-64527819D01*
X107101489Y-63940826D01*
X107225440Y-63317678D01*
X107225440Y-62682322D01*
X107101489Y-62059174D01*
X106858348Y-61472181D01*
X106542847Y-61000000D01*
X109457153Y-61000000D01*
X109141652Y-61472181D01*
X108898511Y-62059174D01*
X108774560Y-62682322D01*
X108774560Y-63317678D01*
X108898511Y-63940826D01*
X109141652Y-64527819D01*
X109494637Y-65056098D01*
X109943902Y-65505363D01*
X110472181Y-65858348D01*
X111059174Y-66101489D01*
X111682322Y-66225440D01*
X112317678Y-66225440D01*
X112940826Y-66101489D01*
X113527819Y-65858348D01*
X114056098Y-65505363D01*
X114505363Y-65056098D01*
X114858348Y-64527819D01*
X115101489Y-63940826D01*
X115225440Y-63317678D01*
X115225440Y-62682322D01*
X115101489Y-62059174D01*
X114858348Y-61472181D01*
X114542847Y-61000000D01*
X139457153Y-61000000D01*
X139141652Y-61472181D01*
X138898511Y-62059174D01*
X138774560Y-62682322D01*
X138774560Y-63317678D01*
X138898511Y-63940826D01*
X139141652Y-64527819D01*
X139494637Y-65056098D01*
X139943902Y-65505363D01*
X140472181Y-65858348D01*
X141059174Y-66101489D01*
X141682322Y-66225440D01*
X142317678Y-66225440D01*
X142940826Y-66101489D01*
X143527819Y-65858348D01*
X144056098Y-65505363D01*
X144224738Y-65336723D01*
X148122897Y-65336723D01*
X148367493Y-65799876D01*
X148945090Y-66064564D01*
X149563227Y-66211482D01*
X150198148Y-66234985D01*
X150825455Y-66134168D01*
X151421039Y-65912907D01*
X151632507Y-65799876D01*
X151877103Y-65336723D01*
X150000000Y-63459619D01*
X148122897Y-65336723D01*
X144224738Y-65336723D01*
X144505363Y-65056098D01*
X144858348Y-64527819D01*
X145101489Y-63940826D01*
X145225440Y-63317678D01*
X145225440Y-62682322D01*
X145101489Y-62059174D01*
X144858348Y-61472181D01*
X144542847Y-61000000D01*
X147540378Y-61000000D01*
X147663276Y-61122898D01*
X147200124Y-61367493D01*
X146935436Y-61945090D01*
X146788518Y-62563227D01*
X146765015Y-63198148D01*
X146865832Y-63825455D01*
X147087093Y-64421039D01*
X147200124Y-64632507D01*
X147663277Y-64877103D01*
X149540381Y-63000000D01*
X149526238Y-62985858D01*
X149985858Y-62526238D01*
X150000000Y-62540381D01*
X150014142Y-62526238D01*
X150473762Y-62985858D01*
X150459619Y-63000000D01*
X152336723Y-64877103D01*
X152799876Y-64632507D01*
X153064564Y-64054910D01*
X153211482Y-63436773D01*
X153234985Y-62801852D01*
X153134168Y-62174545D01*
X152912907Y-61578961D01*
X152799876Y-61367493D01*
X152336724Y-61122898D01*
X152459622Y-61000000D01*
X159000000Y-61000000D01*
X159000001Y-89675000D01*
X143051647Y-89675000D01*
X143105140Y-89574921D01*
X143160892Y-89391133D01*
X143179717Y-89200000D01*
X143179717Y-86800000D01*
X143160892Y-86608867D01*
X143105140Y-86425079D01*
X143014605Y-86255698D01*
X142892765Y-86107235D01*
X142744302Y-85985395D01*
X142596923Y-85906620D01*
X151718858Y-85906620D01*
X151734865Y-86255898D01*
X151818705Y-86595341D01*
X151890175Y-86767885D01*
X152205889Y-86834492D01*
X153040381Y-86000000D01*
X152205889Y-85165508D01*
X151890175Y-85232115D01*
X151771300Y-85560931D01*
X151718858Y-85906620D01*
X142596923Y-85906620D01*
X142574921Y-85894860D01*
X142391133Y-85839108D01*
X142200000Y-85820283D01*
X139800000Y-85820283D01*
X139608867Y-85839108D01*
X139425079Y-85894860D01*
X139255698Y-85985395D01*
X139107235Y-86107235D01*
X138985395Y-86255698D01*
X138894860Y-86425079D01*
X138839108Y-86608867D01*
X138820283Y-86800000D01*
X138820283Y-89200000D01*
X138839108Y-89391133D01*
X138894860Y-89574921D01*
X138948353Y-89675000D01*
X131079717Y-89675000D01*
X131079717Y-88400000D01*
X131060892Y-88208867D01*
X131005140Y-88025079D01*
X130914605Y-87855698D01*
X130792765Y-87707235D01*
X130644302Y-87585395D01*
X130474921Y-87494860D01*
X130291133Y-87439108D01*
X130100000Y-87420283D01*
X126900000Y-87420283D01*
X126708867Y-87439108D01*
X126525079Y-87494860D01*
X126355698Y-87585395D01*
X126207235Y-87707235D01*
X126085395Y-87855698D01*
X125994860Y-88025079D01*
X125939108Y-88208867D01*
X125920283Y-88400000D01*
X125920283Y-89675000D01*
X118051647Y-89675000D01*
X118105140Y-89574921D01*
X118160892Y-89391133D01*
X118179717Y-89200000D01*
X118179717Y-86800000D01*
X118160892Y-86608867D01*
X118105140Y-86425079D01*
X118014605Y-86255698D01*
X117892765Y-86107235D01*
X117744302Y-85985395D01*
X117574921Y-85894860D01*
X117391133Y-85839108D01*
X117200000Y-85820283D01*
X114800000Y-85820283D01*
X114608867Y-85839108D01*
X114425079Y-85894860D01*
X114255698Y-85985395D01*
X114107235Y-86107235D01*
X113985395Y-86255698D01*
X113894860Y-86425079D01*
X113839108Y-86608867D01*
X113820283Y-86800000D01*
X113820283Y-89200000D01*
X113839108Y-89391133D01*
X113894860Y-89574921D01*
X113985395Y-89744302D01*
X114107235Y-89892765D01*
X114255698Y-90014605D01*
X114425079Y-90105140D01*
X114608867Y-90160892D01*
X114800000Y-90179717D01*
X117200000Y-90179717D01*
X117391133Y-90160892D01*
X117574921Y-90105140D01*
X117675000Y-90051647D01*
X117675000Y-98205000D01*
X117285781Y-98205000D01*
X116865576Y-98288584D01*
X116469751Y-98452540D01*
X116113518Y-98690567D01*
X115810567Y-98993518D01*
X115641443Y-99246630D01*
X115602944Y-99053083D01*
X115461603Y-98711855D01*
X115256407Y-98404757D01*
X114995243Y-98143593D01*
X114688145Y-97938397D01*
X114346917Y-97797056D01*
X113984671Y-97725000D01*
X113615329Y-97725000D01*
X113253083Y-97797056D01*
X112911855Y-97938397D01*
X112604757Y-98143593D01*
X112343593Y-98404757D01*
X112138397Y-98711855D01*
X111997056Y-99053083D01*
X111925000Y-99415329D01*
X111925000Y-99784671D01*
X111997056Y-100146917D01*
X112138397Y-100488145D01*
X112343593Y-100795243D01*
X112604757Y-101056407D01*
X112911855Y-101261603D01*
X113004554Y-101300000D01*
X112911855Y-101338397D01*
X112604757Y-101543593D01*
X112343593Y-101804757D01*
X112138397Y-102111855D01*
X111997056Y-102453083D01*
X111925000Y-102815329D01*
X111925000Y-103184671D01*
X111997056Y-103546917D01*
X112138397Y-103888145D01*
X112343593Y-104195243D01*
X112604757Y-104456407D01*
X112911855Y-104661603D01*
X113253083Y-104802944D01*
X113615329Y-104875000D01*
X113984671Y-104875000D01*
X114346917Y-104802944D01*
X114688145Y-104661603D01*
X114995243Y-104456407D01*
X115256407Y-104195243D01*
X115461603Y-103888145D01*
X115602944Y-103546917D01*
X115675000Y-103184671D01*
X115675000Y-102815329D01*
X115602944Y-102453083D01*
X115461603Y-102111855D01*
X115256407Y-101804757D01*
X114995243Y-101543593D01*
X114688145Y-101338397D01*
X114595446Y-101300000D01*
X114688145Y-101261603D01*
X114995243Y-101056407D01*
X115256407Y-100795243D01*
X115340078Y-100670021D01*
X115408584Y-101014424D01*
X115572540Y-101410249D01*
X115810567Y-101766482D01*
X116113518Y-102069433D01*
X116469751Y-102307460D01*
X116865576Y-102471416D01*
X117285781Y-102555000D01*
X117675000Y-102555000D01*
X117675000Y-105825000D01*
X117285781Y-105825000D01*
X116865576Y-105908584D01*
X116469751Y-106072540D01*
X116113518Y-106310567D01*
X115810567Y-106613518D01*
X115572540Y-106969751D01*
X115408584Y-107365576D01*
X115325000Y-107785781D01*
X115325000Y-108214219D01*
X115408584Y-108634424D01*
X115572540Y-109030249D01*
X115810567Y-109386482D01*
X116113518Y-109689433D01*
X116469751Y-109927460D01*
X116865576Y-110091416D01*
X117285781Y-110175000D01*
X117675000Y-110175000D01*
X117675000Y-113000000D01*
X91000000Y-113000000D01*
X91000000Y-105309875D01*
X108226948Y-105309875D01*
X108379997Y-105644062D01*
X108595302Y-105941969D01*
X108864589Y-106192148D01*
X109177509Y-106384984D01*
X109390126Y-106473043D01*
X109675000Y-106298547D01*
X109675000Y-105025000D01*
X110325000Y-105025000D01*
X110325000Y-106298547D01*
X110609874Y-106473043D01*
X110822491Y-106384984D01*
X111135411Y-106192148D01*
X111404698Y-105941969D01*
X111620003Y-105644062D01*
X111773052Y-105309875D01*
X111602878Y-105025000D01*
X110325000Y-105025000D01*
X109675000Y-105025000D01*
X108397122Y-105025000D01*
X108226948Y-105309875D01*
X91000000Y-105309875D01*
X91000000Y-101031611D01*
X91095000Y-101031611D01*
X91095000Y-101568389D01*
X91199720Y-102094853D01*
X91405136Y-102590771D01*
X91703354Y-103037086D01*
X92082914Y-103416646D01*
X92529229Y-103714864D01*
X93025147Y-103920280D01*
X93551611Y-104025000D01*
X94088389Y-104025000D01*
X94614853Y-103920280D01*
X95110771Y-103714864D01*
X95557086Y-103416646D01*
X95936646Y-103037086D01*
X96234864Y-102590771D01*
X96440280Y-102094853D01*
X96477074Y-101909875D01*
X108226948Y-101909875D01*
X108379997Y-102244062D01*
X108595302Y-102541969D01*
X108864589Y-102792148D01*
X109177509Y-102984984D01*
X109213765Y-103000000D01*
X109177509Y-103015016D01*
X108864589Y-103207852D01*
X108595302Y-103458031D01*
X108379997Y-103755938D01*
X108226948Y-104090125D01*
X108397122Y-104375000D01*
X109675000Y-104375000D01*
X109675000Y-103101453D01*
X109509373Y-103000000D01*
X109675000Y-102898547D01*
X109675000Y-101625000D01*
X110325000Y-101625000D01*
X110325000Y-102898547D01*
X110490627Y-103000000D01*
X110325000Y-103101453D01*
X110325000Y-104375000D01*
X111602878Y-104375000D01*
X111773052Y-104090125D01*
X111620003Y-103755938D01*
X111404698Y-103458031D01*
X111135411Y-103207852D01*
X110822491Y-103015016D01*
X110786235Y-103000000D01*
X110822491Y-102984984D01*
X111135411Y-102792148D01*
X111404698Y-102541969D01*
X111620003Y-102244062D01*
X111773052Y-101909875D01*
X111602878Y-101625000D01*
X110325000Y-101625000D01*
X109675000Y-101625000D01*
X108397122Y-101625000D01*
X108226948Y-101909875D01*
X96477074Y-101909875D01*
X96545000Y-101568389D01*
X96545000Y-101031611D01*
X96440280Y-100505147D01*
X96234864Y-100009229D01*
X95936646Y-99562914D01*
X95557086Y-99183354D01*
X95110771Y-98885136D01*
X94614853Y-98679720D01*
X94088389Y-98575000D01*
X93551611Y-98575000D01*
X93025147Y-98679720D01*
X92529229Y-98885136D01*
X92082914Y-99183354D01*
X91703354Y-99562914D01*
X91405136Y-100009229D01*
X91199720Y-100505147D01*
X91095000Y-101031611D01*
X91000000Y-101031611D01*
X91000000Y-97000000D01*
X108120283Y-97000000D01*
X108120283Y-98800000D01*
X108139108Y-98991133D01*
X108194860Y-99174921D01*
X108285395Y-99344302D01*
X108407235Y-99492765D01*
X108555698Y-99614605D01*
X108725079Y-99705140D01*
X108908867Y-99760892D01*
X108936393Y-99763603D01*
X108864589Y-99807852D01*
X108595302Y-100058031D01*
X108379997Y-100355938D01*
X108226948Y-100690125D01*
X108397122Y-100975000D01*
X109675000Y-100975000D01*
X109675000Y-100955000D01*
X110325000Y-100955000D01*
X110325000Y-100975000D01*
X111602878Y-100975000D01*
X111773052Y-100690125D01*
X111620003Y-100355938D01*
X111404698Y-100058031D01*
X111135411Y-99807852D01*
X111063607Y-99763603D01*
X111091133Y-99760892D01*
X111274921Y-99705140D01*
X111444302Y-99614605D01*
X111592765Y-99492765D01*
X111714605Y-99344302D01*
X111805140Y-99174921D01*
X111860892Y-98991133D01*
X111879717Y-98800000D01*
X111879717Y-97000000D01*
X111860892Y-96808867D01*
X111805140Y-96625079D01*
X111714605Y-96455698D01*
X111592765Y-96307235D01*
X111444302Y-96185395D01*
X111274921Y-96094860D01*
X111091133Y-96039108D01*
X110900000Y-96020283D01*
X109100000Y-96020283D01*
X108908867Y-96039108D01*
X108725079Y-96094860D01*
X108555698Y-96185395D01*
X108407235Y-96307235D01*
X108285395Y-96455698D01*
X108194860Y-96625079D01*
X108139108Y-96808867D01*
X108120283Y-97000000D01*
X91000000Y-97000000D01*
X91000000Y-86700000D01*
X91220283Y-86700000D01*
X91220283Y-89300000D01*
X91239108Y-89491133D01*
X91294860Y-89674921D01*
X91385395Y-89844302D01*
X91507235Y-89992765D01*
X91655698Y-90114605D01*
X91825079Y-90205140D01*
X92008867Y-90260892D01*
X92200000Y-90279717D01*
X94800000Y-90279717D01*
X94991133Y-90260892D01*
X95174921Y-90205140D01*
X95344302Y-90114605D01*
X95492765Y-89992765D01*
X95614605Y-89844302D01*
X95705140Y-89674921D01*
X95760892Y-89491133D01*
X95779717Y-89300000D01*
X95779717Y-87775932D01*
X101625000Y-87775932D01*
X101625000Y-88224068D01*
X101712427Y-88663593D01*
X101883921Y-89077617D01*
X102132892Y-89450228D01*
X102449772Y-89767108D01*
X102822383Y-90016079D01*
X103236407Y-90187573D01*
X103675932Y-90275000D01*
X104124068Y-90275000D01*
X104563593Y-90187573D01*
X104977617Y-90016079D01*
X105350228Y-89767108D01*
X105667108Y-89450228D01*
X105916079Y-89077617D01*
X106087573Y-88663593D01*
X106175000Y-88224068D01*
X106175000Y-87775932D01*
X106087573Y-87336407D01*
X105916079Y-86922383D01*
X105667108Y-86549772D01*
X105350228Y-86232892D01*
X104977617Y-85983921D01*
X104563593Y-85812427D01*
X104124068Y-85725000D01*
X103675932Y-85725000D01*
X103236407Y-85812427D01*
X102822383Y-85983921D01*
X102449772Y-86232892D01*
X102132892Y-86549772D01*
X101883921Y-86922383D01*
X101712427Y-87336407D01*
X101625000Y-87775932D01*
X95779717Y-87775932D01*
X95779717Y-86700000D01*
X95760892Y-86508867D01*
X95705140Y-86325079D01*
X95614605Y-86155698D01*
X95492765Y-86007235D01*
X95344302Y-85885395D01*
X95174921Y-85794860D01*
X94991133Y-85739108D01*
X94800000Y-85720283D01*
X92200000Y-85720283D01*
X92008867Y-85739108D01*
X91825079Y-85794860D01*
X91655698Y-85885395D01*
X91507235Y-86007235D01*
X91385395Y-86155698D01*
X91294860Y-86325079D01*
X91239108Y-86508867D01*
X91220283Y-86700000D01*
X91000000Y-86700000D01*
X91000000Y-84705889D01*
X152665508Y-84705889D01*
X153500000Y-85540381D01*
X153514143Y-85526239D01*
X153973762Y-85985858D01*
X153959619Y-86000000D01*
X153973762Y-86014143D01*
X153514143Y-86473762D01*
X153500000Y-86459619D01*
X152665508Y-87294111D01*
X152732115Y-87609825D01*
X153060931Y-87728700D01*
X153406620Y-87781142D01*
X153755898Y-87765135D01*
X154095341Y-87681295D01*
X154267885Y-87609825D01*
X154334491Y-87294114D01*
X154388671Y-87348294D01*
X154507235Y-87492765D01*
X154655698Y-87614605D01*
X154825079Y-87705140D01*
X155008867Y-87760892D01*
X155200000Y-87779717D01*
X156800000Y-87779717D01*
X156991133Y-87760892D01*
X157174921Y-87705140D01*
X157344302Y-87614605D01*
X157492765Y-87492765D01*
X157614605Y-87344302D01*
X157705140Y-87174921D01*
X157760892Y-86991133D01*
X157779717Y-86800000D01*
X157779717Y-85200000D01*
X157760892Y-85008867D01*
X157705140Y-84825079D01*
X157614605Y-84655698D01*
X157492765Y-84507235D01*
X157344302Y-84385395D01*
X157174921Y-84294860D01*
X156991133Y-84239108D01*
X156800000Y-84220283D01*
X155200000Y-84220283D01*
X155008867Y-84239108D01*
X154825079Y-84294860D01*
X154655698Y-84385395D01*
X154507235Y-84507235D01*
X154388671Y-84651706D01*
X154334491Y-84705886D01*
X154267885Y-84390175D01*
X153939069Y-84271300D01*
X153593380Y-84218858D01*
X153244102Y-84234865D01*
X152904659Y-84318705D01*
X152732115Y-84390175D01*
X152665508Y-84705889D01*
X91000000Y-84705889D01*
X91000000Y-82083483D01*
X114876137Y-82083483D01*
X114992595Y-82439498D01*
X115390329Y-82598766D01*
X115811492Y-82677380D01*
X116239900Y-82672318D01*
X116659089Y-82583776D01*
X117007405Y-82439498D01*
X117123863Y-82083483D01*
X139876137Y-82083483D01*
X139992595Y-82439498D01*
X140390329Y-82598766D01*
X140811492Y-82677380D01*
X141239900Y-82672318D01*
X141659089Y-82583776D01*
X142007405Y-82439498D01*
X142123863Y-82083483D01*
X141000000Y-80959619D01*
X139876137Y-82083483D01*
X117123863Y-82083483D01*
X116000000Y-80959619D01*
X114876137Y-82083483D01*
X91000000Y-82083483D01*
X91000000Y-80311492D01*
X113822620Y-80311492D01*
X113827682Y-80739900D01*
X113916224Y-81159089D01*
X114060502Y-81507405D01*
X114416517Y-81623863D01*
X115540381Y-80500000D01*
X116459619Y-80500000D01*
X117583483Y-81623863D01*
X117939498Y-81507405D01*
X118098766Y-81109671D01*
X118177380Y-80688508D01*
X118172926Y-80311492D01*
X138822620Y-80311492D01*
X138827682Y-80739900D01*
X138916224Y-81159089D01*
X139060502Y-81507405D01*
X139416517Y-81623863D01*
X140540381Y-80500000D01*
X141459619Y-80500000D01*
X142583483Y-81623863D01*
X142939498Y-81507405D01*
X143098766Y-81109671D01*
X143177380Y-80688508D01*
X143172318Y-80260100D01*
X143083776Y-79840911D01*
X143004698Y-79650000D01*
X150170283Y-79650000D01*
X150170283Y-81350000D01*
X150189108Y-81541133D01*
X150244860Y-81724921D01*
X150335395Y-81894302D01*
X150457235Y-82042765D01*
X150605698Y-82164605D01*
X150775079Y-82255140D01*
X150958867Y-82310892D01*
X151150000Y-82329717D01*
X152850000Y-82329717D01*
X153041133Y-82310892D01*
X153224921Y-82255140D01*
X153394302Y-82164605D01*
X153542765Y-82042765D01*
X153555672Y-82027037D01*
X153747364Y-82143895D01*
X153938072Y-82222877D01*
X154215000Y-82047490D01*
X154215000Y-80825000D01*
X154865000Y-80825000D01*
X154865000Y-82047490D01*
X155141928Y-82222877D01*
X155332636Y-82143895D01*
X155638114Y-81957672D01*
X155901392Y-81715432D01*
X156112352Y-81426483D01*
X156262888Y-81101930D01*
X156092089Y-80825000D01*
X154865000Y-80825000D01*
X154215000Y-80825000D01*
X154195000Y-80825000D01*
X154195000Y-80175000D01*
X154215000Y-80175000D01*
X154215000Y-78952510D01*
X154865000Y-78952510D01*
X154865000Y-80175000D01*
X156092089Y-80175000D01*
X156262888Y-79898070D01*
X156112352Y-79573517D01*
X155901392Y-79284568D01*
X155638114Y-79042328D01*
X155332636Y-78856105D01*
X155141928Y-78777123D01*
X154865000Y-78952510D01*
X154215000Y-78952510D01*
X153938072Y-78777123D01*
X153747364Y-78856105D01*
X153555672Y-78972963D01*
X153542765Y-78957235D01*
X153394302Y-78835395D01*
X153224921Y-78744860D01*
X153041133Y-78689108D01*
X152850000Y-78670283D01*
X151150000Y-78670283D01*
X150958867Y-78689108D01*
X150775079Y-78744860D01*
X150605698Y-78835395D01*
X150457235Y-78957235D01*
X150335395Y-79105698D01*
X150244860Y-79275079D01*
X150189108Y-79458867D01*
X150170283Y-79650000D01*
X143004698Y-79650000D01*
X142939498Y-79492595D01*
X142583483Y-79376137D01*
X141459619Y-80500000D01*
X140540381Y-80500000D01*
X139416517Y-79376137D01*
X139060502Y-79492595D01*
X138901234Y-79890329D01*
X138822620Y-80311492D01*
X118172926Y-80311492D01*
X118172318Y-80260100D01*
X118083776Y-79840911D01*
X117939498Y-79492595D01*
X117583483Y-79376137D01*
X116459619Y-80500000D01*
X115540381Y-80500000D01*
X114416517Y-79376137D01*
X114060502Y-79492595D01*
X113901234Y-79890329D01*
X113822620Y-80311492D01*
X91000000Y-80311492D01*
X91000000Y-77375932D01*
X91225000Y-77375932D01*
X91225000Y-77824068D01*
X91312427Y-78263593D01*
X91483921Y-78677617D01*
X91732892Y-79050228D01*
X92049772Y-79367108D01*
X92422383Y-79616079D01*
X92836407Y-79787573D01*
X93275932Y-79875000D01*
X93724068Y-79875000D01*
X94163593Y-79787573D01*
X94577617Y-79616079D01*
X94950228Y-79367108D01*
X95061835Y-79255501D01*
X102704118Y-79255501D01*
X102832897Y-79621664D01*
X103247809Y-79791000D01*
X103687783Y-79876137D01*
X104135913Y-79873803D01*
X104574977Y-79784088D01*
X104967103Y-79621664D01*
X105095882Y-79255501D01*
X104756898Y-78916517D01*
X114876137Y-78916517D01*
X116000000Y-80040381D01*
X117123863Y-78916517D01*
X117007405Y-78560502D01*
X116609671Y-78401234D01*
X116188508Y-78322620D01*
X115760100Y-78327682D01*
X115340911Y-78416224D01*
X114992595Y-78560502D01*
X114876137Y-78916517D01*
X104756898Y-78916517D01*
X103900000Y-78059619D01*
X102704118Y-79255501D01*
X95061835Y-79255501D01*
X95267108Y-79050228D01*
X95516079Y-78677617D01*
X95687573Y-78263593D01*
X95775000Y-77824068D01*
X95775000Y-77387783D01*
X101623863Y-77387783D01*
X101626197Y-77835913D01*
X101715912Y-78274977D01*
X101878336Y-78667103D01*
X102244499Y-78795882D01*
X103440381Y-77600000D01*
X104359619Y-77600000D01*
X105555501Y-78795882D01*
X105921664Y-78667103D01*
X106091000Y-78252191D01*
X106135814Y-78020597D01*
X126027875Y-78020597D01*
X126215958Y-78489039D01*
X126491815Y-78911786D01*
X126844846Y-79272593D01*
X127261483Y-79557595D01*
X127725716Y-79755839D01*
X127779404Y-79772118D01*
X128175000Y-79608485D01*
X128175000Y-77625000D01*
X128825000Y-77625000D01*
X128825000Y-79608485D01*
X129220596Y-79772118D01*
X129274284Y-79755839D01*
X129738517Y-79557595D01*
X130155154Y-79272593D01*
X130503555Y-78916517D01*
X139876137Y-78916517D01*
X141000000Y-80040381D01*
X142123863Y-78916517D01*
X142007405Y-78560502D01*
X141609671Y-78401234D01*
X141188508Y-78322620D01*
X140760100Y-78327682D01*
X140340911Y-78416224D01*
X139992595Y-78560502D01*
X139876137Y-78916517D01*
X130503555Y-78916517D01*
X130508185Y-78911786D01*
X130784042Y-78489039D01*
X130972125Y-78020597D01*
X130810665Y-77625000D01*
X128825000Y-77625000D01*
X128175000Y-77625000D01*
X126189335Y-77625000D01*
X126027875Y-78020597D01*
X106135814Y-78020597D01*
X106176137Y-77812217D01*
X106173803Y-77364087D01*
X106084088Y-76925023D01*
X105940928Y-76579403D01*
X126027875Y-76579403D01*
X126189335Y-76975000D01*
X128175000Y-76975000D01*
X128175000Y-74991515D01*
X128825000Y-74991515D01*
X128825000Y-76975000D01*
X130810665Y-76975000D01*
X130972125Y-76579403D01*
X130870052Y-76325178D01*
X147605000Y-76325178D01*
X147605000Y-76674822D01*
X147673213Y-77017748D01*
X147807016Y-77340778D01*
X148001268Y-77631496D01*
X148248504Y-77878732D01*
X148539222Y-78072984D01*
X148862252Y-78206787D01*
X149205178Y-78275000D01*
X149554822Y-78275000D01*
X149897748Y-78206787D01*
X150220778Y-78072984D01*
X150511496Y-77878732D01*
X150758732Y-77631496D01*
X150952984Y-77340778D01*
X151086787Y-77017748D01*
X151155000Y-76674822D01*
X151155000Y-76325178D01*
X155225000Y-76325178D01*
X155225000Y-76674822D01*
X155293213Y-77017748D01*
X155427016Y-77340778D01*
X155621268Y-77631496D01*
X155868504Y-77878732D01*
X156159222Y-78072984D01*
X156482252Y-78206787D01*
X156825178Y-78275000D01*
X157174822Y-78275000D01*
X157517748Y-78206787D01*
X157840778Y-78072984D01*
X158131496Y-77878732D01*
X158378732Y-77631496D01*
X158572984Y-77340778D01*
X158706787Y-77017748D01*
X158775000Y-76674822D01*
X158775000Y-76325178D01*
X158706787Y-75982252D01*
X158572984Y-75659222D01*
X158378732Y-75368504D01*
X158131496Y-75121268D01*
X157840778Y-74927016D01*
X157517748Y-74793213D01*
X157174822Y-74725000D01*
X156825178Y-74725000D01*
X156482252Y-74793213D01*
X156159222Y-74927016D01*
X155868504Y-75121268D01*
X155621268Y-75368504D01*
X155427016Y-75659222D01*
X155293213Y-75982252D01*
X155225000Y-76325178D01*
X151155000Y-76325178D01*
X151086787Y-75982252D01*
X150952984Y-75659222D01*
X150758732Y-75368504D01*
X150511496Y-75121268D01*
X150220778Y-74927016D01*
X149897748Y-74793213D01*
X149554822Y-74725000D01*
X149205178Y-74725000D01*
X148862252Y-74793213D01*
X148539222Y-74927016D01*
X148248504Y-75121268D01*
X148001268Y-75368504D01*
X147807016Y-75659222D01*
X147673213Y-75982252D01*
X147605000Y-76325178D01*
X130870052Y-76325178D01*
X130784042Y-76110961D01*
X130508185Y-75688214D01*
X130155154Y-75327407D01*
X129738517Y-75042405D01*
X129274284Y-74844161D01*
X129220596Y-74827882D01*
X128825000Y-74991515D01*
X128175000Y-74991515D01*
X127779404Y-74827882D01*
X127725716Y-74844161D01*
X127261483Y-75042405D01*
X126844846Y-75327407D01*
X126491815Y-75688214D01*
X126215958Y-76110961D01*
X126027875Y-76579403D01*
X105940928Y-76579403D01*
X105921664Y-76532897D01*
X105555501Y-76404118D01*
X104359619Y-77600000D01*
X103440381Y-77600000D01*
X102244499Y-76404118D01*
X101878336Y-76532897D01*
X101709000Y-76947809D01*
X101623863Y-77387783D01*
X95775000Y-77387783D01*
X95775000Y-77375932D01*
X95687573Y-76936407D01*
X95516079Y-76522383D01*
X95267108Y-76149772D01*
X95061835Y-75944499D01*
X102704118Y-75944499D01*
X103900000Y-77140381D01*
X105095882Y-75944499D01*
X104967103Y-75578336D01*
X104552191Y-75409000D01*
X104112217Y-75323863D01*
X103664087Y-75326197D01*
X103225023Y-75415912D01*
X102832897Y-75578336D01*
X102704118Y-75944499D01*
X95061835Y-75944499D01*
X94950228Y-75832892D01*
X94577617Y-75583921D01*
X94163593Y-75412427D01*
X93724068Y-75325000D01*
X93275932Y-75325000D01*
X92836407Y-75412427D01*
X92422383Y-75583921D01*
X92049772Y-75832892D01*
X91732892Y-76149772D01*
X91483921Y-76522383D01*
X91312427Y-76936407D01*
X91225000Y-77375932D01*
X91000000Y-77375932D01*
X91000000Y-61000000D01*
X101457153Y-61000000D01*
X101141652Y-61472181D01*
G37*
X101141652Y-61472181D02*
X100898511Y-62059174D01*
X100774560Y-62682322D01*
X100774560Y-63317678D01*
X100898511Y-63940826D01*
X101141652Y-64527819D01*
X101494637Y-65056098D01*
X101943902Y-65505363D01*
X102472181Y-65858348D01*
X103059174Y-66101489D01*
X103682322Y-66225440D01*
X104317678Y-66225440D01*
X104940826Y-66101489D01*
X105527819Y-65858348D01*
X106056098Y-65505363D01*
X106505363Y-65056098D01*
X106858348Y-64527819D01*
X107101489Y-63940826D01*
X107225440Y-63317678D01*
X107225440Y-62682322D01*
X107101489Y-62059174D01*
X106858348Y-61472181D01*
X106542847Y-61000000D01*
X109457153Y-61000000D01*
X109141652Y-61472181D01*
X108898511Y-62059174D01*
X108774560Y-62682322D01*
X108774560Y-63317678D01*
X108898511Y-63940826D01*
X109141652Y-64527819D01*
X109494637Y-65056098D01*
X109943902Y-65505363D01*
X110472181Y-65858348D01*
X111059174Y-66101489D01*
X111682322Y-66225440D01*
X112317678Y-66225440D01*
X112940826Y-66101489D01*
X113527819Y-65858348D01*
X114056098Y-65505363D01*
X114505363Y-65056098D01*
X114858348Y-64527819D01*
X115101489Y-63940826D01*
X115225440Y-63317678D01*
X115225440Y-62682322D01*
X115101489Y-62059174D01*
X114858348Y-61472181D01*
X114542847Y-61000000D01*
X139457153Y-61000000D01*
X139141652Y-61472181D01*
X138898511Y-62059174D01*
X138774560Y-62682322D01*
X138774560Y-63317678D01*
X138898511Y-63940826D01*
X139141652Y-64527819D01*
X139494637Y-65056098D01*
X139943902Y-65505363D01*
X140472181Y-65858348D01*
X141059174Y-66101489D01*
X141682322Y-66225440D01*
X142317678Y-66225440D01*
X142940826Y-66101489D01*
X143527819Y-65858348D01*
X144056098Y-65505363D01*
X144224738Y-65336723D01*
X148122897Y-65336723D01*
X148367493Y-65799876D01*
X148945090Y-66064564D01*
X149563227Y-66211482D01*
X150198148Y-66234985D01*
X150825455Y-66134168D01*
X151421039Y-65912907D01*
X151632507Y-65799876D01*
X151877103Y-65336723D01*
X150000000Y-63459619D01*
X148122897Y-65336723D01*
X144224738Y-65336723D01*
X144505363Y-65056098D01*
X144858348Y-64527819D01*
X145101489Y-63940826D01*
X145225440Y-63317678D01*
X145225440Y-62682322D01*
X145101489Y-62059174D01*
X144858348Y-61472181D01*
X144542847Y-61000000D01*
X147540378Y-61000000D01*
X147663276Y-61122898D01*
X147200124Y-61367493D01*
X146935436Y-61945090D01*
X146788518Y-62563227D01*
X146765015Y-63198148D01*
X146865832Y-63825455D01*
X147087093Y-64421039D01*
X147200124Y-64632507D01*
X147663277Y-64877103D01*
X149540381Y-63000000D01*
X149526238Y-62985858D01*
X149985858Y-62526238D01*
X150000000Y-62540381D01*
X150014142Y-62526238D01*
X150473762Y-62985858D01*
X150459619Y-63000000D01*
X152336723Y-64877103D01*
X152799876Y-64632507D01*
X153064564Y-64054910D01*
X153211482Y-63436773D01*
X153234985Y-62801852D01*
X153134168Y-62174545D01*
X152912907Y-61578961D01*
X152799876Y-61367493D01*
X152336724Y-61122898D01*
X152459622Y-61000000D01*
X159000000Y-61000000D01*
X159000001Y-89675000D01*
X143051647Y-89675000D01*
X143105140Y-89574921D01*
X143160892Y-89391133D01*
X143179717Y-89200000D01*
X143179717Y-86800000D01*
X143160892Y-86608867D01*
X143105140Y-86425079D01*
X143014605Y-86255698D01*
X142892765Y-86107235D01*
X142744302Y-85985395D01*
X142596923Y-85906620D01*
X151718858Y-85906620D01*
X151734865Y-86255898D01*
X151818705Y-86595341D01*
X151890175Y-86767885D01*
X152205889Y-86834492D01*
X153040381Y-86000000D01*
X152205889Y-85165508D01*
X151890175Y-85232115D01*
X151771300Y-85560931D01*
X151718858Y-85906620D01*
X142596923Y-85906620D01*
X142574921Y-85894860D01*
X142391133Y-85839108D01*
X142200000Y-85820283D01*
X139800000Y-85820283D01*
X139608867Y-85839108D01*
X139425079Y-85894860D01*
X139255698Y-85985395D01*
X139107235Y-86107235D01*
X138985395Y-86255698D01*
X138894860Y-86425079D01*
X138839108Y-86608867D01*
X138820283Y-86800000D01*
X138820283Y-89200000D01*
X138839108Y-89391133D01*
X138894860Y-89574921D01*
X138948353Y-89675000D01*
X131079717Y-89675000D01*
X131079717Y-88400000D01*
X131060892Y-88208867D01*
X131005140Y-88025079D01*
X130914605Y-87855698D01*
X130792765Y-87707235D01*
X130644302Y-87585395D01*
X130474921Y-87494860D01*
X130291133Y-87439108D01*
X130100000Y-87420283D01*
X126900000Y-87420283D01*
X126708867Y-87439108D01*
X126525079Y-87494860D01*
X126355698Y-87585395D01*
X126207235Y-87707235D01*
X126085395Y-87855698D01*
X125994860Y-88025079D01*
X125939108Y-88208867D01*
X125920283Y-88400000D01*
X125920283Y-89675000D01*
X118051647Y-89675000D01*
X118105140Y-89574921D01*
X118160892Y-89391133D01*
X118179717Y-89200000D01*
X118179717Y-86800000D01*
X118160892Y-86608867D01*
X118105140Y-86425079D01*
X118014605Y-86255698D01*
X117892765Y-86107235D01*
X117744302Y-85985395D01*
X117574921Y-85894860D01*
X117391133Y-85839108D01*
X117200000Y-85820283D01*
X114800000Y-85820283D01*
X114608867Y-85839108D01*
X114425079Y-85894860D01*
X114255698Y-85985395D01*
X114107235Y-86107235D01*
X113985395Y-86255698D01*
X113894860Y-86425079D01*
X113839108Y-86608867D01*
X113820283Y-86800000D01*
X113820283Y-89200000D01*
X113839108Y-89391133D01*
X113894860Y-89574921D01*
X113985395Y-89744302D01*
X114107235Y-89892765D01*
X114255698Y-90014605D01*
X114425079Y-90105140D01*
X114608867Y-90160892D01*
X114800000Y-90179717D01*
X117200000Y-90179717D01*
X117391133Y-90160892D01*
X117574921Y-90105140D01*
X117675000Y-90051647D01*
X117675000Y-98205000D01*
X117285781Y-98205000D01*
X116865576Y-98288584D01*
X116469751Y-98452540D01*
X116113518Y-98690567D01*
X115810567Y-98993518D01*
X115641443Y-99246630D01*
X115602944Y-99053083D01*
X115461603Y-98711855D01*
X115256407Y-98404757D01*
X114995243Y-98143593D01*
X114688145Y-97938397D01*
X114346917Y-97797056D01*
X113984671Y-97725000D01*
X113615329Y-97725000D01*
X113253083Y-97797056D01*
X112911855Y-97938397D01*
X112604757Y-98143593D01*
X112343593Y-98404757D01*
X112138397Y-98711855D01*
X111997056Y-99053083D01*
X111925000Y-99415329D01*
X111925000Y-99784671D01*
X111997056Y-100146917D01*
X112138397Y-100488145D01*
X112343593Y-100795243D01*
X112604757Y-101056407D01*
X112911855Y-101261603D01*
X113004554Y-101300000D01*
X112911855Y-101338397D01*
X112604757Y-101543593D01*
X112343593Y-101804757D01*
X112138397Y-102111855D01*
X111997056Y-102453083D01*
X111925000Y-102815329D01*
X111925000Y-103184671D01*
X111997056Y-103546917D01*
X112138397Y-103888145D01*
X112343593Y-104195243D01*
X112604757Y-104456407D01*
X112911855Y-104661603D01*
X113253083Y-104802944D01*
X113615329Y-104875000D01*
X113984671Y-104875000D01*
X114346917Y-104802944D01*
X114688145Y-104661603D01*
X114995243Y-104456407D01*
X115256407Y-104195243D01*
X115461603Y-103888145D01*
X115602944Y-103546917D01*
X115675000Y-103184671D01*
X115675000Y-102815329D01*
X115602944Y-102453083D01*
X115461603Y-102111855D01*
X115256407Y-101804757D01*
X114995243Y-101543593D01*
X114688145Y-101338397D01*
X114595446Y-101300000D01*
X114688145Y-101261603D01*
X114995243Y-101056407D01*
X115256407Y-100795243D01*
X115340078Y-100670021D01*
X115408584Y-101014424D01*
X115572540Y-101410249D01*
X115810567Y-101766482D01*
X116113518Y-102069433D01*
X116469751Y-102307460D01*
X116865576Y-102471416D01*
X117285781Y-102555000D01*
X117675000Y-102555000D01*
X117675000Y-105825000D01*
X117285781Y-105825000D01*
X116865576Y-105908584D01*
X116469751Y-106072540D01*
X116113518Y-106310567D01*
X115810567Y-106613518D01*
X115572540Y-106969751D01*
X115408584Y-107365576D01*
X115325000Y-107785781D01*
X115325000Y-108214219D01*
X115408584Y-108634424D01*
X115572540Y-109030249D01*
X115810567Y-109386482D01*
X116113518Y-109689433D01*
X116469751Y-109927460D01*
X116865576Y-110091416D01*
X117285781Y-110175000D01*
X117675000Y-110175000D01*
X117675000Y-113000000D01*
X91000000Y-113000000D01*
X91000000Y-105309875D01*
X108226948Y-105309875D01*
X108379997Y-105644062D01*
X108595302Y-105941969D01*
X108864589Y-106192148D01*
X109177509Y-106384984D01*
X109390126Y-106473043D01*
X109675000Y-106298547D01*
X109675000Y-105025000D01*
X110325000Y-105025000D01*
X110325000Y-106298547D01*
X110609874Y-106473043D01*
X110822491Y-106384984D01*
X111135411Y-106192148D01*
X111404698Y-105941969D01*
X111620003Y-105644062D01*
X111773052Y-105309875D01*
X111602878Y-105025000D01*
X110325000Y-105025000D01*
X109675000Y-105025000D01*
X108397122Y-105025000D01*
X108226948Y-105309875D01*
X91000000Y-105309875D01*
X91000000Y-101031611D01*
X91095000Y-101031611D01*
X91095000Y-101568389D01*
X91199720Y-102094853D01*
X91405136Y-102590771D01*
X91703354Y-103037086D01*
X92082914Y-103416646D01*
X92529229Y-103714864D01*
X93025147Y-103920280D01*
X93551611Y-104025000D01*
X94088389Y-104025000D01*
X94614853Y-103920280D01*
X95110771Y-103714864D01*
X95557086Y-103416646D01*
X95936646Y-103037086D01*
X96234864Y-102590771D01*
X96440280Y-102094853D01*
X96477074Y-101909875D01*
X108226948Y-101909875D01*
X108379997Y-102244062D01*
X108595302Y-102541969D01*
X108864589Y-102792148D01*
X109177509Y-102984984D01*
X109213765Y-103000000D01*
X109177509Y-103015016D01*
X108864589Y-103207852D01*
X108595302Y-103458031D01*
X108379997Y-103755938D01*
X108226948Y-104090125D01*
X108397122Y-104375000D01*
X109675000Y-104375000D01*
X109675000Y-103101453D01*
X109509373Y-103000000D01*
X109675000Y-102898547D01*
X109675000Y-101625000D01*
X110325000Y-101625000D01*
X110325000Y-102898547D01*
X110490627Y-103000000D01*
X110325000Y-103101453D01*
X110325000Y-104375000D01*
X111602878Y-104375000D01*
X111773052Y-104090125D01*
X111620003Y-103755938D01*
X111404698Y-103458031D01*
X111135411Y-103207852D01*
X110822491Y-103015016D01*
X110786235Y-103000000D01*
X110822491Y-102984984D01*
X111135411Y-102792148D01*
X111404698Y-102541969D01*
X111620003Y-102244062D01*
X111773052Y-101909875D01*
X111602878Y-101625000D01*
X110325000Y-101625000D01*
X109675000Y-101625000D01*
X108397122Y-101625000D01*
X108226948Y-101909875D01*
X96477074Y-101909875D01*
X96545000Y-101568389D01*
X96545000Y-101031611D01*
X96440280Y-100505147D01*
X96234864Y-100009229D01*
X95936646Y-99562914D01*
X95557086Y-99183354D01*
X95110771Y-98885136D01*
X94614853Y-98679720D01*
X94088389Y-98575000D01*
X93551611Y-98575000D01*
X93025147Y-98679720D01*
X92529229Y-98885136D01*
X92082914Y-99183354D01*
X91703354Y-99562914D01*
X91405136Y-100009229D01*
X91199720Y-100505147D01*
X91095000Y-101031611D01*
X91000000Y-101031611D01*
X91000000Y-97000000D01*
X108120283Y-97000000D01*
X108120283Y-98800000D01*
X108139108Y-98991133D01*
X108194860Y-99174921D01*
X108285395Y-99344302D01*
X108407235Y-99492765D01*
X108555698Y-99614605D01*
X108725079Y-99705140D01*
X108908867Y-99760892D01*
X108936393Y-99763603D01*
X108864589Y-99807852D01*
X108595302Y-100058031D01*
X108379997Y-100355938D01*
X108226948Y-100690125D01*
X108397122Y-100975000D01*
X109675000Y-100975000D01*
X109675000Y-100955000D01*
X110325000Y-100955000D01*
X110325000Y-100975000D01*
X111602878Y-100975000D01*
X111773052Y-100690125D01*
X111620003Y-100355938D01*
X111404698Y-100058031D01*
X111135411Y-99807852D01*
X111063607Y-99763603D01*
X111091133Y-99760892D01*
X111274921Y-99705140D01*
X111444302Y-99614605D01*
X111592765Y-99492765D01*
X111714605Y-99344302D01*
X111805140Y-99174921D01*
X111860892Y-98991133D01*
X111879717Y-98800000D01*
X111879717Y-97000000D01*
X111860892Y-96808867D01*
X111805140Y-96625079D01*
X111714605Y-96455698D01*
X111592765Y-96307235D01*
X111444302Y-96185395D01*
X111274921Y-96094860D01*
X111091133Y-96039108D01*
X110900000Y-96020283D01*
X109100000Y-96020283D01*
X108908867Y-96039108D01*
X108725079Y-96094860D01*
X108555698Y-96185395D01*
X108407235Y-96307235D01*
X108285395Y-96455698D01*
X108194860Y-96625079D01*
X108139108Y-96808867D01*
X108120283Y-97000000D01*
X91000000Y-97000000D01*
X91000000Y-86700000D01*
X91220283Y-86700000D01*
X91220283Y-89300000D01*
X91239108Y-89491133D01*
X91294860Y-89674921D01*
X91385395Y-89844302D01*
X91507235Y-89992765D01*
X91655698Y-90114605D01*
X91825079Y-90205140D01*
X92008867Y-90260892D01*
X92200000Y-90279717D01*
X94800000Y-90279717D01*
X94991133Y-90260892D01*
X95174921Y-90205140D01*
X95344302Y-90114605D01*
X95492765Y-89992765D01*
X95614605Y-89844302D01*
X95705140Y-89674921D01*
X95760892Y-89491133D01*
X95779717Y-89300000D01*
X95779717Y-87775932D01*
X101625000Y-87775932D01*
X101625000Y-88224068D01*
X101712427Y-88663593D01*
X101883921Y-89077617D01*
X102132892Y-89450228D01*
X102449772Y-89767108D01*
X102822383Y-90016079D01*
X103236407Y-90187573D01*
X103675932Y-90275000D01*
X104124068Y-90275000D01*
X104563593Y-90187573D01*
X104977617Y-90016079D01*
X105350228Y-89767108D01*
X105667108Y-89450228D01*
X105916079Y-89077617D01*
X106087573Y-88663593D01*
X106175000Y-88224068D01*
X106175000Y-87775932D01*
X106087573Y-87336407D01*
X105916079Y-86922383D01*
X105667108Y-86549772D01*
X105350228Y-86232892D01*
X104977617Y-85983921D01*
X104563593Y-85812427D01*
X104124068Y-85725000D01*
X103675932Y-85725000D01*
X103236407Y-85812427D01*
X102822383Y-85983921D01*
X102449772Y-86232892D01*
X102132892Y-86549772D01*
X101883921Y-86922383D01*
X101712427Y-87336407D01*
X101625000Y-87775932D01*
X95779717Y-87775932D01*
X95779717Y-86700000D01*
X95760892Y-86508867D01*
X95705140Y-86325079D01*
X95614605Y-86155698D01*
X95492765Y-86007235D01*
X95344302Y-85885395D01*
X95174921Y-85794860D01*
X94991133Y-85739108D01*
X94800000Y-85720283D01*
X92200000Y-85720283D01*
X92008867Y-85739108D01*
X91825079Y-85794860D01*
X91655698Y-85885395D01*
X91507235Y-86007235D01*
X91385395Y-86155698D01*
X91294860Y-86325079D01*
X91239108Y-86508867D01*
X91220283Y-86700000D01*
X91000000Y-86700000D01*
X91000000Y-84705889D01*
X152665508Y-84705889D01*
X153500000Y-85540381D01*
X153514143Y-85526239D01*
X153973762Y-85985858D01*
X153959619Y-86000000D01*
X153973762Y-86014143D01*
X153514143Y-86473762D01*
X153500000Y-86459619D01*
X152665508Y-87294111D01*
X152732115Y-87609825D01*
X153060931Y-87728700D01*
X153406620Y-87781142D01*
X153755898Y-87765135D01*
X154095341Y-87681295D01*
X154267885Y-87609825D01*
X154334491Y-87294114D01*
X154388671Y-87348294D01*
X154507235Y-87492765D01*
X154655698Y-87614605D01*
X154825079Y-87705140D01*
X155008867Y-87760892D01*
X155200000Y-87779717D01*
X156800000Y-87779717D01*
X156991133Y-87760892D01*
X157174921Y-87705140D01*
X157344302Y-87614605D01*
X157492765Y-87492765D01*
X157614605Y-87344302D01*
X157705140Y-87174921D01*
X157760892Y-86991133D01*
X157779717Y-86800000D01*
X157779717Y-85200000D01*
X157760892Y-85008867D01*
X157705140Y-84825079D01*
X157614605Y-84655698D01*
X157492765Y-84507235D01*
X157344302Y-84385395D01*
X157174921Y-84294860D01*
X156991133Y-84239108D01*
X156800000Y-84220283D01*
X155200000Y-84220283D01*
X155008867Y-84239108D01*
X154825079Y-84294860D01*
X154655698Y-84385395D01*
X154507235Y-84507235D01*
X154388671Y-84651706D01*
X154334491Y-84705886D01*
X154267885Y-84390175D01*
X153939069Y-84271300D01*
X153593380Y-84218858D01*
X153244102Y-84234865D01*
X152904659Y-84318705D01*
X152732115Y-84390175D01*
X152665508Y-84705889D01*
X91000000Y-84705889D01*
X91000000Y-82083483D01*
X114876137Y-82083483D01*
X114992595Y-82439498D01*
X115390329Y-82598766D01*
X115811492Y-82677380D01*
X116239900Y-82672318D01*
X116659089Y-82583776D01*
X117007405Y-82439498D01*
X117123863Y-82083483D01*
X139876137Y-82083483D01*
X139992595Y-82439498D01*
X140390329Y-82598766D01*
X140811492Y-82677380D01*
X141239900Y-82672318D01*
X141659089Y-82583776D01*
X142007405Y-82439498D01*
X142123863Y-82083483D01*
X141000000Y-80959619D01*
X139876137Y-82083483D01*
X117123863Y-82083483D01*
X116000000Y-80959619D01*
X114876137Y-82083483D01*
X91000000Y-82083483D01*
X91000000Y-80311492D01*
X113822620Y-80311492D01*
X113827682Y-80739900D01*
X113916224Y-81159089D01*
X114060502Y-81507405D01*
X114416517Y-81623863D01*
X115540381Y-80500000D01*
X116459619Y-80500000D01*
X117583483Y-81623863D01*
X117939498Y-81507405D01*
X118098766Y-81109671D01*
X118177380Y-80688508D01*
X118172926Y-80311492D01*
X138822620Y-80311492D01*
X138827682Y-80739900D01*
X138916224Y-81159089D01*
X139060502Y-81507405D01*
X139416517Y-81623863D01*
X140540381Y-80500000D01*
X141459619Y-80500000D01*
X142583483Y-81623863D01*
X142939498Y-81507405D01*
X143098766Y-81109671D01*
X143177380Y-80688508D01*
X143172318Y-80260100D01*
X143083776Y-79840911D01*
X143004698Y-79650000D01*
X150170283Y-79650000D01*
X150170283Y-81350000D01*
X150189108Y-81541133D01*
X150244860Y-81724921D01*
X150335395Y-81894302D01*
X150457235Y-82042765D01*
X150605698Y-82164605D01*
X150775079Y-82255140D01*
X150958867Y-82310892D01*
X151150000Y-82329717D01*
X152850000Y-82329717D01*
X153041133Y-82310892D01*
X153224921Y-82255140D01*
X153394302Y-82164605D01*
X153542765Y-82042765D01*
X153555672Y-82027037D01*
X153747364Y-82143895D01*
X153938072Y-82222877D01*
X154215000Y-82047490D01*
X154215000Y-80825000D01*
X154865000Y-80825000D01*
X154865000Y-82047490D01*
X155141928Y-82222877D01*
X155332636Y-82143895D01*
X155638114Y-81957672D01*
X155901392Y-81715432D01*
X156112352Y-81426483D01*
X156262888Y-81101930D01*
X156092089Y-80825000D01*
X154865000Y-80825000D01*
X154215000Y-80825000D01*
X154195000Y-80825000D01*
X154195000Y-80175000D01*
X154215000Y-80175000D01*
X154215000Y-78952510D01*
X154865000Y-78952510D01*
X154865000Y-80175000D01*
X156092089Y-80175000D01*
X156262888Y-79898070D01*
X156112352Y-79573517D01*
X155901392Y-79284568D01*
X155638114Y-79042328D01*
X155332636Y-78856105D01*
X155141928Y-78777123D01*
X154865000Y-78952510D01*
X154215000Y-78952510D01*
X153938072Y-78777123D01*
X153747364Y-78856105D01*
X153555672Y-78972963D01*
X153542765Y-78957235D01*
X153394302Y-78835395D01*
X153224921Y-78744860D01*
X153041133Y-78689108D01*
X152850000Y-78670283D01*
X151150000Y-78670283D01*
X150958867Y-78689108D01*
X150775079Y-78744860D01*
X150605698Y-78835395D01*
X150457235Y-78957235D01*
X150335395Y-79105698D01*
X150244860Y-79275079D01*
X150189108Y-79458867D01*
X150170283Y-79650000D01*
X143004698Y-79650000D01*
X142939498Y-79492595D01*
X142583483Y-79376137D01*
X141459619Y-80500000D01*
X140540381Y-80500000D01*
X139416517Y-79376137D01*
X139060502Y-79492595D01*
X138901234Y-79890329D01*
X138822620Y-80311492D01*
X118172926Y-80311492D01*
X118172318Y-80260100D01*
X118083776Y-79840911D01*
X117939498Y-79492595D01*
X117583483Y-79376137D01*
X116459619Y-80500000D01*
X115540381Y-80500000D01*
X114416517Y-79376137D01*
X114060502Y-79492595D01*
X113901234Y-79890329D01*
X113822620Y-80311492D01*
X91000000Y-80311492D01*
X91000000Y-77375932D01*
X91225000Y-77375932D01*
X91225000Y-77824068D01*
X91312427Y-78263593D01*
X91483921Y-78677617D01*
X91732892Y-79050228D01*
X92049772Y-79367108D01*
X92422383Y-79616079D01*
X92836407Y-79787573D01*
X93275932Y-79875000D01*
X93724068Y-79875000D01*
X94163593Y-79787573D01*
X94577617Y-79616079D01*
X94950228Y-79367108D01*
X95061835Y-79255501D01*
X102704118Y-79255501D01*
X102832897Y-79621664D01*
X103247809Y-79791000D01*
X103687783Y-79876137D01*
X104135913Y-79873803D01*
X104574977Y-79784088D01*
X104967103Y-79621664D01*
X105095882Y-79255501D01*
X104756898Y-78916517D01*
X114876137Y-78916517D01*
X116000000Y-80040381D01*
X117123863Y-78916517D01*
X117007405Y-78560502D01*
X116609671Y-78401234D01*
X116188508Y-78322620D01*
X115760100Y-78327682D01*
X115340911Y-78416224D01*
X114992595Y-78560502D01*
X114876137Y-78916517D01*
X104756898Y-78916517D01*
X103900000Y-78059619D01*
X102704118Y-79255501D01*
X95061835Y-79255501D01*
X95267108Y-79050228D01*
X95516079Y-78677617D01*
X95687573Y-78263593D01*
X95775000Y-77824068D01*
X95775000Y-77387783D01*
X101623863Y-77387783D01*
X101626197Y-77835913D01*
X101715912Y-78274977D01*
X101878336Y-78667103D01*
X102244499Y-78795882D01*
X103440381Y-77600000D01*
X104359619Y-77600000D01*
X105555501Y-78795882D01*
X105921664Y-78667103D01*
X106091000Y-78252191D01*
X106135814Y-78020597D01*
X126027875Y-78020597D01*
X126215958Y-78489039D01*
X126491815Y-78911786D01*
X126844846Y-79272593D01*
X127261483Y-79557595D01*
X127725716Y-79755839D01*
X127779404Y-79772118D01*
X128175000Y-79608485D01*
X128175000Y-77625000D01*
X128825000Y-77625000D01*
X128825000Y-79608485D01*
X129220596Y-79772118D01*
X129274284Y-79755839D01*
X129738517Y-79557595D01*
X130155154Y-79272593D01*
X130503555Y-78916517D01*
X139876137Y-78916517D01*
X141000000Y-80040381D01*
X142123863Y-78916517D01*
X142007405Y-78560502D01*
X141609671Y-78401234D01*
X141188508Y-78322620D01*
X140760100Y-78327682D01*
X140340911Y-78416224D01*
X139992595Y-78560502D01*
X139876137Y-78916517D01*
X130503555Y-78916517D01*
X130508185Y-78911786D01*
X130784042Y-78489039D01*
X130972125Y-78020597D01*
X130810665Y-77625000D01*
X128825000Y-77625000D01*
X128175000Y-77625000D01*
X126189335Y-77625000D01*
X126027875Y-78020597D01*
X106135814Y-78020597D01*
X106176137Y-77812217D01*
X106173803Y-77364087D01*
X106084088Y-76925023D01*
X105940928Y-76579403D01*
X126027875Y-76579403D01*
X126189335Y-76975000D01*
X128175000Y-76975000D01*
X128175000Y-74991515D01*
X128825000Y-74991515D01*
X128825000Y-76975000D01*
X130810665Y-76975000D01*
X130972125Y-76579403D01*
X130870052Y-76325178D01*
X147605000Y-76325178D01*
X147605000Y-76674822D01*
X147673213Y-77017748D01*
X147807016Y-77340778D01*
X148001268Y-77631496D01*
X148248504Y-77878732D01*
X148539222Y-78072984D01*
X148862252Y-78206787D01*
X149205178Y-78275000D01*
X149554822Y-78275000D01*
X149897748Y-78206787D01*
X150220778Y-78072984D01*
X150511496Y-77878732D01*
X150758732Y-77631496D01*
X150952984Y-77340778D01*
X151086787Y-77017748D01*
X151155000Y-76674822D01*
X151155000Y-76325178D01*
X155225000Y-76325178D01*
X155225000Y-76674822D01*
X155293213Y-77017748D01*
X155427016Y-77340778D01*
X155621268Y-77631496D01*
X155868504Y-77878732D01*
X156159222Y-78072984D01*
X156482252Y-78206787D01*
X156825178Y-78275000D01*
X157174822Y-78275000D01*
X157517748Y-78206787D01*
X157840778Y-78072984D01*
X158131496Y-77878732D01*
X158378732Y-77631496D01*
X158572984Y-77340778D01*
X158706787Y-77017748D01*
X158775000Y-76674822D01*
X158775000Y-76325178D01*
X158706787Y-75982252D01*
X158572984Y-75659222D01*
X158378732Y-75368504D01*
X158131496Y-75121268D01*
X157840778Y-74927016D01*
X157517748Y-74793213D01*
X157174822Y-74725000D01*
X156825178Y-74725000D01*
X156482252Y-74793213D01*
X156159222Y-74927016D01*
X155868504Y-75121268D01*
X155621268Y-75368504D01*
X155427016Y-75659222D01*
X155293213Y-75982252D01*
X155225000Y-76325178D01*
X151155000Y-76325178D01*
X151086787Y-75982252D01*
X150952984Y-75659222D01*
X150758732Y-75368504D01*
X150511496Y-75121268D01*
X150220778Y-74927016D01*
X149897748Y-74793213D01*
X149554822Y-74725000D01*
X149205178Y-74725000D01*
X148862252Y-74793213D01*
X148539222Y-74927016D01*
X148248504Y-75121268D01*
X148001268Y-75368504D01*
X147807016Y-75659222D01*
X147673213Y-75982252D01*
X147605000Y-76325178D01*
X130870052Y-76325178D01*
X130784042Y-76110961D01*
X130508185Y-75688214D01*
X130155154Y-75327407D01*
X129738517Y-75042405D01*
X129274284Y-74844161D01*
X129220596Y-74827882D01*
X128825000Y-74991515D01*
X128175000Y-74991515D01*
X127779404Y-74827882D01*
X127725716Y-74844161D01*
X127261483Y-75042405D01*
X126844846Y-75327407D01*
X126491815Y-75688214D01*
X126215958Y-76110961D01*
X126027875Y-76579403D01*
X105940928Y-76579403D01*
X105921664Y-76532897D01*
X105555501Y-76404118D01*
X104359619Y-77600000D01*
X103440381Y-77600000D01*
X102244499Y-76404118D01*
X101878336Y-76532897D01*
X101709000Y-76947809D01*
X101623863Y-77387783D01*
X95775000Y-77387783D01*
X95775000Y-77375932D01*
X95687573Y-76936407D01*
X95516079Y-76522383D01*
X95267108Y-76149772D01*
X95061835Y-75944499D01*
X102704118Y-75944499D01*
X103900000Y-77140381D01*
X105095882Y-75944499D01*
X104967103Y-75578336D01*
X104552191Y-75409000D01*
X104112217Y-75323863D01*
X103664087Y-75326197D01*
X103225023Y-75415912D01*
X102832897Y-75578336D01*
X102704118Y-75944499D01*
X95061835Y-75944499D01*
X94950228Y-75832892D01*
X94577617Y-75583921D01*
X94163593Y-75412427D01*
X93724068Y-75325000D01*
X93275932Y-75325000D01*
X92836407Y-75412427D01*
X92422383Y-75583921D01*
X92049772Y-75832892D01*
X91732892Y-76149772D01*
X91483921Y-76522383D01*
X91312427Y-76936407D01*
X91225000Y-77375932D01*
X91000000Y-77375932D01*
X91000000Y-61000000D01*
X101457153Y-61000000D01*
X101141652Y-61472181D01*
M02*
