M48
; DRILL file {KiCad 8.0.6} date 2026-03-29T02:05:22+0200
; FORMAT={-:-/ absolute / inch / decimal}
; #@! TF.CreationDate,2026-03-29T02:05:22+02:00
; #@! TF.GenerationSoftware,Kicad,Pcbnew,8.0.6
; #@! TF.FileFunction,Plated,1,2,PTH
FMAT,2
INCH
; #@! TA.AperFunction,Plated,PTH,ComponentDrill
T1C0.0315
; #@! TA.AperFunction,Plated,PTH,ComponentDrill
T2C0.0354
; #@! TA.AperFunction,Plated,PTH,ComponentDrill
T3C0.0394
; #@! TA.AperFunction,Plated,PTH,ComponentDrill
T4C0.0433
; #@! TA.AperFunction,Plated,PTH,ComponentDrill
T5C0.0472
; #@! TA.AperFunction,Plated,PTH,ComponentDrill
T6C0.0630
; #@! TA.AperFunction,Plated,PTH,ComponentDrill
T7C0.0709
; #@! TA.AperFunction,Plated,PTH,ComponentDrill
T8C0.0827
%
G90
G05
T1
X3.65Y-4.39
X3.95Y-4.39
X4.0016Y-3.65
X4.04Y-4.39
X4.1Y-3.65
X4.34Y-4.39
X5.4116Y-3.57
X5.51Y-3.57
X6.0422Y-3.69
X6.18Y-3.17
X6.18Y-3.47
X6.18Y-3.69
X6.22Y-3.91
X6.22Y-4.0084
T2
X6.18Y-2.98
X6.18Y-3.08
T3
X5.81Y-4.02
X6.0069Y-4.02
T4
X4.0161Y-3.9
X4.0831Y-4.0457
X4.15Y-3.9
X4.2169Y-4.0457
X4.2839Y-3.9
T5
X5.06Y-3.1547
X5.06Y-3.45
X5.75Y-3.1547
X5.75Y-3.45
T6
X3.7Y-3.0
X3.7Y-3.5
X3.72Y-4.21
X3.925Y-3.0
X3.925Y-3.5
X4.15Y-3.0
X4.15Y-3.5
X4.22Y-4.21
X4.375Y-3.0
X4.375Y-3.5
T7
X5.19Y-3.78
X5.19Y-4.2304
T8
X4.0945Y-2.4705
X4.4094Y-2.4705
X5.5906Y-2.4705
X5.9055Y-2.4705
M30
