G04 #@! TF.GenerationSoftware,KiCad,Pcbnew,8.0.6*
G04 #@! TF.CreationDate,2026-03-29T21:15:44+03:00*
G04 #@! TF.ProjectId,c64-wedge-psu-pcb,6336342d-7765-4646-9765-2d7073752d70,rev?*
G04 #@! TF.SameCoordinates,Original*
G04 #@! TF.FileFunction,Legend,Top*
G04 #@! TF.FilePolarity,Positive*
%FSLAX46Y46*%
G04 Gerber Fmt 4.6, Leading zero omitted, Abs format (unit mm)*
G04 Created by KiCad (PCBNEW 8.0.6) date 2026-03-29 21:15:44*
%MOMM*%
%LPD*%
G01*
G04 APERTURE LIST*
%ADD10C,0.150000*%
%ADD11C,0.300000*%
%ADD12C,0.125000*%
%ADD13C,0.120000*%
G04 APERTURE END LIST*
D10*
X149238095Y-65502438D02*
X149142857Y-65454819D01*
X149142857Y-65454819D02*
X149000000Y-65454819D01*
X149000000Y-65454819D02*
X148857143Y-65502438D01*
X148857143Y-65502438D02*
X148761905Y-65597676D01*
X148761905Y-65597676D02*
X148714286Y-65692914D01*
X148714286Y-65692914D02*
X148666667Y-65883390D01*
X148666667Y-65883390D02*
X148666667Y-66026247D01*
X148666667Y-66026247D02*
X148714286Y-66216723D01*
X148714286Y-66216723D02*
X148761905Y-66311961D01*
X148761905Y-66311961D02*
X148857143Y-66407200D01*
X148857143Y-66407200D02*
X149000000Y-66454819D01*
X149000000Y-66454819D02*
X149095238Y-66454819D01*
X149095238Y-66454819D02*
X149238095Y-66407200D01*
X149238095Y-66407200D02*
X149285714Y-66359580D01*
X149285714Y-66359580D02*
X149285714Y-66026247D01*
X149285714Y-66026247D02*
X149095238Y-66026247D01*
X149714286Y-66454819D02*
X149714286Y-65454819D01*
X149714286Y-65454819D02*
X150285714Y-66454819D01*
X150285714Y-66454819D02*
X150285714Y-65454819D01*
X150761905Y-66454819D02*
X150761905Y-65454819D01*
X150761905Y-65454819D02*
X151000000Y-65454819D01*
X151000000Y-65454819D02*
X151142857Y-65502438D01*
X151142857Y-65502438D02*
X151238095Y-65597676D01*
X151238095Y-65597676D02*
X151285714Y-65692914D01*
X151285714Y-65692914D02*
X151333333Y-65883390D01*
X151333333Y-65883390D02*
X151333333Y-66026247D01*
X151333333Y-66026247D02*
X151285714Y-66216723D01*
X151285714Y-66216723D02*
X151238095Y-66311961D01*
X151238095Y-66311961D02*
X151142857Y-66407200D01*
X151142857Y-66407200D02*
X151000000Y-66454819D01*
X151000000Y-66454819D02*
X150761905Y-66454819D01*
X120719047Y-112954819D02*
X120719047Y-111954819D01*
X121147618Y-112954819D02*
X121147618Y-112431009D01*
X121147618Y-112431009D02*
X121099999Y-112335771D01*
X121099999Y-112335771D02*
X121004761Y-112288152D01*
X121004761Y-112288152D02*
X120861904Y-112288152D01*
X120861904Y-112288152D02*
X120766666Y-112335771D01*
X120766666Y-112335771D02*
X120719047Y-112383390D01*
X121480952Y-112288152D02*
X121861904Y-112288152D01*
X121623809Y-111954819D02*
X121623809Y-112811961D01*
X121623809Y-112811961D02*
X121671428Y-112907200D01*
X121671428Y-112907200D02*
X121766666Y-112954819D01*
X121766666Y-112954819D02*
X121861904Y-112954819D01*
X122052381Y-112288152D02*
X122433333Y-112288152D01*
X122195238Y-111954819D02*
X122195238Y-112811961D01*
X122195238Y-112811961D02*
X122242857Y-112907200D01*
X122242857Y-112907200D02*
X122338095Y-112954819D01*
X122338095Y-112954819D02*
X122433333Y-112954819D01*
X122766667Y-112288152D02*
X122766667Y-113288152D01*
X122766667Y-112335771D02*
X122861905Y-112288152D01*
X122861905Y-112288152D02*
X123052381Y-112288152D01*
X123052381Y-112288152D02*
X123147619Y-112335771D01*
X123147619Y-112335771D02*
X123195238Y-112383390D01*
X123195238Y-112383390D02*
X123242857Y-112478628D01*
X123242857Y-112478628D02*
X123242857Y-112764342D01*
X123242857Y-112764342D02*
X123195238Y-112859580D01*
X123195238Y-112859580D02*
X123147619Y-112907200D01*
X123147619Y-112907200D02*
X123052381Y-112954819D01*
X123052381Y-112954819D02*
X122861905Y-112954819D01*
X122861905Y-112954819D02*
X122766667Y-112907200D01*
X123623810Y-112907200D02*
X123719048Y-112954819D01*
X123719048Y-112954819D02*
X123909524Y-112954819D01*
X123909524Y-112954819D02*
X124004762Y-112907200D01*
X124004762Y-112907200D02*
X124052381Y-112811961D01*
X124052381Y-112811961D02*
X124052381Y-112764342D01*
X124052381Y-112764342D02*
X124004762Y-112669104D01*
X124004762Y-112669104D02*
X123909524Y-112621485D01*
X123909524Y-112621485D02*
X123766667Y-112621485D01*
X123766667Y-112621485D02*
X123671429Y-112573866D01*
X123671429Y-112573866D02*
X123623810Y-112478628D01*
X123623810Y-112478628D02*
X123623810Y-112431009D01*
X123623810Y-112431009D02*
X123671429Y-112335771D01*
X123671429Y-112335771D02*
X123766667Y-112288152D01*
X123766667Y-112288152D02*
X123909524Y-112288152D01*
X123909524Y-112288152D02*
X124004762Y-112335771D01*
X124480953Y-112859580D02*
X124528572Y-112907200D01*
X124528572Y-112907200D02*
X124480953Y-112954819D01*
X124480953Y-112954819D02*
X124433334Y-112907200D01*
X124433334Y-112907200D02*
X124480953Y-112859580D01*
X124480953Y-112859580D02*
X124480953Y-112954819D01*
X124480953Y-112335771D02*
X124528572Y-112383390D01*
X124528572Y-112383390D02*
X124480953Y-112431009D01*
X124480953Y-112431009D02*
X124433334Y-112383390D01*
X124433334Y-112383390D02*
X124480953Y-112335771D01*
X124480953Y-112335771D02*
X124480953Y-112431009D01*
X125671428Y-111907200D02*
X124814286Y-113192914D01*
X126719047Y-111907200D02*
X125861905Y-113192914D01*
X127480952Y-112288152D02*
X127480952Y-113097676D01*
X127480952Y-113097676D02*
X127433333Y-113192914D01*
X127433333Y-113192914D02*
X127385714Y-113240533D01*
X127385714Y-113240533D02*
X127290476Y-113288152D01*
X127290476Y-113288152D02*
X127147619Y-113288152D01*
X127147619Y-113288152D02*
X127052381Y-113240533D01*
X127480952Y-112907200D02*
X127385714Y-112954819D01*
X127385714Y-112954819D02*
X127195238Y-112954819D01*
X127195238Y-112954819D02*
X127100000Y-112907200D01*
X127100000Y-112907200D02*
X127052381Y-112859580D01*
X127052381Y-112859580D02*
X127004762Y-112764342D01*
X127004762Y-112764342D02*
X127004762Y-112478628D01*
X127004762Y-112478628D02*
X127052381Y-112383390D01*
X127052381Y-112383390D02*
X127100000Y-112335771D01*
X127100000Y-112335771D02*
X127195238Y-112288152D01*
X127195238Y-112288152D02*
X127385714Y-112288152D01*
X127385714Y-112288152D02*
X127480952Y-112335771D01*
X127957143Y-112954819D02*
X127957143Y-112288152D01*
X127957143Y-111954819D02*
X127909524Y-112002438D01*
X127909524Y-112002438D02*
X127957143Y-112050057D01*
X127957143Y-112050057D02*
X128004762Y-112002438D01*
X128004762Y-112002438D02*
X127957143Y-111954819D01*
X127957143Y-111954819D02*
X127957143Y-112050057D01*
X128290476Y-112288152D02*
X128671428Y-112288152D01*
X128433333Y-111954819D02*
X128433333Y-112811961D01*
X128433333Y-112811961D02*
X128480952Y-112907200D01*
X128480952Y-112907200D02*
X128576190Y-112954819D01*
X128576190Y-112954819D02*
X128671428Y-112954819D01*
X129004762Y-112954819D02*
X129004762Y-111954819D01*
X129433333Y-112954819D02*
X129433333Y-112431009D01*
X129433333Y-112431009D02*
X129385714Y-112335771D01*
X129385714Y-112335771D02*
X129290476Y-112288152D01*
X129290476Y-112288152D02*
X129147619Y-112288152D01*
X129147619Y-112288152D02*
X129052381Y-112335771D01*
X129052381Y-112335771D02*
X129004762Y-112383390D01*
X130338095Y-112288152D02*
X130338095Y-112954819D01*
X129909524Y-112288152D02*
X129909524Y-112811961D01*
X129909524Y-112811961D02*
X129957143Y-112907200D01*
X129957143Y-112907200D02*
X130052381Y-112954819D01*
X130052381Y-112954819D02*
X130195238Y-112954819D01*
X130195238Y-112954819D02*
X130290476Y-112907200D01*
X130290476Y-112907200D02*
X130338095Y-112859580D01*
X130814286Y-112954819D02*
X130814286Y-111954819D01*
X130814286Y-112335771D02*
X130909524Y-112288152D01*
X130909524Y-112288152D02*
X131100000Y-112288152D01*
X131100000Y-112288152D02*
X131195238Y-112335771D01*
X131195238Y-112335771D02*
X131242857Y-112383390D01*
X131242857Y-112383390D02*
X131290476Y-112478628D01*
X131290476Y-112478628D02*
X131290476Y-112764342D01*
X131290476Y-112764342D02*
X131242857Y-112859580D01*
X131242857Y-112859580D02*
X131195238Y-112907200D01*
X131195238Y-112907200D02*
X131100000Y-112954819D01*
X131100000Y-112954819D02*
X130909524Y-112954819D01*
X130909524Y-112954819D02*
X130814286Y-112907200D01*
X131719048Y-112859580D02*
X131766667Y-112907200D01*
X131766667Y-112907200D02*
X131719048Y-112954819D01*
X131719048Y-112954819D02*
X131671429Y-112907200D01*
X131671429Y-112907200D02*
X131719048Y-112859580D01*
X131719048Y-112859580D02*
X131719048Y-112954819D01*
X132623809Y-112907200D02*
X132528571Y-112954819D01*
X132528571Y-112954819D02*
X132338095Y-112954819D01*
X132338095Y-112954819D02*
X132242857Y-112907200D01*
X132242857Y-112907200D02*
X132195238Y-112859580D01*
X132195238Y-112859580D02*
X132147619Y-112764342D01*
X132147619Y-112764342D02*
X132147619Y-112478628D01*
X132147619Y-112478628D02*
X132195238Y-112383390D01*
X132195238Y-112383390D02*
X132242857Y-112335771D01*
X132242857Y-112335771D02*
X132338095Y-112288152D01*
X132338095Y-112288152D02*
X132528571Y-112288152D01*
X132528571Y-112288152D02*
X132623809Y-112335771D01*
X133195238Y-112954819D02*
X133100000Y-112907200D01*
X133100000Y-112907200D02*
X133052381Y-112859580D01*
X133052381Y-112859580D02*
X133004762Y-112764342D01*
X133004762Y-112764342D02*
X133004762Y-112478628D01*
X133004762Y-112478628D02*
X133052381Y-112383390D01*
X133052381Y-112383390D02*
X133100000Y-112335771D01*
X133100000Y-112335771D02*
X133195238Y-112288152D01*
X133195238Y-112288152D02*
X133338095Y-112288152D01*
X133338095Y-112288152D02*
X133433333Y-112335771D01*
X133433333Y-112335771D02*
X133480952Y-112383390D01*
X133480952Y-112383390D02*
X133528571Y-112478628D01*
X133528571Y-112478628D02*
X133528571Y-112764342D01*
X133528571Y-112764342D02*
X133480952Y-112859580D01*
X133480952Y-112859580D02*
X133433333Y-112907200D01*
X133433333Y-112907200D02*
X133338095Y-112954819D01*
X133338095Y-112954819D02*
X133195238Y-112954819D01*
X133957143Y-112954819D02*
X133957143Y-112288152D01*
X133957143Y-112383390D02*
X134004762Y-112335771D01*
X134004762Y-112335771D02*
X134100000Y-112288152D01*
X134100000Y-112288152D02*
X134242857Y-112288152D01*
X134242857Y-112288152D02*
X134338095Y-112335771D01*
X134338095Y-112335771D02*
X134385714Y-112431009D01*
X134385714Y-112431009D02*
X134385714Y-112954819D01*
X134385714Y-112431009D02*
X134433333Y-112335771D01*
X134433333Y-112335771D02*
X134528571Y-112288152D01*
X134528571Y-112288152D02*
X134671428Y-112288152D01*
X134671428Y-112288152D02*
X134766667Y-112335771D01*
X134766667Y-112335771D02*
X134814286Y-112431009D01*
X134814286Y-112431009D02*
X134814286Y-112954819D01*
X136004761Y-111907200D02*
X135147619Y-113192914D01*
X136195238Y-112288152D02*
X136576190Y-112288152D01*
X136338095Y-111954819D02*
X136338095Y-112811961D01*
X136338095Y-112811961D02*
X136385714Y-112907200D01*
X136385714Y-112907200D02*
X136480952Y-112954819D01*
X136480952Y-112954819D02*
X136576190Y-112954819D01*
X136909524Y-112954819D02*
X136909524Y-112288152D01*
X136909524Y-111954819D02*
X136861905Y-112002438D01*
X136861905Y-112002438D02*
X136909524Y-112050057D01*
X136909524Y-112050057D02*
X136957143Y-112002438D01*
X136957143Y-112002438D02*
X136909524Y-111954819D01*
X136909524Y-111954819D02*
X136909524Y-112050057D01*
X137385714Y-112954819D02*
X137385714Y-112288152D01*
X137385714Y-112383390D02*
X137433333Y-112335771D01*
X137433333Y-112335771D02*
X137528571Y-112288152D01*
X137528571Y-112288152D02*
X137671428Y-112288152D01*
X137671428Y-112288152D02*
X137766666Y-112335771D01*
X137766666Y-112335771D02*
X137814285Y-112431009D01*
X137814285Y-112431009D02*
X137814285Y-112954819D01*
X137814285Y-112431009D02*
X137861904Y-112335771D01*
X137861904Y-112335771D02*
X137957142Y-112288152D01*
X137957142Y-112288152D02*
X138099999Y-112288152D01*
X138099999Y-112288152D02*
X138195238Y-112335771D01*
X138195238Y-112335771D02*
X138242857Y-112431009D01*
X138242857Y-112431009D02*
X138242857Y-112954819D01*
X138719047Y-112288152D02*
X138719047Y-113288152D01*
X138719047Y-112335771D02*
X138814285Y-112288152D01*
X138814285Y-112288152D02*
X139004761Y-112288152D01*
X139004761Y-112288152D02*
X139099999Y-112335771D01*
X139099999Y-112335771D02*
X139147618Y-112383390D01*
X139147618Y-112383390D02*
X139195237Y-112478628D01*
X139195237Y-112478628D02*
X139195237Y-112764342D01*
X139195237Y-112764342D02*
X139147618Y-112859580D01*
X139147618Y-112859580D02*
X139099999Y-112907200D01*
X139099999Y-112907200D02*
X139004761Y-112954819D01*
X139004761Y-112954819D02*
X138814285Y-112954819D01*
X138814285Y-112954819D02*
X138719047Y-112907200D01*
X140004761Y-112907200D02*
X139909523Y-112954819D01*
X139909523Y-112954819D02*
X139719047Y-112954819D01*
X139719047Y-112954819D02*
X139623809Y-112907200D01*
X139623809Y-112907200D02*
X139576190Y-112811961D01*
X139576190Y-112811961D02*
X139576190Y-112431009D01*
X139576190Y-112431009D02*
X139623809Y-112335771D01*
X139623809Y-112335771D02*
X139719047Y-112288152D01*
X139719047Y-112288152D02*
X139909523Y-112288152D01*
X139909523Y-112288152D02*
X140004761Y-112335771D01*
X140004761Y-112335771D02*
X140052380Y-112431009D01*
X140052380Y-112431009D02*
X140052380Y-112526247D01*
X140052380Y-112526247D02*
X139576190Y-112621485D01*
X140480952Y-112954819D02*
X140480952Y-112288152D01*
X140480952Y-112478628D02*
X140528571Y-112383390D01*
X140528571Y-112383390D02*
X140576190Y-112335771D01*
X140576190Y-112335771D02*
X140671428Y-112288152D01*
X140671428Y-112288152D02*
X140766666Y-112288152D01*
X141100000Y-112954819D02*
X141100000Y-112288152D01*
X141100000Y-111954819D02*
X141052381Y-112002438D01*
X141052381Y-112002438D02*
X141100000Y-112050057D01*
X141100000Y-112050057D02*
X141147619Y-112002438D01*
X141147619Y-112002438D02*
X141100000Y-111954819D01*
X141100000Y-111954819D02*
X141100000Y-112050057D01*
X142290475Y-111907200D02*
X141433333Y-113192914D01*
X143052380Y-112907200D02*
X142957142Y-112954819D01*
X142957142Y-112954819D02*
X142766666Y-112954819D01*
X142766666Y-112954819D02*
X142671428Y-112907200D01*
X142671428Y-112907200D02*
X142623809Y-112859580D01*
X142623809Y-112859580D02*
X142576190Y-112764342D01*
X142576190Y-112764342D02*
X142576190Y-112478628D01*
X142576190Y-112478628D02*
X142623809Y-112383390D01*
X142623809Y-112383390D02*
X142671428Y-112335771D01*
X142671428Y-112335771D02*
X142766666Y-112288152D01*
X142766666Y-112288152D02*
X142957142Y-112288152D01*
X142957142Y-112288152D02*
X143052380Y-112335771D01*
X143909523Y-111954819D02*
X143719047Y-111954819D01*
X143719047Y-111954819D02*
X143623809Y-112002438D01*
X143623809Y-112002438D02*
X143576190Y-112050057D01*
X143576190Y-112050057D02*
X143480952Y-112192914D01*
X143480952Y-112192914D02*
X143433333Y-112383390D01*
X143433333Y-112383390D02*
X143433333Y-112764342D01*
X143433333Y-112764342D02*
X143480952Y-112859580D01*
X143480952Y-112859580D02*
X143528571Y-112907200D01*
X143528571Y-112907200D02*
X143623809Y-112954819D01*
X143623809Y-112954819D02*
X143814285Y-112954819D01*
X143814285Y-112954819D02*
X143909523Y-112907200D01*
X143909523Y-112907200D02*
X143957142Y-112859580D01*
X143957142Y-112859580D02*
X144004761Y-112764342D01*
X144004761Y-112764342D02*
X144004761Y-112526247D01*
X144004761Y-112526247D02*
X143957142Y-112431009D01*
X143957142Y-112431009D02*
X143909523Y-112383390D01*
X143909523Y-112383390D02*
X143814285Y-112335771D01*
X143814285Y-112335771D02*
X143623809Y-112335771D01*
X143623809Y-112335771D02*
X143528571Y-112383390D01*
X143528571Y-112383390D02*
X143480952Y-112431009D01*
X143480952Y-112431009D02*
X143433333Y-112526247D01*
X144861904Y-112288152D02*
X144861904Y-112954819D01*
X144623809Y-111907200D02*
X144385714Y-112621485D01*
X144385714Y-112621485D02*
X145004761Y-112621485D01*
X145385714Y-112573866D02*
X146147619Y-112573866D01*
X146528571Y-112288152D02*
X146719047Y-112954819D01*
X146719047Y-112954819D02*
X146909523Y-112478628D01*
X146909523Y-112478628D02*
X147099999Y-112954819D01*
X147099999Y-112954819D02*
X147290475Y-112288152D01*
X148052380Y-112907200D02*
X147957142Y-112954819D01*
X147957142Y-112954819D02*
X147766666Y-112954819D01*
X147766666Y-112954819D02*
X147671428Y-112907200D01*
X147671428Y-112907200D02*
X147623809Y-112811961D01*
X147623809Y-112811961D02*
X147623809Y-112431009D01*
X147623809Y-112431009D02*
X147671428Y-112335771D01*
X147671428Y-112335771D02*
X147766666Y-112288152D01*
X147766666Y-112288152D02*
X147957142Y-112288152D01*
X147957142Y-112288152D02*
X148052380Y-112335771D01*
X148052380Y-112335771D02*
X148099999Y-112431009D01*
X148099999Y-112431009D02*
X148099999Y-112526247D01*
X148099999Y-112526247D02*
X147623809Y-112621485D01*
X148957142Y-112954819D02*
X148957142Y-111954819D01*
X148957142Y-112907200D02*
X148861904Y-112954819D01*
X148861904Y-112954819D02*
X148671428Y-112954819D01*
X148671428Y-112954819D02*
X148576190Y-112907200D01*
X148576190Y-112907200D02*
X148528571Y-112859580D01*
X148528571Y-112859580D02*
X148480952Y-112764342D01*
X148480952Y-112764342D02*
X148480952Y-112478628D01*
X148480952Y-112478628D02*
X148528571Y-112383390D01*
X148528571Y-112383390D02*
X148576190Y-112335771D01*
X148576190Y-112335771D02*
X148671428Y-112288152D01*
X148671428Y-112288152D02*
X148861904Y-112288152D01*
X148861904Y-112288152D02*
X148957142Y-112335771D01*
X149861904Y-112288152D02*
X149861904Y-113097676D01*
X149861904Y-113097676D02*
X149814285Y-113192914D01*
X149814285Y-113192914D02*
X149766666Y-113240533D01*
X149766666Y-113240533D02*
X149671428Y-113288152D01*
X149671428Y-113288152D02*
X149528571Y-113288152D01*
X149528571Y-113288152D02*
X149433333Y-113240533D01*
X149861904Y-112907200D02*
X149766666Y-112954819D01*
X149766666Y-112954819D02*
X149576190Y-112954819D01*
X149576190Y-112954819D02*
X149480952Y-112907200D01*
X149480952Y-112907200D02*
X149433333Y-112859580D01*
X149433333Y-112859580D02*
X149385714Y-112764342D01*
X149385714Y-112764342D02*
X149385714Y-112478628D01*
X149385714Y-112478628D02*
X149433333Y-112383390D01*
X149433333Y-112383390D02*
X149480952Y-112335771D01*
X149480952Y-112335771D02*
X149576190Y-112288152D01*
X149576190Y-112288152D02*
X149766666Y-112288152D01*
X149766666Y-112288152D02*
X149861904Y-112335771D01*
X150719047Y-112907200D02*
X150623809Y-112954819D01*
X150623809Y-112954819D02*
X150433333Y-112954819D01*
X150433333Y-112954819D02*
X150338095Y-112907200D01*
X150338095Y-112907200D02*
X150290476Y-112811961D01*
X150290476Y-112811961D02*
X150290476Y-112431009D01*
X150290476Y-112431009D02*
X150338095Y-112335771D01*
X150338095Y-112335771D02*
X150433333Y-112288152D01*
X150433333Y-112288152D02*
X150623809Y-112288152D01*
X150623809Y-112288152D02*
X150719047Y-112335771D01*
X150719047Y-112335771D02*
X150766666Y-112431009D01*
X150766666Y-112431009D02*
X150766666Y-112526247D01*
X150766666Y-112526247D02*
X150290476Y-112621485D01*
X151195238Y-112573866D02*
X151957143Y-112573866D01*
X152433333Y-112288152D02*
X152433333Y-113288152D01*
X152433333Y-112335771D02*
X152528571Y-112288152D01*
X152528571Y-112288152D02*
X152719047Y-112288152D01*
X152719047Y-112288152D02*
X152814285Y-112335771D01*
X152814285Y-112335771D02*
X152861904Y-112383390D01*
X152861904Y-112383390D02*
X152909523Y-112478628D01*
X152909523Y-112478628D02*
X152909523Y-112764342D01*
X152909523Y-112764342D02*
X152861904Y-112859580D01*
X152861904Y-112859580D02*
X152814285Y-112907200D01*
X152814285Y-112907200D02*
X152719047Y-112954819D01*
X152719047Y-112954819D02*
X152528571Y-112954819D01*
X152528571Y-112954819D02*
X152433333Y-112907200D01*
X153290476Y-112907200D02*
X153385714Y-112954819D01*
X153385714Y-112954819D02*
X153576190Y-112954819D01*
X153576190Y-112954819D02*
X153671428Y-112907200D01*
X153671428Y-112907200D02*
X153719047Y-112811961D01*
X153719047Y-112811961D02*
X153719047Y-112764342D01*
X153719047Y-112764342D02*
X153671428Y-112669104D01*
X153671428Y-112669104D02*
X153576190Y-112621485D01*
X153576190Y-112621485D02*
X153433333Y-112621485D01*
X153433333Y-112621485D02*
X153338095Y-112573866D01*
X153338095Y-112573866D02*
X153290476Y-112478628D01*
X153290476Y-112478628D02*
X153290476Y-112431009D01*
X153290476Y-112431009D02*
X153338095Y-112335771D01*
X153338095Y-112335771D02*
X153433333Y-112288152D01*
X153433333Y-112288152D02*
X153576190Y-112288152D01*
X153576190Y-112288152D02*
X153671428Y-112335771D01*
X154576190Y-112288152D02*
X154576190Y-112954819D01*
X154147619Y-112288152D02*
X154147619Y-112811961D01*
X154147619Y-112811961D02*
X154195238Y-112907200D01*
X154195238Y-112907200D02*
X154290476Y-112954819D01*
X154290476Y-112954819D02*
X154433333Y-112954819D01*
X154433333Y-112954819D02*
X154528571Y-112907200D01*
X154528571Y-112907200D02*
X154576190Y-112859580D01*
X155052381Y-112573866D02*
X155814286Y-112573866D01*
X156290476Y-112288152D02*
X156290476Y-113288152D01*
X156290476Y-112335771D02*
X156385714Y-112288152D01*
X156385714Y-112288152D02*
X156576190Y-112288152D01*
X156576190Y-112288152D02*
X156671428Y-112335771D01*
X156671428Y-112335771D02*
X156719047Y-112383390D01*
X156719047Y-112383390D02*
X156766666Y-112478628D01*
X156766666Y-112478628D02*
X156766666Y-112764342D01*
X156766666Y-112764342D02*
X156719047Y-112859580D01*
X156719047Y-112859580D02*
X156671428Y-112907200D01*
X156671428Y-112907200D02*
X156576190Y-112954819D01*
X156576190Y-112954819D02*
X156385714Y-112954819D01*
X156385714Y-112954819D02*
X156290476Y-112907200D01*
X157623809Y-112907200D02*
X157528571Y-112954819D01*
X157528571Y-112954819D02*
X157338095Y-112954819D01*
X157338095Y-112954819D02*
X157242857Y-112907200D01*
X157242857Y-112907200D02*
X157195238Y-112859580D01*
X157195238Y-112859580D02*
X157147619Y-112764342D01*
X157147619Y-112764342D02*
X157147619Y-112478628D01*
X157147619Y-112478628D02*
X157195238Y-112383390D01*
X157195238Y-112383390D02*
X157242857Y-112335771D01*
X157242857Y-112335771D02*
X157338095Y-112288152D01*
X157338095Y-112288152D02*
X157528571Y-112288152D01*
X157528571Y-112288152D02*
X157623809Y-112335771D01*
X158052381Y-112954819D02*
X158052381Y-111954819D01*
X158052381Y-112335771D02*
X158147619Y-112288152D01*
X158147619Y-112288152D02*
X158338095Y-112288152D01*
X158338095Y-112288152D02*
X158433333Y-112335771D01*
X158433333Y-112335771D02*
X158480952Y-112383390D01*
X158480952Y-112383390D02*
X158528571Y-112478628D01*
X158528571Y-112478628D02*
X158528571Y-112764342D01*
X158528571Y-112764342D02*
X158480952Y-112859580D01*
X158480952Y-112859580D02*
X158433333Y-112907200D01*
X158433333Y-112907200D02*
X158338095Y-112954819D01*
X158338095Y-112954819D02*
X158147619Y-112954819D01*
X158147619Y-112954819D02*
X158052381Y-112907200D01*
X106119048Y-66169104D02*
X106595238Y-66169104D01*
X106023810Y-66454819D02*
X106357143Y-65454819D01*
X106357143Y-65454819D02*
X106690476Y-66454819D01*
X107595238Y-66359580D02*
X107547619Y-66407200D01*
X107547619Y-66407200D02*
X107404762Y-66454819D01*
X107404762Y-66454819D02*
X107309524Y-66454819D01*
X107309524Y-66454819D02*
X107166667Y-66407200D01*
X107166667Y-66407200D02*
X107071429Y-66311961D01*
X107071429Y-66311961D02*
X107023810Y-66216723D01*
X107023810Y-66216723D02*
X106976191Y-66026247D01*
X106976191Y-66026247D02*
X106976191Y-65883390D01*
X106976191Y-65883390D02*
X107023810Y-65692914D01*
X107023810Y-65692914D02*
X107071429Y-65597676D01*
X107071429Y-65597676D02*
X107166667Y-65502438D01*
X107166667Y-65502438D02*
X107309524Y-65454819D01*
X107309524Y-65454819D02*
X107404762Y-65454819D01*
X107404762Y-65454819D02*
X107547619Y-65502438D01*
X107547619Y-65502438D02*
X107595238Y-65550057D01*
X108785715Y-66454819D02*
X108785715Y-65454819D01*
X109261905Y-66454819D02*
X109261905Y-65454819D01*
X109261905Y-65454819D02*
X109833333Y-66454819D01*
X109833333Y-66454819D02*
X109833333Y-65454819D01*
D11*
X115223808Y-70319161D02*
X115128570Y-70414400D01*
X115128570Y-70414400D02*
X114842856Y-70509638D01*
X114842856Y-70509638D02*
X114652380Y-70509638D01*
X114652380Y-70509638D02*
X114366665Y-70414400D01*
X114366665Y-70414400D02*
X114176189Y-70223923D01*
X114176189Y-70223923D02*
X114080951Y-70033447D01*
X114080951Y-70033447D02*
X113985713Y-69652495D01*
X113985713Y-69652495D02*
X113985713Y-69366780D01*
X113985713Y-69366780D02*
X114080951Y-68985828D01*
X114080951Y-68985828D02*
X114176189Y-68795352D01*
X114176189Y-68795352D02*
X114366665Y-68604876D01*
X114366665Y-68604876D02*
X114652380Y-68509638D01*
X114652380Y-68509638D02*
X114842856Y-68509638D01*
X114842856Y-68509638D02*
X115128570Y-68604876D01*
X115128570Y-68604876D02*
X115223808Y-68700114D01*
X116938094Y-68509638D02*
X116557141Y-68509638D01*
X116557141Y-68509638D02*
X116366665Y-68604876D01*
X116366665Y-68604876D02*
X116271427Y-68700114D01*
X116271427Y-68700114D02*
X116080951Y-68985828D01*
X116080951Y-68985828D02*
X115985713Y-69366780D01*
X115985713Y-69366780D02*
X115985713Y-70128685D01*
X115985713Y-70128685D02*
X116080951Y-70319161D01*
X116080951Y-70319161D02*
X116176189Y-70414400D01*
X116176189Y-70414400D02*
X116366665Y-70509638D01*
X116366665Y-70509638D02*
X116747618Y-70509638D01*
X116747618Y-70509638D02*
X116938094Y-70414400D01*
X116938094Y-70414400D02*
X117033332Y-70319161D01*
X117033332Y-70319161D02*
X117128570Y-70128685D01*
X117128570Y-70128685D02*
X117128570Y-69652495D01*
X117128570Y-69652495D02*
X117033332Y-69462019D01*
X117033332Y-69462019D02*
X116938094Y-69366780D01*
X116938094Y-69366780D02*
X116747618Y-69271542D01*
X116747618Y-69271542D02*
X116366665Y-69271542D01*
X116366665Y-69271542D02*
X116176189Y-69366780D01*
X116176189Y-69366780D02*
X116080951Y-69462019D01*
X116080951Y-69462019D02*
X115985713Y-69652495D01*
X118842856Y-69176304D02*
X118842856Y-70509638D01*
X118366665Y-68414400D02*
X117890475Y-69842971D01*
X117890475Y-69842971D02*
X119128570Y-69842971D01*
X121223809Y-68509638D02*
X121699999Y-70509638D01*
X121699999Y-70509638D02*
X122080952Y-69081066D01*
X122080952Y-69081066D02*
X122461904Y-70509638D01*
X122461904Y-70509638D02*
X122938095Y-68509638D01*
X124461904Y-70414400D02*
X124271428Y-70509638D01*
X124271428Y-70509638D02*
X123890475Y-70509638D01*
X123890475Y-70509638D02*
X123699999Y-70414400D01*
X123699999Y-70414400D02*
X123604761Y-70223923D01*
X123604761Y-70223923D02*
X123604761Y-69462019D01*
X123604761Y-69462019D02*
X123699999Y-69271542D01*
X123699999Y-69271542D02*
X123890475Y-69176304D01*
X123890475Y-69176304D02*
X124271428Y-69176304D01*
X124271428Y-69176304D02*
X124461904Y-69271542D01*
X124461904Y-69271542D02*
X124557142Y-69462019D01*
X124557142Y-69462019D02*
X124557142Y-69652495D01*
X124557142Y-69652495D02*
X123604761Y-69842971D01*
X126271428Y-70509638D02*
X126271428Y-68509638D01*
X126271428Y-70414400D02*
X126080952Y-70509638D01*
X126080952Y-70509638D02*
X125699999Y-70509638D01*
X125699999Y-70509638D02*
X125509523Y-70414400D01*
X125509523Y-70414400D02*
X125414285Y-70319161D01*
X125414285Y-70319161D02*
X125319047Y-70128685D01*
X125319047Y-70128685D02*
X125319047Y-69557257D01*
X125319047Y-69557257D02*
X125414285Y-69366780D01*
X125414285Y-69366780D02*
X125509523Y-69271542D01*
X125509523Y-69271542D02*
X125699999Y-69176304D01*
X125699999Y-69176304D02*
X126080952Y-69176304D01*
X126080952Y-69176304D02*
X126271428Y-69271542D01*
X128080952Y-69176304D02*
X128080952Y-70795352D01*
X128080952Y-70795352D02*
X127985714Y-70985828D01*
X127985714Y-70985828D02*
X127890476Y-71081066D01*
X127890476Y-71081066D02*
X127699999Y-71176304D01*
X127699999Y-71176304D02*
X127414285Y-71176304D01*
X127414285Y-71176304D02*
X127223809Y-71081066D01*
X128080952Y-70414400D02*
X127890476Y-70509638D01*
X127890476Y-70509638D02*
X127509523Y-70509638D01*
X127509523Y-70509638D02*
X127319047Y-70414400D01*
X127319047Y-70414400D02*
X127223809Y-70319161D01*
X127223809Y-70319161D02*
X127128571Y-70128685D01*
X127128571Y-70128685D02*
X127128571Y-69557257D01*
X127128571Y-69557257D02*
X127223809Y-69366780D01*
X127223809Y-69366780D02*
X127319047Y-69271542D01*
X127319047Y-69271542D02*
X127509523Y-69176304D01*
X127509523Y-69176304D02*
X127890476Y-69176304D01*
X127890476Y-69176304D02*
X128080952Y-69271542D01*
X129795238Y-70414400D02*
X129604762Y-70509638D01*
X129604762Y-70509638D02*
X129223809Y-70509638D01*
X129223809Y-70509638D02*
X129033333Y-70414400D01*
X129033333Y-70414400D02*
X128938095Y-70223923D01*
X128938095Y-70223923D02*
X128938095Y-69462019D01*
X128938095Y-69462019D02*
X129033333Y-69271542D01*
X129033333Y-69271542D02*
X129223809Y-69176304D01*
X129223809Y-69176304D02*
X129604762Y-69176304D01*
X129604762Y-69176304D02*
X129795238Y-69271542D01*
X129795238Y-69271542D02*
X129890476Y-69462019D01*
X129890476Y-69462019D02*
X129890476Y-69652495D01*
X129890476Y-69652495D02*
X128938095Y-69842971D01*
X132271429Y-70509638D02*
X132271429Y-68509638D01*
X132271429Y-68509638D02*
X133033334Y-68509638D01*
X133033334Y-68509638D02*
X133223810Y-68604876D01*
X133223810Y-68604876D02*
X133319048Y-68700114D01*
X133319048Y-68700114D02*
X133414286Y-68890590D01*
X133414286Y-68890590D02*
X133414286Y-69176304D01*
X133414286Y-69176304D02*
X133319048Y-69366780D01*
X133319048Y-69366780D02*
X133223810Y-69462019D01*
X133223810Y-69462019D02*
X133033334Y-69557257D01*
X133033334Y-69557257D02*
X132271429Y-69557257D01*
X135414286Y-70319161D02*
X135319048Y-70414400D01*
X135319048Y-70414400D02*
X135033334Y-70509638D01*
X135033334Y-70509638D02*
X134842858Y-70509638D01*
X134842858Y-70509638D02*
X134557143Y-70414400D01*
X134557143Y-70414400D02*
X134366667Y-70223923D01*
X134366667Y-70223923D02*
X134271429Y-70033447D01*
X134271429Y-70033447D02*
X134176191Y-69652495D01*
X134176191Y-69652495D02*
X134176191Y-69366780D01*
X134176191Y-69366780D02*
X134271429Y-68985828D01*
X134271429Y-68985828D02*
X134366667Y-68795352D01*
X134366667Y-68795352D02*
X134557143Y-68604876D01*
X134557143Y-68604876D02*
X134842858Y-68509638D01*
X134842858Y-68509638D02*
X135033334Y-68509638D01*
X135033334Y-68509638D02*
X135319048Y-68604876D01*
X135319048Y-68604876D02*
X135414286Y-68700114D01*
X136938096Y-69462019D02*
X137223810Y-69557257D01*
X137223810Y-69557257D02*
X137319048Y-69652495D01*
X137319048Y-69652495D02*
X137414286Y-69842971D01*
X137414286Y-69842971D02*
X137414286Y-70128685D01*
X137414286Y-70128685D02*
X137319048Y-70319161D01*
X137319048Y-70319161D02*
X137223810Y-70414400D01*
X137223810Y-70414400D02*
X137033334Y-70509638D01*
X137033334Y-70509638D02*
X136271429Y-70509638D01*
X136271429Y-70509638D02*
X136271429Y-68509638D01*
X136271429Y-68509638D02*
X136938096Y-68509638D01*
X136938096Y-68509638D02*
X137128572Y-68604876D01*
X137128572Y-68604876D02*
X137223810Y-68700114D01*
X137223810Y-68700114D02*
X137319048Y-68890590D01*
X137319048Y-68890590D02*
X137319048Y-69081066D01*
X137319048Y-69081066D02*
X137223810Y-69271542D01*
X137223810Y-69271542D02*
X137128572Y-69366780D01*
X137128572Y-69366780D02*
X136938096Y-69462019D01*
X136938096Y-69462019D02*
X136271429Y-69462019D01*
D10*
X119444286Y-71754819D02*
X119777619Y-72754819D01*
X119777619Y-72754819D02*
X120110952Y-71754819D01*
X120396667Y-71850057D02*
X120444286Y-71802438D01*
X120444286Y-71802438D02*
X120539524Y-71754819D01*
X120539524Y-71754819D02*
X120777619Y-71754819D01*
X120777619Y-71754819D02*
X120872857Y-71802438D01*
X120872857Y-71802438D02*
X120920476Y-71850057D01*
X120920476Y-71850057D02*
X120968095Y-71945295D01*
X120968095Y-71945295D02*
X120968095Y-72040533D01*
X120968095Y-72040533D02*
X120920476Y-72183390D01*
X120920476Y-72183390D02*
X120349048Y-72754819D01*
X120349048Y-72754819D02*
X120968095Y-72754819D01*
X121396667Y-72659580D02*
X121444286Y-72707200D01*
X121444286Y-72707200D02*
X121396667Y-72754819D01*
X121396667Y-72754819D02*
X121349048Y-72707200D01*
X121349048Y-72707200D02*
X121396667Y-72659580D01*
X121396667Y-72659580D02*
X121396667Y-72754819D01*
X122063333Y-71754819D02*
X122158571Y-71754819D01*
X122158571Y-71754819D02*
X122253809Y-71802438D01*
X122253809Y-71802438D02*
X122301428Y-71850057D01*
X122301428Y-71850057D02*
X122349047Y-71945295D01*
X122349047Y-71945295D02*
X122396666Y-72135771D01*
X122396666Y-72135771D02*
X122396666Y-72373866D01*
X122396666Y-72373866D02*
X122349047Y-72564342D01*
X122349047Y-72564342D02*
X122301428Y-72659580D01*
X122301428Y-72659580D02*
X122253809Y-72707200D01*
X122253809Y-72707200D02*
X122158571Y-72754819D01*
X122158571Y-72754819D02*
X122063333Y-72754819D01*
X122063333Y-72754819D02*
X121968095Y-72707200D01*
X121968095Y-72707200D02*
X121920476Y-72659580D01*
X121920476Y-72659580D02*
X121872857Y-72564342D01*
X121872857Y-72564342D02*
X121825238Y-72373866D01*
X121825238Y-72373866D02*
X121825238Y-72135771D01*
X121825238Y-72135771D02*
X121872857Y-71945295D01*
X121872857Y-71945295D02*
X121920476Y-71850057D01*
X121920476Y-71850057D02*
X121968095Y-71802438D01*
X121968095Y-71802438D02*
X122063333Y-71754819D01*
X123587143Y-72373866D02*
X124349048Y-72373866D01*
X125777619Y-71754819D02*
X125872857Y-71754819D01*
X125872857Y-71754819D02*
X125968095Y-71802438D01*
X125968095Y-71802438D02*
X126015714Y-71850057D01*
X126015714Y-71850057D02*
X126063333Y-71945295D01*
X126063333Y-71945295D02*
X126110952Y-72135771D01*
X126110952Y-72135771D02*
X126110952Y-72373866D01*
X126110952Y-72373866D02*
X126063333Y-72564342D01*
X126063333Y-72564342D02*
X126015714Y-72659580D01*
X126015714Y-72659580D02*
X125968095Y-72707200D01*
X125968095Y-72707200D02*
X125872857Y-72754819D01*
X125872857Y-72754819D02*
X125777619Y-72754819D01*
X125777619Y-72754819D02*
X125682381Y-72707200D01*
X125682381Y-72707200D02*
X125634762Y-72659580D01*
X125634762Y-72659580D02*
X125587143Y-72564342D01*
X125587143Y-72564342D02*
X125539524Y-72373866D01*
X125539524Y-72373866D02*
X125539524Y-72135771D01*
X125539524Y-72135771D02*
X125587143Y-71945295D01*
X125587143Y-71945295D02*
X125634762Y-71850057D01*
X125634762Y-71850057D02*
X125682381Y-71802438D01*
X125682381Y-71802438D02*
X125777619Y-71754819D01*
X126444286Y-71754819D02*
X127063333Y-71754819D01*
X127063333Y-71754819D02*
X126730000Y-72135771D01*
X126730000Y-72135771D02*
X126872857Y-72135771D01*
X126872857Y-72135771D02*
X126968095Y-72183390D01*
X126968095Y-72183390D02*
X127015714Y-72231009D01*
X127015714Y-72231009D02*
X127063333Y-72326247D01*
X127063333Y-72326247D02*
X127063333Y-72564342D01*
X127063333Y-72564342D02*
X127015714Y-72659580D01*
X127015714Y-72659580D02*
X126968095Y-72707200D01*
X126968095Y-72707200D02*
X126872857Y-72754819D01*
X126872857Y-72754819D02*
X126587143Y-72754819D01*
X126587143Y-72754819D02*
X126491905Y-72707200D01*
X126491905Y-72707200D02*
X126444286Y-72659580D01*
X128206190Y-71707200D02*
X127349048Y-72992914D01*
X128491905Y-71850057D02*
X128539524Y-71802438D01*
X128539524Y-71802438D02*
X128634762Y-71754819D01*
X128634762Y-71754819D02*
X128872857Y-71754819D01*
X128872857Y-71754819D02*
X128968095Y-71802438D01*
X128968095Y-71802438D02*
X129015714Y-71850057D01*
X129015714Y-71850057D02*
X129063333Y-71945295D01*
X129063333Y-71945295D02*
X129063333Y-72040533D01*
X129063333Y-72040533D02*
X129015714Y-72183390D01*
X129015714Y-72183390D02*
X128444286Y-72754819D01*
X128444286Y-72754819D02*
X129063333Y-72754819D01*
X129682381Y-71754819D02*
X129777619Y-71754819D01*
X129777619Y-71754819D02*
X129872857Y-71802438D01*
X129872857Y-71802438D02*
X129920476Y-71850057D01*
X129920476Y-71850057D02*
X129968095Y-71945295D01*
X129968095Y-71945295D02*
X130015714Y-72135771D01*
X130015714Y-72135771D02*
X130015714Y-72373866D01*
X130015714Y-72373866D02*
X129968095Y-72564342D01*
X129968095Y-72564342D02*
X129920476Y-72659580D01*
X129920476Y-72659580D02*
X129872857Y-72707200D01*
X129872857Y-72707200D02*
X129777619Y-72754819D01*
X129777619Y-72754819D02*
X129682381Y-72754819D01*
X129682381Y-72754819D02*
X129587143Y-72707200D01*
X129587143Y-72707200D02*
X129539524Y-72659580D01*
X129539524Y-72659580D02*
X129491905Y-72564342D01*
X129491905Y-72564342D02*
X129444286Y-72373866D01*
X129444286Y-72373866D02*
X129444286Y-72135771D01*
X129444286Y-72135771D02*
X129491905Y-71945295D01*
X129491905Y-71945295D02*
X129539524Y-71850057D01*
X129539524Y-71850057D02*
X129587143Y-71802438D01*
X129587143Y-71802438D02*
X129682381Y-71754819D01*
X130396667Y-71850057D02*
X130444286Y-71802438D01*
X130444286Y-71802438D02*
X130539524Y-71754819D01*
X130539524Y-71754819D02*
X130777619Y-71754819D01*
X130777619Y-71754819D02*
X130872857Y-71802438D01*
X130872857Y-71802438D02*
X130920476Y-71850057D01*
X130920476Y-71850057D02*
X130968095Y-71945295D01*
X130968095Y-71945295D02*
X130968095Y-72040533D01*
X130968095Y-72040533D02*
X130920476Y-72183390D01*
X130920476Y-72183390D02*
X130349048Y-72754819D01*
X130349048Y-72754819D02*
X130968095Y-72754819D01*
X131825238Y-71754819D02*
X131634762Y-71754819D01*
X131634762Y-71754819D02*
X131539524Y-71802438D01*
X131539524Y-71802438D02*
X131491905Y-71850057D01*
X131491905Y-71850057D02*
X131396667Y-71992914D01*
X131396667Y-71992914D02*
X131349048Y-72183390D01*
X131349048Y-72183390D02*
X131349048Y-72564342D01*
X131349048Y-72564342D02*
X131396667Y-72659580D01*
X131396667Y-72659580D02*
X131444286Y-72707200D01*
X131444286Y-72707200D02*
X131539524Y-72754819D01*
X131539524Y-72754819D02*
X131730000Y-72754819D01*
X131730000Y-72754819D02*
X131825238Y-72707200D01*
X131825238Y-72707200D02*
X131872857Y-72659580D01*
X131872857Y-72659580D02*
X131920476Y-72564342D01*
X131920476Y-72564342D02*
X131920476Y-72326247D01*
X131920476Y-72326247D02*
X131872857Y-72231009D01*
X131872857Y-72231009D02*
X131825238Y-72183390D01*
X131825238Y-72183390D02*
X131730000Y-72135771D01*
X131730000Y-72135771D02*
X131539524Y-72135771D01*
X131539524Y-72135771D02*
X131444286Y-72183390D01*
X131444286Y-72183390D02*
X131396667Y-72231009D01*
X131396667Y-72231009D02*
X131349048Y-72326247D01*
X139614286Y-66073866D02*
X140376191Y-66073866D01*
X139995238Y-66454819D02*
X139995238Y-65692914D01*
X141328571Y-65454819D02*
X140852381Y-65454819D01*
X140852381Y-65454819D02*
X140804762Y-65931009D01*
X140804762Y-65931009D02*
X140852381Y-65883390D01*
X140852381Y-65883390D02*
X140947619Y-65835771D01*
X140947619Y-65835771D02*
X141185714Y-65835771D01*
X141185714Y-65835771D02*
X141280952Y-65883390D01*
X141280952Y-65883390D02*
X141328571Y-65931009D01*
X141328571Y-65931009D02*
X141376190Y-66026247D01*
X141376190Y-66026247D02*
X141376190Y-66264342D01*
X141376190Y-66264342D02*
X141328571Y-66359580D01*
X141328571Y-66359580D02*
X141280952Y-66407200D01*
X141280952Y-66407200D02*
X141185714Y-66454819D01*
X141185714Y-66454819D02*
X140947619Y-66454819D01*
X140947619Y-66454819D02*
X140852381Y-66407200D01*
X140852381Y-66407200D02*
X140804762Y-66359580D01*
X141661905Y-65454819D02*
X141995238Y-66454819D01*
X141995238Y-66454819D02*
X142328571Y-65454819D01*
X142661905Y-66454819D02*
X142661905Y-65454819D01*
X142661905Y-65454819D02*
X142900000Y-65454819D01*
X142900000Y-65454819D02*
X143042857Y-65502438D01*
X143042857Y-65502438D02*
X143138095Y-65597676D01*
X143138095Y-65597676D02*
X143185714Y-65692914D01*
X143185714Y-65692914D02*
X143233333Y-65883390D01*
X143233333Y-65883390D02*
X143233333Y-66026247D01*
X143233333Y-66026247D02*
X143185714Y-66216723D01*
X143185714Y-66216723D02*
X143138095Y-66311961D01*
X143138095Y-66311961D02*
X143042857Y-66407200D01*
X143042857Y-66407200D02*
X142900000Y-66454819D01*
X142900000Y-66454819D02*
X142661905Y-66454819D01*
X144233333Y-66359580D02*
X144185714Y-66407200D01*
X144185714Y-66407200D02*
X144042857Y-66454819D01*
X144042857Y-66454819D02*
X143947619Y-66454819D01*
X143947619Y-66454819D02*
X143804762Y-66407200D01*
X143804762Y-66407200D02*
X143709524Y-66311961D01*
X143709524Y-66311961D02*
X143661905Y-66216723D01*
X143661905Y-66216723D02*
X143614286Y-66026247D01*
X143614286Y-66026247D02*
X143614286Y-65883390D01*
X143614286Y-65883390D02*
X143661905Y-65692914D01*
X143661905Y-65692914D02*
X143709524Y-65597676D01*
X143709524Y-65597676D02*
X143804762Y-65502438D01*
X143804762Y-65502438D02*
X143947619Y-65454819D01*
X143947619Y-65454819D02*
X144042857Y-65454819D01*
X144042857Y-65454819D02*
X144185714Y-65502438D01*
X144185714Y-65502438D02*
X144233333Y-65550057D01*
D12*
X148606045Y-68252071D02*
X148558426Y-68204452D01*
X148558426Y-68204452D02*
X148463188Y-68061595D01*
X148463188Y-68061595D02*
X148415569Y-67966357D01*
X148415569Y-67966357D02*
X148367950Y-67823500D01*
X148367950Y-67823500D02*
X148320331Y-67585404D01*
X148320331Y-67585404D02*
X148320331Y-67394928D01*
X148320331Y-67394928D02*
X148367950Y-67156833D01*
X148367950Y-67156833D02*
X148415569Y-67013976D01*
X148415569Y-67013976D02*
X148463188Y-66918738D01*
X148463188Y-66918738D02*
X148558426Y-66775880D01*
X148558426Y-66775880D02*
X148606045Y-66728261D01*
X149510807Y-66918738D02*
X149415569Y-66871119D01*
X149415569Y-66871119D02*
X149272712Y-66871119D01*
X149272712Y-66871119D02*
X149129855Y-66918738D01*
X149129855Y-66918738D02*
X149034617Y-67013976D01*
X149034617Y-67013976D02*
X148986998Y-67109214D01*
X148986998Y-67109214D02*
X148939379Y-67299690D01*
X148939379Y-67299690D02*
X148939379Y-67442547D01*
X148939379Y-67442547D02*
X148986998Y-67633023D01*
X148986998Y-67633023D02*
X149034617Y-67728261D01*
X149034617Y-67728261D02*
X149129855Y-67823500D01*
X149129855Y-67823500D02*
X149272712Y-67871119D01*
X149272712Y-67871119D02*
X149367950Y-67871119D01*
X149367950Y-67871119D02*
X149510807Y-67823500D01*
X149510807Y-67823500D02*
X149558426Y-67775880D01*
X149558426Y-67775880D02*
X149558426Y-67442547D01*
X149558426Y-67442547D02*
X149367950Y-67442547D01*
X150558426Y-67871119D02*
X150225093Y-67394928D01*
X149986998Y-67871119D02*
X149986998Y-66871119D01*
X149986998Y-66871119D02*
X150367950Y-66871119D01*
X150367950Y-66871119D02*
X150463188Y-66918738D01*
X150463188Y-66918738D02*
X150510807Y-66966357D01*
X150510807Y-66966357D02*
X150558426Y-67061595D01*
X150558426Y-67061595D02*
X150558426Y-67204452D01*
X150558426Y-67204452D02*
X150510807Y-67299690D01*
X150510807Y-67299690D02*
X150463188Y-67347309D01*
X150463188Y-67347309D02*
X150367950Y-67394928D01*
X150367950Y-67394928D02*
X149986998Y-67394928D01*
X150986998Y-67871119D02*
X150986998Y-66871119D01*
X150986998Y-66871119D02*
X151558426Y-67871119D01*
X151558426Y-67871119D02*
X151558426Y-66871119D01*
X151939379Y-68252071D02*
X151986998Y-68204452D01*
X151986998Y-68204452D02*
X152082236Y-68061595D01*
X152082236Y-68061595D02*
X152129855Y-67966357D01*
X152129855Y-67966357D02*
X152177474Y-67823500D01*
X152177474Y-67823500D02*
X152225093Y-67585404D01*
X152225093Y-67585404D02*
X152225093Y-67394928D01*
X152225093Y-67394928D02*
X152177474Y-67156833D01*
X152177474Y-67156833D02*
X152129855Y-67013976D01*
X152129855Y-67013976D02*
X152082236Y-66918738D01*
X152082236Y-66918738D02*
X151986998Y-66775880D01*
X151986998Y-66775880D02*
X151939379Y-66728261D01*
X140606045Y-68252071D02*
X140558426Y-68204452D01*
X140558426Y-68204452D02*
X140463188Y-68061595D01*
X140463188Y-68061595D02*
X140415569Y-67966357D01*
X140415569Y-67966357D02*
X140367950Y-67823500D01*
X140367950Y-67823500D02*
X140320331Y-67585404D01*
X140320331Y-67585404D02*
X140320331Y-67394928D01*
X140320331Y-67394928D02*
X140367950Y-67156833D01*
X140367950Y-67156833D02*
X140415569Y-67013976D01*
X140415569Y-67013976D02*
X140463188Y-66918738D01*
X140463188Y-66918738D02*
X140558426Y-66775880D01*
X140558426Y-66775880D02*
X140606045Y-66728261D01*
X140891760Y-66871119D02*
X141129855Y-67871119D01*
X141129855Y-67871119D02*
X141320331Y-67156833D01*
X141320331Y-67156833D02*
X141510807Y-67871119D01*
X141510807Y-67871119D02*
X141748903Y-66871119D01*
X142129855Y-67871119D02*
X142129855Y-66871119D01*
X142129855Y-67347309D02*
X142701283Y-67347309D01*
X142701283Y-67871119D02*
X142701283Y-66871119D01*
X143034617Y-66871119D02*
X143606045Y-66871119D01*
X143320331Y-67871119D02*
X143320331Y-66871119D01*
X143844141Y-68252071D02*
X143891760Y-68204452D01*
X143891760Y-68204452D02*
X143986998Y-68061595D01*
X143986998Y-68061595D02*
X144034617Y-67966357D01*
X144034617Y-67966357D02*
X144082236Y-67823500D01*
X144082236Y-67823500D02*
X144129855Y-67585404D01*
X144129855Y-67585404D02*
X144129855Y-67394928D01*
X144129855Y-67394928D02*
X144082236Y-67156833D01*
X144082236Y-67156833D02*
X144034617Y-67013976D01*
X144034617Y-67013976D02*
X143986998Y-66918738D01*
X143986998Y-66918738D02*
X143891760Y-66775880D01*
X143891760Y-66775880D02*
X143844141Y-66728261D01*
D10*
X157313333Y-104499580D02*
X157265714Y-104547200D01*
X157265714Y-104547200D02*
X157122857Y-104594819D01*
X157122857Y-104594819D02*
X157027619Y-104594819D01*
X157027619Y-104594819D02*
X156884762Y-104547200D01*
X156884762Y-104547200D02*
X156789524Y-104451961D01*
X156789524Y-104451961D02*
X156741905Y-104356723D01*
X156741905Y-104356723D02*
X156694286Y-104166247D01*
X156694286Y-104166247D02*
X156694286Y-104023390D01*
X156694286Y-104023390D02*
X156741905Y-103832914D01*
X156741905Y-103832914D02*
X156789524Y-103737676D01*
X156789524Y-103737676D02*
X156884762Y-103642438D01*
X156884762Y-103642438D02*
X157027619Y-103594819D01*
X157027619Y-103594819D02*
X157122857Y-103594819D01*
X157122857Y-103594819D02*
X157265714Y-103642438D01*
X157265714Y-103642438D02*
X157313333Y-103690057D01*
X158170476Y-103594819D02*
X157980000Y-103594819D01*
X157980000Y-103594819D02*
X157884762Y-103642438D01*
X157884762Y-103642438D02*
X157837143Y-103690057D01*
X157837143Y-103690057D02*
X157741905Y-103832914D01*
X157741905Y-103832914D02*
X157694286Y-104023390D01*
X157694286Y-104023390D02*
X157694286Y-104404342D01*
X157694286Y-104404342D02*
X157741905Y-104499580D01*
X157741905Y-104499580D02*
X157789524Y-104547200D01*
X157789524Y-104547200D02*
X157884762Y-104594819D01*
X157884762Y-104594819D02*
X158075238Y-104594819D01*
X158075238Y-104594819D02*
X158170476Y-104547200D01*
X158170476Y-104547200D02*
X158218095Y-104499580D01*
X158218095Y-104499580D02*
X158265714Y-104404342D01*
X158265714Y-104404342D02*
X158265714Y-104166247D01*
X158265714Y-104166247D02*
X158218095Y-104071009D01*
X158218095Y-104071009D02*
X158170476Y-104023390D01*
X158170476Y-104023390D02*
X158075238Y-103975771D01*
X158075238Y-103975771D02*
X157884762Y-103975771D01*
X157884762Y-103975771D02*
X157789524Y-104023390D01*
X157789524Y-104023390D02*
X157741905Y-104071009D01*
X157741905Y-104071009D02*
X157694286Y-104166247D01*
X138537333Y-93537580D02*
X138489714Y-93585200D01*
X138489714Y-93585200D02*
X138346857Y-93632819D01*
X138346857Y-93632819D02*
X138251619Y-93632819D01*
X138251619Y-93632819D02*
X138108762Y-93585200D01*
X138108762Y-93585200D02*
X138013524Y-93489961D01*
X138013524Y-93489961D02*
X137965905Y-93394723D01*
X137965905Y-93394723D02*
X137918286Y-93204247D01*
X137918286Y-93204247D02*
X137918286Y-93061390D01*
X137918286Y-93061390D02*
X137965905Y-92870914D01*
X137965905Y-92870914D02*
X138013524Y-92775676D01*
X138013524Y-92775676D02*
X138108762Y-92680438D01*
X138108762Y-92680438D02*
X138251619Y-92632819D01*
X138251619Y-92632819D02*
X138346857Y-92632819D01*
X138346857Y-92632819D02*
X138489714Y-92680438D01*
X138489714Y-92680438D02*
X138537333Y-92728057D01*
X139442095Y-92632819D02*
X138965905Y-92632819D01*
X138965905Y-92632819D02*
X138918286Y-93109009D01*
X138918286Y-93109009D02*
X138965905Y-93061390D01*
X138965905Y-93061390D02*
X139061143Y-93013771D01*
X139061143Y-93013771D02*
X139299238Y-93013771D01*
X139299238Y-93013771D02*
X139394476Y-93061390D01*
X139394476Y-93061390D02*
X139442095Y-93109009D01*
X139442095Y-93109009D02*
X139489714Y-93204247D01*
X139489714Y-93204247D02*
X139489714Y-93442342D01*
X139489714Y-93442342D02*
X139442095Y-93537580D01*
X139442095Y-93537580D02*
X139394476Y-93585200D01*
X139394476Y-93585200D02*
X139299238Y-93632819D01*
X139299238Y-93632819D02*
X139061143Y-93632819D01*
X139061143Y-93632819D02*
X138965905Y-93585200D01*
X138965905Y-93585200D02*
X138918286Y-93537580D01*
X103231333Y-95569580D02*
X103183714Y-95617200D01*
X103183714Y-95617200D02*
X103040857Y-95664819D01*
X103040857Y-95664819D02*
X102945619Y-95664819D01*
X102945619Y-95664819D02*
X102802762Y-95617200D01*
X102802762Y-95617200D02*
X102707524Y-95521961D01*
X102707524Y-95521961D02*
X102659905Y-95426723D01*
X102659905Y-95426723D02*
X102612286Y-95236247D01*
X102612286Y-95236247D02*
X102612286Y-95093390D01*
X102612286Y-95093390D02*
X102659905Y-94902914D01*
X102659905Y-94902914D02*
X102707524Y-94807676D01*
X102707524Y-94807676D02*
X102802762Y-94712438D01*
X102802762Y-94712438D02*
X102945619Y-94664819D01*
X102945619Y-94664819D02*
X103040857Y-94664819D01*
X103040857Y-94664819D02*
X103183714Y-94712438D01*
X103183714Y-94712438D02*
X103231333Y-94760057D01*
X104088476Y-94998152D02*
X104088476Y-95664819D01*
X103850381Y-94617200D02*
X103612286Y-95331485D01*
X103612286Y-95331485D02*
X104231333Y-95331485D01*
D13*
X156110000Y-97944000D02*
X156110000Y-103184000D01*
X158850000Y-97944000D02*
X156110000Y-97944000D01*
X158850000Y-97944000D02*
X158850000Y-103184000D01*
X158850000Y-103184000D02*
X156110000Y-103184000D01*
X136084000Y-92048000D02*
X136084000Y-89308000D01*
X141324000Y-89308000D02*
X136084000Y-89308000D01*
X141324000Y-92048000D02*
X136084000Y-92048000D01*
X141324000Y-92048000D02*
X141324000Y-89308000D01*
X100778000Y-94080000D02*
X100778000Y-91340000D01*
X106018000Y-91340000D02*
X100778000Y-91340000D01*
X106018000Y-94080000D02*
X100778000Y-94080000D01*
X106018000Y-94080000D02*
X106018000Y-91340000D01*
M02*
