G04 #@! TF.GenerationSoftware,KiCad,Pcbnew,8.0.6*
G04 #@! TF.CreationDate,2026-04-11T22:34:38+03:00*
G04 #@! TF.ProjectId,c64-wedge-psu-pcb,6336342d-7765-4646-9765-2d7073752d70,rev?*
G04 #@! TF.SameCoordinates,Original*
G04 #@! TF.FileFunction,Copper,L1,Top*
G04 #@! TF.FilePolarity,Positive*
%FSLAX46Y46*%
G04 Gerber Fmt 4.6, Leading zero omitted, Abs format (unit mm)*
G04 Created by KiCad (PCBNEW 8.0.6) date 2026-04-11 22:34:38*
%MOMM*%
%LPD*%
G01*
G04 APERTURE LIST*
G04 Aperture macros list*
%AMRoundRect*
0 Rectangle with rounded corners*
0 $1 Rounding radius*
0 $2 $3 $4 $5 $6 $7 $8 $9 X,Y pos of 4 corners*
0 Add a 4 corners polygon primitive as box body*
4,1,4,$2,$3,$4,$5,$6,$7,$8,$9,$2,$3,0*
0 Add four circle primitives for the rounded corners*
1,1,$1+$1,$2,$3*
1,1,$1+$1,$4,$5*
1,1,$1+$1,$6,$7*
1,1,$1+$1,$8,$9*
0 Add four rect primitives between the rounded corners*
20,1,$1+$1,$2,$3,$4,$5,0*
20,1,$1+$1,$4,$5,$6,$7,0*
20,1,$1+$1,$6,$7,$8,$9,0*
20,1,$1+$1,$8,$9,$2,$3,0*%
G04 Aperture macros list end*
G04 #@! TA.AperFunction,ComponentPad*
%ADD10RoundRect,0.250002X-1.699998X-1.699998X1.699998X-1.699998X1.699998X1.699998X-1.699998X1.699998X0*%
G04 #@! TD*
G04 #@! TA.AperFunction,ComponentPad*
%ADD11C,1.600000*%
G04 #@! TD*
G04 #@! TA.AperFunction,ComponentPad*
%ADD12R,2.000000X2.000000*%
G04 #@! TD*
G04 #@! TA.AperFunction,ComponentPad*
%ADD13R,1.600000X1.600000*%
G04 #@! TD*
G04 #@! TA.AperFunction,ComponentPad*
%ADD14O,1.600000X1.600000*%
G04 #@! TD*
G04 #@! TA.AperFunction,ComponentPad*
%ADD15C,3.600000*%
G04 #@! TD*
G04 #@! TA.AperFunction,ComponentPad*
%ADD16C,2.000000*%
G04 #@! TD*
G04 #@! TA.AperFunction,ComponentPad*
%ADD17R,2.400000X2.400000*%
G04 #@! TD*
G04 #@! TA.AperFunction,ComponentPad*
%ADD18C,2.400000*%
G04 #@! TD*
G04 #@! TA.AperFunction,ComponentPad*
%ADD19R,3.200000X3.200000*%
G04 #@! TD*
G04 #@! TA.AperFunction,ComponentPad*
%ADD20O,3.200000X3.200000*%
G04 #@! TD*
G04 #@! TA.AperFunction,ComponentPad*
%ADD21R,1.800000X1.800000*%
G04 #@! TD*
G04 #@! TA.AperFunction,ComponentPad*
%ADD22O,1.800000X1.800000*%
G04 #@! TD*
G04 #@! TA.AperFunction,ComponentPad*
%ADD23C,1.800000*%
G04 #@! TD*
G04 #@! TA.AperFunction,Conductor*
%ADD24C,4.000000*%
G04 #@! TD*
G04 #@! TA.AperFunction,Conductor*
%ADD25C,1.800000*%
G04 #@! TD*
G04 APERTURE END LIST*
D10*
X104013000Y-62103000D03*
X149987000Y-62103000D03*
X112014000Y-62103000D03*
X141986000Y-62103000D03*
D11*
X155194000Y-101346000D03*
X157694000Y-101346000D03*
D12*
X130556000Y-61976000D03*
D11*
X139954000Y-90678000D03*
X137454000Y-90678000D03*
X120650000Y-90424000D03*
X120650000Y-92924000D03*
D12*
X135636000Y-61976000D03*
D11*
X154940000Y-108656000D03*
D13*
X154940000Y-105156000D03*
D11*
X109982000Y-110998000D03*
D14*
X102362000Y-110998000D03*
D15*
X131826000Y-107442000D03*
X131826000Y-96002000D03*
D11*
X102362000Y-105410000D03*
D14*
X94742000Y-105410000D03*
D16*
X147574000Y-97282000D03*
X152574000Y-97282000D03*
D17*
X128524000Y-87630000D03*
D18*
X128524000Y-80130000D03*
X146050000Y-79114000D03*
D17*
X146050000Y-86614000D03*
D19*
X116078000Y-89916000D03*
D20*
X116078000Y-77216000D03*
D11*
X156972000Y-88138000D03*
D14*
X156972000Y-80518000D03*
D21*
X108048000Y-92202000D03*
D22*
X106348000Y-95902000D03*
X104648000Y-92202000D03*
X102948000Y-95902000D03*
X101248000Y-92202000D03*
D21*
X156972000Y-78232000D03*
D23*
X156972000Y-75692000D03*
D19*
X111252000Y-100584000D03*
D20*
X98552000Y-100584000D03*
D19*
X93472000Y-77216000D03*
D20*
X93472000Y-89916000D03*
D19*
X110998000Y-77216000D03*
D20*
X98298000Y-77216000D03*
D19*
X110998000Y-83058000D03*
D20*
X98298000Y-83058000D03*
D24*
X112014000Y-73152000D02*
X116078000Y-77216000D01*
X112014000Y-62103000D02*
X112014000Y-73152000D01*
X112014000Y-62103000D02*
X112014000Y-76200000D01*
X112014000Y-76200000D02*
X110998000Y-77216000D01*
X93714000Y-83058000D02*
X98298000Y-83058000D01*
X93472000Y-82816000D02*
X93714000Y-83058000D01*
X93472000Y-77216000D02*
X93472000Y-82816000D01*
X93472000Y-72644000D02*
X93472000Y-77216000D01*
X104013000Y-62103000D02*
X93472000Y-72644000D01*
D25*
X147574000Y-97282000D02*
X147574000Y-108966000D01*
X144018000Y-112522000D02*
X147574000Y-108966000D01*
X141859000Y-61976000D02*
X141986000Y-62103000D01*
X156972000Y-80518000D02*
X156972000Y-78232000D01*
X102362000Y-96488000D02*
X102948000Y-95902000D01*
X102362000Y-110998000D02*
X102362000Y-105410000D01*
X102362000Y-105410000D02*
X102362000Y-96488000D01*
X109982000Y-110998000D02*
X111506000Y-112522000D01*
X111506000Y-112522000D02*
X144018000Y-112522000D01*
G04 #@! TA.AperFunction,Conductor*
G36*
X148787039Y-84601685D02*
G01*
X148832794Y-84654489D01*
X148844000Y-84706000D01*
X148844000Y-103072638D01*
X148824315Y-103139677D01*
X148807681Y-103160319D01*
X148626319Y-103341681D01*
X148564996Y-103375166D01*
X148538638Y-103378000D01*
X135433362Y-103378000D01*
X135366323Y-103358315D01*
X135345681Y-103341681D01*
X129830319Y-97826319D01*
X129796834Y-97764996D01*
X129794000Y-97738638D01*
X129794000Y-94285362D01*
X129813685Y-94218323D01*
X129830319Y-94197681D01*
X130011681Y-94016319D01*
X130073004Y-93982834D01*
X130099362Y-93980000D01*
X136652000Y-93980000D01*
X138938000Y-91694000D01*
X138938000Y-84706000D01*
X138957685Y-84638961D01*
X139010489Y-84593206D01*
X139062000Y-84582000D01*
X148720000Y-84582000D01*
X148787039Y-84601685D01*
G37*
G04 #@! TD.AperFunction*
G04 #@! TA.AperFunction,Conductor*
G36*
X124436609Y-94507540D02*
G01*
X124534057Y-94563802D01*
X124554897Y-94582897D01*
X134525103Y-104553103D01*
X134589644Y-104645278D01*
X134618767Y-104753968D01*
X134620000Y-104782206D01*
X134620000Y-109912000D01*
X134600460Y-110022815D01*
X134544198Y-110120263D01*
X134458000Y-110192592D01*
X134352262Y-110231078D01*
X134296000Y-110236000D01*
X113418206Y-110236000D01*
X113307391Y-110216460D01*
X113209943Y-110160198D01*
X113189103Y-110141103D01*
X104742897Y-101694897D01*
X104678356Y-101602722D01*
X104649233Y-101494032D01*
X104648000Y-101465794D01*
X104648000Y-94812000D01*
X104667540Y-94701185D01*
X104723802Y-94603737D01*
X104810000Y-94531408D01*
X104915738Y-94492922D01*
X104972000Y-94488000D01*
X124325794Y-94488000D01*
X124436609Y-94507540D01*
G37*
G04 #@! TD.AperFunction*
G04 #@! TA.AperFunction,Conductor*
G36*
X119356609Y-80283540D02*
G01*
X119454057Y-80339802D01*
X119474897Y-80358897D01*
X121920000Y-82804000D01*
X130486000Y-82804000D01*
X130596815Y-82823540D01*
X130694263Y-82879802D01*
X130766592Y-82966000D01*
X130805078Y-83071738D01*
X130810000Y-83128000D01*
X130810000Y-90797794D01*
X130790460Y-90908609D01*
X130734198Y-91006057D01*
X130715103Y-91026897D01*
X128364897Y-93377103D01*
X128272722Y-93441644D01*
X128164032Y-93470767D01*
X128135794Y-93472000D01*
X122412020Y-93472000D01*
X122301205Y-93452460D01*
X122203757Y-93396198D01*
X122131428Y-93310000D01*
X122092942Y-93204262D01*
X122089127Y-93121244D01*
X122105471Y-92924004D01*
X122105471Y-92923995D01*
X122085621Y-92684451D01*
X122085620Y-92684437D01*
X122026610Y-92451409D01*
X121930049Y-92231272D01*
X121798571Y-92030031D01*
X121798567Y-92030027D01*
X121798566Y-92030025D01*
X121635761Y-91853172D01*
X121446070Y-91705530D01*
X121446060Y-91705523D01*
X121234662Y-91591121D01*
X121234652Y-91591116D01*
X121007299Y-91513066D01*
X120770196Y-91473500D01*
X120770192Y-91473500D01*
X120529808Y-91473500D01*
X120529803Y-91473500D01*
X120292700Y-91513066D01*
X120065347Y-91591116D01*
X120065337Y-91591121D01*
X119853939Y-91705523D01*
X119853929Y-91705530D01*
X119664238Y-91853172D01*
X119501433Y-92030025D01*
X119501425Y-92030036D01*
X119369951Y-92231271D01*
X119273391Y-92451404D01*
X119214380Y-92684435D01*
X119214378Y-92684451D01*
X119194529Y-92923995D01*
X119194529Y-92924004D01*
X119210873Y-93121244D01*
X119200552Y-93233294D01*
X119152529Y-93335055D01*
X119072598Y-93414256D01*
X118970399Y-93461342D01*
X118887980Y-93472000D01*
X118618000Y-93472000D01*
X106750000Y-93472000D01*
X106639185Y-93452460D01*
X106541737Y-93396198D01*
X106469408Y-93310000D01*
X106430922Y-93204262D01*
X106426000Y-93148000D01*
X106426000Y-80588000D01*
X106445540Y-80477185D01*
X106501802Y-80379737D01*
X106588000Y-80307408D01*
X106693738Y-80268922D01*
X106750000Y-80264000D01*
X119245794Y-80264000D01*
X119356609Y-80283540D01*
G37*
G04 #@! TD.AperFunction*
G04 #@! TA.AperFunction,Conductor*
G36*
X145993039Y-60045185D02*
G01*
X146038794Y-60097989D01*
X146050000Y-60149500D01*
X146050000Y-64770000D01*
X154903681Y-73623681D01*
X154937166Y-73685004D01*
X154940000Y-73711362D01*
X154940000Y-83820000D01*
X158713681Y-87593681D01*
X158747166Y-87655004D01*
X158750000Y-87681362D01*
X158750000Y-88594638D01*
X158730315Y-88661677D01*
X158713681Y-88682319D01*
X156718000Y-90677999D01*
X156718000Y-100216183D01*
X156698315Y-100283222D01*
X156685230Y-100300166D01*
X156545430Y-100452029D01*
X156545427Y-100452033D01*
X156413951Y-100653270D01*
X156317389Y-100873410D01*
X156258379Y-101106440D01*
X156238529Y-101345994D01*
X156238529Y-101346005D01*
X156258379Y-101585559D01*
X156317389Y-101818589D01*
X156413951Y-102038729D01*
X156545427Y-102239966D01*
X156545435Y-102239977D01*
X156641634Y-102344476D01*
X156685229Y-102391833D01*
X156716152Y-102454486D01*
X156718000Y-102475815D01*
X156718000Y-106810000D01*
X156698315Y-106877039D01*
X156645511Y-106922794D01*
X156594000Y-106934000D01*
X150492000Y-106934000D01*
X150424961Y-106914315D01*
X150379206Y-106861511D01*
X150368000Y-106810000D01*
X150368000Y-76708000D01*
X137668000Y-64008000D01*
X133728000Y-64008000D01*
X133660961Y-63988315D01*
X133615206Y-63935511D01*
X133604000Y-63884000D01*
X133604000Y-60149500D01*
X133623685Y-60082461D01*
X133676489Y-60036706D01*
X133728000Y-60025500D01*
X145926000Y-60025500D01*
X145993039Y-60045185D01*
G37*
G04 #@! TD.AperFunction*
M02*
