M48
; DRILL file {KiCad (5.1.5)-3} date 2.11.2020 14:07:53
; FORMAT={-:-/ absolute / metric / decimal}
; #@! TF.CreationDate,2020-11-02T14:07:53+02:00
; #@! TF.GenerationSoftware,Kicad,Pcbnew,(5.1.5)-3
FMAT,2
METRIC
T1C0.800
T2C1.000
T3C1.100
T4C1.200
T5C1.300
T6C1.600
T7C1.800
T8C1.999
T9C3.500
%
G90
G05
T1
X149.0Y-101.0
X156.1Y-101.0
X153.5Y-86.0
X156.0Y-86.0
X149.38Y-76.5
X157.0Y-76.5
T2
X152.0Y-80.5
X154.54Y-80.5
T3
X110.0Y-97.9
X110.0Y-101.3
X110.0Y-104.7
X113.8Y-99.6
X113.8Y-103.0
T4
X141.0Y-80.5
X141.0Y-88.0
X117.5Y-100.38
X117.5Y-108.0
X116.0Y-80.5
X116.0Y-88.0
T5
X93.5Y-77.6
X93.5Y-88.0
X103.9Y-77.6
X103.9Y-88.0
T6
X128.5Y-77.3
X128.5Y-90.0
T7
X132.5Y-96.0
X132.5Y-107.44
T8
X112.0Y-63.0
X142.0Y-63.0
X150.0Y-63.0
X104.0Y-63.0
T9
X93.82Y-101.3
T0
M30
