G04 #@! TF.GenerationSoftware,KiCad,Pcbnew,8.0.6*
G04 #@! TF.CreationDate,2026-03-15T19:48:56+02:00*
G04 #@! TF.ProjectId,c64-wedge-psu-pcb,6336342d-7765-4646-9765-2d7073752d70,rev?*
G04 #@! TF.SameCoordinates,Original*
G04 #@! TF.FileFunction,Soldermask,Top*
G04 #@! TF.FilePolarity,Negative*
%FSLAX46Y46*%
G04 Gerber Fmt 4.6, Leading zero omitted, Abs format (unit mm)*
G04 Created by KiCad (PCBNEW 8.0.6) date 2026-03-15 19:48:56*
%MOMM*%
%LPD*%
G01*
G04 APERTURE LIST*
G04 APERTURE END LIST*
G36*
X132343425Y-106127841D02*
G01*
X132601487Y-106183979D01*
X132848933Y-106276271D01*
X133080726Y-106402840D01*
X133292147Y-106561108D01*
X133478892Y-106747853D01*
X133637160Y-106959274D01*
X133763729Y-107191067D01*
X133856021Y-107438513D01*
X133912159Y-107696575D01*
X133931000Y-107960000D01*
X133912159Y-108223425D01*
X133856021Y-108481487D01*
X133763729Y-108728933D01*
X133637160Y-108960726D01*
X133478892Y-109172147D01*
X133292147Y-109358892D01*
X133080726Y-109517160D01*
X132848933Y-109643729D01*
X132601487Y-109736021D01*
X132343425Y-109792159D01*
X132080000Y-109811000D01*
X131816575Y-109792159D01*
X131558513Y-109736021D01*
X131311067Y-109643729D01*
X131079274Y-109517160D01*
X130867853Y-109358892D01*
X130681108Y-109172147D01*
X130522840Y-108960726D01*
X130396271Y-108728933D01*
X130303979Y-108481487D01*
X130247841Y-108223425D01*
X130229000Y-107960000D01*
X130247841Y-107696575D01*
X130303979Y-107438513D01*
X130396271Y-107191067D01*
X130522840Y-106959274D01*
X130681108Y-106747853D01*
X130867853Y-106561108D01*
X131079274Y-106402840D01*
X131311067Y-106276271D01*
X131558513Y-106183979D01*
X131816575Y-106127841D01*
X132080000Y-106109000D01*
X132343425Y-106127841D01*
G37*
G36*
X148085938Y-104364017D02*
G01*
X148131923Y-104364017D01*
X148183139Y-104373590D01*
X148240040Y-104379195D01*
X148283261Y-104392306D01*
X148322474Y-104399636D01*
X148376785Y-104420676D01*
X148437200Y-104439003D01*
X148471720Y-104457454D01*
X148503232Y-104469662D01*
X148557977Y-104503559D01*
X148618904Y-104536125D01*
X148644506Y-104557136D01*
X148668048Y-104571713D01*
X148720212Y-104619267D01*
X148778169Y-104666831D01*
X148795342Y-104687757D01*
X148811301Y-104702305D01*
X148857629Y-104763653D01*
X148908875Y-104826096D01*
X148918783Y-104844634D01*
X148928122Y-104857000D01*
X148965274Y-104931613D01*
X149005997Y-105007800D01*
X149010340Y-105022117D01*
X149014528Y-105030528D01*
X149039267Y-105117476D01*
X149065805Y-105204960D01*
X149066676Y-105213811D01*
X149067577Y-105216975D01*
X149076938Y-105318002D01*
X149086000Y-105410000D01*
X149076938Y-105502005D01*
X149067577Y-105603024D01*
X149066676Y-105606187D01*
X149065805Y-105615040D01*
X149039262Y-105702538D01*
X149014528Y-105789471D01*
X149010341Y-105797879D01*
X149005997Y-105812200D01*
X148965267Y-105888399D01*
X148928122Y-105962999D01*
X148918785Y-105975362D01*
X148908875Y-105993904D01*
X148857620Y-106056357D01*
X148811301Y-106117694D01*
X148795345Y-106132238D01*
X148778169Y-106153169D01*
X148720201Y-106200741D01*
X148668048Y-106248286D01*
X148644511Y-106262859D01*
X148618904Y-106283875D01*
X148557965Y-106316447D01*
X148503232Y-106350337D01*
X148471726Y-106362542D01*
X148437200Y-106380997D01*
X148376773Y-106399327D01*
X148322474Y-106420363D01*
X148283268Y-106427691D01*
X148240040Y-106440805D01*
X148183136Y-106446409D01*
X148131923Y-106455983D01*
X148085938Y-106455983D01*
X148035000Y-106461000D01*
X147984062Y-106455983D01*
X147938077Y-106455983D01*
X147886863Y-106446409D01*
X147829960Y-106440805D01*
X147786732Y-106427692D01*
X147747525Y-106420363D01*
X147693221Y-106399325D01*
X147632800Y-106380997D01*
X147598275Y-106362543D01*
X147566767Y-106350337D01*
X147512027Y-106316443D01*
X147451096Y-106283875D01*
X147425491Y-106262861D01*
X147401951Y-106248286D01*
X147349788Y-106200733D01*
X147291831Y-106153169D01*
X147274656Y-106132242D01*
X147258698Y-106117694D01*
X147212367Y-106056342D01*
X147161125Y-105993904D01*
X147151216Y-105975366D01*
X147141877Y-105962999D01*
X147104717Y-105888372D01*
X147064003Y-105812200D01*
X147059660Y-105797884D01*
X147055471Y-105789471D01*
X147030721Y-105702485D01*
X147004195Y-105615040D01*
X147003323Y-105606192D01*
X147002422Y-105603024D01*
X146993044Y-105501833D01*
X146984000Y-105410000D01*
X146993044Y-105318173D01*
X147002422Y-105216975D01*
X147003323Y-105213805D01*
X147004195Y-105204960D01*
X147030716Y-105117529D01*
X147055471Y-105030528D01*
X147059661Y-105022112D01*
X147064003Y-105007800D01*
X147104710Y-104931641D01*
X147141877Y-104857000D01*
X147151218Y-104844629D01*
X147161125Y-104826096D01*
X147212357Y-104763668D01*
X147258698Y-104702305D01*
X147274660Y-104687753D01*
X147291831Y-104666831D01*
X147349777Y-104619275D01*
X147401951Y-104571713D01*
X147425496Y-104557134D01*
X147451096Y-104536125D01*
X147512015Y-104503563D01*
X147566767Y-104469662D01*
X147598282Y-104457452D01*
X147632800Y-104439003D01*
X147693209Y-104420677D01*
X147747525Y-104399636D01*
X147786739Y-104392305D01*
X147829960Y-104379195D01*
X147886860Y-104373590D01*
X147938077Y-104364017D01*
X147984062Y-104364017D01*
X148035000Y-104359000D01*
X148085938Y-104364017D01*
G37*
G36*
X153085938Y-104364017D02*
G01*
X153131923Y-104364017D01*
X153183139Y-104373590D01*
X153240040Y-104379195D01*
X153283261Y-104392306D01*
X153322474Y-104399636D01*
X153376785Y-104420676D01*
X153437200Y-104439003D01*
X153471720Y-104457454D01*
X153503232Y-104469662D01*
X153557977Y-104503559D01*
X153618904Y-104536125D01*
X153644506Y-104557136D01*
X153668048Y-104571713D01*
X153720212Y-104619267D01*
X153778169Y-104666831D01*
X153795342Y-104687757D01*
X153811301Y-104702305D01*
X153857629Y-104763653D01*
X153908875Y-104826096D01*
X153918783Y-104844634D01*
X153928122Y-104857000D01*
X153965274Y-104931613D01*
X154005997Y-105007800D01*
X154010340Y-105022117D01*
X154014528Y-105030528D01*
X154039267Y-105117476D01*
X154065805Y-105204960D01*
X154066676Y-105213811D01*
X154067577Y-105216975D01*
X154076938Y-105318002D01*
X154086000Y-105410000D01*
X154076938Y-105502005D01*
X154067577Y-105603024D01*
X154066676Y-105606187D01*
X154065805Y-105615040D01*
X154039262Y-105702538D01*
X154014528Y-105789471D01*
X154010341Y-105797879D01*
X154005997Y-105812200D01*
X153965267Y-105888399D01*
X153928122Y-105962999D01*
X153918785Y-105975362D01*
X153908875Y-105993904D01*
X153857620Y-106056357D01*
X153811301Y-106117694D01*
X153795345Y-106132238D01*
X153778169Y-106153169D01*
X153720201Y-106200741D01*
X153668048Y-106248286D01*
X153644511Y-106262859D01*
X153618904Y-106283875D01*
X153557965Y-106316447D01*
X153503232Y-106350337D01*
X153471726Y-106362542D01*
X153437200Y-106380997D01*
X153376773Y-106399327D01*
X153322474Y-106420363D01*
X153283268Y-106427691D01*
X153240040Y-106440805D01*
X153183136Y-106446409D01*
X153131923Y-106455983D01*
X153085938Y-106455983D01*
X153035000Y-106461000D01*
X152984062Y-106455983D01*
X152938077Y-106455983D01*
X152886863Y-106446409D01*
X152829960Y-106440805D01*
X152786732Y-106427692D01*
X152747525Y-106420363D01*
X152693221Y-106399325D01*
X152632800Y-106380997D01*
X152598275Y-106362543D01*
X152566767Y-106350337D01*
X152512027Y-106316443D01*
X152451096Y-106283875D01*
X152425491Y-106262861D01*
X152401951Y-106248286D01*
X152349788Y-106200733D01*
X152291831Y-106153169D01*
X152274656Y-106132242D01*
X152258698Y-106117694D01*
X152212367Y-106056342D01*
X152161125Y-105993904D01*
X152151216Y-105975366D01*
X152141877Y-105962999D01*
X152104717Y-105888372D01*
X152064003Y-105812200D01*
X152059660Y-105797884D01*
X152055471Y-105789471D01*
X152030721Y-105702485D01*
X152004195Y-105615040D01*
X152003323Y-105606192D01*
X152002422Y-105603024D01*
X151993044Y-105501833D01*
X151984000Y-105410000D01*
X151993044Y-105318173D01*
X152002422Y-105216975D01*
X152003323Y-105213805D01*
X152004195Y-105204960D01*
X152030716Y-105117529D01*
X152055471Y-105030528D01*
X152059661Y-105022112D01*
X152064003Y-105007800D01*
X152104710Y-104931641D01*
X152141877Y-104857000D01*
X152151218Y-104844629D01*
X152161125Y-104826096D01*
X152212357Y-104763668D01*
X152258698Y-104702305D01*
X152274660Y-104687753D01*
X152291831Y-104666831D01*
X152349777Y-104619275D01*
X152401951Y-104571713D01*
X152425496Y-104557134D01*
X152451096Y-104536125D01*
X152512015Y-104503563D01*
X152566767Y-104469662D01*
X152598282Y-104457452D01*
X152632800Y-104439003D01*
X152693209Y-104420677D01*
X152747525Y-104399636D01*
X152786739Y-104392305D01*
X152829960Y-104379195D01*
X152886860Y-104373590D01*
X152938077Y-104364017D01*
X152984062Y-104364017D01*
X153035000Y-104359000D01*
X153085938Y-104364017D01*
G37*
G36*
X114341199Y-104563662D02*
G01*
X114388954Y-104563662D01*
X114430194Y-104572427D01*
X114465901Y-104575945D01*
X114510759Y-104589552D01*
X114562973Y-104600651D01*
X114596384Y-104615526D01*
X114625435Y-104624339D01*
X114671602Y-104649015D01*
X114725500Y-104673012D01*
X114750554Y-104691215D01*
X114772453Y-104702920D01*
X114817128Y-104739584D01*
X114869430Y-104777584D01*
X114886411Y-104796443D01*
X114901320Y-104808679D01*
X114941387Y-104857501D01*
X114988473Y-104909795D01*
X114998364Y-104926927D01*
X115007079Y-104937546D01*
X115039306Y-104997840D01*
X115077427Y-105063867D01*
X115081813Y-105077368D01*
X115085660Y-105084564D01*
X115106861Y-105154455D01*
X115132404Y-105233067D01*
X115133303Y-105241623D01*
X115134054Y-105244098D01*
X115141371Y-105318389D01*
X115151000Y-105410000D01*
X115141370Y-105501619D01*
X115134054Y-105575901D01*
X115133303Y-105578375D01*
X115132404Y-105586933D01*
X115106856Y-105665558D01*
X115085660Y-105735435D01*
X115081814Y-105742629D01*
X115077427Y-105756133D01*
X115039299Y-105822172D01*
X115007079Y-105882453D01*
X114998366Y-105893069D01*
X114988473Y-105910205D01*
X114941378Y-105962509D01*
X114901320Y-106011320D01*
X114886414Y-106023552D01*
X114869430Y-106042416D01*
X114817118Y-106080423D01*
X114772453Y-106117079D01*
X114750559Y-106128780D01*
X114725500Y-106146988D01*
X114671591Y-106170989D01*
X114625435Y-106195660D01*
X114596391Y-106204470D01*
X114562973Y-106219349D01*
X114510748Y-106230449D01*
X114465901Y-106244054D01*
X114430203Y-106247570D01*
X114388954Y-106256338D01*
X114341188Y-106256338D01*
X114300000Y-106260395D01*
X114258811Y-106256338D01*
X114211046Y-106256338D01*
X114169797Y-106247570D01*
X114134098Y-106244054D01*
X114089248Y-106230448D01*
X114037027Y-106219349D01*
X114003610Y-106204471D01*
X113974564Y-106195660D01*
X113928402Y-106170986D01*
X113874500Y-106146988D01*
X113849443Y-106128783D01*
X113827546Y-106117079D01*
X113782873Y-106080416D01*
X113730570Y-106042416D01*
X113713588Y-106023555D01*
X113698679Y-106011320D01*
X113658610Y-105962496D01*
X113611527Y-105910205D01*
X113601636Y-105893073D01*
X113592920Y-105882453D01*
X113560687Y-105822148D01*
X113522573Y-105756133D01*
X113518186Y-105742634D01*
X113514339Y-105735435D01*
X113493128Y-105665512D01*
X113467596Y-105586933D01*
X113466697Y-105578380D01*
X113465945Y-105575901D01*
X113458613Y-105501467D01*
X113449000Y-105410000D01*
X113458612Y-105318540D01*
X113465945Y-105244098D01*
X113466697Y-105241618D01*
X113467596Y-105233067D01*
X113493123Y-105154502D01*
X113514339Y-105084564D01*
X113518187Y-105077363D01*
X113522573Y-105063867D01*
X113560680Y-104997863D01*
X113592920Y-104937546D01*
X113601638Y-104926923D01*
X113611527Y-104909795D01*
X113658601Y-104857513D01*
X113698679Y-104808679D01*
X113713591Y-104796440D01*
X113730570Y-104777584D01*
X113782862Y-104739591D01*
X113827546Y-104702920D01*
X113849448Y-104691213D01*
X113874500Y-104673012D01*
X113928391Y-104649018D01*
X113974564Y-104624339D01*
X114003617Y-104615525D01*
X114037027Y-104600651D01*
X114089237Y-104589553D01*
X114134098Y-104575945D01*
X114169806Y-104572427D01*
X114211046Y-104563662D01*
X114258801Y-104563662D01*
X114300000Y-104559604D01*
X114341199Y-104563662D01*
G37*
G36*
X117389199Y-104563662D02*
G01*
X117436954Y-104563662D01*
X117478194Y-104572427D01*
X117513901Y-104575945D01*
X117558759Y-104589552D01*
X117610973Y-104600651D01*
X117644384Y-104615526D01*
X117673435Y-104624339D01*
X117719602Y-104649015D01*
X117773500Y-104673012D01*
X117798554Y-104691215D01*
X117820453Y-104702920D01*
X117865128Y-104739584D01*
X117917430Y-104777584D01*
X117934411Y-104796443D01*
X117949320Y-104808679D01*
X117989387Y-104857501D01*
X118036473Y-104909795D01*
X118046364Y-104926927D01*
X118055079Y-104937546D01*
X118087306Y-104997840D01*
X118125427Y-105063867D01*
X118129813Y-105077368D01*
X118133660Y-105084564D01*
X118154861Y-105154455D01*
X118180404Y-105233067D01*
X118181303Y-105241623D01*
X118182054Y-105244098D01*
X118189371Y-105318389D01*
X118199000Y-105410000D01*
X118189370Y-105501619D01*
X118182054Y-105575901D01*
X118181303Y-105578375D01*
X118180404Y-105586933D01*
X118154856Y-105665558D01*
X118133660Y-105735435D01*
X118129814Y-105742629D01*
X118125427Y-105756133D01*
X118087299Y-105822172D01*
X118055079Y-105882453D01*
X118046366Y-105893069D01*
X118036473Y-105910205D01*
X117989378Y-105962509D01*
X117949320Y-106011320D01*
X117934414Y-106023552D01*
X117917430Y-106042416D01*
X117865118Y-106080423D01*
X117820453Y-106117079D01*
X117798559Y-106128780D01*
X117773500Y-106146988D01*
X117719591Y-106170989D01*
X117673435Y-106195660D01*
X117644391Y-106204470D01*
X117610973Y-106219349D01*
X117558748Y-106230449D01*
X117513901Y-106244054D01*
X117478203Y-106247570D01*
X117436954Y-106256338D01*
X117389188Y-106256338D01*
X117348000Y-106260395D01*
X117306811Y-106256338D01*
X117259046Y-106256338D01*
X117217797Y-106247570D01*
X117182098Y-106244054D01*
X117137248Y-106230448D01*
X117085027Y-106219349D01*
X117051610Y-106204471D01*
X117022564Y-106195660D01*
X116976402Y-106170986D01*
X116922500Y-106146988D01*
X116897443Y-106128783D01*
X116875546Y-106117079D01*
X116830873Y-106080416D01*
X116778570Y-106042416D01*
X116761588Y-106023555D01*
X116746679Y-106011320D01*
X116706610Y-105962496D01*
X116659527Y-105910205D01*
X116649636Y-105893073D01*
X116640920Y-105882453D01*
X116608687Y-105822148D01*
X116570573Y-105756133D01*
X116566186Y-105742634D01*
X116562339Y-105735435D01*
X116541128Y-105665512D01*
X116515596Y-105586933D01*
X116514697Y-105578380D01*
X116513945Y-105575901D01*
X116506613Y-105501467D01*
X116497000Y-105410000D01*
X116506612Y-105318540D01*
X116513945Y-105244098D01*
X116514697Y-105241618D01*
X116515596Y-105233067D01*
X116541123Y-105154502D01*
X116562339Y-105084564D01*
X116566187Y-105077363D01*
X116570573Y-105063867D01*
X116608680Y-104997863D01*
X116640920Y-104937546D01*
X116649638Y-104926923D01*
X116659527Y-104909795D01*
X116706601Y-104857513D01*
X116746679Y-104808679D01*
X116761591Y-104796440D01*
X116778570Y-104777584D01*
X116830862Y-104739591D01*
X116875546Y-104702920D01*
X116897448Y-104691213D01*
X116922500Y-104673012D01*
X116976391Y-104649018D01*
X117022564Y-104624339D01*
X117051617Y-104615525D01*
X117085027Y-104600651D01*
X117137237Y-104589553D01*
X117182098Y-104575945D01*
X117217806Y-104572427D01*
X117259046Y-104563662D01*
X117306801Y-104563662D01*
X117348000Y-104559604D01*
X117389199Y-104563662D01*
G37*
G36*
X103756604Y-101813590D02*
G01*
X103797696Y-101813590D01*
X103843456Y-101822144D01*
X103895531Y-101827273D01*
X103935091Y-101839273D01*
X103970111Y-101845820D01*
X104018617Y-101864611D01*
X104073932Y-101881391D01*
X104105534Y-101898282D01*
X104133656Y-101909177D01*
X104182513Y-101939428D01*
X104238347Y-101969272D01*
X104261809Y-101988526D01*
X104282784Y-102001514D01*
X104329256Y-102043879D01*
X104382459Y-102087541D01*
X104398224Y-102106751D01*
X104412400Y-102119674D01*
X104453557Y-102174174D01*
X104500728Y-102231653D01*
X104509848Y-102248717D01*
X104518099Y-102259642D01*
X104550925Y-102325566D01*
X104588609Y-102396068D01*
X104592628Y-102409316D01*
X104596282Y-102416655D01*
X104617864Y-102492507D01*
X104642727Y-102574469D01*
X104643543Y-102582762D01*
X104644280Y-102585350D01*
X104651937Y-102667982D01*
X104661000Y-102760000D01*
X104651936Y-102852026D01*
X104644280Y-102934649D01*
X104643544Y-102937235D01*
X104642727Y-102945531D01*
X104617859Y-103027507D01*
X104596282Y-103103344D01*
X104592628Y-103110680D01*
X104588609Y-103123932D01*
X104550917Y-103194447D01*
X104518099Y-103260357D01*
X104509850Y-103271279D01*
X104500728Y-103288347D01*
X104453547Y-103345836D01*
X104412400Y-103400325D01*
X104398227Y-103413244D01*
X104382459Y-103432459D01*
X104329245Y-103476129D01*
X104282784Y-103518485D01*
X104261814Y-103531469D01*
X104238347Y-103550728D01*
X104182502Y-103580577D01*
X104133656Y-103610822D01*
X104105541Y-103621713D01*
X104073932Y-103638609D01*
X104018605Y-103655392D01*
X103970111Y-103674179D01*
X103935098Y-103680724D01*
X103895531Y-103692727D01*
X103843453Y-103697856D01*
X103797696Y-103706410D01*
X103756604Y-103706410D01*
X103710000Y-103711000D01*
X103663396Y-103706410D01*
X103622304Y-103706410D01*
X103576545Y-103697856D01*
X103524469Y-103692727D01*
X103484902Y-103680724D01*
X103449888Y-103674179D01*
X103401389Y-103655390D01*
X103346068Y-103638609D01*
X103314461Y-103621714D01*
X103286343Y-103610822D01*
X103237490Y-103580573D01*
X103181653Y-103550728D01*
X103158188Y-103531471D01*
X103137215Y-103518485D01*
X103090744Y-103476121D01*
X103037541Y-103432459D01*
X103021775Y-103413248D01*
X103007599Y-103400325D01*
X102966439Y-103345821D01*
X102919272Y-103288347D01*
X102910151Y-103271284D01*
X102901900Y-103260357D01*
X102869067Y-103194420D01*
X102831391Y-103123932D01*
X102827372Y-103110685D01*
X102823717Y-103103344D01*
X102802124Y-103027454D01*
X102777273Y-102945531D01*
X102776456Y-102937241D01*
X102775719Y-102934649D01*
X102768046Y-102851854D01*
X102759000Y-102760000D01*
X102768045Y-102668153D01*
X102775719Y-102585350D01*
X102776456Y-102582757D01*
X102777273Y-102574469D01*
X102802119Y-102492560D01*
X102823717Y-102416655D01*
X102827373Y-102409311D01*
X102831391Y-102396068D01*
X102869060Y-102325593D01*
X102901900Y-102259642D01*
X102910153Y-102248712D01*
X102919272Y-102231653D01*
X102966430Y-102174190D01*
X103007599Y-102119674D01*
X103021778Y-102106747D01*
X103037541Y-102087541D01*
X103090733Y-102043887D01*
X103137215Y-102001514D01*
X103158193Y-101988524D01*
X103181653Y-101969272D01*
X103237478Y-101939432D01*
X103286343Y-101909177D01*
X103314467Y-101898281D01*
X103346068Y-101881391D01*
X103401377Y-101864612D01*
X103449888Y-101845820D01*
X103484909Y-101839273D01*
X103524469Y-101827273D01*
X103576542Y-101822144D01*
X103622304Y-101813590D01*
X103663396Y-101813590D01*
X103710000Y-101809000D01*
X103756604Y-101813590D01*
G37*
G36*
X107156604Y-101813590D02*
G01*
X107197696Y-101813590D01*
X107243456Y-101822144D01*
X107295531Y-101827273D01*
X107335091Y-101839273D01*
X107370111Y-101845820D01*
X107418617Y-101864611D01*
X107473932Y-101881391D01*
X107505534Y-101898282D01*
X107533656Y-101909177D01*
X107582513Y-101939428D01*
X107638347Y-101969272D01*
X107661809Y-101988526D01*
X107682784Y-102001514D01*
X107729256Y-102043879D01*
X107782459Y-102087541D01*
X107798224Y-102106751D01*
X107812400Y-102119674D01*
X107853557Y-102174174D01*
X107900728Y-102231653D01*
X107909848Y-102248717D01*
X107918099Y-102259642D01*
X107950925Y-102325566D01*
X107988609Y-102396068D01*
X107992628Y-102409316D01*
X107996282Y-102416655D01*
X108017864Y-102492507D01*
X108042727Y-102574469D01*
X108043543Y-102582762D01*
X108044280Y-102585350D01*
X108051937Y-102667982D01*
X108061000Y-102760000D01*
X108051936Y-102852026D01*
X108044280Y-102934649D01*
X108043544Y-102937235D01*
X108042727Y-102945531D01*
X108017859Y-103027507D01*
X107996282Y-103103344D01*
X107992628Y-103110680D01*
X107988609Y-103123932D01*
X107950917Y-103194447D01*
X107918099Y-103260357D01*
X107909850Y-103271279D01*
X107900728Y-103288347D01*
X107853547Y-103345836D01*
X107812400Y-103400325D01*
X107798227Y-103413244D01*
X107782459Y-103432459D01*
X107729245Y-103476129D01*
X107682784Y-103518485D01*
X107661814Y-103531469D01*
X107638347Y-103550728D01*
X107582502Y-103580577D01*
X107533656Y-103610822D01*
X107505541Y-103621713D01*
X107473932Y-103638609D01*
X107418605Y-103655392D01*
X107370111Y-103674179D01*
X107335098Y-103680724D01*
X107295531Y-103692727D01*
X107243453Y-103697856D01*
X107197696Y-103706410D01*
X107156604Y-103706410D01*
X107110000Y-103711000D01*
X107063396Y-103706410D01*
X107022304Y-103706410D01*
X106976545Y-103697856D01*
X106924469Y-103692727D01*
X106884902Y-103680724D01*
X106849888Y-103674179D01*
X106801389Y-103655390D01*
X106746068Y-103638609D01*
X106714461Y-103621714D01*
X106686343Y-103610822D01*
X106637490Y-103580573D01*
X106581653Y-103550728D01*
X106558188Y-103531471D01*
X106537215Y-103518485D01*
X106490744Y-103476121D01*
X106437541Y-103432459D01*
X106421775Y-103413248D01*
X106407599Y-103400325D01*
X106366439Y-103345821D01*
X106319272Y-103288347D01*
X106310151Y-103271284D01*
X106301900Y-103260357D01*
X106269067Y-103194420D01*
X106231391Y-103123932D01*
X106227372Y-103110685D01*
X106223717Y-103103344D01*
X106202124Y-103027454D01*
X106177273Y-102945531D01*
X106176456Y-102937241D01*
X106175719Y-102934649D01*
X106168046Y-102851854D01*
X106159000Y-102760000D01*
X106168045Y-102668153D01*
X106175719Y-102585350D01*
X106176456Y-102582757D01*
X106177273Y-102574469D01*
X106202119Y-102492560D01*
X106223717Y-102416655D01*
X106227373Y-102409311D01*
X106231391Y-102396068D01*
X106269060Y-102325593D01*
X106301900Y-102259642D01*
X106310153Y-102248712D01*
X106319272Y-102231653D01*
X106366430Y-102174190D01*
X106407599Y-102119674D01*
X106421778Y-102106747D01*
X106437541Y-102087541D01*
X106490733Y-102043887D01*
X106537215Y-102001514D01*
X106558193Y-101988524D01*
X106581653Y-101969272D01*
X106637478Y-101939432D01*
X106686343Y-101909177D01*
X106714467Y-101898281D01*
X106746068Y-101881391D01*
X106801377Y-101864612D01*
X106849888Y-101845820D01*
X106884909Y-101839273D01*
X106924469Y-101827273D01*
X106976542Y-101822144D01*
X107022304Y-101813590D01*
X107063396Y-101813590D01*
X107110000Y-101809000D01*
X107156604Y-101813590D01*
G37*
G36*
X157013199Y-101348662D02*
G01*
X157060954Y-101348662D01*
X157102194Y-101357427D01*
X157137901Y-101360945D01*
X157182759Y-101374552D01*
X157234973Y-101385651D01*
X157268384Y-101400526D01*
X157297435Y-101409339D01*
X157343602Y-101434015D01*
X157397500Y-101458012D01*
X157422554Y-101476215D01*
X157444453Y-101487920D01*
X157489128Y-101524584D01*
X157541430Y-101562584D01*
X157558411Y-101581443D01*
X157573320Y-101593679D01*
X157613387Y-101642501D01*
X157660473Y-101694795D01*
X157670364Y-101711927D01*
X157679079Y-101722546D01*
X157711306Y-101782840D01*
X157749427Y-101848867D01*
X157753813Y-101862368D01*
X157757660Y-101869564D01*
X157778861Y-101939455D01*
X157804404Y-102018067D01*
X157805303Y-102026623D01*
X157806054Y-102029098D01*
X157813371Y-102103389D01*
X157823000Y-102195000D01*
X157813370Y-102286619D01*
X157806054Y-102360901D01*
X157805303Y-102363375D01*
X157804404Y-102371933D01*
X157778856Y-102450558D01*
X157757660Y-102520435D01*
X157753814Y-102527629D01*
X157749427Y-102541133D01*
X157711299Y-102607172D01*
X157679079Y-102667453D01*
X157670366Y-102678069D01*
X157660473Y-102695205D01*
X157613378Y-102747509D01*
X157573320Y-102796320D01*
X157558414Y-102808552D01*
X157541430Y-102827416D01*
X157489118Y-102865423D01*
X157444453Y-102902079D01*
X157422559Y-102913780D01*
X157397500Y-102931988D01*
X157343591Y-102955989D01*
X157297435Y-102980660D01*
X157268391Y-102989470D01*
X157234973Y-103004349D01*
X157182748Y-103015449D01*
X157137901Y-103029054D01*
X157102203Y-103032570D01*
X157060954Y-103041338D01*
X157013188Y-103041338D01*
X156972000Y-103045395D01*
X156930811Y-103041338D01*
X156883046Y-103041338D01*
X156841797Y-103032570D01*
X156806098Y-103029054D01*
X156761248Y-103015448D01*
X156709027Y-103004349D01*
X156675610Y-102989471D01*
X156646564Y-102980660D01*
X156600402Y-102955986D01*
X156546500Y-102931988D01*
X156521443Y-102913783D01*
X156499546Y-102902079D01*
X156454873Y-102865416D01*
X156402570Y-102827416D01*
X156385588Y-102808555D01*
X156370679Y-102796320D01*
X156330610Y-102747496D01*
X156283527Y-102695205D01*
X156273636Y-102678073D01*
X156264920Y-102667453D01*
X156232687Y-102607148D01*
X156194573Y-102541133D01*
X156190186Y-102527634D01*
X156186339Y-102520435D01*
X156165128Y-102450512D01*
X156139596Y-102371933D01*
X156138697Y-102363380D01*
X156137945Y-102360901D01*
X156130613Y-102286467D01*
X156121000Y-102195000D01*
X156130612Y-102103540D01*
X156137945Y-102029098D01*
X156138697Y-102026618D01*
X156139596Y-102018067D01*
X156165123Y-101939502D01*
X156186339Y-101869564D01*
X156190187Y-101862363D01*
X156194573Y-101848867D01*
X156232680Y-101782863D01*
X156264920Y-101722546D01*
X156273638Y-101711923D01*
X156283527Y-101694795D01*
X156330601Y-101642513D01*
X156370679Y-101593679D01*
X156385591Y-101581440D01*
X156402570Y-101562584D01*
X156454862Y-101524591D01*
X156499546Y-101487920D01*
X156521448Y-101476213D01*
X156546500Y-101458012D01*
X156600391Y-101434018D01*
X156646564Y-101409339D01*
X156675617Y-101400525D01*
X156709027Y-101385651D01*
X156761237Y-101374553D01*
X156806098Y-101360945D01*
X156841806Y-101357427D01*
X156883046Y-101348662D01*
X156930801Y-101348662D01*
X156972000Y-101344604D01*
X157013199Y-101348662D01*
G37*
G36*
X157013199Y-98848662D02*
G01*
X157060954Y-98848662D01*
X157102194Y-98857427D01*
X157137901Y-98860945D01*
X157182759Y-98874552D01*
X157234973Y-98885651D01*
X157268384Y-98900526D01*
X157297435Y-98909339D01*
X157343602Y-98934015D01*
X157397500Y-98958012D01*
X157422554Y-98976215D01*
X157444453Y-98987920D01*
X157489128Y-99024584D01*
X157541430Y-99062584D01*
X157558411Y-99081443D01*
X157573320Y-99093679D01*
X157613387Y-99142501D01*
X157660473Y-99194795D01*
X157670364Y-99211927D01*
X157679079Y-99222546D01*
X157711306Y-99282840D01*
X157749427Y-99348867D01*
X157753813Y-99362368D01*
X157757660Y-99369564D01*
X157778861Y-99439455D01*
X157804404Y-99518067D01*
X157805303Y-99526623D01*
X157806054Y-99529098D01*
X157813371Y-99603389D01*
X157823000Y-99695000D01*
X157813370Y-99786619D01*
X157806054Y-99860901D01*
X157805303Y-99863375D01*
X157804404Y-99871933D01*
X157778856Y-99950558D01*
X157757660Y-100020435D01*
X157753814Y-100027629D01*
X157749427Y-100041133D01*
X157711299Y-100107172D01*
X157679079Y-100167453D01*
X157670366Y-100178069D01*
X157660473Y-100195205D01*
X157613378Y-100247509D01*
X157573320Y-100296320D01*
X157558414Y-100308552D01*
X157541430Y-100327416D01*
X157489118Y-100365423D01*
X157444453Y-100402079D01*
X157422559Y-100413780D01*
X157397500Y-100431988D01*
X157343591Y-100455989D01*
X157297435Y-100480660D01*
X157268391Y-100489470D01*
X157234973Y-100504349D01*
X157182748Y-100515449D01*
X157137901Y-100529054D01*
X157102203Y-100532570D01*
X157060954Y-100541338D01*
X157013188Y-100541338D01*
X156972000Y-100545395D01*
X156930811Y-100541338D01*
X156883046Y-100541338D01*
X156841797Y-100532570D01*
X156806098Y-100529054D01*
X156761248Y-100515448D01*
X156709027Y-100504349D01*
X156675610Y-100489471D01*
X156646564Y-100480660D01*
X156600402Y-100455986D01*
X156546500Y-100431988D01*
X156521443Y-100413783D01*
X156499546Y-100402079D01*
X156454873Y-100365416D01*
X156402570Y-100327416D01*
X156385588Y-100308555D01*
X156370679Y-100296320D01*
X156330610Y-100247496D01*
X156283527Y-100195205D01*
X156273636Y-100178073D01*
X156264920Y-100167453D01*
X156232687Y-100107148D01*
X156194573Y-100041133D01*
X156190186Y-100027634D01*
X156186339Y-100020435D01*
X156165128Y-99950512D01*
X156139596Y-99871933D01*
X156138697Y-99863380D01*
X156137945Y-99860901D01*
X156130613Y-99786467D01*
X156121000Y-99695000D01*
X156130612Y-99603540D01*
X156137945Y-99529098D01*
X156138697Y-99526618D01*
X156139596Y-99518067D01*
X156165123Y-99439502D01*
X156186339Y-99369564D01*
X156190187Y-99362363D01*
X156194573Y-99348867D01*
X156232680Y-99282863D01*
X156264920Y-99222546D01*
X156273638Y-99211923D01*
X156283527Y-99194795D01*
X156330601Y-99142513D01*
X156370679Y-99093679D01*
X156385591Y-99081440D01*
X156402570Y-99062584D01*
X156454862Y-99024591D01*
X156499546Y-98987920D01*
X156521448Y-98976213D01*
X156546500Y-98958012D01*
X156600391Y-98934018D01*
X156646564Y-98909339D01*
X156675617Y-98900525D01*
X156709027Y-98885651D01*
X156761237Y-98874553D01*
X156806098Y-98860945D01*
X156841806Y-98857427D01*
X156883046Y-98848662D01*
X156930801Y-98848662D01*
X156972000Y-98844604D01*
X157013199Y-98848662D01*
G37*
G36*
X102056604Y-98113590D02*
G01*
X102097696Y-98113590D01*
X102143456Y-98122144D01*
X102195531Y-98127273D01*
X102235091Y-98139273D01*
X102270111Y-98145820D01*
X102318617Y-98164611D01*
X102373932Y-98181391D01*
X102405534Y-98198282D01*
X102433656Y-98209177D01*
X102482513Y-98239428D01*
X102538347Y-98269272D01*
X102561809Y-98288526D01*
X102582784Y-98301514D01*
X102629256Y-98343879D01*
X102682459Y-98387541D01*
X102698224Y-98406751D01*
X102712400Y-98419674D01*
X102753557Y-98474174D01*
X102800728Y-98531653D01*
X102809848Y-98548717D01*
X102818099Y-98559642D01*
X102850925Y-98625566D01*
X102888609Y-98696068D01*
X102892628Y-98709316D01*
X102896282Y-98716655D01*
X102917864Y-98792507D01*
X102942727Y-98874469D01*
X102943543Y-98882762D01*
X102944280Y-98885350D01*
X102951937Y-98967982D01*
X102961000Y-99060000D01*
X102951936Y-99152026D01*
X102944280Y-99234649D01*
X102943544Y-99237235D01*
X102942727Y-99245531D01*
X102917859Y-99327507D01*
X102896282Y-99403344D01*
X102892628Y-99410680D01*
X102888609Y-99423932D01*
X102850917Y-99494447D01*
X102818099Y-99560357D01*
X102809850Y-99571279D01*
X102800728Y-99588347D01*
X102753547Y-99645836D01*
X102712400Y-99700325D01*
X102698227Y-99713244D01*
X102682459Y-99732459D01*
X102629245Y-99776129D01*
X102582784Y-99818485D01*
X102561814Y-99831469D01*
X102538347Y-99850728D01*
X102482502Y-99880577D01*
X102433656Y-99910822D01*
X102405541Y-99921713D01*
X102373932Y-99938609D01*
X102318605Y-99955392D01*
X102270111Y-99974179D01*
X102235098Y-99980724D01*
X102195531Y-99992727D01*
X102143453Y-99997856D01*
X102097696Y-100006410D01*
X102056604Y-100006410D01*
X102010000Y-100011000D01*
X101963396Y-100006410D01*
X101922304Y-100006410D01*
X101876545Y-99997856D01*
X101824469Y-99992727D01*
X101784902Y-99980724D01*
X101749888Y-99974179D01*
X101701389Y-99955390D01*
X101646068Y-99938609D01*
X101614461Y-99921714D01*
X101586343Y-99910822D01*
X101537490Y-99880573D01*
X101481653Y-99850728D01*
X101458188Y-99831471D01*
X101437215Y-99818485D01*
X101390744Y-99776121D01*
X101337541Y-99732459D01*
X101321775Y-99713248D01*
X101307599Y-99700325D01*
X101266439Y-99645821D01*
X101219272Y-99588347D01*
X101210151Y-99571284D01*
X101201900Y-99560357D01*
X101169067Y-99494420D01*
X101131391Y-99423932D01*
X101127372Y-99410685D01*
X101123717Y-99403344D01*
X101102124Y-99327454D01*
X101077273Y-99245531D01*
X101076456Y-99237241D01*
X101075719Y-99234649D01*
X101068046Y-99151854D01*
X101059000Y-99060000D01*
X101068045Y-98968153D01*
X101075719Y-98885350D01*
X101076456Y-98882757D01*
X101077273Y-98874469D01*
X101102119Y-98792560D01*
X101123717Y-98716655D01*
X101127373Y-98709311D01*
X101131391Y-98696068D01*
X101169060Y-98625593D01*
X101201900Y-98559642D01*
X101210153Y-98548712D01*
X101219272Y-98531653D01*
X101266430Y-98474190D01*
X101307599Y-98419674D01*
X101321778Y-98406747D01*
X101337541Y-98387541D01*
X101390733Y-98343887D01*
X101437215Y-98301514D01*
X101458193Y-98288524D01*
X101481653Y-98269272D01*
X101537478Y-98239432D01*
X101586343Y-98209177D01*
X101614467Y-98198281D01*
X101646068Y-98181391D01*
X101701377Y-98164612D01*
X101749888Y-98145820D01*
X101784909Y-98139273D01*
X101824469Y-98127273D01*
X101876542Y-98122144D01*
X101922304Y-98113590D01*
X101963396Y-98113590D01*
X102010000Y-98109000D01*
X102056604Y-98113590D01*
G37*
G36*
X105456604Y-98113590D02*
G01*
X105497696Y-98113590D01*
X105543456Y-98122144D01*
X105595531Y-98127273D01*
X105635091Y-98139273D01*
X105670111Y-98145820D01*
X105718617Y-98164611D01*
X105773932Y-98181391D01*
X105805534Y-98198282D01*
X105833656Y-98209177D01*
X105882513Y-98239428D01*
X105938347Y-98269272D01*
X105961809Y-98288526D01*
X105982784Y-98301514D01*
X106029256Y-98343879D01*
X106082459Y-98387541D01*
X106098224Y-98406751D01*
X106112400Y-98419674D01*
X106153557Y-98474174D01*
X106200728Y-98531653D01*
X106209848Y-98548717D01*
X106218099Y-98559642D01*
X106250925Y-98625566D01*
X106288609Y-98696068D01*
X106292628Y-98709316D01*
X106296282Y-98716655D01*
X106317864Y-98792507D01*
X106342727Y-98874469D01*
X106343543Y-98882762D01*
X106344280Y-98885350D01*
X106351937Y-98967982D01*
X106361000Y-99060000D01*
X106351936Y-99152026D01*
X106344280Y-99234649D01*
X106343544Y-99237235D01*
X106342727Y-99245531D01*
X106317859Y-99327507D01*
X106296282Y-99403344D01*
X106292628Y-99410680D01*
X106288609Y-99423932D01*
X106250917Y-99494447D01*
X106218099Y-99560357D01*
X106209850Y-99571279D01*
X106200728Y-99588347D01*
X106153547Y-99645836D01*
X106112400Y-99700325D01*
X106098227Y-99713244D01*
X106082459Y-99732459D01*
X106029245Y-99776129D01*
X105982784Y-99818485D01*
X105961814Y-99831469D01*
X105938347Y-99850728D01*
X105882502Y-99880577D01*
X105833656Y-99910822D01*
X105805541Y-99921713D01*
X105773932Y-99938609D01*
X105718605Y-99955392D01*
X105670111Y-99974179D01*
X105635098Y-99980724D01*
X105595531Y-99992727D01*
X105543453Y-99997856D01*
X105497696Y-100006410D01*
X105456604Y-100006410D01*
X105410000Y-100011000D01*
X105363396Y-100006410D01*
X105322304Y-100006410D01*
X105276545Y-99997856D01*
X105224469Y-99992727D01*
X105184902Y-99980724D01*
X105149888Y-99974179D01*
X105101389Y-99955390D01*
X105046068Y-99938609D01*
X105014461Y-99921714D01*
X104986343Y-99910822D01*
X104937490Y-99880573D01*
X104881653Y-99850728D01*
X104858188Y-99831471D01*
X104837215Y-99818485D01*
X104790744Y-99776121D01*
X104737541Y-99732459D01*
X104721775Y-99713248D01*
X104707599Y-99700325D01*
X104666439Y-99645821D01*
X104619272Y-99588347D01*
X104610151Y-99571284D01*
X104601900Y-99560357D01*
X104569067Y-99494420D01*
X104531391Y-99423932D01*
X104527372Y-99410685D01*
X104523717Y-99403344D01*
X104502124Y-99327454D01*
X104477273Y-99245531D01*
X104476456Y-99237241D01*
X104475719Y-99234649D01*
X104468046Y-99151854D01*
X104459000Y-99060000D01*
X104468045Y-98968153D01*
X104475719Y-98885350D01*
X104476456Y-98882757D01*
X104477273Y-98874469D01*
X104502119Y-98792560D01*
X104523717Y-98716655D01*
X104527373Y-98709311D01*
X104531391Y-98696068D01*
X104569060Y-98625593D01*
X104601900Y-98559642D01*
X104610153Y-98548712D01*
X104619272Y-98531653D01*
X104666430Y-98474190D01*
X104707599Y-98419674D01*
X104721778Y-98406747D01*
X104737541Y-98387541D01*
X104790733Y-98343887D01*
X104837215Y-98301514D01*
X104858193Y-98288524D01*
X104881653Y-98269272D01*
X104937478Y-98239432D01*
X104986343Y-98209177D01*
X105014467Y-98198281D01*
X105046068Y-98181391D01*
X105101377Y-98164612D01*
X105149888Y-98145820D01*
X105184909Y-98139273D01*
X105224469Y-98127273D01*
X105276542Y-98122144D01*
X105322304Y-98113590D01*
X105363396Y-98113590D01*
X105410000Y-98109000D01*
X105456604Y-98113590D01*
G37*
G36*
X109729517Y-98112882D02*
G01*
X109746062Y-98123938D01*
X109757118Y-98140483D01*
X109761000Y-98160000D01*
X109761000Y-99960000D01*
X109757118Y-99979517D01*
X109746062Y-99996062D01*
X109729517Y-100007118D01*
X109710000Y-100011000D01*
X107910000Y-100011000D01*
X107890483Y-100007118D01*
X107873938Y-99996062D01*
X107862882Y-99979517D01*
X107859000Y-99960000D01*
X107859000Y-98160000D01*
X107862882Y-98140483D01*
X107873938Y-98123938D01*
X107890483Y-98112882D01*
X107910000Y-98109000D01*
X109710000Y-98109000D01*
X109729517Y-98112882D01*
G37*
G36*
X114341199Y-96943662D02*
G01*
X114388954Y-96943662D01*
X114430194Y-96952427D01*
X114465901Y-96955945D01*
X114510759Y-96969552D01*
X114562973Y-96980651D01*
X114596384Y-96995526D01*
X114625435Y-97004339D01*
X114671602Y-97029015D01*
X114725500Y-97053012D01*
X114750554Y-97071215D01*
X114772453Y-97082920D01*
X114817128Y-97119584D01*
X114869430Y-97157584D01*
X114886411Y-97176443D01*
X114901320Y-97188679D01*
X114941387Y-97237501D01*
X114988473Y-97289795D01*
X114998364Y-97306927D01*
X115007079Y-97317546D01*
X115039306Y-97377840D01*
X115077427Y-97443867D01*
X115081813Y-97457368D01*
X115085660Y-97464564D01*
X115106861Y-97534455D01*
X115132404Y-97613067D01*
X115133303Y-97621623D01*
X115134054Y-97624098D01*
X115141371Y-97698389D01*
X115151000Y-97790000D01*
X115141370Y-97881619D01*
X115134054Y-97955901D01*
X115133303Y-97958375D01*
X115132404Y-97966933D01*
X115106856Y-98045558D01*
X115085660Y-98115435D01*
X115081814Y-98122629D01*
X115077427Y-98136133D01*
X115039299Y-98202172D01*
X115007079Y-98262453D01*
X114998366Y-98273069D01*
X114988473Y-98290205D01*
X114941378Y-98342509D01*
X114901320Y-98391320D01*
X114886414Y-98403552D01*
X114869430Y-98422416D01*
X114817118Y-98460423D01*
X114772453Y-98497079D01*
X114750559Y-98508780D01*
X114725500Y-98526988D01*
X114671591Y-98550989D01*
X114625435Y-98575660D01*
X114596391Y-98584470D01*
X114562973Y-98599349D01*
X114510748Y-98610449D01*
X114465901Y-98624054D01*
X114430203Y-98627570D01*
X114388954Y-98636338D01*
X114341188Y-98636338D01*
X114300000Y-98640395D01*
X114258811Y-98636338D01*
X114211046Y-98636338D01*
X114169797Y-98627570D01*
X114134098Y-98624054D01*
X114089248Y-98610448D01*
X114037027Y-98599349D01*
X114003610Y-98584471D01*
X113974564Y-98575660D01*
X113928402Y-98550986D01*
X113874500Y-98526988D01*
X113849443Y-98508783D01*
X113827546Y-98497079D01*
X113782873Y-98460416D01*
X113730570Y-98422416D01*
X113713588Y-98403555D01*
X113698679Y-98391320D01*
X113658610Y-98342496D01*
X113611527Y-98290205D01*
X113601636Y-98273073D01*
X113592920Y-98262453D01*
X113560687Y-98202148D01*
X113522573Y-98136133D01*
X113518186Y-98122634D01*
X113514339Y-98115435D01*
X113493128Y-98045512D01*
X113467596Y-97966933D01*
X113466697Y-97958380D01*
X113465945Y-97955901D01*
X113458613Y-97881467D01*
X113449000Y-97790000D01*
X113458612Y-97698540D01*
X113465945Y-97624098D01*
X113466697Y-97621618D01*
X113467596Y-97613067D01*
X113493123Y-97534502D01*
X113514339Y-97464564D01*
X113518187Y-97457363D01*
X113522573Y-97443867D01*
X113560680Y-97377863D01*
X113592920Y-97317546D01*
X113601638Y-97306923D01*
X113611527Y-97289795D01*
X113658601Y-97237513D01*
X113698679Y-97188679D01*
X113713591Y-97176440D01*
X113730570Y-97157584D01*
X113782862Y-97119591D01*
X113827546Y-97082920D01*
X113849448Y-97071213D01*
X113874500Y-97053012D01*
X113928391Y-97029018D01*
X113974564Y-97004339D01*
X114003617Y-96995525D01*
X114037027Y-96980651D01*
X114089237Y-96969553D01*
X114134098Y-96955945D01*
X114169806Y-96952427D01*
X114211046Y-96943662D01*
X114258801Y-96943662D01*
X114300000Y-96939604D01*
X114341199Y-96943662D01*
G37*
G36*
X117389199Y-96943662D02*
G01*
X117436954Y-96943662D01*
X117478194Y-96952427D01*
X117513901Y-96955945D01*
X117558759Y-96969552D01*
X117610973Y-96980651D01*
X117644384Y-96995526D01*
X117673435Y-97004339D01*
X117719602Y-97029015D01*
X117773500Y-97053012D01*
X117798554Y-97071215D01*
X117820453Y-97082920D01*
X117865128Y-97119584D01*
X117917430Y-97157584D01*
X117934411Y-97176443D01*
X117949320Y-97188679D01*
X117989387Y-97237501D01*
X118036473Y-97289795D01*
X118046364Y-97306927D01*
X118055079Y-97317546D01*
X118087306Y-97377840D01*
X118125427Y-97443867D01*
X118129813Y-97457368D01*
X118133660Y-97464564D01*
X118154861Y-97534455D01*
X118180404Y-97613067D01*
X118181303Y-97621623D01*
X118182054Y-97624098D01*
X118189371Y-97698389D01*
X118199000Y-97790000D01*
X118189370Y-97881619D01*
X118182054Y-97955901D01*
X118181303Y-97958375D01*
X118180404Y-97966933D01*
X118154856Y-98045558D01*
X118133660Y-98115435D01*
X118129814Y-98122629D01*
X118125427Y-98136133D01*
X118087299Y-98202172D01*
X118055079Y-98262453D01*
X118046366Y-98273069D01*
X118036473Y-98290205D01*
X117989378Y-98342509D01*
X117949320Y-98391320D01*
X117934414Y-98403552D01*
X117917430Y-98422416D01*
X117865118Y-98460423D01*
X117820453Y-98497079D01*
X117798559Y-98508780D01*
X117773500Y-98526988D01*
X117719591Y-98550989D01*
X117673435Y-98575660D01*
X117644391Y-98584470D01*
X117610973Y-98599349D01*
X117558748Y-98610449D01*
X117513901Y-98624054D01*
X117478203Y-98627570D01*
X117436954Y-98636338D01*
X117389188Y-98636338D01*
X117348000Y-98640395D01*
X117306811Y-98636338D01*
X117259046Y-98636338D01*
X117217797Y-98627570D01*
X117182098Y-98624054D01*
X117137248Y-98610448D01*
X117085027Y-98599349D01*
X117051610Y-98584471D01*
X117022564Y-98575660D01*
X116976402Y-98550986D01*
X116922500Y-98526988D01*
X116897443Y-98508783D01*
X116875546Y-98497079D01*
X116830873Y-98460416D01*
X116778570Y-98422416D01*
X116761588Y-98403555D01*
X116746679Y-98391320D01*
X116706610Y-98342496D01*
X116659527Y-98290205D01*
X116649636Y-98273073D01*
X116640920Y-98262453D01*
X116608687Y-98202148D01*
X116570573Y-98136133D01*
X116566186Y-98122634D01*
X116562339Y-98115435D01*
X116541128Y-98045512D01*
X116515596Y-97966933D01*
X116514697Y-97958380D01*
X116513945Y-97955901D01*
X116506613Y-97881467D01*
X116497000Y-97790000D01*
X116506612Y-97698540D01*
X116513945Y-97624098D01*
X116514697Y-97621618D01*
X116515596Y-97613067D01*
X116541123Y-97534502D01*
X116562339Y-97464564D01*
X116566187Y-97457363D01*
X116570573Y-97443867D01*
X116608680Y-97377863D01*
X116640920Y-97317546D01*
X116649638Y-97306923D01*
X116659527Y-97289795D01*
X116706601Y-97237513D01*
X116746679Y-97188679D01*
X116761591Y-97176440D01*
X116778570Y-97157584D01*
X116830862Y-97119591D01*
X116875546Y-97082920D01*
X116897448Y-97071213D01*
X116922500Y-97053012D01*
X116976391Y-97029018D01*
X117022564Y-97004339D01*
X117051617Y-96995525D01*
X117085027Y-96980651D01*
X117137237Y-96969553D01*
X117182098Y-96955945D01*
X117217806Y-96952427D01*
X117259046Y-96943662D01*
X117306801Y-96943662D01*
X117348000Y-96939604D01*
X117389199Y-96943662D01*
G37*
G36*
X132343425Y-94687841D02*
G01*
X132601487Y-94743979D01*
X132848933Y-94836271D01*
X133080726Y-94962840D01*
X133292147Y-95121108D01*
X133478892Y-95307853D01*
X133637160Y-95519274D01*
X133763729Y-95751067D01*
X133856021Y-95998513D01*
X133912159Y-96256575D01*
X133931000Y-96520000D01*
X133912159Y-96783425D01*
X133856021Y-97041487D01*
X133763729Y-97288933D01*
X133637160Y-97520726D01*
X133478892Y-97732147D01*
X133292147Y-97918892D01*
X133080726Y-98077160D01*
X132848933Y-98203729D01*
X132601487Y-98296021D01*
X132343425Y-98352159D01*
X132080000Y-98371000D01*
X131816575Y-98352159D01*
X131558513Y-98296021D01*
X131311067Y-98203729D01*
X131079274Y-98077160D01*
X130867853Y-97918892D01*
X130681108Y-97732147D01*
X130522840Y-97520726D01*
X130396271Y-97288933D01*
X130303979Y-97041487D01*
X130247841Y-96783425D01*
X130229000Y-96520000D01*
X130247841Y-96256575D01*
X130303979Y-95998513D01*
X130396271Y-95751067D01*
X130522840Y-95519274D01*
X130681108Y-95307853D01*
X130867853Y-95121108D01*
X131079274Y-94962840D01*
X131311067Y-94836271D01*
X131558513Y-94743979D01*
X131816575Y-94687841D01*
X132080000Y-94669000D01*
X132343425Y-94687841D01*
G37*
G36*
X153854517Y-96307882D02*
G01*
X153871062Y-96318938D01*
X153882118Y-96335483D01*
X153886000Y-96355000D01*
X153886000Y-97955000D01*
X153882118Y-97974517D01*
X153871062Y-97991062D01*
X153854517Y-98002118D01*
X153835000Y-98006000D01*
X152235000Y-98006000D01*
X152215483Y-98002118D01*
X152198938Y-97991062D01*
X152187882Y-97974517D01*
X152184000Y-97955000D01*
X152184000Y-96355000D01*
X152187882Y-96335483D01*
X152198938Y-96318938D01*
X152215483Y-96307882D01*
X152235000Y-96304000D01*
X153835000Y-96304000D01*
X153854517Y-96307882D01*
G37*
G36*
X153076199Y-92808662D02*
G01*
X153123954Y-92808662D01*
X153165194Y-92817427D01*
X153200901Y-92820945D01*
X153245759Y-92834552D01*
X153297973Y-92845651D01*
X153331384Y-92860526D01*
X153360435Y-92869339D01*
X153406602Y-92894015D01*
X153460500Y-92918012D01*
X153485554Y-92936215D01*
X153507453Y-92947920D01*
X153552128Y-92984584D01*
X153604430Y-93022584D01*
X153621411Y-93041443D01*
X153636320Y-93053679D01*
X153676387Y-93102501D01*
X153723473Y-93154795D01*
X153733364Y-93171927D01*
X153742079Y-93182546D01*
X153774306Y-93242840D01*
X153812427Y-93308867D01*
X153816813Y-93322368D01*
X153820660Y-93329564D01*
X153841861Y-93399455D01*
X153867404Y-93478067D01*
X153868303Y-93486623D01*
X153869054Y-93489098D01*
X153876371Y-93563389D01*
X153886000Y-93655000D01*
X153876370Y-93746619D01*
X153869054Y-93820901D01*
X153868303Y-93823375D01*
X153867404Y-93831933D01*
X153841856Y-93910558D01*
X153820660Y-93980435D01*
X153816814Y-93987629D01*
X153812427Y-94001133D01*
X153774299Y-94067172D01*
X153742079Y-94127453D01*
X153733366Y-94138069D01*
X153723473Y-94155205D01*
X153676378Y-94207509D01*
X153636320Y-94256320D01*
X153621414Y-94268552D01*
X153604430Y-94287416D01*
X153552118Y-94325423D01*
X153507453Y-94362079D01*
X153485559Y-94373780D01*
X153460500Y-94391988D01*
X153406591Y-94415989D01*
X153360435Y-94440660D01*
X153331391Y-94449470D01*
X153297973Y-94464349D01*
X153245748Y-94475449D01*
X153200901Y-94489054D01*
X153165203Y-94492570D01*
X153123954Y-94501338D01*
X153076188Y-94501338D01*
X153035000Y-94505395D01*
X152993811Y-94501338D01*
X152946046Y-94501338D01*
X152904797Y-94492570D01*
X152869098Y-94489054D01*
X152824248Y-94475448D01*
X152772027Y-94464349D01*
X152738610Y-94449471D01*
X152709564Y-94440660D01*
X152663402Y-94415986D01*
X152609500Y-94391988D01*
X152584443Y-94373783D01*
X152562546Y-94362079D01*
X152517873Y-94325416D01*
X152465570Y-94287416D01*
X152448588Y-94268555D01*
X152433679Y-94256320D01*
X152393610Y-94207496D01*
X152346527Y-94155205D01*
X152336636Y-94138073D01*
X152327920Y-94127453D01*
X152295687Y-94067148D01*
X152257573Y-94001133D01*
X152253186Y-93987634D01*
X152249339Y-93980435D01*
X152228128Y-93910512D01*
X152202596Y-93831933D01*
X152201697Y-93823380D01*
X152200945Y-93820901D01*
X152193613Y-93746467D01*
X152184000Y-93655000D01*
X152193612Y-93563540D01*
X152200945Y-93489098D01*
X152201697Y-93486618D01*
X152202596Y-93478067D01*
X152228123Y-93399502D01*
X152249339Y-93329564D01*
X152253187Y-93322363D01*
X152257573Y-93308867D01*
X152295680Y-93242863D01*
X152327920Y-93182546D01*
X152336638Y-93171923D01*
X152346527Y-93154795D01*
X152393601Y-93102513D01*
X152433679Y-93053679D01*
X152448591Y-93041440D01*
X152465570Y-93022584D01*
X152517862Y-92984591D01*
X152562546Y-92947920D01*
X152584448Y-92936213D01*
X152609500Y-92918012D01*
X152663391Y-92894018D01*
X152709564Y-92869339D01*
X152738617Y-92860525D01*
X152772027Y-92845651D01*
X152824237Y-92834553D01*
X152869098Y-92820945D01*
X152904806Y-92817427D01*
X152946046Y-92808662D01*
X152993801Y-92808662D01*
X153035000Y-92804604D01*
X153076199Y-92808662D01*
G37*
G36*
X156886199Y-89323662D02*
G01*
X156933954Y-89323662D01*
X156975194Y-89332427D01*
X157010901Y-89335945D01*
X157055759Y-89349552D01*
X157107973Y-89360651D01*
X157141384Y-89375526D01*
X157170435Y-89384339D01*
X157216602Y-89409015D01*
X157270500Y-89433012D01*
X157295554Y-89451215D01*
X157317453Y-89462920D01*
X157362128Y-89499584D01*
X157414430Y-89537584D01*
X157431411Y-89556443D01*
X157446320Y-89568679D01*
X157486387Y-89617501D01*
X157533473Y-89669795D01*
X157543364Y-89686927D01*
X157552079Y-89697546D01*
X157584306Y-89757840D01*
X157622427Y-89823867D01*
X157626813Y-89837368D01*
X157630660Y-89844564D01*
X157651861Y-89914455D01*
X157677404Y-89993067D01*
X157678303Y-90001623D01*
X157679054Y-90004098D01*
X157686371Y-90078389D01*
X157696000Y-90170000D01*
X157686370Y-90261619D01*
X157679054Y-90335901D01*
X157678303Y-90338375D01*
X157677404Y-90346933D01*
X157651856Y-90425558D01*
X157630660Y-90495435D01*
X157626814Y-90502629D01*
X157622427Y-90516133D01*
X157584299Y-90582172D01*
X157552079Y-90642453D01*
X157543366Y-90653069D01*
X157533473Y-90670205D01*
X157486378Y-90722509D01*
X157446320Y-90771320D01*
X157431414Y-90783552D01*
X157414430Y-90802416D01*
X157362118Y-90840423D01*
X157317453Y-90877079D01*
X157295559Y-90888780D01*
X157270500Y-90906988D01*
X157216591Y-90930989D01*
X157170435Y-90955660D01*
X157141391Y-90964470D01*
X157107973Y-90979349D01*
X157055748Y-90990449D01*
X157010901Y-91004054D01*
X156975203Y-91007570D01*
X156933954Y-91016338D01*
X156886188Y-91016338D01*
X156845000Y-91020395D01*
X156803811Y-91016338D01*
X156756046Y-91016338D01*
X156714797Y-91007570D01*
X156679098Y-91004054D01*
X156634248Y-90990448D01*
X156582027Y-90979349D01*
X156548610Y-90964471D01*
X156519564Y-90955660D01*
X156473402Y-90930986D01*
X156419500Y-90906988D01*
X156394443Y-90888783D01*
X156372546Y-90877079D01*
X156327873Y-90840416D01*
X156275570Y-90802416D01*
X156258588Y-90783555D01*
X156243679Y-90771320D01*
X156203610Y-90722496D01*
X156156527Y-90670205D01*
X156146636Y-90653073D01*
X156137920Y-90642453D01*
X156105687Y-90582148D01*
X156067573Y-90516133D01*
X156063186Y-90502634D01*
X156059339Y-90495435D01*
X156038128Y-90425512D01*
X156012596Y-90346933D01*
X156011697Y-90338380D01*
X156010945Y-90335901D01*
X156003613Y-90261467D01*
X155994000Y-90170000D01*
X156003612Y-90078540D01*
X156010945Y-90004098D01*
X156011697Y-90001618D01*
X156012596Y-89993067D01*
X156038123Y-89914502D01*
X156059339Y-89844564D01*
X156063187Y-89837363D01*
X156067573Y-89823867D01*
X156105680Y-89757863D01*
X156137920Y-89697546D01*
X156146638Y-89686923D01*
X156156527Y-89669795D01*
X156203601Y-89617513D01*
X156243679Y-89568679D01*
X156258591Y-89556440D01*
X156275570Y-89537584D01*
X156327862Y-89499591D01*
X156372546Y-89462920D01*
X156394448Y-89451213D01*
X156419500Y-89433012D01*
X156473391Y-89409018D01*
X156519564Y-89384339D01*
X156548617Y-89375525D01*
X156582027Y-89360651D01*
X156634237Y-89349553D01*
X156679098Y-89335945D01*
X156714806Y-89332427D01*
X156756046Y-89323662D01*
X156803801Y-89323662D01*
X156845000Y-89319604D01*
X156886199Y-89323662D01*
G37*
G36*
X120056199Y-89283662D02*
G01*
X120103954Y-89283662D01*
X120145194Y-89292427D01*
X120180901Y-89295945D01*
X120225759Y-89309552D01*
X120277973Y-89320651D01*
X120311384Y-89335526D01*
X120340435Y-89344339D01*
X120386602Y-89369015D01*
X120440500Y-89393012D01*
X120465554Y-89411215D01*
X120487453Y-89422920D01*
X120532128Y-89459584D01*
X120584430Y-89497584D01*
X120601411Y-89516443D01*
X120616320Y-89528679D01*
X120656387Y-89577501D01*
X120703473Y-89629795D01*
X120713364Y-89646927D01*
X120722079Y-89657546D01*
X120754306Y-89717840D01*
X120792427Y-89783867D01*
X120796813Y-89797368D01*
X120800660Y-89804564D01*
X120821861Y-89874455D01*
X120847404Y-89953067D01*
X120848303Y-89961623D01*
X120849054Y-89964098D01*
X120856371Y-90038389D01*
X120866000Y-90130000D01*
X120856370Y-90221619D01*
X120849054Y-90295901D01*
X120848303Y-90298375D01*
X120847404Y-90306933D01*
X120821856Y-90385558D01*
X120800660Y-90455435D01*
X120796814Y-90462629D01*
X120792427Y-90476133D01*
X120754299Y-90542172D01*
X120722079Y-90602453D01*
X120713366Y-90613069D01*
X120703473Y-90630205D01*
X120656378Y-90682509D01*
X120616320Y-90731320D01*
X120601414Y-90743552D01*
X120584430Y-90762416D01*
X120532118Y-90800423D01*
X120487453Y-90837079D01*
X120465559Y-90848780D01*
X120440500Y-90866988D01*
X120386591Y-90890989D01*
X120340435Y-90915660D01*
X120311391Y-90924470D01*
X120277973Y-90939349D01*
X120225748Y-90950449D01*
X120180901Y-90964054D01*
X120145203Y-90967570D01*
X120103954Y-90976338D01*
X120056188Y-90976338D01*
X120015000Y-90980395D01*
X119973811Y-90976338D01*
X119926046Y-90976338D01*
X119884797Y-90967570D01*
X119849098Y-90964054D01*
X119804248Y-90950448D01*
X119752027Y-90939349D01*
X119718610Y-90924471D01*
X119689564Y-90915660D01*
X119643402Y-90890986D01*
X119589500Y-90866988D01*
X119564443Y-90848783D01*
X119542546Y-90837079D01*
X119497873Y-90800416D01*
X119445570Y-90762416D01*
X119428588Y-90743555D01*
X119413679Y-90731320D01*
X119373610Y-90682496D01*
X119326527Y-90630205D01*
X119316636Y-90613073D01*
X119307920Y-90602453D01*
X119275687Y-90542148D01*
X119237573Y-90476133D01*
X119233186Y-90462634D01*
X119229339Y-90455435D01*
X119208128Y-90385512D01*
X119182596Y-90306933D01*
X119181697Y-90298380D01*
X119180945Y-90295901D01*
X119173613Y-90221467D01*
X119164000Y-90130000D01*
X119173612Y-90038540D01*
X119180945Y-89964098D01*
X119181697Y-89961618D01*
X119182596Y-89953067D01*
X119208123Y-89874502D01*
X119229339Y-89804564D01*
X119233187Y-89797363D01*
X119237573Y-89783867D01*
X119275680Y-89717863D01*
X119307920Y-89657546D01*
X119316638Y-89646923D01*
X119326527Y-89629795D01*
X119373601Y-89577513D01*
X119413679Y-89528679D01*
X119428591Y-89516440D01*
X119445570Y-89497584D01*
X119497862Y-89459591D01*
X119542546Y-89422920D01*
X119564448Y-89411213D01*
X119589500Y-89393012D01*
X119643391Y-89369018D01*
X119689564Y-89344339D01*
X119718617Y-89335525D01*
X119752027Y-89320651D01*
X119804237Y-89309553D01*
X119849098Y-89295945D01*
X119884806Y-89292427D01*
X119926046Y-89283662D01*
X119973801Y-89283662D01*
X120015000Y-89279604D01*
X120056199Y-89283662D01*
G37*
G36*
X95313098Y-87253966D02*
G01*
X95373353Y-87253966D01*
X95439199Y-87263890D01*
X95508273Y-87269327D01*
X95563947Y-87282693D01*
X95617302Y-87290735D01*
X95687021Y-87312240D01*
X95760187Y-87329806D01*
X95807495Y-87349401D01*
X95853052Y-87363454D01*
X95924569Y-87397895D01*
X95999538Y-87428948D01*
X96038022Y-87452531D01*
X96075322Y-87470494D01*
X96146271Y-87518866D01*
X96220433Y-87564313D01*
X96250127Y-87589674D01*
X96279162Y-87609470D01*
X96346956Y-87672374D01*
X96417433Y-87732567D01*
X96438834Y-87757625D01*
X96460011Y-87777274D01*
X96521925Y-87854911D01*
X96585687Y-87929567D01*
X96599709Y-87952449D01*
X96613830Y-87970156D01*
X96667087Y-88062399D01*
X96721052Y-88150462D01*
X96728977Y-88169597D01*
X96737185Y-88183812D01*
X96779038Y-88290454D01*
X96820194Y-88389813D01*
X96823597Y-88403991D01*
X96827314Y-88413460D01*
X96855157Y-88535446D01*
X96880673Y-88641727D01*
X96881334Y-88650133D01*
X96882214Y-88653986D01*
X96893683Y-88807031D01*
X96901000Y-88900000D01*
X96893682Y-88992975D01*
X96882214Y-89146013D01*
X96881334Y-89149865D01*
X96880673Y-89158273D01*
X96855152Y-89264573D01*
X96827314Y-89386539D01*
X96823598Y-89396005D01*
X96820194Y-89410187D01*
X96779031Y-89509563D01*
X96737185Y-89616187D01*
X96728979Y-89630399D01*
X96721052Y-89649538D01*
X96667077Y-89737616D01*
X96613830Y-89829843D01*
X96599712Y-89847546D01*
X96585687Y-89870433D01*
X96521913Y-89945102D01*
X96460011Y-90022725D01*
X96438838Y-90042369D01*
X96417433Y-90067433D01*
X96346942Y-90127637D01*
X96279162Y-90190529D01*
X96250133Y-90210320D01*
X96220433Y-90235687D01*
X96146257Y-90281142D01*
X96075322Y-90329505D01*
X96038030Y-90347463D01*
X95999538Y-90371052D01*
X95924554Y-90402110D01*
X95853052Y-90436545D01*
X95807504Y-90450594D01*
X95760187Y-90470194D01*
X95687007Y-90487762D01*
X95617302Y-90509264D01*
X95563955Y-90517304D01*
X95508273Y-90530673D01*
X95439195Y-90536109D01*
X95373353Y-90546034D01*
X95313098Y-90546034D01*
X95250000Y-90551000D01*
X95186902Y-90546034D01*
X95126647Y-90546034D01*
X95060803Y-90536109D01*
X94991727Y-90530673D01*
X94936045Y-90517305D01*
X94882697Y-90509264D01*
X94812988Y-90487761D01*
X94739813Y-90470194D01*
X94692498Y-90450595D01*
X94646947Y-90436545D01*
X94575438Y-90402107D01*
X94500462Y-90371052D01*
X94461972Y-90347465D01*
X94424675Y-90329504D01*
X94353726Y-90281131D01*
X94279567Y-90235687D01*
X94249873Y-90210326D01*
X94220839Y-90190531D01*
X94153043Y-90127625D01*
X94082567Y-90067433D01*
X94061164Y-90042374D01*
X94039988Y-90022725D01*
X93978071Y-89945084D01*
X93914313Y-89870433D01*
X93900291Y-89847551D01*
X93886169Y-89829843D01*
X93832905Y-89737588D01*
X93778948Y-89649538D01*
X93771023Y-89630405D01*
X93762814Y-89616187D01*
X93720949Y-89509517D01*
X93679806Y-89410187D01*
X93676402Y-89396012D01*
X93672685Y-89386539D01*
X93644827Y-89264488D01*
X93619327Y-89158273D01*
X93618665Y-89149871D01*
X93617785Y-89146013D01*
X93606296Y-88992710D01*
X93599000Y-88900000D01*
X93606296Y-88807297D01*
X93617785Y-88653986D01*
X93618665Y-88650126D01*
X93619327Y-88641727D01*
X93644822Y-88535530D01*
X93672685Y-88413460D01*
X93676403Y-88403984D01*
X93679806Y-88389813D01*
X93720942Y-88290500D01*
X93762814Y-88183812D01*
X93771024Y-88169590D01*
X93778948Y-88150462D01*
X93832895Y-88062427D01*
X93886169Y-87970156D01*
X93900293Y-87952443D01*
X93914313Y-87929567D01*
X93978059Y-87854929D01*
X94039988Y-87777274D01*
X94061169Y-87757620D01*
X94082567Y-87732567D01*
X94153029Y-87672386D01*
X94220839Y-87609468D01*
X94249879Y-87589668D01*
X94279567Y-87564313D01*
X94353711Y-87518876D01*
X94424675Y-87470495D01*
X94461980Y-87452529D01*
X94500462Y-87428948D01*
X94575423Y-87397898D01*
X94646947Y-87363454D01*
X94692507Y-87349400D01*
X94739813Y-87329806D01*
X94812973Y-87312241D01*
X94882697Y-87290735D01*
X94936054Y-87282692D01*
X94991727Y-87269327D01*
X95060799Y-87263890D01*
X95126647Y-87253966D01*
X95186902Y-87253966D01*
X95250000Y-87249000D01*
X95313098Y-87253966D01*
G37*
G36*
X100393098Y-87253966D02*
G01*
X100453353Y-87253966D01*
X100519199Y-87263890D01*
X100588273Y-87269327D01*
X100643947Y-87282693D01*
X100697302Y-87290735D01*
X100767021Y-87312240D01*
X100840187Y-87329806D01*
X100887495Y-87349401D01*
X100933052Y-87363454D01*
X101004569Y-87397895D01*
X101079538Y-87428948D01*
X101118022Y-87452531D01*
X101155322Y-87470494D01*
X101226271Y-87518866D01*
X101300433Y-87564313D01*
X101330127Y-87589674D01*
X101359162Y-87609470D01*
X101426956Y-87672374D01*
X101497433Y-87732567D01*
X101518834Y-87757625D01*
X101540011Y-87777274D01*
X101601925Y-87854911D01*
X101665687Y-87929567D01*
X101679709Y-87952449D01*
X101693830Y-87970156D01*
X101747087Y-88062399D01*
X101801052Y-88150462D01*
X101808977Y-88169597D01*
X101817185Y-88183812D01*
X101859038Y-88290454D01*
X101900194Y-88389813D01*
X101903597Y-88403991D01*
X101907314Y-88413460D01*
X101935157Y-88535446D01*
X101960673Y-88641727D01*
X101961334Y-88650133D01*
X101962214Y-88653986D01*
X101973683Y-88807031D01*
X101981000Y-88900000D01*
X101973682Y-88992975D01*
X101962214Y-89146013D01*
X101961334Y-89149865D01*
X101960673Y-89158273D01*
X101935152Y-89264573D01*
X101907314Y-89386539D01*
X101903598Y-89396005D01*
X101900194Y-89410187D01*
X101859031Y-89509563D01*
X101817185Y-89616187D01*
X101808979Y-89630399D01*
X101801052Y-89649538D01*
X101747077Y-89737616D01*
X101693830Y-89829843D01*
X101679712Y-89847546D01*
X101665687Y-89870433D01*
X101601913Y-89945102D01*
X101540011Y-90022725D01*
X101518838Y-90042369D01*
X101497433Y-90067433D01*
X101426942Y-90127637D01*
X101359162Y-90190529D01*
X101330133Y-90210320D01*
X101300433Y-90235687D01*
X101226257Y-90281142D01*
X101155322Y-90329505D01*
X101118030Y-90347463D01*
X101079538Y-90371052D01*
X101004554Y-90402110D01*
X100933052Y-90436545D01*
X100887504Y-90450594D01*
X100840187Y-90470194D01*
X100767007Y-90487762D01*
X100697302Y-90509264D01*
X100643955Y-90517304D01*
X100588273Y-90530673D01*
X100519195Y-90536109D01*
X100453353Y-90546034D01*
X100393098Y-90546034D01*
X100330000Y-90551000D01*
X100266902Y-90546034D01*
X100206647Y-90546034D01*
X100140803Y-90536109D01*
X100071727Y-90530673D01*
X100016045Y-90517305D01*
X99962697Y-90509264D01*
X99892988Y-90487761D01*
X99819813Y-90470194D01*
X99772498Y-90450595D01*
X99726947Y-90436545D01*
X99655438Y-90402107D01*
X99580462Y-90371052D01*
X99541972Y-90347465D01*
X99504675Y-90329504D01*
X99433726Y-90281131D01*
X99359567Y-90235687D01*
X99329873Y-90210326D01*
X99300839Y-90190531D01*
X99233043Y-90127625D01*
X99162567Y-90067433D01*
X99141164Y-90042374D01*
X99119988Y-90022725D01*
X99058071Y-89945084D01*
X98994313Y-89870433D01*
X98980291Y-89847551D01*
X98966169Y-89829843D01*
X98912905Y-89737588D01*
X98858948Y-89649538D01*
X98851023Y-89630405D01*
X98842814Y-89616187D01*
X98800949Y-89509517D01*
X98759806Y-89410187D01*
X98756402Y-89396012D01*
X98752685Y-89386539D01*
X98724827Y-89264488D01*
X98699327Y-89158273D01*
X98698665Y-89149871D01*
X98697785Y-89146013D01*
X98686296Y-88992710D01*
X98679000Y-88900000D01*
X98686296Y-88807297D01*
X98697785Y-88653986D01*
X98698665Y-88650126D01*
X98699327Y-88641727D01*
X98724822Y-88535530D01*
X98752685Y-88413460D01*
X98756403Y-88403984D01*
X98759806Y-88389813D01*
X98800942Y-88290500D01*
X98842814Y-88183812D01*
X98851024Y-88169590D01*
X98858948Y-88150462D01*
X98912895Y-88062427D01*
X98966169Y-87970156D01*
X98980293Y-87952443D01*
X98994313Y-87929567D01*
X99058059Y-87854929D01*
X99119988Y-87777274D01*
X99141169Y-87757620D01*
X99162567Y-87732567D01*
X99233029Y-87672386D01*
X99300839Y-87609468D01*
X99329879Y-87589668D01*
X99359567Y-87564313D01*
X99433711Y-87518876D01*
X99504675Y-87470495D01*
X99541980Y-87452529D01*
X99580462Y-87428948D01*
X99655423Y-87397898D01*
X99726947Y-87363454D01*
X99772507Y-87349400D01*
X99819813Y-87329806D01*
X99892973Y-87312241D01*
X99962697Y-87290735D01*
X100016054Y-87282692D01*
X100071727Y-87269327D01*
X100140799Y-87263890D01*
X100206647Y-87253966D01*
X100266902Y-87253966D01*
X100330000Y-87249000D01*
X100393098Y-87253966D01*
G37*
G36*
X107029517Y-87252882D02*
G01*
X107046062Y-87263938D01*
X107057118Y-87280483D01*
X107061000Y-87300000D01*
X107061000Y-90500000D01*
X107057118Y-90519517D01*
X107046062Y-90536062D01*
X107029517Y-90547118D01*
X107010000Y-90551000D01*
X103810000Y-90551000D01*
X103790483Y-90547118D01*
X103773938Y-90536062D01*
X103762882Y-90519517D01*
X103759000Y-90500000D01*
X103759000Y-87300000D01*
X103762882Y-87280483D01*
X103773938Y-87263938D01*
X103790483Y-87252882D01*
X103810000Y-87249000D01*
X107010000Y-87249000D01*
X107029517Y-87252882D01*
G37*
G36*
X112109517Y-87252882D02*
G01*
X112126062Y-87263938D01*
X112137118Y-87280483D01*
X112141000Y-87300000D01*
X112141000Y-90500000D01*
X112137118Y-90519517D01*
X112126062Y-90536062D01*
X112109517Y-90547118D01*
X112090000Y-90551000D01*
X108890000Y-90551000D01*
X108870483Y-90547118D01*
X108853938Y-90536062D01*
X108842882Y-90519517D01*
X108839000Y-90500000D01*
X108839000Y-87300000D01*
X108842882Y-87280483D01*
X108853938Y-87263938D01*
X108870483Y-87252882D01*
X108890000Y-87249000D01*
X112090000Y-87249000D01*
X112109517Y-87252882D01*
G37*
G36*
X117189517Y-87252882D02*
G01*
X117206062Y-87263938D01*
X117217118Y-87280483D01*
X117221000Y-87300000D01*
X117221000Y-90500000D01*
X117217118Y-90519517D01*
X117206062Y-90536062D01*
X117189517Y-90547118D01*
X117170000Y-90551000D01*
X113970000Y-90551000D01*
X113950483Y-90547118D01*
X113933938Y-90536062D01*
X113922882Y-90519517D01*
X113919000Y-90500000D01*
X113919000Y-87300000D01*
X113922882Y-87280483D01*
X113933938Y-87263938D01*
X113950483Y-87252882D01*
X113970000Y-87249000D01*
X117170000Y-87249000D01*
X117189517Y-87252882D01*
G37*
G36*
X135336199Y-88688662D02*
G01*
X135383954Y-88688662D01*
X135425194Y-88697427D01*
X135460901Y-88700945D01*
X135505759Y-88714552D01*
X135557973Y-88725651D01*
X135591384Y-88740526D01*
X135620435Y-88749339D01*
X135666602Y-88774015D01*
X135720500Y-88798012D01*
X135745554Y-88816215D01*
X135767453Y-88827920D01*
X135812128Y-88864584D01*
X135864430Y-88902584D01*
X135881411Y-88921443D01*
X135896320Y-88933679D01*
X135936387Y-88982501D01*
X135983473Y-89034795D01*
X135993364Y-89051927D01*
X136002079Y-89062546D01*
X136034306Y-89122840D01*
X136072427Y-89188867D01*
X136076813Y-89202368D01*
X136080660Y-89209564D01*
X136101861Y-89279455D01*
X136127404Y-89358067D01*
X136128303Y-89366623D01*
X136129054Y-89369098D01*
X136136371Y-89443389D01*
X136146000Y-89535000D01*
X136136370Y-89626619D01*
X136129054Y-89700901D01*
X136128303Y-89703375D01*
X136127404Y-89711933D01*
X136101856Y-89790558D01*
X136080660Y-89860435D01*
X136076814Y-89867629D01*
X136072427Y-89881133D01*
X136034299Y-89947172D01*
X136002079Y-90007453D01*
X135993366Y-90018069D01*
X135983473Y-90035205D01*
X135936378Y-90087509D01*
X135896320Y-90136320D01*
X135881414Y-90148552D01*
X135864430Y-90167416D01*
X135812118Y-90205423D01*
X135767453Y-90242079D01*
X135745559Y-90253780D01*
X135720500Y-90271988D01*
X135666591Y-90295989D01*
X135620435Y-90320660D01*
X135591391Y-90329470D01*
X135557973Y-90344349D01*
X135505748Y-90355449D01*
X135460901Y-90369054D01*
X135425203Y-90372570D01*
X135383954Y-90381338D01*
X135336188Y-90381338D01*
X135295000Y-90385395D01*
X135253811Y-90381338D01*
X135206046Y-90381338D01*
X135164797Y-90372570D01*
X135129098Y-90369054D01*
X135084248Y-90355448D01*
X135032027Y-90344349D01*
X134998610Y-90329471D01*
X134969564Y-90320660D01*
X134923402Y-90295986D01*
X134869500Y-90271988D01*
X134844443Y-90253783D01*
X134822546Y-90242079D01*
X134777873Y-90205416D01*
X134725570Y-90167416D01*
X134708588Y-90148555D01*
X134693679Y-90136320D01*
X134653610Y-90087496D01*
X134606527Y-90035205D01*
X134596636Y-90018073D01*
X134587920Y-90007453D01*
X134555687Y-89947148D01*
X134517573Y-89881133D01*
X134513186Y-89867634D01*
X134509339Y-89860435D01*
X134488128Y-89790512D01*
X134462596Y-89711933D01*
X134461697Y-89703380D01*
X134460945Y-89700901D01*
X134453613Y-89626467D01*
X134444000Y-89535000D01*
X134453612Y-89443540D01*
X134460945Y-89369098D01*
X134461697Y-89366618D01*
X134462596Y-89358067D01*
X134488123Y-89279502D01*
X134509339Y-89209564D01*
X134513187Y-89202363D01*
X134517573Y-89188867D01*
X134555680Y-89122863D01*
X134587920Y-89062546D01*
X134596638Y-89051923D01*
X134606527Y-89034795D01*
X134653601Y-88982513D01*
X134693679Y-88933679D01*
X134708591Y-88921440D01*
X134725570Y-88902584D01*
X134777862Y-88864591D01*
X134822546Y-88827920D01*
X134844448Y-88816213D01*
X134869500Y-88798012D01*
X134923391Y-88774018D01*
X134969564Y-88749339D01*
X134998617Y-88740525D01*
X135032027Y-88725651D01*
X135084237Y-88714553D01*
X135129098Y-88700945D01*
X135164806Y-88697427D01*
X135206046Y-88688662D01*
X135253801Y-88688662D01*
X135295000Y-88684604D01*
X135336199Y-88688662D01*
G37*
G36*
X137836199Y-88688662D02*
G01*
X137883954Y-88688662D01*
X137925194Y-88697427D01*
X137960901Y-88700945D01*
X138005759Y-88714552D01*
X138057973Y-88725651D01*
X138091384Y-88740526D01*
X138120435Y-88749339D01*
X138166602Y-88774015D01*
X138220500Y-88798012D01*
X138245554Y-88816215D01*
X138267453Y-88827920D01*
X138312128Y-88864584D01*
X138364430Y-88902584D01*
X138381411Y-88921443D01*
X138396320Y-88933679D01*
X138436387Y-88982501D01*
X138483473Y-89034795D01*
X138493364Y-89051927D01*
X138502079Y-89062546D01*
X138534306Y-89122840D01*
X138572427Y-89188867D01*
X138576813Y-89202368D01*
X138580660Y-89209564D01*
X138601861Y-89279455D01*
X138627404Y-89358067D01*
X138628303Y-89366623D01*
X138629054Y-89369098D01*
X138636371Y-89443389D01*
X138646000Y-89535000D01*
X138636370Y-89626619D01*
X138629054Y-89700901D01*
X138628303Y-89703375D01*
X138627404Y-89711933D01*
X138601856Y-89790558D01*
X138580660Y-89860435D01*
X138576814Y-89867629D01*
X138572427Y-89881133D01*
X138534299Y-89947172D01*
X138502079Y-90007453D01*
X138493366Y-90018069D01*
X138483473Y-90035205D01*
X138436378Y-90087509D01*
X138396320Y-90136320D01*
X138381414Y-90148552D01*
X138364430Y-90167416D01*
X138312118Y-90205423D01*
X138267453Y-90242079D01*
X138245559Y-90253780D01*
X138220500Y-90271988D01*
X138166591Y-90295989D01*
X138120435Y-90320660D01*
X138091391Y-90329470D01*
X138057973Y-90344349D01*
X138005748Y-90355449D01*
X137960901Y-90369054D01*
X137925203Y-90372570D01*
X137883954Y-90381338D01*
X137836188Y-90381338D01*
X137795000Y-90385395D01*
X137753811Y-90381338D01*
X137706046Y-90381338D01*
X137664797Y-90372570D01*
X137629098Y-90369054D01*
X137584248Y-90355448D01*
X137532027Y-90344349D01*
X137498610Y-90329471D01*
X137469564Y-90320660D01*
X137423402Y-90295986D01*
X137369500Y-90271988D01*
X137344443Y-90253783D01*
X137322546Y-90242079D01*
X137277873Y-90205416D01*
X137225570Y-90167416D01*
X137208588Y-90148555D01*
X137193679Y-90136320D01*
X137153610Y-90087496D01*
X137106527Y-90035205D01*
X137096636Y-90018073D01*
X137087920Y-90007453D01*
X137055687Y-89947148D01*
X137017573Y-89881133D01*
X137013186Y-89867634D01*
X137009339Y-89860435D01*
X136988128Y-89790512D01*
X136962596Y-89711933D01*
X136961697Y-89703380D01*
X136960945Y-89700901D01*
X136953613Y-89626467D01*
X136944000Y-89535000D01*
X136953612Y-89443540D01*
X136960945Y-89369098D01*
X136961697Y-89366618D01*
X136962596Y-89358067D01*
X136988123Y-89279502D01*
X137009339Y-89209564D01*
X137013187Y-89202363D01*
X137017573Y-89188867D01*
X137055680Y-89122863D01*
X137087920Y-89062546D01*
X137096638Y-89051923D01*
X137106527Y-89034795D01*
X137153601Y-88982513D01*
X137193679Y-88933679D01*
X137208591Y-88921440D01*
X137225570Y-88902584D01*
X137277862Y-88864591D01*
X137322546Y-88827920D01*
X137344448Y-88816213D01*
X137369500Y-88798012D01*
X137423391Y-88774018D01*
X137469564Y-88749339D01*
X137498617Y-88740525D01*
X137532027Y-88725651D01*
X137584237Y-88714553D01*
X137629098Y-88700945D01*
X137664806Y-88697427D01*
X137706046Y-88688662D01*
X137753801Y-88688662D01*
X137795000Y-88684604D01*
X137836199Y-88688662D01*
G37*
G36*
X120056199Y-86783662D02*
G01*
X120103954Y-86783662D01*
X120145194Y-86792427D01*
X120180901Y-86795945D01*
X120225759Y-86809552D01*
X120277973Y-86820651D01*
X120311384Y-86835526D01*
X120340435Y-86844339D01*
X120386602Y-86869015D01*
X120440500Y-86893012D01*
X120465554Y-86911215D01*
X120487453Y-86922920D01*
X120532128Y-86959584D01*
X120584430Y-86997584D01*
X120601411Y-87016443D01*
X120616320Y-87028679D01*
X120656387Y-87077501D01*
X120703473Y-87129795D01*
X120713364Y-87146927D01*
X120722079Y-87157546D01*
X120754306Y-87217840D01*
X120792427Y-87283867D01*
X120796813Y-87297368D01*
X120800660Y-87304564D01*
X120821861Y-87374455D01*
X120847404Y-87453067D01*
X120848303Y-87461623D01*
X120849054Y-87464098D01*
X120856371Y-87538389D01*
X120866000Y-87630000D01*
X120856370Y-87721619D01*
X120849054Y-87795901D01*
X120848303Y-87798375D01*
X120847404Y-87806933D01*
X120821856Y-87885558D01*
X120800660Y-87955435D01*
X120796814Y-87962629D01*
X120792427Y-87976133D01*
X120754299Y-88042172D01*
X120722079Y-88102453D01*
X120713366Y-88113069D01*
X120703473Y-88130205D01*
X120656378Y-88182509D01*
X120616320Y-88231320D01*
X120601414Y-88243552D01*
X120584430Y-88262416D01*
X120532118Y-88300423D01*
X120487453Y-88337079D01*
X120465559Y-88348780D01*
X120440500Y-88366988D01*
X120386591Y-88390989D01*
X120340435Y-88415660D01*
X120311391Y-88424470D01*
X120277973Y-88439349D01*
X120225748Y-88450449D01*
X120180901Y-88464054D01*
X120145203Y-88467570D01*
X120103954Y-88476338D01*
X120056188Y-88476338D01*
X120015000Y-88480395D01*
X119973811Y-88476338D01*
X119926046Y-88476338D01*
X119884797Y-88467570D01*
X119849098Y-88464054D01*
X119804248Y-88450448D01*
X119752027Y-88439349D01*
X119718610Y-88424471D01*
X119689564Y-88415660D01*
X119643402Y-88390986D01*
X119589500Y-88366988D01*
X119564443Y-88348783D01*
X119542546Y-88337079D01*
X119497873Y-88300416D01*
X119445570Y-88262416D01*
X119428588Y-88243555D01*
X119413679Y-88231320D01*
X119373610Y-88182496D01*
X119326527Y-88130205D01*
X119316636Y-88113073D01*
X119307920Y-88102453D01*
X119275687Y-88042148D01*
X119237573Y-87976133D01*
X119233186Y-87962634D01*
X119229339Y-87955435D01*
X119208128Y-87885512D01*
X119182596Y-87806933D01*
X119181697Y-87798380D01*
X119180945Y-87795901D01*
X119173613Y-87721467D01*
X119164000Y-87630000D01*
X119173612Y-87538540D01*
X119180945Y-87464098D01*
X119181697Y-87461618D01*
X119182596Y-87453067D01*
X119208123Y-87374502D01*
X119229339Y-87304564D01*
X119233187Y-87297363D01*
X119237573Y-87283867D01*
X119275680Y-87217863D01*
X119307920Y-87157546D01*
X119316638Y-87146923D01*
X119326527Y-87129795D01*
X119373601Y-87077513D01*
X119413679Y-87028679D01*
X119428591Y-87016440D01*
X119445570Y-86997584D01*
X119497862Y-86959591D01*
X119542546Y-86922920D01*
X119564448Y-86911213D01*
X119589500Y-86893012D01*
X119643391Y-86869018D01*
X119689564Y-86844339D01*
X119718617Y-86835525D01*
X119752027Y-86820651D01*
X119804237Y-86809553D01*
X119849098Y-86795945D01*
X119884806Y-86792427D01*
X119926046Y-86783662D01*
X119973801Y-86783662D01*
X120015000Y-86779604D01*
X120056199Y-86783662D01*
G37*
G36*
X129489517Y-85752882D02*
G01*
X129506062Y-85763938D01*
X129517118Y-85780483D01*
X129521000Y-85800000D01*
X129521000Y-88200000D01*
X129517118Y-88219517D01*
X129506062Y-88236062D01*
X129489517Y-88247118D01*
X129470000Y-88251000D01*
X127070000Y-88251000D01*
X127050483Y-88247118D01*
X127033938Y-88236062D01*
X127022882Y-88219517D01*
X127019000Y-88200000D01*
X127019000Y-85800000D01*
X127022882Y-85780483D01*
X127033938Y-85763938D01*
X127050483Y-85752882D01*
X127070000Y-85749000D01*
X129470000Y-85749000D01*
X129489517Y-85752882D01*
G37*
G36*
X145999517Y-85752882D02*
G01*
X146016062Y-85763938D01*
X146027118Y-85780483D01*
X146031000Y-85800000D01*
X146031000Y-88200000D01*
X146027118Y-88219517D01*
X146016062Y-88236062D01*
X145999517Y-88247118D01*
X145980000Y-88251000D01*
X143580000Y-88251000D01*
X143560483Y-88247118D01*
X143543938Y-88236062D01*
X143532882Y-88219517D01*
X143529000Y-88200000D01*
X143529000Y-85800000D01*
X143532882Y-85780483D01*
X143543938Y-85763938D01*
X143560483Y-85752882D01*
X143580000Y-85749000D01*
X145980000Y-85749000D01*
X145999517Y-85752882D01*
G37*
G36*
X156886199Y-81703662D02*
G01*
X156933954Y-81703662D01*
X156975194Y-81712427D01*
X157010901Y-81715945D01*
X157055759Y-81729552D01*
X157107973Y-81740651D01*
X157141384Y-81755526D01*
X157170435Y-81764339D01*
X157216602Y-81789015D01*
X157270500Y-81813012D01*
X157295554Y-81831215D01*
X157317453Y-81842920D01*
X157362128Y-81879584D01*
X157414430Y-81917584D01*
X157431411Y-81936443D01*
X157446320Y-81948679D01*
X157486387Y-81997501D01*
X157533473Y-82049795D01*
X157543364Y-82066927D01*
X157552079Y-82077546D01*
X157584306Y-82137840D01*
X157622427Y-82203867D01*
X157626813Y-82217368D01*
X157630660Y-82224564D01*
X157651861Y-82294455D01*
X157677404Y-82373067D01*
X157678303Y-82381623D01*
X157679054Y-82384098D01*
X157686371Y-82458389D01*
X157696000Y-82550000D01*
X157686370Y-82641619D01*
X157679054Y-82715901D01*
X157678303Y-82718375D01*
X157677404Y-82726933D01*
X157651856Y-82805558D01*
X157630660Y-82875435D01*
X157626814Y-82882629D01*
X157622427Y-82896133D01*
X157584299Y-82962172D01*
X157552079Y-83022453D01*
X157543366Y-83033069D01*
X157533473Y-83050205D01*
X157486378Y-83102509D01*
X157446320Y-83151320D01*
X157431414Y-83163552D01*
X157414430Y-83182416D01*
X157362118Y-83220423D01*
X157317453Y-83257079D01*
X157295559Y-83268780D01*
X157270500Y-83286988D01*
X157216591Y-83310989D01*
X157170435Y-83335660D01*
X157141391Y-83344470D01*
X157107973Y-83359349D01*
X157055748Y-83370449D01*
X157010901Y-83384054D01*
X156975203Y-83387570D01*
X156933954Y-83396338D01*
X156886188Y-83396338D01*
X156845000Y-83400395D01*
X156803811Y-83396338D01*
X156756046Y-83396338D01*
X156714797Y-83387570D01*
X156679098Y-83384054D01*
X156634248Y-83370448D01*
X156582027Y-83359349D01*
X156548610Y-83344471D01*
X156519564Y-83335660D01*
X156473402Y-83310986D01*
X156419500Y-83286988D01*
X156394443Y-83268783D01*
X156372546Y-83257079D01*
X156327873Y-83220416D01*
X156275570Y-83182416D01*
X156258588Y-83163555D01*
X156243679Y-83151320D01*
X156203610Y-83102496D01*
X156156527Y-83050205D01*
X156146636Y-83033073D01*
X156137920Y-83022453D01*
X156105687Y-82962148D01*
X156067573Y-82896133D01*
X156063186Y-82882634D01*
X156059339Y-82875435D01*
X156038128Y-82805512D01*
X156012596Y-82726933D01*
X156011697Y-82718380D01*
X156010945Y-82715901D01*
X156003613Y-82641467D01*
X155994000Y-82550000D01*
X156003612Y-82458540D01*
X156010945Y-82384098D01*
X156011697Y-82381618D01*
X156012596Y-82373067D01*
X156038123Y-82294502D01*
X156059339Y-82224564D01*
X156063187Y-82217363D01*
X156067573Y-82203867D01*
X156105680Y-82137863D01*
X156137920Y-82077546D01*
X156146638Y-82066923D01*
X156156527Y-82049795D01*
X156203601Y-81997513D01*
X156243679Y-81948679D01*
X156258591Y-81936440D01*
X156275570Y-81917584D01*
X156327862Y-81879591D01*
X156372546Y-81842920D01*
X156394448Y-81831213D01*
X156419500Y-81813012D01*
X156473391Y-81789018D01*
X156519564Y-81764339D01*
X156548617Y-81755525D01*
X156582027Y-81740651D01*
X156634237Y-81729553D01*
X156679098Y-81715945D01*
X156714806Y-81712427D01*
X156756046Y-81703662D01*
X156803801Y-81703662D01*
X156845000Y-81699604D01*
X156886199Y-81703662D01*
G37*
G36*
X157129517Y-79062882D02*
G01*
X157146062Y-79073938D01*
X157157118Y-79090483D01*
X157161000Y-79110000D01*
X157161000Y-80910000D01*
X157157118Y-80929517D01*
X157146062Y-80946062D01*
X157129517Y-80957118D01*
X157110000Y-80961000D01*
X155310000Y-80961000D01*
X155290483Y-80957118D01*
X155273938Y-80946062D01*
X155262882Y-80929517D01*
X155259000Y-80910000D01*
X155259000Y-79110000D01*
X155262882Y-79090483D01*
X155273938Y-79073938D01*
X155290483Y-79062882D01*
X155310000Y-79059000D01*
X157110000Y-79059000D01*
X157129517Y-79062882D01*
G37*
G36*
X128323720Y-78253700D02*
G01*
X128373273Y-78253700D01*
X128427891Y-78262814D01*
X128487234Y-78268006D01*
X128533834Y-78280492D01*
X128576997Y-78287695D01*
X128634900Y-78307573D01*
X128697867Y-78324445D01*
X128736438Y-78342430D01*
X128772349Y-78354759D01*
X128831347Y-78386687D01*
X128895500Y-78416602D01*
X128925701Y-78437749D01*
X128953995Y-78453061D01*
X129011590Y-78497889D01*
X129074127Y-78541678D01*
X129096167Y-78563718D01*
X129116987Y-78579923D01*
X129170470Y-78638021D01*
X129228322Y-78695873D01*
X129242924Y-78716727D01*
X129256878Y-78731885D01*
X129303430Y-78803139D01*
X129353398Y-78874500D01*
X129361738Y-78892385D01*
X129369843Y-78904791D01*
X129406635Y-78988668D01*
X129445555Y-79072133D01*
X129449179Y-79085658D01*
X129452813Y-79093943D01*
X129477144Y-79190025D01*
X129501994Y-79282766D01*
X129502714Y-79291000D01*
X129503515Y-79294162D01*
X129512892Y-79407335D01*
X129521000Y-79500000D01*
X129512892Y-79592672D01*
X129503515Y-79705837D01*
X129502714Y-79708997D01*
X129501994Y-79717234D01*
X129477139Y-79809991D01*
X129452813Y-79906056D01*
X129449179Y-79914338D01*
X129445555Y-79927867D01*
X129406627Y-80011347D01*
X129369843Y-80095208D01*
X129361739Y-80107611D01*
X129353398Y-80125500D01*
X129303421Y-80196874D01*
X129256878Y-80268114D01*
X129242927Y-80283268D01*
X129228322Y-80304127D01*
X129170458Y-80361990D01*
X129116987Y-80420076D01*
X129096172Y-80436276D01*
X129074127Y-80458322D01*
X129011577Y-80502119D01*
X128953995Y-80546938D01*
X128925707Y-80562246D01*
X128895500Y-80583398D01*
X128831334Y-80613318D01*
X128772349Y-80645240D01*
X128736446Y-80657565D01*
X128697867Y-80675555D01*
X128634887Y-80692430D01*
X128576997Y-80712304D01*
X128533842Y-80719505D01*
X128487234Y-80731994D01*
X128427888Y-80737186D01*
X128373273Y-80746300D01*
X128323720Y-80746300D01*
X128270000Y-80751000D01*
X128216280Y-80746300D01*
X128166727Y-80746300D01*
X128112111Y-80737186D01*
X128052766Y-80731994D01*
X128006159Y-80719505D01*
X127963002Y-80712304D01*
X127905108Y-80692429D01*
X127842133Y-80675555D01*
X127803556Y-80657566D01*
X127767650Y-80645240D01*
X127708658Y-80613315D01*
X127644500Y-80583398D01*
X127614295Y-80562248D01*
X127586004Y-80546938D01*
X127528412Y-80502112D01*
X127465873Y-80458322D01*
X127443831Y-80436280D01*
X127423012Y-80420076D01*
X127369528Y-80361977D01*
X127311678Y-80304127D01*
X127297075Y-80283273D01*
X127283121Y-80268114D01*
X127236563Y-80196852D01*
X127186602Y-80125500D01*
X127178262Y-80107616D01*
X127170156Y-80095208D01*
X127133355Y-80011311D01*
X127094445Y-79927867D01*
X127090821Y-79914344D01*
X127087186Y-79906056D01*
X127062842Y-79809923D01*
X127038006Y-79717234D01*
X127037285Y-79709003D01*
X127036484Y-79705837D01*
X127027089Y-79592456D01*
X127019000Y-79500000D01*
X127027088Y-79407551D01*
X127036484Y-79294162D01*
X127037286Y-79290994D01*
X127038006Y-79282766D01*
X127062837Y-79190093D01*
X127087186Y-79093943D01*
X127090822Y-79085653D01*
X127094445Y-79072133D01*
X127133348Y-78988704D01*
X127170156Y-78904791D01*
X127178264Y-78892380D01*
X127186602Y-78874500D01*
X127236554Y-78803160D01*
X127283121Y-78731885D01*
X127297078Y-78716722D01*
X127311678Y-78695873D01*
X127369517Y-78638033D01*
X127423012Y-78579923D01*
X127443835Y-78563715D01*
X127465873Y-78541678D01*
X127528399Y-78497896D01*
X127586004Y-78453061D01*
X127614301Y-78437746D01*
X127644500Y-78416602D01*
X127708644Y-78386690D01*
X127767650Y-78354759D01*
X127803564Y-78342429D01*
X127842133Y-78324445D01*
X127905095Y-78307574D01*
X127963002Y-78287695D01*
X128006166Y-78280492D01*
X128052766Y-78268006D01*
X128112107Y-78262814D01*
X128166727Y-78253700D01*
X128216280Y-78253700D01*
X128270000Y-78249000D01*
X128323720Y-78253700D01*
G37*
G36*
X144833720Y-78253700D02*
G01*
X144883273Y-78253700D01*
X144937891Y-78262814D01*
X144997234Y-78268006D01*
X145043834Y-78280492D01*
X145086997Y-78287695D01*
X145144900Y-78307573D01*
X145207867Y-78324445D01*
X145246438Y-78342430D01*
X145282349Y-78354759D01*
X145341347Y-78386687D01*
X145405500Y-78416602D01*
X145435701Y-78437749D01*
X145463995Y-78453061D01*
X145521590Y-78497889D01*
X145584127Y-78541678D01*
X145606167Y-78563718D01*
X145626987Y-78579923D01*
X145680470Y-78638021D01*
X145738322Y-78695873D01*
X145752924Y-78716727D01*
X145766878Y-78731885D01*
X145813430Y-78803139D01*
X145863398Y-78874500D01*
X145871738Y-78892385D01*
X145879843Y-78904791D01*
X145916635Y-78988668D01*
X145955555Y-79072133D01*
X145959179Y-79085658D01*
X145962813Y-79093943D01*
X145987144Y-79190025D01*
X146011994Y-79282766D01*
X146012714Y-79291000D01*
X146013515Y-79294162D01*
X146022892Y-79407335D01*
X146031000Y-79500000D01*
X146022892Y-79592672D01*
X146013515Y-79705837D01*
X146012714Y-79708997D01*
X146011994Y-79717234D01*
X145987139Y-79809991D01*
X145962813Y-79906056D01*
X145959179Y-79914338D01*
X145955555Y-79927867D01*
X145916627Y-80011347D01*
X145879843Y-80095208D01*
X145871739Y-80107611D01*
X145863398Y-80125500D01*
X145813421Y-80196874D01*
X145766878Y-80268114D01*
X145752927Y-80283268D01*
X145738322Y-80304127D01*
X145680458Y-80361990D01*
X145626987Y-80420076D01*
X145606172Y-80436276D01*
X145584127Y-80458322D01*
X145521577Y-80502119D01*
X145463995Y-80546938D01*
X145435707Y-80562246D01*
X145405500Y-80583398D01*
X145341334Y-80613318D01*
X145282349Y-80645240D01*
X145246446Y-80657565D01*
X145207867Y-80675555D01*
X145144887Y-80692430D01*
X145086997Y-80712304D01*
X145043842Y-80719505D01*
X144997234Y-80731994D01*
X144937888Y-80737186D01*
X144883273Y-80746300D01*
X144833720Y-80746300D01*
X144780000Y-80751000D01*
X144726280Y-80746300D01*
X144676727Y-80746300D01*
X144622111Y-80737186D01*
X144562766Y-80731994D01*
X144516159Y-80719505D01*
X144473002Y-80712304D01*
X144415108Y-80692429D01*
X144352133Y-80675555D01*
X144313556Y-80657566D01*
X144277650Y-80645240D01*
X144218658Y-80613315D01*
X144154500Y-80583398D01*
X144124295Y-80562248D01*
X144096004Y-80546938D01*
X144038412Y-80502112D01*
X143975873Y-80458322D01*
X143953831Y-80436280D01*
X143933012Y-80420076D01*
X143879528Y-80361977D01*
X143821678Y-80304127D01*
X143807075Y-80283273D01*
X143793121Y-80268114D01*
X143746563Y-80196852D01*
X143696602Y-80125500D01*
X143688262Y-80107616D01*
X143680156Y-80095208D01*
X143643355Y-80011311D01*
X143604445Y-79927867D01*
X143600821Y-79914344D01*
X143597186Y-79906056D01*
X143572842Y-79809923D01*
X143548006Y-79717234D01*
X143547285Y-79709003D01*
X143546484Y-79705837D01*
X143537089Y-79592456D01*
X143529000Y-79500000D01*
X143537088Y-79407551D01*
X143546484Y-79294162D01*
X143547286Y-79290994D01*
X143548006Y-79282766D01*
X143572837Y-79190093D01*
X143597186Y-79093943D01*
X143600822Y-79085653D01*
X143604445Y-79072133D01*
X143643348Y-78988704D01*
X143680156Y-78904791D01*
X143688264Y-78892380D01*
X143696602Y-78874500D01*
X143746554Y-78803160D01*
X143793121Y-78731885D01*
X143807078Y-78716722D01*
X143821678Y-78695873D01*
X143879517Y-78638033D01*
X143933012Y-78579923D01*
X143953835Y-78563715D01*
X143975873Y-78541678D01*
X144038399Y-78497896D01*
X144096004Y-78453061D01*
X144124301Y-78437746D01*
X144154500Y-78416602D01*
X144218644Y-78386690D01*
X144277650Y-78354759D01*
X144313564Y-78342429D01*
X144352133Y-78324445D01*
X144415095Y-78307574D01*
X144473002Y-78287695D01*
X144516166Y-78280492D01*
X144562766Y-78268006D01*
X144622107Y-78262814D01*
X144676727Y-78253700D01*
X144726280Y-78253700D01*
X144780000Y-78249000D01*
X144833720Y-78253700D01*
G37*
G36*
X156256604Y-76523590D02*
G01*
X156297696Y-76523590D01*
X156343456Y-76532144D01*
X156395531Y-76537273D01*
X156435091Y-76549273D01*
X156470111Y-76555820D01*
X156518617Y-76574611D01*
X156573932Y-76591391D01*
X156605534Y-76608282D01*
X156633656Y-76619177D01*
X156682513Y-76649428D01*
X156738347Y-76679272D01*
X156761809Y-76698526D01*
X156782784Y-76711514D01*
X156829256Y-76753879D01*
X156882459Y-76797541D01*
X156898224Y-76816751D01*
X156912400Y-76829674D01*
X156953557Y-76884174D01*
X157000728Y-76941653D01*
X157009848Y-76958717D01*
X157018099Y-76969642D01*
X157050925Y-77035566D01*
X157088609Y-77106068D01*
X157092628Y-77119316D01*
X157096282Y-77126655D01*
X157117864Y-77202507D01*
X157142727Y-77284469D01*
X157143543Y-77292762D01*
X157144280Y-77295350D01*
X157151937Y-77377982D01*
X157161000Y-77470000D01*
X157151936Y-77562026D01*
X157144280Y-77644649D01*
X157143544Y-77647235D01*
X157142727Y-77655531D01*
X157117859Y-77737507D01*
X157096282Y-77813344D01*
X157092628Y-77820680D01*
X157088609Y-77833932D01*
X157050917Y-77904447D01*
X157018099Y-77970357D01*
X157009850Y-77981279D01*
X157000728Y-77998347D01*
X156953547Y-78055836D01*
X156912400Y-78110325D01*
X156898227Y-78123244D01*
X156882459Y-78142459D01*
X156829245Y-78186129D01*
X156782784Y-78228485D01*
X156761814Y-78241469D01*
X156738347Y-78260728D01*
X156682502Y-78290577D01*
X156633656Y-78320822D01*
X156605541Y-78331713D01*
X156573932Y-78348609D01*
X156518605Y-78365392D01*
X156470111Y-78384179D01*
X156435098Y-78390724D01*
X156395531Y-78402727D01*
X156343453Y-78407856D01*
X156297696Y-78416410D01*
X156256604Y-78416410D01*
X156210000Y-78421000D01*
X156163396Y-78416410D01*
X156122304Y-78416410D01*
X156076545Y-78407856D01*
X156024469Y-78402727D01*
X155984902Y-78390724D01*
X155949888Y-78384179D01*
X155901389Y-78365390D01*
X155846068Y-78348609D01*
X155814461Y-78331714D01*
X155786343Y-78320822D01*
X155737490Y-78290573D01*
X155681653Y-78260728D01*
X155658188Y-78241471D01*
X155637215Y-78228485D01*
X155590744Y-78186121D01*
X155537541Y-78142459D01*
X155521775Y-78123248D01*
X155507599Y-78110325D01*
X155466439Y-78055821D01*
X155419272Y-77998347D01*
X155410151Y-77981284D01*
X155401900Y-77970357D01*
X155369067Y-77904420D01*
X155331391Y-77833932D01*
X155327372Y-77820685D01*
X155323717Y-77813344D01*
X155302124Y-77737454D01*
X155277273Y-77655531D01*
X155276456Y-77647241D01*
X155275719Y-77644649D01*
X155268046Y-77561854D01*
X155259000Y-77470000D01*
X155268045Y-77378153D01*
X155275719Y-77295350D01*
X155276456Y-77292757D01*
X155277273Y-77284469D01*
X155302119Y-77202560D01*
X155323717Y-77126655D01*
X155327373Y-77119311D01*
X155331391Y-77106068D01*
X155369060Y-77035593D01*
X155401900Y-76969642D01*
X155410153Y-76958712D01*
X155419272Y-76941653D01*
X155466430Y-76884190D01*
X155507599Y-76829674D01*
X155521778Y-76816747D01*
X155537541Y-76797541D01*
X155590733Y-76753887D01*
X155637215Y-76711514D01*
X155658193Y-76698524D01*
X155681653Y-76679272D01*
X155737478Y-76649432D01*
X155786343Y-76619177D01*
X155814467Y-76608281D01*
X155846068Y-76591391D01*
X155901377Y-76574612D01*
X155949888Y-76555820D01*
X155984909Y-76549273D01*
X156024469Y-76537273D01*
X156076542Y-76532144D01*
X156122304Y-76523590D01*
X156163396Y-76523590D01*
X156210000Y-76519000D01*
X156256604Y-76523590D01*
G37*
G36*
X96869517Y-74552882D02*
G01*
X96886062Y-74563938D01*
X96897118Y-74580483D01*
X96901000Y-74600000D01*
X96901000Y-77800000D01*
X96897118Y-77819517D01*
X96886062Y-77836062D01*
X96869517Y-77847118D01*
X96850000Y-77851000D01*
X93650000Y-77851000D01*
X93630483Y-77847118D01*
X93613938Y-77836062D01*
X93602882Y-77819517D01*
X93599000Y-77800000D01*
X93599000Y-74600000D01*
X93602882Y-74580483D01*
X93613938Y-74563938D01*
X93630483Y-74552882D01*
X93650000Y-74549000D01*
X96850000Y-74549000D01*
X96869517Y-74552882D01*
G37*
G36*
X101949517Y-74552882D02*
G01*
X101966062Y-74563938D01*
X101977118Y-74580483D01*
X101981000Y-74600000D01*
X101981000Y-77800000D01*
X101977118Y-77819517D01*
X101966062Y-77836062D01*
X101949517Y-77847118D01*
X101930000Y-77851000D01*
X98730000Y-77851000D01*
X98710483Y-77847118D01*
X98693938Y-77836062D01*
X98682882Y-77819517D01*
X98679000Y-77800000D01*
X98679000Y-74600000D01*
X98682882Y-74580483D01*
X98693938Y-74563938D01*
X98710483Y-74552882D01*
X98730000Y-74549000D01*
X101930000Y-74549000D01*
X101949517Y-74552882D01*
G37*
G36*
X105473098Y-74553966D02*
G01*
X105533353Y-74553966D01*
X105599199Y-74563890D01*
X105668273Y-74569327D01*
X105723947Y-74582693D01*
X105777302Y-74590735D01*
X105847021Y-74612240D01*
X105920187Y-74629806D01*
X105967495Y-74649401D01*
X106013052Y-74663454D01*
X106084569Y-74697895D01*
X106159538Y-74728948D01*
X106198022Y-74752531D01*
X106235322Y-74770494D01*
X106306271Y-74818866D01*
X106380433Y-74864313D01*
X106410127Y-74889674D01*
X106439162Y-74909470D01*
X106506956Y-74972374D01*
X106577433Y-75032567D01*
X106598834Y-75057625D01*
X106620011Y-75077274D01*
X106681925Y-75154911D01*
X106745687Y-75229567D01*
X106759709Y-75252449D01*
X106773830Y-75270156D01*
X106827087Y-75362399D01*
X106881052Y-75450462D01*
X106888977Y-75469597D01*
X106897185Y-75483812D01*
X106939038Y-75590454D01*
X106980194Y-75689813D01*
X106983597Y-75703991D01*
X106987314Y-75713460D01*
X107015157Y-75835446D01*
X107040673Y-75941727D01*
X107041334Y-75950133D01*
X107042214Y-75953986D01*
X107053683Y-76107031D01*
X107061000Y-76200000D01*
X107053682Y-76292975D01*
X107042214Y-76446013D01*
X107041334Y-76449865D01*
X107040673Y-76458273D01*
X107015152Y-76564573D01*
X106987314Y-76686539D01*
X106983598Y-76696005D01*
X106980194Y-76710187D01*
X106939031Y-76809563D01*
X106897185Y-76916187D01*
X106888979Y-76930399D01*
X106881052Y-76949538D01*
X106827077Y-77037616D01*
X106773830Y-77129843D01*
X106759712Y-77147546D01*
X106745687Y-77170433D01*
X106681913Y-77245102D01*
X106620011Y-77322725D01*
X106598838Y-77342369D01*
X106577433Y-77367433D01*
X106506942Y-77427637D01*
X106439162Y-77490529D01*
X106410133Y-77510320D01*
X106380433Y-77535687D01*
X106306257Y-77581142D01*
X106235322Y-77629505D01*
X106198030Y-77647463D01*
X106159538Y-77671052D01*
X106084554Y-77702110D01*
X106013052Y-77736545D01*
X105967504Y-77750594D01*
X105920187Y-77770194D01*
X105847007Y-77787762D01*
X105777302Y-77809264D01*
X105723955Y-77817304D01*
X105668273Y-77830673D01*
X105599195Y-77836109D01*
X105533353Y-77846034D01*
X105473098Y-77846034D01*
X105410000Y-77851000D01*
X105346902Y-77846034D01*
X105286647Y-77846034D01*
X105220803Y-77836109D01*
X105151727Y-77830673D01*
X105096045Y-77817305D01*
X105042697Y-77809264D01*
X104972988Y-77787761D01*
X104899813Y-77770194D01*
X104852498Y-77750595D01*
X104806947Y-77736545D01*
X104735438Y-77702107D01*
X104660462Y-77671052D01*
X104621972Y-77647465D01*
X104584675Y-77629504D01*
X104513726Y-77581131D01*
X104439567Y-77535687D01*
X104409873Y-77510326D01*
X104380839Y-77490531D01*
X104313043Y-77427625D01*
X104242567Y-77367433D01*
X104221164Y-77342374D01*
X104199988Y-77322725D01*
X104138071Y-77245084D01*
X104074313Y-77170433D01*
X104060291Y-77147551D01*
X104046169Y-77129843D01*
X103992905Y-77037588D01*
X103938948Y-76949538D01*
X103931023Y-76930405D01*
X103922814Y-76916187D01*
X103880949Y-76809517D01*
X103839806Y-76710187D01*
X103836402Y-76696012D01*
X103832685Y-76686539D01*
X103804827Y-76564488D01*
X103779327Y-76458273D01*
X103778665Y-76449871D01*
X103777785Y-76446013D01*
X103766296Y-76292710D01*
X103759000Y-76200000D01*
X103766296Y-76107297D01*
X103777785Y-75953986D01*
X103778665Y-75950126D01*
X103779327Y-75941727D01*
X103804822Y-75835530D01*
X103832685Y-75713460D01*
X103836403Y-75703984D01*
X103839806Y-75689813D01*
X103880942Y-75590500D01*
X103922814Y-75483812D01*
X103931024Y-75469590D01*
X103938948Y-75450462D01*
X103992895Y-75362427D01*
X104046169Y-75270156D01*
X104060293Y-75252443D01*
X104074313Y-75229567D01*
X104138059Y-75154929D01*
X104199988Y-75077274D01*
X104221169Y-75057620D01*
X104242567Y-75032567D01*
X104313029Y-74972386D01*
X104380839Y-74909468D01*
X104409879Y-74889668D01*
X104439567Y-74864313D01*
X104513711Y-74818876D01*
X104584675Y-74770495D01*
X104621980Y-74752529D01*
X104660462Y-74728948D01*
X104735423Y-74697898D01*
X104806947Y-74663454D01*
X104852507Y-74649400D01*
X104899813Y-74629806D01*
X104972973Y-74612241D01*
X105042697Y-74590735D01*
X105096054Y-74582692D01*
X105151727Y-74569327D01*
X105220799Y-74563890D01*
X105286647Y-74553966D01*
X105346902Y-74553966D01*
X105410000Y-74549000D01*
X105473098Y-74553966D01*
G37*
G36*
X110553098Y-74553966D02*
G01*
X110613353Y-74553966D01*
X110679199Y-74563890D01*
X110748273Y-74569327D01*
X110803947Y-74582693D01*
X110857302Y-74590735D01*
X110927021Y-74612240D01*
X111000187Y-74629806D01*
X111047495Y-74649401D01*
X111093052Y-74663454D01*
X111164569Y-74697895D01*
X111239538Y-74728948D01*
X111278022Y-74752531D01*
X111315322Y-74770494D01*
X111386271Y-74818866D01*
X111460433Y-74864313D01*
X111490127Y-74889674D01*
X111519162Y-74909470D01*
X111586956Y-74972374D01*
X111657433Y-75032567D01*
X111678834Y-75057625D01*
X111700011Y-75077274D01*
X111761925Y-75154911D01*
X111825687Y-75229567D01*
X111839709Y-75252449D01*
X111853830Y-75270156D01*
X111907087Y-75362399D01*
X111961052Y-75450462D01*
X111968977Y-75469597D01*
X111977185Y-75483812D01*
X112019038Y-75590454D01*
X112060194Y-75689813D01*
X112063597Y-75703991D01*
X112067314Y-75713460D01*
X112095157Y-75835446D01*
X112120673Y-75941727D01*
X112121334Y-75950133D01*
X112122214Y-75953986D01*
X112133683Y-76107031D01*
X112141000Y-76200000D01*
X112133682Y-76292975D01*
X112122214Y-76446013D01*
X112121334Y-76449865D01*
X112120673Y-76458273D01*
X112095152Y-76564573D01*
X112067314Y-76686539D01*
X112063598Y-76696005D01*
X112060194Y-76710187D01*
X112019031Y-76809563D01*
X111977185Y-76916187D01*
X111968979Y-76930399D01*
X111961052Y-76949538D01*
X111907077Y-77037616D01*
X111853830Y-77129843D01*
X111839712Y-77147546D01*
X111825687Y-77170433D01*
X111761913Y-77245102D01*
X111700011Y-77322725D01*
X111678838Y-77342369D01*
X111657433Y-77367433D01*
X111586942Y-77427637D01*
X111519162Y-77490529D01*
X111490133Y-77510320D01*
X111460433Y-77535687D01*
X111386257Y-77581142D01*
X111315322Y-77629505D01*
X111278030Y-77647463D01*
X111239538Y-77671052D01*
X111164554Y-77702110D01*
X111093052Y-77736545D01*
X111047504Y-77750594D01*
X111000187Y-77770194D01*
X110927007Y-77787762D01*
X110857302Y-77809264D01*
X110803955Y-77817304D01*
X110748273Y-77830673D01*
X110679195Y-77836109D01*
X110613353Y-77846034D01*
X110553098Y-77846034D01*
X110490000Y-77851000D01*
X110426902Y-77846034D01*
X110366647Y-77846034D01*
X110300803Y-77836109D01*
X110231727Y-77830673D01*
X110176045Y-77817305D01*
X110122697Y-77809264D01*
X110052988Y-77787761D01*
X109979813Y-77770194D01*
X109932498Y-77750595D01*
X109886947Y-77736545D01*
X109815438Y-77702107D01*
X109740462Y-77671052D01*
X109701972Y-77647465D01*
X109664675Y-77629504D01*
X109593726Y-77581131D01*
X109519567Y-77535687D01*
X109489873Y-77510326D01*
X109460839Y-77490531D01*
X109393043Y-77427625D01*
X109322567Y-77367433D01*
X109301164Y-77342374D01*
X109279988Y-77322725D01*
X109218071Y-77245084D01*
X109154313Y-77170433D01*
X109140291Y-77147551D01*
X109126169Y-77129843D01*
X109072905Y-77037588D01*
X109018948Y-76949538D01*
X109011023Y-76930405D01*
X109002814Y-76916187D01*
X108960949Y-76809517D01*
X108919806Y-76710187D01*
X108916402Y-76696012D01*
X108912685Y-76686539D01*
X108884827Y-76564488D01*
X108859327Y-76458273D01*
X108858665Y-76449871D01*
X108857785Y-76446013D01*
X108846296Y-76292710D01*
X108839000Y-76200000D01*
X108846296Y-76107297D01*
X108857785Y-75953986D01*
X108858665Y-75950126D01*
X108859327Y-75941727D01*
X108884822Y-75835530D01*
X108912685Y-75713460D01*
X108916403Y-75703984D01*
X108919806Y-75689813D01*
X108960942Y-75590500D01*
X109002814Y-75483812D01*
X109011024Y-75469590D01*
X109018948Y-75450462D01*
X109072895Y-75362427D01*
X109126169Y-75270156D01*
X109140293Y-75252443D01*
X109154313Y-75229567D01*
X109218059Y-75154929D01*
X109279988Y-75077274D01*
X109301169Y-75057620D01*
X109322567Y-75032567D01*
X109393029Y-74972386D01*
X109460839Y-74909468D01*
X109489879Y-74889668D01*
X109519567Y-74864313D01*
X109593711Y-74818876D01*
X109664675Y-74770495D01*
X109701980Y-74752529D01*
X109740462Y-74728948D01*
X109815423Y-74697898D01*
X109886947Y-74663454D01*
X109932507Y-74649400D01*
X109979813Y-74629806D01*
X110052973Y-74612241D01*
X110122697Y-74590735D01*
X110176054Y-74582692D01*
X110231727Y-74569327D01*
X110300799Y-74563890D01*
X110366647Y-74553966D01*
X110426902Y-74553966D01*
X110490000Y-74549000D01*
X110553098Y-74553966D01*
G37*
G36*
X115633098Y-74553966D02*
G01*
X115693353Y-74553966D01*
X115759199Y-74563890D01*
X115828273Y-74569327D01*
X115883947Y-74582693D01*
X115937302Y-74590735D01*
X116007021Y-74612240D01*
X116080187Y-74629806D01*
X116127495Y-74649401D01*
X116173052Y-74663454D01*
X116244569Y-74697895D01*
X116319538Y-74728948D01*
X116358022Y-74752531D01*
X116395322Y-74770494D01*
X116466271Y-74818866D01*
X116540433Y-74864313D01*
X116570127Y-74889674D01*
X116599162Y-74909470D01*
X116666956Y-74972374D01*
X116737433Y-75032567D01*
X116758834Y-75057625D01*
X116780011Y-75077274D01*
X116841925Y-75154911D01*
X116905687Y-75229567D01*
X116919709Y-75252449D01*
X116933830Y-75270156D01*
X116987087Y-75362399D01*
X117041052Y-75450462D01*
X117048977Y-75469597D01*
X117057185Y-75483812D01*
X117099038Y-75590454D01*
X117140194Y-75689813D01*
X117143597Y-75703991D01*
X117147314Y-75713460D01*
X117175157Y-75835446D01*
X117200673Y-75941727D01*
X117201334Y-75950133D01*
X117202214Y-75953986D01*
X117213683Y-76107031D01*
X117221000Y-76200000D01*
X117213682Y-76292975D01*
X117202214Y-76446013D01*
X117201334Y-76449865D01*
X117200673Y-76458273D01*
X117175152Y-76564573D01*
X117147314Y-76686539D01*
X117143598Y-76696005D01*
X117140194Y-76710187D01*
X117099031Y-76809563D01*
X117057185Y-76916187D01*
X117048979Y-76930399D01*
X117041052Y-76949538D01*
X116987077Y-77037616D01*
X116933830Y-77129843D01*
X116919712Y-77147546D01*
X116905687Y-77170433D01*
X116841913Y-77245102D01*
X116780011Y-77322725D01*
X116758838Y-77342369D01*
X116737433Y-77367433D01*
X116666942Y-77427637D01*
X116599162Y-77490529D01*
X116570133Y-77510320D01*
X116540433Y-77535687D01*
X116466257Y-77581142D01*
X116395322Y-77629505D01*
X116358030Y-77647463D01*
X116319538Y-77671052D01*
X116244554Y-77702110D01*
X116173052Y-77736545D01*
X116127504Y-77750594D01*
X116080187Y-77770194D01*
X116007007Y-77787762D01*
X115937302Y-77809264D01*
X115883955Y-77817304D01*
X115828273Y-77830673D01*
X115759195Y-77836109D01*
X115693353Y-77846034D01*
X115633098Y-77846034D01*
X115570000Y-77851000D01*
X115506902Y-77846034D01*
X115446647Y-77846034D01*
X115380803Y-77836109D01*
X115311727Y-77830673D01*
X115256045Y-77817305D01*
X115202697Y-77809264D01*
X115132988Y-77787761D01*
X115059813Y-77770194D01*
X115012498Y-77750595D01*
X114966947Y-77736545D01*
X114895438Y-77702107D01*
X114820462Y-77671052D01*
X114781972Y-77647465D01*
X114744675Y-77629504D01*
X114673726Y-77581131D01*
X114599567Y-77535687D01*
X114569873Y-77510326D01*
X114540839Y-77490531D01*
X114473043Y-77427625D01*
X114402567Y-77367433D01*
X114381164Y-77342374D01*
X114359988Y-77322725D01*
X114298071Y-77245084D01*
X114234313Y-77170433D01*
X114220291Y-77147551D01*
X114206169Y-77129843D01*
X114152905Y-77037588D01*
X114098948Y-76949538D01*
X114091023Y-76930405D01*
X114082814Y-76916187D01*
X114040949Y-76809517D01*
X113999806Y-76710187D01*
X113996402Y-76696012D01*
X113992685Y-76686539D01*
X113964827Y-76564488D01*
X113939327Y-76458273D01*
X113938665Y-76449871D01*
X113937785Y-76446013D01*
X113926296Y-76292710D01*
X113919000Y-76200000D01*
X113926296Y-76107297D01*
X113937785Y-75953986D01*
X113938665Y-75950126D01*
X113939327Y-75941727D01*
X113964822Y-75835530D01*
X113992685Y-75713460D01*
X113996403Y-75703984D01*
X113999806Y-75689813D01*
X114040942Y-75590500D01*
X114082814Y-75483812D01*
X114091024Y-75469590D01*
X114098948Y-75450462D01*
X114152895Y-75362427D01*
X114206169Y-75270156D01*
X114220293Y-75252443D01*
X114234313Y-75229567D01*
X114298059Y-75154929D01*
X114359988Y-75077274D01*
X114381169Y-75057620D01*
X114402567Y-75032567D01*
X114473029Y-74972386D01*
X114540839Y-74909468D01*
X114569879Y-74889668D01*
X114599567Y-74864313D01*
X114673711Y-74818876D01*
X114744675Y-74770495D01*
X114781980Y-74752529D01*
X114820462Y-74728948D01*
X114895423Y-74697898D01*
X114966947Y-74663454D01*
X115012507Y-74649400D01*
X115059813Y-74629806D01*
X115132973Y-74612241D01*
X115202697Y-74590735D01*
X115256054Y-74582692D01*
X115311727Y-74569327D01*
X115380799Y-74563890D01*
X115446647Y-74553966D01*
X115506902Y-74553966D01*
X115570000Y-74549000D01*
X115633098Y-74553966D01*
G37*
G36*
X105768913Y-60756995D02*
G01*
X105784725Y-60763976D01*
X105792530Y-60765213D01*
X105825038Y-60781776D01*
X105870105Y-60801676D01*
X105948324Y-60879895D01*
X105968226Y-60924968D01*
X105984786Y-60957469D01*
X105986021Y-60965271D01*
X105993005Y-60981087D01*
X106001000Y-61050002D01*
X106001000Y-64449998D01*
X105993005Y-64518913D01*
X105986021Y-64534729D01*
X105984786Y-64542530D01*
X105968229Y-64575023D01*
X105948324Y-64620105D01*
X105870105Y-64698324D01*
X105825023Y-64718229D01*
X105792530Y-64734786D01*
X105784728Y-64736021D01*
X105768913Y-64743005D01*
X105699998Y-64751000D01*
X102300002Y-64751000D01*
X102231087Y-64743005D01*
X102215271Y-64736021D01*
X102207469Y-64734786D01*
X102174968Y-64718226D01*
X102129895Y-64698324D01*
X102051676Y-64620105D01*
X102031776Y-64575038D01*
X102015213Y-64542530D01*
X102013976Y-64534725D01*
X102006995Y-64518913D01*
X101999000Y-64449998D01*
X101999000Y-61050002D01*
X102006995Y-60981087D01*
X102013976Y-60965275D01*
X102015213Y-60957469D01*
X102031780Y-60924954D01*
X102051676Y-60879895D01*
X102129895Y-60801676D01*
X102174954Y-60781780D01*
X102207469Y-60765213D01*
X102215275Y-60763976D01*
X102231087Y-60756995D01*
X102300002Y-60749000D01*
X105699998Y-60749000D01*
X105768913Y-60756995D01*
G37*
G36*
X113768913Y-60756995D02*
G01*
X113784725Y-60763976D01*
X113792530Y-60765213D01*
X113825038Y-60781776D01*
X113870105Y-60801676D01*
X113948324Y-60879895D01*
X113968226Y-60924968D01*
X113984786Y-60957469D01*
X113986021Y-60965271D01*
X113993005Y-60981087D01*
X114001000Y-61050002D01*
X114001000Y-64449998D01*
X113993005Y-64518913D01*
X113986021Y-64534729D01*
X113984786Y-64542530D01*
X113968229Y-64575023D01*
X113948324Y-64620105D01*
X113870105Y-64698324D01*
X113825023Y-64718229D01*
X113792530Y-64734786D01*
X113784728Y-64736021D01*
X113768913Y-64743005D01*
X113699998Y-64751000D01*
X110300002Y-64751000D01*
X110231087Y-64743005D01*
X110215271Y-64736021D01*
X110207469Y-64734786D01*
X110174968Y-64718226D01*
X110129895Y-64698324D01*
X110051676Y-64620105D01*
X110031776Y-64575038D01*
X110015213Y-64542530D01*
X110013976Y-64534725D01*
X110006995Y-64518913D01*
X109999000Y-64449998D01*
X109999000Y-61050002D01*
X110006995Y-60981087D01*
X110013976Y-60965275D01*
X110015213Y-60957469D01*
X110031780Y-60924954D01*
X110051676Y-60879895D01*
X110129895Y-60801676D01*
X110174954Y-60781780D01*
X110207469Y-60765213D01*
X110215275Y-60763976D01*
X110231087Y-60756995D01*
X110300002Y-60749000D01*
X113699998Y-60749000D01*
X113768913Y-60756995D01*
G37*
G36*
X143768913Y-60756995D02*
G01*
X143784725Y-60763976D01*
X143792530Y-60765213D01*
X143825038Y-60781776D01*
X143870105Y-60801676D01*
X143948324Y-60879895D01*
X143968226Y-60924968D01*
X143984786Y-60957469D01*
X143986021Y-60965271D01*
X143993005Y-60981087D01*
X144001000Y-61050002D01*
X144001000Y-64449998D01*
X143993005Y-64518913D01*
X143986021Y-64534729D01*
X143984786Y-64542530D01*
X143968229Y-64575023D01*
X143948324Y-64620105D01*
X143870105Y-64698324D01*
X143825023Y-64718229D01*
X143792530Y-64734786D01*
X143784728Y-64736021D01*
X143768913Y-64743005D01*
X143699998Y-64751000D01*
X140300002Y-64751000D01*
X140231087Y-64743005D01*
X140215271Y-64736021D01*
X140207469Y-64734786D01*
X140174968Y-64718226D01*
X140129895Y-64698324D01*
X140051676Y-64620105D01*
X140031776Y-64575038D01*
X140015213Y-64542530D01*
X140013976Y-64534725D01*
X140006995Y-64518913D01*
X139999000Y-64449998D01*
X139999000Y-61050002D01*
X140006995Y-60981087D01*
X140013976Y-60965275D01*
X140015213Y-60957469D01*
X140031780Y-60924954D01*
X140051676Y-60879895D01*
X140129895Y-60801676D01*
X140174954Y-60781780D01*
X140207469Y-60765213D01*
X140215275Y-60763976D01*
X140231087Y-60756995D01*
X140300002Y-60749000D01*
X143699998Y-60749000D01*
X143768913Y-60756995D01*
G37*
G36*
X151768913Y-60756995D02*
G01*
X151784725Y-60763976D01*
X151792530Y-60765213D01*
X151825038Y-60781776D01*
X151870105Y-60801676D01*
X151948324Y-60879895D01*
X151968226Y-60924968D01*
X151984786Y-60957469D01*
X151986021Y-60965271D01*
X151993005Y-60981087D01*
X152001000Y-61050002D01*
X152001000Y-64449998D01*
X151993005Y-64518913D01*
X151986021Y-64534729D01*
X151984786Y-64542530D01*
X151968229Y-64575023D01*
X151948324Y-64620105D01*
X151870105Y-64698324D01*
X151825023Y-64718229D01*
X151792530Y-64734786D01*
X151784728Y-64736021D01*
X151768913Y-64743005D01*
X151699998Y-64751000D01*
X148300002Y-64751000D01*
X148231087Y-64743005D01*
X148215271Y-64736021D01*
X148207469Y-64734786D01*
X148174968Y-64718226D01*
X148129895Y-64698324D01*
X148051676Y-64620105D01*
X148031776Y-64575038D01*
X148015213Y-64542530D01*
X148013976Y-64534725D01*
X148006995Y-64518913D01*
X147999000Y-64449998D01*
X147999000Y-61050002D01*
X148006995Y-60981087D01*
X148013976Y-60965275D01*
X148015213Y-60957469D01*
X148031780Y-60924954D01*
X148051676Y-60879895D01*
X148129895Y-60801676D01*
X148174954Y-60781780D01*
X148207469Y-60765213D01*
X148215275Y-60763976D01*
X148231087Y-60756995D01*
X148300002Y-60749000D01*
X151699998Y-60749000D01*
X151768913Y-60756995D01*
G37*
M02*
