G04 #@! TF.GenerationSoftware,KiCad,Pcbnew,8.0.6*
G04 #@! TF.CreationDate,2026-04-11T14:07:19+03:00*
G04 #@! TF.ProjectId,c64-wedge-psu-pcb,6336342d-7765-4646-9765-2d7073752d70,rev?*
G04 #@! TF.SameCoordinates,Original*
G04 #@! TF.FileFunction,Soldermask,Top*
G04 #@! TF.FilePolarity,Negative*
%FSLAX46Y46*%
G04 Gerber Fmt 4.6, Leading zero omitted, Abs format (unit mm)*
G04 Created by KiCad (PCBNEW 8.0.6) date 2026-04-11 14:07:19*
%MOMM*%
%LPD*%
G01*
G04 APERTURE LIST*
G04 APERTURE END LIST*
G36*
X102403199Y-110151662D02*
G01*
X102450954Y-110151662D01*
X102492194Y-110160427D01*
X102527901Y-110163945D01*
X102572759Y-110177552D01*
X102624973Y-110188651D01*
X102658384Y-110203526D01*
X102687435Y-110212339D01*
X102733602Y-110237015D01*
X102787500Y-110261012D01*
X102812554Y-110279215D01*
X102834453Y-110290920D01*
X102879128Y-110327584D01*
X102931430Y-110365584D01*
X102948411Y-110384443D01*
X102963320Y-110396679D01*
X103003387Y-110445501D01*
X103050473Y-110497795D01*
X103060364Y-110514927D01*
X103069079Y-110525546D01*
X103101306Y-110585840D01*
X103139427Y-110651867D01*
X103143813Y-110665368D01*
X103147660Y-110672564D01*
X103168861Y-110742455D01*
X103194404Y-110821067D01*
X103195303Y-110829623D01*
X103196054Y-110832098D01*
X103203371Y-110906389D01*
X103213000Y-110998000D01*
X103203370Y-111089619D01*
X103196054Y-111163901D01*
X103195303Y-111166375D01*
X103194404Y-111174933D01*
X103168856Y-111253558D01*
X103147660Y-111323435D01*
X103143814Y-111330629D01*
X103139427Y-111344133D01*
X103101299Y-111410172D01*
X103069079Y-111470453D01*
X103060366Y-111481069D01*
X103050473Y-111498205D01*
X103003378Y-111550509D01*
X102963320Y-111599320D01*
X102948414Y-111611552D01*
X102931430Y-111630416D01*
X102879118Y-111668423D01*
X102834453Y-111705079D01*
X102812559Y-111716780D01*
X102787500Y-111734988D01*
X102733591Y-111758989D01*
X102687435Y-111783660D01*
X102658391Y-111792470D01*
X102624973Y-111807349D01*
X102572748Y-111818449D01*
X102527901Y-111832054D01*
X102492203Y-111835570D01*
X102450954Y-111844338D01*
X102403188Y-111844338D01*
X102362000Y-111848395D01*
X102320811Y-111844338D01*
X102273046Y-111844338D01*
X102231797Y-111835570D01*
X102196098Y-111832054D01*
X102151248Y-111818448D01*
X102099027Y-111807349D01*
X102065610Y-111792471D01*
X102036564Y-111783660D01*
X101990402Y-111758986D01*
X101936500Y-111734988D01*
X101911443Y-111716783D01*
X101889546Y-111705079D01*
X101844873Y-111668416D01*
X101792570Y-111630416D01*
X101775588Y-111611555D01*
X101760679Y-111599320D01*
X101720610Y-111550496D01*
X101673527Y-111498205D01*
X101663636Y-111481073D01*
X101654920Y-111470453D01*
X101622687Y-111410148D01*
X101584573Y-111344133D01*
X101580186Y-111330634D01*
X101576339Y-111323435D01*
X101555128Y-111253512D01*
X101529596Y-111174933D01*
X101528697Y-111166380D01*
X101527945Y-111163901D01*
X101520613Y-111089467D01*
X101511000Y-110998000D01*
X101520612Y-110906540D01*
X101527945Y-110832098D01*
X101528697Y-110829618D01*
X101529596Y-110821067D01*
X101555123Y-110742502D01*
X101576339Y-110672564D01*
X101580187Y-110665363D01*
X101584573Y-110651867D01*
X101622680Y-110585863D01*
X101654920Y-110525546D01*
X101663638Y-110514923D01*
X101673527Y-110497795D01*
X101720601Y-110445513D01*
X101760679Y-110396679D01*
X101775591Y-110384440D01*
X101792570Y-110365584D01*
X101844862Y-110327591D01*
X101889546Y-110290920D01*
X101911448Y-110279213D01*
X101936500Y-110261012D01*
X101990391Y-110237018D01*
X102036564Y-110212339D01*
X102065617Y-110203525D01*
X102099027Y-110188651D01*
X102151237Y-110177553D01*
X102196098Y-110163945D01*
X102231806Y-110160427D01*
X102273046Y-110151662D01*
X102320801Y-110151662D01*
X102362000Y-110147604D01*
X102403199Y-110151662D01*
G37*
G36*
X110023199Y-110151662D02*
G01*
X110070954Y-110151662D01*
X110112194Y-110160427D01*
X110147901Y-110163945D01*
X110192759Y-110177552D01*
X110244973Y-110188651D01*
X110278384Y-110203526D01*
X110307435Y-110212339D01*
X110353602Y-110237015D01*
X110407500Y-110261012D01*
X110432554Y-110279215D01*
X110454453Y-110290920D01*
X110499128Y-110327584D01*
X110551430Y-110365584D01*
X110568411Y-110384443D01*
X110583320Y-110396679D01*
X110623387Y-110445501D01*
X110670473Y-110497795D01*
X110680364Y-110514927D01*
X110689079Y-110525546D01*
X110721306Y-110585840D01*
X110759427Y-110651867D01*
X110763813Y-110665368D01*
X110767660Y-110672564D01*
X110788861Y-110742455D01*
X110814404Y-110821067D01*
X110815303Y-110829623D01*
X110816054Y-110832098D01*
X110823371Y-110906389D01*
X110833000Y-110998000D01*
X110823370Y-111089619D01*
X110816054Y-111163901D01*
X110815303Y-111166375D01*
X110814404Y-111174933D01*
X110788856Y-111253558D01*
X110767660Y-111323435D01*
X110763814Y-111330629D01*
X110759427Y-111344133D01*
X110721299Y-111410172D01*
X110689079Y-111470453D01*
X110680366Y-111481069D01*
X110670473Y-111498205D01*
X110623378Y-111550509D01*
X110583320Y-111599320D01*
X110568414Y-111611552D01*
X110551430Y-111630416D01*
X110499118Y-111668423D01*
X110454453Y-111705079D01*
X110432559Y-111716780D01*
X110407500Y-111734988D01*
X110353591Y-111758989D01*
X110307435Y-111783660D01*
X110278391Y-111792470D01*
X110244973Y-111807349D01*
X110192748Y-111818449D01*
X110147901Y-111832054D01*
X110112203Y-111835570D01*
X110070954Y-111844338D01*
X110023188Y-111844338D01*
X109982000Y-111848395D01*
X109940811Y-111844338D01*
X109893046Y-111844338D01*
X109851797Y-111835570D01*
X109816098Y-111832054D01*
X109771248Y-111818448D01*
X109719027Y-111807349D01*
X109685610Y-111792471D01*
X109656564Y-111783660D01*
X109610402Y-111758986D01*
X109556500Y-111734988D01*
X109531443Y-111716783D01*
X109509546Y-111705079D01*
X109464873Y-111668416D01*
X109412570Y-111630416D01*
X109395588Y-111611555D01*
X109380679Y-111599320D01*
X109340610Y-111550496D01*
X109293527Y-111498205D01*
X109283636Y-111481073D01*
X109274920Y-111470453D01*
X109242687Y-111410148D01*
X109204573Y-111344133D01*
X109200186Y-111330634D01*
X109196339Y-111323435D01*
X109175128Y-111253512D01*
X109149596Y-111174933D01*
X109148697Y-111166380D01*
X109147945Y-111163901D01*
X109140613Y-111089467D01*
X109131000Y-110998000D01*
X109140612Y-110906540D01*
X109147945Y-110832098D01*
X109148697Y-110829618D01*
X109149596Y-110821067D01*
X109175123Y-110742502D01*
X109196339Y-110672564D01*
X109200187Y-110665363D01*
X109204573Y-110651867D01*
X109242680Y-110585863D01*
X109274920Y-110525546D01*
X109283638Y-110514923D01*
X109293527Y-110497795D01*
X109340601Y-110445513D01*
X109380679Y-110396679D01*
X109395591Y-110384440D01*
X109412570Y-110365584D01*
X109464862Y-110327591D01*
X109509546Y-110290920D01*
X109531448Y-110279213D01*
X109556500Y-110261012D01*
X109610391Y-110237018D01*
X109656564Y-110212339D01*
X109685617Y-110203525D01*
X109719027Y-110188651D01*
X109771237Y-110177553D01*
X109816098Y-110163945D01*
X109851806Y-110160427D01*
X109893046Y-110151662D01*
X109940801Y-110151662D01*
X109982000Y-110147604D01*
X110023199Y-110151662D01*
G37*
G36*
X132089425Y-105609841D02*
G01*
X132347487Y-105665979D01*
X132594933Y-105758271D01*
X132826726Y-105884840D01*
X133038147Y-106043108D01*
X133224892Y-106229853D01*
X133383160Y-106441274D01*
X133509729Y-106673067D01*
X133602021Y-106920513D01*
X133658159Y-107178575D01*
X133677000Y-107442000D01*
X133658159Y-107705425D01*
X133602021Y-107963487D01*
X133509729Y-108210933D01*
X133383160Y-108442726D01*
X133224892Y-108654147D01*
X133038147Y-108840892D01*
X132826726Y-108999160D01*
X132594933Y-109125729D01*
X132347487Y-109218021D01*
X132089425Y-109274159D01*
X131826000Y-109293000D01*
X131562575Y-109274159D01*
X131304513Y-109218021D01*
X131057067Y-109125729D01*
X130825274Y-108999160D01*
X130613853Y-108840892D01*
X130427108Y-108654147D01*
X130268840Y-108442726D01*
X130142271Y-108210933D01*
X130049979Y-107963487D01*
X129993841Y-107705425D01*
X129975000Y-107442000D01*
X129993841Y-107178575D01*
X130049979Y-106920513D01*
X130142271Y-106673067D01*
X130268840Y-106441274D01*
X130427108Y-106229853D01*
X130613853Y-106043108D01*
X130825274Y-105884840D01*
X131057067Y-105758271D01*
X131304513Y-105665979D01*
X131562575Y-105609841D01*
X131826000Y-105591000D01*
X132089425Y-105609841D01*
G37*
G36*
X94783199Y-104563662D02*
G01*
X94830954Y-104563662D01*
X94872194Y-104572427D01*
X94907901Y-104575945D01*
X94952759Y-104589552D01*
X95004973Y-104600651D01*
X95038384Y-104615526D01*
X95067435Y-104624339D01*
X95113602Y-104649015D01*
X95167500Y-104673012D01*
X95192554Y-104691215D01*
X95214453Y-104702920D01*
X95259128Y-104739584D01*
X95311430Y-104777584D01*
X95328411Y-104796443D01*
X95343320Y-104808679D01*
X95383387Y-104857501D01*
X95430473Y-104909795D01*
X95440364Y-104926927D01*
X95449079Y-104937546D01*
X95481306Y-104997840D01*
X95519427Y-105063867D01*
X95523813Y-105077368D01*
X95527660Y-105084564D01*
X95548861Y-105154455D01*
X95574404Y-105233067D01*
X95575303Y-105241623D01*
X95576054Y-105244098D01*
X95583371Y-105318389D01*
X95593000Y-105410000D01*
X95583370Y-105501619D01*
X95576054Y-105575901D01*
X95575303Y-105578375D01*
X95574404Y-105586933D01*
X95548856Y-105665558D01*
X95527660Y-105735435D01*
X95523814Y-105742629D01*
X95519427Y-105756133D01*
X95481299Y-105822172D01*
X95449079Y-105882453D01*
X95440366Y-105893069D01*
X95430473Y-105910205D01*
X95383378Y-105962509D01*
X95343320Y-106011320D01*
X95328414Y-106023552D01*
X95311430Y-106042416D01*
X95259118Y-106080423D01*
X95214453Y-106117079D01*
X95192559Y-106128780D01*
X95167500Y-106146988D01*
X95113591Y-106170989D01*
X95067435Y-106195660D01*
X95038391Y-106204470D01*
X95004973Y-106219349D01*
X94952748Y-106230449D01*
X94907901Y-106244054D01*
X94872203Y-106247570D01*
X94830954Y-106256338D01*
X94783188Y-106256338D01*
X94742000Y-106260395D01*
X94700811Y-106256338D01*
X94653046Y-106256338D01*
X94611797Y-106247570D01*
X94576098Y-106244054D01*
X94531248Y-106230448D01*
X94479027Y-106219349D01*
X94445610Y-106204471D01*
X94416564Y-106195660D01*
X94370402Y-106170986D01*
X94316500Y-106146988D01*
X94291443Y-106128783D01*
X94269546Y-106117079D01*
X94224873Y-106080416D01*
X94172570Y-106042416D01*
X94155588Y-106023555D01*
X94140679Y-106011320D01*
X94100610Y-105962496D01*
X94053527Y-105910205D01*
X94043636Y-105893073D01*
X94034920Y-105882453D01*
X94002687Y-105822148D01*
X93964573Y-105756133D01*
X93960186Y-105742634D01*
X93956339Y-105735435D01*
X93935128Y-105665512D01*
X93909596Y-105586933D01*
X93908697Y-105578380D01*
X93907945Y-105575901D01*
X93900613Y-105501467D01*
X93891000Y-105410000D01*
X93900612Y-105318540D01*
X93907945Y-105244098D01*
X93908697Y-105241618D01*
X93909596Y-105233067D01*
X93935123Y-105154502D01*
X93956339Y-105084564D01*
X93960187Y-105077363D01*
X93964573Y-105063867D01*
X94002680Y-104997863D01*
X94034920Y-104937546D01*
X94043638Y-104926923D01*
X94053527Y-104909795D01*
X94100601Y-104857513D01*
X94140679Y-104808679D01*
X94155591Y-104796440D01*
X94172570Y-104777584D01*
X94224862Y-104739591D01*
X94269546Y-104702920D01*
X94291448Y-104691213D01*
X94316500Y-104673012D01*
X94370391Y-104649018D01*
X94416564Y-104624339D01*
X94445617Y-104615525D01*
X94479027Y-104600651D01*
X94531237Y-104589553D01*
X94576098Y-104575945D01*
X94611806Y-104572427D01*
X94653046Y-104563662D01*
X94700801Y-104563662D01*
X94742000Y-104559604D01*
X94783199Y-104563662D01*
G37*
G36*
X102403199Y-104563662D02*
G01*
X102450954Y-104563662D01*
X102492194Y-104572427D01*
X102527901Y-104575945D01*
X102572759Y-104589552D01*
X102624973Y-104600651D01*
X102658384Y-104615526D01*
X102687435Y-104624339D01*
X102733602Y-104649015D01*
X102787500Y-104673012D01*
X102812554Y-104691215D01*
X102834453Y-104702920D01*
X102879128Y-104739584D01*
X102931430Y-104777584D01*
X102948411Y-104796443D01*
X102963320Y-104808679D01*
X103003387Y-104857501D01*
X103050473Y-104909795D01*
X103060364Y-104926927D01*
X103069079Y-104937546D01*
X103101306Y-104997840D01*
X103139427Y-105063867D01*
X103143813Y-105077368D01*
X103147660Y-105084564D01*
X103168861Y-105154455D01*
X103194404Y-105233067D01*
X103195303Y-105241623D01*
X103196054Y-105244098D01*
X103203371Y-105318389D01*
X103213000Y-105410000D01*
X103203370Y-105501619D01*
X103196054Y-105575901D01*
X103195303Y-105578375D01*
X103194404Y-105586933D01*
X103168856Y-105665558D01*
X103147660Y-105735435D01*
X103143814Y-105742629D01*
X103139427Y-105756133D01*
X103101299Y-105822172D01*
X103069079Y-105882453D01*
X103060366Y-105893069D01*
X103050473Y-105910205D01*
X103003378Y-105962509D01*
X102963320Y-106011320D01*
X102948414Y-106023552D01*
X102931430Y-106042416D01*
X102879118Y-106080423D01*
X102834453Y-106117079D01*
X102812559Y-106128780D01*
X102787500Y-106146988D01*
X102733591Y-106170989D01*
X102687435Y-106195660D01*
X102658391Y-106204470D01*
X102624973Y-106219349D01*
X102572748Y-106230449D01*
X102527901Y-106244054D01*
X102492203Y-106247570D01*
X102450954Y-106256338D01*
X102403188Y-106256338D01*
X102362000Y-106260395D01*
X102320811Y-106256338D01*
X102273046Y-106256338D01*
X102231797Y-106247570D01*
X102196098Y-106244054D01*
X102151248Y-106230448D01*
X102099027Y-106219349D01*
X102065610Y-106204471D01*
X102036564Y-106195660D01*
X101990402Y-106170986D01*
X101936500Y-106146988D01*
X101911443Y-106128783D01*
X101889546Y-106117079D01*
X101844873Y-106080416D01*
X101792570Y-106042416D01*
X101775588Y-106023555D01*
X101760679Y-106011320D01*
X101720610Y-105962496D01*
X101673527Y-105910205D01*
X101663636Y-105893073D01*
X101654920Y-105882453D01*
X101622687Y-105822148D01*
X101584573Y-105756133D01*
X101580186Y-105742634D01*
X101576339Y-105735435D01*
X101555128Y-105665512D01*
X101529596Y-105586933D01*
X101528697Y-105578380D01*
X101527945Y-105575901D01*
X101520613Y-105501467D01*
X101511000Y-105410000D01*
X101520612Y-105318540D01*
X101527945Y-105244098D01*
X101528697Y-105241618D01*
X101529596Y-105233067D01*
X101555123Y-105154502D01*
X101576339Y-105084564D01*
X101580187Y-105077363D01*
X101584573Y-105063867D01*
X101622680Y-104997863D01*
X101654920Y-104937546D01*
X101663638Y-104926923D01*
X101673527Y-104909795D01*
X101720601Y-104857513D01*
X101760679Y-104808679D01*
X101775591Y-104796440D01*
X101792570Y-104777584D01*
X101844862Y-104739591D01*
X101889546Y-104702920D01*
X101911448Y-104691213D01*
X101936500Y-104673012D01*
X101990391Y-104649018D01*
X102036564Y-104624339D01*
X102065617Y-104615525D01*
X102099027Y-104600651D01*
X102151237Y-104589553D01*
X102196098Y-104575945D01*
X102231806Y-104572427D01*
X102273046Y-104563662D01*
X102320801Y-104563662D01*
X102362000Y-104559604D01*
X102403199Y-104563662D01*
G37*
G36*
X147624938Y-101062017D02*
G01*
X147670923Y-101062017D01*
X147722139Y-101071590D01*
X147779040Y-101077195D01*
X147822261Y-101090306D01*
X147861474Y-101097636D01*
X147915785Y-101118676D01*
X147976200Y-101137003D01*
X148010720Y-101155454D01*
X148042232Y-101167662D01*
X148096977Y-101201559D01*
X148157904Y-101234125D01*
X148183506Y-101255136D01*
X148207048Y-101269713D01*
X148259212Y-101317267D01*
X148317169Y-101364831D01*
X148334342Y-101385757D01*
X148350301Y-101400305D01*
X148396629Y-101461653D01*
X148447875Y-101524096D01*
X148457783Y-101542634D01*
X148467122Y-101555000D01*
X148504274Y-101629613D01*
X148544997Y-101705800D01*
X148549340Y-101720117D01*
X148553528Y-101728528D01*
X148578267Y-101815476D01*
X148604805Y-101902960D01*
X148605676Y-101911811D01*
X148606577Y-101914975D01*
X148615938Y-102016002D01*
X148625000Y-102108000D01*
X148615938Y-102200005D01*
X148606577Y-102301024D01*
X148605676Y-102304187D01*
X148604805Y-102313040D01*
X148578262Y-102400538D01*
X148553528Y-102487471D01*
X148549341Y-102495879D01*
X148544997Y-102510200D01*
X148504267Y-102586399D01*
X148467122Y-102660999D01*
X148457785Y-102673362D01*
X148447875Y-102691904D01*
X148396620Y-102754357D01*
X148350301Y-102815694D01*
X148334345Y-102830238D01*
X148317169Y-102851169D01*
X148259201Y-102898741D01*
X148207048Y-102946286D01*
X148183511Y-102960859D01*
X148157904Y-102981875D01*
X148096965Y-103014447D01*
X148042232Y-103048337D01*
X148010726Y-103060542D01*
X147976200Y-103078997D01*
X147915773Y-103097327D01*
X147861474Y-103118363D01*
X147822268Y-103125691D01*
X147779040Y-103138805D01*
X147722136Y-103144409D01*
X147670923Y-103153983D01*
X147624938Y-103153983D01*
X147574000Y-103159000D01*
X147523062Y-103153983D01*
X147477077Y-103153983D01*
X147425863Y-103144409D01*
X147368960Y-103138805D01*
X147325732Y-103125692D01*
X147286525Y-103118363D01*
X147232221Y-103097325D01*
X147171800Y-103078997D01*
X147137275Y-103060543D01*
X147105767Y-103048337D01*
X147051027Y-103014443D01*
X146990096Y-102981875D01*
X146964491Y-102960861D01*
X146940951Y-102946286D01*
X146888788Y-102898733D01*
X146830831Y-102851169D01*
X146813656Y-102830242D01*
X146797698Y-102815694D01*
X146751367Y-102754342D01*
X146700125Y-102691904D01*
X146690216Y-102673366D01*
X146680877Y-102660999D01*
X146643717Y-102586372D01*
X146603003Y-102510200D01*
X146598660Y-102495884D01*
X146594471Y-102487471D01*
X146569721Y-102400485D01*
X146543195Y-102313040D01*
X146542323Y-102304192D01*
X146541422Y-102301024D01*
X146532044Y-102199833D01*
X146523000Y-102108000D01*
X146532044Y-102016173D01*
X146541422Y-101914975D01*
X146542323Y-101911805D01*
X146543195Y-101902960D01*
X146569716Y-101815529D01*
X146594471Y-101728528D01*
X146598661Y-101720112D01*
X146603003Y-101705800D01*
X146643710Y-101629641D01*
X146680877Y-101555000D01*
X146690218Y-101542629D01*
X146700125Y-101524096D01*
X146751357Y-101461668D01*
X146797698Y-101400305D01*
X146813660Y-101385753D01*
X146830831Y-101364831D01*
X146888777Y-101317275D01*
X146940951Y-101269713D01*
X146964496Y-101255134D01*
X146990096Y-101234125D01*
X147051015Y-101201563D01*
X147105767Y-101167662D01*
X147137282Y-101155452D01*
X147171800Y-101137003D01*
X147232209Y-101118677D01*
X147286525Y-101097636D01*
X147325739Y-101090305D01*
X147368960Y-101077195D01*
X147425860Y-101071590D01*
X147477077Y-101062017D01*
X147523062Y-101062017D01*
X147574000Y-101057000D01*
X147624938Y-101062017D01*
G37*
G36*
X152624938Y-101062017D02*
G01*
X152670923Y-101062017D01*
X152722139Y-101071590D01*
X152779040Y-101077195D01*
X152822261Y-101090306D01*
X152861474Y-101097636D01*
X152915785Y-101118676D01*
X152976200Y-101137003D01*
X153010720Y-101155454D01*
X153042232Y-101167662D01*
X153096977Y-101201559D01*
X153157904Y-101234125D01*
X153183506Y-101255136D01*
X153207048Y-101269713D01*
X153259212Y-101317267D01*
X153317169Y-101364831D01*
X153334342Y-101385757D01*
X153350301Y-101400305D01*
X153396629Y-101461653D01*
X153447875Y-101524096D01*
X153457783Y-101542634D01*
X153467122Y-101555000D01*
X153504274Y-101629613D01*
X153544997Y-101705800D01*
X153549340Y-101720117D01*
X153553528Y-101728528D01*
X153578267Y-101815476D01*
X153604805Y-101902960D01*
X153605676Y-101911811D01*
X153606577Y-101914975D01*
X153615938Y-102016002D01*
X153625000Y-102108000D01*
X153615938Y-102200005D01*
X153606577Y-102301024D01*
X153605676Y-102304187D01*
X153604805Y-102313040D01*
X153578262Y-102400538D01*
X153553528Y-102487471D01*
X153549341Y-102495879D01*
X153544997Y-102510200D01*
X153504267Y-102586399D01*
X153467122Y-102660999D01*
X153457785Y-102673362D01*
X153447875Y-102691904D01*
X153396620Y-102754357D01*
X153350301Y-102815694D01*
X153334345Y-102830238D01*
X153317169Y-102851169D01*
X153259201Y-102898741D01*
X153207048Y-102946286D01*
X153183511Y-102960859D01*
X153157904Y-102981875D01*
X153096965Y-103014447D01*
X153042232Y-103048337D01*
X153010726Y-103060542D01*
X152976200Y-103078997D01*
X152915773Y-103097327D01*
X152861474Y-103118363D01*
X152822268Y-103125691D01*
X152779040Y-103138805D01*
X152722136Y-103144409D01*
X152670923Y-103153983D01*
X152624938Y-103153983D01*
X152574000Y-103159000D01*
X152523062Y-103153983D01*
X152477077Y-103153983D01*
X152425863Y-103144409D01*
X152368960Y-103138805D01*
X152325732Y-103125692D01*
X152286525Y-103118363D01*
X152232221Y-103097325D01*
X152171800Y-103078997D01*
X152137275Y-103060543D01*
X152105767Y-103048337D01*
X152051027Y-103014443D01*
X151990096Y-102981875D01*
X151964491Y-102960861D01*
X151940951Y-102946286D01*
X151888788Y-102898733D01*
X151830831Y-102851169D01*
X151813656Y-102830242D01*
X151797698Y-102815694D01*
X151751367Y-102754342D01*
X151700125Y-102691904D01*
X151690216Y-102673366D01*
X151680877Y-102660999D01*
X151643717Y-102586372D01*
X151603003Y-102510200D01*
X151598660Y-102495884D01*
X151594471Y-102487471D01*
X151569721Y-102400485D01*
X151543195Y-102313040D01*
X151542323Y-102304192D01*
X151541422Y-102301024D01*
X151532044Y-102199833D01*
X151523000Y-102108000D01*
X151532044Y-102016173D01*
X151541422Y-101914975D01*
X151542323Y-101911805D01*
X151543195Y-101902960D01*
X151569716Y-101815529D01*
X151594471Y-101728528D01*
X151598661Y-101720112D01*
X151603003Y-101705800D01*
X151643710Y-101629641D01*
X151680877Y-101555000D01*
X151690218Y-101542629D01*
X151700125Y-101524096D01*
X151751357Y-101461668D01*
X151797698Y-101400305D01*
X151813660Y-101385753D01*
X151830831Y-101364831D01*
X151888777Y-101317275D01*
X151940951Y-101269713D01*
X151964496Y-101255134D01*
X151990096Y-101234125D01*
X152051015Y-101201563D01*
X152105767Y-101167662D01*
X152137282Y-101155452D01*
X152171800Y-101137003D01*
X152232209Y-101118677D01*
X152286525Y-101097636D01*
X152325739Y-101090305D01*
X152368960Y-101077195D01*
X152425860Y-101071590D01*
X152477077Y-101062017D01*
X152523062Y-101062017D01*
X152574000Y-101057000D01*
X152624938Y-101062017D01*
G37*
G36*
X157521199Y-100967662D02*
G01*
X157568954Y-100967662D01*
X157610194Y-100976427D01*
X157645901Y-100979945D01*
X157690759Y-100993552D01*
X157742973Y-101004651D01*
X157776384Y-101019526D01*
X157805435Y-101028339D01*
X157851602Y-101053015D01*
X157905500Y-101077012D01*
X157930554Y-101095215D01*
X157952453Y-101106920D01*
X157997128Y-101143584D01*
X158049430Y-101181584D01*
X158066411Y-101200443D01*
X158081320Y-101212679D01*
X158121387Y-101261501D01*
X158168473Y-101313795D01*
X158178364Y-101330927D01*
X158187079Y-101341546D01*
X158219306Y-101401840D01*
X158257427Y-101467867D01*
X158261813Y-101481368D01*
X158265660Y-101488564D01*
X158286861Y-101558455D01*
X158312404Y-101637067D01*
X158313303Y-101645623D01*
X158314054Y-101648098D01*
X158321371Y-101722389D01*
X158331000Y-101814000D01*
X158321370Y-101905619D01*
X158314054Y-101979901D01*
X158313303Y-101982375D01*
X158312404Y-101990933D01*
X158286856Y-102069558D01*
X158265660Y-102139435D01*
X158261814Y-102146629D01*
X158257427Y-102160133D01*
X158219299Y-102226172D01*
X158187079Y-102286453D01*
X158178366Y-102297069D01*
X158168473Y-102314205D01*
X158121378Y-102366509D01*
X158081320Y-102415320D01*
X158066414Y-102427552D01*
X158049430Y-102446416D01*
X157997118Y-102484423D01*
X157952453Y-102521079D01*
X157930559Y-102532780D01*
X157905500Y-102550988D01*
X157851591Y-102574989D01*
X157805435Y-102599660D01*
X157776391Y-102608470D01*
X157742973Y-102623349D01*
X157690748Y-102634449D01*
X157645901Y-102648054D01*
X157610203Y-102651570D01*
X157568954Y-102660338D01*
X157521188Y-102660338D01*
X157480000Y-102664395D01*
X157438811Y-102660338D01*
X157391046Y-102660338D01*
X157349797Y-102651570D01*
X157314098Y-102648054D01*
X157269248Y-102634448D01*
X157217027Y-102623349D01*
X157183610Y-102608471D01*
X157154564Y-102599660D01*
X157108402Y-102574986D01*
X157054500Y-102550988D01*
X157029443Y-102532783D01*
X157007546Y-102521079D01*
X156962873Y-102484416D01*
X156910570Y-102446416D01*
X156893588Y-102427555D01*
X156878679Y-102415320D01*
X156838610Y-102366496D01*
X156791527Y-102314205D01*
X156781636Y-102297073D01*
X156772920Y-102286453D01*
X156740687Y-102226148D01*
X156702573Y-102160133D01*
X156698186Y-102146634D01*
X156694339Y-102139435D01*
X156673128Y-102069512D01*
X156647596Y-101990933D01*
X156646697Y-101982380D01*
X156645945Y-101979901D01*
X156638613Y-101905467D01*
X156629000Y-101814000D01*
X156638612Y-101722540D01*
X156645945Y-101648098D01*
X156646697Y-101645618D01*
X156647596Y-101637067D01*
X156673123Y-101558502D01*
X156694339Y-101488564D01*
X156698187Y-101481363D01*
X156702573Y-101467867D01*
X156740680Y-101401863D01*
X156772920Y-101341546D01*
X156781638Y-101330923D01*
X156791527Y-101313795D01*
X156838601Y-101261513D01*
X156878679Y-101212679D01*
X156893591Y-101200440D01*
X156910570Y-101181584D01*
X156962862Y-101143591D01*
X157007546Y-101106920D01*
X157029448Y-101095213D01*
X157054500Y-101077012D01*
X157108391Y-101053018D01*
X157154564Y-101028339D01*
X157183617Y-101019525D01*
X157217027Y-101004651D01*
X157269237Y-100993553D01*
X157314098Y-100979945D01*
X157349806Y-100976427D01*
X157391046Y-100967662D01*
X157438801Y-100967662D01*
X157480000Y-100963604D01*
X157521199Y-100967662D01*
G37*
G36*
X98615098Y-98937966D02*
G01*
X98675353Y-98937966D01*
X98741199Y-98947890D01*
X98810273Y-98953327D01*
X98865947Y-98966693D01*
X98919302Y-98974735D01*
X98989021Y-98996240D01*
X99062187Y-99013806D01*
X99109495Y-99033401D01*
X99155052Y-99047454D01*
X99226569Y-99081895D01*
X99301538Y-99112948D01*
X99340022Y-99136531D01*
X99377322Y-99154494D01*
X99448271Y-99202866D01*
X99522433Y-99248313D01*
X99552127Y-99273674D01*
X99581162Y-99293470D01*
X99648956Y-99356374D01*
X99719433Y-99416567D01*
X99740834Y-99441625D01*
X99762011Y-99461274D01*
X99823925Y-99538911D01*
X99887687Y-99613567D01*
X99901709Y-99636449D01*
X99915830Y-99654156D01*
X99969087Y-99746399D01*
X100023052Y-99834462D01*
X100030977Y-99853597D01*
X100039185Y-99867812D01*
X100081038Y-99974454D01*
X100122194Y-100073813D01*
X100125597Y-100087991D01*
X100129314Y-100097460D01*
X100157157Y-100219446D01*
X100182673Y-100325727D01*
X100183334Y-100334133D01*
X100184214Y-100337986D01*
X100195683Y-100491031D01*
X100203000Y-100584000D01*
X100195682Y-100676975D01*
X100184214Y-100830013D01*
X100183334Y-100833865D01*
X100182673Y-100842273D01*
X100157152Y-100948573D01*
X100129314Y-101070539D01*
X100125598Y-101080005D01*
X100122194Y-101094187D01*
X100081031Y-101193563D01*
X100039185Y-101300187D01*
X100030979Y-101314399D01*
X100023052Y-101333538D01*
X99969077Y-101421616D01*
X99915830Y-101513843D01*
X99901712Y-101531546D01*
X99887687Y-101554433D01*
X99823913Y-101629102D01*
X99762011Y-101706725D01*
X99740838Y-101726369D01*
X99719433Y-101751433D01*
X99648942Y-101811637D01*
X99581162Y-101874529D01*
X99552133Y-101894320D01*
X99522433Y-101919687D01*
X99448257Y-101965142D01*
X99377322Y-102013505D01*
X99340030Y-102031463D01*
X99301538Y-102055052D01*
X99226554Y-102086110D01*
X99155052Y-102120545D01*
X99109504Y-102134594D01*
X99062187Y-102154194D01*
X98989007Y-102171762D01*
X98919302Y-102193264D01*
X98865955Y-102201304D01*
X98810273Y-102214673D01*
X98741195Y-102220109D01*
X98675353Y-102230034D01*
X98615098Y-102230034D01*
X98552000Y-102235000D01*
X98488902Y-102230034D01*
X98428647Y-102230034D01*
X98362803Y-102220109D01*
X98293727Y-102214673D01*
X98238045Y-102201305D01*
X98184697Y-102193264D01*
X98114988Y-102171761D01*
X98041813Y-102154194D01*
X97994498Y-102134595D01*
X97948947Y-102120545D01*
X97877438Y-102086107D01*
X97802462Y-102055052D01*
X97763972Y-102031465D01*
X97726675Y-102013504D01*
X97655726Y-101965131D01*
X97581567Y-101919687D01*
X97551873Y-101894326D01*
X97522839Y-101874531D01*
X97455043Y-101811625D01*
X97384567Y-101751433D01*
X97363164Y-101726374D01*
X97341988Y-101706725D01*
X97280071Y-101629084D01*
X97216313Y-101554433D01*
X97202291Y-101531551D01*
X97188169Y-101513843D01*
X97134905Y-101421588D01*
X97080948Y-101333538D01*
X97073023Y-101314405D01*
X97064814Y-101300187D01*
X97022949Y-101193517D01*
X96981806Y-101094187D01*
X96978402Y-101080012D01*
X96974685Y-101070539D01*
X96946827Y-100948488D01*
X96921327Y-100842273D01*
X96920665Y-100833871D01*
X96919785Y-100830013D01*
X96908296Y-100676710D01*
X96901000Y-100584000D01*
X96908296Y-100491297D01*
X96919785Y-100337986D01*
X96920665Y-100334126D01*
X96921327Y-100325727D01*
X96946822Y-100219530D01*
X96974685Y-100097460D01*
X96978403Y-100087984D01*
X96981806Y-100073813D01*
X97022942Y-99974500D01*
X97064814Y-99867812D01*
X97073024Y-99853590D01*
X97080948Y-99834462D01*
X97134895Y-99746427D01*
X97188169Y-99654156D01*
X97202293Y-99636443D01*
X97216313Y-99613567D01*
X97280059Y-99538929D01*
X97341988Y-99461274D01*
X97363169Y-99441620D01*
X97384567Y-99416567D01*
X97455029Y-99356386D01*
X97522839Y-99293468D01*
X97551879Y-99273668D01*
X97581567Y-99248313D01*
X97655711Y-99202876D01*
X97726675Y-99154495D01*
X97763980Y-99136529D01*
X97802462Y-99112948D01*
X97877423Y-99081898D01*
X97948947Y-99047454D01*
X97994507Y-99033400D01*
X98041813Y-99013806D01*
X98114973Y-98996241D01*
X98184697Y-98974735D01*
X98238054Y-98966692D01*
X98293727Y-98953327D01*
X98362799Y-98947890D01*
X98428647Y-98937966D01*
X98488902Y-98937966D01*
X98552000Y-98933000D01*
X98615098Y-98937966D01*
G37*
G36*
X112871517Y-98936882D02*
G01*
X112888062Y-98947938D01*
X112899118Y-98964483D01*
X112903000Y-98984000D01*
X112903000Y-102184000D01*
X112899118Y-102203517D01*
X112888062Y-102220062D01*
X112871517Y-102231118D01*
X112852000Y-102235000D01*
X109652000Y-102235000D01*
X109632483Y-102231118D01*
X109615938Y-102220062D01*
X109604882Y-102203517D01*
X109601000Y-102184000D01*
X109601000Y-98984000D01*
X109604882Y-98964483D01*
X109615938Y-98947938D01*
X109632483Y-98936882D01*
X109652000Y-98933000D01*
X112852000Y-98933000D01*
X112871517Y-98936882D01*
G37*
G36*
X157521199Y-98467662D02*
G01*
X157568954Y-98467662D01*
X157610194Y-98476427D01*
X157645901Y-98479945D01*
X157690759Y-98493552D01*
X157742973Y-98504651D01*
X157776384Y-98519526D01*
X157805435Y-98528339D01*
X157851602Y-98553015D01*
X157905500Y-98577012D01*
X157930554Y-98595215D01*
X157952453Y-98606920D01*
X157997128Y-98643584D01*
X158049430Y-98681584D01*
X158066411Y-98700443D01*
X158081320Y-98712679D01*
X158121387Y-98761501D01*
X158168473Y-98813795D01*
X158178364Y-98830927D01*
X158187079Y-98841546D01*
X158219306Y-98901840D01*
X158257427Y-98967867D01*
X158261813Y-98981368D01*
X158265660Y-98988564D01*
X158286861Y-99058455D01*
X158312404Y-99137067D01*
X158313303Y-99145623D01*
X158314054Y-99148098D01*
X158321371Y-99222389D01*
X158331000Y-99314000D01*
X158321370Y-99405619D01*
X158314054Y-99479901D01*
X158313303Y-99482375D01*
X158312404Y-99490933D01*
X158286856Y-99569558D01*
X158265660Y-99639435D01*
X158261814Y-99646629D01*
X158257427Y-99660133D01*
X158219299Y-99726172D01*
X158187079Y-99786453D01*
X158178366Y-99797069D01*
X158168473Y-99814205D01*
X158121378Y-99866509D01*
X158081320Y-99915320D01*
X158066414Y-99927552D01*
X158049430Y-99946416D01*
X157997118Y-99984423D01*
X157952453Y-100021079D01*
X157930559Y-100032780D01*
X157905500Y-100050988D01*
X157851591Y-100074989D01*
X157805435Y-100099660D01*
X157776391Y-100108470D01*
X157742973Y-100123349D01*
X157690748Y-100134449D01*
X157645901Y-100148054D01*
X157610203Y-100151570D01*
X157568954Y-100160338D01*
X157521188Y-100160338D01*
X157480000Y-100164395D01*
X157438811Y-100160338D01*
X157391046Y-100160338D01*
X157349797Y-100151570D01*
X157314098Y-100148054D01*
X157269248Y-100134448D01*
X157217027Y-100123349D01*
X157183610Y-100108471D01*
X157154564Y-100099660D01*
X157108402Y-100074986D01*
X157054500Y-100050988D01*
X157029443Y-100032783D01*
X157007546Y-100021079D01*
X156962873Y-99984416D01*
X156910570Y-99946416D01*
X156893588Y-99927555D01*
X156878679Y-99915320D01*
X156838610Y-99866496D01*
X156791527Y-99814205D01*
X156781636Y-99797073D01*
X156772920Y-99786453D01*
X156740687Y-99726148D01*
X156702573Y-99660133D01*
X156698186Y-99646634D01*
X156694339Y-99639435D01*
X156673128Y-99569512D01*
X156647596Y-99490933D01*
X156646697Y-99482380D01*
X156645945Y-99479901D01*
X156638613Y-99405467D01*
X156629000Y-99314000D01*
X156638612Y-99222540D01*
X156645945Y-99148098D01*
X156646697Y-99145618D01*
X156647596Y-99137067D01*
X156673123Y-99058502D01*
X156694339Y-98988564D01*
X156698187Y-98981363D01*
X156702573Y-98967867D01*
X156740680Y-98901863D01*
X156772920Y-98841546D01*
X156781638Y-98830923D01*
X156791527Y-98813795D01*
X156838601Y-98761513D01*
X156878679Y-98712679D01*
X156893591Y-98700440D01*
X156910570Y-98681584D01*
X156962862Y-98643591D01*
X157007546Y-98606920D01*
X157029448Y-98595213D01*
X157054500Y-98577012D01*
X157108391Y-98553018D01*
X157154564Y-98528339D01*
X157183617Y-98519525D01*
X157217027Y-98504651D01*
X157269237Y-98493553D01*
X157314098Y-98479945D01*
X157349806Y-98476427D01*
X157391046Y-98467662D01*
X157438801Y-98467662D01*
X157480000Y-98463604D01*
X157521199Y-98467662D01*
G37*
G36*
X132089425Y-94169841D02*
G01*
X132347487Y-94225979D01*
X132594933Y-94318271D01*
X132826726Y-94444840D01*
X133038147Y-94603108D01*
X133224892Y-94789853D01*
X133383160Y-95001274D01*
X133509729Y-95233067D01*
X133602021Y-95480513D01*
X133658159Y-95738575D01*
X133677000Y-96002000D01*
X133658159Y-96265425D01*
X133602021Y-96523487D01*
X133509729Y-96770933D01*
X133383160Y-97002726D01*
X133224892Y-97214147D01*
X133038147Y-97400892D01*
X132826726Y-97559160D01*
X132594933Y-97685729D01*
X132347487Y-97778021D01*
X132089425Y-97834159D01*
X131826000Y-97853000D01*
X131562575Y-97834159D01*
X131304513Y-97778021D01*
X131057067Y-97685729D01*
X130825274Y-97559160D01*
X130613853Y-97400892D01*
X130427108Y-97214147D01*
X130268840Y-97002726D01*
X130142271Y-96770933D01*
X130049979Y-96523487D01*
X129993841Y-96265425D01*
X129975000Y-96002000D01*
X129993841Y-95738575D01*
X130049979Y-95480513D01*
X130142271Y-95233067D01*
X130268840Y-95001274D01*
X130427108Y-94789853D01*
X130613853Y-94603108D01*
X130825274Y-94444840D01*
X131057067Y-94318271D01*
X131304513Y-94225979D01*
X131562575Y-94169841D01*
X131826000Y-94151000D01*
X132089425Y-94169841D01*
G37*
G36*
X102994604Y-94955590D02*
G01*
X103035696Y-94955590D01*
X103081456Y-94964144D01*
X103133531Y-94969273D01*
X103173091Y-94981273D01*
X103208111Y-94987820D01*
X103256617Y-95006611D01*
X103311932Y-95023391D01*
X103343534Y-95040282D01*
X103371656Y-95051177D01*
X103420513Y-95081428D01*
X103476347Y-95111272D01*
X103499809Y-95130526D01*
X103520784Y-95143514D01*
X103567256Y-95185879D01*
X103620459Y-95229541D01*
X103636224Y-95248751D01*
X103650400Y-95261674D01*
X103691557Y-95316174D01*
X103738728Y-95373653D01*
X103747848Y-95390717D01*
X103756099Y-95401642D01*
X103788925Y-95467566D01*
X103826609Y-95538068D01*
X103830628Y-95551316D01*
X103834282Y-95558655D01*
X103855864Y-95634507D01*
X103880727Y-95716469D01*
X103881543Y-95724762D01*
X103882280Y-95727350D01*
X103889937Y-95809982D01*
X103899000Y-95902000D01*
X103889936Y-95994026D01*
X103882280Y-96076649D01*
X103881544Y-96079235D01*
X103880727Y-96087531D01*
X103855859Y-96169507D01*
X103834282Y-96245344D01*
X103830628Y-96252680D01*
X103826609Y-96265932D01*
X103788917Y-96336447D01*
X103756099Y-96402357D01*
X103747850Y-96413279D01*
X103738728Y-96430347D01*
X103691547Y-96487836D01*
X103650400Y-96542325D01*
X103636227Y-96555244D01*
X103620459Y-96574459D01*
X103567245Y-96618129D01*
X103520784Y-96660485D01*
X103499814Y-96673469D01*
X103476347Y-96692728D01*
X103420502Y-96722577D01*
X103371656Y-96752822D01*
X103343541Y-96763713D01*
X103311932Y-96780609D01*
X103256605Y-96797392D01*
X103208111Y-96816179D01*
X103173098Y-96822724D01*
X103133531Y-96834727D01*
X103081453Y-96839856D01*
X103035696Y-96848410D01*
X102994604Y-96848410D01*
X102948000Y-96853000D01*
X102901396Y-96848410D01*
X102860304Y-96848410D01*
X102814545Y-96839856D01*
X102762469Y-96834727D01*
X102722902Y-96822724D01*
X102687888Y-96816179D01*
X102639389Y-96797390D01*
X102584068Y-96780609D01*
X102552461Y-96763714D01*
X102524343Y-96752822D01*
X102475490Y-96722573D01*
X102419653Y-96692728D01*
X102396188Y-96673471D01*
X102375215Y-96660485D01*
X102328744Y-96618121D01*
X102275541Y-96574459D01*
X102259775Y-96555248D01*
X102245599Y-96542325D01*
X102204439Y-96487821D01*
X102157272Y-96430347D01*
X102148151Y-96413284D01*
X102139900Y-96402357D01*
X102107067Y-96336420D01*
X102069391Y-96265932D01*
X102065372Y-96252685D01*
X102061717Y-96245344D01*
X102040124Y-96169454D01*
X102015273Y-96087531D01*
X102014456Y-96079241D01*
X102013719Y-96076649D01*
X102006046Y-95993854D01*
X101997000Y-95902000D01*
X102006045Y-95810153D01*
X102013719Y-95727350D01*
X102014456Y-95724757D01*
X102015273Y-95716469D01*
X102040119Y-95634560D01*
X102061717Y-95558655D01*
X102065373Y-95551311D01*
X102069391Y-95538068D01*
X102107060Y-95467593D01*
X102139900Y-95401642D01*
X102148153Y-95390712D01*
X102157272Y-95373653D01*
X102204430Y-95316190D01*
X102245599Y-95261674D01*
X102259778Y-95248747D01*
X102275541Y-95229541D01*
X102328733Y-95185887D01*
X102375215Y-95143514D01*
X102396193Y-95130524D01*
X102419653Y-95111272D01*
X102475478Y-95081432D01*
X102524343Y-95051177D01*
X102552467Y-95040281D01*
X102584068Y-95023391D01*
X102639377Y-95006612D01*
X102687888Y-94987820D01*
X102722909Y-94981273D01*
X102762469Y-94969273D01*
X102814542Y-94964144D01*
X102860304Y-94955590D01*
X102901396Y-94955590D01*
X102948000Y-94951000D01*
X102994604Y-94955590D01*
G37*
G36*
X106394604Y-94955590D02*
G01*
X106435696Y-94955590D01*
X106481456Y-94964144D01*
X106533531Y-94969273D01*
X106573091Y-94981273D01*
X106608111Y-94987820D01*
X106656617Y-95006611D01*
X106711932Y-95023391D01*
X106743534Y-95040282D01*
X106771656Y-95051177D01*
X106820513Y-95081428D01*
X106876347Y-95111272D01*
X106899809Y-95130526D01*
X106920784Y-95143514D01*
X106967256Y-95185879D01*
X107020459Y-95229541D01*
X107036224Y-95248751D01*
X107050400Y-95261674D01*
X107091557Y-95316174D01*
X107138728Y-95373653D01*
X107147848Y-95390717D01*
X107156099Y-95401642D01*
X107188925Y-95467566D01*
X107226609Y-95538068D01*
X107230628Y-95551316D01*
X107234282Y-95558655D01*
X107255864Y-95634507D01*
X107280727Y-95716469D01*
X107281543Y-95724762D01*
X107282280Y-95727350D01*
X107289937Y-95809982D01*
X107299000Y-95902000D01*
X107289936Y-95994026D01*
X107282280Y-96076649D01*
X107281544Y-96079235D01*
X107280727Y-96087531D01*
X107255859Y-96169507D01*
X107234282Y-96245344D01*
X107230628Y-96252680D01*
X107226609Y-96265932D01*
X107188917Y-96336447D01*
X107156099Y-96402357D01*
X107147850Y-96413279D01*
X107138728Y-96430347D01*
X107091547Y-96487836D01*
X107050400Y-96542325D01*
X107036227Y-96555244D01*
X107020459Y-96574459D01*
X106967245Y-96618129D01*
X106920784Y-96660485D01*
X106899814Y-96673469D01*
X106876347Y-96692728D01*
X106820502Y-96722577D01*
X106771656Y-96752822D01*
X106743541Y-96763713D01*
X106711932Y-96780609D01*
X106656605Y-96797392D01*
X106608111Y-96816179D01*
X106573098Y-96822724D01*
X106533531Y-96834727D01*
X106481453Y-96839856D01*
X106435696Y-96848410D01*
X106394604Y-96848410D01*
X106348000Y-96853000D01*
X106301396Y-96848410D01*
X106260304Y-96848410D01*
X106214545Y-96839856D01*
X106162469Y-96834727D01*
X106122902Y-96822724D01*
X106087888Y-96816179D01*
X106039389Y-96797390D01*
X105984068Y-96780609D01*
X105952461Y-96763714D01*
X105924343Y-96752822D01*
X105875490Y-96722573D01*
X105819653Y-96692728D01*
X105796188Y-96673471D01*
X105775215Y-96660485D01*
X105728744Y-96618121D01*
X105675541Y-96574459D01*
X105659775Y-96555248D01*
X105645599Y-96542325D01*
X105604439Y-96487821D01*
X105557272Y-96430347D01*
X105548151Y-96413284D01*
X105539900Y-96402357D01*
X105507067Y-96336420D01*
X105469391Y-96265932D01*
X105465372Y-96252685D01*
X105461717Y-96245344D01*
X105440124Y-96169454D01*
X105415273Y-96087531D01*
X105414456Y-96079241D01*
X105413719Y-96076649D01*
X105406046Y-95993854D01*
X105397000Y-95902000D01*
X105406045Y-95810153D01*
X105413719Y-95727350D01*
X105414456Y-95724757D01*
X105415273Y-95716469D01*
X105440119Y-95634560D01*
X105461717Y-95558655D01*
X105465373Y-95551311D01*
X105469391Y-95538068D01*
X105507060Y-95467593D01*
X105539900Y-95401642D01*
X105548153Y-95390712D01*
X105557272Y-95373653D01*
X105604430Y-95316190D01*
X105645599Y-95261674D01*
X105659778Y-95248747D01*
X105675541Y-95229541D01*
X105728733Y-95185887D01*
X105775215Y-95143514D01*
X105796193Y-95130524D01*
X105819653Y-95111272D01*
X105875478Y-95081432D01*
X105924343Y-95051177D01*
X105952467Y-95040281D01*
X105984068Y-95023391D01*
X106039377Y-95006612D01*
X106087888Y-94987820D01*
X106122909Y-94981273D01*
X106162469Y-94969273D01*
X106214542Y-94964144D01*
X106260304Y-94955590D01*
X106301396Y-94955590D01*
X106348000Y-94951000D01*
X106394604Y-94955590D01*
G37*
G36*
X156267517Y-94402882D02*
G01*
X156284062Y-94413938D01*
X156295118Y-94430483D01*
X156299000Y-94450000D01*
X156299000Y-96050000D01*
X156295118Y-96069517D01*
X156284062Y-96086062D01*
X156267517Y-96097118D01*
X156248000Y-96101000D01*
X154648000Y-96101000D01*
X154628483Y-96097118D01*
X154611938Y-96086062D01*
X154600882Y-96069517D01*
X154597000Y-96050000D01*
X154597000Y-94450000D01*
X154600882Y-94430483D01*
X154611938Y-94413938D01*
X154628483Y-94402882D01*
X154648000Y-94399000D01*
X156248000Y-94399000D01*
X156267517Y-94402882D01*
G37*
G36*
X120691199Y-92077662D02*
G01*
X120738954Y-92077662D01*
X120780194Y-92086427D01*
X120815901Y-92089945D01*
X120860759Y-92103552D01*
X120912973Y-92114651D01*
X120946384Y-92129526D01*
X120975435Y-92138339D01*
X121021602Y-92163015D01*
X121075500Y-92187012D01*
X121100554Y-92205215D01*
X121122453Y-92216920D01*
X121167128Y-92253584D01*
X121219430Y-92291584D01*
X121236411Y-92310443D01*
X121251320Y-92322679D01*
X121291387Y-92371501D01*
X121338473Y-92423795D01*
X121348364Y-92440927D01*
X121357079Y-92451546D01*
X121389306Y-92511840D01*
X121427427Y-92577867D01*
X121431813Y-92591368D01*
X121435660Y-92598564D01*
X121456861Y-92668455D01*
X121482404Y-92747067D01*
X121483303Y-92755623D01*
X121484054Y-92758098D01*
X121491371Y-92832389D01*
X121501000Y-92924000D01*
X121491370Y-93015619D01*
X121484054Y-93089901D01*
X121483303Y-93092375D01*
X121482404Y-93100933D01*
X121456856Y-93179558D01*
X121435660Y-93249435D01*
X121431814Y-93256629D01*
X121427427Y-93270133D01*
X121389299Y-93336172D01*
X121357079Y-93396453D01*
X121348366Y-93407069D01*
X121338473Y-93424205D01*
X121291378Y-93476509D01*
X121251320Y-93525320D01*
X121236414Y-93537552D01*
X121219430Y-93556416D01*
X121167118Y-93594423D01*
X121122453Y-93631079D01*
X121100559Y-93642780D01*
X121075500Y-93660988D01*
X121021591Y-93684989D01*
X120975435Y-93709660D01*
X120946391Y-93718470D01*
X120912973Y-93733349D01*
X120860748Y-93744449D01*
X120815901Y-93758054D01*
X120780203Y-93761570D01*
X120738954Y-93770338D01*
X120691188Y-93770338D01*
X120650000Y-93774395D01*
X120608811Y-93770338D01*
X120561046Y-93770338D01*
X120519797Y-93761570D01*
X120484098Y-93758054D01*
X120439248Y-93744448D01*
X120387027Y-93733349D01*
X120353610Y-93718471D01*
X120324564Y-93709660D01*
X120278402Y-93684986D01*
X120224500Y-93660988D01*
X120199443Y-93642783D01*
X120177546Y-93631079D01*
X120132873Y-93594416D01*
X120080570Y-93556416D01*
X120063588Y-93537555D01*
X120048679Y-93525320D01*
X120008610Y-93476496D01*
X119961527Y-93424205D01*
X119951636Y-93407073D01*
X119942920Y-93396453D01*
X119910687Y-93336148D01*
X119872573Y-93270133D01*
X119868186Y-93256634D01*
X119864339Y-93249435D01*
X119843128Y-93179512D01*
X119817596Y-93100933D01*
X119816697Y-93092380D01*
X119815945Y-93089901D01*
X119808613Y-93015467D01*
X119799000Y-92924000D01*
X119808612Y-92832540D01*
X119815945Y-92758098D01*
X119816697Y-92755618D01*
X119817596Y-92747067D01*
X119843123Y-92668502D01*
X119864339Y-92598564D01*
X119868187Y-92591363D01*
X119872573Y-92577867D01*
X119910680Y-92511863D01*
X119942920Y-92451546D01*
X119951638Y-92440923D01*
X119961527Y-92423795D01*
X120008601Y-92371513D01*
X120048679Y-92322679D01*
X120063591Y-92310440D01*
X120080570Y-92291584D01*
X120132862Y-92253591D01*
X120177546Y-92216920D01*
X120199448Y-92205213D01*
X120224500Y-92187012D01*
X120278391Y-92163018D01*
X120324564Y-92138339D01*
X120353617Y-92129525D01*
X120387027Y-92114651D01*
X120439237Y-92103553D01*
X120484098Y-92089945D01*
X120519806Y-92086427D01*
X120561046Y-92077662D01*
X120608801Y-92077662D01*
X120650000Y-92073604D01*
X120691199Y-92077662D01*
G37*
G36*
X101294604Y-91255590D02*
G01*
X101335696Y-91255590D01*
X101381456Y-91264144D01*
X101433531Y-91269273D01*
X101473091Y-91281273D01*
X101508111Y-91287820D01*
X101556617Y-91306611D01*
X101611932Y-91323391D01*
X101643534Y-91340282D01*
X101671656Y-91351177D01*
X101720513Y-91381428D01*
X101776347Y-91411272D01*
X101799809Y-91430526D01*
X101820784Y-91443514D01*
X101867256Y-91485879D01*
X101920459Y-91529541D01*
X101936224Y-91548751D01*
X101950400Y-91561674D01*
X101991557Y-91616174D01*
X102038728Y-91673653D01*
X102047848Y-91690717D01*
X102056099Y-91701642D01*
X102088925Y-91767566D01*
X102126609Y-91838068D01*
X102130628Y-91851316D01*
X102134282Y-91858655D01*
X102155864Y-91934507D01*
X102180727Y-92016469D01*
X102181543Y-92024762D01*
X102182280Y-92027350D01*
X102189937Y-92109982D01*
X102199000Y-92202000D01*
X102189936Y-92294026D01*
X102182280Y-92376649D01*
X102181544Y-92379235D01*
X102180727Y-92387531D01*
X102155859Y-92469507D01*
X102134282Y-92545344D01*
X102130628Y-92552680D01*
X102126609Y-92565932D01*
X102088917Y-92636447D01*
X102056099Y-92702357D01*
X102047850Y-92713279D01*
X102038728Y-92730347D01*
X101991547Y-92787836D01*
X101950400Y-92842325D01*
X101936227Y-92855244D01*
X101920459Y-92874459D01*
X101867245Y-92918129D01*
X101820784Y-92960485D01*
X101799814Y-92973469D01*
X101776347Y-92992728D01*
X101720502Y-93022577D01*
X101671656Y-93052822D01*
X101643541Y-93063713D01*
X101611932Y-93080609D01*
X101556605Y-93097392D01*
X101508111Y-93116179D01*
X101473098Y-93122724D01*
X101433531Y-93134727D01*
X101381453Y-93139856D01*
X101335696Y-93148410D01*
X101294604Y-93148410D01*
X101248000Y-93153000D01*
X101201396Y-93148410D01*
X101160304Y-93148410D01*
X101114545Y-93139856D01*
X101062469Y-93134727D01*
X101022902Y-93122724D01*
X100987888Y-93116179D01*
X100939389Y-93097390D01*
X100884068Y-93080609D01*
X100852461Y-93063714D01*
X100824343Y-93052822D01*
X100775490Y-93022573D01*
X100719653Y-92992728D01*
X100696188Y-92973471D01*
X100675215Y-92960485D01*
X100628744Y-92918121D01*
X100575541Y-92874459D01*
X100559775Y-92855248D01*
X100545599Y-92842325D01*
X100504439Y-92787821D01*
X100457272Y-92730347D01*
X100448151Y-92713284D01*
X100439900Y-92702357D01*
X100407067Y-92636420D01*
X100369391Y-92565932D01*
X100365372Y-92552685D01*
X100361717Y-92545344D01*
X100340124Y-92469454D01*
X100315273Y-92387531D01*
X100314456Y-92379241D01*
X100313719Y-92376649D01*
X100306046Y-92293854D01*
X100297000Y-92202000D01*
X100306045Y-92110153D01*
X100313719Y-92027350D01*
X100314456Y-92024757D01*
X100315273Y-92016469D01*
X100340119Y-91934560D01*
X100361717Y-91858655D01*
X100365373Y-91851311D01*
X100369391Y-91838068D01*
X100407060Y-91767593D01*
X100439900Y-91701642D01*
X100448153Y-91690712D01*
X100457272Y-91673653D01*
X100504430Y-91616190D01*
X100545599Y-91561674D01*
X100559778Y-91548747D01*
X100575541Y-91529541D01*
X100628733Y-91485887D01*
X100675215Y-91443514D01*
X100696193Y-91430524D01*
X100719653Y-91411272D01*
X100775478Y-91381432D01*
X100824343Y-91351177D01*
X100852467Y-91340281D01*
X100884068Y-91323391D01*
X100939377Y-91306612D01*
X100987888Y-91287820D01*
X101022909Y-91281273D01*
X101062469Y-91269273D01*
X101114542Y-91264144D01*
X101160304Y-91255590D01*
X101201396Y-91255590D01*
X101248000Y-91251000D01*
X101294604Y-91255590D01*
G37*
G36*
X104694604Y-91255590D02*
G01*
X104735696Y-91255590D01*
X104781456Y-91264144D01*
X104833531Y-91269273D01*
X104873091Y-91281273D01*
X104908111Y-91287820D01*
X104956617Y-91306611D01*
X105011932Y-91323391D01*
X105043534Y-91340282D01*
X105071656Y-91351177D01*
X105120513Y-91381428D01*
X105176347Y-91411272D01*
X105199809Y-91430526D01*
X105220784Y-91443514D01*
X105267256Y-91485879D01*
X105320459Y-91529541D01*
X105336224Y-91548751D01*
X105350400Y-91561674D01*
X105391557Y-91616174D01*
X105438728Y-91673653D01*
X105447848Y-91690717D01*
X105456099Y-91701642D01*
X105488925Y-91767566D01*
X105526609Y-91838068D01*
X105530628Y-91851316D01*
X105534282Y-91858655D01*
X105555864Y-91934507D01*
X105580727Y-92016469D01*
X105581543Y-92024762D01*
X105582280Y-92027350D01*
X105589937Y-92109982D01*
X105599000Y-92202000D01*
X105589936Y-92294026D01*
X105582280Y-92376649D01*
X105581544Y-92379235D01*
X105580727Y-92387531D01*
X105555859Y-92469507D01*
X105534282Y-92545344D01*
X105530628Y-92552680D01*
X105526609Y-92565932D01*
X105488917Y-92636447D01*
X105456099Y-92702357D01*
X105447850Y-92713279D01*
X105438728Y-92730347D01*
X105391547Y-92787836D01*
X105350400Y-92842325D01*
X105336227Y-92855244D01*
X105320459Y-92874459D01*
X105267245Y-92918129D01*
X105220784Y-92960485D01*
X105199814Y-92973469D01*
X105176347Y-92992728D01*
X105120502Y-93022577D01*
X105071656Y-93052822D01*
X105043541Y-93063713D01*
X105011932Y-93080609D01*
X104956605Y-93097392D01*
X104908111Y-93116179D01*
X104873098Y-93122724D01*
X104833531Y-93134727D01*
X104781453Y-93139856D01*
X104735696Y-93148410D01*
X104694604Y-93148410D01*
X104648000Y-93153000D01*
X104601396Y-93148410D01*
X104560304Y-93148410D01*
X104514545Y-93139856D01*
X104462469Y-93134727D01*
X104422902Y-93122724D01*
X104387888Y-93116179D01*
X104339389Y-93097390D01*
X104284068Y-93080609D01*
X104252461Y-93063714D01*
X104224343Y-93052822D01*
X104175490Y-93022573D01*
X104119653Y-92992728D01*
X104096188Y-92973471D01*
X104075215Y-92960485D01*
X104028744Y-92918121D01*
X103975541Y-92874459D01*
X103959775Y-92855248D01*
X103945599Y-92842325D01*
X103904439Y-92787821D01*
X103857272Y-92730347D01*
X103848151Y-92713284D01*
X103839900Y-92702357D01*
X103807067Y-92636420D01*
X103769391Y-92565932D01*
X103765372Y-92552685D01*
X103761717Y-92545344D01*
X103740124Y-92469454D01*
X103715273Y-92387531D01*
X103714456Y-92379241D01*
X103713719Y-92376649D01*
X103706046Y-92293854D01*
X103697000Y-92202000D01*
X103706045Y-92110153D01*
X103713719Y-92027350D01*
X103714456Y-92024757D01*
X103715273Y-92016469D01*
X103740119Y-91934560D01*
X103761717Y-91858655D01*
X103765373Y-91851311D01*
X103769391Y-91838068D01*
X103807060Y-91767593D01*
X103839900Y-91701642D01*
X103848153Y-91690712D01*
X103857272Y-91673653D01*
X103904430Y-91616190D01*
X103945599Y-91561674D01*
X103959778Y-91548747D01*
X103975541Y-91529541D01*
X104028733Y-91485887D01*
X104075215Y-91443514D01*
X104096193Y-91430524D01*
X104119653Y-91411272D01*
X104175478Y-91381432D01*
X104224343Y-91351177D01*
X104252467Y-91340281D01*
X104284068Y-91323391D01*
X104339377Y-91306612D01*
X104387888Y-91287820D01*
X104422909Y-91281273D01*
X104462469Y-91269273D01*
X104514542Y-91264144D01*
X104560304Y-91255590D01*
X104601396Y-91255590D01*
X104648000Y-91251000D01*
X104694604Y-91255590D01*
G37*
G36*
X108967517Y-91254882D02*
G01*
X108984062Y-91265938D01*
X108995118Y-91282483D01*
X108999000Y-91302000D01*
X108999000Y-93102000D01*
X108995118Y-93121517D01*
X108984062Y-93138062D01*
X108967517Y-93149118D01*
X108948000Y-93153000D01*
X107148000Y-93153000D01*
X107128483Y-93149118D01*
X107111938Y-93138062D01*
X107100882Y-93121517D01*
X107097000Y-93102000D01*
X107097000Y-91302000D01*
X107100882Y-91282483D01*
X107111938Y-91265938D01*
X107128483Y-91254882D01*
X107148000Y-91251000D01*
X108948000Y-91251000D01*
X108967517Y-91254882D01*
G37*
G36*
X155489199Y-90903662D02*
G01*
X155536954Y-90903662D01*
X155578194Y-90912427D01*
X155613901Y-90915945D01*
X155658759Y-90929552D01*
X155710973Y-90940651D01*
X155744384Y-90955526D01*
X155773435Y-90964339D01*
X155819602Y-90989015D01*
X155873500Y-91013012D01*
X155898554Y-91031215D01*
X155920453Y-91042920D01*
X155965128Y-91079584D01*
X156017430Y-91117584D01*
X156034411Y-91136443D01*
X156049320Y-91148679D01*
X156089387Y-91197501D01*
X156136473Y-91249795D01*
X156146364Y-91266927D01*
X156155079Y-91277546D01*
X156187306Y-91337840D01*
X156225427Y-91403867D01*
X156229813Y-91417368D01*
X156233660Y-91424564D01*
X156254861Y-91494455D01*
X156280404Y-91573067D01*
X156281303Y-91581623D01*
X156282054Y-91584098D01*
X156289371Y-91658389D01*
X156299000Y-91750000D01*
X156289370Y-91841619D01*
X156282054Y-91915901D01*
X156281303Y-91918375D01*
X156280404Y-91926933D01*
X156254856Y-92005558D01*
X156233660Y-92075435D01*
X156229814Y-92082629D01*
X156225427Y-92096133D01*
X156187299Y-92162172D01*
X156155079Y-92222453D01*
X156146366Y-92233069D01*
X156136473Y-92250205D01*
X156089378Y-92302509D01*
X156049320Y-92351320D01*
X156034414Y-92363552D01*
X156017430Y-92382416D01*
X155965118Y-92420423D01*
X155920453Y-92457079D01*
X155898559Y-92468780D01*
X155873500Y-92486988D01*
X155819591Y-92510989D01*
X155773435Y-92535660D01*
X155744391Y-92544470D01*
X155710973Y-92559349D01*
X155658748Y-92570449D01*
X155613901Y-92584054D01*
X155578203Y-92587570D01*
X155536954Y-92596338D01*
X155489188Y-92596338D01*
X155448000Y-92600395D01*
X155406811Y-92596338D01*
X155359046Y-92596338D01*
X155317797Y-92587570D01*
X155282098Y-92584054D01*
X155237248Y-92570448D01*
X155185027Y-92559349D01*
X155151610Y-92544471D01*
X155122564Y-92535660D01*
X155076402Y-92510986D01*
X155022500Y-92486988D01*
X154997443Y-92468783D01*
X154975546Y-92457079D01*
X154930873Y-92420416D01*
X154878570Y-92382416D01*
X154861588Y-92363555D01*
X154846679Y-92351320D01*
X154806610Y-92302496D01*
X154759527Y-92250205D01*
X154749636Y-92233073D01*
X154740920Y-92222453D01*
X154708687Y-92162148D01*
X154670573Y-92096133D01*
X154666186Y-92082634D01*
X154662339Y-92075435D01*
X154641128Y-92005512D01*
X154615596Y-91926933D01*
X154614697Y-91918380D01*
X154613945Y-91915901D01*
X154606613Y-91841467D01*
X154597000Y-91750000D01*
X154606612Y-91658540D01*
X154613945Y-91584098D01*
X154614697Y-91581618D01*
X154615596Y-91573067D01*
X154641123Y-91494502D01*
X154662339Y-91424564D01*
X154666187Y-91417363D01*
X154670573Y-91403867D01*
X154708680Y-91337863D01*
X154740920Y-91277546D01*
X154749638Y-91266923D01*
X154759527Y-91249795D01*
X154806601Y-91197513D01*
X154846679Y-91148679D01*
X154861591Y-91136440D01*
X154878570Y-91117584D01*
X154930862Y-91079591D01*
X154975546Y-91042920D01*
X154997448Y-91031213D01*
X155022500Y-91013012D01*
X155076391Y-90989018D01*
X155122564Y-90964339D01*
X155151617Y-90955525D01*
X155185027Y-90940651D01*
X155237237Y-90929553D01*
X155282098Y-90915945D01*
X155317806Y-90912427D01*
X155359046Y-90903662D01*
X155406801Y-90903662D01*
X155448000Y-90899604D01*
X155489199Y-90903662D01*
G37*
G36*
X93535098Y-88269966D02*
G01*
X93595353Y-88269966D01*
X93661199Y-88279890D01*
X93730273Y-88285327D01*
X93785947Y-88298693D01*
X93839302Y-88306735D01*
X93909021Y-88328240D01*
X93982187Y-88345806D01*
X94029495Y-88365401D01*
X94075052Y-88379454D01*
X94146569Y-88413895D01*
X94221538Y-88444948D01*
X94260022Y-88468531D01*
X94297322Y-88486494D01*
X94368271Y-88534866D01*
X94442433Y-88580313D01*
X94472127Y-88605674D01*
X94501162Y-88625470D01*
X94568956Y-88688374D01*
X94639433Y-88748567D01*
X94660834Y-88773625D01*
X94682011Y-88793274D01*
X94743925Y-88870911D01*
X94807687Y-88945567D01*
X94821709Y-88968449D01*
X94835830Y-88986156D01*
X94889087Y-89078399D01*
X94943052Y-89166462D01*
X94950977Y-89185597D01*
X94959185Y-89199812D01*
X95001038Y-89306454D01*
X95042194Y-89405813D01*
X95045597Y-89419991D01*
X95049314Y-89429460D01*
X95077157Y-89551446D01*
X95102673Y-89657727D01*
X95103334Y-89666133D01*
X95104214Y-89669986D01*
X95115683Y-89823031D01*
X95123000Y-89916000D01*
X95115682Y-90008975D01*
X95104214Y-90162013D01*
X95103334Y-90165865D01*
X95102673Y-90174273D01*
X95077152Y-90280573D01*
X95049314Y-90402539D01*
X95045598Y-90412005D01*
X95042194Y-90426187D01*
X95001031Y-90525563D01*
X94959185Y-90632187D01*
X94950979Y-90646399D01*
X94943052Y-90665538D01*
X94889077Y-90753616D01*
X94835830Y-90845843D01*
X94821712Y-90863546D01*
X94807687Y-90886433D01*
X94743913Y-90961102D01*
X94682011Y-91038725D01*
X94660838Y-91058369D01*
X94639433Y-91083433D01*
X94568942Y-91143637D01*
X94501162Y-91206529D01*
X94472133Y-91226320D01*
X94442433Y-91251687D01*
X94368257Y-91297142D01*
X94297322Y-91345505D01*
X94260030Y-91363463D01*
X94221538Y-91387052D01*
X94146554Y-91418110D01*
X94075052Y-91452545D01*
X94029504Y-91466594D01*
X93982187Y-91486194D01*
X93909007Y-91503762D01*
X93839302Y-91525264D01*
X93785955Y-91533304D01*
X93730273Y-91546673D01*
X93661195Y-91552109D01*
X93595353Y-91562034D01*
X93535098Y-91562034D01*
X93472000Y-91567000D01*
X93408902Y-91562034D01*
X93348647Y-91562034D01*
X93282803Y-91552109D01*
X93213727Y-91546673D01*
X93158045Y-91533305D01*
X93104697Y-91525264D01*
X93034988Y-91503761D01*
X92961813Y-91486194D01*
X92914498Y-91466595D01*
X92868947Y-91452545D01*
X92797438Y-91418107D01*
X92722462Y-91387052D01*
X92683972Y-91363465D01*
X92646675Y-91345504D01*
X92575726Y-91297131D01*
X92501567Y-91251687D01*
X92471873Y-91226326D01*
X92442839Y-91206531D01*
X92375043Y-91143625D01*
X92304567Y-91083433D01*
X92283164Y-91058374D01*
X92261988Y-91038725D01*
X92200071Y-90961084D01*
X92136313Y-90886433D01*
X92122291Y-90863551D01*
X92108169Y-90845843D01*
X92054905Y-90753588D01*
X92000948Y-90665538D01*
X91993023Y-90646405D01*
X91984814Y-90632187D01*
X91942949Y-90525517D01*
X91901806Y-90426187D01*
X91898402Y-90412012D01*
X91894685Y-90402539D01*
X91866827Y-90280488D01*
X91841327Y-90174273D01*
X91840665Y-90165871D01*
X91839785Y-90162013D01*
X91828296Y-90008710D01*
X91821000Y-89916000D01*
X91828296Y-89823297D01*
X91839785Y-89669986D01*
X91840665Y-89666126D01*
X91841327Y-89657727D01*
X91866822Y-89551530D01*
X91894685Y-89429460D01*
X91898403Y-89419984D01*
X91901806Y-89405813D01*
X91942942Y-89306500D01*
X91984814Y-89199812D01*
X91993024Y-89185590D01*
X92000948Y-89166462D01*
X92054895Y-89078427D01*
X92108169Y-88986156D01*
X92122293Y-88968443D01*
X92136313Y-88945567D01*
X92200059Y-88870929D01*
X92261988Y-88793274D01*
X92283169Y-88773620D01*
X92304567Y-88748567D01*
X92375029Y-88688386D01*
X92442839Y-88625468D01*
X92471879Y-88605668D01*
X92501567Y-88580313D01*
X92575711Y-88534876D01*
X92646675Y-88486495D01*
X92683980Y-88468529D01*
X92722462Y-88444948D01*
X92797423Y-88413898D01*
X92868947Y-88379454D01*
X92914507Y-88365400D01*
X92961813Y-88345806D01*
X93034973Y-88328241D01*
X93104697Y-88306735D01*
X93158054Y-88298692D01*
X93213727Y-88285327D01*
X93282799Y-88279890D01*
X93348647Y-88269966D01*
X93408902Y-88269966D01*
X93472000Y-88265000D01*
X93535098Y-88269966D01*
G37*
G36*
X117697517Y-88268882D02*
G01*
X117714062Y-88279938D01*
X117725118Y-88296483D01*
X117729000Y-88316000D01*
X117729000Y-91516000D01*
X117725118Y-91535517D01*
X117714062Y-91552062D01*
X117697517Y-91563118D01*
X117678000Y-91567000D01*
X114478000Y-91567000D01*
X114458483Y-91563118D01*
X114441938Y-91552062D01*
X114430882Y-91535517D01*
X114427000Y-91516000D01*
X114427000Y-88316000D01*
X114430882Y-88296483D01*
X114441938Y-88279938D01*
X114458483Y-88268882D01*
X114478000Y-88265000D01*
X117678000Y-88265000D01*
X117697517Y-88268882D01*
G37*
G36*
X137495199Y-89831662D02*
G01*
X137542954Y-89831662D01*
X137584194Y-89840427D01*
X137619901Y-89843945D01*
X137664759Y-89857552D01*
X137716973Y-89868651D01*
X137750384Y-89883526D01*
X137779435Y-89892339D01*
X137825602Y-89917015D01*
X137879500Y-89941012D01*
X137904554Y-89959215D01*
X137926453Y-89970920D01*
X137971128Y-90007584D01*
X138023430Y-90045584D01*
X138040411Y-90064443D01*
X138055320Y-90076679D01*
X138095387Y-90125501D01*
X138142473Y-90177795D01*
X138152364Y-90194927D01*
X138161079Y-90205546D01*
X138193306Y-90265840D01*
X138231427Y-90331867D01*
X138235813Y-90345368D01*
X138239660Y-90352564D01*
X138260861Y-90422455D01*
X138286404Y-90501067D01*
X138287303Y-90509623D01*
X138288054Y-90512098D01*
X138295371Y-90586389D01*
X138305000Y-90678000D01*
X138295370Y-90769619D01*
X138288054Y-90843901D01*
X138287303Y-90846375D01*
X138286404Y-90854933D01*
X138260856Y-90933558D01*
X138239660Y-91003435D01*
X138235814Y-91010629D01*
X138231427Y-91024133D01*
X138193299Y-91090172D01*
X138161079Y-91150453D01*
X138152366Y-91161069D01*
X138142473Y-91178205D01*
X138095378Y-91230509D01*
X138055320Y-91279320D01*
X138040414Y-91291552D01*
X138023430Y-91310416D01*
X137971118Y-91348423D01*
X137926453Y-91385079D01*
X137904559Y-91396780D01*
X137879500Y-91414988D01*
X137825591Y-91438989D01*
X137779435Y-91463660D01*
X137750391Y-91472470D01*
X137716973Y-91487349D01*
X137664748Y-91498449D01*
X137619901Y-91512054D01*
X137584203Y-91515570D01*
X137542954Y-91524338D01*
X137495188Y-91524338D01*
X137454000Y-91528395D01*
X137412811Y-91524338D01*
X137365046Y-91524338D01*
X137323797Y-91515570D01*
X137288098Y-91512054D01*
X137243248Y-91498448D01*
X137191027Y-91487349D01*
X137157610Y-91472471D01*
X137128564Y-91463660D01*
X137082402Y-91438986D01*
X137028500Y-91414988D01*
X137003443Y-91396783D01*
X136981546Y-91385079D01*
X136936873Y-91348416D01*
X136884570Y-91310416D01*
X136867588Y-91291555D01*
X136852679Y-91279320D01*
X136812610Y-91230496D01*
X136765527Y-91178205D01*
X136755636Y-91161073D01*
X136746920Y-91150453D01*
X136714687Y-91090148D01*
X136676573Y-91024133D01*
X136672186Y-91010634D01*
X136668339Y-91003435D01*
X136647128Y-90933512D01*
X136621596Y-90854933D01*
X136620697Y-90846380D01*
X136619945Y-90843901D01*
X136612613Y-90769467D01*
X136603000Y-90678000D01*
X136612612Y-90586540D01*
X136619945Y-90512098D01*
X136620697Y-90509618D01*
X136621596Y-90501067D01*
X136647123Y-90422502D01*
X136668339Y-90352564D01*
X136672187Y-90345363D01*
X136676573Y-90331867D01*
X136714680Y-90265863D01*
X136746920Y-90205546D01*
X136755638Y-90194923D01*
X136765527Y-90177795D01*
X136812601Y-90125513D01*
X136852679Y-90076679D01*
X136867591Y-90064440D01*
X136884570Y-90045584D01*
X136936862Y-90007591D01*
X136981546Y-89970920D01*
X137003448Y-89959213D01*
X137028500Y-89941012D01*
X137082391Y-89917018D01*
X137128564Y-89892339D01*
X137157617Y-89883525D01*
X137191027Y-89868651D01*
X137243237Y-89857553D01*
X137288098Y-89843945D01*
X137323806Y-89840427D01*
X137365046Y-89831662D01*
X137412801Y-89831662D01*
X137454000Y-89827604D01*
X137495199Y-89831662D01*
G37*
G36*
X139995199Y-89831662D02*
G01*
X140042954Y-89831662D01*
X140084194Y-89840427D01*
X140119901Y-89843945D01*
X140164759Y-89857552D01*
X140216973Y-89868651D01*
X140250384Y-89883526D01*
X140279435Y-89892339D01*
X140325602Y-89917015D01*
X140379500Y-89941012D01*
X140404554Y-89959215D01*
X140426453Y-89970920D01*
X140471128Y-90007584D01*
X140523430Y-90045584D01*
X140540411Y-90064443D01*
X140555320Y-90076679D01*
X140595387Y-90125501D01*
X140642473Y-90177795D01*
X140652364Y-90194927D01*
X140661079Y-90205546D01*
X140693306Y-90265840D01*
X140731427Y-90331867D01*
X140735813Y-90345368D01*
X140739660Y-90352564D01*
X140760861Y-90422455D01*
X140786404Y-90501067D01*
X140787303Y-90509623D01*
X140788054Y-90512098D01*
X140795371Y-90586389D01*
X140805000Y-90678000D01*
X140795370Y-90769619D01*
X140788054Y-90843901D01*
X140787303Y-90846375D01*
X140786404Y-90854933D01*
X140760856Y-90933558D01*
X140739660Y-91003435D01*
X140735814Y-91010629D01*
X140731427Y-91024133D01*
X140693299Y-91090172D01*
X140661079Y-91150453D01*
X140652366Y-91161069D01*
X140642473Y-91178205D01*
X140595378Y-91230509D01*
X140555320Y-91279320D01*
X140540414Y-91291552D01*
X140523430Y-91310416D01*
X140471118Y-91348423D01*
X140426453Y-91385079D01*
X140404559Y-91396780D01*
X140379500Y-91414988D01*
X140325591Y-91438989D01*
X140279435Y-91463660D01*
X140250391Y-91472470D01*
X140216973Y-91487349D01*
X140164748Y-91498449D01*
X140119901Y-91512054D01*
X140084203Y-91515570D01*
X140042954Y-91524338D01*
X139995188Y-91524338D01*
X139954000Y-91528395D01*
X139912811Y-91524338D01*
X139865046Y-91524338D01*
X139823797Y-91515570D01*
X139788098Y-91512054D01*
X139743248Y-91498448D01*
X139691027Y-91487349D01*
X139657610Y-91472471D01*
X139628564Y-91463660D01*
X139582402Y-91438986D01*
X139528500Y-91414988D01*
X139503443Y-91396783D01*
X139481546Y-91385079D01*
X139436873Y-91348416D01*
X139384570Y-91310416D01*
X139367588Y-91291555D01*
X139352679Y-91279320D01*
X139312610Y-91230496D01*
X139265527Y-91178205D01*
X139255636Y-91161073D01*
X139246920Y-91150453D01*
X139214687Y-91090148D01*
X139176573Y-91024133D01*
X139172186Y-91010634D01*
X139168339Y-91003435D01*
X139147128Y-90933512D01*
X139121596Y-90854933D01*
X139120697Y-90846380D01*
X139119945Y-90843901D01*
X139112613Y-90769467D01*
X139103000Y-90678000D01*
X139112612Y-90586540D01*
X139119945Y-90512098D01*
X139120697Y-90509618D01*
X139121596Y-90501067D01*
X139147123Y-90422502D01*
X139168339Y-90352564D01*
X139172187Y-90345363D01*
X139176573Y-90331867D01*
X139214680Y-90265863D01*
X139246920Y-90205546D01*
X139255638Y-90194923D01*
X139265527Y-90177795D01*
X139312601Y-90125513D01*
X139352679Y-90076679D01*
X139367591Y-90064440D01*
X139384570Y-90045584D01*
X139436862Y-90007591D01*
X139481546Y-89970920D01*
X139503448Y-89959213D01*
X139528500Y-89941012D01*
X139582391Y-89917018D01*
X139628564Y-89892339D01*
X139657617Y-89883525D01*
X139691027Y-89868651D01*
X139743237Y-89857553D01*
X139788098Y-89843945D01*
X139823806Y-89840427D01*
X139865046Y-89831662D01*
X139912801Y-89831662D01*
X139954000Y-89827604D01*
X139995199Y-89831662D01*
G37*
G36*
X120691199Y-89577662D02*
G01*
X120738954Y-89577662D01*
X120780194Y-89586427D01*
X120815901Y-89589945D01*
X120860759Y-89603552D01*
X120912973Y-89614651D01*
X120946384Y-89629526D01*
X120975435Y-89638339D01*
X121021602Y-89663015D01*
X121075500Y-89687012D01*
X121100554Y-89705215D01*
X121122453Y-89716920D01*
X121167128Y-89753584D01*
X121219430Y-89791584D01*
X121236411Y-89810443D01*
X121251320Y-89822679D01*
X121291387Y-89871501D01*
X121338473Y-89923795D01*
X121348364Y-89940927D01*
X121357079Y-89951546D01*
X121389306Y-90011840D01*
X121427427Y-90077867D01*
X121431813Y-90091368D01*
X121435660Y-90098564D01*
X121456861Y-90168455D01*
X121482404Y-90247067D01*
X121483303Y-90255623D01*
X121484054Y-90258098D01*
X121491371Y-90332389D01*
X121501000Y-90424000D01*
X121491370Y-90515619D01*
X121484054Y-90589901D01*
X121483303Y-90592375D01*
X121482404Y-90600933D01*
X121456856Y-90679558D01*
X121435660Y-90749435D01*
X121431814Y-90756629D01*
X121427427Y-90770133D01*
X121389299Y-90836172D01*
X121357079Y-90896453D01*
X121348366Y-90907069D01*
X121338473Y-90924205D01*
X121291378Y-90976509D01*
X121251320Y-91025320D01*
X121236414Y-91037552D01*
X121219430Y-91056416D01*
X121167118Y-91094423D01*
X121122453Y-91131079D01*
X121100559Y-91142780D01*
X121075500Y-91160988D01*
X121021591Y-91184989D01*
X120975435Y-91209660D01*
X120946391Y-91218470D01*
X120912973Y-91233349D01*
X120860748Y-91244449D01*
X120815901Y-91258054D01*
X120780203Y-91261570D01*
X120738954Y-91270338D01*
X120691188Y-91270338D01*
X120650000Y-91274395D01*
X120608811Y-91270338D01*
X120561046Y-91270338D01*
X120519797Y-91261570D01*
X120484098Y-91258054D01*
X120439248Y-91244448D01*
X120387027Y-91233349D01*
X120353610Y-91218471D01*
X120324564Y-91209660D01*
X120278402Y-91184986D01*
X120224500Y-91160988D01*
X120199443Y-91142783D01*
X120177546Y-91131079D01*
X120132873Y-91094416D01*
X120080570Y-91056416D01*
X120063588Y-91037555D01*
X120048679Y-91025320D01*
X120008610Y-90976496D01*
X119961527Y-90924205D01*
X119951636Y-90907073D01*
X119942920Y-90896453D01*
X119910687Y-90836148D01*
X119872573Y-90770133D01*
X119868186Y-90756634D01*
X119864339Y-90749435D01*
X119843128Y-90679512D01*
X119817596Y-90600933D01*
X119816697Y-90592380D01*
X119815945Y-90589901D01*
X119808613Y-90515467D01*
X119799000Y-90424000D01*
X119808612Y-90332540D01*
X119815945Y-90258098D01*
X119816697Y-90255618D01*
X119817596Y-90247067D01*
X119843123Y-90168502D01*
X119864339Y-90098564D01*
X119868187Y-90091363D01*
X119872573Y-90077867D01*
X119910680Y-90011863D01*
X119942920Y-89951546D01*
X119951638Y-89940923D01*
X119961527Y-89923795D01*
X120008601Y-89871513D01*
X120048679Y-89822679D01*
X120063591Y-89810440D01*
X120080570Y-89791584D01*
X120132862Y-89753591D01*
X120177546Y-89716920D01*
X120199448Y-89705213D01*
X120224500Y-89687012D01*
X120278391Y-89663018D01*
X120324564Y-89638339D01*
X120353617Y-89629525D01*
X120387027Y-89614651D01*
X120439237Y-89603553D01*
X120484098Y-89589945D01*
X120519806Y-89586427D01*
X120561046Y-89577662D01*
X120608801Y-89577662D01*
X120650000Y-89573604D01*
X120691199Y-89577662D01*
G37*
G36*
X157013199Y-87291662D02*
G01*
X157060954Y-87291662D01*
X157102194Y-87300427D01*
X157137901Y-87303945D01*
X157182759Y-87317552D01*
X157234973Y-87328651D01*
X157268384Y-87343526D01*
X157297435Y-87352339D01*
X157343602Y-87377015D01*
X157397500Y-87401012D01*
X157422554Y-87419215D01*
X157444453Y-87430920D01*
X157489128Y-87467584D01*
X157541430Y-87505584D01*
X157558411Y-87524443D01*
X157573320Y-87536679D01*
X157613387Y-87585501D01*
X157660473Y-87637795D01*
X157670364Y-87654927D01*
X157679079Y-87665546D01*
X157711306Y-87725840D01*
X157749427Y-87791867D01*
X157753813Y-87805368D01*
X157757660Y-87812564D01*
X157778861Y-87882455D01*
X157804404Y-87961067D01*
X157805303Y-87969623D01*
X157806054Y-87972098D01*
X157813371Y-88046389D01*
X157823000Y-88138000D01*
X157813370Y-88229619D01*
X157806054Y-88303901D01*
X157805303Y-88306375D01*
X157804404Y-88314933D01*
X157778856Y-88393558D01*
X157757660Y-88463435D01*
X157753814Y-88470629D01*
X157749427Y-88484133D01*
X157711299Y-88550172D01*
X157679079Y-88610453D01*
X157670366Y-88621069D01*
X157660473Y-88638205D01*
X157613378Y-88690509D01*
X157573320Y-88739320D01*
X157558414Y-88751552D01*
X157541430Y-88770416D01*
X157489118Y-88808423D01*
X157444453Y-88845079D01*
X157422559Y-88856780D01*
X157397500Y-88874988D01*
X157343591Y-88898989D01*
X157297435Y-88923660D01*
X157268391Y-88932470D01*
X157234973Y-88947349D01*
X157182748Y-88958449D01*
X157137901Y-88972054D01*
X157102203Y-88975570D01*
X157060954Y-88984338D01*
X157013188Y-88984338D01*
X156972000Y-88988395D01*
X156930811Y-88984338D01*
X156883046Y-88984338D01*
X156841797Y-88975570D01*
X156806098Y-88972054D01*
X156761248Y-88958448D01*
X156709027Y-88947349D01*
X156675610Y-88932471D01*
X156646564Y-88923660D01*
X156600402Y-88898986D01*
X156546500Y-88874988D01*
X156521443Y-88856783D01*
X156499546Y-88845079D01*
X156454873Y-88808416D01*
X156402570Y-88770416D01*
X156385588Y-88751555D01*
X156370679Y-88739320D01*
X156330610Y-88690496D01*
X156283527Y-88638205D01*
X156273636Y-88621073D01*
X156264920Y-88610453D01*
X156232687Y-88550148D01*
X156194573Y-88484133D01*
X156190186Y-88470634D01*
X156186339Y-88463435D01*
X156165128Y-88393512D01*
X156139596Y-88314933D01*
X156138697Y-88306380D01*
X156137945Y-88303901D01*
X156130613Y-88229467D01*
X156121000Y-88138000D01*
X156130612Y-88046540D01*
X156137945Y-87972098D01*
X156138697Y-87969618D01*
X156139596Y-87961067D01*
X156165123Y-87882502D01*
X156186339Y-87812564D01*
X156190187Y-87805363D01*
X156194573Y-87791867D01*
X156232680Y-87725863D01*
X156264920Y-87665546D01*
X156273638Y-87654923D01*
X156283527Y-87637795D01*
X156330601Y-87585513D01*
X156370679Y-87536679D01*
X156385591Y-87524440D01*
X156402570Y-87505584D01*
X156454862Y-87467591D01*
X156499546Y-87430920D01*
X156521448Y-87419213D01*
X156546500Y-87401012D01*
X156600391Y-87377018D01*
X156646564Y-87352339D01*
X156675617Y-87343525D01*
X156709027Y-87328651D01*
X156761237Y-87317553D01*
X156806098Y-87303945D01*
X156841806Y-87300427D01*
X156883046Y-87291662D01*
X156930801Y-87291662D01*
X156972000Y-87287604D01*
X157013199Y-87291662D01*
G37*
G36*
X129743517Y-86382882D02*
G01*
X129760062Y-86393938D01*
X129771118Y-86410483D01*
X129775000Y-86430000D01*
X129775000Y-88830000D01*
X129771118Y-88849517D01*
X129760062Y-88866062D01*
X129743517Y-88877118D01*
X129724000Y-88881000D01*
X127324000Y-88881000D01*
X127304483Y-88877118D01*
X127287938Y-88866062D01*
X127276882Y-88849517D01*
X127273000Y-88830000D01*
X127273000Y-86430000D01*
X127276882Y-86410483D01*
X127287938Y-86393938D01*
X127304483Y-86382882D01*
X127324000Y-86379000D01*
X129724000Y-86379000D01*
X129743517Y-86382882D01*
G37*
G36*
X147269517Y-86382882D02*
G01*
X147286062Y-86393938D01*
X147297118Y-86410483D01*
X147301000Y-86430000D01*
X147301000Y-88830000D01*
X147297118Y-88849517D01*
X147286062Y-88866062D01*
X147269517Y-88877118D01*
X147250000Y-88881000D01*
X144850000Y-88881000D01*
X144830483Y-88877118D01*
X144813938Y-88866062D01*
X144802882Y-88849517D01*
X144799000Y-88830000D01*
X144799000Y-86430000D01*
X144802882Y-86410483D01*
X144813938Y-86393938D01*
X144830483Y-86382882D01*
X144850000Y-86379000D01*
X147250000Y-86379000D01*
X147269517Y-86382882D01*
G37*
G36*
X98361098Y-81411966D02*
G01*
X98421353Y-81411966D01*
X98487199Y-81421890D01*
X98556273Y-81427327D01*
X98611947Y-81440693D01*
X98665302Y-81448735D01*
X98735021Y-81470240D01*
X98808187Y-81487806D01*
X98855495Y-81507401D01*
X98901052Y-81521454D01*
X98972569Y-81555895D01*
X99047538Y-81586948D01*
X99086022Y-81610531D01*
X99123322Y-81628494D01*
X99194271Y-81676866D01*
X99268433Y-81722313D01*
X99298127Y-81747674D01*
X99327162Y-81767470D01*
X99394956Y-81830374D01*
X99465433Y-81890567D01*
X99486834Y-81915625D01*
X99508011Y-81935274D01*
X99569925Y-82012911D01*
X99633687Y-82087567D01*
X99647709Y-82110449D01*
X99661830Y-82128156D01*
X99715087Y-82220399D01*
X99769052Y-82308462D01*
X99776977Y-82327597D01*
X99785185Y-82341812D01*
X99827038Y-82448454D01*
X99868194Y-82547813D01*
X99871597Y-82561991D01*
X99875314Y-82571460D01*
X99903157Y-82693446D01*
X99928673Y-82799727D01*
X99929334Y-82808133D01*
X99930214Y-82811986D01*
X99941683Y-82965031D01*
X99949000Y-83058000D01*
X99941682Y-83150975D01*
X99930214Y-83304013D01*
X99929334Y-83307865D01*
X99928673Y-83316273D01*
X99903152Y-83422573D01*
X99875314Y-83544539D01*
X99871598Y-83554005D01*
X99868194Y-83568187D01*
X99827031Y-83667563D01*
X99785185Y-83774187D01*
X99776979Y-83788399D01*
X99769052Y-83807538D01*
X99715077Y-83895616D01*
X99661830Y-83987843D01*
X99647712Y-84005546D01*
X99633687Y-84028433D01*
X99569913Y-84103102D01*
X99508011Y-84180725D01*
X99486838Y-84200369D01*
X99465433Y-84225433D01*
X99394942Y-84285637D01*
X99327162Y-84348529D01*
X99298133Y-84368320D01*
X99268433Y-84393687D01*
X99194257Y-84439142D01*
X99123322Y-84487505D01*
X99086030Y-84505463D01*
X99047538Y-84529052D01*
X98972554Y-84560110D01*
X98901052Y-84594545D01*
X98855504Y-84608594D01*
X98808187Y-84628194D01*
X98735007Y-84645762D01*
X98665302Y-84667264D01*
X98611955Y-84675304D01*
X98556273Y-84688673D01*
X98487195Y-84694109D01*
X98421353Y-84704034D01*
X98361098Y-84704034D01*
X98298000Y-84709000D01*
X98234902Y-84704034D01*
X98174647Y-84704034D01*
X98108803Y-84694109D01*
X98039727Y-84688673D01*
X97984045Y-84675305D01*
X97930697Y-84667264D01*
X97860988Y-84645761D01*
X97787813Y-84628194D01*
X97740498Y-84608595D01*
X97694947Y-84594545D01*
X97623438Y-84560107D01*
X97548462Y-84529052D01*
X97509972Y-84505465D01*
X97472675Y-84487504D01*
X97401726Y-84439131D01*
X97327567Y-84393687D01*
X97297873Y-84368326D01*
X97268839Y-84348531D01*
X97201043Y-84285625D01*
X97130567Y-84225433D01*
X97109164Y-84200374D01*
X97087988Y-84180725D01*
X97026071Y-84103084D01*
X96962313Y-84028433D01*
X96948291Y-84005551D01*
X96934169Y-83987843D01*
X96880905Y-83895588D01*
X96826948Y-83807538D01*
X96819023Y-83788405D01*
X96810814Y-83774187D01*
X96768949Y-83667517D01*
X96727806Y-83568187D01*
X96724402Y-83554012D01*
X96720685Y-83544539D01*
X96692827Y-83422488D01*
X96667327Y-83316273D01*
X96666665Y-83307871D01*
X96665785Y-83304013D01*
X96654296Y-83150710D01*
X96647000Y-83058000D01*
X96654296Y-82965297D01*
X96665785Y-82811986D01*
X96666665Y-82808126D01*
X96667327Y-82799727D01*
X96692822Y-82693530D01*
X96720685Y-82571460D01*
X96724403Y-82561984D01*
X96727806Y-82547813D01*
X96768942Y-82448500D01*
X96810814Y-82341812D01*
X96819024Y-82327590D01*
X96826948Y-82308462D01*
X96880895Y-82220427D01*
X96934169Y-82128156D01*
X96948293Y-82110443D01*
X96962313Y-82087567D01*
X97026059Y-82012929D01*
X97087988Y-81935274D01*
X97109169Y-81915620D01*
X97130567Y-81890567D01*
X97201029Y-81830386D01*
X97268839Y-81767468D01*
X97297879Y-81747668D01*
X97327567Y-81722313D01*
X97401711Y-81676876D01*
X97472675Y-81628495D01*
X97509980Y-81610529D01*
X97548462Y-81586948D01*
X97623423Y-81555898D01*
X97694947Y-81521454D01*
X97740507Y-81507400D01*
X97787813Y-81487806D01*
X97860973Y-81470241D01*
X97930697Y-81448735D01*
X97984054Y-81440692D01*
X98039727Y-81427327D01*
X98108799Y-81421890D01*
X98174647Y-81411966D01*
X98234902Y-81411966D01*
X98298000Y-81407000D01*
X98361098Y-81411966D01*
G37*
G36*
X112617517Y-81410882D02*
G01*
X112634062Y-81421938D01*
X112645118Y-81438483D01*
X112649000Y-81458000D01*
X112649000Y-84658000D01*
X112645118Y-84677517D01*
X112634062Y-84694062D01*
X112617517Y-84705118D01*
X112598000Y-84709000D01*
X109398000Y-84709000D01*
X109378483Y-84705118D01*
X109361938Y-84694062D01*
X109350882Y-84677517D01*
X109347000Y-84658000D01*
X109347000Y-81458000D01*
X109350882Y-81438483D01*
X109361938Y-81421938D01*
X109378483Y-81410882D01*
X109398000Y-81407000D01*
X112598000Y-81407000D01*
X112617517Y-81410882D01*
G37*
G36*
X128577720Y-78883700D02*
G01*
X128627273Y-78883700D01*
X128681891Y-78892814D01*
X128741234Y-78898006D01*
X128787834Y-78910492D01*
X128830997Y-78917695D01*
X128888900Y-78937573D01*
X128951867Y-78954445D01*
X128990438Y-78972430D01*
X129026349Y-78984759D01*
X129085347Y-79016687D01*
X129149500Y-79046602D01*
X129179701Y-79067749D01*
X129207995Y-79083061D01*
X129265590Y-79127889D01*
X129328127Y-79171678D01*
X129350167Y-79193718D01*
X129370987Y-79209923D01*
X129424470Y-79268021D01*
X129482322Y-79325873D01*
X129496924Y-79346727D01*
X129510878Y-79361885D01*
X129557430Y-79433139D01*
X129607398Y-79504500D01*
X129615738Y-79522385D01*
X129623843Y-79534791D01*
X129660635Y-79618668D01*
X129699555Y-79702133D01*
X129703179Y-79715658D01*
X129706813Y-79723943D01*
X129731144Y-79820025D01*
X129755994Y-79912766D01*
X129756714Y-79921000D01*
X129757515Y-79924162D01*
X129766892Y-80037335D01*
X129775000Y-80130000D01*
X129766892Y-80222672D01*
X129757515Y-80335837D01*
X129756714Y-80338997D01*
X129755994Y-80347234D01*
X129731139Y-80439991D01*
X129706813Y-80536056D01*
X129703179Y-80544338D01*
X129699555Y-80557867D01*
X129660627Y-80641347D01*
X129623843Y-80725208D01*
X129615739Y-80737611D01*
X129607398Y-80755500D01*
X129557421Y-80826874D01*
X129510878Y-80898114D01*
X129496927Y-80913268D01*
X129482322Y-80934127D01*
X129424458Y-80991990D01*
X129370987Y-81050076D01*
X129350172Y-81066276D01*
X129328127Y-81088322D01*
X129265577Y-81132119D01*
X129207995Y-81176938D01*
X129179707Y-81192246D01*
X129149500Y-81213398D01*
X129085334Y-81243318D01*
X129026349Y-81275240D01*
X128990446Y-81287565D01*
X128951867Y-81305555D01*
X128888887Y-81322430D01*
X128830997Y-81342304D01*
X128787842Y-81349505D01*
X128741234Y-81361994D01*
X128681888Y-81367186D01*
X128627273Y-81376300D01*
X128577720Y-81376300D01*
X128524000Y-81381000D01*
X128470280Y-81376300D01*
X128420727Y-81376300D01*
X128366111Y-81367186D01*
X128306766Y-81361994D01*
X128260159Y-81349505D01*
X128217002Y-81342304D01*
X128159108Y-81322429D01*
X128096133Y-81305555D01*
X128057556Y-81287566D01*
X128021650Y-81275240D01*
X127962658Y-81243315D01*
X127898500Y-81213398D01*
X127868295Y-81192248D01*
X127840004Y-81176938D01*
X127782412Y-81132112D01*
X127719873Y-81088322D01*
X127697831Y-81066280D01*
X127677012Y-81050076D01*
X127623528Y-80991977D01*
X127565678Y-80934127D01*
X127551075Y-80913273D01*
X127537121Y-80898114D01*
X127490563Y-80826852D01*
X127440602Y-80755500D01*
X127432262Y-80737616D01*
X127424156Y-80725208D01*
X127387355Y-80641311D01*
X127348445Y-80557867D01*
X127344821Y-80544344D01*
X127341186Y-80536056D01*
X127316842Y-80439923D01*
X127292006Y-80347234D01*
X127291285Y-80339003D01*
X127290484Y-80335837D01*
X127281089Y-80222456D01*
X127273000Y-80130000D01*
X127281088Y-80037551D01*
X127290484Y-79924162D01*
X127291286Y-79920994D01*
X127292006Y-79912766D01*
X127316837Y-79820093D01*
X127341186Y-79723943D01*
X127344822Y-79715653D01*
X127348445Y-79702133D01*
X127387348Y-79618704D01*
X127424156Y-79534791D01*
X127432264Y-79522380D01*
X127440602Y-79504500D01*
X127490554Y-79433160D01*
X127537121Y-79361885D01*
X127551078Y-79346722D01*
X127565678Y-79325873D01*
X127623517Y-79268033D01*
X127677012Y-79209923D01*
X127697835Y-79193715D01*
X127719873Y-79171678D01*
X127782399Y-79127896D01*
X127840004Y-79083061D01*
X127868301Y-79067746D01*
X127898500Y-79046602D01*
X127962644Y-79016690D01*
X128021650Y-78984759D01*
X128057564Y-78972429D01*
X128096133Y-78954445D01*
X128159095Y-78937574D01*
X128217002Y-78917695D01*
X128260166Y-78910492D01*
X128306766Y-78898006D01*
X128366107Y-78892814D01*
X128420727Y-78883700D01*
X128470280Y-78883700D01*
X128524000Y-78879000D01*
X128577720Y-78883700D01*
G37*
G36*
X146103720Y-78883700D02*
G01*
X146153273Y-78883700D01*
X146207891Y-78892814D01*
X146267234Y-78898006D01*
X146313834Y-78910492D01*
X146356997Y-78917695D01*
X146414900Y-78937573D01*
X146477867Y-78954445D01*
X146516438Y-78972430D01*
X146552349Y-78984759D01*
X146611347Y-79016687D01*
X146675500Y-79046602D01*
X146705701Y-79067749D01*
X146733995Y-79083061D01*
X146791590Y-79127889D01*
X146854127Y-79171678D01*
X146876167Y-79193718D01*
X146896987Y-79209923D01*
X146950470Y-79268021D01*
X147008322Y-79325873D01*
X147022924Y-79346727D01*
X147036878Y-79361885D01*
X147083430Y-79433139D01*
X147133398Y-79504500D01*
X147141738Y-79522385D01*
X147149843Y-79534791D01*
X147186635Y-79618668D01*
X147225555Y-79702133D01*
X147229179Y-79715658D01*
X147232813Y-79723943D01*
X147257144Y-79820025D01*
X147281994Y-79912766D01*
X147282714Y-79921000D01*
X147283515Y-79924162D01*
X147292892Y-80037335D01*
X147301000Y-80130000D01*
X147292892Y-80222672D01*
X147283515Y-80335837D01*
X147282714Y-80338997D01*
X147281994Y-80347234D01*
X147257139Y-80439991D01*
X147232813Y-80536056D01*
X147229179Y-80544338D01*
X147225555Y-80557867D01*
X147186627Y-80641347D01*
X147149843Y-80725208D01*
X147141739Y-80737611D01*
X147133398Y-80755500D01*
X147083421Y-80826874D01*
X147036878Y-80898114D01*
X147022927Y-80913268D01*
X147008322Y-80934127D01*
X146950458Y-80991990D01*
X146896987Y-81050076D01*
X146876172Y-81066276D01*
X146854127Y-81088322D01*
X146791577Y-81132119D01*
X146733995Y-81176938D01*
X146705707Y-81192246D01*
X146675500Y-81213398D01*
X146611334Y-81243318D01*
X146552349Y-81275240D01*
X146516446Y-81287565D01*
X146477867Y-81305555D01*
X146414887Y-81322430D01*
X146356997Y-81342304D01*
X146313842Y-81349505D01*
X146267234Y-81361994D01*
X146207888Y-81367186D01*
X146153273Y-81376300D01*
X146103720Y-81376300D01*
X146050000Y-81381000D01*
X145996280Y-81376300D01*
X145946727Y-81376300D01*
X145892111Y-81367186D01*
X145832766Y-81361994D01*
X145786159Y-81349505D01*
X145743002Y-81342304D01*
X145685108Y-81322429D01*
X145622133Y-81305555D01*
X145583556Y-81287566D01*
X145547650Y-81275240D01*
X145488658Y-81243315D01*
X145424500Y-81213398D01*
X145394295Y-81192248D01*
X145366004Y-81176938D01*
X145308412Y-81132112D01*
X145245873Y-81088322D01*
X145223831Y-81066280D01*
X145203012Y-81050076D01*
X145149528Y-80991977D01*
X145091678Y-80934127D01*
X145077075Y-80913273D01*
X145063121Y-80898114D01*
X145016563Y-80826852D01*
X144966602Y-80755500D01*
X144958262Y-80737616D01*
X144950156Y-80725208D01*
X144913355Y-80641311D01*
X144874445Y-80557867D01*
X144870821Y-80544344D01*
X144867186Y-80536056D01*
X144842842Y-80439923D01*
X144818006Y-80347234D01*
X144817285Y-80339003D01*
X144816484Y-80335837D01*
X144807089Y-80222456D01*
X144799000Y-80130000D01*
X144807088Y-80037551D01*
X144816484Y-79924162D01*
X144817286Y-79920994D01*
X144818006Y-79912766D01*
X144842837Y-79820093D01*
X144867186Y-79723943D01*
X144870822Y-79715653D01*
X144874445Y-79702133D01*
X144913348Y-79618704D01*
X144950156Y-79534791D01*
X144958264Y-79522380D01*
X144966602Y-79504500D01*
X145016554Y-79433160D01*
X145063121Y-79361885D01*
X145077078Y-79346722D01*
X145091678Y-79325873D01*
X145149517Y-79268033D01*
X145203012Y-79209923D01*
X145223835Y-79193715D01*
X145245873Y-79171678D01*
X145308399Y-79127896D01*
X145366004Y-79083061D01*
X145394301Y-79067746D01*
X145424500Y-79046602D01*
X145488644Y-79016690D01*
X145547650Y-78984759D01*
X145583564Y-78972429D01*
X145622133Y-78954445D01*
X145685095Y-78937574D01*
X145743002Y-78917695D01*
X145786166Y-78910492D01*
X145832766Y-78898006D01*
X145892107Y-78892814D01*
X145946727Y-78883700D01*
X145996280Y-78883700D01*
X146050000Y-78879000D01*
X146103720Y-78883700D01*
G37*
G36*
X157013199Y-79671662D02*
G01*
X157060954Y-79671662D01*
X157102194Y-79680427D01*
X157137901Y-79683945D01*
X157182759Y-79697552D01*
X157234973Y-79708651D01*
X157268384Y-79723526D01*
X157297435Y-79732339D01*
X157343602Y-79757015D01*
X157397500Y-79781012D01*
X157422554Y-79799215D01*
X157444453Y-79810920D01*
X157489128Y-79847584D01*
X157541430Y-79885584D01*
X157558411Y-79904443D01*
X157573320Y-79916679D01*
X157613387Y-79965501D01*
X157660473Y-80017795D01*
X157670364Y-80034927D01*
X157679079Y-80045546D01*
X157711306Y-80105840D01*
X157749427Y-80171867D01*
X157753813Y-80185368D01*
X157757660Y-80192564D01*
X157778861Y-80262455D01*
X157804404Y-80341067D01*
X157805303Y-80349623D01*
X157806054Y-80352098D01*
X157813371Y-80426389D01*
X157823000Y-80518000D01*
X157813370Y-80609619D01*
X157806054Y-80683901D01*
X157805303Y-80686375D01*
X157804404Y-80694933D01*
X157778856Y-80773558D01*
X157757660Y-80843435D01*
X157753814Y-80850629D01*
X157749427Y-80864133D01*
X157711299Y-80930172D01*
X157679079Y-80990453D01*
X157670366Y-81001069D01*
X157660473Y-81018205D01*
X157613378Y-81070509D01*
X157573320Y-81119320D01*
X157558414Y-81131552D01*
X157541430Y-81150416D01*
X157489118Y-81188423D01*
X157444453Y-81225079D01*
X157422559Y-81236780D01*
X157397500Y-81254988D01*
X157343591Y-81278989D01*
X157297435Y-81303660D01*
X157268391Y-81312470D01*
X157234973Y-81327349D01*
X157182748Y-81338449D01*
X157137901Y-81352054D01*
X157102203Y-81355570D01*
X157060954Y-81364338D01*
X157013188Y-81364338D01*
X156972000Y-81368395D01*
X156930811Y-81364338D01*
X156883046Y-81364338D01*
X156841797Y-81355570D01*
X156806098Y-81352054D01*
X156761248Y-81338448D01*
X156709027Y-81327349D01*
X156675610Y-81312471D01*
X156646564Y-81303660D01*
X156600402Y-81278986D01*
X156546500Y-81254988D01*
X156521443Y-81236783D01*
X156499546Y-81225079D01*
X156454873Y-81188416D01*
X156402570Y-81150416D01*
X156385588Y-81131555D01*
X156370679Y-81119320D01*
X156330610Y-81070496D01*
X156283527Y-81018205D01*
X156273636Y-81001073D01*
X156264920Y-80990453D01*
X156232687Y-80930148D01*
X156194573Y-80864133D01*
X156190186Y-80850634D01*
X156186339Y-80843435D01*
X156165128Y-80773512D01*
X156139596Y-80694933D01*
X156138697Y-80686380D01*
X156137945Y-80683901D01*
X156130613Y-80609467D01*
X156121000Y-80518000D01*
X156130612Y-80426540D01*
X156137945Y-80352098D01*
X156138697Y-80349618D01*
X156139596Y-80341067D01*
X156165123Y-80262502D01*
X156186339Y-80192564D01*
X156190187Y-80185363D01*
X156194573Y-80171867D01*
X156232680Y-80105863D01*
X156264920Y-80045546D01*
X156273638Y-80034923D01*
X156283527Y-80017795D01*
X156330601Y-79965513D01*
X156370679Y-79916679D01*
X156385591Y-79904440D01*
X156402570Y-79885584D01*
X156454862Y-79847591D01*
X156499546Y-79810920D01*
X156521448Y-79799213D01*
X156546500Y-79781012D01*
X156600391Y-79757018D01*
X156646564Y-79732339D01*
X156675617Y-79723525D01*
X156709027Y-79708651D01*
X156761237Y-79697553D01*
X156806098Y-79683945D01*
X156841806Y-79680427D01*
X156883046Y-79671662D01*
X156930801Y-79671662D01*
X156972000Y-79667604D01*
X157013199Y-79671662D01*
G37*
G36*
X157891517Y-77284882D02*
G01*
X157908062Y-77295938D01*
X157919118Y-77312483D01*
X157923000Y-77332000D01*
X157923000Y-79132000D01*
X157919118Y-79151517D01*
X157908062Y-79168062D01*
X157891517Y-79179118D01*
X157872000Y-79183000D01*
X156072000Y-79183000D01*
X156052483Y-79179118D01*
X156035938Y-79168062D01*
X156024882Y-79151517D01*
X156021000Y-79132000D01*
X156021000Y-77332000D01*
X156024882Y-77312483D01*
X156035938Y-77295938D01*
X156052483Y-77284882D01*
X156072000Y-77281000D01*
X157872000Y-77281000D01*
X157891517Y-77284882D01*
G37*
G36*
X95091517Y-75568882D02*
G01*
X95108062Y-75579938D01*
X95119118Y-75596483D01*
X95123000Y-75616000D01*
X95123000Y-78816000D01*
X95119118Y-78835517D01*
X95108062Y-78852062D01*
X95091517Y-78863118D01*
X95072000Y-78867000D01*
X91872000Y-78867000D01*
X91852483Y-78863118D01*
X91835938Y-78852062D01*
X91824882Y-78835517D01*
X91821000Y-78816000D01*
X91821000Y-75616000D01*
X91824882Y-75596483D01*
X91835938Y-75579938D01*
X91852483Y-75568882D01*
X91872000Y-75565000D01*
X95072000Y-75565000D01*
X95091517Y-75568882D01*
G37*
G36*
X98361098Y-75569966D02*
G01*
X98421353Y-75569966D01*
X98487199Y-75579890D01*
X98556273Y-75585327D01*
X98611947Y-75598693D01*
X98665302Y-75606735D01*
X98735021Y-75628240D01*
X98808187Y-75645806D01*
X98855495Y-75665401D01*
X98901052Y-75679454D01*
X98972569Y-75713895D01*
X99047538Y-75744948D01*
X99086022Y-75768531D01*
X99123322Y-75786494D01*
X99194271Y-75834866D01*
X99268433Y-75880313D01*
X99298127Y-75905674D01*
X99327162Y-75925470D01*
X99394956Y-75988374D01*
X99465433Y-76048567D01*
X99486834Y-76073625D01*
X99508011Y-76093274D01*
X99569925Y-76170911D01*
X99633687Y-76245567D01*
X99647709Y-76268449D01*
X99661830Y-76286156D01*
X99715087Y-76378399D01*
X99769052Y-76466462D01*
X99776977Y-76485597D01*
X99785185Y-76499812D01*
X99827038Y-76606454D01*
X99868194Y-76705813D01*
X99871597Y-76719991D01*
X99875314Y-76729460D01*
X99903157Y-76851446D01*
X99928673Y-76957727D01*
X99929334Y-76966133D01*
X99930214Y-76969986D01*
X99941683Y-77123031D01*
X99949000Y-77216000D01*
X99941682Y-77308975D01*
X99930214Y-77462013D01*
X99929334Y-77465865D01*
X99928673Y-77474273D01*
X99903152Y-77580573D01*
X99875314Y-77702539D01*
X99871598Y-77712005D01*
X99868194Y-77726187D01*
X99827031Y-77825563D01*
X99785185Y-77932187D01*
X99776979Y-77946399D01*
X99769052Y-77965538D01*
X99715077Y-78053616D01*
X99661830Y-78145843D01*
X99647712Y-78163546D01*
X99633687Y-78186433D01*
X99569913Y-78261102D01*
X99508011Y-78338725D01*
X99486838Y-78358369D01*
X99465433Y-78383433D01*
X99394942Y-78443637D01*
X99327162Y-78506529D01*
X99298133Y-78526320D01*
X99268433Y-78551687D01*
X99194257Y-78597142D01*
X99123322Y-78645505D01*
X99086030Y-78663463D01*
X99047538Y-78687052D01*
X98972554Y-78718110D01*
X98901052Y-78752545D01*
X98855504Y-78766594D01*
X98808187Y-78786194D01*
X98735007Y-78803762D01*
X98665302Y-78825264D01*
X98611955Y-78833304D01*
X98556273Y-78846673D01*
X98487195Y-78852109D01*
X98421353Y-78862034D01*
X98361098Y-78862034D01*
X98298000Y-78867000D01*
X98234902Y-78862034D01*
X98174647Y-78862034D01*
X98108803Y-78852109D01*
X98039727Y-78846673D01*
X97984045Y-78833305D01*
X97930697Y-78825264D01*
X97860988Y-78803761D01*
X97787813Y-78786194D01*
X97740498Y-78766595D01*
X97694947Y-78752545D01*
X97623438Y-78718107D01*
X97548462Y-78687052D01*
X97509972Y-78663465D01*
X97472675Y-78645504D01*
X97401726Y-78597131D01*
X97327567Y-78551687D01*
X97297873Y-78526326D01*
X97268839Y-78506531D01*
X97201043Y-78443625D01*
X97130567Y-78383433D01*
X97109164Y-78358374D01*
X97087988Y-78338725D01*
X97026071Y-78261084D01*
X96962313Y-78186433D01*
X96948291Y-78163551D01*
X96934169Y-78145843D01*
X96880905Y-78053588D01*
X96826948Y-77965538D01*
X96819023Y-77946405D01*
X96810814Y-77932187D01*
X96768949Y-77825517D01*
X96727806Y-77726187D01*
X96724402Y-77712012D01*
X96720685Y-77702539D01*
X96692827Y-77580488D01*
X96667327Y-77474273D01*
X96666665Y-77465871D01*
X96665785Y-77462013D01*
X96654296Y-77308710D01*
X96647000Y-77216000D01*
X96654296Y-77123297D01*
X96665785Y-76969986D01*
X96666665Y-76966126D01*
X96667327Y-76957727D01*
X96692822Y-76851530D01*
X96720685Y-76729460D01*
X96724403Y-76719984D01*
X96727806Y-76705813D01*
X96768942Y-76606500D01*
X96810814Y-76499812D01*
X96819024Y-76485590D01*
X96826948Y-76466462D01*
X96880895Y-76378427D01*
X96934169Y-76286156D01*
X96948293Y-76268443D01*
X96962313Y-76245567D01*
X97026059Y-76170929D01*
X97087988Y-76093274D01*
X97109169Y-76073620D01*
X97130567Y-76048567D01*
X97201029Y-75988386D01*
X97268839Y-75925468D01*
X97297879Y-75905668D01*
X97327567Y-75880313D01*
X97401711Y-75834876D01*
X97472675Y-75786495D01*
X97509980Y-75768529D01*
X97548462Y-75744948D01*
X97623423Y-75713898D01*
X97694947Y-75679454D01*
X97740507Y-75665400D01*
X97787813Y-75645806D01*
X97860973Y-75628241D01*
X97930697Y-75606735D01*
X97984054Y-75598692D01*
X98039727Y-75585327D01*
X98108799Y-75579890D01*
X98174647Y-75569966D01*
X98234902Y-75569966D01*
X98298000Y-75565000D01*
X98361098Y-75569966D01*
G37*
G36*
X112617517Y-75568882D02*
G01*
X112634062Y-75579938D01*
X112645118Y-75596483D01*
X112649000Y-75616000D01*
X112649000Y-78816000D01*
X112645118Y-78835517D01*
X112634062Y-78852062D01*
X112617517Y-78863118D01*
X112598000Y-78867000D01*
X109398000Y-78867000D01*
X109378483Y-78863118D01*
X109361938Y-78852062D01*
X109350882Y-78835517D01*
X109347000Y-78816000D01*
X109347000Y-75616000D01*
X109350882Y-75596483D01*
X109361938Y-75579938D01*
X109378483Y-75568882D01*
X109398000Y-75565000D01*
X112598000Y-75565000D01*
X112617517Y-75568882D01*
G37*
G36*
X116141098Y-75569966D02*
G01*
X116201353Y-75569966D01*
X116267199Y-75579890D01*
X116336273Y-75585327D01*
X116391947Y-75598693D01*
X116445302Y-75606735D01*
X116515021Y-75628240D01*
X116588187Y-75645806D01*
X116635495Y-75665401D01*
X116681052Y-75679454D01*
X116752569Y-75713895D01*
X116827538Y-75744948D01*
X116866022Y-75768531D01*
X116903322Y-75786494D01*
X116974271Y-75834866D01*
X117048433Y-75880313D01*
X117078127Y-75905674D01*
X117107162Y-75925470D01*
X117174956Y-75988374D01*
X117245433Y-76048567D01*
X117266834Y-76073625D01*
X117288011Y-76093274D01*
X117349925Y-76170911D01*
X117413687Y-76245567D01*
X117427709Y-76268449D01*
X117441830Y-76286156D01*
X117495087Y-76378399D01*
X117549052Y-76466462D01*
X117556977Y-76485597D01*
X117565185Y-76499812D01*
X117607038Y-76606454D01*
X117648194Y-76705813D01*
X117651597Y-76719991D01*
X117655314Y-76729460D01*
X117683157Y-76851446D01*
X117708673Y-76957727D01*
X117709334Y-76966133D01*
X117710214Y-76969986D01*
X117721683Y-77123031D01*
X117729000Y-77216000D01*
X117721682Y-77308975D01*
X117710214Y-77462013D01*
X117709334Y-77465865D01*
X117708673Y-77474273D01*
X117683152Y-77580573D01*
X117655314Y-77702539D01*
X117651598Y-77712005D01*
X117648194Y-77726187D01*
X117607031Y-77825563D01*
X117565185Y-77932187D01*
X117556979Y-77946399D01*
X117549052Y-77965538D01*
X117495077Y-78053616D01*
X117441830Y-78145843D01*
X117427712Y-78163546D01*
X117413687Y-78186433D01*
X117349913Y-78261102D01*
X117288011Y-78338725D01*
X117266838Y-78358369D01*
X117245433Y-78383433D01*
X117174942Y-78443637D01*
X117107162Y-78506529D01*
X117078133Y-78526320D01*
X117048433Y-78551687D01*
X116974257Y-78597142D01*
X116903322Y-78645505D01*
X116866030Y-78663463D01*
X116827538Y-78687052D01*
X116752554Y-78718110D01*
X116681052Y-78752545D01*
X116635504Y-78766594D01*
X116588187Y-78786194D01*
X116515007Y-78803762D01*
X116445302Y-78825264D01*
X116391955Y-78833304D01*
X116336273Y-78846673D01*
X116267195Y-78852109D01*
X116201353Y-78862034D01*
X116141098Y-78862034D01*
X116078000Y-78867000D01*
X116014902Y-78862034D01*
X115954647Y-78862034D01*
X115888803Y-78852109D01*
X115819727Y-78846673D01*
X115764045Y-78833305D01*
X115710697Y-78825264D01*
X115640988Y-78803761D01*
X115567813Y-78786194D01*
X115520498Y-78766595D01*
X115474947Y-78752545D01*
X115403438Y-78718107D01*
X115328462Y-78687052D01*
X115289972Y-78663465D01*
X115252675Y-78645504D01*
X115181726Y-78597131D01*
X115107567Y-78551687D01*
X115077873Y-78526326D01*
X115048839Y-78506531D01*
X114981043Y-78443625D01*
X114910567Y-78383433D01*
X114889164Y-78358374D01*
X114867988Y-78338725D01*
X114806071Y-78261084D01*
X114742313Y-78186433D01*
X114728291Y-78163551D01*
X114714169Y-78145843D01*
X114660905Y-78053588D01*
X114606948Y-77965538D01*
X114599023Y-77946405D01*
X114590814Y-77932187D01*
X114548949Y-77825517D01*
X114507806Y-77726187D01*
X114504402Y-77712012D01*
X114500685Y-77702539D01*
X114472827Y-77580488D01*
X114447327Y-77474273D01*
X114446665Y-77465871D01*
X114445785Y-77462013D01*
X114434296Y-77308710D01*
X114427000Y-77216000D01*
X114434296Y-77123297D01*
X114445785Y-76969986D01*
X114446665Y-76966126D01*
X114447327Y-76957727D01*
X114472822Y-76851530D01*
X114500685Y-76729460D01*
X114504403Y-76719984D01*
X114507806Y-76705813D01*
X114548942Y-76606500D01*
X114590814Y-76499812D01*
X114599024Y-76485590D01*
X114606948Y-76466462D01*
X114660895Y-76378427D01*
X114714169Y-76286156D01*
X114728293Y-76268443D01*
X114742313Y-76245567D01*
X114806059Y-76170929D01*
X114867988Y-76093274D01*
X114889169Y-76073620D01*
X114910567Y-76048567D01*
X114981029Y-75988386D01*
X115048839Y-75925468D01*
X115077879Y-75905668D01*
X115107567Y-75880313D01*
X115181711Y-75834876D01*
X115252675Y-75786495D01*
X115289980Y-75768529D01*
X115328462Y-75744948D01*
X115403423Y-75713898D01*
X115474947Y-75679454D01*
X115520507Y-75665400D01*
X115567813Y-75645806D01*
X115640973Y-75628241D01*
X115710697Y-75606735D01*
X115764054Y-75598692D01*
X115819727Y-75585327D01*
X115888799Y-75579890D01*
X115954647Y-75569966D01*
X116014902Y-75569966D01*
X116078000Y-75565000D01*
X116141098Y-75569966D01*
G37*
G36*
X157018604Y-74745590D02*
G01*
X157059696Y-74745590D01*
X157105456Y-74754144D01*
X157157531Y-74759273D01*
X157197091Y-74771273D01*
X157232111Y-74777820D01*
X157280617Y-74796611D01*
X157335932Y-74813391D01*
X157367534Y-74830282D01*
X157395656Y-74841177D01*
X157444513Y-74871428D01*
X157500347Y-74901272D01*
X157523809Y-74920526D01*
X157544784Y-74933514D01*
X157591256Y-74975879D01*
X157644459Y-75019541D01*
X157660224Y-75038751D01*
X157674400Y-75051674D01*
X157715557Y-75106174D01*
X157762728Y-75163653D01*
X157771848Y-75180717D01*
X157780099Y-75191642D01*
X157812925Y-75257566D01*
X157850609Y-75328068D01*
X157854628Y-75341316D01*
X157858282Y-75348655D01*
X157879864Y-75424507D01*
X157904727Y-75506469D01*
X157905543Y-75514762D01*
X157906280Y-75517350D01*
X157913937Y-75599982D01*
X157923000Y-75692000D01*
X157913936Y-75784026D01*
X157906280Y-75866649D01*
X157905544Y-75869235D01*
X157904727Y-75877531D01*
X157879859Y-75959507D01*
X157858282Y-76035344D01*
X157854628Y-76042680D01*
X157850609Y-76055932D01*
X157812917Y-76126447D01*
X157780099Y-76192357D01*
X157771850Y-76203279D01*
X157762728Y-76220347D01*
X157715547Y-76277836D01*
X157674400Y-76332325D01*
X157660227Y-76345244D01*
X157644459Y-76364459D01*
X157591245Y-76408129D01*
X157544784Y-76450485D01*
X157523814Y-76463469D01*
X157500347Y-76482728D01*
X157444502Y-76512577D01*
X157395656Y-76542822D01*
X157367541Y-76553713D01*
X157335932Y-76570609D01*
X157280605Y-76587392D01*
X157232111Y-76606179D01*
X157197098Y-76612724D01*
X157157531Y-76624727D01*
X157105453Y-76629856D01*
X157059696Y-76638410D01*
X157018604Y-76638410D01*
X156972000Y-76643000D01*
X156925396Y-76638410D01*
X156884304Y-76638410D01*
X156838545Y-76629856D01*
X156786469Y-76624727D01*
X156746902Y-76612724D01*
X156711888Y-76606179D01*
X156663389Y-76587390D01*
X156608068Y-76570609D01*
X156576461Y-76553714D01*
X156548343Y-76542822D01*
X156499490Y-76512573D01*
X156443653Y-76482728D01*
X156420188Y-76463471D01*
X156399215Y-76450485D01*
X156352744Y-76408121D01*
X156299541Y-76364459D01*
X156283775Y-76345248D01*
X156269599Y-76332325D01*
X156228439Y-76277821D01*
X156181272Y-76220347D01*
X156172151Y-76203284D01*
X156163900Y-76192357D01*
X156131067Y-76126420D01*
X156093391Y-76055932D01*
X156089372Y-76042685D01*
X156085717Y-76035344D01*
X156064124Y-75959454D01*
X156039273Y-75877531D01*
X156038456Y-75869241D01*
X156037719Y-75866649D01*
X156030046Y-75783854D01*
X156021000Y-75692000D01*
X156030045Y-75600153D01*
X156037719Y-75517350D01*
X156038456Y-75514757D01*
X156039273Y-75506469D01*
X156064119Y-75424560D01*
X156085717Y-75348655D01*
X156089373Y-75341311D01*
X156093391Y-75328068D01*
X156131060Y-75257593D01*
X156163900Y-75191642D01*
X156172153Y-75180712D01*
X156181272Y-75163653D01*
X156228430Y-75106190D01*
X156269599Y-75051674D01*
X156283778Y-75038747D01*
X156299541Y-75019541D01*
X156352733Y-74975887D01*
X156399215Y-74933514D01*
X156420193Y-74920524D01*
X156443653Y-74901272D01*
X156499478Y-74871432D01*
X156548343Y-74841177D01*
X156576467Y-74830281D01*
X156608068Y-74813391D01*
X156663377Y-74796612D01*
X156711888Y-74777820D01*
X156746909Y-74771273D01*
X156786469Y-74759273D01*
X156838542Y-74754144D01*
X156884304Y-74745590D01*
X156925396Y-74745590D01*
X156972000Y-74741000D01*
X157018604Y-74745590D01*
G37*
G36*
X105781913Y-60109995D02*
G01*
X105797725Y-60116976D01*
X105805530Y-60118213D01*
X105838038Y-60134776D01*
X105883105Y-60154676D01*
X105961324Y-60232895D01*
X105981226Y-60277968D01*
X105997786Y-60310469D01*
X105999021Y-60318271D01*
X106006005Y-60334087D01*
X106014000Y-60403002D01*
X106014000Y-63802998D01*
X106006005Y-63871913D01*
X105999021Y-63887729D01*
X105997786Y-63895530D01*
X105981229Y-63928023D01*
X105961324Y-63973105D01*
X105883105Y-64051324D01*
X105838023Y-64071229D01*
X105805530Y-64087786D01*
X105797728Y-64089021D01*
X105781913Y-64096005D01*
X105712998Y-64104000D01*
X102313002Y-64104000D01*
X102244087Y-64096005D01*
X102228271Y-64089021D01*
X102220469Y-64087786D01*
X102187968Y-64071226D01*
X102142895Y-64051324D01*
X102064676Y-63973105D01*
X102044776Y-63928038D01*
X102028213Y-63895530D01*
X102026976Y-63887725D01*
X102019995Y-63871913D01*
X102012000Y-63802998D01*
X102012000Y-60403002D01*
X102019995Y-60334087D01*
X102026976Y-60318275D01*
X102028213Y-60310469D01*
X102044780Y-60277954D01*
X102064676Y-60232895D01*
X102142895Y-60154676D01*
X102187954Y-60134780D01*
X102220469Y-60118213D01*
X102228275Y-60116976D01*
X102244087Y-60109995D01*
X102313002Y-60102000D01*
X105712998Y-60102000D01*
X105781913Y-60109995D01*
G37*
G36*
X113782913Y-60109995D02*
G01*
X113798725Y-60116976D01*
X113806530Y-60118213D01*
X113839038Y-60134776D01*
X113884105Y-60154676D01*
X113962324Y-60232895D01*
X113982226Y-60277968D01*
X113998786Y-60310469D01*
X114000021Y-60318271D01*
X114007005Y-60334087D01*
X114015000Y-60403002D01*
X114015000Y-63802998D01*
X114007005Y-63871913D01*
X114000021Y-63887729D01*
X113998786Y-63895530D01*
X113982229Y-63928023D01*
X113962324Y-63973105D01*
X113884105Y-64051324D01*
X113839023Y-64071229D01*
X113806530Y-64087786D01*
X113798728Y-64089021D01*
X113782913Y-64096005D01*
X113713998Y-64104000D01*
X110314002Y-64104000D01*
X110245087Y-64096005D01*
X110229271Y-64089021D01*
X110221469Y-64087786D01*
X110188968Y-64071226D01*
X110143895Y-64051324D01*
X110065676Y-63973105D01*
X110045776Y-63928038D01*
X110029213Y-63895530D01*
X110027976Y-63887725D01*
X110020995Y-63871913D01*
X110013000Y-63802998D01*
X110013000Y-60403002D01*
X110020995Y-60334087D01*
X110027976Y-60318275D01*
X110029213Y-60310469D01*
X110045780Y-60277954D01*
X110065676Y-60232895D01*
X110143895Y-60154676D01*
X110188954Y-60134780D01*
X110221469Y-60118213D01*
X110229275Y-60116976D01*
X110245087Y-60109995D01*
X110314002Y-60102000D01*
X113713998Y-60102000D01*
X113782913Y-60109995D01*
G37*
G36*
X143754913Y-60109995D02*
G01*
X143770725Y-60116976D01*
X143778530Y-60118213D01*
X143811038Y-60134776D01*
X143856105Y-60154676D01*
X143934324Y-60232895D01*
X143954226Y-60277968D01*
X143970786Y-60310469D01*
X143972021Y-60318271D01*
X143979005Y-60334087D01*
X143987000Y-60403002D01*
X143987000Y-63802998D01*
X143979005Y-63871913D01*
X143972021Y-63887729D01*
X143970786Y-63895530D01*
X143954229Y-63928023D01*
X143934324Y-63973105D01*
X143856105Y-64051324D01*
X143811023Y-64071229D01*
X143778530Y-64087786D01*
X143770728Y-64089021D01*
X143754913Y-64096005D01*
X143685998Y-64104000D01*
X140286002Y-64104000D01*
X140217087Y-64096005D01*
X140201271Y-64089021D01*
X140193469Y-64087786D01*
X140160968Y-64071226D01*
X140115895Y-64051324D01*
X140037676Y-63973105D01*
X140017776Y-63928038D01*
X140001213Y-63895530D01*
X139999976Y-63887725D01*
X139992995Y-63871913D01*
X139985000Y-63802998D01*
X139985000Y-60403002D01*
X139992995Y-60334087D01*
X139999976Y-60318275D01*
X140001213Y-60310469D01*
X140017780Y-60277954D01*
X140037676Y-60232895D01*
X140115895Y-60154676D01*
X140160954Y-60134780D01*
X140193469Y-60118213D01*
X140201275Y-60116976D01*
X140217087Y-60109995D01*
X140286002Y-60102000D01*
X143685998Y-60102000D01*
X143754913Y-60109995D01*
G37*
G36*
X151755913Y-60109995D02*
G01*
X151771725Y-60116976D01*
X151779530Y-60118213D01*
X151812038Y-60134776D01*
X151857105Y-60154676D01*
X151935324Y-60232895D01*
X151955226Y-60277968D01*
X151971786Y-60310469D01*
X151973021Y-60318271D01*
X151980005Y-60334087D01*
X151988000Y-60403002D01*
X151988000Y-63802998D01*
X151980005Y-63871913D01*
X151973021Y-63887729D01*
X151971786Y-63895530D01*
X151955229Y-63928023D01*
X151935324Y-63973105D01*
X151857105Y-64051324D01*
X151812023Y-64071229D01*
X151779530Y-64087786D01*
X151771728Y-64089021D01*
X151755913Y-64096005D01*
X151686998Y-64104000D01*
X148287002Y-64104000D01*
X148218087Y-64096005D01*
X148202271Y-64089021D01*
X148194469Y-64087786D01*
X148161968Y-64071226D01*
X148116895Y-64051324D01*
X148038676Y-63973105D01*
X148018776Y-63928038D01*
X148002213Y-63895530D01*
X148000976Y-63887725D01*
X147993995Y-63871913D01*
X147986000Y-63802998D01*
X147986000Y-60403002D01*
X147993995Y-60334087D01*
X148000976Y-60318275D01*
X148002213Y-60310469D01*
X148018780Y-60277954D01*
X148038676Y-60232895D01*
X148116895Y-60154676D01*
X148161954Y-60134780D01*
X148194469Y-60118213D01*
X148202275Y-60116976D01*
X148218087Y-60109995D01*
X148287002Y-60102000D01*
X151686998Y-60102000D01*
X151755913Y-60109995D01*
G37*
G36*
X131575899Y-60927959D02*
G01*
X131592769Y-60939231D01*
X131604041Y-60956101D01*
X131606999Y-60970978D01*
X131607000Y-62981023D01*
X131604041Y-62995899D01*
X131592769Y-63012769D01*
X131575899Y-63024041D01*
X131561022Y-63026999D01*
X129550977Y-63027000D01*
X129536101Y-63024041D01*
X129519231Y-63012769D01*
X129507959Y-62995899D01*
X129505001Y-62981023D01*
X129505000Y-62981020D01*
X129505000Y-60970977D01*
X129507959Y-60956100D01*
X129519231Y-60939231D01*
X129536098Y-60927960D01*
X129536100Y-60927959D01*
X129536101Y-60927959D01*
X129541082Y-60926968D01*
X129550979Y-60925000D01*
X131561022Y-60925000D01*
X131561023Y-60925000D01*
X131575899Y-60927959D01*
G37*
G36*
X136655899Y-60927959D02*
G01*
X136672769Y-60939231D01*
X136684041Y-60956101D01*
X136686999Y-60970978D01*
X136687000Y-62981023D01*
X136684041Y-62995899D01*
X136672769Y-63012769D01*
X136655899Y-63024041D01*
X136641022Y-63026999D01*
X134630977Y-63027000D01*
X134616101Y-63024041D01*
X134599231Y-63012769D01*
X134587959Y-62995899D01*
X134585001Y-62981023D01*
X134585000Y-62981020D01*
X134585000Y-60970977D01*
X134587959Y-60956100D01*
X134599231Y-60939231D01*
X134616098Y-60927960D01*
X134616100Y-60927959D01*
X134616101Y-60927959D01*
X134621082Y-60926968D01*
X134630979Y-60925000D01*
X136641022Y-60925000D01*
X136641023Y-60925000D01*
X136655899Y-60927959D01*
G37*
M02*
