G04 #@! TF.GenerationSoftware,KiCad,Pcbnew,8.0.5*
G04 #@! TF.CreationDate,2026-05-04T16:45:14+02:00*
G04 #@! TF.ProjectId,c64-wedge-psu-pcb,6336342d-7765-4646-9765-2d7073752d70,rev?*
G04 #@! TF.SameCoordinates,Original*
G04 #@! TF.FileFunction,Profile,NP*
%FSLAX46Y46*%
G04 Gerber Fmt 4.6, Leading zero omitted, Abs format (unit mm)*
G04 Created by KiCad (PCBNEW 8.0.5) date 2026-05-04 16:45:14*
%MOMM*%
%LPD*%
G01*
G04 APERTURE LIST*
G04 #@! TA.AperFunction,Profile*
%ADD10C,0.050000*%
G04 #@! TD*
G04 APERTURE END LIST*
D10*
X98000000Y-117500000D02*
G75*
G02*
X97750000Y-117250000I-1J249999D01*
G01*
X92250000Y-117250000D02*
G75*
G02*
X92000000Y-117500000I-249999J-1D01*
G01*
X128000000Y-117500000D02*
G75*
G02*
X127750000Y-117250000I-1J249999D01*
G01*
X122250000Y-117250000D02*
G75*
G02*
X122000000Y-117500000I-249999J-1D01*
G01*
X158000000Y-117500000D02*
G75*
G02*
X157750000Y-117250000I-1J249999D01*
G01*
X152250000Y-117250000D02*
G75*
G02*
X152000000Y-117500000I-250000J0D01*
G01*
X90000000Y-117000000D02*
X90000000Y-60500000D01*
X152000000Y-117500000D02*
X128000000Y-117500000D01*
X90000000Y-60500000D02*
G75*
G02*
X90500000Y-60000000I500000J0D01*
G01*
X159500000Y-60000000D02*
G75*
G02*
X160000000Y-60500000I0J-500000D01*
G01*
X160000000Y-60500000D02*
X160000000Y-117000000D01*
X98000000Y-117500000D02*
X122000000Y-117500000D01*
X90500000Y-117500000D02*
G75*
G02*
X90000000Y-117000000I0J500000D01*
G01*
X90500000Y-60000000D02*
X159500000Y-60000000D01*
X92250000Y-117250000D02*
G75*
G02*
X97750000Y-117250000I2750000J0D01*
G01*
X158000000Y-117500000D02*
X159500000Y-117500000D01*
X160000000Y-117000000D02*
G75*
G02*
X159500000Y-117500000I-500000J0D01*
G01*
X122250000Y-117250000D02*
G75*
G02*
X127750000Y-117250000I2750000J0D01*
G01*
X152250000Y-117250000D02*
G75*
G02*
X157750000Y-117250000I2750000J0D01*
G01*
X92000000Y-117500000D02*
X90500000Y-117500000D01*
M02*
