G04 #@! TF.GenerationSoftware,KiCad,Pcbnew,(5.1.5)-3*
G04 #@! TF.CreationDate,2020-11-24T14:20:47+02:00*
G04 #@! TF.ProjectId,c64-wedge-psu-pcb,6336342d-7765-4646-9765-2d7073752d70,rev?*
G04 #@! TF.SameCoordinates,Original*
G04 #@! TF.FileFunction,Soldermask,Bot*
G04 #@! TF.FilePolarity,Negative*
%FSLAX46Y46*%
G04 Gerber Fmt 4.6, Leading zero omitted, Abs format (unit mm)*
G04 Created by KiCad (PCBNEW (5.1.5)-3) date 2020-11-24 14:20:47*
%MOMM*%
%LPD*%
G04 APERTURE LIST*
%ADD10C,0.100000*%
G04 APERTURE END LIST*
D10*
G36*
X116548228Y-109471703D02*
G01*
X116703100Y-109535853D01*
X116842481Y-109628985D01*
X116961015Y-109747519D01*
X117054147Y-109886900D01*
X117118297Y-110041772D01*
X117151000Y-110206184D01*
X117151000Y-110373816D01*
X117118297Y-110538228D01*
X117054147Y-110693100D01*
X116961015Y-110832481D01*
X116842481Y-110951015D01*
X116703100Y-111044147D01*
X116548228Y-111108297D01*
X116383816Y-111141000D01*
X116216184Y-111141000D01*
X116051772Y-111108297D01*
X115896900Y-111044147D01*
X115757519Y-110951015D01*
X115638985Y-110832481D01*
X115545853Y-110693100D01*
X115481703Y-110538228D01*
X115449000Y-110373816D01*
X115449000Y-110206184D01*
X115481703Y-110041772D01*
X115545853Y-109886900D01*
X115638985Y-109747519D01*
X115757519Y-109628985D01*
X115896900Y-109535853D01*
X116051772Y-109471703D01*
X116216184Y-109439000D01*
X116383816Y-109439000D01*
X116548228Y-109471703D01*
G37*
G36*
X112748228Y-109471703D02*
G01*
X112903100Y-109535853D01*
X113042481Y-109628985D01*
X113161015Y-109747519D01*
X113254147Y-109886900D01*
X113318297Y-110041772D01*
X113351000Y-110206184D01*
X113351000Y-110373816D01*
X113318297Y-110538228D01*
X113254147Y-110693100D01*
X113161015Y-110832481D01*
X113042481Y-110951015D01*
X112903100Y-111044147D01*
X112748228Y-111108297D01*
X112583816Y-111141000D01*
X112416184Y-111141000D01*
X112251772Y-111108297D01*
X112096900Y-111044147D01*
X111957519Y-110951015D01*
X111838985Y-110832481D01*
X111745853Y-110693100D01*
X111681703Y-110538228D01*
X111649000Y-110373816D01*
X111649000Y-110206184D01*
X111681703Y-110041772D01*
X111745853Y-109886900D01*
X111838985Y-109747519D01*
X111957519Y-109628985D01*
X112096900Y-109535853D01*
X112251772Y-109471703D01*
X112416184Y-109439000D01*
X112583816Y-109439000D01*
X112748228Y-109471703D01*
G37*
G36*
X112748228Y-106931703D02*
G01*
X112903100Y-106995853D01*
X113042481Y-107088985D01*
X113161015Y-107207519D01*
X113254147Y-107346900D01*
X113318297Y-107501772D01*
X113351000Y-107666184D01*
X113351000Y-107833816D01*
X113318297Y-107998228D01*
X113254147Y-108153100D01*
X113161015Y-108292481D01*
X113042481Y-108411015D01*
X112903100Y-108504147D01*
X112748228Y-108568297D01*
X112583816Y-108601000D01*
X112416184Y-108601000D01*
X112251772Y-108568297D01*
X112096900Y-108504147D01*
X111957519Y-108411015D01*
X111838985Y-108292481D01*
X111745853Y-108153100D01*
X111681703Y-107998228D01*
X111649000Y-107833816D01*
X111649000Y-107666184D01*
X111681703Y-107501772D01*
X111745853Y-107346900D01*
X111838985Y-107207519D01*
X111957519Y-107088985D01*
X112096900Y-106995853D01*
X112251772Y-106931703D01*
X112416184Y-106899000D01*
X112583816Y-106899000D01*
X112748228Y-106931703D01*
G37*
G36*
X116548228Y-106931703D02*
G01*
X116703100Y-106995853D01*
X116842481Y-107088985D01*
X116961015Y-107207519D01*
X117054147Y-107346900D01*
X117118297Y-107501772D01*
X117151000Y-107666184D01*
X117151000Y-107833816D01*
X117118297Y-107998228D01*
X117054147Y-108153100D01*
X116961015Y-108292481D01*
X116842481Y-108411015D01*
X116703100Y-108504147D01*
X116548228Y-108568297D01*
X116383816Y-108601000D01*
X116216184Y-108601000D01*
X116051772Y-108568297D01*
X115896900Y-108504147D01*
X115757519Y-108411015D01*
X115638985Y-108292481D01*
X115545853Y-108153100D01*
X115481703Y-107998228D01*
X115449000Y-107833816D01*
X115449000Y-107666184D01*
X115481703Y-107501772D01*
X115545853Y-107346900D01*
X115638985Y-107207519D01*
X115757519Y-107088985D01*
X115896900Y-106995853D01*
X116051772Y-106931703D01*
X116216184Y-106899000D01*
X116383816Y-106899000D01*
X116548228Y-106931703D01*
G37*
G36*
X132361113Y-104624567D02*
G01*
X132539917Y-104660133D01*
X132679448Y-104717929D01*
X132876776Y-104799664D01*
X133179943Y-105002234D01*
X133437766Y-105260057D01*
X133640336Y-105563224D01*
X133722071Y-105760552D01*
X133779867Y-105900083D01*
X133851000Y-106257692D01*
X133851000Y-106622308D01*
X133779867Y-106979917D01*
X133722071Y-107119448D01*
X133640336Y-107316776D01*
X133437766Y-107619943D01*
X133179943Y-107877766D01*
X132876776Y-108080336D01*
X132701114Y-108153097D01*
X132539917Y-108219867D01*
X132361113Y-108255433D01*
X132182309Y-108291000D01*
X131817691Y-108291000D01*
X131638887Y-108255433D01*
X131460083Y-108219867D01*
X131298886Y-108153097D01*
X131123224Y-108080336D01*
X130820057Y-107877766D01*
X130562234Y-107619943D01*
X130359664Y-107316776D01*
X130277929Y-107119448D01*
X130220133Y-106979917D01*
X130149000Y-106622308D01*
X130149000Y-106257692D01*
X130220133Y-105900083D01*
X130277929Y-105760552D01*
X130359664Y-105563224D01*
X130562234Y-105260057D01*
X130820057Y-105002234D01*
X131123224Y-104799664D01*
X131320552Y-104717929D01*
X131460083Y-104660133D01*
X131638888Y-104624566D01*
X131817691Y-104589000D01*
X132182309Y-104589000D01*
X132361113Y-104624567D01*
G37*
G36*
X112777395Y-103235546D02*
G01*
X112950466Y-103307234D01*
X112950467Y-103307235D01*
X113106227Y-103411310D01*
X113238690Y-103543773D01*
X113238691Y-103543775D01*
X113342766Y-103699534D01*
X113414454Y-103872605D01*
X113451000Y-104056333D01*
X113451000Y-104243667D01*
X113414454Y-104427395D01*
X113342766Y-104600466D01*
X113342765Y-104600467D01*
X113238690Y-104756227D01*
X113106227Y-104888690D01*
X113027818Y-104941081D01*
X112950466Y-104992766D01*
X112777395Y-105064454D01*
X112593667Y-105101000D01*
X112406333Y-105101000D01*
X112222605Y-105064454D01*
X112049534Y-104992766D01*
X111972182Y-104941081D01*
X111893773Y-104888690D01*
X111761310Y-104756227D01*
X111657235Y-104600467D01*
X111657234Y-104600466D01*
X111585546Y-104427395D01*
X111549000Y-104243667D01*
X111549000Y-104056333D01*
X111585546Y-103872605D01*
X111657234Y-103699534D01*
X111761309Y-103543775D01*
X111761310Y-103543773D01*
X111893773Y-103411310D01*
X112049533Y-103307235D01*
X112049534Y-103307234D01*
X112222605Y-103235546D01*
X112406333Y-103199000D01*
X112593667Y-103199000D01*
X112777395Y-103235546D01*
G37*
G36*
X116577395Y-101535546D02*
G01*
X116750466Y-101607234D01*
X116750467Y-101607235D01*
X116906227Y-101711310D01*
X117038690Y-101843773D01*
X117038691Y-101843775D01*
X117142766Y-101999534D01*
X117214454Y-102172605D01*
X117251000Y-102356333D01*
X117251000Y-102543667D01*
X117214454Y-102727395D01*
X117142766Y-102900466D01*
X117142765Y-102900467D01*
X117038690Y-103056227D01*
X116906227Y-103188690D01*
X116890797Y-103199000D01*
X116750466Y-103292766D01*
X116577395Y-103364454D01*
X116393667Y-103401000D01*
X116206333Y-103401000D01*
X116022605Y-103364454D01*
X115849534Y-103292766D01*
X115709203Y-103199000D01*
X115693773Y-103188690D01*
X115561310Y-103056227D01*
X115457235Y-102900467D01*
X115457234Y-102900466D01*
X115385546Y-102727395D01*
X115349000Y-102543667D01*
X115349000Y-102356333D01*
X115385546Y-102172605D01*
X115457234Y-101999534D01*
X115561309Y-101843775D01*
X115561310Y-101843773D01*
X115693773Y-101711310D01*
X115849533Y-101607235D01*
X115849534Y-101607234D01*
X116022605Y-101535546D01*
X116206333Y-101499000D01*
X116393667Y-101499000D01*
X116577395Y-101535546D01*
G37*
G36*
X148802585Y-99478802D02*
G01*
X148952410Y-99508604D01*
X149234674Y-99625521D01*
X149488705Y-99795259D01*
X149704741Y-100011295D01*
X149874479Y-100265326D01*
X149991396Y-100547590D01*
X150051000Y-100847240D01*
X150051000Y-101152760D01*
X149991396Y-101452410D01*
X149874479Y-101734674D01*
X149704741Y-101988705D01*
X149488705Y-102204741D01*
X149234674Y-102374479D01*
X148952410Y-102491396D01*
X148802585Y-102521198D01*
X148652761Y-102551000D01*
X148347239Y-102551000D01*
X148197415Y-102521198D01*
X148047590Y-102491396D01*
X147765326Y-102374479D01*
X147511295Y-102204741D01*
X147295259Y-101988705D01*
X147125521Y-101734674D01*
X147008604Y-101452410D01*
X146949000Y-101152760D01*
X146949000Y-100847240D01*
X147008604Y-100547590D01*
X147125521Y-100265326D01*
X147295259Y-100011295D01*
X147511295Y-99795259D01*
X147765326Y-99625521D01*
X148047590Y-99508604D01*
X148197415Y-99478802D01*
X148347239Y-99449000D01*
X148652761Y-99449000D01*
X148802585Y-99478802D01*
G37*
G36*
X156422585Y-99478802D02*
G01*
X156572410Y-99508604D01*
X156854674Y-99625521D01*
X157108705Y-99795259D01*
X157324741Y-100011295D01*
X157494479Y-100265326D01*
X157611396Y-100547590D01*
X157671000Y-100847240D01*
X157671000Y-101152760D01*
X157611396Y-101452410D01*
X157494479Y-101734674D01*
X157324741Y-101988705D01*
X157108705Y-102204741D01*
X156854674Y-102374479D01*
X156572410Y-102491396D01*
X156422585Y-102521198D01*
X156272761Y-102551000D01*
X155967239Y-102551000D01*
X155817415Y-102521198D01*
X155667590Y-102491396D01*
X155385326Y-102374479D01*
X155131295Y-102204741D01*
X154915259Y-101988705D01*
X154745521Y-101734674D01*
X154628604Y-101452410D01*
X154569000Y-101152760D01*
X154569000Y-100847240D01*
X154628604Y-100547590D01*
X154745521Y-100265326D01*
X154915259Y-100011295D01*
X155131295Y-99795259D01*
X155385326Y-99625521D01*
X155667590Y-99508604D01*
X155817415Y-99478802D01*
X155967239Y-99449000D01*
X156272761Y-99449000D01*
X156422585Y-99478802D01*
G37*
G36*
X96845331Y-99018211D02*
G01*
X97173092Y-99153974D01*
X97468070Y-99351072D01*
X97718928Y-99601930D01*
X97916026Y-99896908D01*
X98051789Y-100224669D01*
X98121000Y-100572616D01*
X98121000Y-100927384D01*
X98051789Y-101275331D01*
X97916026Y-101603092D01*
X97718928Y-101898070D01*
X97468070Y-102148928D01*
X97173092Y-102346026D01*
X96845331Y-102481789D01*
X96497384Y-102551000D01*
X96142616Y-102551000D01*
X95794669Y-102481789D01*
X95466908Y-102346026D01*
X95171930Y-102148928D01*
X94921072Y-101898070D01*
X94723974Y-101603092D01*
X94588211Y-101275331D01*
X94519000Y-100927384D01*
X94519000Y-100572616D01*
X94588211Y-100224669D01*
X94723974Y-99896908D01*
X94921072Y-99601930D01*
X95171930Y-99351072D01*
X95466908Y-99153974D01*
X95794669Y-99018211D01*
X96142616Y-98949000D01*
X96497384Y-98949000D01*
X96845331Y-99018211D01*
G37*
G36*
X112777395Y-99835546D02*
G01*
X112950466Y-99907234D01*
X112950467Y-99907235D01*
X113106227Y-100011310D01*
X113238690Y-100143773D01*
X113238691Y-100143775D01*
X113342766Y-100299534D01*
X113414454Y-100472605D01*
X113451000Y-100656333D01*
X113451000Y-100843667D01*
X113414454Y-101027395D01*
X113342766Y-101200466D01*
X113342765Y-101200467D01*
X113238690Y-101356227D01*
X113106227Y-101488690D01*
X113090797Y-101499000D01*
X112950466Y-101592766D01*
X112777395Y-101664454D01*
X112593667Y-101701000D01*
X112406333Y-101701000D01*
X112222605Y-101664454D01*
X112049534Y-101592766D01*
X111909203Y-101499000D01*
X111893773Y-101488690D01*
X111761310Y-101356227D01*
X111657235Y-101200467D01*
X111657234Y-101200466D01*
X111585546Y-101027395D01*
X111549000Y-100843667D01*
X111549000Y-100656333D01*
X111585546Y-100472605D01*
X111657234Y-100299534D01*
X111761309Y-100143775D01*
X111761310Y-100143773D01*
X111893773Y-100011310D01*
X112049533Y-99907235D01*
X112049534Y-99907234D01*
X112222605Y-99835546D01*
X112406333Y-99799000D01*
X112593667Y-99799000D01*
X112777395Y-99835546D01*
G37*
G36*
X116577395Y-98135546D02*
G01*
X116750466Y-98207234D01*
X116750467Y-98207235D01*
X116906227Y-98311310D01*
X117038690Y-98443773D01*
X117038691Y-98443775D01*
X117142766Y-98599534D01*
X117214454Y-98772605D01*
X117251000Y-98956333D01*
X117251000Y-99143667D01*
X117214454Y-99327395D01*
X117142766Y-99500466D01*
X117142765Y-99500467D01*
X117038690Y-99656227D01*
X116906227Y-99788690D01*
X116896394Y-99795260D01*
X116750466Y-99892766D01*
X116577395Y-99964454D01*
X116393667Y-100001000D01*
X116206333Y-100001000D01*
X116022605Y-99964454D01*
X115849534Y-99892766D01*
X115703606Y-99795260D01*
X115693773Y-99788690D01*
X115561310Y-99656227D01*
X115457235Y-99500467D01*
X115457234Y-99500466D01*
X115385546Y-99327395D01*
X115349000Y-99143667D01*
X115349000Y-98956333D01*
X115385546Y-98772605D01*
X115457234Y-98599534D01*
X115561309Y-98443775D01*
X115561310Y-98443773D01*
X115693773Y-98311310D01*
X115849533Y-98207235D01*
X115849534Y-98207234D01*
X116022605Y-98135546D01*
X116206333Y-98099000D01*
X116393667Y-98099000D01*
X116577395Y-98135546D01*
G37*
G36*
X113451000Y-98301000D02*
G01*
X111549000Y-98301000D01*
X111549000Y-96399000D01*
X113451000Y-96399000D01*
X113451000Y-98301000D01*
G37*
G36*
X132361112Y-93184566D02*
G01*
X132539917Y-93220133D01*
X132679448Y-93277929D01*
X132876776Y-93359664D01*
X133179943Y-93562234D01*
X133437766Y-93820057D01*
X133640336Y-94123224D01*
X133779867Y-94460084D01*
X133851000Y-94817691D01*
X133851000Y-95182309D01*
X133779867Y-95539916D01*
X133640336Y-95876776D01*
X133437766Y-96179943D01*
X133179943Y-96437766D01*
X132876776Y-96640336D01*
X132679448Y-96722071D01*
X132539917Y-96779867D01*
X132361112Y-96815434D01*
X132182309Y-96851000D01*
X131817691Y-96851000D01*
X131638888Y-96815434D01*
X131460083Y-96779867D01*
X131320552Y-96722071D01*
X131123224Y-96640336D01*
X130820057Y-96437766D01*
X130562234Y-96179943D01*
X130359664Y-95876776D01*
X130220133Y-95539916D01*
X130149000Y-95182309D01*
X130149000Y-94817691D01*
X130220133Y-94460084D01*
X130359664Y-94123224D01*
X130562234Y-93820057D01*
X130820057Y-93562234D01*
X131123224Y-93359664D01*
X131320552Y-93277929D01*
X131460083Y-93220133D01*
X131638887Y-93184567D01*
X131817691Y-93149000D01*
X132182309Y-93149000D01*
X132361112Y-93184566D01*
G37*
G36*
X128651000Y-91651000D02*
G01*
X125349000Y-91651000D01*
X125349000Y-88349000D01*
X128651000Y-88349000D01*
X128651000Y-91651000D01*
G37*
G36*
X153851000Y-90851000D02*
G01*
X152149000Y-90851000D01*
X152149000Y-89149000D01*
X153851000Y-89149000D01*
X153851000Y-90851000D01*
G37*
G36*
X104294072Y-86700918D02*
G01*
X104408292Y-86748229D01*
X104539939Y-86802759D01*
X104761212Y-86950610D01*
X104949390Y-87138788D01*
X105097241Y-87360061D01*
X105199082Y-87605928D01*
X105251000Y-87866938D01*
X105251000Y-88133062D01*
X105199082Y-88394072D01*
X105097241Y-88639939D01*
X104949390Y-88861212D01*
X104761212Y-89049390D01*
X104539939Y-89197241D01*
X104539938Y-89197242D01*
X104539937Y-89197242D01*
X104294072Y-89299082D01*
X104033063Y-89351000D01*
X103766937Y-89351000D01*
X103505928Y-89299082D01*
X103260063Y-89197242D01*
X103260062Y-89197242D01*
X103260061Y-89197241D01*
X103038788Y-89049390D01*
X102850610Y-88861212D01*
X102702759Y-88639939D01*
X102600918Y-88394072D01*
X102549000Y-88133062D01*
X102549000Y-87866938D01*
X102600918Y-87605928D01*
X102702759Y-87360061D01*
X102850610Y-87138788D01*
X103038788Y-86950610D01*
X103260061Y-86802759D01*
X103391709Y-86748229D01*
X103505928Y-86700918D01*
X103766937Y-86649000D01*
X104033063Y-86649000D01*
X104294072Y-86700918D01*
G37*
G36*
X94851000Y-89351000D02*
G01*
X92149000Y-89351000D01*
X92149000Y-86649000D01*
X94851000Y-86649000D01*
X94851000Y-89351000D01*
G37*
G36*
X116751000Y-88251000D02*
G01*
X114249000Y-88251000D01*
X114249000Y-85749000D01*
X116751000Y-85749000D01*
X116751000Y-88251000D01*
G37*
G36*
X142251000Y-88251000D02*
G01*
X139749000Y-88251000D01*
X139749000Y-85749000D01*
X142251000Y-85749000D01*
X142251000Y-88251000D01*
G37*
G36*
X153248228Y-85681703D02*
G01*
X153403100Y-85745853D01*
X153542481Y-85838985D01*
X153661015Y-85957519D01*
X153754147Y-86096900D01*
X153818297Y-86251772D01*
X153851000Y-86416184D01*
X153851000Y-86583816D01*
X153818297Y-86748228D01*
X153754147Y-86903100D01*
X153661015Y-87042481D01*
X153542481Y-87161015D01*
X153403100Y-87254147D01*
X153248228Y-87318297D01*
X153083816Y-87351000D01*
X152916184Y-87351000D01*
X152751772Y-87318297D01*
X152596900Y-87254147D01*
X152457519Y-87161015D01*
X152338985Y-87042481D01*
X152245853Y-86903100D01*
X152181703Y-86748228D01*
X152149000Y-86583816D01*
X152149000Y-86416184D01*
X152181703Y-86251772D01*
X152245853Y-86096900D01*
X152338985Y-85957519D01*
X152457519Y-85838985D01*
X152596900Y-85745853D01*
X152751772Y-85681703D01*
X152916184Y-85649000D01*
X153083816Y-85649000D01*
X153248228Y-85681703D01*
G37*
G36*
X155113512Y-80893927D02*
G01*
X155262812Y-80923624D01*
X155426784Y-80991544D01*
X155574354Y-81090147D01*
X155699853Y-81215646D01*
X155798456Y-81363216D01*
X155866376Y-81527188D01*
X155901000Y-81701259D01*
X155901000Y-81878741D01*
X155866376Y-82052812D01*
X155798456Y-82216784D01*
X155699853Y-82364354D01*
X155574354Y-82489853D01*
X155426784Y-82588456D01*
X155262812Y-82656376D01*
X155113512Y-82686073D01*
X155088742Y-82691000D01*
X154911258Y-82691000D01*
X154886488Y-82686073D01*
X154737188Y-82656376D01*
X154573216Y-82588456D01*
X154425646Y-82489853D01*
X154300147Y-82364354D01*
X154201544Y-82216784D01*
X154133624Y-82052812D01*
X154099000Y-81878741D01*
X154099000Y-81701259D01*
X154133624Y-81527188D01*
X154201544Y-81363216D01*
X154300147Y-81215646D01*
X154425646Y-81090147D01*
X154573216Y-80991544D01*
X154737188Y-80923624D01*
X154886488Y-80893927D01*
X154911258Y-80889000D01*
X155088742Y-80889000D01*
X155113512Y-80893927D01*
G37*
G36*
X141364903Y-78297075D02*
G01*
X141592571Y-78391378D01*
X141797466Y-78528285D01*
X141971715Y-78702534D01*
X142108622Y-78907429D01*
X142108623Y-78907431D01*
X142202925Y-79135097D01*
X142251000Y-79376786D01*
X142251000Y-79623214D01*
X142202925Y-79864903D01*
X142118678Y-80068295D01*
X142108622Y-80092571D01*
X141971715Y-80297466D01*
X141797466Y-80471715D01*
X141592571Y-80608622D01*
X141592570Y-80608623D01*
X141592569Y-80608623D01*
X141364903Y-80702925D01*
X141123214Y-80751000D01*
X140876786Y-80751000D01*
X140635097Y-80702925D01*
X140407431Y-80608623D01*
X140407430Y-80608623D01*
X140407429Y-80608622D01*
X140202534Y-80471715D01*
X140028285Y-80297466D01*
X139891378Y-80092571D01*
X139881323Y-80068295D01*
X139797075Y-79864903D01*
X139749000Y-79623214D01*
X139749000Y-79376786D01*
X139797075Y-79135097D01*
X139891377Y-78907431D01*
X139891378Y-78907429D01*
X140028285Y-78702534D01*
X140202534Y-78528285D01*
X140407429Y-78391378D01*
X140635097Y-78297075D01*
X140876786Y-78249000D01*
X141123214Y-78249000D01*
X141364903Y-78297075D01*
G37*
G36*
X115864903Y-78297075D02*
G01*
X116092571Y-78391378D01*
X116297466Y-78528285D01*
X116471715Y-78702534D01*
X116608622Y-78907429D01*
X116608623Y-78907431D01*
X116702925Y-79135097D01*
X116751000Y-79376786D01*
X116751000Y-79623214D01*
X116702925Y-79864903D01*
X116618678Y-80068295D01*
X116608622Y-80092571D01*
X116471715Y-80297466D01*
X116297466Y-80471715D01*
X116092571Y-80608622D01*
X116092570Y-80608623D01*
X116092569Y-80608623D01*
X115864903Y-80702925D01*
X115623214Y-80751000D01*
X115376786Y-80751000D01*
X115135097Y-80702925D01*
X114907431Y-80608623D01*
X114907430Y-80608623D01*
X114907429Y-80608622D01*
X114702534Y-80471715D01*
X114528285Y-80297466D01*
X114391378Y-80092571D01*
X114381323Y-80068295D01*
X114297075Y-79864903D01*
X114249000Y-79623214D01*
X114249000Y-79376786D01*
X114297075Y-79135097D01*
X114391377Y-78907431D01*
X114391378Y-78907429D01*
X114528285Y-78702534D01*
X114702534Y-78528285D01*
X114907429Y-78391378D01*
X115135097Y-78297075D01*
X115376786Y-78249000D01*
X115623214Y-78249000D01*
X115864903Y-78297075D01*
G37*
G36*
X155901000Y-80151000D02*
G01*
X154099000Y-80151000D01*
X154099000Y-78349000D01*
X155901000Y-78349000D01*
X155901000Y-80151000D01*
G37*
G36*
X151748228Y-78431703D02*
G01*
X151903100Y-78495853D01*
X152042481Y-78588985D01*
X152161015Y-78707519D01*
X152254147Y-78846900D01*
X152318297Y-79001772D01*
X152351000Y-79166184D01*
X152351000Y-79333816D01*
X152318297Y-79498228D01*
X152254147Y-79653100D01*
X152161015Y-79792481D01*
X152042481Y-79911015D01*
X151903100Y-80004147D01*
X151748228Y-80068297D01*
X151583816Y-80101000D01*
X151416184Y-80101000D01*
X151251772Y-80068297D01*
X151096900Y-80004147D01*
X150957519Y-79911015D01*
X150838985Y-79792481D01*
X150745853Y-79653100D01*
X150681703Y-79498228D01*
X150649000Y-79333816D01*
X150649000Y-79166184D01*
X150681703Y-79001772D01*
X150745853Y-78846900D01*
X150838985Y-78707519D01*
X150957519Y-78588985D01*
X151096900Y-78495853D01*
X151251772Y-78431703D01*
X151416184Y-78399000D01*
X151583816Y-78399000D01*
X151748228Y-78431703D01*
G37*
G36*
X93894072Y-76300918D02*
G01*
X94139939Y-76402759D01*
X94251328Y-76477187D01*
X94361211Y-76550609D01*
X94549391Y-76738789D01*
X94697242Y-76960063D01*
X94799082Y-77205928D01*
X94851000Y-77466937D01*
X94851000Y-77733063D01*
X94799082Y-77994072D01*
X94697241Y-78239939D01*
X94624368Y-78349000D01*
X94549391Y-78461211D01*
X94361211Y-78649391D01*
X94274215Y-78707520D01*
X94139939Y-78797241D01*
X94139938Y-78797242D01*
X94139937Y-78797242D01*
X93894072Y-78899082D01*
X93633063Y-78951000D01*
X93366937Y-78951000D01*
X93105928Y-78899082D01*
X92860063Y-78797242D01*
X92860062Y-78797242D01*
X92860061Y-78797241D01*
X92725785Y-78707520D01*
X92638789Y-78649391D01*
X92450609Y-78461211D01*
X92375632Y-78349000D01*
X92302759Y-78239939D01*
X92200918Y-77994072D01*
X92149000Y-77733063D01*
X92149000Y-77466937D01*
X92200918Y-77205928D01*
X92302758Y-76960063D01*
X92450609Y-76738789D01*
X92638789Y-76550609D01*
X92748672Y-76477187D01*
X92860061Y-76402759D01*
X93105928Y-76300918D01*
X93366937Y-76249000D01*
X93633063Y-76249000D01*
X93894072Y-76300918D01*
G37*
G36*
X104294072Y-76300918D02*
G01*
X104539939Y-76402759D01*
X104651328Y-76477187D01*
X104761211Y-76550609D01*
X104949391Y-76738789D01*
X105097242Y-76960063D01*
X105199082Y-77205928D01*
X105251000Y-77466937D01*
X105251000Y-77733063D01*
X105199082Y-77994072D01*
X105097241Y-78239939D01*
X105024368Y-78349000D01*
X104949391Y-78461211D01*
X104761211Y-78649391D01*
X104674215Y-78707520D01*
X104539939Y-78797241D01*
X104539938Y-78797242D01*
X104539937Y-78797242D01*
X104294072Y-78899082D01*
X104033063Y-78951000D01*
X103766937Y-78951000D01*
X103505928Y-78899082D01*
X103260063Y-78797242D01*
X103260062Y-78797242D01*
X103260061Y-78797241D01*
X103125785Y-78707520D01*
X103038789Y-78649391D01*
X102850609Y-78461211D01*
X102775632Y-78349000D01*
X102702759Y-78239939D01*
X102600918Y-77994072D01*
X102549000Y-77733063D01*
X102549000Y-77466937D01*
X102600918Y-77205928D01*
X102702758Y-76960063D01*
X102850609Y-76738789D01*
X103038789Y-76550609D01*
X103148672Y-76477187D01*
X103260061Y-76402759D01*
X103505928Y-76300918D01*
X103766937Y-76249000D01*
X104033063Y-76249000D01*
X104294072Y-76300918D01*
G37*
G36*
X127375256Y-75691298D02*
G01*
X127481579Y-75712447D01*
X127782042Y-75836903D01*
X128052451Y-76017585D01*
X128282415Y-76247549D01*
X128463097Y-76517958D01*
X128577361Y-76793815D01*
X128587553Y-76818422D01*
X128651000Y-77137389D01*
X128651000Y-77462611D01*
X128637934Y-77528297D01*
X128587553Y-77781579D01*
X128463097Y-78082042D01*
X128282415Y-78352451D01*
X128052451Y-78582415D01*
X127782042Y-78763097D01*
X127481579Y-78887553D01*
X127381655Y-78907429D01*
X127162611Y-78951000D01*
X126837389Y-78951000D01*
X126618345Y-78907429D01*
X126518421Y-78887553D01*
X126217958Y-78763097D01*
X125947549Y-78582415D01*
X125717585Y-78352451D01*
X125536903Y-78082042D01*
X125412447Y-77781579D01*
X125362066Y-77528297D01*
X125349000Y-77462611D01*
X125349000Y-77137389D01*
X125412447Y-76818422D01*
X125422640Y-76793815D01*
X125536903Y-76517958D01*
X125717585Y-76247549D01*
X125947549Y-76017585D01*
X126217958Y-75836903D01*
X126518421Y-75712447D01*
X126624744Y-75691298D01*
X126837389Y-75649000D01*
X127162611Y-75649000D01*
X127375256Y-75691298D01*
G37*
G36*
X151748228Y-75891703D02*
G01*
X151903100Y-75955853D01*
X152042481Y-76048985D01*
X152161015Y-76167519D01*
X152254147Y-76306900D01*
X152318297Y-76461772D01*
X152351000Y-76626184D01*
X152351000Y-76793816D01*
X152318297Y-76958228D01*
X152254147Y-77113100D01*
X152161015Y-77252481D01*
X152042481Y-77371015D01*
X151903100Y-77464147D01*
X151748228Y-77528297D01*
X151583816Y-77561000D01*
X151416184Y-77561000D01*
X151251772Y-77528297D01*
X151096900Y-77464147D01*
X150957519Y-77371015D01*
X150838985Y-77252481D01*
X150745853Y-77113100D01*
X150681703Y-76958228D01*
X150649000Y-76793816D01*
X150649000Y-76626184D01*
X150681703Y-76461772D01*
X150745853Y-76306900D01*
X150838985Y-76167519D01*
X150957519Y-76048985D01*
X151096900Y-75955853D01*
X151251772Y-75891703D01*
X151416184Y-75859000D01*
X151583816Y-75859000D01*
X151748228Y-75891703D01*
G37*
G36*
X150671304Y-60787002D02*
G01*
X151090139Y-60960489D01*
X151090141Y-60960490D01*
X151279891Y-61087277D01*
X151467082Y-61212354D01*
X151787646Y-61532918D01*
X152039511Y-61909861D01*
X152212998Y-62328696D01*
X152301440Y-62773327D01*
X152301440Y-63226673D01*
X152212998Y-63671304D01*
X152039511Y-64090139D01*
X152039510Y-64090141D01*
X151787645Y-64467083D01*
X151467083Y-64787645D01*
X151090141Y-65039510D01*
X151090140Y-65039511D01*
X151090139Y-65039511D01*
X150671304Y-65212998D01*
X150226673Y-65301440D01*
X149773327Y-65301440D01*
X149328696Y-65212998D01*
X148909861Y-65039511D01*
X148909860Y-65039511D01*
X148909859Y-65039510D01*
X148532917Y-64787645D01*
X148212355Y-64467083D01*
X147960490Y-64090141D01*
X147960489Y-64090139D01*
X147787002Y-63671304D01*
X147698560Y-63226673D01*
X147698560Y-62773327D01*
X147787002Y-62328696D01*
X147960489Y-61909861D01*
X148212354Y-61532918D01*
X148532918Y-61212354D01*
X148720109Y-61087277D01*
X148909859Y-60960490D01*
X148909861Y-60960489D01*
X149328696Y-60787002D01*
X149773327Y-60698560D01*
X150226673Y-60698560D01*
X150671304Y-60787002D01*
G37*
G36*
X142671304Y-60787002D02*
G01*
X143090139Y-60960489D01*
X143090141Y-60960490D01*
X143279891Y-61087277D01*
X143467082Y-61212354D01*
X143787646Y-61532918D01*
X144039511Y-61909861D01*
X144212998Y-62328696D01*
X144301440Y-62773327D01*
X144301440Y-63226673D01*
X144212998Y-63671304D01*
X144039511Y-64090139D01*
X144039510Y-64090141D01*
X143787645Y-64467083D01*
X143467083Y-64787645D01*
X143090141Y-65039510D01*
X143090140Y-65039511D01*
X143090139Y-65039511D01*
X142671304Y-65212998D01*
X142226673Y-65301440D01*
X141773327Y-65301440D01*
X141328696Y-65212998D01*
X140909861Y-65039511D01*
X140909860Y-65039511D01*
X140909859Y-65039510D01*
X140532917Y-64787645D01*
X140212355Y-64467083D01*
X139960490Y-64090141D01*
X139960489Y-64090139D01*
X139787002Y-63671304D01*
X139698560Y-63226673D01*
X139698560Y-62773327D01*
X139787002Y-62328696D01*
X139960489Y-61909861D01*
X140212354Y-61532918D01*
X140532918Y-61212354D01*
X140720109Y-61087277D01*
X140909859Y-60960490D01*
X140909861Y-60960489D01*
X141328696Y-60787002D01*
X141773327Y-60698560D01*
X142226673Y-60698560D01*
X142671304Y-60787002D01*
G37*
G36*
X112671304Y-60787002D02*
G01*
X113090139Y-60960489D01*
X113090141Y-60960490D01*
X113279891Y-61087277D01*
X113467082Y-61212354D01*
X113787646Y-61532918D01*
X114039511Y-61909861D01*
X114212998Y-62328696D01*
X114301440Y-62773327D01*
X114301440Y-63226673D01*
X114212998Y-63671304D01*
X114039511Y-64090139D01*
X114039510Y-64090141D01*
X113787645Y-64467083D01*
X113467083Y-64787645D01*
X113090141Y-65039510D01*
X113090140Y-65039511D01*
X113090139Y-65039511D01*
X112671304Y-65212998D01*
X112226673Y-65301440D01*
X111773327Y-65301440D01*
X111328696Y-65212998D01*
X110909861Y-65039511D01*
X110909860Y-65039511D01*
X110909859Y-65039510D01*
X110532917Y-64787645D01*
X110212355Y-64467083D01*
X109960490Y-64090141D01*
X109960489Y-64090139D01*
X109787002Y-63671304D01*
X109698560Y-63226673D01*
X109698560Y-62773327D01*
X109787002Y-62328696D01*
X109960489Y-61909861D01*
X110212354Y-61532918D01*
X110532918Y-61212354D01*
X110720109Y-61087277D01*
X110909859Y-60960490D01*
X110909861Y-60960489D01*
X111328696Y-60787002D01*
X111773327Y-60698560D01*
X112226673Y-60698560D01*
X112671304Y-60787002D01*
G37*
G36*
X104671304Y-60787002D02*
G01*
X105090139Y-60960489D01*
X105090141Y-60960490D01*
X105279891Y-61087277D01*
X105467082Y-61212354D01*
X105787646Y-61532918D01*
X106039511Y-61909861D01*
X106212998Y-62328696D01*
X106301440Y-62773327D01*
X106301440Y-63226673D01*
X106212998Y-63671304D01*
X106039511Y-64090139D01*
X106039510Y-64090141D01*
X105787645Y-64467083D01*
X105467083Y-64787645D01*
X105090141Y-65039510D01*
X105090140Y-65039511D01*
X105090139Y-65039511D01*
X104671304Y-65212998D01*
X104226673Y-65301440D01*
X103773327Y-65301440D01*
X103328696Y-65212998D01*
X102909861Y-65039511D01*
X102909860Y-65039511D01*
X102909859Y-65039510D01*
X102532917Y-64787645D01*
X102212355Y-64467083D01*
X101960490Y-64090141D01*
X101960489Y-64090139D01*
X101787002Y-63671304D01*
X101698560Y-63226673D01*
X101698560Y-62773327D01*
X101787002Y-62328696D01*
X101960489Y-61909861D01*
X102212354Y-61532918D01*
X102532918Y-61212354D01*
X102720109Y-61087277D01*
X102909859Y-60960490D01*
X102909861Y-60960489D01*
X103328696Y-60787002D01*
X103773327Y-60698560D01*
X104226673Y-60698560D01*
X104671304Y-60787002D01*
G37*
M02*
