G04 #@! TF.GenerationSoftware,KiCad,Pcbnew,8.0.6*
G04 #@! TF.CreationDate,2026-04-11T14:07:19+03:00*
G04 #@! TF.ProjectId,c64-wedge-psu-pcb,6336342d-7765-4646-9765-2d7073752d70,rev?*
G04 #@! TF.SameCoordinates,Original*
G04 #@! TF.FileFunction,Legend,Bot*
G04 #@! TF.FilePolarity,Positive*
%FSLAX46Y46*%
G04 Gerber Fmt 4.6, Leading zero omitted, Abs format (unit mm)*
G04 Created by KiCad (PCBNEW 8.0.6) date 2026-04-11 14:07:19*
%MOMM*%
%LPD*%
G01*
G04 APERTURE LIST*
%ADD10C,0.125000*%
%ADD11C,0.150000*%
%ADD12C,0.120000*%
%ADD13C,0.100000*%
G04 APERTURE END LIST*
D10*
X109836287Y-86961404D02*
X109360097Y-86961404D01*
X109931525Y-87247119D02*
X109598192Y-86247119D01*
X109598192Y-86247119D02*
X109264859Y-87247119D01*
X108931525Y-87247119D02*
X108931525Y-86247119D01*
X108931525Y-86247119D02*
X108693430Y-86247119D01*
X108693430Y-86247119D02*
X108550573Y-86294738D01*
X108550573Y-86294738D02*
X108455335Y-86389976D01*
X108455335Y-86389976D02*
X108407716Y-86485214D01*
X108407716Y-86485214D02*
X108360097Y-86675690D01*
X108360097Y-86675690D02*
X108360097Y-86818547D01*
X108360097Y-86818547D02*
X108407716Y-87009023D01*
X108407716Y-87009023D02*
X108455335Y-87104261D01*
X108455335Y-87104261D02*
X108550573Y-87199500D01*
X108550573Y-87199500D02*
X108693430Y-87247119D01*
X108693430Y-87247119D02*
X108931525Y-87247119D01*
X107931525Y-87247119D02*
X107931525Y-86247119D01*
X107931525Y-86247119D02*
X107693430Y-86247119D01*
X107693430Y-86247119D02*
X107550573Y-86294738D01*
X107550573Y-86294738D02*
X107455335Y-86389976D01*
X107455335Y-86389976D02*
X107407716Y-86485214D01*
X107407716Y-86485214D02*
X107360097Y-86675690D01*
X107360097Y-86675690D02*
X107360097Y-86818547D01*
X107360097Y-86818547D02*
X107407716Y-87009023D01*
X107407716Y-87009023D02*
X107455335Y-87104261D01*
X107455335Y-87104261D02*
X107550573Y-87199500D01*
X107550573Y-87199500D02*
X107693430Y-87247119D01*
X107693430Y-87247119D02*
X107931525Y-87247119D01*
X106169620Y-87247119D02*
X106169620Y-86247119D01*
X106169620Y-86723309D02*
X105598192Y-86723309D01*
X105598192Y-87247119D02*
X105598192Y-86247119D01*
X105122001Y-86723309D02*
X104788668Y-86723309D01*
X104645811Y-87247119D02*
X105122001Y-87247119D01*
X105122001Y-87247119D02*
X105122001Y-86247119D01*
X105122001Y-86247119D02*
X104645811Y-86247119D01*
X104264858Y-86961404D02*
X103788668Y-86961404D01*
X104360096Y-87247119D02*
X104026763Y-86247119D01*
X104026763Y-86247119D02*
X103693430Y-87247119D01*
X103502953Y-86247119D02*
X102931525Y-86247119D01*
X103217239Y-87247119D02*
X103217239Y-86247119D01*
X102645810Y-87199500D02*
X102502953Y-87247119D01*
X102502953Y-87247119D02*
X102264858Y-87247119D01*
X102264858Y-87247119D02*
X102169620Y-87199500D01*
X102169620Y-87199500D02*
X102122001Y-87151880D01*
X102122001Y-87151880D02*
X102074382Y-87056642D01*
X102074382Y-87056642D02*
X102074382Y-86961404D01*
X102074382Y-86961404D02*
X102122001Y-86866166D01*
X102122001Y-86866166D02*
X102169620Y-86818547D01*
X102169620Y-86818547D02*
X102264858Y-86770928D01*
X102264858Y-86770928D02*
X102455334Y-86723309D01*
X102455334Y-86723309D02*
X102550572Y-86675690D01*
X102550572Y-86675690D02*
X102598191Y-86628071D01*
X102598191Y-86628071D02*
X102645810Y-86532833D01*
X102645810Y-86532833D02*
X102645810Y-86437595D01*
X102645810Y-86437595D02*
X102598191Y-86342357D01*
X102598191Y-86342357D02*
X102550572Y-86294738D01*
X102550572Y-86294738D02*
X102455334Y-86247119D01*
X102455334Y-86247119D02*
X102217239Y-86247119D01*
X102217239Y-86247119D02*
X102074382Y-86294738D01*
X101645810Y-87247119D02*
X101645810Y-86247119D01*
X101169620Y-87247119D02*
X101169620Y-86247119D01*
X101169620Y-86247119D02*
X100598192Y-87247119D01*
X100598192Y-87247119D02*
X100598192Y-86247119D01*
X100122001Y-87247119D02*
X100122001Y-86247119D01*
X99550573Y-87247119D02*
X99979144Y-86675690D01*
X99550573Y-86247119D02*
X100122001Y-86818547D01*
X99122001Y-87151880D02*
X99074382Y-87199500D01*
X99074382Y-87199500D02*
X99122001Y-87247119D01*
X99122001Y-87247119D02*
X99169620Y-87199500D01*
X99169620Y-87199500D02*
X99122001Y-87151880D01*
X99122001Y-87151880D02*
X99122001Y-87247119D01*
X99122001Y-86866166D02*
X99169620Y-86294738D01*
X99169620Y-86294738D02*
X99122001Y-86247119D01*
X99122001Y-86247119D02*
X99074382Y-86294738D01*
X99074382Y-86294738D02*
X99122001Y-86866166D01*
X99122001Y-86866166D02*
X99122001Y-86247119D01*
D11*
X155158839Y-75281533D02*
X154549316Y-75281533D01*
X153596935Y-75548200D02*
X153482649Y-75586295D01*
X153482649Y-75586295D02*
X153292173Y-75586295D01*
X153292173Y-75586295D02*
X153215982Y-75548200D01*
X153215982Y-75548200D02*
X153177887Y-75510104D01*
X153177887Y-75510104D02*
X153139792Y-75433914D01*
X153139792Y-75433914D02*
X153139792Y-75357723D01*
X153139792Y-75357723D02*
X153177887Y-75281533D01*
X153177887Y-75281533D02*
X153215982Y-75243438D01*
X153215982Y-75243438D02*
X153292173Y-75205342D01*
X153292173Y-75205342D02*
X153444554Y-75167247D01*
X153444554Y-75167247D02*
X153520744Y-75129152D01*
X153520744Y-75129152D02*
X153558839Y-75091057D01*
X153558839Y-75091057D02*
X153596935Y-75014866D01*
X153596935Y-75014866D02*
X153596935Y-74938676D01*
X153596935Y-74938676D02*
X153558839Y-74862485D01*
X153558839Y-74862485D02*
X153520744Y-74824390D01*
X153520744Y-74824390D02*
X153444554Y-74786295D01*
X153444554Y-74786295D02*
X153254077Y-74786295D01*
X153254077Y-74786295D02*
X153139792Y-74824390D01*
X152796934Y-75586295D02*
X152796934Y-74786295D01*
X152454077Y-75586295D02*
X152454077Y-75167247D01*
X152454077Y-75167247D02*
X152492172Y-75091057D01*
X152492172Y-75091057D02*
X152568363Y-75052961D01*
X152568363Y-75052961D02*
X152682649Y-75052961D01*
X152682649Y-75052961D02*
X152758839Y-75091057D01*
X152758839Y-75091057D02*
X152796934Y-75129152D01*
X151958839Y-75586295D02*
X152035029Y-75548200D01*
X152035029Y-75548200D02*
X152073124Y-75510104D01*
X152073124Y-75510104D02*
X152111220Y-75433914D01*
X152111220Y-75433914D02*
X152111220Y-75205342D01*
X152111220Y-75205342D02*
X152073124Y-75129152D01*
X152073124Y-75129152D02*
X152035029Y-75091057D01*
X152035029Y-75091057D02*
X151958839Y-75052961D01*
X151958839Y-75052961D02*
X151844553Y-75052961D01*
X151844553Y-75052961D02*
X151768362Y-75091057D01*
X151768362Y-75091057D02*
X151730267Y-75129152D01*
X151730267Y-75129152D02*
X151692172Y-75205342D01*
X151692172Y-75205342D02*
X151692172Y-75433914D01*
X151692172Y-75433914D02*
X151730267Y-75510104D01*
X151730267Y-75510104D02*
X151768362Y-75548200D01*
X151768362Y-75548200D02*
X151844553Y-75586295D01*
X151844553Y-75586295D02*
X151958839Y-75586295D01*
X151349314Y-75586295D02*
X151349314Y-75052961D01*
X151349314Y-75205342D02*
X151311219Y-75129152D01*
X151311219Y-75129152D02*
X151273124Y-75091057D01*
X151273124Y-75091057D02*
X151196933Y-75052961D01*
X151196933Y-75052961D02*
X151120743Y-75052961D01*
X150968362Y-75052961D02*
X150663600Y-75052961D01*
X150854076Y-74786295D02*
X150854076Y-75472009D01*
X150854076Y-75472009D02*
X150815981Y-75548200D01*
X150815981Y-75548200D02*
X150739791Y-75586295D01*
X150739791Y-75586295D02*
X150663600Y-75586295D01*
X149673124Y-75586295D02*
X149749314Y-75548200D01*
X149749314Y-75548200D02*
X149787409Y-75472009D01*
X149787409Y-75472009D02*
X149787409Y-74786295D01*
X149063599Y-75548200D02*
X149139790Y-75586295D01*
X149139790Y-75586295D02*
X149292171Y-75586295D01*
X149292171Y-75586295D02*
X149368361Y-75548200D01*
X149368361Y-75548200D02*
X149406457Y-75472009D01*
X149406457Y-75472009D02*
X149406457Y-75167247D01*
X149406457Y-75167247D02*
X149368361Y-75091057D01*
X149368361Y-75091057D02*
X149292171Y-75052961D01*
X149292171Y-75052961D02*
X149139790Y-75052961D01*
X149139790Y-75052961D02*
X149063599Y-75091057D01*
X149063599Y-75091057D02*
X149025504Y-75167247D01*
X149025504Y-75167247D02*
X149025504Y-75243438D01*
X149025504Y-75243438D02*
X149406457Y-75319628D01*
X148339790Y-75052961D02*
X148339790Y-75700580D01*
X148339790Y-75700580D02*
X148377885Y-75776771D01*
X148377885Y-75776771D02*
X148415981Y-75814866D01*
X148415981Y-75814866D02*
X148492171Y-75852961D01*
X148492171Y-75852961D02*
X148606457Y-75852961D01*
X148606457Y-75852961D02*
X148682647Y-75814866D01*
X148339790Y-75548200D02*
X148415981Y-75586295D01*
X148415981Y-75586295D02*
X148568362Y-75586295D01*
X148568362Y-75586295D02*
X148644552Y-75548200D01*
X148644552Y-75548200D02*
X148682647Y-75510104D01*
X148682647Y-75510104D02*
X148720743Y-75433914D01*
X148720743Y-75433914D02*
X148720743Y-75205342D01*
X148720743Y-75205342D02*
X148682647Y-75129152D01*
X148682647Y-75129152D02*
X148644552Y-75091057D01*
X148644552Y-75091057D02*
X148568362Y-75052961D01*
X148568362Y-75052961D02*
X148415981Y-75052961D01*
X148415981Y-75052961D02*
X148339790Y-75091057D01*
D12*
X99568000Y-74422000D02*
X94488000Y-74422000D01*
X92456000Y-74422000D02*
X90166000Y-74422000D01*
X159000000Y-74422000D02*
X113030000Y-74422000D01*
X119000000Y-75000000D02*
X119000000Y-113000000D01*
D11*
X158027666Y-95609580D02*
X158075285Y-95657200D01*
X158075285Y-95657200D02*
X158218142Y-95704819D01*
X158218142Y-95704819D02*
X158313380Y-95704819D01*
X158313380Y-95704819D02*
X158456237Y-95657200D01*
X158456237Y-95657200D02*
X158551475Y-95561961D01*
X158551475Y-95561961D02*
X158599094Y-95466723D01*
X158599094Y-95466723D02*
X158646713Y-95276247D01*
X158646713Y-95276247D02*
X158646713Y-95133390D01*
X158646713Y-95133390D02*
X158599094Y-94942914D01*
X158599094Y-94942914D02*
X158551475Y-94847676D01*
X158551475Y-94847676D02*
X158456237Y-94752438D01*
X158456237Y-94752438D02*
X158313380Y-94704819D01*
X158313380Y-94704819D02*
X158218142Y-94704819D01*
X158218142Y-94704819D02*
X158075285Y-94752438D01*
X158075285Y-94752438D02*
X158027666Y-94800057D01*
X157694332Y-94704819D02*
X157075285Y-94704819D01*
X157075285Y-94704819D02*
X157408618Y-95085771D01*
X157408618Y-95085771D02*
X157265761Y-95085771D01*
X157265761Y-95085771D02*
X157170523Y-95133390D01*
X157170523Y-95133390D02*
X157122904Y-95181009D01*
X157122904Y-95181009D02*
X157075285Y-95276247D01*
X157075285Y-95276247D02*
X157075285Y-95514342D01*
X157075285Y-95514342D02*
X157122904Y-95609580D01*
X157122904Y-95609580D02*
X157170523Y-95657200D01*
X157170523Y-95657200D02*
X157265761Y-95704819D01*
X157265761Y-95704819D02*
X157551475Y-95704819D01*
X157551475Y-95704819D02*
X157646713Y-95657200D01*
X157646713Y-95657200D02*
X157694332Y-95609580D01*
X157016238Y-96412485D02*
X156978142Y-96374390D01*
X156978142Y-96374390D02*
X156901952Y-96336295D01*
X156901952Y-96336295D02*
X156711476Y-96336295D01*
X156711476Y-96336295D02*
X156635285Y-96374390D01*
X156635285Y-96374390D02*
X156597190Y-96412485D01*
X156597190Y-96412485D02*
X156559095Y-96488676D01*
X156559095Y-96488676D02*
X156559095Y-96564866D01*
X156559095Y-96564866D02*
X156597190Y-96679152D01*
X156597190Y-96679152D02*
X157054333Y-97136295D01*
X157054333Y-97136295D02*
X156559095Y-97136295D01*
X156254333Y-96412485D02*
X156216237Y-96374390D01*
X156216237Y-96374390D02*
X156140047Y-96336295D01*
X156140047Y-96336295D02*
X155949571Y-96336295D01*
X155949571Y-96336295D02*
X155873380Y-96374390D01*
X155873380Y-96374390D02*
X155835285Y-96412485D01*
X155835285Y-96412485D02*
X155797190Y-96488676D01*
X155797190Y-96488676D02*
X155797190Y-96564866D01*
X155797190Y-96564866D02*
X155835285Y-96679152D01*
X155835285Y-96679152D02*
X156292428Y-97136295D01*
X156292428Y-97136295D02*
X155797190Y-97136295D01*
X155301951Y-96336295D02*
X155225761Y-96336295D01*
X155225761Y-96336295D02*
X155149570Y-96374390D01*
X155149570Y-96374390D02*
X155111475Y-96412485D01*
X155111475Y-96412485D02*
X155073380Y-96488676D01*
X155073380Y-96488676D02*
X155035285Y-96641057D01*
X155035285Y-96641057D02*
X155035285Y-96831533D01*
X155035285Y-96831533D02*
X155073380Y-96983914D01*
X155073380Y-96983914D02*
X155111475Y-97060104D01*
X155111475Y-97060104D02*
X155149570Y-97098200D01*
X155149570Y-97098200D02*
X155225761Y-97136295D01*
X155225761Y-97136295D02*
X155301951Y-97136295D01*
X155301951Y-97136295D02*
X155378142Y-97098200D01*
X155378142Y-97098200D02*
X155416237Y-97060104D01*
X155416237Y-97060104D02*
X155454332Y-96983914D01*
X155454332Y-96983914D02*
X155492428Y-96831533D01*
X155492428Y-96831533D02*
X155492428Y-96641057D01*
X155492428Y-96641057D02*
X155454332Y-96488676D01*
X155454332Y-96488676D02*
X155416237Y-96412485D01*
X155416237Y-96412485D02*
X155378142Y-96374390D01*
X155378142Y-96374390D02*
X155301951Y-96336295D01*
X154349570Y-96602961D02*
X154349570Y-97136295D01*
X154692427Y-96602961D02*
X154692427Y-97022009D01*
X154692427Y-97022009D02*
X154654332Y-97098200D01*
X154654332Y-97098200D02*
X154578142Y-97136295D01*
X154578142Y-97136295D02*
X154463856Y-97136295D01*
X154463856Y-97136295D02*
X154387665Y-97098200D01*
X154387665Y-97098200D02*
X154349570Y-97060104D01*
X153701951Y-96717247D02*
X153968617Y-96717247D01*
X153968617Y-97136295D02*
X153968617Y-96336295D01*
X153968617Y-96336295D02*
X153587665Y-96336295D01*
X106338666Y-110817819D02*
X106671999Y-110341628D01*
X106910094Y-110817819D02*
X106910094Y-109817819D01*
X106910094Y-109817819D02*
X106529142Y-109817819D01*
X106529142Y-109817819D02*
X106433904Y-109865438D01*
X106433904Y-109865438D02*
X106386285Y-109913057D01*
X106386285Y-109913057D02*
X106338666Y-110008295D01*
X106338666Y-110008295D02*
X106338666Y-110151152D01*
X106338666Y-110151152D02*
X106386285Y-110246390D01*
X106386285Y-110246390D02*
X106433904Y-110294009D01*
X106433904Y-110294009D02*
X106529142Y-110341628D01*
X106529142Y-110341628D02*
X106910094Y-110341628D01*
X105957713Y-109913057D02*
X105910094Y-109865438D01*
X105910094Y-109865438D02*
X105814856Y-109817819D01*
X105814856Y-109817819D02*
X105576761Y-109817819D01*
X105576761Y-109817819D02*
X105481523Y-109865438D01*
X105481523Y-109865438D02*
X105433904Y-109913057D01*
X105433904Y-109913057D02*
X105386285Y-110008295D01*
X105386285Y-110008295D02*
X105386285Y-110103533D01*
X105386285Y-110103533D02*
X105433904Y-110246390D01*
X105433904Y-110246390D02*
X106005332Y-110817819D01*
X106005332Y-110817819D02*
X105386285Y-110817819D01*
X107624380Y-111087819D02*
X107005333Y-111087819D01*
X107005333Y-111087819D02*
X107338666Y-111468771D01*
X107338666Y-111468771D02*
X107195809Y-111468771D01*
X107195809Y-111468771D02*
X107100571Y-111516390D01*
X107100571Y-111516390D02*
X107052952Y-111564009D01*
X107052952Y-111564009D02*
X107005333Y-111659247D01*
X107005333Y-111659247D02*
X107005333Y-111897342D01*
X107005333Y-111897342D02*
X107052952Y-111992580D01*
X107052952Y-111992580D02*
X107100571Y-112040200D01*
X107100571Y-112040200D02*
X107195809Y-112087819D01*
X107195809Y-112087819D02*
X107481523Y-112087819D01*
X107481523Y-112087819D02*
X107576761Y-112040200D01*
X107576761Y-112040200D02*
X107624380Y-111992580D01*
X106576761Y-111992580D02*
X106529142Y-112040200D01*
X106529142Y-112040200D02*
X106576761Y-112087819D01*
X106576761Y-112087819D02*
X106624380Y-112040200D01*
X106624380Y-112040200D02*
X106576761Y-111992580D01*
X106576761Y-111992580D02*
X106576761Y-112087819D01*
X106195809Y-111087819D02*
X105576762Y-111087819D01*
X105576762Y-111087819D02*
X105910095Y-111468771D01*
X105910095Y-111468771D02*
X105767238Y-111468771D01*
X105767238Y-111468771D02*
X105672000Y-111516390D01*
X105672000Y-111516390D02*
X105624381Y-111564009D01*
X105624381Y-111564009D02*
X105576762Y-111659247D01*
X105576762Y-111659247D02*
X105576762Y-111897342D01*
X105576762Y-111897342D02*
X105624381Y-111992580D01*
X105624381Y-111992580D02*
X105672000Y-112040200D01*
X105672000Y-112040200D02*
X105767238Y-112087819D01*
X105767238Y-112087819D02*
X106052952Y-112087819D01*
X106052952Y-112087819D02*
X106148190Y-112040200D01*
X106148190Y-112040200D02*
X106195809Y-111992580D01*
X105148190Y-112087819D02*
X105148190Y-111087819D01*
X105052952Y-111706866D02*
X104767238Y-112087819D01*
X104767238Y-111421152D02*
X105148190Y-111802104D01*
X131992666Y-102552819D02*
X132468856Y-102552819D01*
X132468856Y-102552819D02*
X132468856Y-101552819D01*
X131135523Y-102552819D02*
X131706951Y-102552819D01*
X131421237Y-102552819D02*
X131421237Y-101552819D01*
X131421237Y-101552819D02*
X131516475Y-101695676D01*
X131516475Y-101695676D02*
X131611713Y-101790914D01*
X131611713Y-101790914D02*
X131706951Y-101838533D01*
X133468857Y-104467819D02*
X134040285Y-104467819D01*
X133754571Y-104467819D02*
X133754571Y-103467819D01*
X133754571Y-103467819D02*
X133849809Y-103610676D01*
X133849809Y-103610676D02*
X133945047Y-103705914D01*
X133945047Y-103705914D02*
X134040285Y-103753533D01*
X132849809Y-103467819D02*
X132754571Y-103467819D01*
X132754571Y-103467819D02*
X132659333Y-103515438D01*
X132659333Y-103515438D02*
X132611714Y-103563057D01*
X132611714Y-103563057D02*
X132564095Y-103658295D01*
X132564095Y-103658295D02*
X132516476Y-103848771D01*
X132516476Y-103848771D02*
X132516476Y-104086866D01*
X132516476Y-104086866D02*
X132564095Y-104277342D01*
X132564095Y-104277342D02*
X132611714Y-104372580D01*
X132611714Y-104372580D02*
X132659333Y-104420200D01*
X132659333Y-104420200D02*
X132754571Y-104467819D01*
X132754571Y-104467819D02*
X132849809Y-104467819D01*
X132849809Y-104467819D02*
X132945047Y-104420200D01*
X132945047Y-104420200D02*
X132992666Y-104372580D01*
X132992666Y-104372580D02*
X133040285Y-104277342D01*
X133040285Y-104277342D02*
X133087904Y-104086866D01*
X133087904Y-104086866D02*
X133087904Y-103848771D01*
X133087904Y-103848771D02*
X133040285Y-103658295D01*
X133040285Y-103658295D02*
X132992666Y-103563057D01*
X132992666Y-103563057D02*
X132945047Y-103515438D01*
X132945047Y-103515438D02*
X132849809Y-103467819D01*
X131897428Y-103467819D02*
X131802190Y-103467819D01*
X131802190Y-103467819D02*
X131706952Y-103515438D01*
X131706952Y-103515438D02*
X131659333Y-103563057D01*
X131659333Y-103563057D02*
X131611714Y-103658295D01*
X131611714Y-103658295D02*
X131564095Y-103848771D01*
X131564095Y-103848771D02*
X131564095Y-104086866D01*
X131564095Y-104086866D02*
X131611714Y-104277342D01*
X131611714Y-104277342D02*
X131659333Y-104372580D01*
X131659333Y-104372580D02*
X131706952Y-104420200D01*
X131706952Y-104420200D02*
X131802190Y-104467819D01*
X131802190Y-104467819D02*
X131897428Y-104467819D01*
X131897428Y-104467819D02*
X131992666Y-104420200D01*
X131992666Y-104420200D02*
X132040285Y-104372580D01*
X132040285Y-104372580D02*
X132087904Y-104277342D01*
X132087904Y-104277342D02*
X132135523Y-104086866D01*
X132135523Y-104086866D02*
X132135523Y-103848771D01*
X132135523Y-103848771D02*
X132087904Y-103658295D01*
X132087904Y-103658295D02*
X132040285Y-103563057D01*
X132040285Y-103563057D02*
X131992666Y-103515438D01*
X131992666Y-103515438D02*
X131897428Y-103467819D01*
X130706952Y-103801152D02*
X130706952Y-104467819D01*
X131135523Y-103801152D02*
X131135523Y-104324961D01*
X131135523Y-104324961D02*
X131087904Y-104420200D01*
X131087904Y-104420200D02*
X130992666Y-104467819D01*
X130992666Y-104467819D02*
X130849809Y-104467819D01*
X130849809Y-104467819D02*
X130754571Y-104420200D01*
X130754571Y-104420200D02*
X130706952Y-104372580D01*
X130230761Y-104467819D02*
X130230761Y-103467819D01*
X130230761Y-103944009D02*
X129659333Y-103944009D01*
X129659333Y-104467819D02*
X129659333Y-103467819D01*
X98718666Y-105229819D02*
X99051999Y-104753628D01*
X99290094Y-105229819D02*
X99290094Y-104229819D01*
X99290094Y-104229819D02*
X98909142Y-104229819D01*
X98909142Y-104229819D02*
X98813904Y-104277438D01*
X98813904Y-104277438D02*
X98766285Y-104325057D01*
X98766285Y-104325057D02*
X98718666Y-104420295D01*
X98718666Y-104420295D02*
X98718666Y-104563152D01*
X98718666Y-104563152D02*
X98766285Y-104658390D01*
X98766285Y-104658390D02*
X98813904Y-104706009D01*
X98813904Y-104706009D02*
X98909142Y-104753628D01*
X98909142Y-104753628D02*
X99290094Y-104753628D01*
X97766285Y-105229819D02*
X98337713Y-105229819D01*
X98051999Y-105229819D02*
X98051999Y-104229819D01*
X98051999Y-104229819D02*
X98147237Y-104372676D01*
X98147237Y-104372676D02*
X98242475Y-104467914D01*
X98242475Y-104467914D02*
X98337713Y-104515533D01*
X98671047Y-106499819D02*
X99242475Y-106499819D01*
X98956761Y-106499819D02*
X98956761Y-105499819D01*
X98956761Y-105499819D02*
X99051999Y-105642676D01*
X99051999Y-105642676D02*
X99147237Y-105737914D01*
X99147237Y-105737914D02*
X99242475Y-105785533D01*
X98242475Y-106499819D02*
X98242475Y-105499819D01*
X98147237Y-106118866D02*
X97861523Y-106499819D01*
X97861523Y-105833152D02*
X98242475Y-106214104D01*
D13*
X150240666Y-102565419D02*
X150716856Y-102565419D01*
X150716856Y-102565419D02*
X150716856Y-101565419D01*
X149954951Y-101660657D02*
X149907332Y-101613038D01*
X149907332Y-101613038D02*
X149812094Y-101565419D01*
X149812094Y-101565419D02*
X149573999Y-101565419D01*
X149573999Y-101565419D02*
X149478761Y-101613038D01*
X149478761Y-101613038D02*
X149431142Y-101660657D01*
X149431142Y-101660657D02*
X149383523Y-101755895D01*
X149383523Y-101755895D02*
X149383523Y-101851133D01*
X149383523Y-101851133D02*
X149431142Y-101993990D01*
X149431142Y-101993990D02*
X150002570Y-102565419D01*
X150002570Y-102565419D02*
X149383523Y-102565419D01*
D11*
X151852094Y-103944057D02*
X151804475Y-103896438D01*
X151804475Y-103896438D02*
X151709237Y-103848819D01*
X151709237Y-103848819D02*
X151471142Y-103848819D01*
X151471142Y-103848819D02*
X151375904Y-103896438D01*
X151375904Y-103896438D02*
X151328285Y-103944057D01*
X151328285Y-103944057D02*
X151280666Y-104039295D01*
X151280666Y-104039295D02*
X151280666Y-104134533D01*
X151280666Y-104134533D02*
X151328285Y-104277390D01*
X151328285Y-104277390D02*
X151899713Y-104848819D01*
X151899713Y-104848819D02*
X151280666Y-104848819D01*
X150899713Y-103944057D02*
X150852094Y-103896438D01*
X150852094Y-103896438D02*
X150756856Y-103848819D01*
X150756856Y-103848819D02*
X150518761Y-103848819D01*
X150518761Y-103848819D02*
X150423523Y-103896438D01*
X150423523Y-103896438D02*
X150375904Y-103944057D01*
X150375904Y-103944057D02*
X150328285Y-104039295D01*
X150328285Y-104039295D02*
X150328285Y-104134533D01*
X150328285Y-104134533D02*
X150375904Y-104277390D01*
X150375904Y-104277390D02*
X150947332Y-104848819D01*
X150947332Y-104848819D02*
X150328285Y-104848819D01*
X149471142Y-104182152D02*
X149471142Y-104848819D01*
X149899713Y-104182152D02*
X149899713Y-104705961D01*
X149899713Y-104705961D02*
X149852094Y-104801200D01*
X149852094Y-104801200D02*
X149756856Y-104848819D01*
X149756856Y-104848819D02*
X149613999Y-104848819D01*
X149613999Y-104848819D02*
X149518761Y-104801200D01*
X149518761Y-104801200D02*
X149471142Y-104753580D01*
X148994951Y-104848819D02*
X148994951Y-103848819D01*
X148994951Y-104325009D02*
X148423523Y-104325009D01*
X148423523Y-104848819D02*
X148423523Y-103848819D01*
X128690666Y-85068580D02*
X128738285Y-85116200D01*
X128738285Y-85116200D02*
X128881142Y-85163819D01*
X128881142Y-85163819D02*
X128976380Y-85163819D01*
X128976380Y-85163819D02*
X129119237Y-85116200D01*
X129119237Y-85116200D02*
X129214475Y-85020961D01*
X129214475Y-85020961D02*
X129262094Y-84925723D01*
X129262094Y-84925723D02*
X129309713Y-84735247D01*
X129309713Y-84735247D02*
X129309713Y-84592390D01*
X129309713Y-84592390D02*
X129262094Y-84401914D01*
X129262094Y-84401914D02*
X129214475Y-84306676D01*
X129214475Y-84306676D02*
X129119237Y-84211438D01*
X129119237Y-84211438D02*
X128976380Y-84163819D01*
X128976380Y-84163819D02*
X128881142Y-84163819D01*
X128881142Y-84163819D02*
X128738285Y-84211438D01*
X128738285Y-84211438D02*
X128690666Y-84259057D01*
X127738285Y-85163819D02*
X128309713Y-85163819D01*
X128023999Y-85163819D02*
X128023999Y-84163819D01*
X128023999Y-84163819D02*
X128119237Y-84306676D01*
X128119237Y-84306676D02*
X128214475Y-84401914D01*
X128214475Y-84401914D02*
X128309713Y-84449533D01*
X126023428Y-84163819D02*
X126499618Y-84163819D01*
X126499618Y-84163819D02*
X126547237Y-84640009D01*
X126547237Y-84640009D02*
X126499618Y-84592390D01*
X126499618Y-84592390D02*
X126404380Y-84544771D01*
X126404380Y-84544771D02*
X126166285Y-84544771D01*
X126166285Y-84544771D02*
X126071047Y-84592390D01*
X126071047Y-84592390D02*
X126023428Y-84640009D01*
X126023428Y-84640009D02*
X125975809Y-84735247D01*
X125975809Y-84735247D02*
X125975809Y-84973342D01*
X125975809Y-84973342D02*
X126023428Y-85068580D01*
X126023428Y-85068580D02*
X126071047Y-85116200D01*
X126071047Y-85116200D02*
X126166285Y-85163819D01*
X126166285Y-85163819D02*
X126404380Y-85163819D01*
X126404380Y-85163819D02*
X126499618Y-85116200D01*
X126499618Y-85116200D02*
X126547237Y-85068580D01*
X125118666Y-84163819D02*
X125309142Y-84163819D01*
X125309142Y-84163819D02*
X125404380Y-84211438D01*
X125404380Y-84211438D02*
X125451999Y-84259057D01*
X125451999Y-84259057D02*
X125547237Y-84401914D01*
X125547237Y-84401914D02*
X125594856Y-84592390D01*
X125594856Y-84592390D02*
X125594856Y-84973342D01*
X125594856Y-84973342D02*
X125547237Y-85068580D01*
X125547237Y-85068580D02*
X125499618Y-85116200D01*
X125499618Y-85116200D02*
X125404380Y-85163819D01*
X125404380Y-85163819D02*
X125213904Y-85163819D01*
X125213904Y-85163819D02*
X125118666Y-85116200D01*
X125118666Y-85116200D02*
X125071047Y-85068580D01*
X125071047Y-85068580D02*
X125023428Y-84973342D01*
X125023428Y-84973342D02*
X125023428Y-84735247D01*
X125023428Y-84735247D02*
X125071047Y-84640009D01*
X125071047Y-84640009D02*
X125118666Y-84592390D01*
X125118666Y-84592390D02*
X125213904Y-84544771D01*
X125213904Y-84544771D02*
X125404380Y-84544771D01*
X125404380Y-84544771D02*
X125499618Y-84592390D01*
X125499618Y-84592390D02*
X125547237Y-84640009D01*
X125547237Y-84640009D02*
X125594856Y-84735247D01*
X124404380Y-84163819D02*
X124309142Y-84163819D01*
X124309142Y-84163819D02*
X124213904Y-84211438D01*
X124213904Y-84211438D02*
X124166285Y-84259057D01*
X124166285Y-84259057D02*
X124118666Y-84354295D01*
X124118666Y-84354295D02*
X124071047Y-84544771D01*
X124071047Y-84544771D02*
X124071047Y-84782866D01*
X124071047Y-84782866D02*
X124118666Y-84973342D01*
X124118666Y-84973342D02*
X124166285Y-85068580D01*
X124166285Y-85068580D02*
X124213904Y-85116200D01*
X124213904Y-85116200D02*
X124309142Y-85163819D01*
X124309142Y-85163819D02*
X124404380Y-85163819D01*
X124404380Y-85163819D02*
X124499618Y-85116200D01*
X124499618Y-85116200D02*
X124547237Y-85068580D01*
X124547237Y-85068580D02*
X124594856Y-84973342D01*
X124594856Y-84973342D02*
X124642475Y-84782866D01*
X124642475Y-84782866D02*
X124642475Y-84544771D01*
X124642475Y-84544771D02*
X124594856Y-84354295D01*
X124594856Y-84354295D02*
X124547237Y-84259057D01*
X124547237Y-84259057D02*
X124499618Y-84211438D01*
X124499618Y-84211438D02*
X124404380Y-84163819D01*
X123451999Y-84163819D02*
X123356761Y-84163819D01*
X123356761Y-84163819D02*
X123261523Y-84211438D01*
X123261523Y-84211438D02*
X123213904Y-84259057D01*
X123213904Y-84259057D02*
X123166285Y-84354295D01*
X123166285Y-84354295D02*
X123118666Y-84544771D01*
X123118666Y-84544771D02*
X123118666Y-84782866D01*
X123118666Y-84782866D02*
X123166285Y-84973342D01*
X123166285Y-84973342D02*
X123213904Y-85068580D01*
X123213904Y-85068580D02*
X123261523Y-85116200D01*
X123261523Y-85116200D02*
X123356761Y-85163819D01*
X123356761Y-85163819D02*
X123451999Y-85163819D01*
X123451999Y-85163819D02*
X123547237Y-85116200D01*
X123547237Y-85116200D02*
X123594856Y-85068580D01*
X123594856Y-85068580D02*
X123642475Y-84973342D01*
X123642475Y-84973342D02*
X123690094Y-84782866D01*
X123690094Y-84782866D02*
X123690094Y-84544771D01*
X123690094Y-84544771D02*
X123642475Y-84354295D01*
X123642475Y-84354295D02*
X123594856Y-84259057D01*
X123594856Y-84259057D02*
X123547237Y-84211438D01*
X123547237Y-84211438D02*
X123451999Y-84163819D01*
X122261523Y-84497152D02*
X122261523Y-85163819D01*
X122690094Y-84497152D02*
X122690094Y-85020961D01*
X122690094Y-85020961D02*
X122642475Y-85116200D01*
X122642475Y-85116200D02*
X122547237Y-85163819D01*
X122547237Y-85163819D02*
X122404380Y-85163819D01*
X122404380Y-85163819D02*
X122309142Y-85116200D01*
X122309142Y-85116200D02*
X122261523Y-85068580D01*
X121451999Y-84640009D02*
X121785332Y-84640009D01*
X121785332Y-85163819D02*
X121785332Y-84163819D01*
X121785332Y-84163819D02*
X121309142Y-84163819D01*
X146216666Y-85068580D02*
X146264285Y-85116200D01*
X146264285Y-85116200D02*
X146407142Y-85163819D01*
X146407142Y-85163819D02*
X146502380Y-85163819D01*
X146502380Y-85163819D02*
X146645237Y-85116200D01*
X146645237Y-85116200D02*
X146740475Y-85020961D01*
X146740475Y-85020961D02*
X146788094Y-84925723D01*
X146788094Y-84925723D02*
X146835713Y-84735247D01*
X146835713Y-84735247D02*
X146835713Y-84592390D01*
X146835713Y-84592390D02*
X146788094Y-84401914D01*
X146788094Y-84401914D02*
X146740475Y-84306676D01*
X146740475Y-84306676D02*
X146645237Y-84211438D01*
X146645237Y-84211438D02*
X146502380Y-84163819D01*
X146502380Y-84163819D02*
X146407142Y-84163819D01*
X146407142Y-84163819D02*
X146264285Y-84211438D01*
X146264285Y-84211438D02*
X146216666Y-84259057D01*
X145835713Y-84259057D02*
X145788094Y-84211438D01*
X145788094Y-84211438D02*
X145692856Y-84163819D01*
X145692856Y-84163819D02*
X145454761Y-84163819D01*
X145454761Y-84163819D02*
X145359523Y-84211438D01*
X145359523Y-84211438D02*
X145311904Y-84259057D01*
X145311904Y-84259057D02*
X145264285Y-84354295D01*
X145264285Y-84354295D02*
X145264285Y-84449533D01*
X145264285Y-84449533D02*
X145311904Y-84592390D01*
X145311904Y-84592390D02*
X145883332Y-85163819D01*
X145883332Y-85163819D02*
X145264285Y-85163819D01*
X144200237Y-84259057D02*
X144152618Y-84211438D01*
X144152618Y-84211438D02*
X144057380Y-84163819D01*
X144057380Y-84163819D02*
X143819285Y-84163819D01*
X143819285Y-84163819D02*
X143724047Y-84211438D01*
X143724047Y-84211438D02*
X143676428Y-84259057D01*
X143676428Y-84259057D02*
X143628809Y-84354295D01*
X143628809Y-84354295D02*
X143628809Y-84449533D01*
X143628809Y-84449533D02*
X143676428Y-84592390D01*
X143676428Y-84592390D02*
X144247856Y-85163819D01*
X144247856Y-85163819D02*
X143628809Y-85163819D01*
X143247856Y-84259057D02*
X143200237Y-84211438D01*
X143200237Y-84211438D02*
X143104999Y-84163819D01*
X143104999Y-84163819D02*
X142866904Y-84163819D01*
X142866904Y-84163819D02*
X142771666Y-84211438D01*
X142771666Y-84211438D02*
X142724047Y-84259057D01*
X142724047Y-84259057D02*
X142676428Y-84354295D01*
X142676428Y-84354295D02*
X142676428Y-84449533D01*
X142676428Y-84449533D02*
X142724047Y-84592390D01*
X142724047Y-84592390D02*
X143295475Y-85163819D01*
X143295475Y-85163819D02*
X142676428Y-85163819D01*
X142057380Y-84163819D02*
X141962142Y-84163819D01*
X141962142Y-84163819D02*
X141866904Y-84211438D01*
X141866904Y-84211438D02*
X141819285Y-84259057D01*
X141819285Y-84259057D02*
X141771666Y-84354295D01*
X141771666Y-84354295D02*
X141724047Y-84544771D01*
X141724047Y-84544771D02*
X141724047Y-84782866D01*
X141724047Y-84782866D02*
X141771666Y-84973342D01*
X141771666Y-84973342D02*
X141819285Y-85068580D01*
X141819285Y-85068580D02*
X141866904Y-85116200D01*
X141866904Y-85116200D02*
X141962142Y-85163819D01*
X141962142Y-85163819D02*
X142057380Y-85163819D01*
X142057380Y-85163819D02*
X142152618Y-85116200D01*
X142152618Y-85116200D02*
X142200237Y-85068580D01*
X142200237Y-85068580D02*
X142247856Y-84973342D01*
X142247856Y-84973342D02*
X142295475Y-84782866D01*
X142295475Y-84782866D02*
X142295475Y-84544771D01*
X142295475Y-84544771D02*
X142247856Y-84354295D01*
X142247856Y-84354295D02*
X142200237Y-84259057D01*
X142200237Y-84259057D02*
X142152618Y-84211438D01*
X142152618Y-84211438D02*
X142057380Y-84163819D01*
X141104999Y-84163819D02*
X141009761Y-84163819D01*
X141009761Y-84163819D02*
X140914523Y-84211438D01*
X140914523Y-84211438D02*
X140866904Y-84259057D01*
X140866904Y-84259057D02*
X140819285Y-84354295D01*
X140819285Y-84354295D02*
X140771666Y-84544771D01*
X140771666Y-84544771D02*
X140771666Y-84782866D01*
X140771666Y-84782866D02*
X140819285Y-84973342D01*
X140819285Y-84973342D02*
X140866904Y-85068580D01*
X140866904Y-85068580D02*
X140914523Y-85116200D01*
X140914523Y-85116200D02*
X141009761Y-85163819D01*
X141009761Y-85163819D02*
X141104999Y-85163819D01*
X141104999Y-85163819D02*
X141200237Y-85116200D01*
X141200237Y-85116200D02*
X141247856Y-85068580D01*
X141247856Y-85068580D02*
X141295475Y-84973342D01*
X141295475Y-84973342D02*
X141343094Y-84782866D01*
X141343094Y-84782866D02*
X141343094Y-84544771D01*
X141343094Y-84544771D02*
X141295475Y-84354295D01*
X141295475Y-84354295D02*
X141247856Y-84259057D01*
X141247856Y-84259057D02*
X141200237Y-84211438D01*
X141200237Y-84211438D02*
X141104999Y-84163819D01*
X139914523Y-84497152D02*
X139914523Y-85163819D01*
X140343094Y-84497152D02*
X140343094Y-85020961D01*
X140343094Y-85020961D02*
X140295475Y-85116200D01*
X140295475Y-85116200D02*
X140200237Y-85163819D01*
X140200237Y-85163819D02*
X140057380Y-85163819D01*
X140057380Y-85163819D02*
X139962142Y-85116200D01*
X139962142Y-85116200D02*
X139914523Y-85068580D01*
X139104999Y-84640009D02*
X139438332Y-84640009D01*
X139438332Y-85163819D02*
X139438332Y-84163819D01*
X139438332Y-84163819D02*
X138962142Y-84163819D01*
X116816094Y-84020819D02*
X116816094Y-83020819D01*
X116816094Y-83020819D02*
X116577999Y-83020819D01*
X116577999Y-83020819D02*
X116435142Y-83068438D01*
X116435142Y-83068438D02*
X116339904Y-83163676D01*
X116339904Y-83163676D02*
X116292285Y-83258914D01*
X116292285Y-83258914D02*
X116244666Y-83449390D01*
X116244666Y-83449390D02*
X116244666Y-83592247D01*
X116244666Y-83592247D02*
X116292285Y-83782723D01*
X116292285Y-83782723D02*
X116339904Y-83877961D01*
X116339904Y-83877961D02*
X116435142Y-83973200D01*
X116435142Y-83973200D02*
X116577999Y-84020819D01*
X116577999Y-84020819D02*
X116816094Y-84020819D01*
X115292285Y-84020819D02*
X115863713Y-84020819D01*
X115577999Y-84020819D02*
X115577999Y-83020819D01*
X115577999Y-83020819D02*
X115673237Y-83163676D01*
X115673237Y-83163676D02*
X115768475Y-83258914D01*
X115768475Y-83258914D02*
X115863713Y-83306533D01*
X116339904Y-93418819D02*
X116339904Y-92418819D01*
X115768476Y-93418819D02*
X116197047Y-92847390D01*
X115768476Y-92418819D02*
X116339904Y-92990247D01*
X157138666Y-83131819D02*
X157471999Y-82655628D01*
X157710094Y-83131819D02*
X157710094Y-82131819D01*
X157710094Y-82131819D02*
X157329142Y-82131819D01*
X157329142Y-82131819D02*
X157233904Y-82179438D01*
X157233904Y-82179438D02*
X157186285Y-82227057D01*
X157186285Y-82227057D02*
X157138666Y-82322295D01*
X157138666Y-82322295D02*
X157138666Y-82465152D01*
X157138666Y-82465152D02*
X157186285Y-82560390D01*
X157186285Y-82560390D02*
X157233904Y-82608009D01*
X157233904Y-82608009D02*
X157329142Y-82655628D01*
X157329142Y-82655628D02*
X157710094Y-82655628D01*
X156805332Y-82131819D02*
X156186285Y-82131819D01*
X156186285Y-82131819D02*
X156519618Y-82512771D01*
X156519618Y-82512771D02*
X156376761Y-82512771D01*
X156376761Y-82512771D02*
X156281523Y-82560390D01*
X156281523Y-82560390D02*
X156233904Y-82608009D01*
X156233904Y-82608009D02*
X156186285Y-82703247D01*
X156186285Y-82703247D02*
X156186285Y-82941342D01*
X156186285Y-82941342D02*
X156233904Y-83036580D01*
X156233904Y-83036580D02*
X156281523Y-83084200D01*
X156281523Y-83084200D02*
X156376761Y-83131819D01*
X156376761Y-83131819D02*
X156662475Y-83131819D01*
X156662475Y-83131819D02*
X156757713Y-83084200D01*
X156757713Y-83084200D02*
X156805332Y-83036580D01*
X156522057Y-83978905D02*
X156474438Y-84026524D01*
X156474438Y-84026524D02*
X156426819Y-84121762D01*
X156426819Y-84121762D02*
X156426819Y-84359857D01*
X156426819Y-84359857D02*
X156474438Y-84455095D01*
X156474438Y-84455095D02*
X156522057Y-84502714D01*
X156522057Y-84502714D02*
X156617295Y-84550333D01*
X156617295Y-84550333D02*
X156712533Y-84550333D01*
X156712533Y-84550333D02*
X156855390Y-84502714D01*
X156855390Y-84502714D02*
X157426819Y-83931286D01*
X157426819Y-83931286D02*
X157426819Y-84550333D01*
X156522057Y-84931286D02*
X156474438Y-84978905D01*
X156474438Y-84978905D02*
X156426819Y-85074143D01*
X156426819Y-85074143D02*
X156426819Y-85312238D01*
X156426819Y-85312238D02*
X156474438Y-85407476D01*
X156474438Y-85407476D02*
X156522057Y-85455095D01*
X156522057Y-85455095D02*
X156617295Y-85502714D01*
X156617295Y-85502714D02*
X156712533Y-85502714D01*
X156712533Y-85502714D02*
X156855390Y-85455095D01*
X156855390Y-85455095D02*
X157426819Y-84883667D01*
X157426819Y-84883667D02*
X157426819Y-85502714D01*
X156426819Y-86121762D02*
X156426819Y-86217000D01*
X156426819Y-86217000D02*
X156474438Y-86312238D01*
X156474438Y-86312238D02*
X156522057Y-86359857D01*
X156522057Y-86359857D02*
X156617295Y-86407476D01*
X156617295Y-86407476D02*
X156807771Y-86455095D01*
X156807771Y-86455095D02*
X157045866Y-86455095D01*
X157045866Y-86455095D02*
X157236342Y-86407476D01*
X157236342Y-86407476D02*
X157331580Y-86359857D01*
X157331580Y-86359857D02*
X157379200Y-86312238D01*
X157379200Y-86312238D02*
X157426819Y-86217000D01*
X157426819Y-86217000D02*
X157426819Y-86121762D01*
X157426819Y-86121762D02*
X157379200Y-86026524D01*
X157379200Y-86026524D02*
X157331580Y-85978905D01*
X157331580Y-85978905D02*
X157236342Y-85931286D01*
X157236342Y-85931286D02*
X157045866Y-85883667D01*
X157045866Y-85883667D02*
X156807771Y-85883667D01*
X156807771Y-85883667D02*
X156617295Y-85931286D01*
X156617295Y-85931286D02*
X156522057Y-85978905D01*
X156522057Y-85978905D02*
X156474438Y-86026524D01*
X156474438Y-86026524D02*
X156426819Y-86121762D01*
X105282904Y-93307819D02*
X105282904Y-94117342D01*
X105282904Y-94117342D02*
X105235285Y-94212580D01*
X105235285Y-94212580D02*
X105187666Y-94260200D01*
X105187666Y-94260200D02*
X105092428Y-94307819D01*
X105092428Y-94307819D02*
X104901952Y-94307819D01*
X104901952Y-94307819D02*
X104806714Y-94260200D01*
X104806714Y-94260200D02*
X104759095Y-94212580D01*
X104759095Y-94212580D02*
X104711476Y-94117342D01*
X104711476Y-94117342D02*
X104711476Y-93307819D01*
X103711476Y-94307819D02*
X104282904Y-94307819D01*
X103997190Y-94307819D02*
X103997190Y-93307819D01*
X103997190Y-93307819D02*
X104092428Y-93450676D01*
X104092428Y-93450676D02*
X104187666Y-93545914D01*
X104187666Y-93545914D02*
X104282904Y-93593533D01*
X109124190Y-90497819D02*
X109600380Y-90497819D01*
X109600380Y-90497819D02*
X109600380Y-89497819D01*
X108790856Y-90497819D02*
X108790856Y-89497819D01*
X108790856Y-89497819D02*
X108457523Y-90212104D01*
X108457523Y-90212104D02*
X108124190Y-89497819D01*
X108124190Y-89497819D02*
X108124190Y-90497819D01*
X107695618Y-89593057D02*
X107647999Y-89545438D01*
X107647999Y-89545438D02*
X107552761Y-89497819D01*
X107552761Y-89497819D02*
X107314666Y-89497819D01*
X107314666Y-89497819D02*
X107219428Y-89545438D01*
X107219428Y-89545438D02*
X107171809Y-89593057D01*
X107171809Y-89593057D02*
X107124190Y-89688295D01*
X107124190Y-89688295D02*
X107124190Y-89783533D01*
X107124190Y-89783533D02*
X107171809Y-89926390D01*
X107171809Y-89926390D02*
X107743237Y-90497819D01*
X107743237Y-90497819D02*
X107124190Y-90497819D01*
X106219428Y-89497819D02*
X106695618Y-89497819D01*
X106695618Y-89497819D02*
X106743237Y-89974009D01*
X106743237Y-89974009D02*
X106695618Y-89926390D01*
X106695618Y-89926390D02*
X106600380Y-89878771D01*
X106600380Y-89878771D02*
X106362285Y-89878771D01*
X106362285Y-89878771D02*
X106267047Y-89926390D01*
X106267047Y-89926390D02*
X106219428Y-89974009D01*
X106219428Y-89974009D02*
X106171809Y-90069247D01*
X106171809Y-90069247D02*
X106171809Y-90307342D01*
X106171809Y-90307342D02*
X106219428Y-90402580D01*
X106219428Y-90402580D02*
X106267047Y-90450200D01*
X106267047Y-90450200D02*
X106362285Y-90497819D01*
X106362285Y-90497819D02*
X106600380Y-90497819D01*
X106600380Y-90497819D02*
X106695618Y-90450200D01*
X106695618Y-90450200D02*
X106743237Y-90402580D01*
X105838475Y-89497819D02*
X105171809Y-89497819D01*
X105171809Y-89497819D02*
X105600380Y-90497819D01*
X104362285Y-89497819D02*
X104552761Y-89497819D01*
X104552761Y-89497819D02*
X104647999Y-89545438D01*
X104647999Y-89545438D02*
X104695618Y-89593057D01*
X104695618Y-89593057D02*
X104790856Y-89735914D01*
X104790856Y-89735914D02*
X104838475Y-89926390D01*
X104838475Y-89926390D02*
X104838475Y-90307342D01*
X104838475Y-90307342D02*
X104790856Y-90402580D01*
X104790856Y-90402580D02*
X104743237Y-90450200D01*
X104743237Y-90450200D02*
X104647999Y-90497819D01*
X104647999Y-90497819D02*
X104457523Y-90497819D01*
X104457523Y-90497819D02*
X104362285Y-90450200D01*
X104362285Y-90450200D02*
X104314666Y-90402580D01*
X104314666Y-90402580D02*
X104267047Y-90307342D01*
X104267047Y-90307342D02*
X104267047Y-90069247D01*
X104267047Y-90069247D02*
X104314666Y-89974009D01*
X104314666Y-89974009D02*
X104362285Y-89926390D01*
X104362285Y-89926390D02*
X104457523Y-89878771D01*
X104457523Y-89878771D02*
X104647999Y-89878771D01*
X104647999Y-89878771D02*
X104743237Y-89926390D01*
X104743237Y-89926390D02*
X104790856Y-89974009D01*
X104790856Y-89974009D02*
X104838475Y-90069247D01*
X103981332Y-89497819D02*
X103409904Y-89497819D01*
X103695618Y-90497819D02*
X103695618Y-89497819D01*
X103076570Y-90116866D02*
X102314666Y-90116866D01*
X101886094Y-90212104D02*
X101409904Y-90212104D01*
X101981332Y-90497819D02*
X101647999Y-89497819D01*
X101647999Y-89497819D02*
X101314666Y-90497819D01*
X100981332Y-90497819D02*
X100981332Y-89497819D01*
X100981332Y-89497819D02*
X100743237Y-89497819D01*
X100743237Y-89497819D02*
X100600380Y-89545438D01*
X100600380Y-89545438D02*
X100505142Y-89640676D01*
X100505142Y-89640676D02*
X100457523Y-89735914D01*
X100457523Y-89735914D02*
X100409904Y-89926390D01*
X100409904Y-89926390D02*
X100409904Y-90069247D01*
X100409904Y-90069247D02*
X100457523Y-90259723D01*
X100457523Y-90259723D02*
X100505142Y-90354961D01*
X100505142Y-90354961D02*
X100600380Y-90450200D01*
X100600380Y-90450200D02*
X100743237Y-90497819D01*
X100743237Y-90497819D02*
X100981332Y-90497819D01*
X99695618Y-89497819D02*
X99695618Y-90212104D01*
X99695618Y-90212104D02*
X99743237Y-90354961D01*
X99743237Y-90354961D02*
X99838475Y-90450200D01*
X99838475Y-90450200D02*
X99981332Y-90497819D01*
X99981332Y-90497819D02*
X100076570Y-90497819D01*
X158091047Y-73860819D02*
X158567237Y-73860819D01*
X158567237Y-73860819D02*
X158567237Y-72860819D01*
X157757713Y-73337009D02*
X157424380Y-73337009D01*
X157281523Y-73860819D02*
X157757713Y-73860819D01*
X157757713Y-73860819D02*
X157757713Y-72860819D01*
X157757713Y-72860819D02*
X157281523Y-72860819D01*
X156852951Y-73860819D02*
X156852951Y-72860819D01*
X156852951Y-72860819D02*
X156614856Y-72860819D01*
X156614856Y-72860819D02*
X156471999Y-72908438D01*
X156471999Y-72908438D02*
X156376761Y-73003676D01*
X156376761Y-73003676D02*
X156329142Y-73098914D01*
X156329142Y-73098914D02*
X156281523Y-73289390D01*
X156281523Y-73289390D02*
X156281523Y-73432247D01*
X156281523Y-73432247D02*
X156329142Y-73622723D01*
X156329142Y-73622723D02*
X156376761Y-73717961D01*
X156376761Y-73717961D02*
X156471999Y-73813200D01*
X156471999Y-73813200D02*
X156614856Y-73860819D01*
X156614856Y-73860819D02*
X156852951Y-73860819D01*
X155329142Y-73860819D02*
X155900570Y-73860819D01*
X155614856Y-73860819D02*
X155614856Y-72860819D01*
X155614856Y-72860819D02*
X155710094Y-73003676D01*
X155710094Y-73003676D02*
X155805332Y-73098914D01*
X155805332Y-73098914D02*
X155900570Y-73146533D01*
X105640094Y-101038819D02*
X105640094Y-100038819D01*
X105640094Y-100038819D02*
X105401999Y-100038819D01*
X105401999Y-100038819D02*
X105259142Y-100086438D01*
X105259142Y-100086438D02*
X105163904Y-100181676D01*
X105163904Y-100181676D02*
X105116285Y-100276914D01*
X105116285Y-100276914D02*
X105068666Y-100467390D01*
X105068666Y-100467390D02*
X105068666Y-100610247D01*
X105068666Y-100610247D02*
X105116285Y-100800723D01*
X105116285Y-100800723D02*
X105163904Y-100895961D01*
X105163904Y-100895961D02*
X105259142Y-100991200D01*
X105259142Y-100991200D02*
X105401999Y-101038819D01*
X105401999Y-101038819D02*
X105640094Y-101038819D01*
X104163904Y-100038819D02*
X104640094Y-100038819D01*
X104640094Y-100038819D02*
X104687713Y-100515009D01*
X104687713Y-100515009D02*
X104640094Y-100467390D01*
X104640094Y-100467390D02*
X104544856Y-100419771D01*
X104544856Y-100419771D02*
X104306761Y-100419771D01*
X104306761Y-100419771D02*
X104211523Y-100467390D01*
X104211523Y-100467390D02*
X104163904Y-100515009D01*
X104163904Y-100515009D02*
X104116285Y-100610247D01*
X104116285Y-100610247D02*
X104116285Y-100848342D01*
X104116285Y-100848342D02*
X104163904Y-100943580D01*
X104163904Y-100943580D02*
X104211523Y-100991200D01*
X104211523Y-100991200D02*
X104306761Y-101038819D01*
X104306761Y-101038819D02*
X104544856Y-101038819D01*
X104544856Y-101038819D02*
X104640094Y-100991200D01*
X104640094Y-100991200D02*
X104687713Y-100943580D01*
X111513904Y-98244819D02*
X111513904Y-97244819D01*
X110942476Y-98244819D02*
X111371047Y-97673390D01*
X110942476Y-97244819D02*
X111513904Y-97816247D01*
X94210094Y-84020819D02*
X94210094Y-83020819D01*
X94210094Y-83020819D02*
X93971999Y-83020819D01*
X93971999Y-83020819D02*
X93829142Y-83068438D01*
X93829142Y-83068438D02*
X93733904Y-83163676D01*
X93733904Y-83163676D02*
X93686285Y-83258914D01*
X93686285Y-83258914D02*
X93638666Y-83449390D01*
X93638666Y-83449390D02*
X93638666Y-83592247D01*
X93638666Y-83592247D02*
X93686285Y-83782723D01*
X93686285Y-83782723D02*
X93733904Y-83877961D01*
X93733904Y-83877961D02*
X93829142Y-83973200D01*
X93829142Y-83973200D02*
X93971999Y-84020819D01*
X93971999Y-84020819D02*
X94210094Y-84020819D01*
X92781523Y-83354152D02*
X92781523Y-84020819D01*
X93019618Y-82973200D02*
X93257713Y-83687485D01*
X93257713Y-83687485D02*
X92638666Y-83687485D01*
X93733904Y-74876819D02*
X93733904Y-73876819D01*
X93162476Y-74876819D02*
X93591047Y-74305390D01*
X93162476Y-73876819D02*
X93733904Y-74448247D01*
X105386094Y-77670819D02*
X105386094Y-76670819D01*
X105386094Y-76670819D02*
X105147999Y-76670819D01*
X105147999Y-76670819D02*
X105005142Y-76718438D01*
X105005142Y-76718438D02*
X104909904Y-76813676D01*
X104909904Y-76813676D02*
X104862285Y-76908914D01*
X104862285Y-76908914D02*
X104814666Y-77099390D01*
X104814666Y-77099390D02*
X104814666Y-77242247D01*
X104814666Y-77242247D02*
X104862285Y-77432723D01*
X104862285Y-77432723D02*
X104909904Y-77527961D01*
X104909904Y-77527961D02*
X105005142Y-77623200D01*
X105005142Y-77623200D02*
X105147999Y-77670819D01*
X105147999Y-77670819D02*
X105386094Y-77670819D01*
X104481332Y-76670819D02*
X103862285Y-76670819D01*
X103862285Y-76670819D02*
X104195618Y-77051771D01*
X104195618Y-77051771D02*
X104052761Y-77051771D01*
X104052761Y-77051771D02*
X103957523Y-77099390D01*
X103957523Y-77099390D02*
X103909904Y-77147009D01*
X103909904Y-77147009D02*
X103862285Y-77242247D01*
X103862285Y-77242247D02*
X103862285Y-77480342D01*
X103862285Y-77480342D02*
X103909904Y-77575580D01*
X103909904Y-77575580D02*
X103957523Y-77623200D01*
X103957523Y-77623200D02*
X104052761Y-77670819D01*
X104052761Y-77670819D02*
X104338475Y-77670819D01*
X104338475Y-77670819D02*
X104433713Y-77623200D01*
X104433713Y-77623200D02*
X104481332Y-77575580D01*
X111259904Y-74876819D02*
X111259904Y-73876819D01*
X110688476Y-74876819D02*
X111117047Y-74305390D01*
X110688476Y-73876819D02*
X111259904Y-74448247D01*
X105386094Y-83512819D02*
X105386094Y-82512819D01*
X105386094Y-82512819D02*
X105147999Y-82512819D01*
X105147999Y-82512819D02*
X105005142Y-82560438D01*
X105005142Y-82560438D02*
X104909904Y-82655676D01*
X104909904Y-82655676D02*
X104862285Y-82750914D01*
X104862285Y-82750914D02*
X104814666Y-82941390D01*
X104814666Y-82941390D02*
X104814666Y-83084247D01*
X104814666Y-83084247D02*
X104862285Y-83274723D01*
X104862285Y-83274723D02*
X104909904Y-83369961D01*
X104909904Y-83369961D02*
X105005142Y-83465200D01*
X105005142Y-83465200D02*
X105147999Y-83512819D01*
X105147999Y-83512819D02*
X105386094Y-83512819D01*
X104433713Y-82608057D02*
X104386094Y-82560438D01*
X104386094Y-82560438D02*
X104290856Y-82512819D01*
X104290856Y-82512819D02*
X104052761Y-82512819D01*
X104052761Y-82512819D02*
X103957523Y-82560438D01*
X103957523Y-82560438D02*
X103909904Y-82608057D01*
X103909904Y-82608057D02*
X103862285Y-82703295D01*
X103862285Y-82703295D02*
X103862285Y-82798533D01*
X103862285Y-82798533D02*
X103909904Y-82941390D01*
X103909904Y-82941390D02*
X104481332Y-83512819D01*
X104481332Y-83512819D02*
X103862285Y-83512819D01*
X111259904Y-80718819D02*
X111259904Y-79718819D01*
X110688476Y-80718819D02*
X111117047Y-80147390D01*
X110688476Y-79718819D02*
X111259904Y-80290247D01*
D12*
X154915000Y-89419000D02*
X155981000Y-89419000D01*
X154680000Y-89459000D02*
X156216000Y-89459000D01*
X154500000Y-89499000D02*
X156396000Y-89499000D01*
X154350000Y-89539000D02*
X156546000Y-89539000D01*
X154219000Y-89579000D02*
X156677000Y-89579000D01*
X154102000Y-89619000D02*
X156794000Y-89619000D01*
X153995000Y-89659000D02*
X156901000Y-89659000D01*
X153896000Y-89699000D02*
X157000000Y-89699000D01*
X153803000Y-89739000D02*
X157093000Y-89739000D01*
X153717000Y-89779000D02*
X157179000Y-89779000D01*
X153635000Y-89819000D02*
X157261000Y-89819000D01*
X153558000Y-89859000D02*
X157338000Y-89859000D01*
X153484000Y-89899000D02*
X157412000Y-89899000D01*
X153414000Y-89939000D02*
X157482000Y-89939000D01*
X153346000Y-89979000D02*
X157550000Y-89979000D01*
X153282000Y-90019000D02*
X157614000Y-90019000D01*
X153220000Y-90059000D02*
X157676000Y-90059000D01*
X153161000Y-90099000D02*
X157735000Y-90099000D01*
X153103000Y-90139000D02*
X157793000Y-90139000D01*
X153048000Y-90179000D02*
X157848000Y-90179000D01*
X152994000Y-90219000D02*
X157902000Y-90219000D01*
X152943000Y-90259000D02*
X157953000Y-90259000D01*
X152892000Y-90299000D02*
X158004000Y-90299000D01*
X152844000Y-90339000D02*
X158052000Y-90339000D01*
X152797000Y-90379000D02*
X158099000Y-90379000D01*
X152751000Y-90419000D02*
X158145000Y-90419000D01*
X152707000Y-90459000D02*
X158189000Y-90459000D01*
X152664000Y-90499000D02*
X158232000Y-90499000D01*
X152622000Y-90539000D02*
X158274000Y-90539000D01*
X152581000Y-90579000D02*
X158315000Y-90579000D01*
X152541000Y-90619000D02*
X158355000Y-90619000D01*
X152503000Y-90659000D02*
X158393000Y-90659000D01*
X152465000Y-90699000D02*
X158431000Y-90699000D01*
X156488000Y-90739000D02*
X158467000Y-90739000D01*
X152429000Y-90739000D02*
X154408000Y-90739000D01*
X156488000Y-90779000D02*
X158503000Y-90779000D01*
X152393000Y-90779000D02*
X154408000Y-90779000D01*
X156488000Y-90819000D02*
X158538000Y-90819000D01*
X152358000Y-90819000D02*
X154408000Y-90819000D01*
X156488000Y-90859000D02*
X158572000Y-90859000D01*
X152324000Y-90859000D02*
X154408000Y-90859000D01*
X156488000Y-90899000D02*
X158604000Y-90899000D01*
X152292000Y-90899000D02*
X154408000Y-90899000D01*
X156488000Y-90939000D02*
X158637000Y-90939000D01*
X152259000Y-90939000D02*
X154408000Y-90939000D01*
X156488000Y-90979000D02*
X158668000Y-90979000D01*
X152228000Y-90979000D02*
X154408000Y-90979000D01*
X156488000Y-91019000D02*
X158698000Y-91019000D01*
X152198000Y-91019000D02*
X154408000Y-91019000D01*
X156488000Y-91059000D02*
X158728000Y-91059000D01*
X152168000Y-91059000D02*
X154408000Y-91059000D01*
X156488000Y-91099000D02*
X158757000Y-91099000D01*
X152139000Y-91099000D02*
X154408000Y-91099000D01*
X156488000Y-91139000D02*
X158786000Y-91139000D01*
X152110000Y-91139000D02*
X154408000Y-91139000D01*
X156488000Y-91179000D02*
X158813000Y-91179000D01*
X152083000Y-91179000D02*
X154408000Y-91179000D01*
X156488000Y-91219000D02*
X158840000Y-91219000D01*
X152056000Y-91219000D02*
X154408000Y-91219000D01*
X156488000Y-91259000D02*
X158866000Y-91259000D01*
X152030000Y-91259000D02*
X154408000Y-91259000D01*
X156488000Y-91299000D02*
X158892000Y-91299000D01*
X152004000Y-91299000D02*
X154408000Y-91299000D01*
X156488000Y-91339000D02*
X158917000Y-91339000D01*
X151979000Y-91339000D02*
X154408000Y-91339000D01*
X156488000Y-91379000D02*
X158941000Y-91379000D01*
X151955000Y-91379000D02*
X154408000Y-91379000D01*
X156488000Y-91419000D02*
X158965000Y-91419000D01*
X151931000Y-91419000D02*
X154408000Y-91419000D01*
X156488000Y-91459000D02*
X158988000Y-91459000D01*
X151908000Y-91459000D02*
X154408000Y-91459000D01*
X156488000Y-91499000D02*
X159010000Y-91499000D01*
X151886000Y-91499000D02*
X154408000Y-91499000D01*
X156488000Y-91539000D02*
X159032000Y-91539000D01*
X151864000Y-91539000D02*
X154408000Y-91539000D01*
X156488000Y-91579000D02*
X159054000Y-91579000D01*
X151842000Y-91579000D02*
X154408000Y-91579000D01*
X156488000Y-91619000D02*
X159075000Y-91619000D01*
X151821000Y-91619000D02*
X154408000Y-91619000D01*
X156488000Y-91659000D02*
X159095000Y-91659000D01*
X151801000Y-91659000D02*
X154408000Y-91659000D01*
X156488000Y-91699000D02*
X159114000Y-91699000D01*
X151782000Y-91699000D02*
X154408000Y-91699000D01*
X156488000Y-91739000D02*
X159134000Y-91739000D01*
X151762000Y-91739000D02*
X154408000Y-91739000D01*
X156488000Y-91779000D02*
X159152000Y-91779000D01*
X151744000Y-91779000D02*
X154408000Y-91779000D01*
X156488000Y-91819000D02*
X159170000Y-91819000D01*
X151726000Y-91819000D02*
X154408000Y-91819000D01*
X156488000Y-91859000D02*
X159188000Y-91859000D01*
X151708000Y-91859000D02*
X154408000Y-91859000D01*
X156488000Y-91899000D02*
X159205000Y-91899000D01*
X151691000Y-91899000D02*
X154408000Y-91899000D01*
X156488000Y-91939000D02*
X159222000Y-91939000D01*
X151674000Y-91939000D02*
X154408000Y-91939000D01*
X156488000Y-91979000D02*
X159238000Y-91979000D01*
X151658000Y-91979000D02*
X154408000Y-91979000D01*
X156488000Y-92019000D02*
X159253000Y-92019000D01*
X151643000Y-92019000D02*
X154408000Y-92019000D01*
X156488000Y-92059000D02*
X159269000Y-92059000D01*
X151627000Y-92059000D02*
X154408000Y-92059000D01*
X156488000Y-92099000D02*
X159283000Y-92099000D01*
X151613000Y-92099000D02*
X154408000Y-92099000D01*
X156488000Y-92139000D02*
X159298000Y-92139000D01*
X151598000Y-92139000D02*
X154408000Y-92139000D01*
X156488000Y-92179000D02*
X159311000Y-92179000D01*
X151585000Y-92179000D02*
X154408000Y-92179000D01*
X156488000Y-92219000D02*
X159325000Y-92219000D01*
X151571000Y-92219000D02*
X154408000Y-92219000D01*
X156488000Y-92259000D02*
X159337000Y-92259000D01*
X151559000Y-92259000D02*
X154408000Y-92259000D01*
X156488000Y-92299000D02*
X159350000Y-92299000D01*
X151546000Y-92299000D02*
X154408000Y-92299000D01*
X156488000Y-92339000D02*
X159362000Y-92339000D01*
X151534000Y-92339000D02*
X154408000Y-92339000D01*
X156488000Y-92379000D02*
X159373000Y-92379000D01*
X151523000Y-92379000D02*
X154408000Y-92379000D01*
X156488000Y-92419000D02*
X159384000Y-92419000D01*
X151512000Y-92419000D02*
X154408000Y-92419000D01*
X156488000Y-92459000D02*
X159395000Y-92459000D01*
X151501000Y-92459000D02*
X154408000Y-92459000D01*
X156488000Y-92499000D02*
X159405000Y-92499000D01*
X151491000Y-92499000D02*
X154408000Y-92499000D01*
X156488000Y-92539000D02*
X159415000Y-92539000D01*
X151481000Y-92539000D02*
X154408000Y-92539000D01*
X156488000Y-92579000D02*
X159424000Y-92579000D01*
X151472000Y-92579000D02*
X154408000Y-92579000D01*
X156488000Y-92619000D02*
X159433000Y-92619000D01*
X151463000Y-92619000D02*
X154408000Y-92619000D01*
X156488000Y-92659000D02*
X159442000Y-92659000D01*
X151454000Y-92659000D02*
X154408000Y-92659000D01*
X156488000Y-92699000D02*
X159450000Y-92699000D01*
X151446000Y-92699000D02*
X154408000Y-92699000D01*
X156488000Y-92739000D02*
X159458000Y-92739000D01*
X151438000Y-92739000D02*
X154408000Y-92739000D01*
X156488000Y-92779000D02*
X159465000Y-92779000D01*
X151431000Y-92779000D02*
X154408000Y-92779000D01*
X151424000Y-92820000D02*
X159472000Y-92820000D01*
X151418000Y-92860000D02*
X159478000Y-92860000D01*
X151411000Y-92900000D02*
X159485000Y-92900000D01*
X151406000Y-92940000D02*
X159490000Y-92940000D01*
X151400000Y-92980000D02*
X159496000Y-92980000D01*
X151396000Y-93020000D02*
X159500000Y-93020000D01*
X151391000Y-93060000D02*
X159505000Y-93060000D01*
X151387000Y-93100000D02*
X159509000Y-93100000D01*
X151383000Y-93140000D02*
X159513000Y-93140000D01*
X151380000Y-93180000D02*
X159516000Y-93180000D01*
X151377000Y-93220000D02*
X159519000Y-93220000D01*
X151374000Y-93260000D02*
X159522000Y-93260000D01*
X151372000Y-93300000D02*
X159524000Y-93300000D01*
X151371000Y-93340000D02*
X159525000Y-93340000D01*
X151369000Y-93380000D02*
X159527000Y-93380000D01*
X151368000Y-93420000D02*
X159528000Y-93420000D01*
X151368000Y-93460000D02*
X159528000Y-93460000D01*
X151368000Y-93500000D02*
X159528000Y-93500000D01*
X157763000Y-97109698D02*
X157763000Y-97909698D01*
X157363000Y-97509698D02*
X158163000Y-97509698D01*
X159568000Y-93500000D02*
G75*
G02*
X151328000Y-93500000I-4120000J0D01*
G01*
X151328000Y-93500000D02*
G75*
G02*
X159568000Y-93500000I4120000J0D01*
G01*
X102902000Y-109628000D02*
X109442000Y-109628000D01*
X102902000Y-109958000D02*
X102902000Y-109628000D01*
X102902000Y-112038000D02*
X102902000Y-112368000D01*
X102902000Y-112368000D02*
X109442000Y-112368000D01*
X109442000Y-109628000D02*
X109442000Y-109958000D01*
X109442000Y-112368000D02*
X109442000Y-112038000D01*
X119386000Y-93852000D02*
X119386000Y-109592000D01*
X131810000Y-93852000D02*
X119386000Y-93852000D01*
X131810000Y-109592000D02*
X119386000Y-109592000D01*
X144266000Y-93852000D02*
X131842000Y-93852000D01*
X144266000Y-93852000D02*
X144266000Y-109592000D01*
X144266000Y-109592000D02*
X131842000Y-109592000D01*
X95282000Y-104040000D02*
X101822000Y-104040000D01*
X95282000Y-104370000D02*
X95282000Y-104040000D01*
X95282000Y-106450000D02*
X95282000Y-106780000D01*
X95282000Y-106780000D02*
X101822000Y-106780000D01*
X101822000Y-104040000D02*
X101822000Y-104370000D01*
X101822000Y-106780000D02*
X101822000Y-106450000D01*
D13*
X155574000Y-102108000D02*
G75*
G02*
X144574000Y-102108000I-5500000J0D01*
G01*
X144574000Y-102108000D02*
G75*
G02*
X155574000Y-102108000I5500000J0D01*
G01*
D12*
X119443000Y-83880000D02*
X137605000Y-83880000D01*
X119444000Y-83760000D02*
X137604000Y-83760000D01*
X119444000Y-83800000D02*
X137604000Y-83800000D01*
X119444000Y-83840000D02*
X137604000Y-83840000D01*
X119445000Y-83720000D02*
X137603000Y-83720000D01*
X119446000Y-83680000D02*
X137602000Y-83680000D01*
X119447000Y-83640000D02*
X137601000Y-83640000D01*
X119448000Y-83600000D02*
X137600000Y-83600000D01*
X119449000Y-83560000D02*
X137599000Y-83560000D01*
X119451000Y-83520000D02*
X137597000Y-83520000D01*
X119452000Y-83480000D02*
X137596000Y-83480000D01*
X119454000Y-83440000D02*
X137594000Y-83440000D01*
X119456000Y-83400000D02*
X137592000Y-83400000D01*
X119458000Y-83360000D02*
X137590000Y-83360000D01*
X119461000Y-83320000D02*
X137587000Y-83320000D01*
X119463000Y-83280000D02*
X137585000Y-83280000D01*
X119466000Y-83240000D02*
X137582000Y-83240000D01*
X119469000Y-83200000D02*
X137579000Y-83200000D01*
X119472000Y-83159000D02*
X137576000Y-83159000D01*
X119475000Y-83119000D02*
X137573000Y-83119000D01*
X119479000Y-83079000D02*
X137569000Y-83079000D01*
X119482000Y-83039000D02*
X137566000Y-83039000D01*
X119486000Y-82999000D02*
X137562000Y-82999000D01*
X119490000Y-82959000D02*
X137558000Y-82959000D01*
X119494000Y-82919000D02*
X137554000Y-82919000D01*
X119498000Y-82879000D02*
X137550000Y-82879000D01*
X119503000Y-82839000D02*
X137545000Y-82839000D01*
X119508000Y-82799000D02*
X137540000Y-82799000D01*
X119513000Y-82759000D02*
X137535000Y-82759000D01*
X119518000Y-82719000D02*
X137530000Y-82719000D01*
X119523000Y-82679000D02*
X137525000Y-82679000D01*
X119528000Y-82639000D02*
X137520000Y-82639000D01*
X119534000Y-82599000D02*
X137514000Y-82599000D01*
X119540000Y-82559000D02*
X137508000Y-82559000D01*
X119545000Y-82519000D02*
X137503000Y-82519000D01*
X119552000Y-82479000D02*
X137496000Y-82479000D01*
X119558000Y-82439000D02*
X137490000Y-82439000D01*
X119564000Y-82399000D02*
X137484000Y-82399000D01*
X119571000Y-82359000D02*
X137477000Y-82359000D01*
X119578000Y-82319000D02*
X137470000Y-82319000D01*
X119585000Y-82279000D02*
X137463000Y-82279000D01*
X119592000Y-82239000D02*
X137456000Y-82239000D01*
X119600000Y-82199000D02*
X137448000Y-82199000D01*
X119607000Y-82159000D02*
X137441000Y-82159000D01*
X119615000Y-82119000D02*
X137433000Y-82119000D01*
X119623000Y-82079000D02*
X137425000Y-82079000D01*
X119631000Y-82039000D02*
X137417000Y-82039000D01*
X119639000Y-81999000D02*
X137409000Y-81999000D01*
X119648000Y-81959000D02*
X137400000Y-81959000D01*
X119657000Y-81919000D02*
X137391000Y-81919000D01*
X119666000Y-81879000D02*
X137382000Y-81879000D01*
X119675000Y-81839000D02*
X137373000Y-81839000D01*
X119684000Y-81799000D02*
X137364000Y-81799000D01*
X119693000Y-81759000D02*
X137355000Y-81759000D01*
X119703000Y-81719000D02*
X137345000Y-81719000D01*
X119713000Y-81679000D02*
X137335000Y-81679000D01*
X119723000Y-81639000D02*
X137325000Y-81639000D01*
X119733000Y-81599000D02*
X137315000Y-81599000D01*
X119744000Y-81559000D02*
X127084000Y-81559000D01*
X119754000Y-81519000D02*
X127084000Y-81519000D01*
X119765000Y-81479000D02*
X127084000Y-81479000D01*
X119776000Y-81439000D02*
X127084000Y-81439000D01*
X119787000Y-81399000D02*
X127084000Y-81399000D01*
X119799000Y-81359000D02*
X127084000Y-81359000D01*
X119810000Y-81319000D02*
X127084000Y-81319000D01*
X119822000Y-81279000D02*
X127084000Y-81279000D01*
X119834000Y-81239000D02*
X127084000Y-81239000D01*
X119846000Y-81199000D02*
X127084000Y-81199000D01*
X119859000Y-81159000D02*
X127084000Y-81159000D01*
X119871000Y-81119000D02*
X127084000Y-81119000D01*
X119884000Y-81079000D02*
X127084000Y-81079000D01*
X119897000Y-81039000D02*
X127084000Y-81039000D01*
X119910000Y-80999000D02*
X127084000Y-80999000D01*
X119924000Y-80959000D02*
X127084000Y-80959000D01*
X119937000Y-80919000D02*
X127084000Y-80919000D01*
X119951000Y-80879000D02*
X127084000Y-80879000D01*
X119965000Y-80839000D02*
X127084000Y-80839000D01*
X119979000Y-80799000D02*
X127084000Y-80799000D01*
X119994000Y-80759000D02*
X127084000Y-80759000D01*
X120008000Y-80719000D02*
X127084000Y-80719000D01*
X120023000Y-80679000D02*
X127084000Y-80679000D01*
X120038000Y-80639000D02*
X127084000Y-80639000D01*
X120054000Y-80599000D02*
X127084000Y-80599000D01*
X120069000Y-80559000D02*
X127084000Y-80559000D01*
X120085000Y-80519000D02*
X127084000Y-80519000D01*
X120101000Y-80479000D02*
X127084000Y-80479000D01*
X120117000Y-80439000D02*
X127084000Y-80439000D01*
X120134000Y-80399000D02*
X127084000Y-80399000D01*
X120150000Y-80359000D02*
X127084000Y-80359000D01*
X120167000Y-80319000D02*
X127084000Y-80319000D01*
X120184000Y-80279000D02*
X127084000Y-80279000D01*
X120201000Y-80239000D02*
X127084000Y-80239000D01*
X120219000Y-80199000D02*
X127084000Y-80199000D01*
X120237000Y-80159000D02*
X127084000Y-80159000D01*
X120255000Y-80119000D02*
X127084000Y-80119000D01*
X120273000Y-80079000D02*
X127084000Y-80079000D01*
X120291000Y-80039000D02*
X127084000Y-80039000D01*
X120310000Y-79999000D02*
X127084000Y-79999000D01*
X120329000Y-79959000D02*
X127084000Y-79959000D01*
X120348000Y-79919000D02*
X127084000Y-79919000D01*
X120368000Y-79879000D02*
X127084000Y-79879000D01*
X120387000Y-79839000D02*
X127084000Y-79839000D01*
X120407000Y-79799000D02*
X127084000Y-79799000D01*
X120427000Y-79759000D02*
X127084000Y-79759000D01*
X120448000Y-79719000D02*
X127084000Y-79719000D01*
X120468000Y-79679000D02*
X127084000Y-79679000D01*
X120489000Y-79639000D02*
X127084000Y-79639000D01*
X120510000Y-79599000D02*
X127084000Y-79599000D01*
X120532000Y-79559000D02*
X127084000Y-79559000D01*
X120553000Y-79519000D02*
X127084000Y-79519000D01*
X120575000Y-79479000D02*
X127084000Y-79479000D01*
X120597000Y-79439000D02*
X127084000Y-79439000D01*
X120620000Y-79399000D02*
X127084000Y-79399000D01*
X120642000Y-79359000D02*
X127084000Y-79359000D01*
X120665000Y-79319000D02*
X127084000Y-79319000D01*
X120689000Y-79279000D02*
X127084000Y-79279000D01*
X120712000Y-79239000D02*
X127084000Y-79239000D01*
X120736000Y-79199000D02*
X127084000Y-79199000D01*
X120760000Y-79159000D02*
X127084000Y-79159000D01*
X120784000Y-79119000D02*
X127084000Y-79119000D01*
X120809000Y-79079000D02*
X127084000Y-79079000D01*
X120834000Y-79039000D02*
X127084000Y-79039000D01*
X120859000Y-78999000D02*
X127084000Y-78999000D01*
X120884000Y-78959000D02*
X127084000Y-78959000D01*
X120910000Y-78919000D02*
X127084000Y-78919000D01*
X120936000Y-78879000D02*
X127084000Y-78879000D01*
X120963000Y-78839000D02*
X127084000Y-78839000D01*
X120989000Y-78799000D02*
X127084000Y-78799000D01*
X121016000Y-78759000D02*
X127084000Y-78759000D01*
X121044000Y-78719000D02*
X127084000Y-78719000D01*
X121071000Y-78679000D02*
X135977000Y-78679000D01*
X121099000Y-78639000D02*
X135949000Y-78639000D01*
X121127000Y-78599000D02*
X135921000Y-78599000D01*
X121156000Y-78559000D02*
X135892000Y-78559000D01*
X121185000Y-78519000D02*
X135863000Y-78519000D01*
X121214000Y-78479000D02*
X135834000Y-78479000D01*
X121244000Y-78439000D02*
X135804000Y-78439000D01*
X121274000Y-78399000D02*
X135774000Y-78399000D01*
X121304000Y-78359000D02*
X135744000Y-78359000D01*
X121334000Y-78319000D02*
X135714000Y-78319000D01*
X121365000Y-78279000D02*
X135683000Y-78279000D01*
X121397000Y-78239000D02*
X135651000Y-78239000D01*
X121428000Y-78199000D02*
X135620000Y-78199000D01*
X121460000Y-78159000D02*
X135588000Y-78159000D01*
X121493000Y-78119000D02*
X135555000Y-78119000D01*
X121525000Y-78079000D02*
X135523000Y-78079000D01*
X121559000Y-78039000D02*
X135489000Y-78039000D01*
X121592000Y-77999000D02*
X135456000Y-77999000D01*
X121626000Y-77959000D02*
X135422000Y-77959000D01*
X121660000Y-77919000D02*
X135388000Y-77919000D01*
X121695000Y-77879000D02*
X135353000Y-77879000D01*
X121730000Y-77839000D02*
X135318000Y-77839000D01*
X121766000Y-77799000D02*
X135282000Y-77799000D01*
X121802000Y-77759000D02*
X135246000Y-77759000D01*
X121838000Y-77719000D02*
X135210000Y-77719000D01*
X121875000Y-77679000D02*
X135173000Y-77679000D01*
X121912000Y-77639000D02*
X135136000Y-77639000D01*
X121950000Y-77599000D02*
X135098000Y-77599000D01*
X121988000Y-77559000D02*
X135060000Y-77559000D01*
X122027000Y-77519000D02*
X135021000Y-77519000D01*
X122066000Y-77479000D02*
X134982000Y-77479000D01*
X122106000Y-77439000D02*
X134942000Y-77439000D01*
X122146000Y-77399000D02*
X134902000Y-77399000D01*
X122187000Y-77359000D02*
X134861000Y-77359000D01*
X122228000Y-77319000D02*
X134820000Y-77319000D01*
X122270000Y-77279000D02*
X134778000Y-77279000D01*
X122312000Y-77239000D02*
X134736000Y-77239000D01*
X122354000Y-77199000D02*
X134694000Y-77199000D01*
X122398000Y-77159000D02*
X134650000Y-77159000D01*
X122442000Y-77119000D02*
X134606000Y-77119000D01*
X122486000Y-77079000D02*
X134562000Y-77079000D01*
X122531000Y-77039000D02*
X134517000Y-77039000D01*
X122577000Y-76999000D02*
X134471000Y-76999000D01*
X122623000Y-76959000D02*
X134425000Y-76959000D01*
X122670000Y-76919000D02*
X134378000Y-76919000D01*
X122718000Y-76879000D02*
X134330000Y-76879000D01*
X122766000Y-76839000D02*
X134282000Y-76839000D01*
X122815000Y-76799000D02*
X134233000Y-76799000D01*
X122864000Y-76759000D02*
X134184000Y-76759000D01*
X122915000Y-76719000D02*
X134133000Y-76719000D01*
X122966000Y-76679000D02*
X134082000Y-76679000D01*
X123018000Y-76639000D02*
X134030000Y-76639000D01*
X123070000Y-76599000D02*
X133978000Y-76599000D01*
X123124000Y-76559000D02*
X133924000Y-76559000D01*
X123178000Y-76519000D02*
X133870000Y-76519000D01*
X123233000Y-76479000D02*
X133815000Y-76479000D01*
X123289000Y-76439000D02*
X133759000Y-76439000D01*
X123346000Y-76399000D02*
X133702000Y-76399000D01*
X123404000Y-76359000D02*
X133644000Y-76359000D01*
X123462000Y-76319000D02*
X133586000Y-76319000D01*
X123522000Y-76279000D02*
X133526000Y-76279000D01*
X123583000Y-76239000D02*
X133465000Y-76239000D01*
X123645000Y-76199000D02*
X133403000Y-76199000D01*
X123708000Y-76159000D02*
X133340000Y-76159000D01*
X123772000Y-76119000D02*
X133276000Y-76119000D01*
X123838000Y-76079000D02*
X133210000Y-76079000D01*
X123904000Y-76039000D02*
X133144000Y-76039000D01*
X123972000Y-75999000D02*
X133076000Y-75999000D01*
X124042000Y-75959000D02*
X133006000Y-75959000D01*
X124112000Y-75919000D02*
X132936000Y-75919000D01*
X124185000Y-75879000D02*
X132863000Y-75879000D01*
X124259000Y-75839000D02*
X132789000Y-75839000D01*
X124334000Y-75799000D02*
X132714000Y-75799000D01*
X124411000Y-75759000D02*
X132637000Y-75759000D01*
X124491000Y-75719000D02*
X132557000Y-75719000D01*
X124572000Y-75680000D02*
X132476000Y-75680000D01*
X124655000Y-75640000D02*
X132393000Y-75640000D01*
X124740000Y-75600000D02*
X132308000Y-75600000D01*
X124828000Y-75560000D02*
X132220000Y-75560000D01*
X124919000Y-75520000D02*
X132129000Y-75520000D01*
X125012000Y-75480000D02*
X132036000Y-75480000D01*
X125108000Y-75440000D02*
X131940000Y-75440000D01*
X125207000Y-75400000D02*
X131841000Y-75400000D01*
X125310000Y-75360000D02*
X131738000Y-75360000D01*
X125417000Y-75320000D02*
X131631000Y-75320000D01*
X125528000Y-75280000D02*
X131520000Y-75280000D01*
X125644000Y-75240000D02*
X131404000Y-75240000D01*
X125765000Y-75200000D02*
X131283000Y-75200000D01*
X125892000Y-75160000D02*
X131156000Y-75160000D01*
X126026000Y-75120000D02*
X131022000Y-75120000D01*
X126169000Y-75080000D02*
X130879000Y-75080000D01*
X126321000Y-75040000D02*
X130727000Y-75040000D01*
X126485000Y-75000000D02*
X130563000Y-75000000D01*
X126664000Y-74960000D02*
X130384000Y-74960000D01*
X126863000Y-74920000D02*
X130185000Y-74920000D01*
X127089000Y-74880000D02*
X129959000Y-74880000D01*
X127358000Y-74840000D02*
X129690000Y-74840000D01*
X127710000Y-74800000D02*
X129338000Y-74800000D01*
X128484000Y-74760000D02*
X128564000Y-74760000D01*
X129964000Y-78719000D02*
X136004000Y-78719000D01*
X129964000Y-78759000D02*
X136032000Y-78759000D01*
X129964000Y-78799000D02*
X136059000Y-78799000D01*
X129964000Y-78839000D02*
X136085000Y-78839000D01*
X129964000Y-78879000D02*
X136112000Y-78879000D01*
X129964000Y-78919000D02*
X136138000Y-78919000D01*
X129964000Y-78959000D02*
X136164000Y-78959000D01*
X129964000Y-78999000D02*
X136189000Y-78999000D01*
X129964000Y-79039000D02*
X136214000Y-79039000D01*
X129964000Y-79079000D02*
X136239000Y-79079000D01*
X129964000Y-79119000D02*
X136264000Y-79119000D01*
X129964000Y-79159000D02*
X136288000Y-79159000D01*
X129964000Y-79199000D02*
X136312000Y-79199000D01*
X129964000Y-79239000D02*
X136336000Y-79239000D01*
X129964000Y-79279000D02*
X136359000Y-79279000D01*
X129964000Y-79319000D02*
X136383000Y-79319000D01*
X129964000Y-79359000D02*
X136406000Y-79359000D01*
X129964000Y-79399000D02*
X136428000Y-79399000D01*
X129964000Y-79439000D02*
X136451000Y-79439000D01*
X129964000Y-79479000D02*
X136473000Y-79479000D01*
X129964000Y-79519000D02*
X136495000Y-79519000D01*
X129964000Y-79559000D02*
X136516000Y-79559000D01*
X129964000Y-79599000D02*
X136538000Y-79599000D01*
X129964000Y-79639000D02*
X136559000Y-79639000D01*
X129964000Y-79679000D02*
X136580000Y-79679000D01*
X129964000Y-79719000D02*
X136600000Y-79719000D01*
X129964000Y-79759000D02*
X136621000Y-79759000D01*
X129964000Y-79799000D02*
X136641000Y-79799000D01*
X129964000Y-79839000D02*
X136661000Y-79839000D01*
X129964000Y-79879000D02*
X136680000Y-79879000D01*
X129964000Y-79919000D02*
X136700000Y-79919000D01*
X129964000Y-79959000D02*
X136719000Y-79959000D01*
X129964000Y-79999000D02*
X136738000Y-79999000D01*
X129964000Y-80039000D02*
X136757000Y-80039000D01*
X129964000Y-80079000D02*
X136775000Y-80079000D01*
X129964000Y-80119000D02*
X136793000Y-80119000D01*
X129964000Y-80159000D02*
X136811000Y-80159000D01*
X129964000Y-80199000D02*
X136829000Y-80199000D01*
X129964000Y-80239000D02*
X136847000Y-80239000D01*
X129964000Y-80279000D02*
X136864000Y-80279000D01*
X129964000Y-80319000D02*
X136881000Y-80319000D01*
X129964000Y-80359000D02*
X136898000Y-80359000D01*
X129964000Y-80399000D02*
X136914000Y-80399000D01*
X129964000Y-80439000D02*
X136931000Y-80439000D01*
X129964000Y-80479000D02*
X136947000Y-80479000D01*
X129964000Y-80519000D02*
X136963000Y-80519000D01*
X129964000Y-80559000D02*
X136979000Y-80559000D01*
X129964000Y-80599000D02*
X136994000Y-80599000D01*
X129964000Y-80639000D02*
X137010000Y-80639000D01*
X129964000Y-80679000D02*
X137025000Y-80679000D01*
X129964000Y-80719000D02*
X137040000Y-80719000D01*
X129964000Y-80759000D02*
X137054000Y-80759000D01*
X129964000Y-80799000D02*
X137069000Y-80799000D01*
X129964000Y-80839000D02*
X137083000Y-80839000D01*
X129964000Y-80879000D02*
X137097000Y-80879000D01*
X129964000Y-80919000D02*
X137111000Y-80919000D01*
X129964000Y-80959000D02*
X137124000Y-80959000D01*
X129964000Y-80999000D02*
X137138000Y-80999000D01*
X129964000Y-81039000D02*
X137151000Y-81039000D01*
X129964000Y-81079000D02*
X137164000Y-81079000D01*
X129964000Y-81119000D02*
X137177000Y-81119000D01*
X129964000Y-81159000D02*
X137189000Y-81159000D01*
X129964000Y-81199000D02*
X137202000Y-81199000D01*
X129964000Y-81239000D02*
X137214000Y-81239000D01*
X129964000Y-81279000D02*
X137226000Y-81279000D01*
X129964000Y-81319000D02*
X137238000Y-81319000D01*
X129964000Y-81359000D02*
X137249000Y-81359000D01*
X129964000Y-81399000D02*
X137261000Y-81399000D01*
X129964000Y-81439000D02*
X137272000Y-81439000D01*
X129964000Y-81479000D02*
X137283000Y-81479000D01*
X129964000Y-81519000D02*
X137294000Y-81519000D01*
X129964000Y-81559000D02*
X137304000Y-81559000D01*
X132739000Y-92739440D02*
X134539000Y-92739440D01*
X133639000Y-91839440D02*
X133639000Y-93639440D01*
X137644000Y-83880000D02*
G75*
G02*
X119404000Y-83880000I-9120000J0D01*
G01*
X119404000Y-83880000D02*
G75*
G02*
X137644000Y-83880000I9120000J0D01*
G01*
X137969000Y-83880000D02*
X154131000Y-83880000D01*
X137970000Y-83760000D02*
X154130000Y-83760000D01*
X137970000Y-83800000D02*
X154130000Y-83800000D01*
X137970000Y-83840000D02*
X154130000Y-83840000D01*
X137971000Y-83720000D02*
X154129000Y-83720000D01*
X137972000Y-83680000D02*
X154128000Y-83680000D01*
X137973000Y-83640000D02*
X154127000Y-83640000D01*
X137974000Y-83600000D02*
X154126000Y-83600000D01*
X137976000Y-83560000D02*
X154124000Y-83560000D01*
X137977000Y-83520000D02*
X154123000Y-83520000D01*
X137979000Y-83480000D02*
X154121000Y-83480000D01*
X137981000Y-83440000D02*
X154119000Y-83440000D01*
X137984000Y-83400000D02*
X154116000Y-83400000D01*
X137986000Y-83360000D02*
X154114000Y-83360000D01*
X137989000Y-83320000D02*
X154111000Y-83320000D01*
X137992000Y-83280000D02*
X154108000Y-83280000D01*
X137995000Y-83240000D02*
X154105000Y-83240000D01*
X137998000Y-83200000D02*
X154102000Y-83200000D01*
X138001000Y-83159000D02*
X154099000Y-83159000D01*
X138005000Y-83119000D02*
X154095000Y-83119000D01*
X138009000Y-83079000D02*
X154091000Y-83079000D01*
X138013000Y-83039000D02*
X154087000Y-83039000D01*
X138017000Y-82999000D02*
X154083000Y-82999000D01*
X138022000Y-82959000D02*
X154078000Y-82959000D01*
X138026000Y-82919000D02*
X154074000Y-82919000D01*
X138031000Y-82879000D02*
X154069000Y-82879000D01*
X138036000Y-82839000D02*
X154064000Y-82839000D01*
X138042000Y-82799000D02*
X154058000Y-82799000D01*
X138047000Y-82759000D02*
X154053000Y-82759000D01*
X138053000Y-82719000D02*
X154047000Y-82719000D01*
X138059000Y-82679000D02*
X154041000Y-82679000D01*
X138065000Y-82639000D02*
X154035000Y-82639000D01*
X138071000Y-82599000D02*
X154029000Y-82599000D01*
X138078000Y-82559000D02*
X154022000Y-82559000D01*
X138084000Y-82519000D02*
X154016000Y-82519000D01*
X138091000Y-82479000D02*
X154009000Y-82479000D01*
X138098000Y-82439000D02*
X154002000Y-82439000D01*
X138106000Y-82399000D02*
X153994000Y-82399000D01*
X138113000Y-82359000D02*
X153987000Y-82359000D01*
X138121000Y-82319000D02*
X153979000Y-82319000D01*
X138129000Y-82279000D02*
X153971000Y-82279000D01*
X138137000Y-82239000D02*
X153963000Y-82239000D01*
X138145000Y-82199000D02*
X153955000Y-82199000D01*
X138154000Y-82159000D02*
X153946000Y-82159000D01*
X138163000Y-82119000D02*
X153937000Y-82119000D01*
X138172000Y-82079000D02*
X153928000Y-82079000D01*
X138181000Y-82039000D02*
X153919000Y-82039000D01*
X138190000Y-81999000D02*
X153910000Y-81999000D01*
X138200000Y-81959000D02*
X153900000Y-81959000D01*
X138210000Y-81919000D02*
X153890000Y-81919000D01*
X138220000Y-81879000D02*
X153880000Y-81879000D01*
X138230000Y-81839000D02*
X153870000Y-81839000D01*
X138240000Y-81799000D02*
X153860000Y-81799000D01*
X138251000Y-81759000D02*
X153849000Y-81759000D01*
X138262000Y-81719000D02*
X153838000Y-81719000D01*
X138273000Y-81679000D02*
X153827000Y-81679000D01*
X138285000Y-81639000D02*
X153815000Y-81639000D01*
X138296000Y-81599000D02*
X153804000Y-81599000D01*
X138308000Y-81559000D02*
X144610000Y-81559000D01*
X138320000Y-81519000D02*
X144610000Y-81519000D01*
X138332000Y-81479000D02*
X144610000Y-81479000D01*
X138345000Y-81439000D02*
X144610000Y-81439000D01*
X138357000Y-81399000D02*
X144610000Y-81399000D01*
X138370000Y-81359000D02*
X144610000Y-81359000D01*
X138384000Y-81319000D02*
X144610000Y-81319000D01*
X138397000Y-81279000D02*
X144610000Y-81279000D01*
X138411000Y-81239000D02*
X144610000Y-81239000D01*
X138425000Y-81199000D02*
X144610000Y-81199000D01*
X138439000Y-81159000D02*
X144610000Y-81159000D01*
X138453000Y-81119000D02*
X144610000Y-81119000D01*
X138468000Y-81079000D02*
X144610000Y-81079000D01*
X138482000Y-81039000D02*
X144610000Y-81039000D01*
X138497000Y-80999000D02*
X144610000Y-80999000D01*
X138513000Y-80959000D02*
X144610000Y-80959000D01*
X138528000Y-80919000D02*
X144610000Y-80919000D01*
X138544000Y-80879000D02*
X144610000Y-80879000D01*
X138560000Y-80839000D02*
X144610000Y-80839000D01*
X138576000Y-80799000D02*
X144610000Y-80799000D01*
X138593000Y-80759000D02*
X144610000Y-80759000D01*
X138610000Y-80719000D02*
X144610000Y-80719000D01*
X138627000Y-80679000D02*
X144610000Y-80679000D01*
X138644000Y-80639000D02*
X144610000Y-80639000D01*
X138661000Y-80599000D02*
X144610000Y-80599000D01*
X138679000Y-80559000D02*
X144610000Y-80559000D01*
X138697000Y-80519000D02*
X144610000Y-80519000D01*
X138716000Y-80479000D02*
X144610000Y-80479000D01*
X138734000Y-80439000D02*
X144610000Y-80439000D01*
X138753000Y-80399000D02*
X144610000Y-80399000D01*
X138772000Y-80359000D02*
X144610000Y-80359000D01*
X138792000Y-80319000D02*
X144610000Y-80319000D01*
X138811000Y-80279000D02*
X144610000Y-80279000D01*
X138831000Y-80239000D02*
X144610000Y-80239000D01*
X138851000Y-80199000D02*
X144610000Y-80199000D01*
X138872000Y-80159000D02*
X144610000Y-80159000D01*
X138893000Y-80119000D02*
X144610000Y-80119000D01*
X138914000Y-80079000D02*
X144610000Y-80079000D01*
X138935000Y-80039000D02*
X144610000Y-80039000D01*
X138956000Y-79999000D02*
X144610000Y-79999000D01*
X138978000Y-79959000D02*
X144610000Y-79959000D01*
X139001000Y-79919000D02*
X144610000Y-79919000D01*
X139023000Y-79879000D02*
X144610000Y-79879000D01*
X139046000Y-79839000D02*
X144610000Y-79839000D01*
X139069000Y-79799000D02*
X144610000Y-79799000D01*
X139092000Y-79759000D02*
X144610000Y-79759000D01*
X139116000Y-79719000D02*
X144610000Y-79719000D01*
X139140000Y-79679000D02*
X144610000Y-79679000D01*
X139164000Y-79639000D02*
X144610000Y-79639000D01*
X139189000Y-79599000D02*
X144610000Y-79599000D01*
X139214000Y-79559000D02*
X144610000Y-79559000D01*
X139239000Y-79519000D02*
X144610000Y-79519000D01*
X139265000Y-79479000D02*
X144610000Y-79479000D01*
X139291000Y-79439000D02*
X144610000Y-79439000D01*
X139317000Y-79399000D02*
X144610000Y-79399000D01*
X139344000Y-79359000D02*
X144610000Y-79359000D01*
X139371000Y-79319000D02*
X144610000Y-79319000D01*
X139398000Y-79279000D02*
X144610000Y-79279000D01*
X139426000Y-79239000D02*
X144610000Y-79239000D01*
X139454000Y-79199000D02*
X144610000Y-79199000D01*
X139482000Y-79159000D02*
X144610000Y-79159000D01*
X139511000Y-79119000D02*
X144610000Y-79119000D01*
X139540000Y-79079000D02*
X144610000Y-79079000D01*
X139570000Y-79039000D02*
X144610000Y-79039000D01*
X139600000Y-78999000D02*
X144610000Y-78999000D01*
X139630000Y-78959000D02*
X144610000Y-78959000D01*
X139660000Y-78919000D02*
X144610000Y-78919000D01*
X139692000Y-78879000D02*
X144610000Y-78879000D01*
X139723000Y-78839000D02*
X144610000Y-78839000D01*
X139755000Y-78799000D02*
X144610000Y-78799000D01*
X139787000Y-78759000D02*
X144610000Y-78759000D01*
X139820000Y-78719000D02*
X144610000Y-78719000D01*
X139853000Y-78679000D02*
X152247000Y-78679000D01*
X139887000Y-78639000D02*
X152213000Y-78639000D01*
X139921000Y-78599000D02*
X152179000Y-78599000D01*
X139955000Y-78559000D02*
X152145000Y-78559000D01*
X139990000Y-78519000D02*
X152110000Y-78519000D01*
X140025000Y-78479000D02*
X152075000Y-78479000D01*
X140061000Y-78439000D02*
X152039000Y-78439000D01*
X140098000Y-78399000D02*
X152002000Y-78399000D01*
X140134000Y-78359000D02*
X151966000Y-78359000D01*
X140172000Y-78319000D02*
X151928000Y-78319000D01*
X140210000Y-78279000D02*
X151890000Y-78279000D01*
X140248000Y-78239000D02*
X151852000Y-78239000D01*
X140287000Y-78199000D02*
X151813000Y-78199000D01*
X140326000Y-78159000D02*
X151774000Y-78159000D01*
X140366000Y-78119000D02*
X151734000Y-78119000D01*
X140407000Y-78079000D02*
X151693000Y-78079000D01*
X140448000Y-78039000D02*
X151652000Y-78039000D01*
X140490000Y-77999000D02*
X151610000Y-77999000D01*
X140532000Y-77959000D02*
X151568000Y-77959000D01*
X140575000Y-77919000D02*
X151525000Y-77919000D01*
X140618000Y-77879000D02*
X151482000Y-77879000D01*
X140662000Y-77839000D02*
X151438000Y-77839000D01*
X140707000Y-77799000D02*
X151393000Y-77799000D01*
X140753000Y-77759000D02*
X151347000Y-77759000D01*
X140799000Y-77719000D02*
X151301000Y-77719000D01*
X140846000Y-77679000D02*
X151254000Y-77679000D01*
X140894000Y-77639000D02*
X151206000Y-77639000D01*
X140942000Y-77599000D02*
X151158000Y-77599000D01*
X140991000Y-77559000D02*
X151109000Y-77559000D01*
X141041000Y-77519000D02*
X151059000Y-77519000D01*
X141092000Y-77479000D02*
X151008000Y-77479000D01*
X141144000Y-77439000D02*
X150956000Y-77439000D01*
X141196000Y-77399000D02*
X150904000Y-77399000D01*
X141250000Y-77359000D02*
X150850000Y-77359000D01*
X141304000Y-77319000D02*
X150796000Y-77319000D01*
X141359000Y-77279000D02*
X150741000Y-77279000D01*
X141416000Y-77239000D02*
X150684000Y-77239000D01*
X141473000Y-77199000D02*
X150627000Y-77199000D01*
X141531000Y-77159000D02*
X150569000Y-77159000D01*
X141591000Y-77119000D02*
X150509000Y-77119000D01*
X141652000Y-77079000D02*
X150448000Y-77079000D01*
X141714000Y-77039000D02*
X150386000Y-77039000D01*
X141777000Y-76999000D02*
X150323000Y-76999000D01*
X141841000Y-76959000D02*
X150259000Y-76959000D01*
X141907000Y-76919000D02*
X150193000Y-76919000D01*
X141974000Y-76879000D02*
X150126000Y-76879000D01*
X142043000Y-76839000D02*
X150057000Y-76839000D01*
X142114000Y-76799000D02*
X149986000Y-76799000D01*
X142186000Y-76759000D02*
X149914000Y-76759000D01*
X142260000Y-76719000D02*
X149840000Y-76719000D01*
X142335000Y-76679000D02*
X149765000Y-76679000D01*
X142413000Y-76639000D02*
X149687000Y-76639000D01*
X142493000Y-76599000D02*
X149607000Y-76599000D01*
X142575000Y-76559000D02*
X149525000Y-76559000D01*
X142660000Y-76519000D02*
X149440000Y-76519000D01*
X142747000Y-76479000D02*
X149353000Y-76479000D01*
X142837000Y-76439000D02*
X149263000Y-76439000D01*
X142930000Y-76399000D02*
X149170000Y-76399000D01*
X143026000Y-76359000D02*
X149074000Y-76359000D01*
X143126000Y-76319000D02*
X148974000Y-76319000D01*
X143230000Y-76279000D02*
X148870000Y-76279000D01*
X143339000Y-76239000D02*
X148761000Y-76239000D01*
X143453000Y-76199000D02*
X148647000Y-76199000D01*
X143572000Y-76159000D02*
X148528000Y-76159000D01*
X143699000Y-76119000D02*
X148401000Y-76119000D01*
X143832000Y-76079000D02*
X148268000Y-76079000D01*
X143976000Y-76039000D02*
X148124000Y-76039000D01*
X144130000Y-75999000D02*
X147970000Y-75999000D01*
X144298000Y-75959000D02*
X147802000Y-75959000D01*
X144486000Y-75919000D02*
X147614000Y-75919000D01*
X144699000Y-75879000D02*
X147401000Y-75879000D01*
X144952000Y-75839000D02*
X147148000Y-75839000D01*
X145285000Y-75799000D02*
X146815000Y-75799000D01*
X147490000Y-78719000D02*
X152280000Y-78719000D01*
X147490000Y-78759000D02*
X152313000Y-78759000D01*
X147490000Y-78799000D02*
X152345000Y-78799000D01*
X147490000Y-78839000D02*
X152377000Y-78839000D01*
X147490000Y-78879000D02*
X152408000Y-78879000D01*
X147490000Y-78919000D02*
X152440000Y-78919000D01*
X147490000Y-78959000D02*
X152470000Y-78959000D01*
X147490000Y-78999000D02*
X152500000Y-78999000D01*
X147490000Y-79039000D02*
X152530000Y-79039000D01*
X147490000Y-79079000D02*
X152560000Y-79079000D01*
X147490000Y-79119000D02*
X152589000Y-79119000D01*
X147490000Y-79159000D02*
X152618000Y-79159000D01*
X147490000Y-79199000D02*
X152646000Y-79199000D01*
X147490000Y-79239000D02*
X152674000Y-79239000D01*
X147490000Y-79279000D02*
X152702000Y-79279000D01*
X147490000Y-79319000D02*
X152729000Y-79319000D01*
X147490000Y-79359000D02*
X152756000Y-79359000D01*
X147490000Y-79399000D02*
X152783000Y-79399000D01*
X147490000Y-79439000D02*
X152809000Y-79439000D01*
X147490000Y-79479000D02*
X152835000Y-79479000D01*
X147490000Y-79519000D02*
X152861000Y-79519000D01*
X147490000Y-79559000D02*
X152886000Y-79559000D01*
X147490000Y-79599000D02*
X152911000Y-79599000D01*
X147490000Y-79639000D02*
X152936000Y-79639000D01*
X147490000Y-79679000D02*
X152960000Y-79679000D01*
X147490000Y-79719000D02*
X152984000Y-79719000D01*
X147490000Y-79759000D02*
X153008000Y-79759000D01*
X147490000Y-79799000D02*
X153031000Y-79799000D01*
X147490000Y-79839000D02*
X153054000Y-79839000D01*
X147490000Y-79879000D02*
X153077000Y-79879000D01*
X147490000Y-79919000D02*
X153099000Y-79919000D01*
X147490000Y-79959000D02*
X153122000Y-79959000D01*
X147490000Y-79999000D02*
X153144000Y-79999000D01*
X147490000Y-80039000D02*
X153165000Y-80039000D01*
X147490000Y-80079000D02*
X153186000Y-80079000D01*
X147490000Y-80119000D02*
X153207000Y-80119000D01*
X147490000Y-80159000D02*
X153228000Y-80159000D01*
X147490000Y-80199000D02*
X153249000Y-80199000D01*
X147490000Y-80239000D02*
X153269000Y-80239000D01*
X147490000Y-80279000D02*
X153289000Y-80279000D01*
X147490000Y-80319000D02*
X153308000Y-80319000D01*
X147490000Y-80359000D02*
X153328000Y-80359000D01*
X147490000Y-80399000D02*
X153347000Y-80399000D01*
X147490000Y-80439000D02*
X153366000Y-80439000D01*
X147490000Y-80479000D02*
X153384000Y-80479000D01*
X147490000Y-80519000D02*
X153403000Y-80519000D01*
X147490000Y-80559000D02*
X153421000Y-80559000D01*
X147490000Y-80599000D02*
X153439000Y-80599000D01*
X147490000Y-80639000D02*
X153456000Y-80639000D01*
X147490000Y-80679000D02*
X153473000Y-80679000D01*
X147490000Y-80719000D02*
X153490000Y-80719000D01*
X147490000Y-80759000D02*
X153507000Y-80759000D01*
X147490000Y-80799000D02*
X153524000Y-80799000D01*
X147490000Y-80839000D02*
X153540000Y-80839000D01*
X147490000Y-80879000D02*
X153556000Y-80879000D01*
X147490000Y-80919000D02*
X153572000Y-80919000D01*
X147490000Y-80959000D02*
X153587000Y-80959000D01*
X147490000Y-80999000D02*
X153603000Y-80999000D01*
X147490000Y-81039000D02*
X153618000Y-81039000D01*
X147490000Y-81079000D02*
X153632000Y-81079000D01*
X147490000Y-81119000D02*
X153647000Y-81119000D01*
X147490000Y-81159000D02*
X153661000Y-81159000D01*
X147490000Y-81199000D02*
X153675000Y-81199000D01*
X147490000Y-81239000D02*
X153689000Y-81239000D01*
X147490000Y-81279000D02*
X153703000Y-81279000D01*
X147490000Y-81319000D02*
X153716000Y-81319000D01*
X147490000Y-81359000D02*
X153730000Y-81359000D01*
X147490000Y-81399000D02*
X153743000Y-81399000D01*
X147490000Y-81439000D02*
X153755000Y-81439000D01*
X147490000Y-81479000D02*
X153768000Y-81479000D01*
X147490000Y-81519000D02*
X153780000Y-81519000D01*
X147490000Y-81559000D02*
X153792000Y-81559000D01*
X149805000Y-91769491D02*
X151405000Y-91769491D01*
X150605000Y-90969491D02*
X150605000Y-92569491D01*
X154170000Y-83880000D02*
G75*
G02*
X137930000Y-83880000I-8120000J0D01*
G01*
X137930000Y-83880000D02*
G75*
G02*
X154170000Y-83880000I8120000J0D01*
G01*
X113358000Y-78696000D02*
X113358000Y-88436000D01*
X113358000Y-86771000D02*
X118798000Y-86771000D01*
X113358000Y-86891000D02*
X118798000Y-86891000D01*
X113358000Y-87011000D02*
X118798000Y-87011000D01*
X113358000Y-88436000D02*
X114238000Y-88436000D01*
X114238000Y-78696000D02*
X113358000Y-78696000D01*
X117918000Y-78696000D02*
X118798000Y-78696000D01*
X118798000Y-78696000D02*
X118798000Y-88436000D01*
X118798000Y-88436000D02*
X117918000Y-88436000D01*
X155602000Y-81058000D02*
X155602000Y-87598000D01*
X155602000Y-87598000D02*
X155932000Y-87598000D01*
X155932000Y-81058000D02*
X155602000Y-81058000D01*
X158012000Y-81058000D02*
X158342000Y-81058000D01*
X158342000Y-81058000D02*
X158342000Y-87598000D01*
X158342000Y-87598000D02*
X158012000Y-87598000D01*
X99528000Y-87582000D02*
X109769000Y-87582000D01*
X99528000Y-89091000D02*
X109769000Y-89091000D01*
X99528000Y-92223000D02*
X99528000Y-87582000D01*
X99528000Y-92223000D02*
X100183000Y-92223000D01*
X102313000Y-92223000D02*
X103583000Y-92223000D01*
X102798000Y-89091000D02*
X102798000Y-87582000D01*
X102948000Y-94837000D02*
X102948000Y-92223000D01*
X105713000Y-92223000D02*
X106998000Y-92223000D01*
X106348000Y-94837000D02*
X106348000Y-92223000D01*
X106498000Y-89091000D02*
X106498000Y-87582000D01*
X109098000Y-92223000D02*
X109769000Y-92223000D01*
X109769000Y-92223000D02*
X109769000Y-87582000D01*
X155736000Y-78522000D02*
X155892000Y-78522000D01*
X158052000Y-78522000D02*
X158208000Y-78522000D01*
X155736484Y-78522000D02*
G75*
G02*
X155893392Y-75289665I1235516J1560000D01*
G01*
X155892000Y-78002961D02*
G75*
G02*
X155892163Y-75920870I1080000J1040961D01*
G01*
X158050608Y-75289665D02*
G75*
G02*
X158207516Y-78522000I-1078608J-1672335D01*
G01*
X158051837Y-75920870D02*
G75*
G02*
X158052000Y-78002961I-1079837J-1041130D01*
G01*
X100032000Y-97864000D02*
X109772000Y-97864000D01*
X100032000Y-98744000D02*
X100032000Y-97864000D01*
X100032000Y-102424000D02*
X100032000Y-103304000D01*
X100032000Y-103304000D02*
X109772000Y-103304000D01*
X108107000Y-103304000D02*
X108107000Y-97864000D01*
X108227000Y-103304000D02*
X108227000Y-97864000D01*
X108347000Y-103304000D02*
X108347000Y-97864000D01*
X109772000Y-97864000D02*
X109772000Y-98744000D01*
X109772000Y-103304000D02*
X109772000Y-102424000D01*
X90752000Y-78696000D02*
X91632000Y-78696000D01*
X90752000Y-88436000D02*
X90752000Y-78696000D01*
X91632000Y-88436000D02*
X90752000Y-88436000D01*
X95312000Y-88436000D02*
X96192000Y-88436000D01*
X96192000Y-78696000D02*
X95312000Y-78696000D01*
X96192000Y-80121000D02*
X90752000Y-80121000D01*
X96192000Y-80241000D02*
X90752000Y-80241000D01*
X96192000Y-80361000D02*
X90752000Y-80361000D01*
X96192000Y-88436000D02*
X96192000Y-78696000D01*
X99778000Y-79936000D02*
X109518000Y-79936000D01*
X107853000Y-79936000D02*
X107853000Y-74496000D01*
X107973000Y-79936000D02*
X107973000Y-74496000D01*
X108093000Y-79936000D02*
X108093000Y-74496000D01*
X109518000Y-79936000D02*
X109518000Y-79056000D01*
X99778000Y-79056000D02*
X99778000Y-79936000D01*
X99778000Y-75376000D02*
X99778000Y-74496000D01*
X99778000Y-74496000D02*
X109518000Y-74496000D01*
X109518000Y-74496000D02*
X109518000Y-75376000D01*
X99778000Y-85778000D02*
X109518000Y-85778000D01*
X107853000Y-85778000D02*
X107853000Y-80338000D01*
X107973000Y-85778000D02*
X107973000Y-80338000D01*
X108093000Y-85778000D02*
X108093000Y-80338000D01*
X109518000Y-85778000D02*
X109518000Y-84898000D01*
X99778000Y-84898000D02*
X99778000Y-85778000D01*
X99778000Y-81218000D02*
X99778000Y-80338000D01*
X99778000Y-80338000D02*
X109518000Y-80338000D01*
X109518000Y-80338000D02*
X109518000Y-81218000D01*
M02*
