M48
; DRILL file {KiCad 8.0.6} date 2026-04-11T22:34:44+0300
; FORMAT={-:-/ absolute / inch / decimal}
; #@! TF.CreationDate,2026-04-11T22:34:44+03:00
; #@! TF.GenerationSoftware,Kicad,Pcbnew,8.0.6
; #@! TF.FileFunction,Plated,1,2,PTH
FMAT,2
INCH
; #@! TA.AperFunction,Plated,PTH,ComponentDrill
T1C0.0315
; #@! TA.AperFunction,Plated,PTH,ComponentDrill
T2C0.0354
; #@! TA.AperFunction,Plated,PTH,ComponentDrill
T3C0.0394
; #@! TA.AperFunction,Plated,PTH,ComponentDrill
T4C0.0433
; #@! TA.AperFunction,Plated,PTH,ComponentDrill
T5C0.0472
; #@! TA.AperFunction,Plated,PTH,ComponentDrill
T6C0.0630
; #@! TA.AperFunction,Plated,PTH,ComponentDrill
T7C0.0709
; #@! TA.AperFunction,Plated,PTH,ComponentDrill
T8C0.0827
%
G90
G05
T1
X3.73Y-4.15
X4.03Y-4.15
X4.03Y-4.37
X4.33Y-4.37
X4.75Y-3.56
X4.75Y-3.6584
X5.4116Y-3.57
X5.51Y-3.57
X6.1Y-4.14
X6.1Y-4.2778
X6.11Y-3.99
X6.18Y-3.17
X6.18Y-3.47
X6.2084Y-3.99
T2
X6.18Y-2.98
X6.18Y-3.08
T3
X5.14Y-2.44
X5.34Y-2.44
X5.81Y-3.83
X6.0069Y-3.83
T4
X3.9861Y-3.63
X4.0531Y-3.7757
X4.12Y-3.63
X4.1869Y-3.7757
X4.2539Y-3.63
T5
X5.06Y-3.1547
X5.06Y-3.45
X5.75Y-3.1147
X5.75Y-3.41
T6
X3.68Y-3.04
X3.68Y-3.54
X3.87Y-3.04
X3.87Y-3.27
X3.88Y-3.96
X4.37Y-3.04
X4.37Y-3.27
X4.38Y-3.96
X4.57Y-3.04
X4.57Y-3.54
T7
X5.19Y-3.7796
X5.19Y-4.23
T8
X4.095Y-2.445
X4.41Y-2.445
X5.59Y-2.445
X5.905Y-2.445
M30
