G04 #@! TF.GenerationSoftware,KiCad,Pcbnew,(5.1.5)-3*
G04 #@! TF.CreationDate,2020-11-02T13:16:08+02:00*
G04 #@! TF.ProjectId,c64-wedge-psu-pcb,6336342d-7765-4646-9765-2d7073752d70,rev?*
G04 #@! TF.SameCoordinates,Original*
G04 #@! TF.FileFunction,Soldermask,Bot*
G04 #@! TF.FilePolarity,Negative*
%FSLAX46Y46*%
G04 Gerber Fmt 4.6, Leading zero omitted, Abs format (unit mm)*
G04 Created by KiCad (PCBNEW (5.1.5)-3) date 2020-11-02 13:16:08*
%MOMM*%
%LPD*%
G04 APERTURE LIST*
%ADD10C,0.100000*%
G04 APERTURE END LIST*
D10*
G36*
X132810269Y-105614453D02*
G01*
X133039917Y-105660133D01*
X133179448Y-105717929D01*
X133376776Y-105799664D01*
X133679943Y-106002234D01*
X133937766Y-106260057D01*
X134140336Y-106563224D01*
X134279867Y-106900084D01*
X134351000Y-107257691D01*
X134351000Y-107622309D01*
X134279867Y-107979916D01*
X134140336Y-108316776D01*
X133937766Y-108619943D01*
X133679943Y-108877766D01*
X133376776Y-109080336D01*
X133179448Y-109162071D01*
X133039917Y-109219867D01*
X132861112Y-109255434D01*
X132682309Y-109291000D01*
X132317691Y-109291000D01*
X132138888Y-109255434D01*
X131960083Y-109219867D01*
X131820552Y-109162071D01*
X131623224Y-109080336D01*
X131320057Y-108877766D01*
X131062234Y-108619943D01*
X130859664Y-108316776D01*
X130720133Y-107979916D01*
X130649000Y-107622309D01*
X130649000Y-107257691D01*
X130720133Y-106900084D01*
X130859664Y-106563224D01*
X131062234Y-106260057D01*
X131320057Y-106002234D01*
X131623224Y-105799664D01*
X131820552Y-105717929D01*
X131960083Y-105660133D01*
X132189731Y-105614453D01*
X132317691Y-105589000D01*
X132682309Y-105589000D01*
X132810269Y-105614453D01*
G37*
G36*
X117748228Y-107181703D02*
G01*
X117903100Y-107245853D01*
X118042481Y-107338985D01*
X118161015Y-107457519D01*
X118254147Y-107596900D01*
X118318297Y-107751772D01*
X118351000Y-107916184D01*
X118351000Y-108083816D01*
X118318297Y-108248228D01*
X118254147Y-108403100D01*
X118161015Y-108542481D01*
X118042481Y-108661015D01*
X117903100Y-108754147D01*
X117748228Y-108818297D01*
X117583816Y-108851000D01*
X117416184Y-108851000D01*
X117251772Y-108818297D01*
X117096900Y-108754147D01*
X116957519Y-108661015D01*
X116838985Y-108542481D01*
X116745853Y-108403100D01*
X116681703Y-108248228D01*
X116649000Y-108083816D01*
X116649000Y-107916184D01*
X116681703Y-107751772D01*
X116745853Y-107596900D01*
X116838985Y-107457519D01*
X116957519Y-107338985D01*
X117096900Y-107245853D01*
X117251772Y-107181703D01*
X117416184Y-107149000D01*
X117583816Y-107149000D01*
X117748228Y-107181703D01*
G37*
G36*
X110277395Y-103785546D02*
G01*
X110450466Y-103857234D01*
X110450467Y-103857235D01*
X110606227Y-103961310D01*
X110738690Y-104093773D01*
X110738691Y-104093775D01*
X110842766Y-104249534D01*
X110914454Y-104422605D01*
X110951000Y-104606333D01*
X110951000Y-104793667D01*
X110914454Y-104977395D01*
X110842766Y-105150466D01*
X110842765Y-105150467D01*
X110738690Y-105306227D01*
X110606227Y-105438690D01*
X110527818Y-105491081D01*
X110450466Y-105542766D01*
X110277395Y-105614454D01*
X110093667Y-105651000D01*
X109906333Y-105651000D01*
X109722605Y-105614454D01*
X109549534Y-105542766D01*
X109472182Y-105491081D01*
X109393773Y-105438690D01*
X109261310Y-105306227D01*
X109157235Y-105150467D01*
X109157234Y-105150466D01*
X109085546Y-104977395D01*
X109049000Y-104793667D01*
X109049000Y-104606333D01*
X109085546Y-104422605D01*
X109157234Y-104249534D01*
X109261309Y-104093775D01*
X109261310Y-104093773D01*
X109393773Y-103961310D01*
X109549533Y-103857235D01*
X109549534Y-103857234D01*
X109722605Y-103785546D01*
X109906333Y-103749000D01*
X110093667Y-103749000D01*
X110277395Y-103785546D01*
G37*
G36*
X114077395Y-102085546D02*
G01*
X114250466Y-102157234D01*
X114250467Y-102157235D01*
X114406227Y-102261310D01*
X114538690Y-102393773D01*
X114538691Y-102393775D01*
X114642766Y-102549534D01*
X114714454Y-102722605D01*
X114751000Y-102906333D01*
X114751000Y-103093667D01*
X114714454Y-103277395D01*
X114642766Y-103450466D01*
X114642765Y-103450467D01*
X114538690Y-103606227D01*
X114406227Y-103738690D01*
X114390797Y-103749000D01*
X114250466Y-103842766D01*
X114077395Y-103914454D01*
X113893667Y-103951000D01*
X113706333Y-103951000D01*
X113522605Y-103914454D01*
X113349534Y-103842766D01*
X113209203Y-103749000D01*
X113193773Y-103738690D01*
X113061310Y-103606227D01*
X112957235Y-103450467D01*
X112957234Y-103450466D01*
X112885546Y-103277395D01*
X112849000Y-103093667D01*
X112849000Y-102906333D01*
X112885546Y-102722605D01*
X112957234Y-102549534D01*
X113061309Y-102393775D01*
X113061310Y-102393773D01*
X113193773Y-102261310D01*
X113349533Y-102157235D01*
X113349534Y-102157234D01*
X113522605Y-102085546D01*
X113706333Y-102049000D01*
X113893667Y-102049000D01*
X114077395Y-102085546D01*
G37*
G36*
X94345331Y-99568211D02*
G01*
X94673092Y-99703974D01*
X94968070Y-99901072D01*
X95218928Y-100151930D01*
X95416026Y-100446908D01*
X95551789Y-100774669D01*
X95621000Y-101122616D01*
X95621000Y-101477384D01*
X95551789Y-101825331D01*
X95416026Y-102153092D01*
X95218928Y-102448070D01*
X94968070Y-102698928D01*
X94673092Y-102896026D01*
X94345331Y-103031789D01*
X93997384Y-103101000D01*
X93642616Y-103101000D01*
X93294669Y-103031789D01*
X92966908Y-102896026D01*
X92671930Y-102698928D01*
X92421072Y-102448070D01*
X92223974Y-102153092D01*
X92088211Y-101825331D01*
X92019000Y-101477384D01*
X92019000Y-101122616D01*
X92088211Y-100774669D01*
X92223974Y-100446908D01*
X92421072Y-100151930D01*
X92671930Y-99901072D01*
X92966908Y-99703974D01*
X93294669Y-99568211D01*
X93642616Y-99499000D01*
X93997384Y-99499000D01*
X94345331Y-99568211D01*
G37*
G36*
X110277395Y-100385546D02*
G01*
X110450466Y-100457234D01*
X110527818Y-100508919D01*
X110606227Y-100561310D01*
X110738690Y-100693773D01*
X110791081Y-100772182D01*
X110842766Y-100849534D01*
X110914454Y-101022605D01*
X110951000Y-101206333D01*
X110951000Y-101393667D01*
X110914454Y-101577395D01*
X110842766Y-101750466D01*
X110797444Y-101818295D01*
X110738690Y-101906227D01*
X110606227Y-102038690D01*
X110590797Y-102049000D01*
X110450466Y-102142766D01*
X110277395Y-102214454D01*
X110093667Y-102251000D01*
X109906333Y-102251000D01*
X109722605Y-102214454D01*
X109549534Y-102142766D01*
X109409203Y-102049000D01*
X109393773Y-102038690D01*
X109261310Y-101906227D01*
X109202556Y-101818295D01*
X109157234Y-101750466D01*
X109085546Y-101577395D01*
X109049000Y-101393667D01*
X109049000Y-101206333D01*
X109085546Y-101022605D01*
X109157234Y-100849534D01*
X109208919Y-100772182D01*
X109261310Y-100693773D01*
X109393773Y-100561310D01*
X109472182Y-100508919D01*
X109549534Y-100457234D01*
X109722605Y-100385546D01*
X109906333Y-100349000D01*
X110093667Y-100349000D01*
X110277395Y-100385546D01*
G37*
G36*
X156348228Y-100181703D02*
G01*
X156503100Y-100245853D01*
X156642481Y-100338985D01*
X156761015Y-100457519D01*
X156854147Y-100596900D01*
X156918297Y-100751772D01*
X156951000Y-100916184D01*
X156951000Y-101083816D01*
X156918297Y-101248228D01*
X156854147Y-101403100D01*
X156761015Y-101542481D01*
X156642481Y-101661015D01*
X156503100Y-101754147D01*
X156348228Y-101818297D01*
X156183816Y-101851000D01*
X156016184Y-101851000D01*
X155851772Y-101818297D01*
X155696900Y-101754147D01*
X155557519Y-101661015D01*
X155438985Y-101542481D01*
X155345853Y-101403100D01*
X155281703Y-101248228D01*
X155249000Y-101083816D01*
X155249000Y-100916184D01*
X155281703Y-100751772D01*
X155345853Y-100596900D01*
X155438985Y-100457519D01*
X155557519Y-100338985D01*
X155696900Y-100245853D01*
X155851772Y-100181703D01*
X156016184Y-100149000D01*
X156183816Y-100149000D01*
X156348228Y-100181703D01*
G37*
G36*
X149248228Y-100181703D02*
G01*
X149403100Y-100245853D01*
X149542481Y-100338985D01*
X149661015Y-100457519D01*
X149754147Y-100596900D01*
X149818297Y-100751772D01*
X149851000Y-100916184D01*
X149851000Y-101083816D01*
X149818297Y-101248228D01*
X149754147Y-101403100D01*
X149661015Y-101542481D01*
X149542481Y-101661015D01*
X149403100Y-101754147D01*
X149248228Y-101818297D01*
X149083816Y-101851000D01*
X148916184Y-101851000D01*
X148751772Y-101818297D01*
X148596900Y-101754147D01*
X148457519Y-101661015D01*
X148338985Y-101542481D01*
X148245853Y-101403100D01*
X148181703Y-101248228D01*
X148149000Y-101083816D01*
X148149000Y-100916184D01*
X148181703Y-100751772D01*
X148245853Y-100596900D01*
X148338985Y-100457519D01*
X148457519Y-100338985D01*
X148596900Y-100245853D01*
X148751772Y-100181703D01*
X148916184Y-100149000D01*
X149083816Y-100149000D01*
X149248228Y-100181703D01*
G37*
G36*
X117748228Y-99561703D02*
G01*
X117903100Y-99625853D01*
X118042481Y-99718985D01*
X118161015Y-99837519D01*
X118254147Y-99976900D01*
X118318297Y-100131772D01*
X118351000Y-100296184D01*
X118351000Y-100463816D01*
X118318297Y-100628228D01*
X118254147Y-100783100D01*
X118161015Y-100922481D01*
X118042481Y-101041015D01*
X117903100Y-101134147D01*
X117748228Y-101198297D01*
X117583816Y-101231000D01*
X117416184Y-101231000D01*
X117251772Y-101198297D01*
X117096900Y-101134147D01*
X116957519Y-101041015D01*
X116838985Y-100922481D01*
X116745853Y-100783100D01*
X116681703Y-100628228D01*
X116649000Y-100463816D01*
X116649000Y-100296184D01*
X116681703Y-100131772D01*
X116745853Y-99976900D01*
X116838985Y-99837519D01*
X116957519Y-99718985D01*
X117096900Y-99625853D01*
X117251772Y-99561703D01*
X117416184Y-99529000D01*
X117583816Y-99529000D01*
X117748228Y-99561703D01*
G37*
G36*
X114077395Y-98685546D02*
G01*
X114250466Y-98757234D01*
X114250467Y-98757235D01*
X114406227Y-98861310D01*
X114538690Y-98993773D01*
X114538691Y-98993775D01*
X114642766Y-99149534D01*
X114714454Y-99322605D01*
X114751000Y-99506333D01*
X114751000Y-99693667D01*
X114714454Y-99877395D01*
X114642766Y-100050466D01*
X114642765Y-100050467D01*
X114538690Y-100206227D01*
X114406227Y-100338690D01*
X114405785Y-100338985D01*
X114250466Y-100442766D01*
X114077395Y-100514454D01*
X113893667Y-100551000D01*
X113706333Y-100551000D01*
X113522605Y-100514454D01*
X113349534Y-100442766D01*
X113194215Y-100338985D01*
X113193773Y-100338690D01*
X113061310Y-100206227D01*
X112957235Y-100050467D01*
X112957234Y-100050466D01*
X112885546Y-99877395D01*
X112849000Y-99693667D01*
X112849000Y-99506333D01*
X112885546Y-99322605D01*
X112957234Y-99149534D01*
X113061309Y-98993775D01*
X113061310Y-98993773D01*
X113193773Y-98861310D01*
X113349533Y-98757235D01*
X113349534Y-98757234D01*
X113522605Y-98685546D01*
X113706333Y-98649000D01*
X113893667Y-98649000D01*
X114077395Y-98685546D01*
G37*
G36*
X110951000Y-98851000D02*
G01*
X109049000Y-98851000D01*
X109049000Y-96949000D01*
X110951000Y-96949000D01*
X110951000Y-98851000D01*
G37*
G36*
X132861113Y-94184567D02*
G01*
X133039917Y-94220133D01*
X133179448Y-94277929D01*
X133376776Y-94359664D01*
X133679943Y-94562234D01*
X133937766Y-94820057D01*
X134140336Y-95123224D01*
X134279867Y-95460084D01*
X134351000Y-95817691D01*
X134351000Y-96182309D01*
X134279867Y-96539916D01*
X134140336Y-96876776D01*
X133937766Y-97179943D01*
X133679943Y-97437766D01*
X133376776Y-97640336D01*
X133179448Y-97722071D01*
X133039917Y-97779867D01*
X132861113Y-97815433D01*
X132682309Y-97851000D01*
X132317691Y-97851000D01*
X132138887Y-97815433D01*
X131960083Y-97779867D01*
X131820552Y-97722071D01*
X131623224Y-97640336D01*
X131320057Y-97437766D01*
X131062234Y-97179943D01*
X130859664Y-96876776D01*
X130720133Y-96539916D01*
X130649000Y-96182309D01*
X130649000Y-95817691D01*
X130720133Y-95460084D01*
X130859664Y-95123224D01*
X131062234Y-94820057D01*
X131320057Y-94562234D01*
X131623224Y-94359664D01*
X131820552Y-94277929D01*
X131960083Y-94220133D01*
X132138887Y-94184567D01*
X132317691Y-94149000D01*
X132682309Y-94149000D01*
X132861113Y-94184567D01*
G37*
G36*
X130151000Y-91651000D02*
G01*
X126849000Y-91651000D01*
X126849000Y-88349000D01*
X130151000Y-88349000D01*
X130151000Y-91651000D01*
G37*
G36*
X104093466Y-86661015D02*
G01*
X104294072Y-86700918D01*
X104539939Y-86802759D01*
X104761212Y-86950610D01*
X104949390Y-87138788D01*
X105097241Y-87360061D01*
X105199082Y-87605928D01*
X105251000Y-87866938D01*
X105251000Y-88133062D01*
X105199082Y-88394072D01*
X105097241Y-88639939D01*
X104949390Y-88861212D01*
X104761212Y-89049390D01*
X104539939Y-89197241D01*
X104539938Y-89197242D01*
X104539937Y-89197242D01*
X104294072Y-89299082D01*
X104033063Y-89351000D01*
X103766937Y-89351000D01*
X103505928Y-89299082D01*
X103260063Y-89197242D01*
X103260062Y-89197242D01*
X103260061Y-89197241D01*
X103038788Y-89049390D01*
X102850610Y-88861212D01*
X102702759Y-88639939D01*
X102600918Y-88394072D01*
X102549000Y-88133062D01*
X102549000Y-87866938D01*
X102600918Y-87605928D01*
X102702759Y-87360061D01*
X102850610Y-87138788D01*
X103038788Y-86950610D01*
X103260061Y-86802759D01*
X103505928Y-86700918D01*
X103706534Y-86661015D01*
X103766937Y-86649000D01*
X104033063Y-86649000D01*
X104093466Y-86661015D01*
G37*
G36*
X94851000Y-89351000D02*
G01*
X92149000Y-89351000D01*
X92149000Y-86649000D01*
X94851000Y-86649000D01*
X94851000Y-89351000D01*
G37*
G36*
X117251000Y-89251000D02*
G01*
X114749000Y-89251000D01*
X114749000Y-86749000D01*
X117251000Y-86749000D01*
X117251000Y-89251000D01*
G37*
G36*
X142251000Y-89251000D02*
G01*
X139749000Y-89251000D01*
X139749000Y-86749000D01*
X142251000Y-86749000D01*
X142251000Y-89251000D01*
G37*
G36*
X153748228Y-85181703D02*
G01*
X153903100Y-85245853D01*
X154042481Y-85338985D01*
X154161015Y-85457519D01*
X154254147Y-85596900D01*
X154318297Y-85751772D01*
X154351000Y-85916184D01*
X154351000Y-86083816D01*
X154318297Y-86248228D01*
X154254147Y-86403100D01*
X154161015Y-86542481D01*
X154042481Y-86661015D01*
X153903100Y-86754147D01*
X153748228Y-86818297D01*
X153583816Y-86851000D01*
X153416184Y-86851000D01*
X153251772Y-86818297D01*
X153096900Y-86754147D01*
X152957519Y-86661015D01*
X152838985Y-86542481D01*
X152745853Y-86403100D01*
X152681703Y-86248228D01*
X152649000Y-86083816D01*
X152649000Y-85916184D01*
X152681703Y-85751772D01*
X152745853Y-85596900D01*
X152838985Y-85457519D01*
X152957519Y-85338985D01*
X153096900Y-85245853D01*
X153251772Y-85181703D01*
X153416184Y-85149000D01*
X153583816Y-85149000D01*
X153748228Y-85181703D01*
G37*
G36*
X156851000Y-86851000D02*
G01*
X155149000Y-86851000D01*
X155149000Y-85149000D01*
X156851000Y-85149000D01*
X156851000Y-86851000D01*
G37*
G36*
X116364903Y-79297075D02*
G01*
X116592571Y-79391378D01*
X116797466Y-79528285D01*
X116971715Y-79702534D01*
X117108622Y-79907429D01*
X117202925Y-80135097D01*
X117251000Y-80376787D01*
X117251000Y-80623213D01*
X117202925Y-80864903D01*
X117108622Y-81092571D01*
X116971715Y-81297466D01*
X116797466Y-81471715D01*
X116592571Y-81608622D01*
X116592570Y-81608623D01*
X116592569Y-81608623D01*
X116364903Y-81702925D01*
X116123214Y-81751000D01*
X115876786Y-81751000D01*
X115635097Y-81702925D01*
X115407431Y-81608623D01*
X115407430Y-81608623D01*
X115407429Y-81608622D01*
X115202534Y-81471715D01*
X115028285Y-81297466D01*
X114891378Y-81092571D01*
X114797075Y-80864903D01*
X114749000Y-80623213D01*
X114749000Y-80376787D01*
X114797075Y-80135097D01*
X114891378Y-79907429D01*
X115028285Y-79702534D01*
X115202534Y-79528285D01*
X115407429Y-79391378D01*
X115635097Y-79297075D01*
X115876786Y-79249000D01*
X116123214Y-79249000D01*
X116364903Y-79297075D01*
G37*
G36*
X141364903Y-79297075D02*
G01*
X141592571Y-79391378D01*
X141797466Y-79528285D01*
X141971715Y-79702534D01*
X142108622Y-79907429D01*
X142202925Y-80135097D01*
X142251000Y-80376787D01*
X142251000Y-80623213D01*
X142202925Y-80864903D01*
X142108622Y-81092571D01*
X141971715Y-81297466D01*
X141797466Y-81471715D01*
X141592571Y-81608622D01*
X141592570Y-81608623D01*
X141592569Y-81608623D01*
X141364903Y-81702925D01*
X141123214Y-81751000D01*
X140876786Y-81751000D01*
X140635097Y-81702925D01*
X140407431Y-81608623D01*
X140407430Y-81608623D01*
X140407429Y-81608622D01*
X140202534Y-81471715D01*
X140028285Y-81297466D01*
X139891378Y-81092571D01*
X139797075Y-80864903D01*
X139749000Y-80623213D01*
X139749000Y-80376787D01*
X139797075Y-80135097D01*
X139891378Y-79907429D01*
X140028285Y-79702534D01*
X140202534Y-79528285D01*
X140407429Y-79391378D01*
X140635097Y-79297075D01*
X140876786Y-79249000D01*
X141123214Y-79249000D01*
X141364903Y-79297075D01*
G37*
G36*
X154653512Y-79603927D02*
G01*
X154802812Y-79633624D01*
X154966784Y-79701544D01*
X155114354Y-79800147D01*
X155239853Y-79925646D01*
X155338456Y-80073216D01*
X155406376Y-80237188D01*
X155441000Y-80411259D01*
X155441000Y-80588741D01*
X155406376Y-80762812D01*
X155338456Y-80926784D01*
X155239853Y-81074354D01*
X155114354Y-81199853D01*
X154966784Y-81298456D01*
X154802812Y-81366376D01*
X154653512Y-81396073D01*
X154628742Y-81401000D01*
X154451258Y-81401000D01*
X154426488Y-81396073D01*
X154277188Y-81366376D01*
X154113216Y-81298456D01*
X153965646Y-81199853D01*
X153840147Y-81074354D01*
X153741544Y-80926784D01*
X153673624Y-80762812D01*
X153639000Y-80588741D01*
X153639000Y-80411259D01*
X153673624Y-80237188D01*
X153741544Y-80073216D01*
X153840147Y-79925646D01*
X153965646Y-79800147D01*
X154113216Y-79701544D01*
X154277188Y-79633624D01*
X154426488Y-79603927D01*
X154451258Y-79599000D01*
X154628742Y-79599000D01*
X154653512Y-79603927D01*
G37*
G36*
X152901000Y-81401000D02*
G01*
X151099000Y-81401000D01*
X151099000Y-79599000D01*
X152901000Y-79599000D01*
X152901000Y-81401000D01*
G37*
G36*
X93894072Y-76300918D02*
G01*
X94139939Y-76402759D01*
X94160032Y-76416185D01*
X94361211Y-76550609D01*
X94549391Y-76738789D01*
X94602600Y-76818422D01*
X94659181Y-76903100D01*
X94697242Y-76960063D01*
X94799082Y-77205928D01*
X94851000Y-77466937D01*
X94851000Y-77733063D01*
X94799082Y-77994072D01*
X94697241Y-78239939D01*
X94549390Y-78461212D01*
X94361212Y-78649390D01*
X94139939Y-78797241D01*
X94139938Y-78797242D01*
X94139937Y-78797242D01*
X93894072Y-78899082D01*
X93633063Y-78951000D01*
X93366937Y-78951000D01*
X93105928Y-78899082D01*
X92860063Y-78797242D01*
X92860062Y-78797242D01*
X92860061Y-78797241D01*
X92638788Y-78649390D01*
X92450610Y-78461212D01*
X92302759Y-78239939D01*
X92200918Y-77994072D01*
X92149000Y-77733063D01*
X92149000Y-77466937D01*
X92200918Y-77205928D01*
X92302758Y-76960063D01*
X92340820Y-76903100D01*
X92397400Y-76818422D01*
X92450609Y-76738789D01*
X92638789Y-76550609D01*
X92839968Y-76416185D01*
X92860061Y-76402759D01*
X93105928Y-76300918D01*
X93366937Y-76249000D01*
X93633063Y-76249000D01*
X93894072Y-76300918D01*
G37*
G36*
X104294072Y-76300918D02*
G01*
X104539939Y-76402759D01*
X104560032Y-76416185D01*
X104761211Y-76550609D01*
X104949391Y-76738789D01*
X105002600Y-76818422D01*
X105059181Y-76903100D01*
X105097242Y-76960063D01*
X105199082Y-77205928D01*
X105251000Y-77466937D01*
X105251000Y-77733063D01*
X105199082Y-77994072D01*
X105097241Y-78239939D01*
X104949390Y-78461212D01*
X104761212Y-78649390D01*
X104539939Y-78797241D01*
X104539938Y-78797242D01*
X104539937Y-78797242D01*
X104294072Y-78899082D01*
X104033063Y-78951000D01*
X103766937Y-78951000D01*
X103505928Y-78899082D01*
X103260063Y-78797242D01*
X103260062Y-78797242D01*
X103260061Y-78797241D01*
X103038788Y-78649390D01*
X102850610Y-78461212D01*
X102702759Y-78239939D01*
X102600918Y-77994072D01*
X102549000Y-77733063D01*
X102549000Y-77466937D01*
X102600918Y-77205928D01*
X102702758Y-76960063D01*
X102740820Y-76903100D01*
X102797400Y-76818422D01*
X102850609Y-76738789D01*
X103038789Y-76550609D01*
X103239968Y-76416185D01*
X103260061Y-76402759D01*
X103505928Y-76300918D01*
X103766937Y-76249000D01*
X104033063Y-76249000D01*
X104294072Y-76300918D01*
G37*
G36*
X128875256Y-75691298D02*
G01*
X128981579Y-75712447D01*
X129282042Y-75836903D01*
X129552451Y-76017585D01*
X129782415Y-76247549D01*
X129963097Y-76517958D01*
X130087553Y-76818421D01*
X130151000Y-77137391D01*
X130151000Y-77462609D01*
X130087553Y-77781579D01*
X129963097Y-78082042D01*
X129782415Y-78352451D01*
X129552451Y-78582415D01*
X129282042Y-78763097D01*
X128981579Y-78887553D01*
X128875256Y-78908702D01*
X128662611Y-78951000D01*
X128337389Y-78951000D01*
X128124744Y-78908702D01*
X128018421Y-78887553D01*
X127717958Y-78763097D01*
X127447549Y-78582415D01*
X127217585Y-78352451D01*
X127036903Y-78082042D01*
X126912447Y-77781579D01*
X126849000Y-77462609D01*
X126849000Y-77137391D01*
X126912447Y-76818421D01*
X127036903Y-76517958D01*
X127217585Y-76247549D01*
X127447549Y-76017585D01*
X127717958Y-75836903D01*
X128018421Y-75712447D01*
X128124744Y-75691298D01*
X128337389Y-75649000D01*
X128662611Y-75649000D01*
X128875256Y-75691298D01*
G37*
G36*
X157248228Y-75681703D02*
G01*
X157403100Y-75745853D01*
X157542481Y-75838985D01*
X157661015Y-75957519D01*
X157754147Y-76096900D01*
X157818297Y-76251772D01*
X157851000Y-76416184D01*
X157851000Y-76583816D01*
X157818297Y-76748228D01*
X157754147Y-76903100D01*
X157661015Y-77042481D01*
X157542481Y-77161015D01*
X157403100Y-77254147D01*
X157248228Y-77318297D01*
X157083816Y-77351000D01*
X156916184Y-77351000D01*
X156751772Y-77318297D01*
X156596900Y-77254147D01*
X156457519Y-77161015D01*
X156338985Y-77042481D01*
X156245853Y-76903100D01*
X156181703Y-76748228D01*
X156149000Y-76583816D01*
X156149000Y-76416184D01*
X156181703Y-76251772D01*
X156245853Y-76096900D01*
X156338985Y-75957519D01*
X156457519Y-75838985D01*
X156596900Y-75745853D01*
X156751772Y-75681703D01*
X156916184Y-75649000D01*
X157083816Y-75649000D01*
X157248228Y-75681703D01*
G37*
G36*
X149628228Y-75681703D02*
G01*
X149783100Y-75745853D01*
X149922481Y-75838985D01*
X150041015Y-75957519D01*
X150134147Y-76096900D01*
X150198297Y-76251772D01*
X150231000Y-76416184D01*
X150231000Y-76583816D01*
X150198297Y-76748228D01*
X150134147Y-76903100D01*
X150041015Y-77042481D01*
X149922481Y-77161015D01*
X149783100Y-77254147D01*
X149628228Y-77318297D01*
X149463816Y-77351000D01*
X149296184Y-77351000D01*
X149131772Y-77318297D01*
X148976900Y-77254147D01*
X148837519Y-77161015D01*
X148718985Y-77042481D01*
X148625853Y-76903100D01*
X148561703Y-76748228D01*
X148529000Y-76583816D01*
X148529000Y-76416184D01*
X148561703Y-76251772D01*
X148625853Y-76096900D01*
X148718985Y-75957519D01*
X148837519Y-75838985D01*
X148976900Y-75745853D01*
X149131772Y-75681703D01*
X149296184Y-75649000D01*
X149463816Y-75649000D01*
X149628228Y-75681703D01*
G37*
G36*
X104671304Y-60787002D02*
G01*
X105090139Y-60960489D01*
X105090141Y-60960490D01*
X105279891Y-61087277D01*
X105467082Y-61212354D01*
X105787646Y-61532918D01*
X106039511Y-61909861D01*
X106212998Y-62328696D01*
X106301440Y-62773327D01*
X106301440Y-63226673D01*
X106212998Y-63671304D01*
X106039511Y-64090139D01*
X106039510Y-64090141D01*
X105787645Y-64467083D01*
X105467083Y-64787645D01*
X105090141Y-65039510D01*
X105090140Y-65039511D01*
X105090139Y-65039511D01*
X104671304Y-65212998D01*
X104226673Y-65301440D01*
X103773327Y-65301440D01*
X103328696Y-65212998D01*
X102909861Y-65039511D01*
X102909860Y-65039511D01*
X102909859Y-65039510D01*
X102532917Y-64787645D01*
X102212355Y-64467083D01*
X101960490Y-64090141D01*
X101960489Y-64090139D01*
X101787002Y-63671304D01*
X101698560Y-63226673D01*
X101698560Y-62773327D01*
X101787002Y-62328696D01*
X101960489Y-61909861D01*
X102212354Y-61532918D01*
X102532918Y-61212354D01*
X102720109Y-61087277D01*
X102909859Y-60960490D01*
X102909861Y-60960489D01*
X103328696Y-60787002D01*
X103773327Y-60698560D01*
X104226673Y-60698560D01*
X104671304Y-60787002D01*
G37*
G36*
X112671304Y-60787002D02*
G01*
X113090139Y-60960489D01*
X113090141Y-60960490D01*
X113279891Y-61087277D01*
X113467082Y-61212354D01*
X113787646Y-61532918D01*
X114039511Y-61909861D01*
X114212998Y-62328696D01*
X114301440Y-62773327D01*
X114301440Y-63226673D01*
X114212998Y-63671304D01*
X114039511Y-64090139D01*
X114039510Y-64090141D01*
X113787645Y-64467083D01*
X113467083Y-64787645D01*
X113090141Y-65039510D01*
X113090140Y-65039511D01*
X113090139Y-65039511D01*
X112671304Y-65212998D01*
X112226673Y-65301440D01*
X111773327Y-65301440D01*
X111328696Y-65212998D01*
X110909861Y-65039511D01*
X110909860Y-65039511D01*
X110909859Y-65039510D01*
X110532917Y-64787645D01*
X110212355Y-64467083D01*
X109960490Y-64090141D01*
X109960489Y-64090139D01*
X109787002Y-63671304D01*
X109698560Y-63226673D01*
X109698560Y-62773327D01*
X109787002Y-62328696D01*
X109960489Y-61909861D01*
X110212354Y-61532918D01*
X110532918Y-61212354D01*
X110720109Y-61087277D01*
X110909859Y-60960490D01*
X110909861Y-60960489D01*
X111328696Y-60787002D01*
X111773327Y-60698560D01*
X112226673Y-60698560D01*
X112671304Y-60787002D01*
G37*
G36*
X142671304Y-60787002D02*
G01*
X143090139Y-60960489D01*
X143090141Y-60960490D01*
X143279891Y-61087277D01*
X143467082Y-61212354D01*
X143787646Y-61532918D01*
X144039511Y-61909861D01*
X144212998Y-62328696D01*
X144301440Y-62773327D01*
X144301440Y-63226673D01*
X144212998Y-63671304D01*
X144039511Y-64090139D01*
X144039510Y-64090141D01*
X143787645Y-64467083D01*
X143467083Y-64787645D01*
X143090141Y-65039510D01*
X143090140Y-65039511D01*
X143090139Y-65039511D01*
X142671304Y-65212998D01*
X142226673Y-65301440D01*
X141773327Y-65301440D01*
X141328696Y-65212998D01*
X140909861Y-65039511D01*
X140909860Y-65039511D01*
X140909859Y-65039510D01*
X140532917Y-64787645D01*
X140212355Y-64467083D01*
X139960490Y-64090141D01*
X139960489Y-64090139D01*
X139787002Y-63671304D01*
X139698560Y-63226673D01*
X139698560Y-62773327D01*
X139787002Y-62328696D01*
X139960489Y-61909861D01*
X140212354Y-61532918D01*
X140532918Y-61212354D01*
X140720109Y-61087277D01*
X140909859Y-60960490D01*
X140909861Y-60960489D01*
X141328696Y-60787002D01*
X141773327Y-60698560D01*
X142226673Y-60698560D01*
X142671304Y-60787002D01*
G37*
G36*
X150671304Y-60787002D02*
G01*
X151090139Y-60960489D01*
X151090141Y-60960490D01*
X151279891Y-61087277D01*
X151467082Y-61212354D01*
X151787646Y-61532918D01*
X152039511Y-61909861D01*
X152212998Y-62328696D01*
X152301440Y-62773327D01*
X152301440Y-63226673D01*
X152212998Y-63671304D01*
X152039511Y-64090139D01*
X152039510Y-64090141D01*
X151787645Y-64467083D01*
X151467083Y-64787645D01*
X151090141Y-65039510D01*
X151090140Y-65039511D01*
X151090139Y-65039511D01*
X150671304Y-65212998D01*
X150226673Y-65301440D01*
X149773327Y-65301440D01*
X149328696Y-65212998D01*
X148909861Y-65039511D01*
X148909860Y-65039511D01*
X148909859Y-65039510D01*
X148532917Y-64787645D01*
X148212355Y-64467083D01*
X147960490Y-64090141D01*
X147960489Y-64090139D01*
X147787002Y-63671304D01*
X147698560Y-63226673D01*
X147698560Y-62773327D01*
X147787002Y-62328696D01*
X147960489Y-61909861D01*
X148212354Y-61532918D01*
X148532918Y-61212354D01*
X148720109Y-61087277D01*
X148909859Y-60960490D01*
X148909861Y-60960489D01*
X149328696Y-60787002D01*
X149773327Y-60698560D01*
X150226673Y-60698560D01*
X150671304Y-60787002D01*
G37*
M02*
