G04 #@! TF.GenerationSoftware,KiCad,Pcbnew,8.0.6*
G04 #@! TF.CreationDate,2026-03-29T02:05:17+02:00*
G04 #@! TF.ProjectId,c64-wedge-psu-pcb,6336342d-7765-4646-9765-2d7073752d70,rev?*
G04 #@! TF.SameCoordinates,Original*
G04 #@! TF.FileFunction,Copper,L1,Top*
G04 #@! TF.FilePolarity,Positive*
%FSLAX46Y46*%
G04 Gerber Fmt 4.6, Leading zero omitted, Abs format (unit mm)*
G04 Created by KiCad (PCBNEW 8.0.6) date 2026-03-29 02:05:17*
%MOMM*%
%LPD*%
G01*
G04 APERTURE LIST*
G04 Aperture macros list*
%AMRoundRect*
0 Rectangle with rounded corners*
0 $1 Rounding radius*
0 $2 $3 $4 $5 $6 $7 $8 $9 X,Y pos of 4 corners*
0 Add a 4 corners polygon primitive as box body*
4,1,4,$2,$3,$4,$5,$6,$7,$8,$9,$2,$3,0*
0 Add four circle primitives for the rounded corners*
1,1,$1+$1,$2,$3*
1,1,$1+$1,$4,$5*
1,1,$1+$1,$6,$7*
1,1,$1+$1,$8,$9*
0 Add four rect primitives between the rounded corners*
20,1,$1+$1,$2,$3,$4,$5,0*
20,1,$1+$1,$4,$5,$6,$7,0*
20,1,$1+$1,$6,$7,$8,$9,0*
20,1,$1+$1,$8,$9,$2,$3,0*%
G04 Aperture macros list end*
G04 #@! TA.AperFunction,ComponentPad*
%ADD10C,1.600000*%
G04 #@! TD*
G04 #@! TA.AperFunction,ComponentPad*
%ADD11C,2.400000*%
G04 #@! TD*
G04 #@! TA.AperFunction,ComponentPad*
%ADD12R,2.400000X2.400000*%
G04 #@! TD*
G04 #@! TA.AperFunction,ComponentPad*
%ADD13RoundRect,0.250002X-1.699998X-1.699998X1.699998X-1.699998X1.699998X1.699998X-1.699998X1.699998X0*%
G04 #@! TD*
G04 #@! TA.AperFunction,ComponentPad*
%ADD14O,1.600000X1.600000*%
G04 #@! TD*
G04 #@! TA.AperFunction,ComponentPad*
%ADD15O,3.200000X3.200000*%
G04 #@! TD*
G04 #@! TA.AperFunction,ComponentPad*
%ADD16R,3.200000X3.200000*%
G04 #@! TD*
G04 #@! TA.AperFunction,ComponentPad*
%ADD17R,1.600000X1.600000*%
G04 #@! TD*
G04 #@! TA.AperFunction,ComponentPad*
%ADD18C,3.600000*%
G04 #@! TD*
G04 #@! TA.AperFunction,ComponentPad*
%ADD19C,2.000000*%
G04 #@! TD*
G04 #@! TA.AperFunction,ComponentPad*
%ADD20R,1.800000X1.800000*%
G04 #@! TD*
G04 #@! TA.AperFunction,ComponentPad*
%ADD21O,1.800000X1.800000*%
G04 #@! TD*
G04 #@! TA.AperFunction,ComponentPad*
%ADD22C,1.800000*%
G04 #@! TD*
G04 #@! TA.AperFunction,Conductor*
%ADD23C,1.800000*%
G04 #@! TD*
G04 APERTURE END LIST*
D10*
X104140000Y-92710000D03*
X101640000Y-92710000D03*
D11*
X128524000Y-80130000D03*
D12*
X128524000Y-87630000D03*
D13*
X104000000Y-62750000D03*
X150000000Y-62750000D03*
X112000000Y-62750000D03*
D10*
X110236000Y-111506000D03*
D14*
X102616000Y-111506000D03*
D13*
X142000000Y-62750000D03*
D14*
X92710000Y-111506000D03*
D10*
X100330000Y-111506000D03*
D15*
X111125000Y-76200000D03*
D16*
X111125000Y-88900000D03*
D10*
X157988000Y-99314000D03*
X157988000Y-101814000D03*
X139954000Y-90678000D03*
X137454000Y-90678000D03*
D16*
X99695000Y-76200000D03*
D15*
X99695000Y-88900000D03*
D17*
X156972000Y-93726000D03*
D10*
X153472000Y-93726000D03*
D18*
X131826000Y-107452000D03*
X131826000Y-96012000D03*
D19*
X147574000Y-102108000D03*
X152574000Y-102108000D03*
D11*
X146050000Y-80130000D03*
D12*
X146050000Y-87630000D03*
D10*
X156972000Y-88138000D03*
D14*
X156972000Y-80518000D03*
D20*
X108810000Y-99060000D03*
D21*
X107110000Y-102760000D03*
X105410000Y-99060000D03*
X103710000Y-102760000D03*
X102010000Y-99060000D03*
D20*
X156972000Y-78232000D03*
D22*
X156972000Y-75692000D03*
D16*
X107188000Y-106934000D03*
D15*
X94488000Y-106934000D03*
D16*
X93980000Y-76200000D03*
D15*
X93980000Y-88900000D03*
X105410000Y-76200000D03*
D16*
X105410000Y-88900000D03*
D23*
X157988000Y-99314000D02*
X156972000Y-98298000D01*
X156972000Y-98298000D02*
X156972000Y-97710000D01*
X142000000Y-67070000D02*
X142000000Y-62750000D01*
X151130000Y-81164630D02*
X151130000Y-76200000D01*
X156972000Y-87006630D02*
X151130000Y-81164630D01*
X151130000Y-76200000D02*
X142000000Y-67070000D01*
X156972000Y-88138000D02*
X156972000Y-87006630D01*
X156972000Y-80518000D02*
X156972000Y-78232000D01*
X156972000Y-93726000D02*
X156972000Y-88138000D01*
X156972000Y-97710000D02*
X156972000Y-93726000D01*
X152574000Y-102108000D02*
X156972000Y-97710000D01*
X100330000Y-111506000D02*
X102616000Y-111506000D01*
X100330000Y-106140000D02*
X100330000Y-111506000D01*
X103710000Y-102760000D02*
X100330000Y-106140000D01*
X107110000Y-106856000D02*
X107188000Y-106934000D01*
X97130000Y-73050000D02*
X102260000Y-73050000D01*
X93980000Y-76200000D02*
X97130000Y-73050000D01*
X102260000Y-73050000D02*
X105410000Y-76200000D01*
X104000000Y-62750000D02*
X104000000Y-74790000D01*
X102845000Y-79350000D02*
X99695000Y-76200000D01*
X107975000Y-79350000D02*
X102845000Y-79350000D01*
X111125000Y-76200000D02*
X107975000Y-79350000D01*
X112000000Y-75325000D02*
X111125000Y-76200000D01*
X112000000Y-62750000D02*
X112000000Y-75325000D01*
X104000000Y-62750000D02*
X104660000Y-62750000D01*
G04 #@! TA.AperFunction,Conductor*
G36*
X107711677Y-101111685D02*
G01*
X107732319Y-101128319D01*
X110744000Y-104140000D01*
X133552638Y-104140000D01*
X133619677Y-104159685D01*
X133640319Y-104176319D01*
X134583681Y-105119681D01*
X134617166Y-105181004D01*
X134620000Y-105207362D01*
X134620000Y-108660638D01*
X134600315Y-108727677D01*
X134583681Y-108748319D01*
X134148319Y-109183681D01*
X134086996Y-109217166D01*
X134060638Y-109220000D01*
X109220000Y-109220000D01*
X107188000Y-109220000D01*
X105207362Y-109220000D01*
X105140323Y-109200315D01*
X105119681Y-109183681D01*
X104684319Y-108748319D01*
X104650834Y-108686996D01*
X104648000Y-108660638D01*
X104648000Y-104953362D01*
X104667685Y-104886323D01*
X104684319Y-104865681D01*
X105410000Y-104140000D01*
X105410000Y-101651362D01*
X105429685Y-101584323D01*
X105446319Y-101563681D01*
X105881681Y-101128319D01*
X105943004Y-101094834D01*
X105969362Y-101092000D01*
X107644638Y-101092000D01*
X107711677Y-101111685D01*
G37*
G04 #@! TD.AperFunction*
G04 #@! TA.AperFunction,Conductor*
G36*
X148859677Y-85363685D02*
G01*
X148880319Y-85380319D01*
X149569681Y-86069681D01*
X149603166Y-86131004D01*
X149606000Y-86157362D01*
X149606000Y-102564638D01*
X149586315Y-102631677D01*
X149569681Y-102652319D01*
X148082000Y-104139999D01*
X148082000Y-110438638D01*
X148062315Y-110505677D01*
X148045681Y-110526319D01*
X147102319Y-111469681D01*
X147040996Y-111503166D01*
X147014638Y-111506000D01*
X113791999Y-111506000D01*
X112304319Y-112993681D01*
X112242996Y-113027166D01*
X112216638Y-113030000D01*
X109271362Y-113030000D01*
X109204323Y-113010315D01*
X109183681Y-112993681D01*
X108494319Y-112304319D01*
X108460834Y-112242996D01*
X108458000Y-112216638D01*
X108458000Y-110806000D01*
X108477685Y-110738961D01*
X108507600Y-110706800D01*
X108865149Y-110438638D01*
X109440933Y-110006799D01*
X109506375Y-109982324D01*
X109515333Y-109982000D01*
X110946638Y-109982000D01*
X111013677Y-110001685D01*
X111034319Y-110018319D01*
X111506000Y-110490000D01*
X146050000Y-110490000D01*
X146812000Y-109728000D01*
X146812000Y-105664000D01*
X139700000Y-98552000D01*
X130607362Y-98552000D01*
X130540323Y-98532315D01*
X130519681Y-98515681D01*
X129068319Y-97064319D01*
X129034834Y-97002996D01*
X129032000Y-96976638D01*
X129032000Y-94793362D01*
X129051685Y-94726323D01*
X129068319Y-94705681D01*
X130773681Y-93000319D01*
X130835004Y-92966834D01*
X130861362Y-92964000D01*
X137922000Y-92964000D01*
X138938000Y-91948000D01*
X138938000Y-89967362D01*
X138957685Y-89900323D01*
X138974319Y-89879681D01*
X139663681Y-89190319D01*
X139725004Y-89156834D01*
X139751362Y-89154000D01*
X140462000Y-89154000D01*
X144235681Y-85380319D01*
X144297004Y-85346834D01*
X144323362Y-85344000D01*
X148792638Y-85344000D01*
X148859677Y-85363685D01*
G37*
G04 #@! TD.AperFunction*
G04 #@! TA.AperFunction,Conductor*
G36*
X130825677Y-85363685D02*
G01*
X130846319Y-85380319D01*
X131535681Y-86069681D01*
X131569166Y-86131004D01*
X131572000Y-86157362D01*
X131572000Y-90626638D01*
X131552315Y-90693677D01*
X131535681Y-90714319D01*
X130846319Y-91403681D01*
X130784996Y-91437166D01*
X130758638Y-91440000D01*
X119379999Y-91440000D01*
X110018319Y-100801681D01*
X109956996Y-100835166D01*
X109930638Y-100838000D01*
X108509362Y-100838000D01*
X108442323Y-100818315D01*
X108421681Y-100801681D01*
X107478319Y-99858319D01*
X107444834Y-99796996D01*
X107442000Y-99770638D01*
X107442000Y-98806000D01*
X102906319Y-94270319D01*
X102872834Y-94208996D01*
X102870000Y-94182638D01*
X102870000Y-93516249D01*
X102889685Y-93449210D01*
X102890109Y-93448553D01*
X102920049Y-93402728D01*
X103016610Y-93182591D01*
X103075620Y-92949563D01*
X103095471Y-92710000D01*
X103075620Y-92470437D01*
X103016610Y-92237409D01*
X102920049Y-92017272D01*
X102890191Y-91971570D01*
X102870003Y-91904680D01*
X102870000Y-91903749D01*
X102870000Y-86665362D01*
X102889685Y-86598323D01*
X102906319Y-86577681D01*
X104103681Y-85380319D01*
X104165004Y-85346834D01*
X104191362Y-85344000D01*
X130758638Y-85344000D01*
X130825677Y-85363685D01*
G37*
G04 #@! TD.AperFunction*
M02*
